<svg width="1440" height="701" viewBox="0 0 1440 701" fill="none" xmlns="http://www.w3.org/2000/svg">
<g id="Landing page V2 / desktop / 1440px" clip-path="url(#clip0_5_34420)">
<g id="Apps">
<g id="Element" opacity="0.3">
<g id="Group">
<path id="Vector" d="M540.714 700.402C535.247 700.402 529.925 699.83 524.811 698.688C514.085 696.292 504.176 691.374 495.358 684.068C485.88 676.218 477.567 665.521 470.649 652.276C456.744 625.653 449.787 593.771 443.059 562.937C441.737 556.883 440.371 550.622 438.983 544.548C429.516 503.147 417.515 466.882 402.297 433.68C371.938 367.45 329.245 310.926 278.829 270.222C220.523 223.15 157.835 199.701 102.311 204.197C69.677 206.841 26.5582 231.98 7.28733 274.915C-4.14912 300.396 -5.07131 328.673 4.62229 356.685L4.4298 356.803C-0.652832 342.112 -2.86736 327.385 -2.15033 313.029C-1.49253 299.86 1.62093 286.987 7.10543 274.768C15.8282 255.333 30.2131 238.108 48.7056 224.953C65.7937 212.799 84.8255 205.327 102.299 203.912C131.356 201.561 162.26 206.779 194.152 219.423C223.061 230.887 251.588 247.895 278.939 269.976C329.384 310.704 372.103 367.258 402.479 433.528C417.705 466.752 429.713 503.037 439.186 544.461C440.576 550.535 441.942 556.798 443.262 562.853C449.984 593.664 456.937 625.523 470.822 652.107C484.251 677.819 502.429 693.395 524.847 698.401C555.892 705.335 593.592 690.832 625.691 659.604C671.949 614.604 704.052 549.103 735.1 485.761C740.542 474.659 746.169 463.178 751.74 452.092C766.203 423.305 785.791 386.002 809.07 352.77C832.865 318.802 857.045 293.845 882.994 276.471C898.876 265.836 915.708 258.671 933.023 255.175C949.015 251.945 965.942 251.745 983.335 254.575C1013.17 259.432 1045.31 273.15 1081.6 296.512C1153.05 342.515 1224.42 398.354 1293.73 462.479C1359.61 523.428 1424.22 592.395 1485.77 667.46L1485.63 667.668C1358.04 512.063 1222.07 387.273 1081.5 296.765C1002.09 245.631 939.038 239.261 883.089 276.722C826.169 314.83 786.407 383.604 751.915 452.247C746.346 463.33 740.72 474.811 735.278 485.914C704.222 549.278 672.108 614.798 625.818 659.83C610.86 674.383 594.032 685.733 577.156 692.653C568.24 696.309 559.378 698.699 550.812 699.759C547.398 700.191 544.029 700.402 540.714 700.402Z" fill="#A1A1A1"/>
</g>
<g id="Group_2">
<path id="Vector_2" d="M546.06 684.615C532.117 684.615 519.202 681.077 507.66 674.095C494.789 666.31 483.683 654.246 474.647 638.242C473.847 636.824 473.054 635.358 472.288 633.881C458.532 607.374 451.266 575.906 444.242 545.473C442.821 539.323 441.353 532.961 439.864 526.788C430.995 490.032 420.316 457.637 407.213 427.756C405.599 424.077 403.928 420.391 402.242 416.8C371.437 351.138 328.397 295.331 277.774 255.41C219.047 209.141 156.182 186.662 100.757 192.116C68.3597 195.338 25.4397 220.889 6.08635 263.494C-5.50239 289.006 -6.81376 317.339 2.28972 345.433L2.09512 345.546C-2.67659 330.821 -4.63729 316.065 -3.7299 301.693C-2.89655 288.493 0.343803 275.592 5.90445 263.347C14.716 243.946 29.0587 226.701 47.3777 213.479C64.3093 201.257 83.2587 193.57 100.738 191.834C129.76 188.979 160.697 193.697 192.691 205.857C221.67 216.873 250.332 233.463 277.879 255.167C328.532 295.111 371.596 350.952 402.42 416.65C404.105 420.244 405.779 423.934 407.392 427.615C420.504 457.516 431.19 489.928 440.063 526.703C441.554 532.876 443.022 539.238 444.443 545.391C451.465 575.805 458.724 607.25 472.462 633.721C473.225 635.192 474.019 636.658 474.816 638.073C493.488 671.156 519.145 684.615 546.125 684.615C546.273 684.615 546.419 684.615 546.567 684.615C546.398 684.612 546.229 684.615 546.06 684.615ZM551.815 684.418C576.898 682.701 602.781 669.856 624.985 650.748C672.882 609.361 707.306 545.439 740.598 483.622C741.968 481.074 743.339 478.532 744.71 475.989C747.72 470.408 751.288 463.801 754.93 457.141C771.269 427.271 791.044 392.517 813.817 361.235C838.048 327.949 862.255 303.249 887.821 285.719C903.53 274.96 920.131 267.381 937.164 263.192C952.945 259.311 969.623 258.214 986.728 259.931C1016.28 262.899 1048.05 274.151 1083.86 294.333C1118.78 313.979 1147.48 332.473 1174.19 352.533C1212.03 380.98 1248.07 413.755 1278.33 442.064C1348.69 508.066 1417.73 583.012 1483.53 664.822L1483.38 665.028C1417.59 583.229 1348.56 508.289 1278.21 442.295C1247.95 413.989 1211.92 381.219 1174.09 352.782C1147.39 332.727 1118.69 314.239 1083.78 294.598C1005.77 250.632 943.529 247.89 887.918 285.973C830.201 325.542 789.098 395.161 755.101 457.31C751.457 463.97 747.891 470.575 744.881 476.158C743.51 478.698 742.14 481.243 740.769 483.791C707.467 545.628 673.03 609.573 625.1 650.991C613.215 661.217 600.568 669.34 587.51 675.133C575.354 680.519 563.372 683.634 551.815 684.418Z" fill="#A1A1A1"/>
</g>
<g id="Group_3">
<path id="Vector_3" d="M551.953 669.189C550.276 669.189 548.609 669.141 546.955 669.042C533.025 668.222 520.133 663.963 508.64 656.378C496.07 648.082 485.179 635.796 476.272 619.856C475.481 618.435 474.692 616.967 473.931 615.49C460.328 589.112 452.761 558.064 445.444 528.043C443.919 521.785 442.341 515.313 440.742 509.033C431.436 472.402 420.475 440.266 407.23 410.788C405.591 407.143 403.895 403.487 402.184 399.925C370.933 334.835 327.545 279.744 276.715 240.607C217.57 195.141 154.526 173.629 99.1992 180.041C68.0477 183.708 25.2525 207.803 4.905 252.034C-6.85084 277.588 -8.56198 305.997 -0.0443869 334.19L-0.241079 334.294C-4.70398 319.524 -6.40667 304.735 -5.30681 290.337C-4.29578 277.095 -0.920037 264.16 4.72522 251.887C13.6299 232.531 27.926 215.281 46.0695 201.996C62.8424 189.715 81.705 181.82 99.1801 179.762C128.168 176.405 159.14 180.622 191.232 192.297C220.283 202.867 249.079 219.038 276.821 240.364C327.681 279.527 371.092 334.649 402.361 399.775C404.073 403.341 405.771 406.997 407.41 410.647C420.661 440.142 431.628 472.297 440.939 508.949C442.538 515.232 444.116 521.703 445.641 527.961C452.955 557.966 460.517 588.991 474.102 615.337C474.864 616.814 475.648 618.28 476.439 619.695C512.631 684.463 576.77 677.509 624.278 641.89C674.173 604.15 711.254 541.426 747.113 480.767L747.481 480.145C750.954 474.265 754.546 468.188 758.12 462.187C795.839 398.879 837.298 333.818 892.651 294.962C908.19 284.076 924.564 276.083 941.311 271.203C956.889 266.665 973.313 264.673 990.126 265.281C1019.44 266.341 1050.84 275.13 1086.14 292.149C1123.23 309.972 1151.14 326.354 1176.64 345.27C1212.97 372.276 1248.16 406.402 1279.21 436.511C1348.35 503.909 1416.33 579.833 1481.28 662.17L1481.14 662.373C1416.19 580.045 1348.21 504.129 1279.09 436.737C1248.04 406.633 1212.86 372.513 1176.54 345.515C1151.05 326.605 1123.14 310.228 1086.07 292.411C1009.56 255.52 948.137 256.408 892.748 295.207C837.431 334.038 795.99 399.071 758.285 462.356C754.711 468.357 751.119 474.437 747.646 480.314L747.278 480.937C729.408 511.164 710.93 542.421 690.976 570.34C668.552 601.715 646.768 625.197 624.379 642.129C600.956 659.69 575.442 669.189 551.953 669.189Z" fill="#A1A1A1"/>
</g>
<g id="Group_4">
<path id="Vector_4" d="M1478.9 659.715C1414.8 576.857 1347.87 499.965 1279.97 431.178C1277.1 428.286 1274.22 425.38 1271.33 422.465C1241.92 392.807 1211.51 362.14 1178.99 338.249C1147.44 315.135 1115.47 301.002 1088.36 290.227C1013.51 260.298 952.891 264.816 897.587 304.441C840.815 345.239 796.825 412.975 761.479 467.404C759.357 470.671 757.24 473.943 755.119 477.219C753.553 479.637 751.986 482.055 750.419 484.471C730.293 515.494 711.987 543.23 691.76 568.539C668.652 597.45 646.38 618.624 623.666 633.273C602.379 647.002 579.64 654.266 558.488 654.269C554.635 654.269 550.838 654.029 547.107 653.542C533.486 651.763 520.875 646.766 509.627 638.687C497.353 629.873 486.678 617.353 477.894 601.472C477.109 600.049 476.327 598.577 475.569 597.098C462.128 570.858 454.266 540.247 446.664 510.645C445.027 504.27 443.333 497.674 441.62 491.273C431.869 454.756 420.625 422.877 407.249 393.811C405.584 390.194 403.861 386.572 402.126 383.04C370.427 318.523 326.695 264.148 275.659 225.791C216.095 181.129 152.876 160.589 97.6461 167.952C59.8891 173.085 21.2797 202.923 3.7538 240.51C-8.18606 266.118 -10.3033 294.618 -2.37372 322.929L-2.57253 323.028C-6.72451 308.204 -8.17127 293.369 -6.87259 278.935C-5.67755 265.645 -2.16221 252.667 3.57399 240.361C12.5717 221.061 26.8213 203.811 44.7829 190.479C61.395 178.147 80.1604 170.046 97.6249 167.673C126.579 163.811 157.582 167.529 189.774 178.719C218.895 188.844 247.828 204.598 275.765 225.543C326.832 263.923 370.588 318.329 402.306 382.885C404.042 386.42 405.766 390.045 407.431 393.661C420.815 422.745 432.064 454.641 441.821 491.174C443.534 497.578 445.228 504.171 446.865 510.55C454.463 540.135 462.32 570.726 475.745 596.934C476.502 598.411 477.283 599.88 478.065 601.3C515.848 669.608 580.065 661.076 623.575 633.016C675.486 599.536 715.211 538.308 750.26 484.285C751.827 481.867 753.393 479.448 754.96 477.033C757.079 473.757 759.199 470.485 761.32 467.218C781.496 436.15 801.421 405.959 823.325 378.139C848.514 346.144 872.774 321.957 897.489 304.193C912.866 293.175 929.007 284.767 945.465 279.205C960.846 274.005 977.018 271.119 993.533 270.623C1022.66 269.749 1053.7 276.074 1088.42 289.956C1115.54 300.737 1147.53 314.876 1179.09 338.003C1211.63 361.903 1242.04 392.579 1271.46 422.243C1274.35 425.157 1277.23 428.063 1280.11 430.955C1348.01 499.748 1414.94 576.648 1479.05 659.515L1478.9 659.715Z" fill="#A1A1A1"/>
</g>
<g id="Group_5">
<path id="Vector_5" d="M1476.66 657.06C1412.19 572.087 1346.32 494.218 1280.86 425.62C1276.94 421.516 1272.93 417.285 1269.06 413.195C1241.31 383.903 1212.61 353.613 1181.44 330.982C1150.32 308.464 1118.08 296.636 1090.64 288.039C1017.61 264.934 957.806 273.08 902.421 313.675C849.594 352.537 808.208 410.974 768.183 467.486L763.788 473.69C760.317 478.591 756.728 483.656 753.189 488.626C713.124 544.814 673.017 597.475 622.95 624.411C610.801 630.947 598.326 635.477 585.868 637.881C572.49 640.46 559.495 640.497 547.242 637.988C533.933 635.263 521.609 629.538 510.61 620.972C498.641 611.65 488.179 598.902 479.52 583.083C478.739 581.651 477.963 580.177 477.212 578.7C463.936 552.616 455.79 522.456 447.914 493.288C446.156 486.78 444.337 480.049 442.501 473.512C432.298 437.109 420.775 405.486 407.272 376.837C405.584 373.257 403.835 369.663 402.073 366.159C369.927 302.214 325.85 248.555 274.605 210.979C214.62 167.126 151.224 147.553 96.0888 155.871C58.6765 161.635 20.2427 191.682 2.62795 228.943C-9.51073 254.615 -12.0467 283.225 -4.70727 311.68L-4.90823 311.773C-8.74928 296.884 -9.93585 281.993 -8.43623 267.516C-7.05294 254.17 -3.39168 241.142 2.44605 228.796C11.5411 209.561 25.7399 192.328 43.5111 178.956C59.9583 166.579 78.6221 158.284 96.0634 155.595C124.983 151.231 156.019 154.447 188.312 165.153C217.505 174.832 246.571 190.166 274.704 210.734C325.979 248.33 370.081 302.023 402.246 366.004C404.008 369.511 405.759 373.107 407.447 376.687C420.959 405.35 432.488 436.99 442.696 473.413C444.532 479.95 446.351 486.684 448.108 493.192C455.981 522.343 464.122 552.489 477.384 578.542C478.132 580.014 478.909 581.485 479.687 582.917C516.56 650.275 577.826 648.384 622.868 624.151C672.895 597.238 712.985 544.597 753.032 488.434C756.571 483.465 760.16 478.4 763.631 473.498L768.027 467.294C787.674 439.555 807.988 410.869 830.05 384.185C855.038 353.963 878.677 330.819 902.316 313.427C917.536 302.271 933.448 293.448 949.607 287.208C964.8 281.339 980.721 277.557 996.927 275.964C1025.93 273.114 1056.59 276.976 1090.69 287.763C1118.14 296.366 1150.39 308.196 1181.54 330.734C1212.72 353.374 1241.43 383.672 1269.19 412.972C1273.06 417.062 1277.07 421.29 1280.99 425.397C1346.45 494.001 1412.33 571.876 1476.8 656.857L1476.66 657.06Z" fill="#A1A1A1"/>
</g>
<g id="Group_6">
<path id="Vector_6" d="M1474.42 654.404C1410.5 568.488 1345.68 489.643 1281.74 420.064C1276.93 414.835 1272.01 409.398 1267.24 404.141C1240.99 375.165 1213.84 345.202 1183.89 323.721C1152.91 301.588 1120.53 292.16 1092.93 285.857C1021.93 269.393 962.927 281.17 907.254 322.915C858.67 359.498 818.781 411.345 780.203 461.484C776.144 466.761 771.946 472.215 767.855 477.5C763.052 483.707 759.382 488.423 755.958 492.786C737.618 516.142 715.781 543.035 692.866 565.404C668.582 589.106 645.479 605.511 622.234 615.557C610.01 620.839 597.588 624.171 585.31 625.456C572.126 626.837 559.362 625.823 547.373 622.437C534.384 618.77 522.347 612.318 511.592 603.262C499.929 593.441 489.685 580.464 481.144 564.696C480.375 563.267 479.602 561.79 478.854 560.308C465.753 534.398 457.334 504.703 449.191 475.987C447.302 469.326 445.35 462.44 443.381 455.751C432.719 419.449 420.914 388.086 407.291 359.862C405.577 356.313 403.803 352.753 402.016 349.278C369.424 285.905 325 232.962 273.547 196.167C213.146 153.12 149.572 134.519 94.5342 143.787C63.2178 149.176 22.3156 174.003 1.53242 217.315C-10.8241 243.067 -13.7895 271.806 -7.04016 300.424L-7.24112 300.509C-10.7713 285.544 -11.6934 270.588 -9.98442 256.055C-8.40654 242.641 -4.59298 229.557 1.35474 217.163C10.547 198.007 24.693 180.802 42.2675 167.402C58.5497 154.988 77.1014 146.504 94.5089 143.508C123.395 138.643 154.464 141.357 186.855 151.578C216.118 160.812 245.319 175.728 273.647 195.919C325.129 232.733 369.578 285.708 402.189 349.117C403.976 352.593 405.753 356.158 407.466 359.71C421.096 387.948 432.907 419.328 443.576 455.647C445.547 462.338 447.499 469.224 449.388 475.885C457.525 504.588 465.941 534.266 479.027 560.147C479.776 561.627 480.546 563.101 481.316 564.527C511.991 621.166 564.647 640.141 622.168 615.283C674.259 592.773 716.752 542.322 755.812 492.577C759.236 488.214 762.904 483.498 767.707 477.292C771.798 472.007 775.996 466.552 780.055 461.276C799.047 436.592 818.684 411.069 839.63 387.17C863.315 360.141 885.403 339.04 907.153 322.664C922.227 311.361 937.907 302.124 953.76 295.213C968.775 288.665 984.444 283.989 1000.33 281.308C1029.26 276.432 1059.56 277.827 1092.96 285.573C1120.58 291.881 1152.99 301.312 1183.99 323.464C1213.96 344.96 1241.11 374.931 1267.38 403.915C1272.14 409.172 1277.07 414.609 1281.87 419.838C1345.81 489.426 1410.65 568.276 1474.57 654.198L1474.42 654.404Z" fill="#A1A1A1"/>
</g>
<g id="Group_7">
<path id="Vector_7" d="M1472.17 651.749C1408.81 564.883 1345.04 485.06 1282.62 414.506C1277.31 408.505 1271.85 402.205 1266.58 396.114C1241.45 367.098 1215.47 337.096 1186.34 316.455C1155.34 294.587 1122.88 287.611 1095.21 283.67C1027.43 273.757 967.529 289.615 912.087 332.149C867.942 366.171 830.101 411.684 793.505 455.701C786.113 464.591 778.471 473.786 771.04 482.549C766.495 487.913 762.468 492.623 758.724 496.947C741.314 517.033 718.156 542.787 693.409 563.834C668.544 584.98 645.026 599.003 621.512 606.701C595.866 615.098 570.271 615.16 547.495 606.884C534.832 602.281 523.081 595.105 512.566 585.552C501.214 575.239 491.189 562.036 482.764 546.316C482.001 544.884 481.235 543.404 480.49 541.922C467.576 516.21 458.895 487.002 450.502 458.759C448.472 451.927 446.374 444.863 444.256 437.999C433.127 401.793 421.041 370.683 407.307 342.897C405.569 339.379 403.769 335.85 401.956 332.406C368.918 269.605 324.149 217.375 272.49 181.366C211.671 139.128 147.92 121.497 92.9772 131.715C55.7427 138.79 18.5652 168.499 0.468229 205.638C-12.1252 231.482 -15.5284 260.371 -9.37343 289.181L-9.57647 289.257C-12.7936 274.202 -13.4493 259.168 -11.5266 244.572C-9.74993 231.082 -5.77348 217.93 0.290566 205.483C9.58017 186.417 23.6711 169.251 41.0405 155.84C57.1513 143.401 75.5867 134.731 92.9476 131.433C121.8 126.066 152.903 128.282 185.393 138.015C214.728 146.803 244.064 161.303 272.587 181.112C324.276 217.144 369.07 269.402 402.13 332.242C403.942 335.687 405.742 339.218 407.483 342.739C421.223 370.543 433.315 401.667 444.451 437.89C446.568 444.753 448.666 451.82 450.697 458.652C459.085 486.881 467.762 516.074 480.664 541.761C481.408 543.244 482.172 544.718 482.936 546.15C513.084 602.422 564.869 624.955 621.461 606.428C673.053 589.535 717.856 543.723 758.584 496.735C762.326 492.411 766.355 487.704 770.899 482.34C778.327 473.577 785.971 464.385 793.361 455.495C829.965 411.47 867.813 365.945 911.979 331.91C926.92 320.446 942.371 310.798 957.903 303.227C972.757 295.988 988.174 290.416 1003.72 286.664C1032.64 279.688 1062.58 278.619 1095.23 283.394C1122.92 287.338 1155.41 294.317 1186.44 316.209C1215.59 336.865 1241.58 366.878 1266.72 395.905C1271.99 401.996 1277.44 408.293 1282.76 414.294C1345.18 484.855 1408.96 564.683 1472.32 651.555L1472.17 651.749Z" fill="#A1A1A1"/>
</g>
<g id="Group_8">
<path id="Vector_8" d="M1469.93 649.094C1407.14 561.269 1344.41 480.474 1283.5 408.95C1277.9 402.376 1272.14 395.417 1266.58 388.686C1242.37 359.425 1217.34 329.167 1188.79 309.19C1157.66 287.509 1125.17 283.019 1097.5 281.486C1032.28 277.607 973.208 297.2 916.92 341.386C877.446 372.521 842.257 411.926 808.224 450.032C796.523 463.136 785.47 475.513 774.228 487.597C769.655 492.515 765.49 496.935 761.493 501.104C735.699 527.98 714.239 547.412 693.955 562.255C668.508 580.879 644.577 592.52 620.795 597.841C611.569 599.905 602.376 600.934 593.351 600.934C577.352 600.934 561.872 597.709 547.62 591.322C521.828 579.762 500.555 558.433 484.389 527.927C483.627 526.481 482.868 525.001 482.132 523.524C469.414 498.034 460.49 469.346 451.86 441.599C449.673 434.569 447.414 427.302 445.136 420.236C433.531 384.114 421.161 353.264 407.328 325.919C405.564 322.433 403.739 318.935 401.901 315.521C368.417 253.293 323.301 201.779 271.434 166.551C210.199 125.124 146.272 108.46 91.4247 119.628C54.0357 127.399 17.9306 156.544 -0.553411 193.881C-13.4028 219.832 -17.2565 248.893 -11.7022 277.923L-11.9074 277.993C-14.8072 262.834 -15.1922 247.709 -13.0495 233.038C-11.0656 219.457 -6.92203 206.232 -0.728957 193.726C8.65795 174.764 22.6875 157.655 39.8454 144.243C55.7828 131.785 74.0892 122.945 91.393 119.349C120.212 113.48 151.348 115.194 183.936 124.442C213.342 132.788 242.812 146.871 271.531 166.297C323.428 201.547 368.569 253.09 402.075 315.355C403.913 318.771 405.738 322.269 407.504 325.759C421.345 353.117 433.721 383.984 445.331 420.12C447.609 427.187 449.87 434.456 452.055 441.486C460.68 469.219 469.6 497.896 482.307 523.363C483.043 524.837 483.801 526.317 484.562 527.76C514.749 584.732 564.391 610.173 620.759 597.56C674.417 585.552 721.944 541.95 761.362 500.878C765.357 496.71 769.522 492.293 774.095 487.374C785.334 475.29 796.388 462.916 808.089 449.812C842.125 411.698 877.323 372.287 916.812 341.14C931.641 329.499 946.862 319.436 962.053 311.228C976.765 303.28 991.931 296.811 1007.13 292.005C1036.11 282.841 1065.67 279.307 1097.51 281.201C1125.2 282.734 1157.72 287.23 1188.89 308.937C1217.46 328.927 1242.5 359.2 1266.72 388.472C1272.29 395.203 1278.04 402.162 1283.64 408.733C1344.55 480.263 1407.28 561.066 1470.08 648.896L1469.93 649.094Z" fill="#A1A1A1"/>
</g>
<g id="Group_9">
<path id="Vector_9" d="M1467.69 646.439C1404.58 556.399 1344.62 476.897 1284.38 403.392C1278.63 396.379 1272.98 389.216 1266.98 381.634C1243.56 351.993 1219.34 321.345 1191.24 301.927C1159.72 280.254 1125.81 278.45 1099.79 279.301C1037.53 281.072 979.298 304.402 921.754 350.626C887.229 378.494 855.352 411.96 824.524 444.327C808.322 461.338 793.019 477.402 777.414 492.648C772.781 497.178 768.477 501.304 764.26 505.265C738.115 529.776 715.948 547.382 694.497 560.675C668.46 576.809 644.117 586.068 620.076 588.983C607.724 590.479 595.456 590.197 583.614 588.145C571.075 585.972 559.006 581.803 547.743 575.757C522.779 562.354 502.01 540.078 486.014 509.543C485.258 508.095 484.505 506.612 483.774 505.135C471.269 479.908 462.121 451.766 453.274 424.551C450.913 417.291 448.472 409.782 446.017 402.481C433.924 366.439 421.276 335.844 407.348 308.951C405.556 305.496 403.706 302.029 401.847 298.646C367.916 236.99 322.456 186.192 270.381 151.744C222.317 120.082 172.751 103.562 127.3 103.562C114.45 103.562 101.939 104.881 89.8726 107.55C52.9342 115.882 17.0554 145.132 -1.53651 182.068C-14.6587 208.141 -18.9799 237.399 -14.0327 266.677L-14.2399 266.739C-16.8225 251.461 -16.9304 236.232 -14.5614 221.476C-12.3659 207.797 -8.04264 194.484 -1.7142 181.91C7.77 163.067 21.734 146.028 38.6719 132.631C54.6601 119.983 72.3531 111.214 89.8346 107.274C118.619 100.904 149.79 102.119 182.477 110.879C211.953 118.777 241.561 132.439 270.474 151.488C322.578 185.955 368.066 236.782 402.018 298.474C403.879 301.857 405.732 305.326 407.524 308.785C421.458 335.692 434.113 366.3 446.211 402.36C448.667 409.66 451.11 417.169 453.47 424.433C462.314 451.636 471.457 479.767 483.951 504.974C484.683 506.449 485.436 507.931 486.189 509.377C516.103 566.475 564.895 595.384 620.059 588.698C675.879 581.93 726.38 540.428 764.141 505.028C768.359 501.068 772.661 496.941 777.293 492.414C792.896 477.174 808.197 461.107 824.397 444.099C855.229 411.729 887.11 378.254 921.648 350.378C951.274 326.579 980.347 309.236 1010.53 297.352C1039.64 285.892 1068.83 279.893 1099.79 279.014C1117.44 278.436 1131.85 279.44 1145.12 282.168C1162.26 285.691 1177.38 292.07 1191.34 301.671C1219.47 321.105 1243.7 351.77 1267.13 381.426C1273.12 389.008 1278.78 396.167 1284.53 403.18C1344.77 476.689 1404.74 556.196 1467.84 646.242L1467.69 646.439Z" fill="#A1A1A1"/>
</g>
<g id="Group_10">
<path id="Vector_10" d="M1465.44 643.783C1402.92 552.756 1343.98 472.308 1285.26 397.833C1279.45 390.464 1273.73 382.874 1267.66 374.838C1244.94 344.728 1221.45 313.59 1193.69 294.66C1161.91 273.088 1128.03 273.951 1102.07 277.111C1043.32 284.014 985.922 311.082 926.587 359.856C897.352 384.004 869.517 411.638 842.597 438.365C821.317 459.491 801.219 479.448 780.601 497.688C775.941 501.814 771.373 505.76 767.026 509.413C740.831 531.41 717.283 547.654 695.038 559.076C668.402 572.752 643.647 579.635 619.357 580.114C606.998 580.357 594.779 578.869 583.047 575.686C570.747 572.349 558.911 567.132 547.866 560.175C523.758 544.991 503.493 521.768 487.636 491.148C486.891 489.702 486.143 488.217 485.413 486.731C473.143 461.811 463.796 434.264 454.756 407.625C452.199 400.087 449.553 392.291 446.894 384.711C434.307 348.737 421.378 318.402 407.367 291.968C405.55 288.543 403.674 285.107 401.789 281.756C367.412 220.672 321.605 170.59 269.324 136.923C207.258 97.1232 142.973 82.3983 88.316 95.4602C51.8555 104.325 16.2158 133.651 -2.47979 170.167C-15.8981 196.378 -20.6994 225.856 -16.3676 255.418L-16.5749 255.472C-18.8339 240.062 -18.6604 224.714 -16.0567 209.857C-13.6391 196.065 -9.13183 182.656 -2.65533 170.006C6.92193 151.298 20.8162 134.344 37.5256 120.975C53.3298 108.33 70.8789 99.412 88.2779 95.1811C117.031 88.312 148.233 89.0223 181.017 97.298C210.566 104.756 240.306 118.001 269.415 136.667C321.728 170.35 367.56 220.464 401.957 281.584C403.843 284.935 405.721 288.374 407.538 291.802C421.557 318.25 434.491 348.598 447.085 384.587C449.746 392.167 452.389 399.963 454.949 407.503C463.985 434.132 473.327 461.667 485.588 486.571C486.318 488.053 487.067 489.539 487.809 490.982C518.039 549.351 564.755 580.909 619.353 579.827C663.654 578.953 710.542 556.5 766.912 509.168C771.257 505.515 775.823 501.572 780.483 497.445C801.094 479.208 821.192 459.257 842.468 438.131C869.392 411.402 897.231 383.762 926.475 359.608C956.391 335.015 984.996 316.4 1013.92 302.693C1043.23 288.808 1072.06 280.344 1102.05 276.82C1128.04 273.655 1161.96 272.795 1193.79 294.401C1221.58 313.354 1245.08 344.506 1267.81 374.629C1273.87 382.665 1279.6 390.253 1285.41 397.618C1344.13 472.097 1403.07 552.551 1465.6 643.583L1465.44 643.783Z" fill="#A1A1A1"/>
</g>
<g id="Group_11">
<path id="Vector_11" d="M1463.2 641.128C1401.26 549.112 1343.34 467.711 1286.15 392.277C1280.34 384.619 1274.61 376.661 1268.54 368.236C1246.46 337.589 1223.63 305.898 1196.14 287.396C1164.06 265.904 1130.24 269.441 1104.36 274.924C1049.09 286.41 994.135 316.333 931.422 369.093C907.902 388.971 884.917 410.776 862.689 431.863C835.691 457.473 810.191 481.666 783.788 502.736C779.031 506.535 774.323 510.183 769.795 513.571C743.129 533.51 718.854 547.874 695.582 557.48C682.546 562.861 669.678 566.76 657.334 569.068C644.167 571.529 631.149 572.264 618.64 571.255C593.26 569.206 569.491 560.237 547.993 544.599C524.775 527.709 505.016 503.542 489.264 472.762C488.524 471.305 487.781 469.816 487.056 468.339C475.048 443.786 465.535 416.893 456.336 390.887C453.55 383.015 450.672 374.874 447.776 366.954C434.681 331.038 421.47 300.96 407.388 274.997C405.546 271.6 403.642 268.195 401.734 264.878C366.911 204.363 320.759 154.997 268.27 122.117C205.789 83.1313 141.329 69.3761 86.7631 83.3822C28.3372 98.6115 -28.5955 164.414 -18.6968 244.169L-18.9061 244.214C-21.383 224.263 -19.932 204.608 -14.5955 185.791C-9.72229 168.605 -1.72502 152.432 9.17419 137.724C19.3077 124.047 31.4654 112.24 45.3068 102.628C58.4713 93.4872 72.7928 86.7336 86.7208 83.1031C115.44 75.7322 146.676 75.9436 179.56 83.7345C209.18 90.7502 239.056 103.578 268.359 121.863C320.877 154.766 367.057 204.16 401.901 264.709C403.811 268.029 405.715 271.434 407.559 274.833C421.648 300.808 434.865 330.903 447.966 366.833C450.862 374.753 453.741 382.893 456.526 390.769C465.723 416.766 475.233 443.648 487.234 468.187C487.957 469.664 488.697 471.152 489.438 472.607C519.711 531.76 565.601 566.692 618.652 570.976C663.565 574.598 712.97 555.744 769.691 513.328C774.217 509.94 778.924 506.296 783.681 502.496C810.077 481.432 835.573 457.242 862.566 431.634C884.796 410.545 907.783 388.737 931.307 368.856C994.046 316.074 1049.02 286.139 1104.33 274.644C1121.72 270.96 1136.11 269.782 1149.64 270.941C1166.93 272.421 1182.17 277.72 1196.23 287.143C1223.75 305.664 1246.6 337.374 1268.69 368.039C1274.76 376.461 1280.49 384.418 1286.29 392.074C1343.49 467.513 1401.41 548.917 1463.36 640.939L1463.2 641.128Z" fill="#A1A1A1"/>
</g>
<g id="Group_12">
<path id="Vector_12" d="M1460.96 638.473C1399.6 545.453 1342.71 463.105 1287.03 386.719C1281.27 378.815 1275.57 370.537 1269.55 361.768C1248.07 330.534 1225.86 298.234 1198.59 280.13C1165.81 258.457 1130.42 265.529 1106.65 272.734C1042.13 292.047 984.306 336.949 936.257 378.33C918.987 393.264 901.762 409.082 885.101 424.379C851.68 455.066 820.114 484.051 786.978 507.784C782.105 511.277 777.257 514.623 772.566 517.732C745.38 535.712 720.377 548.193 696.13 555.883C668.642 564.601 642.332 566.794 617.925 562.397C592.853 557.878 569.366 546.648 548.122 529.018C525.839 510.527 506.585 485.415 490.891 454.379C490.159 452.921 489.421 451.43 488.7 449.948C476.991 425.845 467.358 399.69 458.041 374.395C454.989 366.106 451.831 357.537 448.659 349.196C434.857 312.83 421.75 283.862 407.412 258.026C405.544 254.66 403.617 251.289 401.682 248C366.408 188.06 319.909 139.41 267.213 107.307C204.318 69.1396 139.68 56.3512 85.2068 71.3015C26.5714 87.6077 -29.198 152.517 -21.0294 232.92L-21.2388 232.956C-23.265 213.008 -21.5116 193.373 -16.0292 174.598C-11.0037 157.396 -2.9599 141.205 7.88221 126.48C17.9925 112.748 30.0867 100.853 43.8308 91.1198C56.917 81.8519 71.211 74.9038 85.1645 71.0225C113.852 63.1499 145.12 62.8624 178.101 70.1656C207.793 76.7388 237.804 89.1495 267.302 107.051C320.03 139.17 366.554 187.849 401.845 247.825C403.78 251.117 405.709 254.491 407.579 257.857C421.925 283.704 435.037 312.689 448.845 349.07C452.017 357.41 455.175 365.982 458.227 374.271C467.542 399.558 477.172 425.704 488.873 449.795C489.595 451.278 490.331 452.766 491.062 454.224C521.571 514.555 566.634 552.872 617.951 562.118C663.976 570.41 714.519 555.806 772.471 517.478C777.16 514.372 782.008 511.029 786.877 507.536C820.004 483.809 851.566 454.83 884.98 424.145C901.641 408.848 918.869 393.027 936.141 378.091C968.451 350.267 995.33 329.711 1020.72 313.399C1050.62 294.198 1078.71 280.806 1106.6 272.457C1123.6 267.305 1138.42 264.971 1151.9 265.326C1169.26 265.783 1184.57 270.541 1198.68 279.876C1225.98 298.003 1248.21 330.322 1269.7 361.576C1275.73 370.342 1281.42 378.621 1287.18 386.519C1342.86 462.908 1399.76 545.262 1461.12 638.284L1460.96 638.473Z" fill="#A1A1A1"/>
</g>
<g id="Group_13">
<path id="Vector_13" d="M1458.72 635.814C1397.95 541.789 1342.08 458.491 1287.91 381.157C1282.23 373.048 1276.61 364.482 1270.66 355.411C1249.74 323.549 1228.12 290.601 1201.04 272.863C1167.91 251.241 1132.61 261.182 1108.94 270.543C1050.48 293.462 998.336 337.101 941.092 387.564C930.768 396.699 920.326 406.128 910.226 415.249C871.384 450.325 831.222 486.593 790.166 512.829C785.178 516.02 780.187 519.067 775.332 521.886C747.963 537.761 721.498 548.658 696.673 554.275C668.551 560.64 641.815 560.389 617.204 553.534C592.482 546.648 569.282 533.155 548.245 513.43C526.956 493.468 508.203 467.415 492.509 435.995C491.784 434.535 491.052 433.041 490.335 431.558C478.979 408.019 469.285 382.716 459.911 358.247C456.533 349.43 453.041 340.314 449.532 331.444C435.191 295.114 421.811 266.394 407.424 241.06C405.535 237.734 403.581 234.391 401.618 231.126C365.904 171.751 319.063 123.816 266.155 92.4976C202.848 55.1471 138.034 43.3283 83.65 59.2201C26.876 75.9913 -29.9235 138.623 -23.3645 221.667L-23.5739 221.695C-25.1496 201.747 -23.0938 182.135 -17.4654 163.402C-12.2897 146.18 -4.19728 129.975 6.58561 115.233C26.4804 88.0384 54.5523 67.5212 83.6035 58.9411C112.257 50.5696 143.559 49.7803 176.639 56.5959C206.403 62.7294 236.548 74.7201 266.24 92.2383C319.177 123.574 366.046 171.539 401.783 230.943C403.748 234.21 405.702 237.553 407.593 240.882C421.987 266.23 435.373 294.961 449.718 331.306C453.227 340.179 456.721 349.294 460.099 358.111C469.471 382.575 479.163 407.873 490.512 431.4C491.227 432.883 491.959 434.374 492.685 435.834C524.084 498.696 567.156 539.3 617.244 553.255C663.625 566.176 716.782 555.535 775.244 521.626C780.096 518.808 785.083 515.764 790.068 512.576C831.11 486.348 871.268 450.085 910.102 415.015C920.201 405.894 930.644 396.465 940.97 387.33C966.027 365.24 995.184 339.903 1024.12 318.748C1054.39 296.622 1082.11 280.766 1108.87 270.275C1125.71 263.615 1140.53 260.159 1154.16 259.714C1171.35 259.15 1187.15 263.491 1201.13 272.612C1213.26 280.558 1225.47 292.416 1238.45 308.866C1249.92 323.391 1260.54 339.576 1270.81 355.225C1276.76 364.293 1282.38 372.859 1288.06 380.965C1342.24 458.302 1398.11 541.603 1458.87 635.631L1458.72 635.814Z" fill="#A1A1A1"/>
</g>
<g id="Group_14">
<path id="Vector_14" d="M1456.47 633.159C1396.31 538.119 1341.46 453.871 1288.79 375.602C1283.21 367.315 1277.69 358.489 1271.84 349.148C1251.47 316.623 1230.42 282.991 1203.49 265.602C1178.33 249.403 1148.15 250.305 1111.22 268.359C1059.59 293.459 1013.43 335.444 964.562 379.897C958.477 385.433 952.186 391.155 945.926 396.807C943.474 399.025 941.021 401.249 938.569 403.47C892.007 445.663 843.861 489.293 793.354 517.881C788.248 520.773 783.116 523.521 778.102 526.046C750.131 540.12 722.92 549.078 697.226 552.669C668.454 556.688 641.289 553.999 616.492 544.675C592.155 535.523 569.24 519.766 548.383 497.843C528.166 476.592 509.917 449.601 494.14 417.611C493.421 416.148 492.696 414.652 491.983 413.166C481.058 390.366 471.396 366.083 462.05 342.6C458.266 333.09 454.351 323.256 450.419 313.683C435.524 277.379 421.873 248.907 407.452 224.086C405.536 220.788 403.558 217.479 401.57 214.246C365.403 155.445 318.215 108.223 265.1 77.6884C201.382 41.1582 136.389 30.3062 82.0957 47.1395C26.3644 64.5618 -30.3546 127.706 -25.695 210.418L-25.9065 210.44C-27.0297 190.49 -24.6734 170.9 -18.8992 152.215C-13.5712 134.973 -5.43218 118.748 5.2936 103.995C25.1038 76.7442 53.0784 55.9225 82.0471 46.866C110.669 37.9928 142.002 36.7019 175.18 43.0326C205.016 48.7208 235.298 60.2943 265.185 77.4291C318.329 107.984 365.547 155.231 401.729 214.062C403.717 217.295 405.699 220.61 407.615 223.908C422.042 248.744 435.702 277.224 450.6 313.542C454.535 323.115 458.448 332.952 462.234 342.462C471.576 365.939 481.238 390.216 492.158 413.008C492.871 414.494 493.595 415.988 494.314 417.451C526.394 482.495 568.66 526.39 616.547 544.396C663.817 562.171 718.146 555.905 778.025 525.776C783.036 523.25 788.165 520.505 793.269 517.616C843.759 489.04 891.897 445.418 938.449 403.23C940.902 401.006 943.354 398.785 945.805 396.567C952.066 390.916 958.356 385.194 964.441 379.66C1013.32 335.198 1059.49 293.203 1111.15 268.091C1127.83 259.934 1142.64 255.359 1156.43 254.099C1173.68 252.523 1189.55 256.309 1203.58 265.346C1215.64 273.134 1227.7 285.046 1240.44 301.763C1251.68 316.513 1262.01 333.011 1272 348.965C1277.85 358.303 1283.37 367.126 1288.95 375.41C1341.62 453.682 1396.47 537.933 1456.64 632.976L1456.47 633.159Z" fill="#A1A1A1"/>
</g>
<g id="Group_15">
<path id="Vector_15" d="M1454.23 630.504C1399.32 541.941 1343.95 454.308 1289.67 370.043C1284.15 361.514 1278.67 352.35 1272.87 342.651C1254.02 311.099 1232.64 275.338 1205.94 258.338C1180.49 242.168 1150.25 244.73 1113.51 266.169C1069.81 291.576 1031.14 328.935 990.206 368.487C977.386 380.873 964.129 393.684 950.757 406.041C927.417 427.657 902.168 450.531 875.702 471.364C847.357 493.677 821.462 510.541 796.535 522.926C791.298 525.528 786.027 527.977 780.864 530.201C752.302 542.499 724.35 549.498 697.786 551.003C668.38 552.666 640.786 547.559 615.768 535.81C569.57 513.847 529.192 467.894 495.759 399.225C495.046 397.759 494.327 396.26 493.618 394.774C483.248 372.98 473.755 349.988 464.575 327.751C460.254 317.286 455.787 306.462 451.292 295.928C435.831 259.632 421.905 231.411 407.467 207.117C405.523 203.847 403.52 200.569 401.509 197.37C364.902 139.136 317.367 92.6332 264.045 62.8791C199.915 27.1663 134.746 17.2867 80.5415 35.0586C24.4717 53.5464 -30.826 115.854 -28.0277 199.168L-28.2392 199.18C-28.9097 179.223 -26.2488 159.656 -20.3328 141.019C-14.8505 123.754 -6.66495 107.513 3.99948 92.7488C14.0463 78.8385 25.9544 66.6759 39.3918 56.5962C52.4379 46.8125 66.2644 39.4727 80.4886 34.7824C109.079 25.4102 140.446 23.6175 173.721 29.4607C203.629 34.7119 234.044 45.8655 264.125 62.6169C317.479 92.388 365.042 138.919 401.67 197.181C403.681 200.383 405.688 203.664 407.632 206.934C422.076 231.242 436.009 259.474 451.476 295.782C455.971 306.318 460.438 317.142 464.759 327.611C473.939 349.844 483.43 372.834 493.796 394.619C494.502 396.108 495.224 397.604 495.934 399.07C529.343 467.685 569.684 513.602 615.838 535.543C663.38 557.867 720.422 555.927 780.799 529.931C785.957 527.707 791.228 525.26 796.461 522.661C852.192 494.973 903.184 449.753 950.634 405.807C964.006 393.45 977.262 380.641 990.081 368.256C1031.03 328.696 1069.7 291.328 1113.42 265.909C1150.22 244.437 1180.52 241.874 1206.03 258.082C1217.99 265.695 1229.86 277.63 1242.33 294.561C1253.33 309.492 1263.35 326.26 1273.04 342.474C1278.84 352.173 1284.31 361.333 1289.83 369.857C1344.11 454.125 1399.48 541.758 1454.39 630.324L1454.23 630.504Z" fill="#A1A1A1"/>
</g>
<g id="Group_16">
<path id="Vector_16" d="M1451.99 627.849C1397.91 538.795 1343.6 450.187 1290.55 364.485C1285.2 355.862 1279.89 346.538 1274.27 336.667C1255.87 304.379 1235.02 267.781 1208.39 251.069C1182.63 234.926 1152.34 239.149 1115.79 263.973C1077.49 289.944 1042.3 326.615 1008.28 362.083C991.213 379.866 973.568 398.255 955.59 415.272C927.213 442.156 903.338 462.665 880.45 479.817C852.228 500.966 825.821 516.716 799.722 527.969C794.365 530.28 788.95 532.428 783.63 534.353C755.914 544.379 728.697 549.453 702.659 549.456C701.213 549.456 699.774 549.439 698.336 549.408C668.234 548.754 640.213 541.194 615.051 526.943C602.906 520.026 591.013 511.245 579.703 500.844C569.073 491.069 558.626 479.555 548.653 466.623C530.711 443.357 513.938 415.294 497.381 380.836C496.67 379.353 495.961 377.868 495.257 376.377C485.65 356.045 476.561 334.792 467.773 314.239C462.699 302.375 457.453 290.105 452.17 278.162C435.903 241.367 422.123 214.217 407.484 190.137C405.515 186.899 403.486 183.651 401.449 180.483C364.399 122.827 316.519 77.04 262.989 48.0667C198.449 13.1741 133.102 4.26424 78.9866 22.9747C23.9681 42.0516 -31.2577 104.832 -30.3588 187.913L-30.5703 187.916C-30.9891 149.218 -19.4807 112.42 2.70903 81.502C12.7389 67.5269 24.5836 55.2769 37.9173 45.0845C50.8915 35.1684 64.6905 27.6368 78.9337 22.6985C107.49 12.8246 138.891 10.533 172.263 15.8885C202.243 20.7 232.794 31.4364 263.068 47.8017C316.631 76.7948 364.538 122.61 401.612 180.3C403.649 183.471 405.682 186.721 407.651 189.96C422.296 214.054 436.082 241.212 452.354 278.021C457.638 289.967 462.885 302.237 467.957 314.1C476.746 334.652 485.832 355.902 495.437 376.227C496.141 377.718 496.848 379.204 497.558 380.684C532.741 453.908 571.2 501.665 615.134 526.683C675.983 561.15 740.319 549.732 783.575 534.082C788.891 532.157 794.301 530.012 799.657 527.701C859.682 501.82 914.455 453.899 955.467 415.043C973.443 398.033 991.086 379.643 1008.15 361.863C1042.18 326.39 1077.38 289.707 1115.69 263.725C1132.05 252.616 1146.85 245.795 1160.95 242.875C1178.33 239.273 1194.32 241.945 1208.48 250.818C1220.41 258.302 1232.17 270.332 1244.43 287.593C1255.24 302.803 1265 319.932 1274.44 336.501C1280.06 346.369 1285.37 355.69 1290.72 364.307C1343.76 450.009 1398.08 538.618 1452.15 627.671L1451.99 627.849Z" fill="#A1A1A1"/>
</g>
<g id="Group_17">
<path id="Vector_17" d="M1449.75 625.194L1291.44 358.929C1286.27 350.233 1281.13 340.771 1275.7 330.756C1257.76 297.704 1237.43 260.244 1210.84 243.808C1185.14 227.916 1153.93 233.965 1118.08 261.789C1083.61 288.535 1052.18 324.104 1021.78 358.503C1001.97 380.926 981.477 404.11 960.425 424.514C897.152 485.844 841.854 522.067 786.402 538.514C763.398 545.335 740.705 548.768 718.697 548.768C712.026 548.768 705.422 548.452 698.889 547.821C668.076 544.844 639.627 534.838 614.337 518.084C590.897 502.553 569.454 480.629 548.789 451.055C532.287 427.44 516.468 399.287 499.008 362.455C489.792 343.018 480.868 322.822 472.239 303.291C452.708 259.094 432.512 213.392 407.51 173.169C369.158 111.476 318.818 63.0962 261.932 33.2575C196.983 -0.811993 131.459 -8.75506 77.4324 10.894C25.1255 29.9174 -31.6465 89.9048 -32.6913 176.664L-32.9028 176.658C-32.4354 137.879 -20.5674 101.087 1.41711 70.2585C21.295 42.3844 48.2713 21.2048 77.3774 10.6206C105.902 0.247837 137.337 -2.54549 170.804 2.32239C200.856 6.69136 231.542 17.0134 262.011 32.9954C290.159 47.7597 316.892 67.1946 341.469 90.7617C366.252 114.526 388.526 142.189 407.67 172.983C432.684 213.22 452.885 258.933 472.421 303.142C481.05 322.669 489.974 342.863 499.187 362.297C524.662 416.039 560.784 482.281 614.432 517.824C675.957 558.585 741.883 551.42 786.355 538.232C841.78 521.796 897.052 485.587 960.301 424.28C981.344 403.884 1001.83 380.701 1021.64 358.284C1052.05 323.879 1083.49 288.301 1117.97 261.54C1153.88 233.669 1185.16 227.615 1210.93 243.549C1222.83 250.908 1234.49 263.043 1246.55 280.651C1257.18 296.151 1266.68 313.658 1275.87 330.587C1281.3 340.602 1286.44 350.059 1291.6 358.752L1449.92 625.016L1449.75 625.194Z" fill="#A1A1A1"/>
</g>
<g id="Group_18">
<path id="Vector_18" d="M1448.47 604.725C1408.16 530.588 1373.57 470.428 1339.62 415.405C1323.14 388.675 1306.31 362.365 1289.6 337.206C1284.55 329.595 1279.54 321.5 1274.23 312.928C1260.91 291.385 1247.13 269.109 1231.27 252.577C1222.76 243.684 1214.56 237.317 1206.22 233.112C1180.6 220.075 1150.54 228.695 1116.87 258.733C1099.45 274.256 1083.59 291.921 1070.37 307.153C1056.37 323.279 1042.57 341.062 1029.21 358.259C1010.02 382.979 990.18 408.538 968.846 430.49C955.866 443.888 942.708 455.859 929.736 466.074C903.783 486.509 875.927 503.348 846.942 516.122C829.033 523.927 811.037 529.827 793.459 533.655C778.308 536.941 763.13 538.838 748.343 539.292C726.213 539.974 704.651 537.372 684.257 531.552C662.573 525.362 642.052 515.482 623.265 502.184C606.514 490.326 590.69 475.395 574.893 456.535C545.454 421.42 521.974 380.817 504.808 349.366C496.375 333.843 488.141 318.013 480.178 302.705C457.248 258.618 435.589 216.977 408.486 179.886C386.38 149.833 361.16 123.899 333.517 102.798C312.275 86.5819 289.172 73.3199 264.85 63.3784C259.057 61.0135 253.153 58.8093 247.309 56.8334C222.148 48.3407 193.822 42.8104 163.121 40.3948C132.168 37.9031 105.389 40.0594 81.2574 46.9933C67.6149 50.8831 54.3975 56.9856 41.9669 65.1288C-1.91757 93.8795 -30.0973 142.144 -33.4138 194.239L-33.6782 194.208C-32.7941 180.32 -30.1988 166.641 -25.9665 153.546C-21.9456 141.107 -16.4231 129.11 -9.55315 117.889C3.42735 96.6925 21.2028 78.3372 41.8506 64.8103C54.3002 56.653 67.5387 50.5421 81.2024 46.6466C105.359 39.707 132.16 37.5479 163.138 40.0424C193.856 42.4581 222.196 47.994 247.375 56.4923C253.225 58.4711 259.131 60.6753 264.928 63.043C289.269 72.9901 312.391 86.2634 333.651 102.493C361.312 123.608 386.554 149.566 408.67 179.638C435.79 216.752 457.453 258.404 480.391 302.502C488.353 317.81 496.587 333.637 505.018 349.157C522.175 380.594 545.645 421.177 575.066 456.27C590.847 475.11 606.653 490.027 623.386 501.871C660.153 527.896 702.191 540.369 748.335 538.94C763.109 538.486 778.276 536.589 793.414 533.305C810.98 529.477 828.963 523.583 846.857 515.784C875.826 503.018 903.665 486.191 929.6 465.766C942.564 455.56 955.714 443.594 968.684 430.208C990.004 408.268 1009.84 382.714 1029.03 358.002C1042.38 340.802 1056.19 323.014 1070.19 306.882C1083.42 291.642 1099.29 273.971 1116.73 258.437C1131.71 245.063 1146.22 235.823 1159.86 230.972C1176.61 225.013 1192.24 225.622 1206.31 232.782C1214.68 237.001 1222.9 243.386 1231.43 252.298C1247.31 268.855 1261.1 291.146 1274.44 312.703C1279.74 321.272 1284.75 329.367 1289.8 336.972C1306.52 362.134 1323.35 388.447 1339.83 415.182C1373.78 470.211 1408.37 530.376 1448.69 604.519L1448.47 604.725Z" fill="#A1A1A1"/>
</g>
<g id="Group_19">
<path id="Vector_19" d="M1447.2 584.25C1409.82 508.858 1374.74 445.77 1339.95 391.384C1322.99 364.818 1305.43 339.28 1287.77 315.482C1283.08 309.168 1278.45 302.606 1273.56 295.661C1258.88 274.862 1243.72 253.355 1226.72 238.475C1218.15 230.93 1209.93 225.676 1201.59 222.412C1169.67 209.908 1137.25 233.596 1115.67 255.669C1100.38 271.262 1086.42 288.893 1072.27 307.094C1059.89 323.025 1048.25 340.162 1035.92 358.304C1017.61 385.233 998.687 413.079 977.269 436.46C964.56 450.41 951.295 462.471 937.845 472.308C912.792 490.635 885.357 504.867 853.972 515.821C836.409 521.948 818.422 526.315 800.511 528.792C785.398 530.858 770.313 531.597 755.672 530.979C733.891 530.072 712.6 525.99 692.388 518.851C671.161 511.35 650.906 500.391 632.189 486.278C615.791 473.915 599.957 458.576 583.783 439.386C554.408 404.584 529.244 366.001 510.606 336.275C503.706 325.271 496.917 314.199 490.349 303.488C464.196 260.836 439.493 220.546 409.463 186.603C387.019 161.235 361.822 139.784 334.575 122.85C313.959 110.036 292.108 100.436 267.775 93.4987C262.16 91.9005 256.447 90.4602 250.797 89.2171C225.983 83.7855 199.499 81.7307 167.457 79.6054C144.36 77.9959 114.124 76.9361 85.0775 83.0865C71.3208 85.9446 58.023 90.9083 45.5502 97.8339C1.63602 122.224 -28.1533 164.831 -34.1391 211.813L-34.4521 211.743C-32.8658 199.284 -29.6508 187.065 -24.9024 175.421C-20.376 164.327 -14.4283 153.689 -7.22632 143.795C6.46062 125 24.6676 108.971 45.4275 97.4421C57.9236 90.5024 71.2468 85.5303 85.0268 82.6665C114.101 76.5076 144.36 77.5703 167.472 79.1798C199.525 81.3051 226.016 83.3599 250.848 88.7943C256.502 90.0402 262.219 91.4805 267.841 93.0787C292.197 100.024 314.069 109.633 334.708 122.461C361.983 139.412 387.201 160.88 409.668 186.273C439.72 220.241 464.433 260.543 490.595 303.212C497.16 313.92 503.95 324.992 510.849 335.994C529.483 365.708 554.636 404.276 583.994 439.062C600.15 458.232 615.966 473.554 632.346 485.903C669.149 513.653 710.648 528.674 755.683 530.551C770.311 531.165 785.381 530.43 800.479 528.364C818.373 525.889 836.345 521.528 853.892 515.403C885.251 504.461 912.663 490.241 937.695 471.931C951.128 462.105 964.375 450.06 977.07 436.125C998.469 412.763 1017.39 384.929 1035.68 358.013C1048.02 339.864 1059.67 322.723 1072.06 306.783C1086.21 288.572 1100.18 270.935 1115.48 255.325C1129.47 241.015 1143.27 230.721 1156.5 224.723C1172.53 217.451 1187.74 216.535 1201.68 221.997C1210.05 225.275 1218.3 230.546 1226.9 238.115C1243.92 253.023 1259.1 274.549 1273.79 295.365C1278.68 302.307 1283.31 308.866 1288 315.178C1305.66 338.984 1323.23 364.53 1340.2 391.105C1374.99 445.505 1410.08 508.605 1447.46 584.013L1447.2 584.25Z" fill="#A1A1A1"/>
</g>
<g id="Group_20">
<path id="Vector_20" d="M1445.92 563.774C1410.94 486.105 1376.39 421.859 1340.28 367.365C1322.83 340.963 1304.54 316.2 1285.93 293.761C1281.96 288.963 1277.86 283.873 1273.9 278.951C1257.55 258.617 1240.64 237.593 1222.18 224.376C1213.52 218.13 1205.27 213.986 1196.97 211.711C1165.12 202.976 1134.53 229.128 1114.47 252.602C1100.88 268.449 1088.45 286.41 1076.43 303.781L1074.18 307.034C1063.27 322.793 1053.04 340.077 1042.2 358.379C1024.94 387.522 1007.1 417.654 985.692 442.43C973.236 456.952 959.866 469.103 945.953 478.546C921.695 495.01 894.697 506.758 860.997 515.518C843.571 520.048 825.592 522.878 807.558 523.927C792.484 524.769 777.492 524.347 762.995 522.664C719.106 517.593 678.098 499.999 641.109 470.371C625.119 457.563 609.275 441.821 592.673 422.237C564.578 389.165 539.59 355.172 516.406 323.188C513.297 318.901 510.221 314.642 507.169 310.416C475.504 266.589 445.596 225.19 410.447 193.328C387.5 172.526 362.328 155.563 335.633 142.907C316.034 133.617 294.794 127.308 270.703 123.622C265.273 122.796 259.751 122.116 254.288 121.603C240.544 120.335 225.966 120.129 210.532 119.912C198.135 119.737 185.318 119.557 171.792 118.821C145.668 117.28 116.06 115.535 88.8936 119.188C74.8767 121.074 61.4986 124.896 49.1294 130.55C5.23219 150.619 -26.1689 187.575 -34.8684 229.407L-35.2258 229.275C-32.933 218.245 -29.1004 207.486 -23.8359 197.297C-18.8019 187.552 -12.4312 178.268 -4.90136 169.702C9.5005 153.319 28.1432 139.621 49.0067 130.082C61.4034 124.414 74.8091 120.583 88.8535 118.695C116.048 115.039 145.67 116.786 171.804 118.328C185.322 119.061 198.14 119.244 210.532 119.419C225.972 119.636 240.554 119.842 254.311 121.113C259.778 121.629 265.307 122.308 270.741 123.134C294.862 126.824 316.127 133.14 335.754 142.445C362.48 155.115 387.68 172.098 410.652 192.922C445.833 224.813 475.755 266.231 507.434 310.078C510.486 314.303 513.563 318.56 516.67 322.85C539.85 354.828 564.829 388.813 592.916 421.873C609.501 441.435 625.328 457.163 641.3 469.954C678.24 499.545 719.195 517.114 763.027 522.179C777.507 523.859 792.484 524.282 807.542 523.439C825.556 522.391 843.518 519.563 860.925 515.039C894.591 506.287 921.557 494.553 945.784 478.112C959.667 468.689 973.012 456.56 985.446 442.063C1006.83 417.318 1024.66 387.203 1041.91 358.078C1052.75 339.767 1062.99 322.475 1073.91 306.704L1076.16 303.451C1088.18 286.071 1100.62 268.099 1114.23 252.236C1134.34 228.686 1165.05 202.458 1197.04 211.232C1205.38 213.518 1213.66 217.676 1222.35 223.947C1240.86 237.192 1257.78 258.24 1274.15 278.596C1278.11 283.518 1282.2 288.608 1286.18 293.403C1304.8 315.854 1323.09 340.63 1340.56 367.047C1376.67 421.563 1411.24 485.832 1446.23 563.526L1445.92 563.774Z" fill="#A1A1A1"/>
</g>
<g id="Group_21">
<path id="Vector_21" d="M1444.64 543.297C1412.53 464.455 1377.53 397.181 1340.62 343.35C1322.67 317.114 1303.66 293.124 1284.11 272.046C1281.28 269.001 1278.39 265.842 1275.59 262.786C1257.11 242.601 1238 221.726 1217.65 210.282C1208.91 205.319 1200.64 202.289 1192.36 201.015C1160.6 196.133 1131.83 224.706 1113.28 249.535C1101.76 264.875 1091.37 281.933 1081.31 298.431C1079.57 301.287 1077.83 304.136 1076.09 306.975C1066.53 322.568 1057.59 339.987 1048.13 358.427C1032.03 389.777 1015.39 422.192 994.116 448.405C981.62 463.798 968.519 475.699 954.06 484.792C923.818 503.81 893.595 510.848 868.021 515.228C850.724 518.188 832.754 519.484 814.606 519.073C799.578 518.692 784.677 517.105 770.32 514.36C727.749 506.239 687.278 486.091 650.033 454.474C634.535 441.322 618.682 425.171 601.565 405.099C584.274 384.872 568.161 365.409 552.576 346.586C541.986 333.792 531.982 321.708 522.212 310.115C485.282 266.29 451.455 227.758 411.439 200.062C387.999 183.84 362.852 171.359 336.697 162.968C317.95 156.953 297.912 154.024 273.636 153.745C268.399 153.694 263.065 153.776 257.784 153.99C249.761 154.337 241.461 155.061 232.677 155.831C215.82 157.305 196.71 158.977 176.125 158.041C168.287 157.683 160.289 157.178 152.554 156.688C132.659 155.428 112.088 154.126 92.707 155.29C78.4743 156.147 65.0137 158.83 52.7037 163.267C8.88049 179.065 -24.1302 210.373 -35.6026 247.013L-35.9939 246.796C-32.9904 237.201 -28.5402 227.905 -22.768 219.164C-17.2243 210.77 -10.4306 202.841 -2.57923 195.6C12.5502 181.647 31.6265 170.28 52.5895 162.723C64.9291 158.275 78.4193 155.583 92.6837 154.726C112.086 153.559 132.666 154.864 152.571 156.124C160.304 156.614 168.301 157.119 176.138 157.477C196.703 158.413 215.798 156.744 232.648 155.27C241.436 154.5 249.738 153.776 257.769 153.429C263.057 153.215 268.395 153.133 273.639 153.184C297.948 153.46 318.016 156.397 336.794 162.421C362.981 170.824 388.162 183.319 411.631 199.563C429.707 212.072 448.024 227.922 467.629 248.013C485.18 265.999 502.253 285.68 522.491 309.695C532.261 321.291 542.265 333.375 552.858 346.169C568.44 364.989 584.553 384.452 601.84 404.676C618.94 424.728 634.776 440.863 650.255 454.001C687.449 485.576 727.863 505.695 770.375 513.805C784.715 516.547 799.597 518.131 814.608 518.512C832.735 518.923 850.686 517.63 867.962 514.67C893.504 510.298 923.687 503.268 953.876 484.285C968.295 475.217 981.362 463.347 993.824 447.994C1015.07 421.825 1031.69 389.436 1047.77 358.111C1057.24 339.66 1066.19 322.232 1075.76 306.622C1077.5 303.784 1079.24 300.934 1080.98 298.082C1091.04 281.573 1101.44 264.503 1112.97 249.144C1125.04 232.99 1137.42 220.562 1149.77 212.208C1164.39 202.311 1178.74 198.359 1192.4 200.462C1200.72 201.742 1209.03 204.786 1217.81 209.769C1238.21 221.244 1257.35 242.145 1275.85 262.355C1278.65 265.41 1281.54 268.57 1284.36 271.611C1303.93 292.707 1322.96 316.719 1340.92 342.975C1360.51 371.559 1379.71 404.127 1397.96 439.772C1414.1 471.276 1429.92 506.019 1445 543.032L1444.64 543.297Z" fill="#A1A1A1"/>
</g>
<g id="Group_22">
<path id="Vector_22" d="M1443.36 522.813C1413.64 441.711 1379.18 373.251 1340.95 319.332C1322.51 293.262 1302.77 270.047 1282.28 250.328C1281.31 249.389 1280.33 248.45 1279.35 247.509C1258.04 226.978 1236.01 205.747 1213.12 196.189C1204.26 192.485 1195.96 190.566 1187.76 190.318C1156.12 189.365 1129.15 220.326 1112.09 246.463C1102.05 261.755 1093.14 278.515 1084.52 294.722C1082.39 298.73 1080.19 302.874 1078.02 306.91C1069.73 322.283 1062.03 339.762 1053.88 358.27C1039.05 391.933 1023.72 426.741 1002.55 454.376C990.301 470.363 977.094 482.354 962.172 491.036C932.774 508.137 902.923 512.627 875.046 514.932C857.857 516.353 839.893 516.111 821.654 514.214C806.675 512.607 791.869 509.859 777.645 506.048C736.523 495.055 696.589 472.353 658.959 438.571C643.889 425.044 628.478 408.961 610.464 387.956C576.226 348.145 550.802 320.104 528.031 297.039C482.74 251.165 448.172 224.176 412.45 206.796C388.535 195.16 363.413 187.164 337.78 183.026C319.996 180.156 301.123 180.413 276.588 183.866C271.56 184.582 266.416 185.425 261.297 186.374C256.462 187.285 251.551 188.328 246.35 189.43C227.147 193.503 205.38 198.12 180.468 197.257C167.337 196.804 153.925 195.561 140.955 194.36C126.215 192.996 110.974 191.583 96.5231 191.392C82.0346 191.2 68.4915 192.745 56.2809 195.986C12.6036 207.574 -22.0209 233.238 -36.3382 264.635L-36.7443 264.306C-33.0259 256.148 -27.958 248.315 -21.6825 241.023C-15.6248 233.982 -8.41221 227.412 -0.243614 221.49C15.624 209.984 35.1381 200.947 56.1878 195.363C68.4322 192.116 82.005 190.566 96.5274 190.758C110.991 190.949 126.241 192.361 140.987 193.728C153.953 194.929 167.359 196.172 180.479 196.626C205.346 197.486 227.09 192.874 246.272 188.807C251.475 187.702 256.39 186.662 261.228 185.749C266.353 184.799 271.501 183.956 276.533 183.237C301.106 179.782 320.011 179.522 337.833 182.4C363.502 186.544 388.659 194.551 412.609 206.204C448.38 223.607 482.983 250.624 528.314 296.537C551.094 319.611 576.526 347.66 610.772 387.482C628.774 408.47 644.168 424.537 659.221 438.05C696.801 471.784 736.675 494.455 777.736 505.431C791.941 509.236 806.73 511.978 821.688 513.585C839.905 515.479 857.846 515.722 875.014 514.304C902.849 512.001 932.649 507.522 961.98 490.461C976.847 481.813 990.007 469.862 1002.21 453.93C1023.33 426.355 1038.65 391.584 1053.46 357.957C1061.62 339.438 1069.33 321.945 1077.62 306.549C1079.8 302.516 1082 298.372 1084.13 294.364C1092.76 278.143 1101.67 261.371 1111.73 246.055C1122.86 228.996 1134.53 215.503 1146.42 205.947C1160.34 194.754 1174.25 189.289 1187.77 189.692C1196.01 189.94 1204.35 191.871 1213.26 195.592C1236.22 205.184 1258.29 226.442 1279.63 247.005C1280.61 247.946 1281.58 248.887 1282.56 249.823C1303.07 269.565 1322.84 292.808 1341.29 318.907C1379.56 372.873 1414.04 441.387 1443.79 522.546L1443.36 522.813Z" fill="#A1A1A1"/>
</g>
<g id="Group_23">
<path id="Vector_23" d="M885.57 514.639C884.384 514.639 883.214 514.636 882.063 514.628C864.963 514.532 847.005 512.756 828.695 509.346C813.77 506.513 799.057 502.603 784.964 497.73C764.828 490.779 744.621 480.789 724.897 468.041C705.851 455.729 686.669 440.462 667.882 422.662C649.474 405.223 632.28 385.791 619.357 370.81C589.119 335.852 560.349 306.634 533.847 283.963C490.923 247.247 452.671 224.864 413.463 213.524C389.809 206.683 364.432 203.075 339.998 203.075C339.62 203.075 339.243 203.075 338.865 203.078C317.874 203.174 297.945 208.371 279.54 213.975C274.749 215.444 269.793 217.047 264.81 218.747C262.079 219.688 259.344 220.658 256.451 221.684C236.042 228.931 212.909 237.142 184.805 236.468C167.69 236.057 150.208 233.695 133.302 231.409C122.386 229.932 111.1 228.407 100.334 227.485C85.5344 226.219 71.9152 226.625 59.8505 228.697C16.406 236.15 -19.8324 256.174 -37.0897 282.263L-37.4873 281.798C-28.6355 268.418 -15.3208 256.833 2.08661 247.362C18.7115 238.32 38.6634 231.623 59.7829 228.001C71.8792 225.926 85.5344 225.515 100.368 226.786C111.144 227.708 122.437 229.235 133.357 230.712C150.253 232.998 167.724 235.36 184.816 235.769C212.848 236.443 235.941 228.243 256.316 221.01C259.211 219.982 261.946 219.012 264.679 218.071C269.666 216.371 274.626 214.764 279.421 213.296C297.859 207.684 317.821 202.478 338.862 202.379C363.685 202.263 389.517 205.883 413.575 212.842C433.81 218.696 453.428 227.313 473.545 239.185C492.919 250.621 512.738 265.075 534.13 283.377C560.654 306.064 589.445 335.306 619.702 370.286C632.615 385.258 649.796 404.676 668.184 422.096C706.305 458.215 745.64 483.433 785.096 497.056C799.17 501.924 813.863 505.828 828.766 508.658C847.054 512.063 864.986 513.839 882.063 513.932C908.786 514.078 939.815 512.878 970.078 496.628C985.395 488.403 998.647 476.375 1010.59 459.861C1031.57 430.856 1045.47 393.63 1058.92 357.627C1065.84 339.108 1072.37 321.615 1079.48 306.473C1081.75 301.622 1084.05 296.625 1086.27 291.791C1093.78 275.459 1101.53 258.575 1110.47 242.968C1120.69 225.013 1131.65 210.449 1143.05 199.681C1156.28 187.197 1169.75 180.213 1183.11 178.922C1191.36 178.124 1199.73 178.939 1208.7 181.413C1232.69 188.026 1256.47 207.238 1280.74 228.032C1301.9 246.162 1322.97 269.261 1341.66 294.835C1362.41 323.16 1381.91 356.389 1399.62 393.599C1415.4 426.75 1429.84 463.24 1442.57 502.059L1442.08 502.341C1414.76 418.976 1380.85 349.326 1341.28 295.328C1322.62 269.791 1301.59 246.725 1280.45 228.627C1256.22 207.87 1232.49 188.694 1208.6 182.104C1199.67 179.643 1191.35 178.834 1183.15 179.626C1158.6 182.003 1132.94 204.648 1110.89 243.396C1101.97 258.975 1094.22 275.845 1086.72 292.16C1084.5 296.997 1082.2 301.997 1079.93 306.848C1072.83 321.962 1066.31 339.441 1059.4 357.942C1052.8 375.607 1045.97 393.875 1038.14 411.436C1029.27 431.344 1020.38 447.343 1010.97 460.351C998.977 476.939 985.666 489.02 970.277 497.285C956.704 504.574 942.116 509.391 925.679 512.018C911.76 514.23 897.779 514.639 885.57 514.639Z" fill="#A1A1A1"/>
</g>
<g id="Group_24">
<path id="Vector_24" d="M919.489 516.051C908.704 516.051 898.344 515.195 889.076 514.326C872.034 512.731 854.085 509.419 835.73 504.481C820.869 500.425 806.25 495.357 792.277 489.412C754.017 473.168 716.243 446.128 676.798 406.754C659.596 389.585 643.379 371.112 628.247 353.664C598.373 319.318 568.571 291.469 539.664 270.887C497.15 240.617 457.373 224.525 414.483 220.247C390.045 217.808 364.274 218.804 339.954 223.122C319.598 226.735 300.408 235.456 282.493 244.076C278.011 246.243 273.243 248.611 268.326 251.111C267.097 251.74 265.857 252.38 264.601 253.025C243.968 263.657 220.621 275.688 190.659 275.688C190.153 275.688 189.65 275.685 189.14 275.676C168.869 275.403 148.172 271.547 128.155 267.815C120.219 266.335 112.012 264.807 104.137 263.57C88.7563 261.157 75.4352 260.444 63.4108 261.397C19.6764 264.864 -17.2387 278.89 -37.8654 299.886L-38.2186 299.269C-28.0216 288.89 -13.2771 279.879 4.41587 273.21C21.8191 266.651 42.2067 262.299 63.3748 260.622C75.4331 259.666 88.788 260.379 104.203 262.798C112.086 264.035 120.295 265.566 128.233 267.043C148.231 270.769 168.909 274.622 189.142 274.895C219.729 275.313 243.456 263.082 264.387 252.295C265.642 251.65 266.883 251.01 268.112 250.378C273.034 247.875 277.804 245.508 282.29 243.34C300.234 234.704 319.461 225.971 339.872 222.347C364.23 218.023 390.042 217.025 414.521 219.466C435.776 221.586 456.041 226.592 476.473 234.766C497.516 243.185 518.274 254.773 539.933 270.197C568.876 290.807 598.716 318.689 628.622 353.069C643.747 370.511 659.953 388.974 677.14 406.125C716.532 445.446 754.249 472.446 792.448 488.665C806.4 494.598 821 499.661 835.84 503.711C854.17 508.644 872.093 511.953 889.109 513.543C917.744 516.221 948.206 517.596 978.173 502.778C993.941 494.979 1007.29 482.875 1018.96 465.774C1039.77 435.313 1052.72 393.763 1064.15 357.103C1069.9 338.657 1075.33 321.235 1081.33 306.383C1083.49 301.025 1085.66 295.486 1087.77 290.131C1094.35 273.373 1101.16 256.047 1109.21 239.865C1118.53 221.013 1128.79 205.378 1139.69 193.393C1152.21 179.629 1165.26 171.128 1178.46 168.132C1186.71 166.257 1195.11 165.959 1204.14 167.21C1229.36 170.714 1254.98 188.026 1278.92 206.215C1301.02 223.009 1322.84 245.322 1342.02 270.741C1363.35 298.933 1383.01 332.495 1400.44 370.489C1416.03 404.465 1429.79 441.83 1441.34 481.551L1440.8 481.83C1416.25 397.399 1381.95 324.595 1341.61 271.288C1322.47 245.917 1300.69 223.646 1278.63 206.886C1254.75 188.739 1229.2 171.469 1204.08 167.98C1195.1 166.734 1186.76 167.033 1178.56 168.893C1154.18 174.426 1129.73 199.78 1109.7 240.288C1101.66 256.436 1094.86 273.745 1088.29 290.486C1086.18 295.844 1084.01 301.383 1081.84 306.747C1075.86 321.565 1070.44 338.97 1064.69 357.396C1053.24 394.112 1040.27 435.73 1019.4 466.293C1007.65 483.487 994.233 495.658 978.376 503.503C964.615 510.307 949.771 514.248 932.992 515.541C928.455 515.908 923.937 516.051 919.489 516.051Z" fill="#A1A1A1"/>
</g>
<g id="Group_25">
<path id="Vector_25" d="M940.777 519.104C940.623 519.104 940.471 519.104 940.316 519.104C925.075 519.053 910.11 516.567 896.087 514.025C879.071 510.941 861.133 506.09 842.767 499.613C827.974 494.339 813.447 488.107 799.593 481.094C762.862 462.527 726.679 433.853 685.719 390.848C670.968 375.365 656.452 358.692 642.412 342.572C640.657 340.554 638.899 338.538 637.141 336.523C607.113 302.186 576.277 275.704 545.491 257.817C503.335 233.325 460.818 223.234 415.513 226.969C390.671 229.018 364.923 234.619 341.054 243.165C322.221 249.91 305.44 260.731 285.456 274.176C281.406 276.913 277.08 279.867 271.847 283.475L271.555 283.678C261.46 290.686 250.017 298.626 237.183 304.663C222.442 311.597 208.142 314.935 193.478 314.895C170.611 314.819 147.275 309.148 124.709 303.66C119.18 302.315 113.461 300.926 107.94 299.669C92.1086 296.069 78.7072 294.251 66.9704 294.113C23.7543 293.606 -14.7451 302.141 -38.6545 317.525L-38.9294 316.764C-27.218 309.227 -11.4202 303.11 6.75504 299.074C24.9641 295.029 45.7896 293.022 66.9767 293.27C78.7474 293.408 92.1826 295.229 108.048 298.837C113.573 300.094 119.292 301.484 124.823 302.828C147.362 308.308 170.668 313.974 193.48 314.05C193.582 314.05 193.685 314.05 193.787 314.05C226.417 314.05 251.276 296.799 271.264 282.928L271.558 282.726C276.792 279.115 281.118 276.161 285.17 273.424C305.188 259.956 321.999 249.115 340.891 242.351C364.8 233.787 390.59 228.178 415.475 226.126C437.645 224.3 458.557 225.692 479.41 230.388C501.881 235.448 523.58 244.166 545.745 257.044C576.59 274.966 607.479 301.49 637.556 335.883C639.313 337.899 641.071 339.917 642.827 341.935C656.861 358.049 671.372 374.716 686.111 390.188C727.017 433.139 763.147 461.774 799.817 480.31C813.652 487.315 828.158 493.535 842.93 498.804C861.27 505.272 879.183 510.115 896.172 513.193C926.602 518.712 956.393 522.54 986.28 508.965C1002.5 501.597 1015.93 489.417 1027.35 471.727C1047.97 439.772 1059.24 395.493 1069.18 356.423C1073.83 338.133 1078.23 320.854 1083.18 306.335C1085.09 300.748 1087.01 294.97 1088.86 289.38C1094.64 271.905 1100.63 253.837 1107.96 236.801C1116.41 217.044 1125.96 200.335 1136.33 187.138C1148.16 172.098 1160.77 162.086 1173.8 157.384C1181.88 154.469 1190.13 153.049 1198.99 153.049C1199.19 153.049 1199.38 153.049 1199.57 153.052C1227.12 153.243 1255.48 169.924 1277.1 184.435C1300.14 199.895 1322.71 221.419 1342.39 246.68C1364.3 274.743 1384.11 308.635 1401.27 347.417C1416.67 382.22 1429.74 420.461 1440.13 461.084L1439.52 461.357C1424.07 400.913 1394.6 314.712 1341.95 247.292C1322.32 222.087 1299.8 200.614 1276.82 185.19C1255.26 170.719 1226.99 154.086 1199.57 153.897C1190.54 153.827 1182.17 155.242 1173.97 158.201C1149.82 166.914 1126.58 194.977 1108.51 237.221C1101.19 254.217 1095.22 272.265 1089.44 289.722C1087.59 295.314 1085.67 301.095 1083.76 306.684C1078.82 321.167 1074.43 338.423 1069.78 356.694C1059.82 395.834 1048.53 440.197 1027.83 472.277C1016.34 490.085 1002.81 502.347 986.485 509.763C972.646 516.046 957.688 519.104 940.777 519.104Z" fill="#A1A1A1"/>
</g>
<g id="Group_26">
<path id="Vector_26" d="M957.704 523.073C954.422 523.073 951.067 522.932 947.632 522.65C932.598 521.419 917.987 517.723 903.096 513.721C885.835 509.081 868.402 502.874 849.802 494.745C835.085 488.257 820.653 480.866 806.907 472.774C772.035 452.276 737.41 422.102 694.641 374.94C684.018 363.228 673.401 350.944 663.132 339.063C657.541 332.597 651.763 325.909 646.037 319.378C615.651 284.809 583.785 259.7 551.322 244.744C508.43 224.982 464.346 221.363 416.549 233.681C391.296 240.189 365.572 250.396 342.16 263.195C323.352 273.478 306.969 287.918 289.622 303.207L288.423 304.264C285.714 306.66 282.975 309.089 280.202 311.547C278.605 312.965 276.997 314.391 275.375 315.829C265.261 324.84 254.336 334.241 241.808 341.476C227.262 349.876 212.875 354.008 197.82 354.11C172.756 354.273 147.19 346.51 122.469 338.996C118.941 337.922 115.29 336.814 111.747 335.763C95.1372 330.83 82.0425 327.992 70.532 326.825C28.0561 322.52 -12.0296 325.553 -39.45 335.148L-39.6256 334.263C-12.1333 324.643 28.035 321.599 70.5849 325.911C82.1271 327.081 95.2556 329.928 111.897 334.869C115.442 335.923 119.093 337.031 122.623 338.105C147.042 345.527 172.284 353.196 197.016 353.196C197.283 353.196 197.549 353.196 197.818 353.193C229.807 352.979 252.578 335.035 274.996 315.068C276.619 313.63 278.226 312.204 279.823 310.786C282.596 308.326 285.333 305.899 288.045 303.5L289.244 302.443C306.62 287.129 323.031 272.663 341.9 262.347C365.354 249.522 391.123 239.299 416.42 232.779C464.338 220.43 508.54 224.061 551.548 243.876C584.092 258.872 616.032 284.037 646.486 318.681C652.211 325.215 657.992 331.901 663.582 338.37C673.847 350.248 684.463 362.529 695.078 374.232C737.797 421.341 772.373 451.473 807.184 471.936C820.911 480.015 835.321 487.397 850.017 493.874C868.59 501.992 885.998 508.19 903.234 512.822C929.398 519.854 961.96 528.609 994.387 515.124C1011.06 508.193 1024.58 495.938 1035.73 477.656C1056.15 444.169 1065.62 397.072 1073.98 355.522C1077.61 337.471 1081.04 320.421 1085.04 306.271C1086.6 300.757 1088.16 295.055 1089.67 289.539C1094.74 271.04 1099.98 251.912 1106.71 233.72C1114.3 213.045 1123.14 195.262 1132.97 180.864C1144.11 164.55 1156.28 153.03 1169.14 146.623C1177.4 142.51 1185.86 139.976 1195 138.874C1207.25 137.397 1220.29 138.976 1234.87 143.689C1247.2 147.68 1260.42 153.875 1275.28 162.633C1299.26 176.757 1322.59 197.495 1342.75 222.601C1365.25 250.531 1385.22 284.758 1402.1 324.327C1417.3 359.958 1429.69 399.076 1438.91 440.598L1438.25 440.858C1418.78 353.196 1384.69 275.922 1342.28 223.271C1322.17 198.233 1298.91 177.555 1275 163.473C1242.98 144.605 1217.58 137.076 1195.07 139.787C1185.98 140.881 1177.58 143.398 1169.38 147.48C1138.79 162.72 1118.75 203.011 1107.33 234.123C1100.61 252.27 1095.38 271.375 1090.32 289.852C1088.81 295.371 1087.24 301.076 1085.68 306.592C1081.69 320.7 1078.27 337.73 1074.65 355.758C1066.27 397.399 1056.78 444.595 1036.26 478.233C1025.03 496.659 1011.39 509.014 994.59 516.001C983.2 520.736 971.053 523.073 957.704 523.073Z" fill="#A1A1A1"/>
</g>
<g id="Group_27">
<path id="Vector_27" d="M972.371 527.622C950.004 527.622 928.499 519.964 910.102 513.413C892.794 507.251 875.37 499.551 856.833 489.874C842.198 482.179 827.86 473.627 814.217 464.452C773.321 436.981 736.863 397.551 703.558 359.031C696.758 351.166 689.888 343.06 683.247 335.221C674.025 324.335 664.488 313.08 654.932 302.234C624.091 267.324 591.195 243.583 557.158 231.668C513.128 216.258 467.473 219.108 417.586 240.383C391.9 251.337 366.201 266.149 343.267 283.219C325.578 296.382 310.611 313.001 294.767 330.596C293.644 331.841 292.519 333.093 291.387 334.344L290.774 335.027C286.922 339.308 282.939 343.734 278.901 348.176C269.227 358.867 258.573 369.925 246.25 378.372C231.946 388.179 217.525 393.069 202.159 393.323C175.187 393.771 147.696 383.666 121.113 373.893C119.25 373.209 117.395 372.526 115.549 371.853C98.0185 365.443 85.2305 361.643 74.088 359.529C32.6782 351.677 -8.99816 349.207 -40.2554 352.756L-40.3188 351.772C-9.01084 348.215 32.7268 350.687 74.1916 358.551C85.3658 360.671 98.1813 364.479 115.743 370.9C117.59 371.574 119.445 372.256 121.31 372.944C147.842 382.696 175.28 392.776 202.148 392.336C235.518 391.784 259.019 368.859 278.428 347.415C282.465 342.972 286.448 338.547 290.3 334.268L290.913 333.586C292.045 332.332 293.17 331.083 294.293 329.837C310.165 312.212 325.157 295.565 342.905 282.357C365.882 265.256 391.629 250.418 417.359 239.445C441.011 229.359 463.226 223.536 485.272 221.642C509.864 219.531 534.112 222.583 557.344 230.715C591.489 242.667 624.482 266.476 655.41 301.481C664.972 312.333 674.511 323.591 683.735 334.48C690.377 342.319 697.243 350.422 704.041 358.284C737.311 396.762 773.725 436.15 814.547 463.57C828.171 472.731 842.488 481.272 857.101 488.955C875.611 498.618 893.008 506.307 910.29 512.46C936.826 521.909 969.852 533.668 1002.48 521.294C1019.61 514.8 1033.22 502.468 1044.1 483.594C1064.32 448.532 1071.88 398.537 1078.55 354.425C1081.23 336.701 1083.77 319.961 1086.89 306.214C1088.04 301.129 1089.2 295.875 1090.32 290.793C1094.71 270.915 1099.25 250.359 1105.45 230.648C1112.2 209.037 1120.32 190.174 1129.6 174.589C1140.06 157.004 1151.79 143.976 1164.47 135.866C1172.71 130.601 1181.2 126.951 1190.42 124.704C1202.85 121.68 1216.64 121.781 1231.41 125.006C1244.35 127.83 1258.49 133.155 1273.45 140.836C1298.36 153.624 1322.44 173.572 1343.11 198.523C1366.19 226.324 1386.32 260.881 1402.92 301.239C1417.92 337.699 1429.62 377.696 1437.68 420.117L1436.96 420.36C1419.88 330.472 1386.37 251.948 1342.61 199.256C1322.02 174.387 1298.01 154.504 1273.19 141.757C1241.01 125.237 1213.98 119.975 1190.56 125.677C1181.4 127.906 1172.97 131.531 1164.79 136.757C1134.62 156.051 1116.24 198.67 1106.13 231.028C1099.94 250.689 1095.41 271.217 1091.03 291.069C1089.91 296.151 1088.75 301.408 1087.6 306.499C1084.49 320.2 1081.96 336.918 1079.28 354.619C1076.07 375.841 1072.43 399.893 1067.15 422.443C1061.1 448.279 1053.75 468.478 1044.69 484.195C1039.45 493.282 1033.43 501.016 1026.8 507.184C1019.66 513.816 1011.55 518.884 1002.69 522.244C992.547 526.092 982.371 527.622 972.371 527.622Z" fill="#A1A1A1"/>
</g>
<g id="Group_28">
<path id="Vector_28" d="M985.59 532.614C978.196 532.614 970.448 531.655 962.265 529.742C946.148 525.973 930.72 519.135 917.107 513.106C899.949 505.504 882.034 496.047 863.863 485C849.322 476.11 835.076 466.397 821.527 456.126C782.636 426.679 749.131 387.525 712.475 343.119C709.218 339.173 705.91 335.148 702.712 331.252C690.117 315.921 677.094 300.069 663.826 285.09C632.473 249.772 598.549 227.4 562.994 218.595C518.145 207.486 469.569 217.07 418.622 247.083C392.479 262.485 366.803 281.9 344.373 303.234C327.483 319.298 313.581 338.237 298.862 358.289C297.366 360.327 295.864 362.371 294.354 364.423C290.596 369.536 286.547 375.024 282.429 380.517C273.793 392.077 263.268 405.248 250.694 415.263C236.618 426.476 222.161 432.127 206.501 432.536C177.832 433.289 148.65 420.639 120.428 408.405L119.353 407.94C105.535 401.953 90.9177 395.905 77.6475 392.232C37.1979 381.039 -4.95857 373.268 -41.0531 370.35L-41.0045 369.296C-4.87185 372.216 37.3227 379.993 77.8082 391.197C91.1165 394.881 105.76 400.939 119.599 406.934L120.673 407.399C148.834 419.604 177.957 432.223 206.486 431.476C239.433 430.614 262.187 406.114 281.869 379.765C285.987 374.274 290.031 368.786 293.79 363.676C295.3 361.626 296.801 359.58 298.297 357.545C313.041 337.459 326.969 318.486 343.914 302.369C366.387 280.992 392.111 261.54 418.302 246.111C442.205 232.031 465.728 222.329 488.211 217.278C513.902 211.509 539.112 211.599 563.142 217.549C598.832 226.388 632.881 248.839 664.34 284.279C677.618 299.271 690.647 315.129 703.249 330.469C706.447 334.361 709.755 338.386 713.013 342.332C749.632 386.696 783.102 425.808 821.922 455.204C835.453 465.459 849.677 475.158 864.197 484.036C882.343 495.066 900.228 504.509 917.361 512.099C944.217 524 977.64 538.806 1010.6 527.461C1028.18 521.41 1041.88 509.004 1052.49 489.533C1072.48 452.848 1078.26 397.553 1082.91 353.122C1084.72 335.816 1086.43 319.47 1088.75 306.166C1089.48 301.972 1090.22 297.651 1090.93 293.47C1094.63 271.755 1098.46 249.299 1104.2 227.584C1113.07 193.79 1129.92 148.584 1159.82 125.124C1168.07 118.647 1176.59 113.878 1185.85 110.546C1210.09 101.704 1238.95 104.565 1271.63 119.044C1297.47 130.497 1322.32 149.655 1343.48 174.451C1367.15 202.119 1387.43 237.009 1403.75 278.159C1411.24 297.033 1417.86 317.193 1423.43 338.076C1428.74 358.024 1433.13 378.739 1436.47 399.645L1435.69 399.865C1421 307.744 1388.06 227.973 1342.95 175.243C1321.87 150.54 1297.12 131.455 1271.38 120.045C1238.85 105.63 1210.15 102.778 1186.06 111.563C1176.87 114.87 1168.41 119.602 1160.22 126.032C1130.53 149.328 1113.78 194.303 1104.95 227.93C1099.22 249.589 1095.4 272.015 1091.7 293.702C1090.99 297.882 1090.25 302.206 1089.52 306.403C1087.21 319.662 1085.5 335.985 1083.7 353.266C1081.36 375.624 1078.71 400.964 1074.18 424.881C1068.97 452.363 1062.09 473.714 1053.13 490.153C1048.02 499.531 1042.04 507.44 1035.37 513.658C1028.17 520.358 1019.91 525.347 1010.79 528.482C1002.8 531.238 994.444 532.614 985.59 532.614Z" fill="#A1A1A1"/>
</g>
<g id="Group_29">
<path id="Vector_29" d="M997.773 537.885C988.91 537.885 979.564 536.355 969.58 533.285C953.404 528.316 937.841 520.068 924.109 512.79C906.822 503.63 888.918 492.64 870.893 480.122C856.447 470.045 842.296 459.17 828.836 447.797C791.796 416.524 760.027 376.216 726.392 333.547C724.727 331.436 723.063 329.322 721.394 327.208C705.753 307.387 689.581 286.889 672.721 267.948C640.823 232.181 605.87 211.176 568.835 205.516C522.315 198.405 472.125 214.643 419.657 253.775C393.413 273.348 367.069 298.02 345.478 323.245C329.175 342.291 316.099 363.721 302.255 386.412C300.616 389.098 298.973 391.792 297.317 394.493C294.009 399.896 290.072 406.303 285.952 412.857C278.321 425.025 267.923 440.488 255.135 452.121C241.283 464.723 226.794 471.147 210.84 471.753C197.726 472.19 183.255 469.492 166.596 463.503C152.293 458.361 138.458 451.642 123.149 444.031C109.175 436.999 94.4259 429.735 81.1937 424.937C41.9984 410.726 0.597031 398.281 -41.8577 387.942L-41.7054 386.834C0.774693 397.176 42.1993 409.632 81.4158 423.849C94.6839 428.661 109.454 435.936 123.445 442.974C149.106 455.734 181.042 471.621 210.817 470.626C244.857 469.329 266.734 441.745 285.303 412.129C289.421 405.581 293.355 399.177 296.661 393.777C298.317 391.077 299.961 388.382 301.598 385.698C315.464 362.971 328.563 341.504 344.92 322.396C366.555 297.121 392.95 272.401 419.245 252.792C471.871 213.541 522.234 197.26 568.932 204.397C586.836 207.134 604.424 213.49 621.201 223.288C639.203 233.799 656.72 248.538 673.267 267.088C690.145 286.049 706.328 306.558 721.978 326.393C723.647 328.51 725.313 330.621 726.978 332.732C760.581 375.365 792.323 415.633 829.291 446.847C842.732 458.204 856.861 469.064 871.286 479.124C889.286 491.622 907.163 502.598 924.424 511.745C951.553 526.12 985.317 544.01 1018.7 533.635C1036.79 528.014 1050.58 515.533 1060.86 495.481C1080.67 457.18 1084.2 398.673 1087.04 351.663C1088.05 334.849 1089.01 318.969 1090.6 306.127C1090.93 303.477 1091.26 300.814 1091.58 298.136C1094.55 273.949 1097.62 248.936 1102.95 224.526C1110.56 189.416 1125.79 141.808 1155.15 114.388C1163.34 106.738 1171.89 100.853 1181.28 96.3936C1194.33 90.1389 1208.87 87.199 1224.51 87.65C1238.78 88.0615 1254.02 91.2946 1269.8 97.2561C1296.57 107.367 1322.17 125.736 1343.83 150.377C1368.09 177.91 1388.52 213.138 1404.57 255.077C1411.94 274.321 1418.32 294.894 1423.53 316.226C1428.52 336.656 1432.46 357.836 1435.24 379.176L1434.41 379.368C1422.3 286.376 1389.08 203.225 1343.29 151.234C1321.72 126.7 1296.23 108.407 1269.57 98.3357C1236.7 85.9165 1206.26 85.6121 1181.56 97.4506C1172.24 101.876 1163.76 107.716 1155.63 115.307C1126.48 142.538 1111.33 189.901 1103.76 224.836C1098.44 249.181 1095.38 274.157 1092.42 298.313C1092.09 300.991 1091.76 303.658 1091.43 306.307C1089.85 319.101 1088.89 334.962 1087.88 351.75C1085.04 398.896 1081.5 457.572 1061.56 496.118C1056.6 505.783 1050.67 513.873 1043.94 520.156C1036.7 526.915 1028.27 531.819 1018.89 534.734C1012.13 536.831 1005.12 537.885 997.773 537.885Z" fill="#A1A1A1"/>
</g>
<g id="Group_30">
<path id="Vector_30" d="M1009.22 543.373C999.123 543.373 988.424 541.197 976.895 536.828C960.583 530.647 944.923 520.993 931.109 512.478C913.651 501.716 895.755 489.187 877.918 475.245C863.575 463.999 849.52 451.96 836.14 439.471C803.193 408.724 775.034 371.058 745.221 331.179C740.348 324.66 735.308 317.92 730.308 311.293C712.731 288.011 697.722 268.813 681.611 250.804C649.144 214.564 613.166 194.927 574.673 192.435C526.304 189.303 474.495 212.191 420.686 260.461C393.955 284.443 367.634 313.842 346.574 343.246C330.709 365.398 318.306 389.512 305.175 415.041C303.548 418.204 301.915 421.377 300.272 424.554C297.345 430.223 293.47 437.692 289.47 445.181C272.638 476.773 250.647 509.298 215.174 510.961C214.068 511.009 212.958 511.032 211.849 511.032C184.15 511.032 155.871 496.422 126.94 480.111L125.134 479.085C110.804 470.933 97.267 463.235 84.737 457.632C37.517 436.514 -8.15059 418.688 -42.6609 405.52L-42.4134 404.367C-7.89465 417.541 37.7856 435.369 85.0226 456.496C97.5864 462.113 111.138 469.822 125.487 477.982L127.291 479.008C157.281 495.918 186.57 511.001 215.143 509.766C250.222 508.12 272.029 475.846 288.736 444.491C292.734 437.007 296.604 429.543 299.532 423.878C301.175 420.698 302.806 417.527 304.432 414.365C317.584 388.796 330.006 364.643 345.923 342.42C367.025 312.954 393.399 283.496 420.182 259.466C445.041 237.165 469.909 220.041 494.093 208.566C521.841 195.4 548.968 189.571 574.715 191.237C613.407 193.74 649.567 213.474 682.187 249.883C698.321 267.919 713.344 287.137 730.938 310.439C735.94 317.066 740.981 323.808 745.856 330.328C775.639 370.168 803.77 407.797 836.654 438.481C850.015 450.957 864.049 462.976 878.37 474.205C896.182 488.13 914.05 500.639 931.483 511.384C958.849 528.254 992.906 549.247 1026.8 539.796C1045.33 534.63 1059.21 522.075 1069.23 501.417C1088.8 461.372 1089.97 399.572 1090.92 349.915C1091.23 333.713 1091.52 318.408 1092.45 306.076L1092.47 305.794C1094.56 278.179 1096.73 249.626 1101.69 221.453C1105.98 196.88 1111.97 174.787 1119.47 155.783C1127.93 134.359 1138.36 116.815 1150.48 103.638C1158.58 94.8208 1167.16 87.8163 1176.69 82.2269C1202.44 67.0369 1234.01 64.6918 1267.96 75.4507C1281.63 79.7802 1295.11 86.3393 1308.03 94.942C1321.03 103.595 1333.2 114.146 1344.19 126.294C1369.03 153.695 1389.63 189.255 1405.4 231.99C1419.57 270.4 1429.47 314.216 1434.02 358.698L1433.13 358.859C1423.39 263.655 1390.77 179.224 1343.62 127.216C1321.57 102.857 1295.33 85.3584 1267.76 76.6233C1233.99 65.9264 1202.63 68.2461 1177.06 83.3318C1167.6 88.879 1159.09 95.8271 1151.05 104.573C1128.43 129.178 1111.66 169.691 1102.56 221.732C1097.62 249.832 1095.46 278.346 1093.37 305.921L1093.35 306.203C1092.42 318.49 1092.12 333.773 1091.82 349.952C1090.87 399.761 1089.69 461.747 1069.99 502.074C1065.15 512.035 1059.27 520.299 1052.5 526.636C1045.19 533.468 1036.61 538.291 1026.99 540.977C1021.26 542.573 1015.35 543.373 1009.22 543.373Z" fill="#A1A1A1"/>
</g>
<g id="Group_31">
<path id="Vector_31" d="M215.833 550.276C203.447 550.276 189.958 547.06 174.736 540.493C159.611 533.967 144.653 524.959 130.739 516.198C128.22 514.603 125.72 513.01 123.237 511.429C110.876 503.556 99.2007 496.121 88.2888 490.328C44.7787 467.24 3.3054 446.489 -36.8036 426.426L-43.4493 423.1L-43.1152 421.913L-36.4694 425.239C3.6417 445.308 45.1213 466.059 88.6399 489.153C99.5814 494.959 111.272 502.404 123.647 510.288C126.128 511.869 128.628 513.461 131.145 515.054C159.706 533.037 190.049 550.465 219.479 548.912C255.656 546.905 277.336 509.349 292.18 476.858C295.983 468.548 299.646 460.267 302.413 453.981C303.94 450.517 305.457 447.056 306.969 443.603C319.512 414.979 331.358 387.942 346.938 362.45C367.504 328.806 393.852 294.604 421.133 266.149C446.442 239.749 471.982 218.891 497.046 204.155C525.795 187.251 553.875 178.48 580.507 178.082C620.58 177.287 657.8 195.66 691.117 232.683C709.586 253.231 726.146 275.46 739.911 294.494C747.4 304.853 754.89 315.471 762.134 325.739C787.776 362.092 814.291 399.679 844.028 430.124C857.311 443.727 871.254 456.907 885.465 469.295C903.052 484.592 920.912 498.635 938.552 511.032C966.125 530.407 1000.44 554.521 1034.91 545.964C1053.89 541.254 1067.85 528.626 1077.61 507.359C1096.91 465.499 1095.61 400.313 1094.56 347.937C1094.25 332.448 1093.96 317.816 1094.31 306.037C1095.1 279.482 1096.3 248.62 1100.44 218.392C1103.93 192.779 1109.19 169.606 1116.09 149.52C1123.9 126.799 1133.9 107.75 1145.82 92.9013C1153.71 83.0612 1162.56 74.7095 1172.11 68.0743C1185.75 58.5753 1201.05 52.6025 1217.59 50.325C1233.08 48.1912 1249.41 49.313 1266.13 53.6567C1280.24 57.321 1294.13 63.3473 1307.44 71.5723C1320.84 79.8479 1333.32 90.1587 1344.56 102.217C1357.5 116.102 1369.41 132.498 1379.94 150.952C1389.92 168.437 1398.76 187.936 1406.23 208.907C1420.19 248.141 1429.38 292.862 1432.8 338.229L1431.85 338.356C1424.51 240.933 1392.47 155.225 1343.96 103.206C1321.74 79.3547 1294.04 62.2001 1265.95 54.9025C1231.22 45.8799 1198.93 50.8239 1172.55 69.1989C1163.08 75.7806 1154.3 84.0675 1146.46 93.8286C1124.01 121.807 1108.84 163.791 1101.37 218.621C1097.24 248.766 1096.05 279.575 1095.26 306.087C1094.91 317.824 1095.2 332.434 1095.51 347.903C1096.03 373.742 1096.62 403.031 1094.65 431.344C1092.37 464.199 1087.07 489.28 1078.42 508.021C1073.72 518.276 1067.88 526.718 1061.06 533.11C1053.7 540.016 1044.96 544.76 1035.09 547.21C1030.11 548.447 1025.13 549.008 1020.18 549.008C990.557 549.008 961.848 528.832 938.11 512.151C920.445 499.734 902.557 485.672 884.947 470.352C870.714 457.947 856.752 444.747 843.45 431.125C813.652 400.618 787.11 362.991 761.443 326.605C754.201 316.339 746.713 305.724 739.228 295.371C725.481 276.359 708.945 254.161 690.51 233.653C657.372 196.826 620.371 178.561 580.522 179.345C517.942 180.281 459.624 227.604 421.721 267.142C394.495 295.54 368.2 329.669 347.679 363.245C332.145 388.661 320.315 415.656 307.792 444.234C306.279 447.687 304.761 451.149 303.234 454.616C300.465 460.904 296.799 469.191 292.994 477.509C286.763 491.149 276.981 511.004 264.024 525.886C257.731 533.113 251.035 538.793 244.12 542.77C236.411 547.204 228.132 549.696 219.519 550.172C218.299 550.242 217.07 550.276 215.833 550.276Z" fill="#A1A1A1"/>
</g>
<g id="Group_32">
<path id="Vector_32" d="M219.809 589.518C207.408 589.518 193.947 586.054 178.805 578.984C163.128 571.667 147.628 561.379 134.536 552.277C130.513 549.475 126.498 546.634 122.615 543.886C111.76 536.205 101.506 528.947 91.8377 523.022C57.118 501.741 22.6246 480.964 -10.7351 460.87C-21.7696 454.223 -33.1786 447.351 -44.2365 440.677L-43.8219 439.456C-32.764 446.131 -21.3551 453.003 -10.3205 459.649C23.0392 479.744 57.5368 500.523 92.2586 521.807C101.952 527.749 112.219 535.013 123.086 542.705C126.968 545.453 130.982 548.292 135.001 551.093C162.155 569.962 193.651 589.935 223.811 588.055C260.84 585.693 281.638 544.684 295.623 509.222C299.208 500.137 302.675 491.016 305.294 484.085C306.639 480.527 307.976 476.973 309.31 473.427C321.307 441.534 332.638 411.41 347.956 382.482C367.878 344.858 394.205 305.918 422.082 272.835C460.905 226.961 520.909 171.004 586.296 164.935C627.879 160.972 666.152 177.98 700.047 215.491C715.276 232.353 730.335 251.802 748.881 278.56C758.253 292.081 767.553 306.096 776.547 319.645C799.946 354.898 824.139 391.352 851.401 421.78C864.608 436.525 878.455 450.864 892.559 464.399C909.636 480.773 927.49 496.349 945.621 510.696C973.471 532.6 1008.13 559.865 1043.02 552.148C1062.15 548.004 1076.6 534.939 1085.99 513.32C1105.02 469.566 1100.94 397.982 1097.95 345.715C1097.12 331.047 1096.33 317.193 1096.17 306.017C1095.82 281.178 1095.85 248.428 1099.19 215.351C1104.95 158.032 1119.06 113.227 1141.15 82.1843C1148.89 71.2478 1157.77 61.746 1167.54 53.941C1181.43 42.8241 1197.11 35.3461 1214.13 31.7184C1230.17 28.3022 1247.05 28.3557 1264.3 31.8791C1278.86 34.9177 1293.18 40.4254 1306.85 48.2444C1320.66 56.1424 1333.47 66.2051 1344.92 78.1536C1358.16 91.9595 1370.25 108.412 1380.86 127.058C1390.92 144.728 1399.73 164.504 1407.06 185.842C1420.81 225.901 1429.29 271.524 1431.58 317.779L1430.58 317.866C1425.64 218.22 1394.19 131.232 1344.3 79.2106C1321.68 55.6097 1293.22 39.2697 1264.15 33.2039C1228.32 25.8894 1195.09 33.4576 1168.06 55.091C1158.37 62.8312 1149.57 72.2569 1141.89 83.106C1119.94 113.942 1105.92 158.495 1100.19 215.531C1096.86 248.518 1096.83 281.204 1097.18 305.994C1097.33 317.131 1098.12 330.968 1098.96 345.616C1100.5 372.634 1102.25 403.259 1101.25 433.156C1100.08 467.97 1095.38 494.412 1086.86 513.994C1082.27 524.555 1076.48 533.181 1069.63 539.63C1062.2 546.623 1053.31 551.279 1043.19 553.472C1027.49 556.942 1010.6 553.825 991.547 543.94C974.983 535.345 959.113 522.864 945.113 511.854C926.955 497.487 909.078 481.889 891.975 465.493C877.85 451.937 863.984 437.579 850.758 422.815C823.439 392.325 799.219 355.831 775.796 320.541C766.806 306.995 757.508 292.989 748.145 279.479C729.631 252.769 714.599 233.356 699.406 216.534C665.712 179.237 627.682 162.331 586.363 166.269C521.258 172.315 461.453 228.099 422.746 273.836C394.924 306.851 368.652 345.709 348.772 383.254C333.497 412.101 322.183 442.182 310.205 474.027C308.87 477.576 307.533 481.131 306.188 484.688C303.568 491.625 300.099 500.754 296.509 509.847C282.402 545.625 261.394 587.001 223.855 589.394C222.52 589.476 221.169 589.518 219.809 589.518Z" fill="#A1A1A1"/>
</g>
<g id="Group_33">
<path id="Vector_33" d="M223.865 628.763C189.981 628.763 154.428 601.03 122.911 576.442C113.226 568.888 104.078 561.751 95.3846 555.716L-45.0234 458.254L-44.5348 457.006L95.8732 554.468C104.59 560.517 113.748 567.662 123.446 575.227C156.182 600.765 193.287 629.71 228.142 627.201C265.988 624.481 285.925 580.019 299.066 541.592C303.364 529.023 307.514 516.235 311.529 503.867C322.508 470.042 333.86 435.065 348.968 402.512C360.965 376.665 375.869 349.557 392.066 324.124C409.835 296.222 428.861 270.623 448.61 248.039C470.385 223.142 492.526 202.546 514.415 186.826C538.627 169.44 562.479 158.089 585.314 153.086C631.058 143.066 672.662 158.272 708.968 198.289C739.14 231.542 764.784 272.661 789.584 312.427C811.171 347.04 833.492 382.829 858.767 413.423C887.962 448.758 919.56 481.368 952.685 510.341C980.594 534.754 1015.33 565.139 1051.13 558.31C1081.36 552.543 1098.84 525.585 1104.57 475.891C1109.43 433.622 1104.8 383.48 1101.08 343.193C1099.81 329.463 1098.62 316.494 1098.03 305.978C1094.78 248.003 1096.85 200.144 1104.35 159.671C1109.03 134.418 1115.93 111.908 1124.87 92.7661C1134.85 71.3835 1147.67 53.5581 1162.96 39.786C1176.19 27.8714 1191.1 19.218 1207.28 14.0654C1222.68 9.16089 1238.89 7.5176 1255.47 9.18063C1288.07 12.4503 1319.97 28.3928 1345.27 54.0683C1358.8 67.7925 1371.08 84.3044 1381.78 103.142C1391.91 120.995 1400.69 141.05 1407.88 162.754C1421.41 203.639 1429.18 250.167 1430.35 297.304L1429.29 297.352C1426.8 196.973 1395.15 106.445 1344.63 55.1929C1290.98 0.764012 1214.82 -5.2257 1163.55 40.9557C1112.75 86.7031 1091.66 173.358 1099.08 305.873C1099.66 316.356 1100.86 329.308 1102.13 343.021C1105.86 383.396 1110.5 433.644 1105.61 476.105C1102.94 499.233 1097.59 517.819 1089.69 531.352C1085.25 538.959 1079.9 545.177 1073.78 549.828C1067.27 554.778 1059.7 558.101 1051.27 559.708C1047.83 560.364 1044.33 560.694 1040.77 560.694C1027.8 560.694 1013.98 556.322 998.843 547.466C981.787 537.488 965.327 523.09 952.101 511.522C918.932 482.507 887.29 449.855 858.052 414.469C832.72 383.81 810.375 347.979 788.765 313.329C763.997 273.613 738.385 232.545 708.289 199.377C672.226 159.634 630.908 144.526 585.479 154.479C493.586 174.61 398.925 297.55 349.861 403.256C334.793 435.719 323.456 470.648 312.491 504.427C308.474 516.802 304.322 529.598 300.02 542.178C291.295 567.69 282.678 585.958 272.902 599.663C266.8 608.215 260.18 614.957 253.225 619.701C245.493 624.974 237.07 627.974 228.191 628.613C226.757 628.712 225.312 628.763 223.865 628.763Z" fill="#A1A1A1"/>
</g>
</g>
</g>
</g>
<defs>
<clipPath id="clip0_5_34420">
<rect width="1440" height="8192" fill="white" transform="translate(0 -5934.78)"/>
</clipPath>
</defs>
</svg>
