<svg width="582" height="471" viewBox="0 0 582 471" fill="none" xmlns="http://www.w3.org/2000/svg">
<g id="Landing page V2 / desktop / 1440px">
<g id="Apps">
<g id="Apps_2">
<circle id="Ellipse 24" cx="284.764" cy="179.796" r="144.5" stroke="#4F9CF9" stroke-width="2" stroke-dasharray="15 15"/>
<circle id="Ellipse 25" cx="181.875" cy="325.296" r="144.5" stroke="#4F9CF9" stroke-width="2" stroke-dasharray="15 15"/>
<circle id="Ellipse 26" cx="400.125" cy="325.296" r="144.5" stroke="#4F9CF9" stroke-width="2" stroke-dasharray="15 15"/>
<g id="Group 262">
<circle id="Ellipse 19" cx="429.225" cy="182.914" r="36.375" fill="white"/>
<g id="slack 1" clip-path="url(#clip0_5_34420)">
<g id="Group">
<path id="Vector" d="M423.379 184.193C420.861 184.193 418.812 186.242 418.812 188.76V200.172C418.812 202.69 420.861 204.739 423.379 204.739C425.898 204.739 427.946 202.691 427.946 200.172V188.76C427.946 186.242 425.898 184.193 423.379 184.193Z" fill="#FF4340"/>
<path id="Vector_2" d="M416.257 184.193H411.835C409.397 184.193 407.414 186.176 407.414 188.614C407.414 191.052 409.397 193.036 411.835 193.036C414.273 193.036 416.257 191.052 416.257 188.614V184.193Z" fill="#FF4340"/>
<path id="Vector_3" d="M407.4 177.069C407.4 179.587 409.449 181.635 411.967 181.635H423.38C425.898 181.635 427.947 179.587 427.947 177.069C427.947 174.55 425.898 172.502 423.38 172.502H411.967C409.449 172.502 407.4 174.55 407.4 177.069V177.069Z" fill="#36C6FF"/>
<path id="Vector_4" d="M423.527 169.944H427.948V165.522C427.948 163.085 425.965 161.101 423.527 161.101C421.089 161.101 419.105 163.085 419.105 165.522C419.105 167.96 421.089 169.944 423.527 169.944Z" fill="#36C6FF"/>
<path id="Vector_5" d="M435.071 181.635C437.589 181.635 439.638 179.587 439.638 177.068V165.656C439.638 163.138 437.589 161.089 435.071 161.089C432.552 161.089 430.504 163.138 430.504 165.656V177.068C430.504 179.587 432.552 181.635 435.071 181.635Z" fill="#0DC46E"/>
<path id="Vector_6" d="M442.195 181.636H446.617C449.054 181.636 451.038 179.652 451.038 177.214C451.038 174.776 449.054 172.793 446.617 172.793C444.179 172.793 442.195 174.777 442.195 177.214V181.636Z" fill="#0DC46E"/>
<g id="Group_2">
<path id="Vector_7" d="M451.05 188.76C451.05 186.242 449.001 184.193 446.483 184.193H435.071C432.552 184.193 430.504 186.242 430.504 188.76C430.504 191.278 432.552 193.327 435.071 193.327H446.483C449.001 193.327 451.05 191.278 451.05 188.76Z" fill="#FDCB02"/>
<path id="Vector_8" d="M434.925 195.884H430.504V200.306C430.504 202.743 432.487 204.727 434.925 204.727C437.363 204.727 439.346 202.743 439.346 200.306C439.346 197.868 437.363 195.884 434.925 195.884Z" fill="#FDCB02"/>
</g>
</g>
</g>
</g>
<g id="Group 263">
<circle id="Ellipse 20" cx="36.375" cy="313.864" r="36.375" fill="white"/>
<g id="outlook 1" clip-path="url(#clip1_5_34420)">
<path id="Vector_9" d="M56.8352 301.588H37.7383C36.9854 301.588 36.3743 302.199 36.3743 302.952C36.3743 303.705 36.9854 304.316 37.7383 304.316H52.8603L44.4795 310.834L38.4695 307.012L37.0072 309.314L43.8275 313.652C44.0485 313.794 44.3049 313.865 44.5586 313.865C44.8533 313.865 45.1506 313.769 45.3962 313.578L55.4711 305.74V323.413H37.7383C36.9854 323.413 36.3743 324.024 36.3743 324.777C36.3743 325.53 36.9854 326.141 37.7383 326.141H56.8352C57.5882 326.141 58.1993 325.53 58.1993 324.777V302.952C58.1993 302.199 57.5882 301.588 56.8352 301.588Z" fill="#1976D2"/>
<path id="Vector_10" d="M38.6094 293.718C38.2984 293.459 37.881 293.347 37.4881 293.428L15.6631 297.521C15.0166 297.641 14.55 298.203 14.55 298.86V328.87C14.55 329.524 15.0166 330.089 15.6631 330.209L37.4881 334.301C37.57 334.318 37.6545 334.326 37.7391 334.326C38.0556 334.326 38.3639 334.217 38.6094 334.012C38.9231 333.753 39.1032 333.366 39.1032 332.962V294.768C39.1032 294.362 38.9231 293.977 38.6094 293.718Z" fill="#2196F3"/>
<path id="Vector_11" d="M26.8274 323.413C23.068 323.413 20.0071 319.741 20.0071 315.228C20.0071 310.716 23.068 307.044 26.8274 307.044C30.5867 307.044 33.6477 310.716 33.6477 315.228C33.6477 319.741 30.5867 323.413 26.8274 323.413ZM26.8274 309.772C24.5712 309.772 22.7352 312.219 22.7352 315.228C22.7352 318.238 24.5712 320.685 26.8274 320.685C29.0836 320.685 30.9196 318.238 30.9196 315.228C30.9196 312.219 29.0836 309.772 26.8274 309.772Z" fill="#FAFAFA"/>
</g>
</g>
<g id="Group 264">
<circle id="Ellipse 21" cx="545.625" cy="313.864" r="36.375" fill="white"/>
<g id="google-drive 1" clip-path="url(#clip2_5_34420)">
<g id="Group_3">
<g id="Drive_4_">
<path id="Vector_12" d="M545.586 305.828L536.527 321.541H536.502L541.748 327.939L529.976 332.878C529.745 332.75 529.566 332.571 529.464 332.392L523.936 322.155C523.655 321.592 523.885 321.157 523.962 320.901L538.779 295.31C538.882 295.156 539.035 295.003 539.24 294.875H539.265L546.866 297.229L545.586 305.828Z" fill="#59C36A"/>
</g>
<path id="Vector_13" d="M567.45 321.541L557.187 327.939L554.756 321.541L545.586 305.828L539.265 294.875C539.444 294.747 539.674 294.67 539.879 294.67H551.378C551.634 294.747 552.146 294.721 552.479 295.31L567.296 320.901C567.398 321.081 567.45 321.311 567.45 321.541Z" fill="#FFDA2D"/>
<path id="Vector_14" d="M552.48 295.311C552.147 294.722 551.635 294.748 551.379 294.671H545.587V305.829L554.757 321.542L557.189 327.94L567.451 321.542C567.451 321.312 567.4 321.081 567.297 320.902L552.48 295.311Z" fill="#FDBF00"/>
<path id="Vector_15" d="M567.45 321.541C567.45 321.772 567.399 322.002 567.322 322.156L561.794 332.392C561.589 332.725 561.103 333.057 560.668 333.057H530.59C530.385 333.057 530.155 332.981 529.976 332.878L536.502 321.541H567.45Z" fill="#4086F4"/>
<path id="Vector_16" d="M545.587 333.057H560.669C561.104 333.057 561.59 332.725 561.795 332.392L567.323 322.156C567.4 322.002 567.451 321.772 567.451 321.541H545.587V333.057H545.587Z" fill="#4175DF"/>
</g>
</g>
</g>
<g id="Group 260">
<circle id="Ellipse 22" cx="139.264" cy="182.914" r="36.375" fill="white"/>
<g id="dropbox 1" clip-path="url(#clip3_5_34420)">
<g id="Group_4">
<path id="Vector_17" d="M126.013 193.748V190.241L131.937 193.67L139.264 186.811V202.4L126.013 193.748Z" fill="#0093EB"/>
<path id="Vector_18" d="M118.921 184.473L126.638 177.458L139.265 185.253L131.938 192.112L118.921 184.473Z" fill="#0093EB"/>
<path id="Vector_19" d="M126.637 177.458L117.439 170.442L130.69 163.427L140.043 169.663L126.637 177.458Z" fill="#0093EB"/>
<path id="Vector_20" d="M152.514 193.826L139.263 202.4V186.811L146.824 193.358L152.514 189.773V193.826Z" fill="#0093EB"/>
<path id="Vector_21" d="M146.824 191.799L139.263 185.252L151.968 177.145L159.607 183.693L146.824 191.799Z" fill="#0093EB"/>
<path id="Vector_22" d="M151.968 177.146L140.042 169.663L149.396 163.427L161.088 170.442L151.968 177.146Z" fill="#0093EB"/>
</g>
</g>
</g>
<g id="Group 259">
<circle id="Ellipse 23" cx="291" cy="416.753" r="36.375" fill="white"/>
<g id="google-calendar 1" clip-path="url(#clip4_5_34420)">
<g id="Group_5">
<g id="Group_6">
<path id="Vector_23" d="M308.938 407.887H273.132C272.425 407.887 271.853 407.315 271.853 406.608V398.765C271.853 396.649 273.574 394.928 275.689 394.928H306.381C308.496 394.928 310.217 396.649 310.217 398.765V406.608C310.217 407.315 309.645 407.887 308.938 407.887Z" fill="#E3E7EA"/>
</g>
<path id="Vector_24" d="M306.38 394.928H291.035V407.887H308.938C309.645 407.887 310.217 407.315 310.217 406.608V398.765C310.217 396.649 308.496 394.928 306.38 394.928Z" fill="#BABAC0"/>
<g id="Calendar_1_">
<g id="Group_7">
<g id="Group_8">
<path id="Vector_25" d="M271.804 421.954C271.804 421.952 271.804 421.951 271.804 421.951L269.26 409.831C269.081 408.68 269.388 407.529 270.104 406.685C270.846 405.815 271.92 405.329 273.045 405.329H308.955C310.08 405.329 311.154 405.815 311.896 406.685C312.612 407.529 312.919 408.68 312.74 409.779L310.196 421.957L312.74 434.077C312.919 435.228 312.612 436.379 311.896 437.223C311.154 438.092 310.08 438.578 308.955 438.578H273.045C271.92 438.578 270.846 438.092 270.104 437.223C269.388 436.379 269.081 435.228 269.26 434.128C269.26 434.128 271.76 422.165 271.804 421.954Z" fill="#4086F4"/>
</g>
</g>
<path id="Vector_26" d="M271.804 421.951C271.804 421.951 271.804 421.952 271.804 421.954H310.196L312.74 409.779C312.919 408.68 312.612 407.529 311.896 406.685C311.154 405.815 310.08 405.329 308.955 405.329H273.045C271.92 405.329 270.846 405.815 270.104 406.685C269.388 407.529 269.081 408.68 269.26 409.831L271.804 421.951Z" fill="#4175DF"/>
<g id="Group_9">
<path id="Vector_27" d="M278.212 402.601C278.918 402.601 279.491 402.028 279.491 401.322C279.491 400.616 278.918 400.043 278.212 400.043C277.506 400.043 276.933 400.616 276.933 401.322C276.933 402.028 277.506 402.601 278.212 402.601Z" fill="#FFF5F5"/>
</g>
<g id="Group_10">
<path id="Vector_28" d="M303.788 402.601C304.494 402.601 305.067 402.028 305.067 401.322C305.067 400.616 304.494 400.043 303.788 400.043C303.082 400.043 302.509 400.616 302.509 401.322C302.509 402.028 303.082 402.601 303.788 402.601Z" fill="#E3E7EA"/>
</g>
<g id="Group_11">
<path id="Vector_29" d="M285.885 430.905C283.722 430.905 281.782 429.535 281.062 427.495C280.826 426.829 281.174 426.098 281.841 425.864C282.504 425.626 283.237 425.977 283.472 426.643C283.833 427.662 284.803 428.348 285.885 428.348C287.294 428.348 288.442 427.2 288.442 425.79C288.442 424.38 287.294 423.232 285.885 423.232H284.295C283.589 423.232 283.016 422.66 283.016 421.954C283.016 421.247 283.589 420.675 284.295 420.675H285.885C287.294 420.675 288.442 419.527 288.442 418.117C288.442 416.707 287.294 415.56 285.885 415.56C284.803 415.56 283.833 416.245 283.472 417.264C283.237 417.931 282.503 418.281 281.841 418.043C281.174 417.809 280.826 417.078 281.061 416.412C281.782 414.372 283.722 413.002 285.885 413.002C288.706 413.002 291 415.296 291 418.117C291 419.643 290.328 421.016 289.264 421.954C290.328 422.891 291 424.264 291 425.79C291 428.611 288.706 430.905 285.885 430.905Z" fill="#FFF5F5"/>
</g>
<path id="Vector_30" d="M281.841 418.043C282.503 418.281 283.237 417.931 283.472 417.264C283.833 416.245 284.803 415.56 285.885 415.56C287.294 415.56 288.442 416.707 288.442 418.117C288.442 419.527 287.294 420.675 285.885 420.675H284.295C283.589 420.675 283.016 421.247 283.016 421.953H289.264C290.328 421.016 291 419.643 291 418.117C291 415.296 288.706 413.002 285.885 413.002C283.722 413.002 281.782 414.372 281.062 416.412C280.825 417.078 281.174 417.809 281.841 418.043Z" fill="#E3E7EA"/>
<g id="Group_12">
<path id="Vector_31" d="M298.674 430.905C297.967 430.905 297.395 430.333 297.395 429.626V416.67L295.547 417.902C294.957 418.292 294.164 418.134 293.773 417.547C293.381 416.959 293.54 416.166 294.128 415.774L297.964 413.216C298.356 412.955 298.862 412.931 299.277 413.153C299.693 413.375 299.953 413.808 299.953 414.281V429.626C299.953 430.333 299.381 430.905 298.674 430.905Z" fill="#FFF5F5"/>
</g>
<path id="Vector_32" d="M295.547 417.903L297.395 416.67V421.954H299.953V414.281C299.953 413.809 299.693 413.376 299.277 413.153C298.862 412.931 298.356 412.956 297.964 413.217L294.128 415.775C293.54 416.167 293.381 416.96 293.773 417.548C294.164 418.135 294.957 418.292 295.547 417.903Z" fill="#E3E7EA"/>
</g>
</g>
</g>
</g>
<g id="Group 261">
<circle id="Ellipse 18" cx="287.882" cy="36.375" r="36.375" fill="white"/>
<g id="gmail 1" clip-path="url(#clip5_5_34420)">
<path id="Vector_33" d="M304.252 20.006H271.514V52.7435H304.252V20.006Z" fill="#ECEFF1"/>
<path id="Vector_34" d="M287.882 39.8178L304.25 52.7437V27.2248L287.882 39.8178Z" fill="#CFD8DC"/>
<path id="Vector_35" d="M305.615 20.0062H304.251L287.882 32.9321L271.514 20.0062H270.15C267.891 20.0062 266.057 21.8395 266.057 24.0984V48.6515C266.057 50.9104 267.891 52.7437 270.15 52.7437H271.514V27.2248L287.882 39.8151L304.251 27.2221V52.7437H305.615C307.874 52.7437 309.707 50.9104 309.707 48.6515V24.0984C309.707 21.8395 307.874 20.0062 305.615 20.0062Z" fill="#F44336"/>
</g>
</g>
<circle id="Ellipse 27" cx="289.964" cy="278.677" r="51.9643" fill="white"/>
<g id="Group_13">
<g id="Group_14">
<path id="Vector_36" d="M264 261.894V270.975C264 273.741 267.454 275.216 269.565 273.28L279.641 264.199C281.848 262.216 280.408 258.713 277.386 258.713H267.31C265.487 258.713 264 260.142 264 261.894Z" fill="#5986EF"/>
<path id="Vector_37" d="M311.69 258.713H301.614C298.64 258.713 297.152 262.216 299.359 264.199L309.435 273.28C311.546 275.17 315 273.741 315 270.975V261.894C315 260.142 313.513 258.713 311.69 258.713Z" fill="#5986EF"/>
</g>
<path id="Vector_38" d="M291.779 280.887L309.435 296.837C311.546 298.727 315 297.298 315 294.532V285.358C315 284.482 314.616 283.653 313.944 283.053L291.779 263C290.484 261.848 288.516 261.848 287.221 263L265.056 283.053C264.384 283.653 264 284.482 264 285.358V294.532C264 297.298 267.454 298.773 269.565 296.837L287.221 280.887C288.516 279.734 290.484 279.734 291.779 280.887Z" fill="#5986EF"/>
</g>
</g>
</g>
</g>
<defs>
<clipPath id="clip0_5_34420">
<rect width="43.65" height="43.65" fill="white" transform="translate(407.4 161.089)"/>
</clipPath>
<clipPath id="clip1_5_34420">
<rect width="43.65" height="43.65" fill="white" transform="translate(14.55 292.039)"/>
</clipPath>
<clipPath id="clip2_5_34420">
<rect width="43.65" height="43.65" fill="white" transform="translate(523.8 292.039)"/>
</clipPath>
<clipPath id="clip3_5_34420">
<rect width="43.65" height="43.65" fill="white" transform="translate(117.439 161.089)"/>
</clipPath>
<clipPath id="clip4_5_34420">
<rect width="43.65" height="43.65" fill="white" transform="translate(269.175 394.928)"/>
</clipPath>
<clipPath id="clip5_5_34420">
<rect width="43.65" height="43.65" fill="white" transform="translate(266.057 14.55)"/>
</clipPath>
</defs>
</svg>
