<svg width="419" height="32" viewBox="0 0 419 32" fill="none" xmlns="http://www.w3.org/2000/svg">
<path d="M391.74 16.6326C391.169 16.6589 390.592 16.677 390.033 16.7165C389.67 16.7412 389.514 16.6688 389.272 16.631C389.191 16.6178 389.104 16.5914 389.029 16.5947C388.464 16.6211 387.899 16.6507 387.333 16.6803C387.16 16.7445 387.051 16.8301 386.785 16.8614C386.526 16.891 386.22 16.891 385.932 16.9059C385.551 16.924 385.17 16.9421 384.79 16.9585C384.599 16.9668 384.444 16.998 384.38 17.0573C384.369 17.0672 384.495 17.0919 384.565 17.1067C384.795 17.1561 385.02 17.212 385.274 17.2499C385.516 17.2861 385.816 17.2268 386.076 17.2729C386.659 17.3766 386.664 17.375 387.109 17.3552C387.489 17.3371 387.87 17.3174 388.251 17.3042C388.326 17.3009 388.412 17.3256 388.493 17.3388C388.735 17.375 388.891 17.4573 389.249 17.426C389.52 17.4013 389.82 17.3964 390.102 17.3832C390.339 17.431 390.558 17.4853 390.812 17.5232C391.048 17.5594 391.118 17.5874 390.991 17.6351C390.875 17.6795 390.714 17.6977 390.5 17.7009C390.31 17.7026 390.12 17.7174 389.929 17.7256C389.831 17.7306 389.739 17.7339 389.647 17.7388C389.283 17.7569 389.283 17.7569 388.62 17.6516C388.36 17.6104 388.066 17.668 387.818 17.6285C387.651 17.6022 387.506 17.5627 387.345 17.5347C387.276 17.5232 387.166 17.5215 387.08 17.5248C386.791 17.5363 386.503 17.5446 386.226 17.566C386.03 17.5808 385.914 17.6269 385.938 17.673C385.943 17.6911 386.082 17.7174 386.162 17.7191C386.347 17.7223 386.543 17.6993 386.722 17.7108C386.895 17.7223 387.074 17.7553 387.201 17.7915C387.46 17.8672 387.754 17.7997 388.003 17.8195C388.262 17.8409 388.475 17.9067 388.724 17.9462C388.787 17.9561 388.908 17.9396 389.006 17.9347C389.289 17.9232 389.572 17.9133 389.854 17.9018C390.091 17.9495 390.345 17.9923 390.558 18.0466C390.944 18.1454 391.36 18.1832 391.862 18.1355C392.144 18.1092 392.421 18.1191 392.646 18.1833C392.877 18.2491 393.142 18.2425 393.436 18.2293C393.707 18.2162 393.984 18.18 394.261 18.2261C394.861 18.3281 394.867 18.3331 395.576 18.2936C395.79 18.282 395.951 18.2787 396.113 18.3166C396.263 18.3512 396.424 18.3808 396.58 18.4137C396.863 18.4022 397.151 18.3907 397.434 18.3775C397.797 18.3594 397.999 18.3824 398.086 18.4746C398.137 18.5306 398.161 18.5816 398.288 18.6195C398.438 18.6656 398.599 18.6639 398.818 18.6507C399.026 18.6392 399.176 18.6211 399.262 18.5619C399.297 18.5372 399.366 18.5141 399.43 18.4944C399.482 18.4796 399.562 18.4565 399.608 18.4598C399.695 18.4664 399.81 18.4845 399.839 18.5059C400.122 18.7051 400.122 18.7067 400.41 18.7643C400.727 18.8285 401.056 18.8861 401.345 18.9586C401.604 19.0228 401.864 18.9948 402.147 18.9948C402.36 18.9948 402.498 19.0376 402.481 19.0804C402.47 19.1051 402.389 19.1413 402.32 19.1446C401.754 19.1775 401.183 19.2055 400.612 19.2285C400.543 19.2318 400.456 19.2022 400.376 19.1874C400.214 19.1578 400.07 19.1117 399.897 19.1018C399.724 19.0919 399.522 19.1166 399.332 19.1248C399.141 19.1331 398.939 19.1545 398.766 19.1413C398.593 19.1281 398.455 19.0804 398.293 19.0491C398.218 19.0343 398.115 19.0129 398.051 19.0179C397.63 19.0574 397.318 19.003 397.018 18.9306C396.955 18.9158 396.845 18.9059 396.765 18.9092C396.096 18.9372 395.432 18.9701 394.763 19.0014C394.492 19.0145 394.273 18.9569 394.215 18.8598C394.186 18.8055 394.129 18.7512 394.129 18.6968C394.129 18.5981 393.811 18.5438 393.581 18.5553C393.2 18.5717 392.813 18.5849 392.438 18.6096C392.133 18.6293 391.873 18.6096 391.665 18.5503C391.423 18.4828 391.146 18.496 390.87 18.5141C390.662 18.5273 390.604 18.5816 390.616 18.7182C390.627 18.8285 390.529 18.8631 390.154 18.8812C389.681 18.9043 389.202 18.9273 388.724 18.9454C388.649 18.9487 388.562 18.9207 388.487 18.9059C388.326 18.8763 388.181 18.8285 388.008 18.8187C387.835 18.8071 387.633 18.8318 387.443 18.8417C387.253 18.8499 387.051 18.873 386.878 18.8615C386.705 18.8499 386.56 18.8006 386.405 18.7693C386.33 18.7545 386.237 18.7331 386.162 18.7364C385.782 18.7495 385.401 18.7693 385.02 18.7874C384.593 18.8071 384.593 18.8071 383.988 18.7051C383.711 18.659 383.434 18.6952 383.163 18.7084C382.874 18.7215 382.603 18.7281 382.378 18.6623C382.228 18.6195 382.061 18.5931 381.882 18.6014C381.404 18.6211 380.931 18.6458 380.452 18.6656C380.371 18.6689 380.262 18.6606 380.198 18.6458C379.892 18.5767 379.592 18.5224 379.165 18.5569C378.796 18.5866 378.398 18.5882 378.029 18.6162C377.827 18.631 377.735 18.6837 377.775 18.7248C377.798 18.7462 377.919 18.7709 378 18.7709C378.185 18.7726 378.387 18.7479 378.56 18.7578C378.917 18.7775 379.096 18.9158 379.563 18.8779C379.84 18.8549 380.129 18.8466 380.417 18.8401C380.492 18.8384 380.573 18.8697 380.654 18.8862C380.884 18.9306 381.086 18.9882 381.421 18.9586C381.698 18.9355 381.992 18.929 382.275 18.9158C382.724 18.8944 382.725 18.896 383.307 18.9965C383.584 19.0442 383.861 19.0063 384.132 18.9948C384.334 18.9866 384.524 18.9701 384.686 18.9932C384.934 19.0277 385.113 19.1067 385.418 19.1018C385.707 19.0968 385.989 19.0738 386.278 19.0656C386.457 19.0606 386.624 19.087 386.768 19.1314C386.918 19.1759 387.08 19.1956 387.276 19.1857C387.558 19.1726 387.847 19.1561 388.135 19.1479C388.216 19.1462 388.308 19.1611 388.383 19.1742C388.545 19.2039 388.7 19.2384 388.856 19.2697C389.139 19.2598 389.427 19.2565 389.704 19.2368C389.918 19.222 390.068 19.2286 390.241 19.2615C390.46 19.3059 390.639 19.3849 390.996 19.3471C391.175 19.329 391.383 19.3339 391.562 19.3174C391.781 19.296 391.931 19.3043 392.087 19.3537C392.381 19.4475 392.75 19.4491 393.131 19.4129C393.546 19.3734 393.857 19.4195 394.169 19.4919C394.498 19.5677 394.498 19.566 394.752 19.7487C394.827 19.8014 395.04 19.8261 395.219 19.8162C395.519 19.7998 395.778 19.808 395.997 19.8705C396.228 19.938 396.505 19.9298 396.788 19.9117C397.163 19.887 397.538 19.8656 397.843 19.9611C397.993 20.0072 398.155 20.0187 398.357 20.0072C398.928 19.9775 399.505 19.9594 400.064 19.9232C400.405 19.9002 400.601 19.9528 400.831 19.9973C401.143 20.0582 401.483 20.1125 401.483 20.2426C401.483 20.264 401.564 20.2887 401.633 20.3051C401.783 20.3397 401.945 20.3693 402.1 20.4022C402.331 20.4516 402.556 20.4928 402.873 20.4664C403.15 20.445 403.444 20.4385 403.727 20.4236C404.01 20.4088 404.269 20.4006 404.523 20.4631C404.817 20.5339 405.129 20.6014 405.463 20.6541C405.7 20.692 406.011 20.6278 406.265 20.6788C406.421 20.7101 406.571 20.7463 406.738 20.7726C406.807 20.7841 406.917 20.7759 407.009 20.7726C407.2 20.766 407.396 20.7611 407.58 20.7446C407.794 20.7265 407.955 20.7298 408.117 20.7677C408.267 20.8023 408.417 20.85 408.59 20.8599C408.849 20.8747 409.138 20.8088 409.397 20.8846C409.53 20.9224 409.697 20.9586 409.87 20.9702C410.043 20.9817 410.245 20.957 410.43 20.9586C410.511 20.9586 410.609 20.985 410.655 21.0064C410.684 21.0179 410.643 21.0492 410.603 21.0656C410.551 21.0854 410.476 21.1117 410.401 21.115C409.83 21.1447 409.259 21.1693 408.688 21.1973C408.348 21.2138 408.348 21.2138 407.661 21.1101C407.5 21.0854 407.321 21.0903 407.119 21.1018C406.848 21.1167 406.571 21.1447 406.288 21.115C405.919 21.0031 405.463 20.9932 404.979 21.036C404.777 21.0541 404.592 21.0541 404.442 21.0228C404.125 20.9603 403.791 20.9027 403.508 20.8286C403.289 20.771 403.185 20.766 403.093 20.8451C403.064 20.8697 403.035 20.8961 403.041 20.9191C403.075 21.0014 403.139 21.0821 403.173 21.1644C403.185 21.1874 403.139 21.2138 403.11 21.2385C403.018 21.3076 402.897 21.3027 402.695 21.2451C402.493 21.1874 402.25 21.1496 401.927 21.1759C401.651 21.199 401.351 21.1957 401.074 21.2204C400.647 21.2566 400.347 21.2039 400.041 21.1331C399.978 21.1183 399.868 21.1101 399.787 21.1134C398.928 21.1512 398.074 21.194 397.215 21.2319C397.03 21.2401 396.863 21.2154 396.719 21.171C396.569 21.1265 396.401 21.1035 396.217 21.1117C395.455 21.1463 394.694 21.1776 393.932 21.2204C393.621 21.2385 393.373 21.2171 393.16 21.1595C392.998 21.1167 392.848 21.1035 392.646 21.1084C392.427 21.1134 392.271 21.1298 392.162 21.1776C392.058 21.2237 392.133 21.2516 392.363 21.2879C392.611 21.3274 392.842 21.3784 393.079 21.4245C393.269 21.4179 393.459 21.4047 393.644 21.4064C393.725 21.4064 393.8 21.436 393.881 21.4525C394.111 21.5002 394.325 21.548 394.653 21.5216C394.93 21.4986 395.224 21.4936 395.507 21.4788C395.899 21.4607 395.899 21.4607 396.534 21.5644C396.695 21.5908 396.868 21.5891 397.076 21.5743C397.255 21.5628 397.44 21.5858 397.566 21.6352C397.618 21.6549 397.601 21.6879 397.492 21.7965C397.492 21.8772 397.613 21.841 397.653 21.7883C397.716 21.7126 397.595 21.6879 397.365 21.729C397.203 21.7587 397.122 21.8015 397.163 21.836C397.186 21.8541 397.295 21.8772 397.492 21.7965C397.999 21.6978 398.386 21.6862 398.755 21.6599C398.974 21.6451 399.112 21.6516 399.285 21.6944C399.493 21.7455 399.701 21.7998 400.041 21.7735C400.41 21.7438 400.803 21.7405 401.177 21.7158C401.524 21.6928 401.702 21.7652 401.922 21.808C402.187 21.8591 402.481 21.8015 402.723 21.8311C402.977 21.8607 403.156 21.9331 403.45 21.9463C403.877 21.9019 404.148 21.9842 404.471 22.0385C404.725 22.0797 405.025 22.0434 405.296 22.0253C405.602 22.0056 405.856 22.0237 406.069 22.083C406.311 22.1504 406.582 22.1356 406.859 22.1208C407.505 22.0879 407.528 22.0829 407.903 22.1735C408.174 22.2393 408.434 22.2097 408.705 22.2015C408.942 22.2459 409.172 22.2936 409.42 22.3331C409.484 22.343 409.605 22.3266 409.703 22.3216C409.986 22.3085 410.274 22.2953 410.557 22.2821C410.747 22.2739 410.949 22.2492 411.122 22.2591C411.295 22.2706 411.439 22.3183 411.595 22.3496C411.751 22.3809 411.912 22.4122 412.062 22.4451C412.293 22.4945 412.512 22.5356 412.835 22.5109C413.112 22.4895 413.401 22.483 413.689 22.4681C414.052 22.45 414.041 22.455 414.716 22.5537C415.079 22.6081 415.454 22.5422 415.823 22.5356C416.008 22.5323 416.187 22.5505 416.314 22.5982C416.366 22.6179 416.348 22.6509 416.366 22.6789C415.414 22.7233 414.456 22.7612 413.516 22.8155C413.152 22.8369 412.962 22.7776 412.766 22.7282C412.443 22.6492 412.016 22.7644 411.71 22.6624C411.526 22.6015 411.26 22.5669 410.943 22.5965C410.759 22.613 410.563 22.6113 410.372 22.6262C409.888 22.6624 409.443 22.664 409.057 22.5504C408.924 22.5109 408.734 22.4895 408.596 22.4517C408.434 22.4105 408.278 22.3875 408.088 22.3957C407.228 22.4352 406.375 22.4747 405.521 22.5175C405.446 22.5208 405.371 22.5455 405.308 22.5636C405.146 22.6097 405.198 22.6459 405.458 22.6756C405.544 22.6854 405.613 22.7068 405.694 22.7233C405.85 22.7546 405.994 22.804 406.167 22.8155C406.34 22.827 406.542 22.804 406.732 22.7957C406.923 22.7875 407.125 22.7628 407.298 22.7727C407.471 22.7842 407.615 22.8319 407.776 22.8616C407.851 22.8764 407.944 22.9011 408.019 22.8994C408.4 22.8896 408.774 22.8714 409.155 22.8566C409.392 22.9011 409.594 22.9653 409.876 22.9801C410.055 22.99 410.245 22.9719 410.43 22.9751C410.511 22.9768 410.614 23.0015 410.655 23.0229C410.678 23.0361 410.603 23.069 410.545 23.0854C410.326 23.148 410.026 23.1365 409.755 23.1562C409.461 23.1776 409.195 23.171 408.971 23.1068C408.821 23.064 408.653 23.041 408.469 23.0492C407.99 23.0706 407.517 23.0953 407.038 23.1134C406.957 23.1167 406.859 23.1019 406.784 23.0904C406.179 22.99 406.179 22.9867 405.752 23.0081C405.123 23.0394 405.123 23.0393 404.702 22.9521C404.621 22.9356 404.535 22.9044 404.465 22.906C403.796 22.9324 403.133 22.9587 402.47 22.9965C402.25 23.0081 402.1 23.0081 401.939 22.9653C401.8 22.9291 401.639 22.8879 401.466 22.878C401.287 22.8682 401.091 22.8928 400.901 22.9011C400.71 22.9093 400.508 22.9307 400.341 22.9175C400.168 22.9044 400.018 22.8583 399.868 22.8254C399.712 22.7908 399.545 22.7924 399.332 22.8056C398.674 22.8434 398.668 22.8385 398.016 22.7365C397.941 22.7249 397.843 22.7118 397.763 22.7151C397.284 22.7348 396.811 22.7595 396.332 22.7793C396.148 22.7875 395.969 22.7661 395.842 22.7184C395.79 22.6986 395.807 22.6657 395.773 22.6015C395.732 22.5867 395.778 22.613 395.79 22.6377C395.876 22.6344 395.98 22.6377 396.044 22.6245C396.205 22.5932 396.286 22.5521 396.245 22.5175C396.222 22.4994 396.113 22.4764 396.044 22.4764C395.917 22.4764 395.807 22.5126 395.773 22.6015C395.409 22.6558 395.023 22.6673 394.648 22.6937C394.428 22.7101 394.29 22.7019 394.117 22.6591C393.909 22.6064 393.696 22.5554 393.356 22.5817C392.986 22.6113 392.594 22.6163 392.213 22.6393C391.775 22.6657 391.585 22.5175 391.216 22.5208C390.835 22.5241 390.454 22.5521 390.073 22.5718C389.739 22.5883 389.739 22.5883 389.047 22.4813C388.793 22.4418 388.493 22.4994 388.245 22.4583C388.078 22.4319 387.933 22.3924 387.772 22.3644C387.703 22.3529 387.593 22.3529 387.507 22.3562C387.028 22.3759 386.543 22.3891 386.082 22.4253C385.557 22.4681 385.159 22.4221 384.784 22.3249C384.311 22.343 383.832 22.3529 383.365 22.3842C383.025 22.4072 382.828 22.3529 382.598 22.3085C382.517 22.2937 382.448 22.269 382.361 22.2624C382.275 22.2558 382.171 22.269 382.078 22.2739C381.698 22.292 381.305 22.3002 380.936 22.3299C380.481 22.3677 380.308 22.2327 379.956 22.2163C379.719 22.2969 379.592 22.4072 379.125 22.4155C378.744 22.422 378.364 22.4484 377.983 22.4665C377.793 22.4747 377.602 22.4846 377.412 22.4928C377.106 22.5077 376.962 22.5718 377.025 22.6706C377.06 22.7249 377.089 22.7793 377.118 22.8336C377.175 22.9307 377.031 23.013 376.789 23.0245C376.12 23.0558 375.456 23.0887 374.787 23.1167C374.608 23.1249 374.435 23.097 374.291 23.0525C374.141 23.0081 373.974 22.9883 373.789 22.9965C373.12 23.0278 372.457 23.0608 371.788 23.0887C371.713 23.092 371.615 23.0756 371.54 23.0624C371.378 23.0328 371.222 22.9982 371.067 22.9669C370.686 22.9817 370.311 22.9916 369.936 23.0114C369.33 23.041 369.33 23.0426 368.886 22.9521C368.805 22.9356 368.725 22.9044 368.65 22.906C368.361 22.9126 368.079 22.9291 367.79 22.9439C366.942 22.9867 366.942 22.9867 366.694 22.9373C366.469 22.8912 366.267 22.8352 365.927 22.8616C365.558 22.8912 365.166 22.9011 364.785 22.9175C364.502 22.9291 364.22 22.9422 363.937 22.9455C363.862 22.9472 363.781 22.9159 363.701 22.8994C363.47 22.8484 363.245 22.8072 362.927 22.8352C362.743 22.8517 362.547 22.855 362.356 22.8632C361.86 22.8863 361.86 22.8862 361.047 22.7875C360.966 22.7776 360.868 22.7661 360.787 22.771C360.118 22.8007 359.455 22.8336 358.786 22.8616C358.705 22.8649 358.607 22.855 358.526 22.8467C357.615 22.7513 357.615 22.7513 356.646 22.7974C356.277 22.8138 356.265 22.8204 355.879 22.7332C355.706 22.6953 355.561 22.6772 355.359 22.6887C354.598 22.7282 353.831 22.7546 353.075 22.8007C352.735 22.8204 352.539 22.771 352.308 22.7266C352.227 22.7118 352.141 22.6789 352.072 22.6805C351.31 22.7118 350.549 22.7496 349.787 22.7809C349.718 22.7842 349.631 22.7513 349.551 22.7365C349.395 22.7068 349.245 22.6624 349.072 22.6525C348.893 22.6426 348.697 22.6673 348.501 22.6756C348.022 22.697 348.022 22.6953 347.468 22.5982C347.393 22.585 347.295 22.5669 347.22 22.5702C346.459 22.6031 345.692 22.6311 344.936 22.6789C344.503 22.7052 344.209 22.6574 343.903 22.5883C343.84 22.5735 343.73 22.5669 343.65 22.5702C342.79 22.6081 341.936 22.6509 341.077 22.6887C340.898 22.6969 340.725 22.669 340.581 22.6262C340.35 22.5587 340.079 22.5669 339.791 22.5817C339.127 22.6163 339.122 22.6147 338.729 22.5356C338.648 22.5192 338.579 22.4978 338.493 22.4895C338.412 22.4813 338.308 22.4862 338.222 22.4895C337.841 22.506 337.46 22.5241 337.08 22.5422C336.699 22.5603 336.312 22.5702 335.937 22.5982C335.476 22.6328 335.257 22.5257 334.934 22.4764C334.461 22.4978 333.976 22.5109 333.509 22.5455C333.151 22.5718 332.984 22.4994 332.748 22.4616C332.667 22.4484 332.58 22.4204 332.505 22.4237C331.646 22.4599 330.786 22.4994 329.933 22.5439C329.725 22.5537 329.586 22.5406 329.413 22.5011C329.027 22.4122 329.01 22.4155 328.364 22.4484C328.081 22.4632 327.81 22.4764 327.567 22.4089C327.354 22.348 327.095 22.3331 326.789 22.3529C326.414 22.3776 326.027 22.3908 325.647 22.4072C325.266 22.4253 324.885 22.45 324.505 22.4583C324.199 22.4665 324.014 22.3891 323.772 22.3496C323.697 22.3381 323.593 22.3364 323.507 22.3397C323.126 22.3546 322.734 22.3661 322.365 22.3941C321.915 22.4286 321.667 22.3381 321.349 22.2854C321.28 22.2739 321.165 22.2805 321.078 22.2854C320.409 22.3151 319.746 22.348 319.076 22.3792C318.84 22.3348 318.598 22.292 318.361 22.2476C317.98 22.264 317.6 22.2821 317.219 22.2986C316.931 22.3118 316.636 22.3167 316.365 22.3414C316.013 22.3743 315.84 22.2969 315.604 22.2591C315.523 22.2459 315.437 22.2179 315.362 22.2212C314.883 22.2393 314.404 22.2591 313.931 22.2871C313.481 22.3151 313.302 22.1669 312.933 22.1685C312.552 22.1702 312.16 22.1916 311.791 22.2212C311.364 22.2558 311.064 22.2031 310.759 22.1323C310.695 22.1175 310.586 22.1093 310.505 22.1126C310.026 22.1323 309.553 22.157 309.074 22.1768C308.993 22.1801 308.895 22.1718 308.815 22.162C307.903 22.0648 307.903 22.0632 307.505 22.083C307.223 22.0961 306.934 22.1126 306.646 22.1208C306.565 22.1241 306.467 22.1093 306.392 22.0961C305.792 21.9957 305.792 21.9941 305.359 22.0138C304.979 22.0319 304.598 22.05 304.217 22.0681C303.981 22.0237 303.738 21.9809 303.502 21.9364C303.029 21.9578 302.544 21.9743 302.077 22.0039C301.858 22.0171 301.714 22.0122 301.546 21.971C301.339 21.9216 301.131 21.864 300.785 21.892C300.416 21.9216 300.024 21.9249 299.649 21.9496C299.199 21.9792 299.014 21.8294 298.651 21.8311C298.27 21.8327 297.878 21.8541 297.509 21.8838C297.082 21.9183 296.782 21.8657 296.476 21.7949C296.413 21.7801 296.303 21.7718 296.222 21.7751C295.172 21.8229 294.128 21.8706 293.079 21.9216C292.433 21.9529 292.433 21.9545 291.204 21.864C291.117 21.8574 291.025 21.8508 290.938 21.8541C290.558 21.869 290.165 21.8805 289.796 21.9085C289.346 21.943 289.098 21.8541 288.781 21.7998C288.712 21.7883 288.602 21.7949 288.51 21.7982C288.222 21.8097 287.939 21.8245 287.65 21.8377C287.27 21.8558 286.889 21.8739 286.508 21.892C286.272 21.8492 286.03 21.8047 285.793 21.7619C285.32 21.7833 284.836 21.7949 284.368 21.8294C284.011 21.8558 283.843 21.7866 283.607 21.7471C283.526 21.734 283.44 21.706 283.365 21.7076C282.505 21.7438 281.646 21.7817 280.792 21.8278C280.44 21.8475 280.279 21.7735 280.042 21.7356C279.961 21.7241 279.869 21.7027 279.794 21.706C279.223 21.729 278.652 21.757 278.081 21.785C277.758 21.8015 277.758 21.8015 277.054 21.6994C276.973 21.6879 276.881 21.6763 276.8 21.6796C274.989 21.7619 273.183 21.8492 271.372 21.9315C271.188 21.9397 271.02 21.915 270.876 21.8706C270.726 21.8261 270.559 21.8031 270.374 21.8113C269.613 21.8459 268.846 21.8772 268.09 21.92C267.779 21.9381 267.53 21.9167 267.317 21.8591C267.155 21.8163 267.006 21.7998 266.804 21.8097C266.423 21.8294 266.042 21.8459 265.662 21.864C265.281 21.8821 264.9 21.9002 264.519 21.9183C264.139 21.9364 263.752 21.9463 263.377 21.9743C262.916 22.0089 262.691 21.9068 262.374 21.8558C261.803 21.8805 261.231 21.9052 260.666 21.9315C259.905 21.9661 259.143 22.0039 258.382 22.0369C258.313 22.0401 258.226 22.0105 258.145 21.9957C257.909 21.9545 257.736 21.8969 257.384 21.915C255.676 22.0023 253.958 22.0764 252.244 22.162C251.887 22.1801 251.731 22.1093 251.489 22.0714C251.408 22.0599 251.316 22.0369 251.241 22.0402C250.289 22.0813 249.337 22.1274 248.385 22.1718C247.999 22.1899 247.999 22.1899 247.353 22.0879C247.278 22.0764 247.18 22.0615 247.099 22.0648C245.859 22.1208 244.624 22.1801 243.384 22.2377C243.2 22.2459 243.032 22.2229 242.882 22.1784C242.738 22.134 242.565 22.1093 242.386 22.1175C241.244 22.1702 240.096 22.2212 238.96 22.2788C238.654 22.2953 238.4 22.2805 238.181 22.2212C238.025 22.1784 237.87 22.1603 237.674 22.1702C235.96 22.2508 234.247 22.3282 232.534 22.4138C232.205 22.4303 231.974 22.399 231.767 22.3447C231.599 22.3019 231.455 22.2936 231.247 22.3002C231.028 22.3085 230.896 22.3266 230.775 22.3759C230.619 22.4401 230.521 22.5208 230.152 22.5258C229.771 22.5307 229.384 22.5505 229.009 22.5784C228.652 22.6064 228.484 22.5323 228.26 22.4879C228.092 22.4566 227.937 22.4517 227.723 22.4665C227.527 22.4797 227.406 22.5076 227.29 22.5603C227.037 22.6723 227.014 22.6723 226.702 22.6015C226.535 22.5636 226.385 22.534 226.2 22.5406C225.439 22.5735 224.677 22.6097 223.916 22.6476C223.478 22.669 223.472 22.6723 223.143 22.59C222.982 22.5488 222.826 22.529 222.635 22.5389C220.541 22.6377 218.448 22.7332 216.354 22.8369C216.031 22.8533 215.811 22.8188 215.581 22.7694C215.506 22.7529 215.431 22.7299 215.344 22.7233C215.258 22.7167 215.16 22.7233 215.067 22.7266C213.545 22.7974 212.016 22.8649 210.499 22.9439C210.153 22.962 209.968 22.9093 209.732 22.8665C209.651 22.8517 209.582 22.8286 209.495 22.8221C209.409 22.8171 209.305 22.8286 209.212 22.8336C207.69 22.9044 206.161 22.9719 204.644 23.0509C204.281 23.069 204.125 22.9998 203.888 22.9636C203.807 22.9505 203.721 22.9258 203.646 22.929C203.167 22.9472 202.694 22.9718 202.215 22.9932C201.073 23.0476 199.931 23.0986 198.789 23.1546C198.351 23.176 198.16 23.0295 197.791 23.036C197.312 23.0443 196.839 23.0772 196.36 23.1003C195.98 23.1184 195.599 23.1348 195.218 23.1546C194.843 23.1727 194.843 23.1727 193.909 23.0772C193.828 23.069 193.73 23.0575 193.649 23.0607C192.317 23.1217 190.979 23.1826 189.652 23.2484C189.346 23.2632 189.092 23.255 188.873 23.1941C188.717 23.1513 188.556 23.1299 188.366 23.1398C186.364 23.2336 184.368 23.3274 182.366 23.4196C182.291 23.4229 182.193 23.4064 182.118 23.3933C181.957 23.3636 181.801 23.3291 181.645 23.2978C181.53 23.3357 181.38 23.3702 181.305 23.413C181.201 23.4706 181.063 23.4871 180.844 23.497C180.624 23.5069 180.486 23.5036 180.313 23.4608C180.105 23.4081 179.892 23.3669 179.552 23.3834C177.458 23.4871 175.364 23.5809 173.27 23.683C172.924 23.6994 172.762 23.627 172.52 23.5891C172.439 23.5776 172.347 23.5595 172.272 23.5628C171.412 23.6007 170.559 23.6418 169.699 23.6813C167.317 23.7933 164.935 23.9003 162.558 24.0188C162.125 24.0402 161.831 23.999 161.525 23.9283C161.462 23.9134 161.352 23.9052 161.272 23.9085C157.938 24.0632 154.603 24.2196 151.275 24.376C151.096 24.3842 150.923 24.3579 150.779 24.3151C150.629 24.2707 150.462 24.2493 150.277 24.2575C148.754 24.3283 147.232 24.3991 145.709 24.4715C145.328 24.4896 145.322 24.4912 144.93 24.4122C144.849 24.3958 144.763 24.3645 144.699 24.3678C144.567 24.376 144.44 24.4172 144.347 24.4731C144.255 24.5324 144.111 24.5488 143.897 24.5604C143.678 24.5719 143.534 24.567 143.367 24.5275C143.153 24.4781 142.957 24.4303 142.611 24.4468C138.233 24.6575 133.855 24.86 129.476 25.069C129.125 25.0855 128.963 25.0164 128.721 24.9785C128.64 24.967 128.559 24.9505 128.473 24.9472C128.38 24.9439 128.282 24.9538 128.19 24.9587C121.049 25.2929 113.908 25.6287 106.767 25.9629C106.34 25.9826 106.345 25.9826 105.878 26.1341C105.82 26.1522 105.745 26.1769 105.665 26.1802C103.478 26.2855 101.287 26.3876 99.0946 26.4896C98.1428 26.5341 97.191 26.5802 96.2393 26.623C95.8989 26.6378 95.8989 26.6378 95.0856 26.8156C95.0164 26.8304 94.9355 26.8502 94.8548 26.8534C91.0477 27.0329 87.2405 27.2123 83.4276 27.3884C83.1277 27.4016 82.8855 27.4312 82.747 27.5102C82.6489 27.5662 82.5221 27.5991 82.3317 27.609C79.6667 27.7341 77.0018 27.8609 74.3311 27.9827C74.0138 27.9975 73.8234 28.0436 73.6676 28.1127C73.6157 28.1358 73.5695 28.1621 73.4945 28.1786C73.4253 28.1934 73.3215 28.1983 73.235 28.2033C70.9507 28.3103 68.6665 28.4206 66.3765 28.5226C66.0362 28.5374 65.8976 28.5983 65.7304 28.6625C65.6727 28.6839 65.6323 28.7136 65.5573 28.7284C65.4823 28.7416 65.3727 28.7416 65.2804 28.7448C63.3769 28.8337 61.4734 28.9243 59.5698 29.0132C59.2006 29.0049 59.1198 29.1004 58.941 29.158C58.8775 29.1778 58.8315 29.2041 58.7565 29.2173C58.6758 29.2305 58.5718 29.2288 58.4737 29.2321C56.9509 29.3029 55.4281 29.3786 53.8995 29.4445C53.5476 29.4593 53.4783 29.5432 53.288 29.6008C53.2245 29.6189 53.1612 29.6469 53.0862 29.6519C52.1344 29.6996 51.1826 29.744 50.2309 29.7868C49.9136 29.8017 49.9136 29.8 49.3541 29.963C49.2906 29.9811 49.2156 30.0009 49.1348 30.0058C47.71 30.0749 46.2795 30.1408 44.849 30.2083C44.6644 30.2165 44.5375 30.256 44.4452 30.312C44.3529 30.3679 44.2203 30.4042 44.0357 30.4124C42.8935 30.4667 41.7513 30.5227 40.6092 30.5721C40.2919 30.5852 40.0843 30.6264 39.9459 30.7005C39.842 30.7564 39.7151 30.7844 39.5132 30.7943C38.3711 30.847 37.229 30.9046 36.0811 30.9507C35.7465 30.9638 35.5734 31.0198 35.435 31.0889C35.3254 31.1449 35.1984 31.1647 34.985 31.1745C32.8911 31.27 30.7915 31.3655 28.7033 31.4708C28.3515 31.4889 28.1726 31.4313 27.9419 31.3902C27.6131 31.3326 27.3074 31.27 27.3074 31.1416C27.3074 31.1219 27.2094 31.0988 27.1401 31.0823C26.6267 30.9589 26.6267 30.9589 26.546 30.8272C26.4998 30.7465 26.4479 30.6642 26.4075 30.5819C26.3326 30.447 26.1479 30.4124 25.6172 30.4371C25.4269 30.4453 25.2365 30.4568 25.0461 30.4634C24.7635 30.4749 24.5501 30.4206 24.4982 30.3218C24.4693 30.2675 24.4348 30.2132 24.4059 30.1589C24.6944 30.1457 24.6885 30.1441 25.1961 29.9449C25.4096 29.8609 25.4096 29.8609 25.0001 29.777C24.8444 29.7457 24.6943 29.7111 24.5271 29.6815C24.4521 29.6683 24.354 29.6601 24.2733 29.6634C23.7945 29.6831 23.3215 29.7062 22.8485 29.7292C22.0871 29.7654 22.087 29.7654 21.314 29.5975C21.2506 29.5844 21.1525 29.5597 21.1641 29.5465C21.2275 29.4856 21.3832 29.4593 21.5794 29.4527C21.8678 29.4428 22.1504 29.4263 22.4331 29.4132C22.6234 29.4049 22.8138 29.3951 23.0041 29.3868C23.1829 29.3243 23.3676 29.2634 23.5349 29.1992C23.8003 29.1004 23.8002 29.0971 23.4368 29.028C23.206 28.9819 22.958 28.9407 22.7215 28.8979C22.4388 28.9111 22.1504 28.9259 21.8678 28.9374C21.5101 28.9522 21.3659 28.921 21.2736 28.814C21.1929 28.7201 21.2909 28.6395 21.5678 28.6197C21.8505 28.6 22.1159 28.5868 22.2601 28.5029C22.3986 28.4222 22.6408 28.3909 22.9408 28.3843C23.1311 28.3794 23.3215 28.3679 23.5118 28.358C23.7599 28.3448 23.8926 28.2609 23.8407 28.1671C23.8118 28.1061 23.7541 28.0551 23.5291 28.0419C22.5312 27.9843 22.5196 27.986 22.0235 27.874C21.9774 27.8642 21.9429 27.8345 21.9602 27.8197C21.989 27.795 22.0525 27.7588 22.1217 27.7539C22.7851 27.7177 23.4484 27.6847 24.1117 27.6601C24.3309 27.6518 24.4925 27.6403 24.5675 27.5794C24.6713 27.4954 24.6252 27.4181 24.4233 27.3604C24.3598 27.3423 24.2559 27.3193 24.1867 27.3209C23.4252 27.3506 22.6696 27.3884 21.9082 27.4181C21.839 27.4213 21.7121 27.3934 21.6833 27.372C21.6256 27.3325 21.7121 27.2798 21.914 27.2617C22.1793 27.237 22.4504 27.2353 22.6292 27.153C22.8773 27.0362 23.183 26.9292 23.4599 26.8172C23.506 26.7975 23.5811 26.7596 23.5638 26.7563C23.4196 26.7201 23.2523 26.6921 23.1023 26.6575C22.8485 26.5999 22.8484 26.5193 22.9061 26.4419C22.9523 26.3794 23.1253 26.3547 23.3387 26.3547C23.431 26.3547 23.5464 26.3547 23.6214 26.3398C23.8175 26.3036 23.881 26.2575 23.7829 26.223C23.7252 26.2032 23.6215 26.1752 23.5522 26.1785C22.3178 26.2329 21.0775 26.2855 19.8489 26.353C19.4854 26.3728 19.3183 26.3102 19.0991 26.2658C18.9318 26.2312 18.776 26.218 18.5683 26.2427C18.3722 26.2658 18.1819 26.2526 18.0607 26.1983C17.9627 26.1538 18.1357 26.116 18.6029 26.0732C18.6895 26.0649 18.7875 26.06 18.8509 26.0435C19.5201 25.8658 19.52 25.8641 19.9815 25.8411C20.4314 25.8197 20.4316 25.818 20.6681 25.7225C20.7777 25.6781 20.8987 25.6336 21.0025 25.5876C21.0429 25.5694 21.1122 25.5365 21.0891 25.5266C20.9622 25.4756 20.7891 25.4641 20.5872 25.4756C20.1373 25.5036 19.6067 25.4806 19.3702 25.6369C19.2779 25.6962 19.1337 25.7127 18.926 25.7225C16.8379 25.818 14.7496 25.9201 12.6557 26.0123C12.3154 26.0271 12.1597 26.088 12.0271 26.1555C11.9117 26.2115 11.7848 26.2279 11.5656 26.2378C11.3464 26.2477 11.1732 26.2526 11.0463 26.1983C10.9714 26.1654 11.0348 26.1193 11.2079 26.0732C11.4559 26.0073 11.4097 25.925 11.329 25.8477C11.2713 25.7966 11.0925 25.7604 10.9021 25.7637C10.6195 25.7703 10.3484 25.7884 10.1119 25.7225C9.9735 25.6847 9.80042 25.6583 9.64467 25.6254C9.34472 25.5579 9.04475 25.4888 8.62366 25.5332C8.33524 25.5168 8.13335 25.4575 7.90262 25.4114C7.51614 25.3357 7.48153 25.3242 7.75841 25.2435C8.0699 25.153 7.82758 25.0345 8.00063 24.9456C8.18522 24.8501 8.43911 24.7662 8.66408 24.6773C8.72176 24.6542 8.7737 24.6328 8.83138 24.6098C8.69871 24.5768 8.5776 24.5357 8.42185 24.5126C8.21996 24.483 8.11613 24.4468 8.12766 24.3447C8.08728 24.3299 8.10447 24.3678 8.15062 24.3777C8.20253 24.3875 8.32953 24.3793 8.39298 24.3678C8.5545 24.3365 8.63517 24.2954 8.59479 24.2608C8.57172 24.2427 8.4622 24.2196 8.39298 24.2196C8.26608 24.2196 8.1565 24.2558 8.12189 24.3447C7.47583 24.4122 6.8066 24.4452 6.13747 24.4715C6.06825 24.4748 5.98177 24.4419 5.90101 24.4254C5.63567 24.3694 5.63564 24.3711 4.85691 24.3546C4.77615 24.353 4.66661 24.3299 4.62623 24.3069C4.45895 24.2065 4.46476 24.0962 4.38401 23.9892C4.53398 23.92 4.68384 23.8525 4.83959 23.785C5.15108 23.6484 5.55495 23.5283 5.79722 23.3785C5.74531 23.2978 5.67608 23.2171 5.92988 23.1513C6.65093 23.069 6.64521 23.069 6.84133 22.99C7.40086 22.7661 7.95459 22.5406 8.53719 22.32C8.69294 22.2624 8.69296 22.2311 8.41608 22.2064C8.32955 22.1998 8.23714 22.1982 8.14484 22.2015C7.85642 22.213 7.56801 22.2426 7.28536 22.236C7.00271 22.2311 6.79505 22.1587 6.56432 22.1142C6.32782 22.0681 6.09133 22.0204 5.85482 21.9727C5.58371 21.9776 5.31265 22.0237 5.04154 21.9496C4.83388 21.892 4.57432 21.8508 4.33781 21.8031C4.51663 21.678 4.85125 21.5825 5.11082 21.4722C5.34733 21.3718 5.35296 21.3735 5.98748 21.2961C6.28744 21.2599 6.39127 21.0739 6.13747 21.0195C5.83174 20.9537 5.50878 20.8928 5.19729 20.8302C4.92618 20.8352 4.64936 20.8796 4.38978 20.8056C4.18789 20.7496 3.95711 20.7117 3.62254 20.7331C3.05724 20.7693 2.48043 20.7874 1.90936 20.8171C1.71323 20.8269 1.49974 20.8204 1.41322 20.7644C1.35554 20.7249 1.52283 20.6706 1.71318 20.659C2.0016 20.6426 2.26115 20.6228 2.40536 20.5405C2.5438 20.4582 2.79758 20.4335 3.09753 20.422C3.17829 20.4187 3.27065 20.3989 3.31103 20.3792C3.51869 20.2837 3.74944 20.2014 4.1936 20.2047C4.37819 20.1718 4.47619 20.1306 4.41851 20.0911C4.3839 20.0697 4.26283 20.0417 4.1936 20.045C3.71483 20.0615 3.23607 20.078 2.76884 20.1076C2.54964 20.1208 2.38227 20.124 2.24383 20.0747C2.14577 20.0417 2.19768 19.9973 2.38226 19.9496C2.54378 19.9084 2.58997 19.8607 2.57844 19.8047C2.5496 19.6746 2.37651 19.6368 1.82275 19.645C1.42473 19.6516 1.32667 19.6302 1.24014 19.5183C1.21707 19.4919 1.15948 19.4557 1.19986 19.4376C1.4479 19.3257 1.60943 19.1874 2.07666 19.1347C2.26125 19.115 2.4573 19.115 2.57266 19.0722C2.68803 19.0294 2.79191 18.98 2.91305 18.9388C3.06302 18.8894 3.16675 18.8434 3.09753 18.8121C2.98217 18.7561 2.79764 18.7512 2.58421 18.7709C2.39962 18.7874 2.20351 18.789 2.01315 18.7989C1.67282 18.817 1.396 18.7742 1.35562 18.7018C1.24602 18.5108 1.13062 18.3215 1.03256 18.1306C1.02102 18.1075 1.04978 18.0779 1.09593 18.0581C1.25744 17.989 1.43056 17.9232 1.59785 17.8557C1.79397 17.7783 2.10551 17.7931 2.37086 17.7783C2.7458 17.7569 2.74567 17.7585 3.24752 17.6005C3.44364 17.538 3.78399 17.5627 3.98588 17.5067C4.04933 17.4886 4.1474 17.459 4.13009 17.4425C4.10702 17.4211 3.99171 17.4046 3.90519 17.3947C3.82443 17.3849 3.72639 17.3799 3.63987 17.3849C2.59002 17.4326 1.54598 17.4837 0.49614 17.5297C0.317321 17.538 0.121192 17.5018 0.0577399 17.4507C-0.00571202 17.403 0.0115367 17.3454 0 17.291C0.167282 17.2236 0.357565 17.161 0.501774 17.0886C0.611372 17.0326 0.738299 17.0079 0.957496 17.0046C1.24591 16.9997 1.52859 16.9799 1.85162 16.9651C2.45153 16.7248 3.03986 16.4729 3.68592 16.2326C3.94549 16.1355 3.88214 16.0367 3.93406 15.933C3.98597 15.8375 4.37243 15.8523 4.63201 15.8244C4.83967 15.8013 4.9088 15.7486 4.82804 15.7124C4.78189 15.691 4.67812 15.6663 4.59736 15.6663C4.40701 15.6663 4.21666 15.6811 4.0263 15.6894C3.83594 15.6976 3.61676 15.6927 3.46101 15.7206C3.31104 15.747 3.21292 15.8029 3.11485 15.8507C3.00526 15.9034 2.86115 15.9215 2.64195 15.9248C2.3593 15.9281 2.07667 15.9429 1.79402 15.9544C1.48253 15.8902 1.15943 15.8276 0.859479 15.7601C0.801796 15.747 0.790197 15.7091 0.795965 15.6844C0.807502 15.6202 0.720999 15.5807 0.530644 15.5494C0.36913 15.5231 0.236446 15.4852 0.086469 15.4523C0.201836 15.4079 0.328785 15.3651 0.421079 15.3173C0.622971 15.2169 0.876807 15.1445 1.3152 15.1478C1.48825 15.0836 1.62665 15.0046 1.85162 14.9601C2.06505 14.9173 2.42847 14.9601 2.58999 14.863C2.67074 14.8153 2.79195 14.7609 2.94769 14.7412C3.19573 14.7099 3.51875 14.7264 3.66296 14.6342C3.74949 14.5815 3.87634 14.5338 4.04362 14.5206C4.23398 14.5058 4.43005 14.5025 4.56849 14.4712C4.64348 14.4548 4.72425 14.4284 4.72425 14.4054C4.72425 14.3906 4.60897 14.3675 4.52821 14.3576C4.45323 14.3461 4.35505 14.3379 4.26853 14.3412C3.98011 14.3511 3.69746 14.3692 3.40905 14.379C3.32829 14.3823 3.23602 14.3708 3.1495 14.3609C2.89569 14.3346 2.91296 14.3017 3.11485 14.2424C3.31675 14.1848 3.46104 14.1107 3.62832 14.0432C3.8129 14.0317 4.0436 14.0366 4.17051 14.0054C4.38394 13.9543 4.53388 13.8803 4.70693 13.8161C4.89728 13.8062 5.09339 13.8029 5.27221 13.7848C5.3472 13.7782 5.38184 13.742 5.44529 13.7206C5.56066 13.6794 5.6588 13.6202 5.81455 13.6004C6.06835 13.5708 6.37984 13.5823 6.52982 13.4918C6.61634 13.4391 6.74896 13.3831 6.91048 13.3798C7.36041 13.3733 7.55077 13.2827 7.7815 13.1971C7.95455 13.1329 8.32374 13.1658 8.5141 13.1016C8.641 13.0605 8.73335 13.0094 8.86025 12.9699C8.91217 12.9535 9.02173 12.9453 9.10825 12.9403C9.58126 12.9156 10.06 12.8975 10.533 12.8712C10.608 12.8662 10.6773 12.8416 10.735 12.8218C10.8561 12.779 10.931 12.7197 11.081 12.6918C11.231 12.6638 11.4444 12.6638 11.629 12.6555C12.2231 12.6309 12.2693 12.6374 12.5404 12.4975C12.7596 12.3839 13.2961 12.4646 13.4749 12.3395C13.5788 12.2671 13.769 12.2078 14.1094 12.1996C14.5881 12.188 15.0611 12.1568 15.5399 12.1354C15.9668 12.1156 15.961 12.1156 16.4225 11.9625C16.6301 11.8934 16.9359 11.9033 17.207 11.8901C17.4955 11.8769 17.7608 11.8572 17.8992 11.7749C18.0377 11.6942 18.2914 11.6679 18.5856 11.6563C18.8567 11.6448 19.1625 11.6531 19.376 11.5872C19.8951 11.4292 19.8893 11.4275 20.2528 11.4111C20.8238 11.3847 21.3949 11.3584 21.9659 11.3304C22.3466 11.3123 22.7446 11.309 23.1023 11.2728C23.3619 11.2465 23.4772 11.1543 23.6445 11.0901C24.1175 11.0654 24.5905 11.0407 25.0635 11.0176C25.7268 10.9847 26.3959 10.9551 27.0651 10.9238C27.3535 10.8613 27.394 10.723 27.8785 10.7164C28.1669 10.7131 28.4496 10.6917 28.738 10.6785C29.2168 10.6555 29.6897 10.6259 30.1685 10.6143C30.5319 10.6061 30.5953 10.5172 30.7856 10.4612C30.8491 10.4415 30.9068 10.4135 30.9818 10.4086C31.7317 10.3625 32.5046 10.3526 33.2372 10.2851C33.3122 10.2785 33.3814 10.244 33.3987 10.2193C33.4102 10.2061 33.3122 10.1814 33.2487 10.1699C33.1737 10.1567 33.0757 10.1435 32.995 10.1468C30.6126 10.2571 28.2304 10.3691 25.848 10.4794C25.5135 10.4958 25.5135 10.4942 24.7001 10.6752C24.6309 10.6901 24.5501 10.7065 24.4635 10.7115C24.0828 10.7312 23.6964 10.7427 23.3214 10.7674C23.0157 10.7872 22.762 10.7674 22.5428 10.7082C22.387 10.6654 22.2254 10.6522 22.0293 10.6555C21.8101 10.6604 21.666 10.6785 21.5391 10.723C21.3718 10.7839 21.2852 10.8629 20.9334 10.8794C19.3125 10.9501 17.6915 11.0292 16.0763 11.1049C15.8514 11.0818 15.7418 11.0473 15.7995 11.0061C15.8341 10.9814 15.9033 10.9485 15.9725 10.9452C16.6359 10.9106 17.305 10.881 17.9684 10.8481C18.0607 10.8432 18.1875 10.8464 18.2395 10.83C18.4933 10.7559 18.5857 10.6357 19.0644 10.6275C19.3413 10.6226 19.6239 10.5979 19.8893 10.5748C19.9643 10.5682 20.0335 10.5337 20.0508 10.509C20.0566 10.4958 19.9643 10.4711 19.895 10.4596C19.6412 10.4119 19.3471 10.4695 19.0933 10.4366C19.0068 10.425 18.8856 10.4086 18.8683 10.3888C18.8567 10.3707 18.9548 10.3411 19.024 10.323C19.0875 10.3065 19.1739 10.2917 19.2605 10.2868C20.0219 10.2489 20.7834 10.2094 21.5449 10.1798C21.8563 10.1682 22.0755 10.1271 22.2139 10.0514C22.3178 9.99538 22.4447 9.96576 22.6408 9.95753C23.9733 9.89663 25.3057 9.82913 26.644 9.77317C26.9786 9.76 27.1517 9.70568 27.2901 9.6349C27.3997 9.57893 27.5266 9.55917 27.7401 9.54929C29.6494 9.4637 31.5471 9.36822 33.4565 9.28592C33.8083 9.2711 33.9122 9.20032 34.091 9.13941C34.1545 9.11801 34.1948 9.09167 34.2755 9.0785C34.3563 9.06533 34.4601 9.06697 34.5582 9.06367C36.081 8.99289 37.604 8.91718 39.1326 8.85134C39.4902 8.83652 39.5593 8.7542 39.7439 8.69659C39.8074 8.67848 39.8651 8.64886 39.9401 8.64392C41.0822 8.58795 42.2243 8.53528 43.3664 8.48096C44.1279 8.44474 44.8893 8.40852 45.6507 8.37395C46.0256 8.35749 46.0257 8.35584 46.5333 8.19945C46.591 8.18135 46.6718 8.15994 46.7468 8.155C48.9387 8.04965 51.1249 7.94926 53.3169 7.84555C53.5014 7.83732 53.6341 7.79944 53.7264 7.74347C53.8187 7.6875 53.9515 7.64964 54.1303 7.64141C55.8435 7.55911 57.5566 7.47845 59.2756 7.40108C59.5871 7.38791 59.8062 7.3484 59.9447 7.27433C60.0485 7.21836 60.1754 7.18874 60.3715 7.18051C62.0847 7.10149 63.798 7.01753 65.517 6.94181C65.8458 6.92699 66.0072 6.87103 66.1688 6.80518C66.2264 6.78214 66.2726 6.74427 66.3418 6.74098C67.1956 6.69489 68.0435 6.64715 68.903 6.61587C69.2606 6.60271 69.3818 6.53356 69.526 6.46772C69.6414 6.41504 69.7741 6.39694 69.9933 6.39036C70.472 6.37554 70.945 6.34757 71.4122 6.31958C71.4815 6.31464 71.568 6.27843 71.5738 6.25538C71.5853 6.21258 71.4526 6.18295 71.2334 6.16813C68.9491 6.27513 66.6592 6.38212 64.3749 6.48912C63.9999 6.50723 63.9999 6.50724 63.4923 6.66362C63.4346 6.68173 63.3538 6.70313 63.273 6.70807C61.0811 6.81177 58.8949 6.91384 56.7029 7.01754C56.5184 7.02577 56.3857 7.06363 56.2934 7.1196C56.2011 7.17557 56.0683 7.21343 55.8895 7.22166C53.7956 7.32043 51.7018 7.42085 49.6021 7.51468C49.2906 7.52785 49.0714 7.56569 48.933 7.64141C48.8292 7.69738 48.7023 7.72702 48.5061 7.73525C46.5045 7.82744 44.5086 7.92455 42.5012 8.01344C42.2993 8.02167 42.1494 7.97393 42.1609 7.92949C42.1667 7.90644 42.2531 7.8686 42.3223 7.8653C43.3664 7.81098 44.4048 7.75501 45.4547 7.71385C45.8065 7.70068 45.9103 7.62825 46.0891 7.56734C46.1468 7.54594 46.193 7.51796 46.2679 7.50644C46.3487 7.49327 46.4525 7.49492 46.5506 7.49163C49.0252 7.37475 51.4999 7.25624 53.9803 7.14594C54.3379 7.12948 54.4071 7.04881 54.5916 6.9912C54.6551 6.97144 54.7128 6.94182 54.7878 6.93853C55.5492 6.89902 56.3106 6.86445 57.0721 6.82988C58.4045 6.76733 59.737 6.70477 61.0753 6.64222C61.4617 6.62411 61.4618 6.6241 61.9578 6.46937C62.0155 6.45126 62.0963 6.42823 62.1713 6.42494C65.6958 6.25868 69.2203 6.09242 72.7448 5.9278C72.9294 5.91957 73.062 5.88171 73.1543 5.82574C73.2466 5.77142 73.3792 5.73191 73.5581 5.72204C78.3227 5.49816 83.0816 5.27428 87.8463 5.0537C88.1578 5.03888 88.3769 5.00431 88.5154 4.92694C88.6134 4.87097 88.7461 4.84135 88.9422 4.83147C94.1799 4.5862 99.4175 4.34093 104.661 4.09401C108.185 3.92939 111.71 3.76149 115.234 3.60017C115.557 3.58535 115.73 3.53431 115.892 3.46682C115.944 3.44378 115.996 3.40591 116.065 3.40262C116.821 3.36147 117.576 3.32361 118.332 3.28575C118.568 3.3302 118.805 3.373 119.041 3.41745C119.22 3.3549 119.393 3.29069 119.572 3.22814C120.714 3.1804 121.839 3.10633 122.993 3.08328C123.068 3.08163 123.149 3.11292 123.229 3.12938C123.766 3.23308 124.071 3.22485 124.412 3.08658C124.533 3.03719 124.637 2.99275 124.821 2.98452C125.392 2.95489 125.969 2.93513 126.535 2.90056C126.84 2.88245 127.094 2.89891 127.313 2.95817C127.469 3.00097 127.631 3.01909 127.821 3.00921C128.871 2.95983 129.915 2.91208 130.965 2.85941C131.04 2.85612 131.109 2.82812 131.167 2.80837C131.288 2.76557 131.392 2.71949 131.507 2.67504C131.663 2.70303 131.836 2.72443 131.963 2.76064C132.124 2.80344 132.274 2.80343 132.493 2.79191C136.681 2.59273 140.875 2.39849 145.063 2.19766C145.42 2.1812 145.576 2.25034 145.818 2.28656C145.899 2.29973 145.98 2.31618 146.066 2.31947C146.159 2.32276 146.257 2.3129 146.349 2.30796C149.493 2.15981 152.636 2.01329 155.78 1.86514C156.196 1.84538 156.196 1.84538 156.813 1.94744C156.888 1.96061 156.986 1.97543 157.067 1.97049C158.497 1.90629 159.928 1.83716 161.352 1.77132C161.537 1.76309 161.693 1.78942 161.86 1.82728C162.189 1.90136 162.212 1.90136 162.454 1.79272C162.569 1.74169 162.691 1.7104 162.881 1.69558C163.089 1.67912 163.256 1.68408 163.417 1.71371C163.648 1.75486 163.816 1.82399 164.167 1.80588C165.69 1.72851 167.219 1.66432 168.736 1.5853C169.082 1.5672 169.267 1.62316 169.497 1.66431C169.578 1.67913 169.653 1.70218 169.74 1.70712C169.826 1.71205 169.93 1.70052 170.022 1.69558C171.926 1.60669 173.835 1.51946 175.733 1.42399C176.09 1.40588 176.246 1.47665 176.489 1.51286C176.569 1.52603 176.662 1.54909 176.737 1.5458C177.879 1.49477 179.027 1.44043 180.169 1.38611C180.578 1.36635 180.578 1.368 181.201 1.46841C181.276 1.48158 181.374 1.49475 181.455 1.49146C182.788 1.43055 184.126 1.368 185.458 1.30545C185.868 1.28569 185.868 1.2857 187.05 1.3713C187.137 1.37788 187.229 1.38777 187.316 1.38448C188.839 1.3137 190.367 1.24455 191.89 1.16883C192.196 1.15401 192.45 1.16718 192.669 1.22644C192.825 1.26924 192.986 1.28735 193.176 1.27748C194.89 1.19682 196.609 1.11945 198.316 1.03385C198.645 1.01739 198.858 1.05359 199.089 1.10133C199.164 1.11779 199.239 1.14084 199.326 1.14743C199.412 1.15401 199.51 1.14742 199.602 1.14248C201.316 1.06182 203.034 0.986103 204.742 0.898858C205.088 0.880751 205.273 0.936716 205.503 0.977869C205.584 0.992684 205.671 1.02232 205.74 1.02067C206.409 0.992686 207.078 0.968003 207.741 0.92685C208.099 0.903804 208.255 0.979512 208.497 1.01573C208.578 1.02725 208.67 1.05195 208.745 1.04866C210.176 0.984463 211.606 0.916976 213.031 0.847838C213.233 0.837962 213.383 0.852763 213.544 0.895563C213.758 0.953177 214.006 0.976224 214.317 0.958116C214.981 0.920255 215.65 0.893925 216.319 0.862648C216.711 0.844541 216.711 0.844546 217.911 0.930145C217.998 0.93673 218.09 0.946599 218.176 0.943307C219.319 0.890631 220.466 0.839604 221.603 0.781989C221.909 0.765528 222.162 0.780339 222.382 0.8396C222.537 0.882399 222.693 0.900516 222.889 0.89064C223.939 0.841256 224.983 0.791867 226.033 0.742484C226.414 0.724376 226.794 0.693092 227.175 0.693092C227.452 0.694738 227.654 0.773749 227.902 0.813256C227.971 0.824779 228.087 0.811625 228.179 0.808333C229.511 0.74578 230.85 0.68816 232.176 0.617376C232.522 0.599268 232.707 0.655234 232.938 0.696387C233.018 0.711202 233.105 0.740834 233.174 0.739188C233.653 0.721081 234.126 0.696386 234.605 0.674986C235.176 0.648648 235.753 0.628895 236.318 0.59268C236.779 0.563049 236.952 0.706258 237.322 0.711197C237.604 0.716135 237.893 0.688156 238.175 0.674986C238.746 0.648648 239.317 0.619021 239.888 0.595975C240.09 0.587745 240.246 0.561395 240.31 0.502134C240.321 0.490611 240.223 0.46593 240.16 0.451115C239.393 0.283209 239.392 0.283201 238.619 0.319416C238.141 0.342462 237.668 0.365512 237.189 0.385265C237.108 0.388558 237.016 0.375389 236.935 0.365513C236.704 0.337528 236.727 0.304609 236.924 0.245348C237.12 0.186087 237.27 0.113664 237.437 0.0461725C237.673 0.0889719 237.904 0.131756 238.141 0.174556C238.331 0.166325 238.521 0.156463 238.712 0.148232C239.664 0.105432 240.615 0.0609837 241.567 0.0214765C241.636 0.0181842 241.723 0.0511117 241.804 0.067573C242.034 0.115311 242.242 0.156453 242.577 0.138345C243.43 0.0906076 244.29 0.0560388 245.143 0.0148855C245.518 -0.00322194 245.518 -0.00322033 246.176 0.0988399C246.251 0.110363 246.349 0.123533 246.43 0.12024C247.289 0.0823794 248.143 0.0412309 249.002 0.00172369C249.187 -0.00650698 249.366 0.0148919 249.499 0.0626298C249.551 0.0823834 249.539 0.1153 249.758 0.385265C250.439 0.604201 250.906 0.581167 251.379 0.561413C251.581 0.553182 251.76 0.544944 251.892 0.512021C251.962 0.493913 252.048 0.467571 252.048 0.446172C252.048 0.42971 251.921 0.403367 251.841 0.400075C251.27 0.367152 250.727 0.4363 250.168 0.451115C249.908 0.457699 249.683 0.400084 249.637 0.306254C249.626 0.279916 249.608 0.251933 249.591 0.225595C249.574 0.199257 249.562 0.171275 249.545 0.144936C249.32 0.136706 249.187 0.166331 249.089 0.2223C249.008 0.268392 248.893 0.321068 248.737 0.34576C248.581 0.372098 248.368 0.367168 248.178 0.375399C247.993 0.38363 247.791 0.405027 247.618 0.393504C247.445 0.380335 247.307 0.332589 247.145 0.302959C247.07 0.288144 246.978 0.266752 246.903 0.270044C246.24 0.298028 245.582 0.326002 244.924 0.362217C244.578 0.381971 244.405 0.312844 244.186 0.270044C244.013 0.237121 243.84 0.245342 243.811 0.321064C243.736 0.502138 244.001 0.577857 244.59 0.543288C245.074 0.513657 245.513 0.508734 245.893 0.620671C245.945 0.635486 246.066 0.642069 246.141 0.638776C246.614 0.619023 247.082 0.594328 247.555 0.574575C247.641 0.571282 247.734 0.577857 247.814 0.584441C248.991 0.673332 248.991 0.674987 249.389 0.655234C249.579 0.645357 249.764 0.637125 249.747 0.386913C250.11 0.118593 250.687 0.100489 251.246 0.0609821C251.61 0.0362901 251.766 0.108723 252.002 0.146584C252.083 0.159753 252.169 0.186087 252.244 0.182794C253.485 0.128472 254.719 0.0708492 255.953 0.0099423C256.161 6.54993e-05 256.311 0.00994391 256.472 0.0527434C256.68 0.107066 256.911 0.141642 257.24 0.121888C257.897 0.082381 258.566 0.0576946 259.236 0.024772C259.576 0.00831063 259.576 0.00829376 260.262 0.110354C260.337 0.121877 260.435 0.135047 260.516 0.131755C261.185 0.10377 261.849 0.0692119 262.512 0.0395815C262.697 0.0313509 262.864 0.0543943 263.008 0.0988399C263.152 0.143285 263.325 0.166329 263.504 0.158098C264.173 0.128468 264.837 0.0955557 265.5 0.0659253C265.581 0.062633 265.679 0.0741552 265.754 0.0856781C266.458 0.187738 266.458 0.187721 266.781 0.17126C267.254 0.146568 267.738 0.135058 268.205 0.102135C268.661 0.0692127 268.898 0.16468 269.209 0.217357C270.063 0.179496 270.922 0.148227 271.77 0.102135C272.116 0.0823818 272.301 0.136699 272.532 0.179499C272.612 0.194314 272.693 0.225594 272.768 0.223948C273.056 0.217363 273.339 0.199259 273.622 0.18609C273.905 0.172921 274.193 0.159753 274.476 0.146584C274.799 0.194322 275.012 0.306257 275.474 0.268396C275.75 0.245351 276.045 0.240412 276.327 0.227243C276.61 0.214074 276.898 0.200907 277.181 0.187738C277.371 0.179507 277.567 0.174561 277.752 0.159746C278.092 0.135054 278.26 0.215724 278.502 0.251939C278.583 0.263462 278.675 0.283203 278.75 0.279911C279.321 0.256865 279.898 0.237113 280.457 0.199252C280.89 0.169621 281.184 0.219012 281.49 0.288149C281.553 0.302964 281.663 0.311194 281.744 0.307902C282.413 0.279918 283.076 0.245339 283.74 0.215709C283.918 0.207478 284.091 0.233816 284.236 0.276615C284.386 0.321061 284.553 0.342476 284.737 0.334246C285.401 0.304615 286.07 0.271683 286.733 0.242053C286.814 0.23876 286.912 0.251932 286.987 0.265101C287.633 0.367161 287.633 0.368809 288.014 0.349055C288.106 0.344117 288.204 0.340812 288.297 0.335873C288.77 0.312828 289.26 0.304608 289.721 0.265101C290.252 0.220655 290.639 0.276626 291.013 0.370456C291.486 0.350702 291.971 0.339177 292.432 0.306254C292.779 0.281562 292.963 0.344112 293.194 0.385265C293.275 0.400081 293.361 0.429711 293.43 0.426419C294.099 0.398434 294.769 0.373751 295.426 0.332598C295.784 0.309552 295.94 0.383614 296.182 0.421476C296.263 0.434645 296.349 0.457702 296.424 0.45441C296.805 0.441241 297.186 0.421478 297.566 0.40337C298.011 0.381971 298.01 0.383615 298.599 0.484029C298.876 0.531767 299.153 0.493905 299.424 0.482382C299.712 0.469213 299.983 0.459339 300.214 0.52683C300.358 0.56963 300.531 0.595969 300.71 0.589384C301.091 0.574569 301.477 0.559761 301.852 0.535069C302.152 0.515316 302.412 0.528477 302.631 0.589384C302.787 0.632184 302.948 0.653596 303.139 0.64372C303.992 0.604212 304.852 0.563044 305.705 0.525183C305.78 0.52189 305.884 0.536711 305.953 0.551526C306.115 0.581157 306.271 0.614072 306.426 0.646995C306.801 0.63218 307.188 0.625612 307.557 0.602566C307.949 0.57952 308.307 0.571287 308.613 0.661825C308.676 0.681578 308.768 0.709547 308.843 0.707901C309.132 0.701317 309.414 0.68486 309.697 0.671691C309.98 0.658522 310.268 0.645354 310.551 0.632185C310.88 0.673339 311.087 0.791859 311.549 0.753998C311.826 0.730952 312.12 0.726013 312.403 0.712844C312.685 0.699675 312.974 0.684862 313.256 0.673339C313.349 0.670046 313.452 0.661811 313.533 0.668396C313.62 0.67498 313.695 0.698031 313.77 0.714492C314 0.76223 314.214 0.809973 314.543 0.781989C314.819 0.758943 315.114 0.754003 315.396 0.739188C315.783 0.721081 315.783 0.721084 316.423 0.82479C316.683 0.86759 316.977 0.811624 317.225 0.847838C317.392 0.87253 317.536 0.913675 317.698 0.941659C317.767 0.953182 317.877 0.958113 317.957 0.954821C318.338 0.940006 318.725 0.925198 319.1 0.900506C319.405 0.880752 319.659 0.900503 319.873 0.959764C320.028 1.00256 320.184 1.02068 320.38 1.0108C321.332 0.964712 322.284 0.925192 323.23 0.874162C323.553 0.856055 323.812 0.884046 323.991 0.943307C324.297 1.04537 324.729 0.925202 325.047 1.00751C325.243 1.05854 325.439 1.1178 325.797 1.09311C326.454 1.05031 327.123 1.02725 327.787 0.997622C328.023 1.04207 328.26 1.08652 328.502 1.13097C328.883 1.11286 329.263 1.09474 329.644 1.07828C329.927 1.06511 330.215 1.0503 330.498 1.03878C330.59 1.03548 330.688 1.0289 330.775 1.03713C330.861 1.04536 330.931 1.06676 331.011 1.08322C331.409 1.16388 331.409 1.16554 332.067 1.13262C332.349 1.1178 332.621 1.10792 332.857 1.17377C333.076 1.23468 333.336 1.24619 333.636 1.22808C334.201 1.19516 334.772 1.17047 335.349 1.14743C335.528 1.1392 335.695 1.16718 335.845 1.20998C336.07 1.27747 336.347 1.27089 336.63 1.25278C337.005 1.22973 337.374 1.20669 337.691 1.29888C337.754 1.31863 337.853 1.3466 337.922 1.34495C338.395 1.33178 338.874 1.32192 339.335 1.29064C339.796 1.25936 340.021 1.36142 340.339 1.4108C340.812 1.3894 341.29 1.368 341.763 1.3466C341.856 1.34166 341.965 1.32686 342.046 1.33509C342.386 1.36966 342.583 1.49311 343.05 1.45525C343.321 1.43385 343.615 1.42728 343.898 1.42234C343.973 1.42069 344.071 1.44866 344.123 1.47006C344.152 1.48158 344.123 1.51286 344.088 1.52932C343.984 1.57541 343.857 1.61822 343.765 1.66596C343.753 1.67255 343.863 1.70216 343.927 1.71533C344.082 1.74496 344.261 1.74004 344.469 1.72687C344.648 1.71534 344.832 1.73839 344.959 1.78777C345.011 1.80753 344.994 1.84045 344.884 1.94909C344.884 2.02975 345.005 1.99353 345.046 1.94085C345.109 1.86513 344.988 1.84044 344.757 1.88159C344.596 1.91123 344.515 1.95403 344.555 1.9886C344.578 2.0067 344.688 2.02975 344.884 1.94909C345.392 1.85032 345.772 1.83223 346.153 1.81412C346.251 1.80918 346.367 1.79271 346.436 1.80258C346.684 1.84209 346.915 1.88984 347.157 1.93428C347.434 1.92441 347.693 1.8997 347.964 1.9639C348.345 2.05444 348.362 2.04621 348.732 2.0281C348.922 2.01823 349.112 2.01001 349.303 2.00178C349.493 1.99355 349.643 2.01823 349.81 2.05609C350.151 2.13346 350.179 2.13346 350.404 2.0281C350.537 1.9639 350.629 1.94251 350.797 1.97214C351.35 2.07255 351.356 2.07913 351.829 2.0495C352.221 2.02481 352.591 2.01823 352.879 2.11206C353.075 2.1779 353.139 2.16309 353.294 2.09395C353.71 1.91123 353.9 1.91452 354.679 2.04621C355.042 2.10876 355.417 2.04128 355.786 2.03305C356.098 2.02646 356.317 2.06596 356.34 2.16967C356.357 2.23387 356.409 2.27997 356.617 2.30137C356.698 2.3096 356.796 2.32112 356.876 2.31782C357.355 2.29807 357.828 2.27502 358.307 2.25197C358.549 2.24045 358.682 2.1631 358.636 2.06104C358.584 1.95239 358.676 1.91287 359.022 1.88159C359.23 1.86349 359.397 1.86679 359.565 1.89642C359.749 1.92935 359.697 1.95898 359.536 2.01824C359.149 2.1631 359.195 2.25197 359.691 2.35239C359.865 2.38696 360.003 2.41825 360.043 2.46928C360.066 2.49561 360.043 2.53018 360.095 2.54993C360.378 2.66023 360.77 2.73102 361.209 2.78369C361.63 2.73925 361.918 2.81331 362.241 2.87257C362.495 2.91866 362.795 2.87916 363.066 2.8627C363.372 2.8446 363.625 2.85776 363.845 2.91867C364 2.96147 364.162 2.98121 364.352 2.97298C364.733 2.95487 365.119 2.94336 365.494 2.91702C365.817 2.89397 366.06 2.9269 366.262 2.98287C366.515 3.05365 366.798 3.00591 367.063 3.01578C367.421 3.02731 367.6 3.17381 368.067 3.1343C368.344 3.11125 368.632 3.10303 368.921 3.09644C368.996 3.0948 369.088 3.12278 369.152 3.14254C369.457 3.23308 369.815 3.22813 370.207 3.2018C370.478 3.18369 370.744 3.16723 371.009 3.22979C371.447 3.33514 371.932 3.42733 372.393 3.52445C372.457 3.60017 372.411 3.68905 372.739 3.73349C372.913 3.75654 373.074 3.79112 373.207 3.82898C373.368 3.87343 373.518 3.88495 373.726 3.87343C374.101 3.85039 374.493 3.84543 374.862 3.8158C375.203 3.78946 375.416 3.8438 375.624 3.89483C375.791 3.93599 375.947 3.95573 376.149 3.9261C376.356 3.89811 376.506 3.91622 376.674 3.96066C376.91 4.02157 376.927 4.01499 377.712 4.0331C377.793 4.03475 377.891 4.05943 377.937 4.08083C377.96 4.09235 377.908 4.12529 377.868 4.14175C377.816 4.16151 377.735 4.18454 377.66 4.18948C376.806 4.23228 375.947 4.27014 375.093 4.31294C375.006 4.31787 374.914 4.32941 374.851 4.34587C374.782 4.36398 374.695 4.38865 374.695 4.4117C374.695 4.42816 374.81 4.44792 374.891 4.45944C375.145 4.49731 375.445 4.43969 375.693 4.48249C375.86 4.51048 375.999 4.54998 376.166 4.57631C376.235 4.58784 376.345 4.5862 376.431 4.5829C376.72 4.57138 377.002 4.55492 377.291 4.54505C377.372 4.5434 377.464 4.55987 377.539 4.57304C378.093 4.67181 378.093 4.6718 378.571 4.6504C378.762 4.64217 378.964 4.61748 379.142 4.62735C379.315 4.63723 379.465 4.68168 379.621 4.70966C379.944 4.76892 380.25 4.82653 380.273 4.95493C380.284 5.00432 380.475 5.04711 380.665 5.0504C380.85 5.05369 381.046 5.0356 381.236 5.02572C381.686 5.00597 381.686 5.00597 382.269 5.10638C382.43 5.13437 382.603 5.13765 382.811 5.12119C382.892 5.11461 382.99 5.1212 383.076 5.12943C383.359 5.15412 383.359 5.18539 383.174 5.24465C382.915 5.3319 382.938 5.34013 383.665 5.41421C383.942 5.44219 384.155 5.49487 384.386 5.54097C384.761 5.61504 384.755 5.61503 384.507 5.71215C384.449 5.73355 384.397 5.7566 384.34 5.77965C384.172 5.84385 384.04 5.91298 383.694 5.91956C383.313 5.92615 382.932 5.9525 382.551 5.9706C382.182 5.98871 382.084 6.0282 382.119 6.14014C382.159 6.27512 382.234 6.28994 382.898 6.2883C383.088 6.2883 383.255 6.30146 383.399 6.34591C383.33 6.39858 383.203 6.43974 383.019 6.44961C382.546 6.47431 382.067 6.49571 381.594 6.51711C381.213 6.53522 380.833 6.55332 380.452 6.57143C380.215 6.58295 380.065 6.66855 380.129 6.76403C380.163 6.81835 380.192 6.87267 380.221 6.927C380.284 7.03564 380.406 7.06363 380.792 7.05869C380.89 7.05705 380.982 7.04387 381.075 7.04716C381.45 7.05868 381.628 7.19531 382.078 7.16733C382.453 7.14428 382.846 7.13934 383.215 7.10971C383.555 7.08338 383.745 7.14265 383.982 7.1871C384.063 7.20191 384.149 7.23317 384.219 7.23153C384.697 7.21342 385.176 7.19533 385.643 7.16405C385.863 7.15088 385.995 7.16075 386.168 7.20026C386.584 7.29574 386.595 7.2908 387.212 7.26117C387.662 7.23812 387.668 7.24141 388.245 7.34182C388.406 7.36981 388.579 7.3698 388.787 7.35663C389.058 7.34017 389.341 7.31384 389.623 7.33853C389.71 7.34511 389.82 7.36487 389.848 7.38627C389.866 7.40109 389.785 7.4373 389.716 7.44883C389.208 7.53443 388.614 7.51961 388.06 7.55418C387.887 7.56406 387.714 7.53278 387.57 7.48833C387.42 7.44389 387.258 7.42579 387.062 7.43402C386.682 7.45213 386.295 7.46364 385.92 7.48998C385.597 7.51303 385.372 7.47516 385.147 7.42413C385.072 7.40767 384.986 7.37639 384.911 7.37804C384.057 7.41096 383.198 7.44389 382.35 7.48998C382.009 7.50973 381.813 7.45706 381.582 7.41262C381.502 7.3978 381.421 7.36652 381.346 7.36817C381.058 7.37475 380.775 7.39286 380.486 7.40603C379.437 7.45541 378.392 7.5048 377.343 7.55089C377.273 7.55418 377.187 7.51961 377.106 7.50479C376.95 7.47516 376.789 7.44717 376.627 7.41919C376.339 7.43236 376.056 7.44882 375.768 7.45869C375.56 7.46528 375.376 7.48833 375.347 7.55089C375.329 7.59204 375.52 7.62989 375.722 7.6266C375.918 7.62331 376.114 7.60356 376.276 7.62495C377.077 7.73031 377.077 7.73196 377.579 7.71056C378.018 7.6908 377.971 7.67434 378.358 7.76487C378.525 7.80438 378.675 7.82744 378.866 7.81756C379.339 7.79451 379.817 7.77146 380.296 7.75171C380.371 7.74842 380.469 7.76488 380.544 7.77805C381.109 7.87682 381.109 7.88011 381.577 7.85542C382.188 7.82579 382.211 7.81756 382.621 7.91797C382.903 7.98711 383.163 7.93937 383.434 7.93608C383.745 8.00028 384.086 8.0579 384.369 8.13033C384.703 8.21593 385.055 8.2011 385.436 8.1764C385.718 8.1583 385.995 8.15172 386.226 8.21921C386.445 8.28176 386.71 8.28835 387.01 8.27189C387.281 8.25708 387.558 8.22579 387.841 8.26201C387.916 8.27188 388.031 8.29658 388.026 8.3114C388.02 8.33444 387.945 8.36737 387.87 8.37725C387.339 8.44474 386.757 8.44309 386.197 8.47437C386.122 8.4793 386.024 8.46119 385.949 8.44802C385.788 8.41839 385.632 8.38383 385.476 8.35255C385.193 8.36243 384.905 8.36571 384.628 8.38547C384.415 8.40028 384.253 8.39865 384.097 8.35914C383.953 8.32293 383.797 8.27847 383.624 8.26695C383.451 8.25543 383.249 8.28012 383.059 8.29C382.869 8.29988 382.65 8.29493 382.5 8.32127C382.35 8.3476 382.257 8.40522 382.159 8.45132C382.05 8.50235 381.9 8.51882 381.68 8.52376C381.479 8.5287 381.317 8.5221 381.167 8.47601C381.104 8.45626 381.017 8.44144 380.93 8.42827C380.85 8.41675 380.757 8.39863 380.682 8.40193C379.823 8.43979 378.969 8.48095 378.11 8.52046C377.683 8.54022 377.689 8.5402 376.8 8.44308C376.72 8.43485 376.622 8.42333 376.541 8.42662C376.062 8.44637 375.589 8.46942 375.11 8.49247C374.626 8.51552 374.632 8.51222 373.807 8.40852C373.657 8.38876 373.438 8.4151 373.259 8.41181C372.884 8.40358 372.699 8.26531 372.261 8.29165C371.886 8.31469 371.493 8.31963 371.118 8.34926C370.778 8.3756 370.582 8.31799 370.351 8.27354C370.271 8.25873 370.184 8.2258 370.115 8.22909C369.255 8.26531 368.402 8.30646 367.26 8.3114C366.977 8.3114 367.104 8.34597 367.288 8.3575C367.554 8.3756 367.64 8.34103 367.496 8.27519C367.392 8.2291 367.242 8.20604 367.121 8.21756C367.058 8.22414 366.977 8.25543 367.26 8.3114C367.559 8.37395 367.542 8.40851 367.594 8.42827C367.721 8.47601 367.9 8.49576 368.085 8.48917C368.373 8.47765 368.656 8.46119 368.944 8.45132C369.025 8.44802 369.123 8.45955 369.198 8.47272C369.832 8.57478 369.838 8.58137 370.513 8.54186C370.726 8.53034 370.882 8.53034 371.049 8.56161C371.28 8.60441 371.447 8.67683 371.799 8.65379C372.267 8.62251 372.745 8.60442 373.224 8.58631C373.299 8.58302 373.38 8.61265 373.466 8.62582C373.703 8.66532 373.876 8.7394 374.228 8.70812C374.499 8.68343 374.793 8.67683 375.081 8.67189C375.156 8.67025 375.272 8.69659 375.306 8.71799C375.376 8.75585 375.289 8.80031 375.093 8.83158C375.012 8.84475 374.903 8.84145 374.81 8.84639C374.43 8.8645 374.049 8.88424 373.668 8.89906C373.466 8.90729 373.276 8.93199 373.253 8.9929C373.236 9.03405 373.443 9.07026 373.639 9.06697C373.928 9.06203 374.216 9.04886 374.493 9.02746C374.983 8.99125 375.41 9.00112 375.808 9.10483C376.091 9.17726 376.074 9.15093 376.374 9.36493C376.449 9.41925 376.674 9.42418 376.87 9.42089C377.343 9.41266 377.562 9.43736 377.521 9.48839C377.47 9.55094 377.302 9.57068 377.089 9.57891C376.708 9.59208 376.327 9.61349 375.947 9.6316C375.854 9.63654 375.751 9.64641 375.664 9.64312C375.578 9.63982 375.497 9.62007 375.422 9.60526C375.26 9.57398 375.122 9.52624 374.949 9.51471C374.776 9.50319 374.574 9.52788 374.383 9.53776C374.193 9.54599 373.991 9.57068 373.818 9.55916C373.645 9.54764 373.501 9.49827 373.345 9.46864C373.27 9.45382 373.178 9.43076 373.103 9.43241C372.722 9.44557 372.342 9.46698 371.961 9.48345C371.494 9.50484 371.494 9.50485 370.928 9.40279C370.767 9.37316 370.599 9.37481 370.386 9.38798C369.925 9.41432 369.919 9.40936 369.077 9.31389C368.996 9.30401 368.898 9.29249 368.817 9.29743C367.957 9.33529 367.104 9.37644 366.25 9.41595C365.517 9.45052 365.517 9.45053 365.114 9.61514C364.814 9.73696 364.808 9.73695 365.102 9.79292C365.339 9.83901 365.552 9.9065 365.812 9.93119C366.054 9.95423 366.354 9.88016 366.619 9.95588C366.752 9.99375 366.925 10.0349 367.092 10.0415C367.358 10.0497 367.64 10.002 367.894 10.0744C368.021 10.1106 368.211 10.1485 368.373 10.1501C368.656 10.1534 368.944 10.1271 369.227 10.1156C369.313 10.1123 369.411 10.1123 369.492 10.1205C369.578 10.1304 369.653 10.1501 369.728 10.1666C369.959 10.2226 370.207 10.2489 370.507 10.2209C370.997 10.1748 371.436 10.1979 371.817 10.3032C371.869 10.318 371.995 10.3197 372.076 10.3131C372.284 10.2966 372.463 10.295 372.618 10.3263C372.682 10.3394 372.774 10.3625 372.763 10.3773C372.745 10.402 372.676 10.4349 372.601 10.4431C372.059 10.4991 371.476 10.5057 370.917 10.5353C370.842 10.5386 370.749 10.5172 370.674 10.5024C370.513 10.4728 370.374 10.4234 370.201 10.4119C370.028 10.4003 369.827 10.4217 369.636 10.43C369.446 10.4382 369.244 10.4629 369.071 10.453C368.898 10.4415 368.736 10.4003 368.598 10.3641C368.436 10.323 368.281 10.318 368.067 10.3345C367.79 10.3559 367.502 10.3592 367.219 10.3707C367.064 10.3394 366.908 10.3049 366.746 10.2752C366.671 10.2604 366.579 10.2423 366.498 10.244C366.117 10.2571 365.737 10.2769 365.356 10.295C364.975 10.3131 364.975 10.3131 364.329 10.211C364.254 10.1995 364.156 10.1864 364.075 10.1896C363.597 10.2094 363.124 10.2341 362.645 10.2538C362.46 10.2621 362.293 10.239 362.143 10.1946C361.999 10.1501 361.826 10.1254 361.647 10.1337C360.885 10.1682 360.124 10.2012 359.363 10.2423C359.057 10.2588 358.797 10.244 358.59 10.1847C358.347 10.1172 358.076 10.1337 357.794 10.1468C357.153 10.1798 357.148 10.1781 356.738 10.0942C356.657 10.0777 356.577 10.0464 356.502 10.0481C355.838 10.0728 355.169 10.0958 354.512 10.1353C354.165 10.1567 353.981 10.0991 353.75 10.0563C353.669 10.0415 353.583 10.0102 353.514 10.0135C353.035 10.0316 352.556 10.0481 352.089 10.081C351.621 10.1139 351.443 9.96083 351.091 9.96248C350.612 9.96412 350.139 10.002 349.666 10.025C349.285 10.0431 348.905 10.0612 348.524 10.0793C348.143 10.0975 347.763 10.1123 347.382 10.1337C347.18 10.1452 347.03 10.1304 346.863 10.0892C346.649 10.0349 346.395 9.99211 346.165 9.94272C345.813 9.87194 345.813 9.87193 345.386 9.89168C345.294 9.89662 345.196 9.89991 345.103 9.90485C344.405 9.94106 344.405 9.93778 343.517 9.83407C343.477 9.82913 343.373 9.84725 343.332 9.86042C343.211 9.90322 343.102 9.9493 342.992 9.99374C342.836 9.9674 342.646 9.95259 342.542 9.91473C342.248 9.80773 341.786 9.95423 341.487 9.84888C341.377 9.80937 341.187 9.7748 341.014 9.76493C340.835 9.75505 340.633 9.7781 340.448 9.78798C339.969 9.81267 339.969 9.81103 339.56 9.95753C339.352 10.03 339.052 10.0168 338.781 10.0332C338.499 10.0514 338.227 10.0612 337.991 9.99374C337.777 9.93284 337.518 9.91803 337.212 9.93778C336.837 9.96247 336.451 9.97728 336.07 9.99209C335.989 9.99539 335.891 9.98716 335.81 9.97729C334.928 9.88016 334.928 9.87852 334.501 9.89992C334.311 9.9098 334.115 9.91308 333.93 9.92789C333.618 9.95423 333.382 9.91966 333.157 9.86699C333.082 9.85053 332.995 9.81926 332.921 9.82091C332.54 9.82914 332.165 9.84395 331.79 9.85877C331.501 9.87029 331.213 9.87688 330.936 9.89992C330.475 9.93778 330.25 9.83077 329.933 9.78138C329.46 9.80278 328.981 9.8176 328.508 9.84723C328.289 9.8604 328.144 9.85547 327.977 9.81597C327.764 9.76658 327.568 9.71062 327.221 9.73531C326.76 9.76823 326.275 9.77976 325.802 9.79951C325.485 9.74848 325.254 9.64476 324.799 9.68262C324.522 9.70567 324.228 9.71061 323.945 9.72377C323.564 9.74188 323.184 9.75836 322.803 9.77811C322.393 9.79786 322.399 9.79292 321.77 9.6958C321.407 9.63819 321.032 9.70238 320.663 9.71226C320.374 9.72049 320.23 9.79621 320.299 9.89333C320.369 9.99045 320.213 10.0662 319.947 10.0793C319.284 10.1106 318.615 10.1435 317.952 10.1715C317.871 10.1748 317.773 10.1633 317.698 10.1518C316.988 10.0481 316.988 10.0497 316.671 10.0645C316.198 10.0892 315.714 10.1024 315.246 10.1337C314.923 10.1551 314.687 10.1205 314.479 10.0645C314.318 10.0217 314.168 10.0119 313.96 10.0217C311.676 10.132 309.391 10.2341 307.113 10.3477C306.773 10.3641 306.577 10.3164 306.346 10.2719C306.265 10.2571 306.19 10.2259 306.109 10.2259C305.919 10.2259 305.728 10.2407 305.538 10.2505C304.684 10.2901 303.831 10.3378 302.971 10.3674C302.608 10.3806 302.51 10.4563 302.354 10.5189C302.233 10.5666 302.095 10.5864 301.881 10.5929C301.673 10.5995 301.523 10.5913 301.362 10.5485C301.154 10.4925 300.918 10.4579 300.595 10.481C300.22 10.5073 299.839 10.5189 299.452 10.537C299.256 10.5452 299.106 10.5748 299.043 10.6341C299.031 10.644 299.153 10.6687 299.222 10.6835C299.453 10.7329 299.672 10.7905 299.931 10.825C300.197 10.8596 300.485 10.8201 300.762 10.8102C300.86 10.8069 300.952 10.7971 301.045 10.7987C301.131 10.8003 301.235 10.8086 301.298 10.8234C301.598 10.8975 301.916 10.9485 302.331 10.9041C302.689 10.9255 302.873 11.0621 303.329 11.0259C303.606 11.0045 303.894 10.9946 304.183 10.9864C304.258 10.9847 304.338 11.0144 304.419 11.0292C304.65 11.0703 304.834 11.1362 305.181 11.1082C305.55 11.0785 305.942 11.0736 306.317 11.0506C306.525 11.0374 306.674 11.0489 306.836 11.0917C307.044 11.146 307.28 11.1872 307.603 11.1608C307.88 11.1378 308.174 11.1329 308.457 11.118C308.826 11.0999 308.826 11.1016 309.484 11.2036C309.559 11.2152 309.657 11.2283 309.738 11.225C310.216 11.2053 310.689 11.1806 311.168 11.1608C311.353 11.1526 311.532 11.174 311.658 11.2218C311.71 11.2415 311.693 11.2744 311.71 11.3024C310.758 11.3469 309.807 11.3847 308.861 11.4391C308.503 11.4605 308.342 11.393 308.105 11.3551C308.024 11.3419 307.938 11.3139 307.863 11.3172C307.194 11.3452 306.53 11.3748 305.867 11.4111C305.659 11.4226 305.504 11.416 305.348 11.3683C304.95 11.2415 304.465 11.3106 304.015 11.3288C303.669 11.3419 303.56 11.393 303.6 11.5016C303.652 11.63 303.86 11.6695 304.39 11.6465C304.581 11.6382 304.771 11.6267 304.961 11.6201C305.146 11.6135 305.313 11.6349 305.463 11.6794C305.607 11.7238 305.78 11.7469 305.959 11.7403C306.34 11.7255 306.726 11.7107 307.096 11.686C307.401 11.6662 307.655 11.6827 307.869 11.7436C308.105 11.8111 308.382 11.7963 308.659 11.7814C309.305 11.7485 309.311 11.7502 309.714 11.8325C309.795 11.8489 309.876 11.8802 309.951 11.8786C310.614 11.8539 311.283 11.8325 311.935 11.793C312.276 11.7732 312.472 11.8259 312.697 11.8687C312.777 11.8835 312.858 11.9164 312.933 11.9131C313.412 11.895 313.891 11.8769 314.358 11.8456C314.577 11.8308 314.71 11.8407 314.889 11.8802C315.315 11.9773 315.327 11.974 315.933 11.9428C316.117 11.9329 316.319 11.9148 316.492 11.9279C316.665 11.9411 316.804 11.9889 316.965 12.0185C317.04 12.0317 317.133 12.0498 317.213 12.0465C317.594 12.0333 317.975 12.0136 318.355 11.9954C318.713 11.9773 318.713 11.979 319.382 12.081C319.653 12.1238 319.936 12.0876 320.207 12.0745C320.501 12.0596 320.767 12.0596 320.992 12.1238C321.217 12.188 321.488 12.1847 321.776 12.1716C322.047 12.1584 322.324 12.1222 322.601 12.1666C323.235 12.2687 323.236 12.2703 323.628 12.2506C324.199 12.2226 324.764 12.1963 325.341 12.1716C325.416 12.1683 325.514 12.188 325.589 12.2012C325.75 12.2308 325.889 12.2802 326.062 12.2917C326.235 12.3049 326.437 12.2852 326.621 12.2753C327.216 12.244 327.256 12.2325 327.654 12.3411C327.989 12.43 328.404 12.3016 328.715 12.4037C328.894 12.4613 329.136 12.5074 329.471 12.4794C329.748 12.4564 330.036 12.4498 330.325 12.4366C330.78 12.4152 330.78 12.4169 331.357 12.5156C331.432 12.5288 331.53 12.5452 331.605 12.542C331.986 12.5288 332.373 12.5173 332.742 12.4876C333.174 12.4531 333.451 12.5156 333.774 12.5765C334.028 12.6243 334.328 12.5848 334.599 12.5683C334.893 12.5518 335.159 12.5568 335.378 12.621C335.609 12.6868 335.88 12.6786 336.168 12.6654C336.439 12.6539 336.716 12.616 336.993 12.6621C337.587 12.7642 337.587 12.7642 338.02 12.7444C338.4 12.7263 338.781 12.7066 339.162 12.6934C339.237 12.6901 339.329 12.7115 339.404 12.7263C339.566 12.7559 339.704 12.8053 339.877 12.8169C340.05 12.8284 340.252 12.807 340.442 12.7988C340.633 12.7905 340.835 12.7658 341.008 12.7757C341.181 12.7856 341.342 12.8267 341.481 12.863C341.642 12.9058 341.792 12.9107 342.011 12.8942C342.288 12.8728 342.577 12.8679 342.859 12.8564C343.015 12.8876 343.177 12.9189 343.327 12.9535C343.482 12.9897 343.65 12.9864 343.863 12.9749C344.573 12.9354 344.578 12.9403 345.172 13.0424C345.444 13.0885 345.726 13.0506 345.997 13.0391C346.286 13.0259 346.557 13.0193 346.782 13.0852C347.001 13.1477 347.272 13.156 347.561 13.1362C347.745 13.123 347.941 13.1148 348.132 13.1099C348.218 13.1082 348.322 13.1148 348.385 13.128C348.691 13.1971 348.991 13.2597 349.412 13.2152C349.781 13.2284 349.966 13.3634 350.41 13.337C350.785 13.314 351.177 13.309 351.547 13.2794C351.887 13.2531 352.129 13.2992 352.302 13.3568C352.614 13.4589 353.052 13.3206 353.364 13.421C353.542 13.4786 353.773 13.5247 354.119 13.5C354.5 13.4737 354.621 13.5082 354.731 13.6119C354.794 13.6712 354.783 13.7189 354.667 13.765C354.552 13.8128 354.425 13.8046 354.24 13.7502C354.027 13.6893 353.773 13.6778 353.467 13.691C353.167 13.7041 352.983 13.6185 352.735 13.5856C352.487 13.551 352.193 13.6087 351.933 13.5642C351.322 13.4605 351.322 13.4605 350.906 13.4803C350.624 13.4934 350.329 13.5 350.053 13.5231C349.724 13.551 349.51 13.5 349.285 13.4539C349.205 13.4375 349.124 13.4062 349.055 13.4078C348.391 13.4325 347.722 13.4556 347.065 13.4967C346.718 13.5181 346.534 13.4589 346.303 13.4177C346.222 13.4029 346.136 13.3733 346.067 13.3766C345.496 13.3996 344.93 13.4292 344.359 13.4572C344.25 13.5017 344.128 13.5444 344.025 13.5922C343.915 13.6416 343.765 13.663 343.546 13.6613C343.182 13.6613 342.825 13.7305 342.461 13.6432C342.086 13.5543 342.058 13.5593 341.694 13.5807C341.233 13.6087 340.742 13.6021 340.31 13.6663C340.235 13.6778 340.154 13.7091 340.154 13.7321C340.148 13.7469 340.269 13.7683 340.344 13.7815C340.598 13.821 340.892 13.7634 341.146 13.8045C341.313 13.8309 341.452 13.8704 341.619 13.8984C341.688 13.9099 341.792 13.9082 341.885 13.9066C341.983 13.905 342.075 13.8934 342.167 13.8951C342.254 13.8967 342.346 13.9066 342.415 13.9214C342.733 13.984 343.067 14.0416 343.35 14.1157C343.627 14.1881 343.886 14.1387 344.163 14.1354C345.271 14.2506 345.271 14.2523 346.015 14.2161C346.199 14.2078 346.39 14.198 346.58 14.1996C346.661 14.1996 346.736 14.2292 346.816 14.2457C347.047 14.2951 347.266 14.3395 347.59 14.3132C347.866 14.2901 348.161 14.2852 348.443 14.2704C348.824 14.2523 348.824 14.2523 349.47 14.356C349.632 14.3823 349.805 14.379 350.012 14.3659C350.191 14.3544 350.376 14.379 350.502 14.4268C350.554 14.4465 350.537 14.4795 350.554 14.5074C349.983 14.5338 349.407 14.5519 348.853 14.5914C348.495 14.6161 348.334 14.5453 348.097 14.5074C348.016 14.4943 347.93 14.4663 347.855 14.4696C347.29 14.4943 346.724 14.5222 346.159 14.5552C346.09 14.5585 346.003 14.5963 345.997 14.6194C345.986 14.6622 346.13 14.7033 346.338 14.7017C346.615 14.7 346.886 14.672 347.134 14.7395C347.341 14.7988 347.601 14.8252 347.907 14.7988C348.091 14.784 348.288 14.784 348.472 14.7708C348.962 14.7313 349.406 14.7395 349.776 14.8515C350.058 14.8811 350.335 14.8531 350.606 14.8383C350.808 14.8268 351.004 14.8153 351.149 14.8465C351.454 14.9124 351.754 14.9782 352.175 14.9338C352.631 14.9799 352.977 15.077 353.358 15.156C353.537 15.1939 353.675 15.2153 353.883 15.1906C353.969 15.1807 354.073 15.1807 354.165 15.1758C354.356 15.1675 354.558 15.1428 354.731 15.1527C354.904 15.1642 355.048 15.212 355.204 15.2416C355.279 15.2564 355.365 15.2811 355.44 15.2795C355.729 15.2712 356.011 15.2548 356.294 15.2416C356.577 15.2301 356.859 15.2186 357.142 15.2071C357.378 15.2499 357.621 15.2927 357.857 15.3355C358.238 15.3173 358.619 15.2992 358.994 15.2828C359.415 15.263 359.415 15.2647 360.02 15.3667C360.291 15.4128 360.58 15.3832 360.839 15.3618C361.272 15.3272 361.56 15.3898 361.866 15.4556C361.93 15.4688 362.045 15.477 362.12 15.4704C362.42 15.4474 362.679 15.4655 362.899 15.5264C363.054 15.5692 363.21 15.589 363.401 15.5807C364.064 15.5495 364.727 15.5165 365.391 15.4885C365.471 15.4852 365.564 15.5001 365.639 15.5132C366.227 15.6136 366.233 15.6186 366.665 15.5922C367.052 15.5692 367.41 15.5593 367.715 15.6499C367.779 15.6696 367.877 15.6976 367.946 15.6959C368.419 15.6795 368.898 15.6614 369.365 15.6334C369.578 15.6202 369.728 15.6252 369.896 15.663C370.109 15.7108 370.3 15.7684 370.651 15.747C371.626 15.6861 371.632 15.6959 372.786 15.8095C372.866 15.8178 372.976 15.8046 373.068 15.798C373.264 15.7815 373.409 15.8046 373.582 15.8425C373.968 15.9281 373.98 15.9231 374.349 15.905C374.632 15.8902 374.926 15.8869 375.203 15.8622C375.629 15.826 375.912 15.8902 376.229 15.9511C376.483 15.9988 376.777 15.9593 377.048 15.9445C377.343 15.9281 377.608 15.933 377.827 15.9955C377.977 16.0383 378.139 16.0614 378.329 16.0532C378.992 16.0235 379.656 15.9906 380.319 15.961C380.4 15.9577 380.498 15.9709 380.573 15.9824C381.231 16.0844 381.231 16.0894 381.882 16.0515C382.09 16.04 382.263 16.0367 382.419 16.0713C382.569 16.1042 382.73 16.1355 382.886 16.1667C383.169 16.1552 383.457 16.1519 383.734 16.1322C383.947 16.1174 384.097 16.124 384.265 16.1585C384.484 16.203 384.668 16.2803 385.015 16.2425C385.193 16.2243 385.401 16.2293 385.58 16.2128C385.793 16.1914 385.938 16.2046 386.105 16.2474C386.312 16.2984 386.526 16.3511 386.86 16.3248C387.23 16.2951 387.622 16.2902 387.997 16.2672C388.204 16.254 388.349 16.2672 388.516 16.31C388.724 16.3643 388.96 16.3988 389.283 16.3775C389.941 16.3363 389.946 16.3445 390.587 16.4482C390.748 16.4746 390.921 16.4713 391.129 16.4581C391.308 16.4466 391.492 16.4713 391.619 16.519C391.74 16.5717 391.729 16.6046 391.74 16.6326ZM340.339 1.78613C340.148 1.79436 339.958 1.80423 339.681 1.66102C339.664 1.63633 339.675 1.6067 339.635 1.5853C339.543 1.54086 339.398 1.50958 339.225 1.50464C338.914 1.49806 338.539 1.55402 338.545 1.59682C338.55 1.63303 338.648 1.6643 338.839 1.69393C338.92 1.70546 338.983 1.72521 339.058 1.73838C339.277 1.77624 339.45 1.85033 339.768 1.81247C339.71 1.71041 339.739 1.76144 339.768 1.81247C339.739 1.87502 339.825 1.91947 340.033 1.93758C340.091 1.94252 340.177 1.93922 340.223 1.92934C340.402 1.89312 340.431 1.84375 340.298 1.71371C340.275 1.73511 340.293 1.77295 340.344 1.78283C340.396 1.79271 340.523 1.78449 340.587 1.77296C340.748 1.74169 340.829 1.70053 340.789 1.66596C340.766 1.64785 340.656 1.62481 340.587 1.62481C340.466 1.62481 340.356 1.66102 340.339 1.78613ZM386.981 20.8763C386.56 20.9076 386.076 20.8961 385.655 20.9603C385.58 20.9718 385.505 21.0014 385.499 21.0245C385.493 21.0393 385.609 21.0607 385.678 21.0722C385.834 21.0986 386.007 21.0903 386.209 21.0821C386.514 21.0706 386.693 21.1463 386.93 21.1842C387.005 21.1957 387.103 21.2039 387.183 21.2006C387.651 21.1809 388.112 21.1595 388.579 21.1364C388.66 21.1315 388.747 21.12 388.816 21.1051C389.047 21.0574 389.024 21.0261 388.799 20.9899C388.551 20.9504 388.354 20.8846 388.101 20.8533C387.737 20.8088 387.368 20.8681 386.981 20.8763ZM354.223 22.078C353.94 22.0912 353.663 22.1043 353.381 22.1175C353.289 22.1225 353.19 22.1241 353.104 22.1307C352.925 22.1422 352.793 22.1768 352.706 22.2311C352.839 22.2739 353 22.2986 353.179 22.2936C353.462 22.2838 353.739 22.2624 354.021 22.2574C354.327 22.2508 354.506 22.3249 354.742 22.3628C354.817 22.3743 354.909 22.3759 354.996 22.3776C355.423 22.3842 355.682 22.2986 355.602 22.1784C355.544 22.0846 355.325 22.0286 355.06 22.0402C354.783 22.0517 354.5 22.0648 354.223 22.078ZM388.954 18.4433C389.024 18.4153 389.099 18.3956 389.133 18.3709C389.237 18.287 389.197 18.2244 389.006 18.1586C388.775 18.0779 388.493 18.1322 388.233 18.1405C388.17 18.1421 388.101 18.1767 388.066 18.1981C388.043 18.2129 388.043 18.2442 388.078 18.2524C388.36 18.3182 388.66 18.3791 388.954 18.4433ZM338.914 13.5807C338.637 13.5938 338.354 13.6037 338.078 13.6218C338.008 13.6268 337.945 13.658 337.904 13.6794C337.829 13.7189 337.91 13.7733 338.147 13.7782C338.418 13.7848 338.7 13.7568 338.983 13.7436C339.341 13.7272 339.554 13.6663 339.421 13.6136C339.295 13.5626 339.122 13.5527 338.914 13.5807ZM35.2734 10.0629C35.458 10.0547 35.6484 10.0481 35.8329 10.0365C36.006 10.025 36.1388 9.98881 36.2253 9.93448C36.0811 9.89168 35.9195 9.86864 35.7407 9.87358C35.458 9.88345 35.1812 9.89662 34.9043 9.91308C34.7313 9.92296 34.564 9.95917 34.5237 10.0151C34.4833 10.0579 34.8696 10.0826 35.2734 10.0629ZM314.52 9.80938C314.594 9.82419 314.669 9.85383 314.744 9.85383C314.929 9.85383 315.119 9.84394 315.293 9.82748C315.367 9.8209 315.425 9.79127 315.46 9.76822C315.483 9.75341 315.477 9.72708 315.443 9.71391C315.275 9.63489 314.606 9.66288 314.496 9.75341C314.485 9.76987 314.514 9.79127 314.52 9.80938ZM296.32 0.795151C296.338 0.821489 296.343 0.847824 296.367 0.874162C296.413 0.923546 296.539 0.959768 296.724 0.98446C296.868 0.943307 296.943 0.897222 296.938 0.847838C296.932 0.8215 296.914 0.795145 296.891 0.768807C296.845 0.719423 296.718 0.683221 296.534 0.658529C296.39 0.698036 296.32 0.744121 296.32 0.795151ZM402.285 22.3644C402.233 22.3858 402.181 22.4072 402.123 22.427C402.279 22.4747 402.423 22.4895 402.533 22.4632C402.602 22.4467 402.643 22.422 402.695 22.4006C402.539 22.3529 402.4 22.3397 402.285 22.3644ZM398.697 22.5883C398.772 22.6031 398.841 22.6229 398.922 22.6328C399.055 22.6492 399.176 22.6212 399.268 22.562C399.193 22.5471 399.124 22.5274 399.043 22.5175C398.911 22.5011 398.789 22.529 398.697 22.5883ZM400.97 22.2871C400.929 22.3266 401.01 22.3595 401.224 22.3875C401.276 22.3661 401.345 22.3463 401.379 22.3233C401.437 22.2854 401.339 22.2509 401.131 22.2245C401.074 22.2443 401.022 22.2657 400.97 22.2871ZM388.793 20.5125C388.752 20.552 388.833 20.585 389.047 20.6129C389.099 20.5915 389.168 20.5718 389.202 20.5487C389.26 20.5109 389.162 20.4763 388.954 20.45C388.897 20.4697 388.845 20.4911 388.793 20.5125ZM372.203 8.8645C372.151 8.8859 372.099 8.9073 372.042 8.92705C372.197 8.97479 372.341 8.9896 372.451 8.96326C372.52 8.9468 372.561 8.92211 372.613 8.90071C372.457 8.85297 372.318 8.83981 372.203 8.8645ZM356.311 2.68491C356.45 2.69643 356.565 2.67339 356.663 2.61249C356.588 2.59767 356.519 2.57792 356.438 2.56804C356.305 2.55158 356.184 2.57957 356.092 2.63883C356.167 2.65529 356.242 2.67009 356.311 2.68491ZM347.872 2.29807C347.82 2.31947 347.768 2.34087 347.711 2.36063C347.866 2.40836 348.011 2.42317 348.12 2.39684C348.189 2.38037 348.23 2.35568 348.282 2.33428C348.126 2.28654 347.988 2.27503 347.872 2.29807ZM290.644 0.793503C290.592 0.814903 290.54 0.836303 290.483 0.856057C290.639 0.903795 290.783 0.918605 290.892 0.892267C290.962 0.875806 291.002 0.851113 291.054 0.829713C290.898 0.781975 290.76 0.770457 290.644 0.793503ZM5.69329 14.1864C5.6183 14.1716 5.54338 14.1568 5.47416 14.1404C5.30688 14.1848 5.25498 14.226 5.34728 14.2572C5.40496 14.277 5.49142 14.2885 5.56641 14.3033C5.73946 14.2589 5.77982 14.2194 5.69329 14.1864Z" fill="#FFE492"/>
<path d="M39.1504 8.37416C38.487 8.40543 37.8295 8.44493 37.1661 8.46468C36.8142 8.47456 36.6874 8.54534 36.5432 8.61119C36.4279 8.66387 36.2952 8.68032 36.0817 8.6902C34.282 8.77086 32.488 8.85646 30.694 8.94042C30.4691 8.91902 30.3595 8.88445 30.4114 8.8433C30.4402 8.81861 30.5095 8.78404 30.5787 8.78075C31.8074 8.71984 33.0302 8.65728 34.2646 8.60954C34.6165 8.59637 34.7146 8.52394 34.8934 8.46468C34.9511 8.44493 34.9973 8.4153 35.0723 8.40377C35.1473 8.39061 35.2569 8.39226 35.3549 8.38897C37.3392 8.29514 39.3236 8.20296 41.3079 8.10913C41.5329 8.13053 41.6425 8.16509 41.5905 8.20625C41.5617 8.23094 41.4925 8.26551 41.4232 8.2688C40.6618 8.30337 39.906 8.33794 39.1504 8.37416Z" fill="#FFE492"/>
<path d="M402.746 17.1401C402.446 17.1599 402.065 17.1879 401.754 17.0924C401.604 17.0463 401.442 17.0315 401.246 17.0414C400.963 17.0578 400.675 17.071 400.386 17.0809C400.311 17.0825 400.213 17.0644 400.138 17.0496C399.977 17.02 399.838 16.9706 399.665 16.9574C399.492 16.9442 399.285 16.9805 399.106 16.9722C398.869 16.9607 398.771 16.9163 398.835 16.8751C398.869 16.8521 398.939 16.8191 399.014 16.8142C400.081 16.7533 400.086 16.7533 400.386 16.8126C400.617 16.8586 400.831 16.9097 401.159 16.8817C401.436 16.8586 401.731 16.8537 402.013 16.8389C402.405 16.8191 402.405 16.8208 403.04 16.9245C403.201 16.9508 403.374 16.9492 403.582 16.9344C403.761 16.9228 403.934 16.9492 404.078 16.9936C403.986 17.0496 403.853 17.0858 403.674 17.0957C403.386 17.1121 403.103 17.1237 402.746 17.1401Z" fill="#FFE492"/>
<path d="M391.52 16.6327C392.247 16.5981 392.98 16.5685 393.706 16.529C394.006 16.5126 394.243 16.5307 394.451 16.5866C394.675 16.6475 394.929 16.6426 395.206 16.6311C395.379 16.6245 395.547 16.6508 395.662 16.6969C395.708 16.715 395.696 16.748 395.714 16.7743C395.079 16.8039 394.439 16.8352 393.799 16.8615C393.724 16.8648 393.631 16.8484 393.562 16.8352C393.406 16.8072 393.274 16.7578 393.106 16.748C392.749 16.7249 392.391 16.7693 392.028 16.7776C391.855 16.7809 391.687 16.7562 391.572 16.7117C391.526 16.6903 391.537 16.6591 391.52 16.6327Z" fill="#FFE492"/>
<path d="M128.891 2.4793C129.647 2.44308 130.403 2.40853 131.158 2.37231C131.383 2.39536 131.487 2.42828 131.441 2.46943C131.412 2.49412 131.343 2.52869 131.273 2.53198C129.762 2.60606 128.251 2.67683 126.745 2.74762C126.52 2.72457 126.417 2.69165 126.463 2.6505C126.492 2.62581 126.561 2.59124 126.63 2.58795C127.38 2.55009 128.136 2.51551 128.891 2.4793Z" fill="#FFE492"/>
<path d="M12.1937 11.6267C11.8534 11.63 11.4958 11.6909 11.1151 11.6448C11.0401 11.6366 10.9362 11.6102 10.942 11.5954C10.9535 11.5707 11.0228 11.5394 11.0978 11.5296C11.4266 11.4884 11.8361 11.4835 12.0034 11.3682C12.0842 11.309 12.2342 11.2892 12.4361 11.2777C12.6495 11.2645 12.7994 11.2695 12.9667 11.304C13.1859 11.3485 13.3705 11.4308 13.7166 11.388C13.7339 11.4143 13.7742 11.444 13.7569 11.4686C13.7396 11.4933 13.6647 11.5164 13.5955 11.5345C13.532 11.551 13.4454 11.5658 13.3647 11.5707C12.984 11.5905 12.6032 11.6069 12.1937 11.6267Z" fill="#FFE492"/>
<path d="M312.152 11.2958C312.434 11.2826 312.728 11.276 313.005 11.253C313.224 11.2349 313.363 11.2464 313.536 11.2859C313.83 11.355 313.847 11.3485 314.568 11.3583C314.649 11.36 314.747 11.3847 314.793 11.4061C314.822 11.4176 314.782 11.4489 314.747 11.4653C314.695 11.4867 314.62 11.5147 314.551 11.5147C314.095 11.5196 313.634 11.6168 313.19 11.5048C312.965 11.4489 312.717 11.4225 312.411 11.4472C312.226 11.462 312.03 11.4686 311.84 11.4752C311.655 11.4818 311.465 11.4637 311.35 11.4143C311.182 11.3419 311.28 11.3139 311.58 11.3188C311.771 11.3221 311.961 11.304 312.152 11.2958Z" fill="#FFE492"/>
<path d="M416.68 22.6433C417.044 22.6268 417.407 22.6071 417.776 22.5939C417.851 22.5906 417.944 22.6087 418.013 22.6202C418.29 22.6696 418.249 22.7536 418.261 22.8276C418.267 22.905 417.626 22.9676 417.355 22.9149C417.055 22.8556 416.784 22.7881 416.369 22.8244C416.207 22.8375 416.017 22.8079 415.913 22.7602C415.757 22.691 415.844 22.663 416.138 22.668C416.311 22.6713 416.496 22.6531 416.68 22.6433Z" fill="#FFE492"/>
<path d="M233.541 0.237214C233.916 0.219106 234.291 0.191136 234.666 0.18949C234.885 0.187844 234.995 0.242155 234.943 0.281663C234.914 0.306355 234.845 0.340924 234.775 0.344217C234.025 0.383724 233.276 0.416652 232.526 0.452867C232.306 0.429821 232.197 0.395258 232.249 0.355751C232.278 0.331059 232.347 0.298135 232.416 0.293197C232.791 0.270151 233.166 0.255321 233.541 0.237214Z" fill="#FFE492"/>
<path d="M409.396 17.2847C409.76 17.2682 410.129 17.2435 410.492 17.2353C410.683 17.232 410.833 17.2699 410.856 17.3127C410.867 17.3324 410.775 17.367 410.7 17.3752C410.181 17.4312 409.621 17.4378 409.079 17.4658C408.906 17.474 408.721 17.4477 408.618 17.4016C408.462 17.3308 408.549 17.3045 408.843 17.3094C409.027 17.311 409.212 17.2929 409.396 17.2847Z" fill="#FFE492"/>
<path d="M321.742 11.5182C321.927 11.51 322.117 11.4886 322.296 11.4951C322.486 11.5034 322.607 11.5511 322.665 11.5988C322.728 11.6532 322.723 11.7042 322.665 11.7503C322.573 11.8293 322.48 11.826 322.267 11.7733C321.938 11.691 321.915 11.7009 321.263 11.7042C321.188 11.7042 321.096 11.6795 321.038 11.6581C320.952 11.6252 320.998 11.5742 321.2 11.5445C321.35 11.5231 321.557 11.5264 321.742 11.5182Z" fill="#FFE492"/>
<path d="M396.949 16.7446C397.22 16.7314 397.491 16.71 397.762 16.71C397.952 16.7084 398.102 16.7462 398.12 16.7874C398.125 16.8071 398.039 16.8401 397.97 16.8499C397.641 16.8944 397.272 16.8977 396.914 16.9125C396.747 16.9191 396.562 16.8927 396.458 16.8466C396.303 16.7775 396.395 16.7462 396.678 16.7561C396.764 16.7594 396.856 16.7495 396.949 16.7446Z" fill="#FFE492"/>
<path d="M353.367 14.725C352.963 14.7448 352.582 14.7201 352.611 14.6773C352.652 14.6213 352.819 14.5851 352.992 14.5752C353.269 14.5588 353.546 14.5456 353.828 14.5357C354.007 14.5291 354.169 14.5538 354.313 14.5966C354.226 14.6493 354.094 14.6872 353.921 14.6987C353.742 14.7102 353.551 14.7168 353.367 14.725Z" fill="#FFE492"/>
<path d="M350.745 14.5144C351.016 14.5012 351.287 14.4798 351.558 14.4798C351.749 14.4781 351.899 14.516 351.916 14.5572C351.922 14.5769 351.835 14.6098 351.766 14.6197C351.437 14.6642 351.068 14.6674 350.711 14.6823C350.543 14.6888 350.359 14.6625 350.255 14.6164C350.099 14.5473 350.191 14.516 350.474 14.5259C350.561 14.5292 350.653 14.5193 350.745 14.5144Z" fill="#FFE492"/>
<path d="M319.13 11.5053C319.401 11.4921 319.672 11.4707 319.943 11.469C320.134 11.4674 320.283 11.5053 320.301 11.5464C320.307 11.5662 320.22 11.5975 320.151 11.609C319.822 11.6534 319.453 11.6567 319.095 11.6715C318.928 11.6781 318.743 11.6518 318.64 11.6057C318.484 11.5366 318.576 11.5053 318.859 11.5151C318.945 11.5184 319.038 11.5086 319.13 11.5053Z" fill="#FFE492"/>
<path d="M316.861 11.4076C317.15 11.3945 317.242 11.3862 317.334 11.3862C317.507 11.3862 317.686 11.406 317.79 11.4537C317.946 11.5229 317.854 11.5426 317.571 11.5459C317.207 11.5492 316.85 11.5838 316.486 11.5904C316.296 11.5937 316.146 11.5541 316.135 11.513C316.129 11.4932 316.215 11.4587 316.285 11.4521C316.527 11.4274 316.792 11.4126 316.861 11.4076Z" fill="#FFE492"/>
<path d="M348.582 1.72398C348.398 1.73221 348.202 1.75526 348.029 1.74703C347.798 1.7355 347.706 1.69106 347.763 1.64991C347.798 1.62686 347.862 1.59394 347.931 1.589C348.3 1.56596 348.675 1.55113 349.044 1.53467C349.263 1.55936 349.361 1.59393 349.304 1.63508C349.269 1.65813 349.205 1.6894 349.136 1.69599C348.957 1.71245 348.767 1.71575 348.582 1.72398Z" fill="#FFE492"/>
<path d="M124.686 2.67318C124.865 2.67154 125.026 2.69294 125.164 2.73409C125.078 2.78677 124.951 2.82133 124.778 2.83615C124.692 2.84273 124.593 2.84767 124.501 2.84931C124.322 2.8526 124.161 2.82956 124.022 2.78841C124.109 2.73573 124.241 2.70116 124.409 2.68635C124.495 2.67976 124.593 2.67812 124.686 2.67318Z" fill="#FFE492"/>
<path d="M408.541 17.2779C408.536 17.2302 408.887 17.1759 409.205 17.1775C409.372 17.1792 409.545 17.2022 409.643 17.2467C409.793 17.3142 409.707 17.3405 409.424 17.3355C409.251 17.3323 409.066 17.3602 408.893 17.3553C408.697 17.3537 408.582 17.3174 408.541 17.2779Z" fill="#FFE492"/>
<path d="M323.453 11.7172C323.447 11.6991 323.418 11.6777 323.436 11.6613C323.545 11.5707 324.209 11.5427 324.382 11.6217C324.41 11.6366 324.422 11.6612 324.399 11.6761C324.364 11.6991 324.301 11.7287 324.232 11.7353C324.053 11.7518 323.868 11.76 323.684 11.7617C323.603 11.7617 323.528 11.7337 323.453 11.7172Z" fill="#FFE492"/>
<path d="M15.2211 11.3635C14.5404 11.3981 14.5289 11.3948 14.65 11.3125C14.7596 11.2384 14.9615 11.1939 15.2557 11.1939C15.3423 11.1939 15.4345 11.1906 15.5095 11.1972C15.5903 11.2055 15.7057 11.2219 15.723 11.2417C15.7576 11.2795 15.6595 11.3207 15.4864 11.3487C15.4114 11.3618 15.3134 11.3586 15.2211 11.3635Z" fill="#FFE492"/>
<path d="M133.074 2.44144C132.872 2.46942 132.699 2.45955 132.572 2.40687C132.445 2.3542 132.647 2.29164 132.999 2.27682C133.091 2.27353 133.189 2.26037 133.276 2.26696C133.362 2.27189 133.449 2.29163 133.501 2.31138C133.593 2.34431 133.536 2.38877 133.351 2.42663C133.276 2.44144 133.166 2.43814 133.074 2.44144Z" fill="#FFE492"/>
<path d="M407.337 17.1544C407.389 17.133 407.441 17.1116 407.499 17.0918C407.712 17.1198 407.804 17.1527 407.747 17.1906C407.712 17.2136 407.643 17.2334 407.591 17.2548C407.377 17.2268 407.291 17.1922 407.337 17.1544Z" fill="#FFE492"/>
<path d="M24.3167 30.1025C24.3167 30.0828 24.3974 30.0515 24.4609 30.0449C24.582 30.0334 24.7319 30.0564 24.8357 30.1025C24.98 30.1684 24.8935 30.203 24.6282 30.1848C24.4436 30.1717 24.3167 30.1388 24.3167 30.1025Z" fill="#FFE492"/>
<path d="M326.212 10.1848C326.287 10.1996 326.362 10.2144 326.431 10.2308C326.333 10.2918 326.212 10.3181 326.085 10.3016C326.004 10.2917 325.935 10.272 325.86 10.2572C325.958 10.1963 326.073 10.1732 326.212 10.1848Z" fill="#FFE492"/>
<path d="M324.799 10.1108C324.914 10.0861 325.053 10.0993 325.214 10.1471C325.162 10.1685 325.116 10.1931 325.053 10.2096C324.943 10.2359 324.799 10.2228 324.643 10.1734C324.689 10.1536 324.741 10.1322 324.799 10.1108Z" fill="#FFE492"/>
<path d="M322.565 10.1831C322.64 10.1979 322.715 10.2128 322.785 10.2292C322.687 10.2901 322.571 10.3165 322.439 10.3C322.358 10.2901 322.289 10.2704 322.214 10.2556C322.312 10.1946 322.427 10.17 322.565 10.1831Z" fill="#FFE492"/>
<path d="M321.389 10.0957C321.476 10.1286 321.43 10.1681 321.262 10.2125C321.187 10.1977 321.101 10.1862 321.043 10.1664C320.951 10.1352 320.997 10.094 321.17 10.0496C321.239 10.066 321.314 10.0808 321.389 10.0957Z" fill="#FFE492"/>
</svg>
