<svg width="15" height="15" viewBox="0 0 15 15" fill="none" xmlns="http://www.w3.org/2000/svg">
<g id="Landing page V2 / desktop / 1440px">
<g id="Footer">
<g id="Content">
<g id="Btm">
<g id="Social Icon">
<g id="Linkedin">
<path id="Vector" d="M14.9963 14.9999V14.9993H15V9.48076C15 6.78105 14.4247 4.70142 11.3003 4.70142C9.79836 4.70142 8.79042 5.53402 8.37893 6.32337H8.33549V4.95346H5.37314V14.9993H8.45776V10.025C8.45776 8.71524 8.70353 7.44877 10.3091 7.44877C11.8912 7.44877 11.9148 8.94345 11.9148 10.109V14.9999H14.9963Z" fill="#F7F7EE"/>
<path id="Vector_2" d="M0.223846 4.92554H3.35818V14.7763H0.223846V4.92554Z" fill="#F7F7EE"/>
<path id="Vector_3" d="M1.79104 0C0.802303 0 0 0.798563 0 1.78269C0 2.76683 0.802303 3.58209 1.79104 3.58209C2.77979 3.58209 3.58209 2.76683 3.58209 1.78269C3.58147 0.798563 2.77916 0 1.79104 0V0Z" fill="#F7F7EE"/>
</g>
</g>
</g>
</g>
</g>
</g>
</svg>
