<svg width="1440" height="434" viewBox="0 0 1440 434" fill="none" xmlns="http://www.w3.org/2000/svg">
<g id="Landing page V2 / desktop / 1440px" clip-path="url(#clip0_5_34420)">
<g id="Hero-section">
<g id="Element" opacity="0.3">
<g id="Group">
<path id="Vector" d="M486.505 433.108C479.401 433.108 472.487 432.755 465.843 432.049C451.908 430.567 439.033 427.526 427.577 423.008C415.263 418.153 404.463 411.539 395.474 403.348C377.409 386.886 368.371 367.171 359.629 348.104C357.912 344.36 356.136 340.489 354.334 336.733C342.034 311.132 326.441 288.707 306.669 268.176C267.227 227.221 211.758 192.268 146.257 167.098C70.5048 137.99 -10.9409 123.49 -83.0791 126.27C-125.478 127.905 -181.499 143.451 -206.537 170C-221.395 185.757 -222.593 203.242 -209.999 220.564L-210.249 220.637C-216.853 211.553 -219.73 202.446 -218.798 193.569C-217.944 185.425 -213.898 177.465 -206.773 169.909C-195.44 157.891 -176.751 147.24 -152.725 139.105C-130.524 131.59 -105.797 126.969 -83.0956 126.094C-45.3434 124.64 -5.19209 127.866 36.2425 135.686C73.8024 142.774 110.865 153.292 146.4 166.946C211.94 192.131 267.441 227.102 306.906 268.082C326.689 288.626 342.289 311.064 354.598 336.679C356.403 340.435 358.178 344.308 359.893 348.052C368.626 367.105 377.659 386.806 395.7 403.244C413.147 419.144 436.763 428.775 465.889 431.871C506.225 436.159 555.206 427.191 596.909 407.88C657.009 380.053 698.718 339.55 739.056 300.381C746.127 293.515 753.436 286.416 760.675 279.561C779.466 261.76 804.915 238.693 835.16 218.143C866.075 197.138 897.49 181.706 931.203 170.962C951.838 164.386 973.706 159.955 996.202 157.794C1016.98 155.796 1038.97 155.672 1061.57 157.422C1100.33 160.426 1142.09 168.909 1189.23 183.355C1282.06 211.802 1374.79 246.331 1464.84 285.984C1550.44 323.673 1634.38 366.32 1714.35 412.738L1714.16 412.867C1548.4 316.645 1371.75 239.479 1189.11 183.512C1085.93 151.892 1004.02 147.953 931.327 171.117C857.375 194.682 805.715 237.21 760.903 279.657C753.667 286.51 746.358 293.61 739.287 300.475C698.938 339.658 657.215 380.174 597.074 408.02C577.64 417.019 555.777 424.038 533.851 428.317C522.268 430.578 510.754 432.056 499.624 432.711C495.189 432.978 490.811 433.108 486.505 433.108Z" fill="#FFE492"/>
</g>
<g id="Group_2">
<path id="Vector_2" d="M493.451 423.346C475.336 423.346 458.556 421.158 443.56 416.841C426.839 412.027 412.409 404.567 400.669 394.67C399.63 393.793 398.6 392.887 397.605 391.973C379.732 375.582 370.293 356.124 361.167 337.304C359.32 333.501 357.413 329.567 355.478 325.75C343.956 303.021 330.081 282.989 313.057 264.512C310.96 262.237 308.789 259.957 306.599 257.737C266.577 217.134 210.658 182.624 144.887 157.938C68.5879 129.327 -13.0887 115.426 -85.0977 118.799C-127.189 120.791 -182.952 136.592 -208.096 162.937C-223.153 178.713 -224.856 196.233 -213.029 213.606L-213.282 213.676C-219.481 204.57 -222.029 195.446 -220.85 186.558C-219.767 178.396 -215.557 170.418 -208.333 162.846C-196.884 150.849 -178.25 140.186 -154.449 132.009C-132.452 124.452 -107.832 119.698 -85.1224 118.625C-47.4169 116.859 -7.22165 119.777 34.3448 127.296C71.9954 134.108 109.234 144.367 145.024 157.788C210.833 182.488 266.783 217.019 306.83 257.644C309.02 259.867 311.194 262.148 313.291 264.425C330.326 282.914 344.208 302.957 355.736 325.698C357.674 329.515 359.581 333.449 361.428 337.254C370.551 356.061 379.982 375.506 397.831 391.874C398.823 392.784 399.853 393.69 400.889 394.565C425.149 415.023 458.482 423.346 493.536 423.346C493.728 423.346 493.918 423.346 494.11 423.346C493.89 423.344 493.67 423.346 493.451 423.346ZM500.928 423.224C533.517 422.162 567.144 414.219 595.993 402.404C658.222 376.811 702.946 337.283 746.199 299.058C747.98 297.482 749.761 295.91 751.542 294.338C755.452 290.887 760.088 286.801 764.82 282.682C786.048 264.212 811.74 242.721 841.328 223.377C872.809 202.794 904.26 187.52 937.475 176.68C957.885 170.027 979.454 165.341 1001.58 162.75C1022.09 160.35 1043.75 159.672 1065.98 160.734C1104.37 162.569 1145.65 169.527 1192.18 182.007C1237.54 194.156 1274.84 205.592 1309.53 217.996C1358.69 235.587 1405.51 255.854 1444.84 273.359C1536.25 314.173 1625.95 360.518 1711.43 411.106L1711.25 411.234C1625.77 360.652 1536.08 314.311 1444.68 273.502C1405.36 255.999 1358.55 235.735 1309.4 218.15C1274.71 205.748 1237.43 194.316 1192.08 182.171C1090.72 154.984 1009.85 153.288 937.602 176.837C862.614 201.306 809.211 244.356 765.043 282.787C760.308 286.906 755.675 290.99 751.764 294.442C749.983 296.013 748.203 297.587 746.422 299.162C703.154 337.4 658.414 376.942 596.141 402.553C580.7 408.877 564.27 413.9 547.303 417.482C531.511 420.813 515.943 422.739 500.928 423.224Z" fill="#FFE492"/>
</g>
<g id="Group_3">
<path id="Vector_3" d="M501.109 413.806C498.93 413.806 496.764 413.777 494.615 413.716C476.517 413.208 459.768 410.575 444.835 405.884C428.504 400.755 414.354 393.157 402.782 383.3C401.754 382.422 400.729 381.514 399.74 380.6C382.068 364.289 372.235 345.09 362.73 326.526C360.749 322.656 358.699 318.654 356.621 314.771C344.53 292.119 330.29 272.247 313.081 254.019C310.952 251.765 308.748 249.505 306.525 247.301C265.923 207.052 209.553 172.985 143.512 148.784C66.6696 120.669 -15.2378 107.367 -87.1205 111.332C-127.593 113.6 -183.194 128.499 -209.63 155.85C-224.903 171.652 -227.126 189.22 -216.06 206.653L-216.316 206.718C-222.114 197.584 -224.326 188.439 -222.897 179.536C-221.584 171.347 -217.198 163.348 -209.863 155.759C-198.294 143.79 -179.72 133.123 -156.148 124.908C-134.356 117.314 -109.849 112.432 -87.1452 111.16C-49.4836 109.084 -9.24442 111.691 32.4512 118.911C70.1953 125.447 107.607 135.447 143.65 148.634C209.729 172.851 266.129 206.937 306.756 247.209C308.979 249.414 311.185 251.675 313.315 253.932C330.531 272.17 344.78 292.055 356.877 314.719C358.954 318.604 361.004 322.606 362.985 326.475C372.488 345.029 382.312 364.215 399.963 380.506C400.952 381.42 401.972 382.326 402.999 383.201C450.021 423.252 533.352 418.952 595.075 396.925C659.9 373.588 708.076 334.802 754.666 297.292L755.144 296.907C759.656 293.271 764.322 289.513 768.966 285.802C817.972 246.655 871.836 206.423 943.751 182.396C963.941 175.664 985.213 170.721 1006.97 167.704C1027.21 164.898 1048.55 163.666 1070.39 164.042C1108.48 164.697 1149.28 170.132 1195.13 180.656C1243.32 191.677 1279.59 201.808 1312.72 213.505C1359.92 230.204 1405.64 251.307 1445.98 269.926C1535.8 311.602 1624.13 358.552 1708.52 409.466L1708.33 409.592C1623.95 358.682 1535.63 311.738 1445.82 270.065C1405.49 251.45 1359.77 230.351 1312.58 213.656C1279.47 201.963 1243.21 191.836 1195.04 180.818C1095.65 158.006 1015.84 158.555 943.878 182.547C872.009 206.559 818.167 246.773 769.181 285.907C764.537 289.618 759.87 293.378 755.358 297.012L754.88 297.397C731.662 316.089 707.655 335.417 681.731 352.681C652.596 372.082 624.294 386.603 595.207 397.073C564.775 407.932 531.626 413.806 501.109 413.806Z" fill="#FFE492"/>
</g>
<g id="Group_4">
<path id="Vector_4" d="M1705.42 407.948C1622.13 356.711 1535.18 309.164 1446.97 266.627C1443.23 264.839 1439.49 263.042 1435.73 261.24C1397.53 242.9 1358.02 223.936 1315.77 209.163C1274.78 194.87 1233.24 186.131 1198.01 179.467C1100.77 160.96 1022.01 163.754 950.162 188.257C876.403 213.485 819.249 255.371 773.327 289.028C770.571 291.049 767.82 293.072 765.064 295.098C763.03 296.593 760.994 298.089 758.958 299.582C732.811 318.766 709.026 335.917 682.747 351.567C652.725 369.445 623.788 382.538 594.278 391.597C566.621 400.087 537.078 404.579 509.597 404.58C504.59 404.58 499.658 404.432 494.81 404.131C477.113 403.031 460.729 399.94 446.115 394.945C430.169 389.495 416.299 381.752 404.887 371.932C403.867 371.052 402.851 370.142 401.867 369.227C384.403 353.002 374.189 334.073 364.312 315.768C362.185 311.825 359.984 307.746 357.758 303.788C345.09 281.208 330.482 261.494 313.103 243.521C310.94 241.284 308.701 239.045 306.447 236.861C265.263 196.965 208.445 163.341 142.138 139.622C64.7512 112.005 -17.3843 99.3034 -89.1405 103.856C-138.195 107.03 -188.358 125.481 -211.128 148.724C-226.64 164.559 -229.391 182.183 -219.089 199.689L-219.347 199.75C-224.741 190.584 -226.621 181.411 -224.934 172.485C-223.381 164.267 -218.814 156.242 -211.361 148.632C-199.671 136.698 -181.158 126.03 -157.822 117.786C-136.239 110.161 -111.858 105.151 -89.168 103.684C-51.5504 101.296 -11.27 103.595 30.5548 110.514C68.3895 116.775 105.98 126.517 142.275 139.469C208.624 163.202 265.472 196.845 306.681 236.765C308.937 238.95 311.177 241.192 313.34 243.428C330.729 261.412 345.343 281.136 358.019 303.727C360.245 307.687 362.447 311.764 364.574 315.708C374.444 334.003 384.653 352.92 402.095 369.126C403.079 370.039 404.093 370.947 405.109 371.826C454.197 414.066 537.63 408.79 594.159 391.438C661.604 370.735 713.214 332.873 758.752 299.467C760.788 297.972 762.822 296.476 764.858 294.982C767.611 292.957 770.365 290.934 773.121 288.913C799.335 269.702 825.221 251.033 853.679 233.83C886.405 214.045 917.925 199.088 950.036 188.104C970.014 181.29 990.984 176.091 1012.37 172.652C1032.35 169.436 1053.36 167.651 1074.82 167.345C1112.66 166.804 1152.98 170.716 1198.1 179.3C1233.34 185.967 1274.9 194.71 1315.9 209.011C1358.17 223.79 1397.69 242.759 1435.9 261.102C1439.66 262.904 1443.4 264.701 1447.14 266.49C1535.36 309.029 1622.32 356.582 1705.61 407.824L1705.42 407.948Z" fill="#FFE492"/>
</g>
<g id="Group_5">
<path id="Vector_5" d="M1702.51 406.306C1618.75 353.761 1533.16 305.609 1448.12 263.19C1443.03 260.652 1437.82 258.036 1432.79 255.507C1396.73 237.394 1359.45 218.664 1318.95 204.669C1278.52 190.744 1236.63 183.431 1200.98 178.114C1106.11 163.827 1028.4 168.864 956.444 193.967C887.81 217.998 834.039 254.133 782.039 289.079L776.328 292.915C771.819 295.946 767.155 299.078 762.558 302.151C710.505 336.896 658.397 369.461 593.349 386.117C577.564 390.159 561.356 392.96 545.171 394.446C527.789 396.041 510.906 396.064 494.986 394.513C477.696 392.827 461.683 389.287 447.393 383.99C431.842 378.226 418.251 370.342 407 360.561C405.986 359.675 404.978 358.764 404.002 357.85C386.753 341.721 376.17 323.071 365.937 305.034C363.653 301.01 361.29 296.847 358.905 292.805C345.648 270.295 330.677 250.74 313.134 233.024C310.941 230.81 308.668 228.588 306.379 226.422C264.615 186.88 207.349 153.699 140.77 130.463C62.8359 103.345 -19.5304 91.2419 -91.163 96.3854C-139.77 99.9499 -189.704 118.53 -212.59 141.571C-228.36 157.446 -231.655 175.137 -222.12 192.733L-222.381 192.791C-227.371 183.584 -228.913 174.376 -226.964 165.424C-225.167 157.171 -220.41 149.115 -212.826 141.48C-201.009 129.586 -182.562 118.929 -159.473 110.661C-138.105 103.007 -113.856 97.8774 -91.1959 96.2146C-53.6223 93.5165 -13.3006 95.5052 28.6561 102.125C66.5842 108.111 104.347 117.592 140.899 130.311C207.516 153.559 264.815 186.761 306.604 226.326C308.893 228.494 311.169 230.718 313.362 232.932C330.916 250.656 345.895 270.221 359.157 292.744C361.543 296.786 363.906 300.95 366.19 304.975C376.418 323.001 386.995 341.642 404.225 357.753C405.198 358.663 406.206 359.573 407.217 360.458C455.124 402.11 534.723 400.941 593.242 385.956C658.238 369.314 710.324 336.762 762.355 302.033C766.952 298.96 771.615 295.828 776.125 292.797L781.835 288.96C807.362 271.807 833.754 254.069 862.418 237.568C894.883 218.88 925.595 204.568 956.307 193.814C976.082 186.915 996.755 181.459 1017.75 177.6C1037.49 173.971 1058.17 171.632 1079.23 170.648C1116.9 168.885 1156.75 171.273 1201.05 177.944C1236.71 183.263 1278.62 190.579 1319.08 204.516C1359.6 218.515 1396.89 237.251 1432.96 255.369C1437.99 257.898 1443.2 260.513 1448.28 263.052C1533.34 305.475 1618.93 353.631 1702.7 406.18L1702.51 406.306Z" fill="#FFE492"/>
</g>
<g id="Group_6">
<path id="Vector_6" d="M1699.59 404.665C1616.56 351.537 1532.33 302.782 1449.26 259.756C1443.02 256.523 1436.62 253.161 1430.43 249.91C1396.32 231.992 1361.05 213.464 1322.14 200.181C1281.89 186.495 1239.81 180.664 1203.96 176.767C1111.71 166.586 1035.05 173.868 962.724 199.682C899.602 222.305 847.777 254.365 797.656 285.37C792.382 288.632 786.927 292.005 781.613 295.273C775.372 299.111 770.604 302.027 766.155 304.726C742.327 319.168 713.957 335.798 684.185 349.63C652.635 364.287 622.618 374.431 592.417 380.643C576.536 383.91 560.397 385.97 544.445 386.765C527.317 387.619 510.732 386.991 495.157 384.898C478.281 382.63 462.642 378.641 448.668 373.04C433.516 366.968 420.207 358.943 409.111 349.193C408.111 348.309 407.107 347.396 406.135 346.479C389.113 330.457 378.176 312.095 367.596 294.337C365.143 290.219 362.606 285.96 360.048 281.824C346.195 259.376 330.858 239.982 313.158 222.529C310.932 220.335 308.627 218.134 306.305 215.984C263.961 176.797 206.244 144.058 139.396 121.305C60.9205 94.6859 -21.6766 83.1838 -93.1828 88.9148C-133.87 92.2474 -187.011 107.6 -214.013 134.383C-230.067 150.307 -233.92 168.078 -225.151 185.775L-225.412 185.827C-229.998 176.574 -231.196 167.325 -228.976 158.338C-226.926 150.043 -221.971 141.952 -214.244 134.288C-202.301 122.443 -183.922 111.804 -161.089 103.518C-139.935 95.8415 -115.832 90.5951 -93.2157 88.7422C-55.6861 85.7338 -15.3204 87.4123 26.7627 93.7324C64.7815 99.4425 102.721 108.666 139.525 121.152C206.412 143.917 264.161 176.675 306.53 215.885C308.852 218.034 311.16 220.239 313.386 222.435C331.095 239.897 346.439 259.301 360.3 281.76C362.862 285.898 365.398 290.156 367.852 294.275C378.424 312.023 389.358 330.375 406.36 346.38C407.333 347.295 408.333 348.206 409.333 349.088C449.188 384.112 517.6 395.846 592.332 380.474C660.01 366.555 715.218 335.357 765.966 304.597C770.415 301.898 775.18 298.982 781.42 295.144C786.735 291.876 792.19 288.503 797.463 285.241C822.138 269.977 847.65 254.194 874.864 239.415C905.636 222.702 934.334 209.654 962.592 199.527C982.177 192.538 1002.55 186.826 1023.14 182.552C1042.65 178.503 1063.01 175.611 1083.65 173.954C1121.23 170.938 1160.6 171.801 1204 176.591C1239.88 180.492 1281.99 186.324 1322.27 200.022C1361.2 213.314 1396.48 231.847 1430.6 249.771C1436.79 253.021 1443.19 256.384 1449.44 259.617C1532.51 302.648 1616.74 351.406 1699.79 404.538L1699.59 404.665Z" fill="#FFE492"/>
</g>
<g id="Group_7">
<path id="Vector_7" d="M1696.68 403.024C1614.36 349.308 1531.5 299.948 1450.4 256.319C1443.5 252.609 1436.42 248.713 1429.57 244.946C1396.92 227.004 1363.17 208.452 1325.32 195.688C1285.04 182.165 1242.87 177.852 1206.93 175.415C1118.86 169.285 1041.03 179.091 969.002 205.393C911.648 226.431 862.483 254.575 814.937 281.793C805.333 287.291 795.404 292.976 785.75 298.395C779.845 301.712 774.613 304.625 769.749 307.299C747.13 319.719 717.042 335.645 684.89 348.66C652.584 361.736 622.029 370.407 591.479 375.167C558.16 380.36 524.906 380.398 495.315 375.281C478.863 372.434 463.595 367.997 449.934 362.09C435.186 355.712 422.16 347.548 411.215 337.827C410.223 336.942 409.228 336.027 408.261 335.11C391.481 319.21 380.203 301.149 369.299 283.684C366.661 279.459 363.935 275.092 361.185 270.847C346.724 248.459 331.022 229.221 313.179 212.039C310.921 209.863 308.582 207.681 306.227 205.551C263.303 166.717 205.138 134.42 138.021 112.153C59.0043 86.0341 -23.8236 75.1317 -95.2061 81.45C-143.582 85.8249 -191.884 104.196 -215.396 127.162C-231.758 143.143 -236.179 161.007 -228.183 178.822L-228.446 178.869C-232.626 169.56 -233.478 160.263 -230.98 151.238C-228.672 142.896 -223.505 134.763 -215.627 127.066C-203.558 115.276 -185.25 104.661 -162.684 96.3683C-141.752 88.6765 -117.8 83.315 -95.2446 81.2757C-57.7589 77.9571 -17.3493 79.327 24.863 85.3456C62.9752 90.7803 101.09 99.7462 138.147 111.996C205.303 134.277 263.501 166.592 306.452 205.45C308.807 207.58 311.146 209.764 313.407 211.941C331.259 229.134 346.969 248.38 361.437 270.779C364.188 275.024 366.914 279.393 369.552 283.618C380.451 301.074 391.723 319.127 408.486 335.01C409.453 335.927 410.445 336.839 411.438 337.724C450.608 372.521 517.887 386.455 591.413 374.998C658.443 364.552 716.651 336.224 769.567 307.168C774.428 304.494 779.663 301.583 785.566 298.266C795.217 292.847 805.149 287.163 814.75 281.666C862.307 254.442 911.48 226.291 968.862 205.244C988.274 198.156 1008.35 192.189 1028.53 187.508C1047.83 183.032 1067.86 179.586 1088.06 177.266C1125.63 172.952 1164.52 172.291 1206.95 175.244C1242.92 177.682 1285.13 181.998 1325.44 195.536C1363.32 208.309 1397.09 226.868 1429.75 244.817C1436.6 248.584 1443.68 252.478 1450.58 256.189C1531.69 299.821 1614.55 349.184 1696.87 402.904L1696.68 403.024Z" fill="#FFE492"/>
</g>
<g id="Group_8">
<path id="Vector_8" d="M1693.76 401.381C1612.18 347.072 1530.69 297.111 1451.55 252.883C1444.28 248.818 1436.8 244.515 1429.56 240.352C1398.11 222.258 1365.59 203.547 1328.5 191.195C1288.06 177.787 1245.85 175.011 1209.89 174.063C1125.16 171.664 1048.41 183.78 975.282 211.103C923.995 230.356 878.277 254.723 834.061 278.287C818.859 286.39 804.498 294.043 789.892 301.516C783.951 304.557 778.54 307.29 773.346 309.868C739.834 326.488 711.953 338.504 685.599 347.682C652.538 359.198 621.447 366.397 590.548 369.688C578.561 370.964 566.618 371.6 554.893 371.6C534.107 371.6 513.994 369.606 495.478 365.656C461.969 358.508 434.329 345.319 413.326 326.454C412.337 325.56 411.35 324.645 410.394 323.732C393.87 307.97 382.276 290.23 371.064 273.072C368.223 268.725 365.288 264.231 362.328 259.862C347.25 237.525 331.179 218.448 313.207 201.539C310.915 199.383 308.544 197.22 306.156 195.109C262.652 156.629 204.037 124.774 136.65 102.99C57.0921 77.3735 -25.964 67.0689 -97.2228 73.9746C-145.8 78.7801 -192.708 96.8027 -216.723 119.89C-233.417 135.938 -238.424 153.908 -231.208 171.859L-231.474 171.903C-235.242 162.529 -235.742 153.176 -232.958 144.104C-230.381 135.706 -224.997 127.528 -216.951 119.795C-204.756 108.069 -186.528 97.4894 -164.236 89.1962C-143.53 81.4922 -119.746 76.0262 -97.2641 73.8021C-59.8223 70.1732 -19.3688 71.2329 22.9699 76.9517C61.1756 82.1127 99.4637 90.8207 136.776 102.833C204.202 124.631 262.85 156.504 306.381 195.006C308.769 197.119 311.141 199.282 313.435 201.44C331.418 218.357 347.497 237.445 362.581 259.79C365.541 264.16 368.478 268.655 371.317 273.002C382.523 290.151 394.112 307.885 410.622 323.633C411.578 324.544 412.562 325.459 413.551 326.352C452.771 361.581 517.267 377.313 590.502 369.513C660.216 362.088 721.964 335.126 773.176 309.729C778.367 307.151 783.778 304.42 789.719 301.378C804.322 293.906 818.683 286.254 833.885 278.151C878.106 254.582 923.836 230.212 975.141 210.951C994.408 203.753 1014.18 197.53 1033.92 192.455C1053.03 187.539 1072.74 183.539 1092.48 180.568C1130.13 174.901 1168.54 172.715 1209.9 173.887C1245.89 174.835 1288.14 177.615 1328.63 191.038C1365.74 203.399 1398.28 222.119 1429.75 240.22C1436.98 244.382 1444.46 248.686 1451.73 252.748C1530.87 296.98 1612.37 346.947 1693.96 401.259L1693.76 401.381Z" fill="#FFE492"/>
</g>
<g id="Group_9">
<path id="Vector_9" d="M1690.85 399.74C1608.86 344.061 1530.96 294.9 1452.7 249.446C1445.23 245.11 1437.88 240.681 1430.09 235.992C1399.66 217.663 1368.2 198.711 1331.68 186.704C1290.73 173.302 1246.67 172.186 1212.86 172.713C1131.98 173.807 1056.32 188.234 981.561 216.818C936.705 234.051 895.29 254.745 855.237 274.76C834.188 285.279 814.306 295.212 794.031 304.64C788.013 307.441 782.42 309.993 776.941 312.442C742.973 327.599 714.173 338.486 686.303 346.706C652.475 356.682 620.848 362.408 589.614 364.21C573.566 365.136 557.627 364.962 542.241 363.693C525.951 362.349 510.271 359.771 495.637 356.032C463.202 347.744 436.22 333.969 415.436 315.088C414.455 314.192 413.477 313.275 412.526 312.362C396.28 296.762 384.395 279.36 372.9 262.531C369.833 258.041 366.662 253.398 363.471 248.883C347.761 226.596 331.328 207.677 313.232 191.047C310.905 188.91 308.5 186.767 306.085 184.675C262.001 146.549 202.938 115.136 135.282 93.8353C72.8357 74.2562 8.43863 64.0405 -50.6135 64.0405C-67.3077 64.0405 -83.5622 64.8562 -99.2397 66.5068C-147.231 71.6591 -193.846 89.7462 -218.001 112.586C-235.049 128.709 -240.664 146.801 -234.236 164.906L-234.505 164.944C-237.861 155.497 -238.001 146.08 -234.923 136.955C-232.071 128.496 -226.454 120.264 -218.232 112.489C-205.909 100.837 -187.767 90.3005 -165.761 82.016C-144.989 74.1952 -122.001 68.7727 -99.2891 66.336C-61.8914 62.3969 -21.3938 63.1481 21.074 68.5653C59.3704 73.4492 97.8371 81.8975 135.403 93.6767C203.097 114.99 262.196 146.42 306.307 184.569C308.725 186.66 311.133 188.806 313.46 190.945C331.564 207.583 348.006 226.51 363.724 248.808C366.915 253.323 370.089 257.966 373.155 262.458C384.645 279.28 396.525 296.675 412.757 312.262C413.708 313.174 414.686 314.091 415.664 314.985C454.53 350.293 517.921 368.169 589.592 364.034C662.115 359.849 727.727 334.186 776.787 312.295C782.266 309.846 787.856 307.295 793.874 304.495C814.146 295.071 834.025 285.136 855.073 274.619C895.13 254.602 936.551 233.902 981.423 216.664C1019.92 201.948 1057.69 191.223 1096.9 183.875C1134.72 176.788 1172.65 173.079 1212.86 172.535C1235.8 172.178 1254.52 172.798 1271.77 174.485C1294.04 176.664 1313.68 180.609 1331.81 186.545C1368.36 198.563 1399.84 217.525 1430.29 235.863C1438.07 240.552 1445.42 244.979 1452.89 249.316C1531.16 294.771 1609.06 343.936 1691.06 399.618L1690.85 399.74Z" fill="#FFE492"/>
</g>
<g id="Group_10">
<path id="Vector_10" d="M1687.94 398.096C1606.7 341.808 1530.13 292.061 1453.84 246.008C1446.29 241.452 1438.85 236.758 1430.97 231.789C1401.46 213.17 1370.93 193.915 1334.87 182.209C1293.58 168.87 1249.56 169.403 1215.84 171.357C1139.51 175.626 1064.93 192.364 987.84 222.524C949.857 237.457 913.693 254.545 878.719 271.072C851.072 284.136 824.96 296.476 798.172 307.755C792.118 310.307 786.183 312.747 780.536 315.006C746.501 328.608 715.908 338.653 687.007 345.716C652.401 354.173 620.238 358.429 588.68 358.726C572.623 358.875 556.748 357.955 541.505 355.987C525.525 353.924 510.147 350.697 495.797 346.396C464.475 337.006 438.146 322.646 417.544 303.711C416.577 302.817 415.604 301.899 414.656 300.98C398.715 285.57 386.572 268.536 374.827 252.063C371.504 247.402 368.066 242.581 364.612 237.894C348.259 215.648 331.46 196.89 313.257 180.544C310.897 178.427 308.459 176.302 306.011 174.23C261.347 136.457 201.833 105.488 133.908 84.6693C53.2701 60.0582 -30.2504 50.9528 -101.262 59.0298C-148.632 64.5115 -194.936 82.6456 -219.226 105.226C-236.659 121.434 -242.897 139.663 -237.269 157.943L-237.539 157.976C-240.474 148.447 -240.248 138.957 -236.865 129.769C-233.725 121.241 -227.868 112.949 -219.454 105.127C-207.011 93.5585 -188.959 83.0744 -167.25 74.8074C-146.717 66.9883 -123.917 61.4735 -101.311 58.8573C-63.9548 54.6096 -23.416 55.0488 19.1782 60.1662C57.568 64.7782 96.2079 72.9685 134.026 84.5107C201.993 105.339 261.54 136.328 306.228 174.123C308.679 176.196 311.119 178.322 313.48 180.442C331.694 196.796 348.498 215.563 364.859 237.818C368.316 242.504 371.752 247.326 375.077 251.988C386.816 268.454 398.954 285.481 414.884 300.881C415.832 301.798 416.805 302.716 417.77 303.609C457.044 339.703 517.74 359.217 588.674 358.548C646.232 358.007 707.15 344.123 780.387 314.854C786.031 312.595 791.964 310.157 798.018 307.605C824.798 296.328 850.909 283.991 878.552 270.927C913.531 254.399 949.701 237.307 987.695 222.371C1026.56 207.163 1063.73 195.653 1101.31 187.177C1139.39 178.591 1176.84 173.356 1215.81 171.178C1249.58 169.22 1293.64 168.689 1334.99 182.049C1371.1 193.769 1401.64 213.032 1431.17 231.66C1439.05 236.629 1446.49 241.321 1454.03 245.875C1530.32 291.931 1606.9 341.681 1688.14 397.973L1687.94 398.096Z" fill="#FFE492"/>
</g>
<g id="Group_11">
<path id="Vector_11" d="M1685.02 396.453C1604.54 339.553 1529.3 289.217 1454.99 242.571C1447.45 237.835 1440 232.915 1432.11 227.705C1403.43 208.754 1373.77 189.157 1338.05 177.716C1296.37 164.426 1252.43 166.613 1218.81 170.003C1146.99 177.106 1075.6 195.61 994.121 228.235C963.564 240.527 933.701 254.01 904.822 267.05C869.746 282.887 836.616 297.847 802.313 310.876C796.132 313.225 790.015 315.481 784.132 317.576C749.487 329.906 717.949 338.788 687.712 344.728C670.776 348.055 654.057 350.466 638.02 351.894C620.913 353.415 603.999 353.87 587.747 353.246C554.774 351.979 523.892 346.433 495.961 336.763C465.796 326.319 440.124 311.374 419.659 292.341C418.698 291.439 417.733 290.519 416.791 289.606C401.19 274.423 388.829 257.793 376.878 241.712C373.259 236.844 369.519 231.81 365.757 226.912C348.744 204.703 331.58 186.103 313.284 170.049C310.89 167.948 308.417 165.843 305.938 163.791C260.695 126.371 200.733 95.8441 132.538 75.5121C51.362 51.4047 -32.3866 42.8989 -103.28 51.5599C-179.188 60.9773 -253.157 101.667 -240.296 150.985L-240.568 151.013C-243.786 138.676 -241.901 126.523 -234.968 114.886C-228.636 104.259 -218.246 94.258 -204.085 85.1631C-190.92 76.706 -175.124 69.4046 -157.141 63.461C-140.037 57.8085 -121.431 53.6323 -103.335 51.3873C-66.0223 46.8294 -25.4396 46.9601 17.2839 51.7777C55.7671 56.116 94.5828 64.0484 132.654 75.3552C200.887 95.7012 260.885 126.245 306.155 163.687C308.637 165.74 311.11 167.845 313.506 169.948C331.811 186.009 348.983 204.619 366.004 226.837C369.766 231.735 373.507 236.769 377.126 241.639C389.074 257.714 401.429 274.337 417.021 289.512C417.961 290.425 418.923 291.345 419.885 292.245C459.217 328.823 518.838 350.424 587.764 353.074C646.115 355.313 710.304 343.654 783.997 317.426C789.878 315.331 795.992 313.077 802.172 310.727C836.468 297.702 869.592 282.744 904.662 266.909C933.544 253.868 963.41 240.382 993.973 228.089C1075.48 195.449 1146.91 176.939 1218.76 169.831C1241.36 167.553 1260.06 166.824 1277.64 167.54C1300.1 168.456 1319.9 171.732 1338.17 177.559C1373.93 189.012 1403.61 208.621 1432.31 227.583C1440.19 232.791 1447.64 237.712 1455.18 242.446C1529.5 289.095 1604.74 339.433 1685.22 396.336L1685.02 396.453Z" fill="#FFE492"/>
</g>
<g id="Group_12">
<path id="Vector_12" d="M1682.11 394.814C1602.4 337.294 1528.48 286.372 1456.14 239.137C1448.65 234.25 1441.25 229.13 1433.42 223.708C1405.51 204.394 1376.66 184.421 1341.24 173.226C1298.65 159.824 1252.66 164.197 1221.78 168.652C1137.95 180.595 1062.83 208.361 1000.4 233.95C977.967 243.184 955.587 252.966 933.941 262.425C890.519 281.401 849.508 299.324 806.457 314C800.126 316.16 793.828 318.229 787.732 320.151C752.412 331.27 719.928 338.988 688.425 343.743C652.711 349.134 618.529 350.49 586.819 347.771C554.245 344.977 523.73 338.033 496.129 327.13C467.179 315.696 442.164 300.168 421.774 280.976C420.823 280.075 419.864 279.153 418.927 278.236C403.714 263.332 391.199 247.158 379.094 231.517C375.129 226.39 371.026 221.092 366.904 215.934C348.973 193.446 331.944 175.533 313.315 159.557C310.888 157.476 308.385 155.391 305.87 153.357C260.042 116.293 199.629 86.2084 131.165 66.3575C49.4502 42.7556 -34.5292 34.8476 -105.302 44.0925C-181.482 54.1757 -253.939 94.3134 -243.326 144.032L-243.598 144.055C-246.231 131.72 -243.953 119.578 -236.83 107.968C-230.301 97.3305 -219.85 87.3187 -205.764 78.2133C-192.628 69.7214 -176.915 62.366 -159.058 56.3474C-142.056 50.6165 -123.485 46.32 -105.357 43.9199C-68.0852 39.0517 -27.4613 38.8739 15.3885 43.39C53.9652 47.4547 92.9568 55.1291 131.281 66.1989C199.786 86.0603 260.231 116.162 306.082 153.249C308.596 155.285 311.103 157.371 313.532 159.453C332.172 175.436 349.207 193.359 367.146 215.856C371.268 221.013 375.371 226.314 379.336 231.44C391.438 247.076 403.95 263.244 419.152 278.142C420.089 279.059 421.045 279.979 421.996 280.88C461.634 318.187 520.18 341.881 586.852 347.598C646.649 352.726 712.316 343.696 787.609 319.995C793.701 318.074 800 316.007 806.326 313.847C849.365 299.174 890.371 281.255 933.784 262.28C955.43 252.821 977.813 243.038 1000.25 233.802C1042.23 216.597 1077.15 203.885 1110.15 193.798C1148.99 181.925 1185.48 173.644 1221.72 168.481C1243.8 165.295 1263.06 163.852 1280.58 164.071C1303.13 164.354 1323.01 167.296 1341.36 173.069C1376.82 184.278 1405.7 204.263 1433.62 223.59C1441.45 229.01 1448.85 234.129 1456.33 239.013C1528.68 286.25 1602.6 337.175 1682.32 394.698L1682.11 394.814Z" fill="#FFE492"/>
</g>
<g id="Group_13">
<path id="Vector_13" d="M1679.2 393.169C1600.25 335.026 1527.66 283.517 1457.28 235.697C1449.9 230.682 1442.6 225.385 1434.86 219.776C1407.69 200.073 1379.6 179.699 1344.42 168.731C1301.37 155.36 1255.51 161.508 1224.75 167.296C1148.8 181.469 1081.06 208.454 1006.69 239.658C993.273 245.307 979.706 251.138 966.584 256.778C916.12 278.468 863.94 300.895 810.599 317.119C804.119 319.092 797.633 320.976 791.327 322.719C755.767 332.536 721.384 339.274 689.131 342.748C652.593 346.684 617.858 346.528 585.882 342.289C553.763 338.031 523.62 329.688 496.289 317.49C468.63 305.146 444.266 289.036 423.876 269.607C422.933 268.704 421.982 267.78 421.051 266.863C406.297 252.307 393.702 236.66 381.523 221.53C377.135 216.077 372.598 210.441 368.039 204.955C349.407 182.49 332.023 164.731 313.331 149.065C310.877 147.008 308.338 144.941 305.788 142.922C259.388 106.206 198.53 76.5647 129.791 57.1982C47.5402 34.1018 -36.6673 26.7934 -107.324 36.6204C-181.087 46.9913 -254.882 85.7206 -246.36 137.073L-246.632 137.09C-248.68 124.755 -246.008 112.627 -238.696 101.043C-231.972 90.3936 -221.458 80.3731 -207.448 71.2572C-181.6 54.4408 -145.129 41.7536 -107.385 36.4479C-70.1574 31.2712 -29.4895 30.7831 13.4895 34.9977C52.1596 38.7905 91.3243 46.2052 129.901 57.0379C198.678 76.4148 259.572 106.075 306.002 142.809C308.555 144.829 311.094 146.896 313.551 148.955C332.251 164.629 349.643 182.396 368.281 204.87C372.839 210.357 377.379 215.994 381.768 221.446C393.944 236.573 406.536 252.217 421.281 266.765C422.21 267.682 423.161 268.604 424.104 269.507C464.898 308.379 520.859 333.487 585.934 342.117C646.193 350.107 715.256 343.527 791.211 322.559C797.515 320.816 803.995 318.933 810.472 316.962C863.795 300.743 915.969 278.32 966.422 256.633C979.544 250.993 993.111 245.163 1006.53 239.514C1039.08 225.854 1076.96 210.186 1114.56 197.105C1153.89 183.422 1189.9 173.618 1224.67 167.131C1246.55 163.012 1265.8 160.875 1283.51 160.6C1305.84 160.251 1326.37 162.935 1344.53 168.576C1360.29 173.489 1376.15 180.822 1393.02 190.994C1407.92 199.976 1421.72 209.984 1435.06 219.661C1442.79 225.268 1450.1 230.565 1457.48 235.578C1527.86 283.401 1600.45 334.911 1679.4 393.056L1679.2 393.169Z" fill="#FFE492"/>
</g>
<g id="Group_14">
<path id="Vector_14" d="M1676.28 391.528C1598.11 332.758 1526.85 280.661 1458.42 232.262C1451.18 227.137 1444 221.68 1436.4 215.904C1409.94 195.791 1382.58 174.994 1347.6 164.241C1314.91 154.224 1275.7 154.782 1227.72 165.946C1160.64 181.467 1100.67 207.429 1037.18 234.918C1029.27 238.341 1021.1 241.879 1012.96 245.374C1009.78 246.746 1006.59 248.121 1003.41 249.495C942.912 275.586 880.359 302.565 814.739 320.243C808.106 322.031 801.439 323.731 794.923 325.292C758.584 333.995 723.23 339.534 689.847 341.755C652.466 344.24 617.173 342.578 584.956 336.812C553.337 331.152 523.565 321.409 496.467 307.852C470.201 294.711 446.491 278.02 425.994 258.239C425.06 257.335 424.117 256.409 423.191 255.491C408.997 241.391 396.444 226.376 384.301 211.855C379.385 205.974 374.298 199.892 369.19 193.973C349.838 171.524 332.102 153.918 313.366 138.569C310.877 136.529 308.307 134.483 305.724 132.484C258.736 96.1233 197.428 66.9229 128.419 48.0411C45.6353 25.4518 -38.8057 18.7413 -109.345 29.1505C-181.752 39.9239 -255.443 78.9705 -249.389 130.117L-249.664 130.131C-251.123 117.794 -248.062 105.68 -240.56 94.1258C-233.637 83.4639 -223.063 73.4313 -209.128 64.3084C-183.39 47.4571 -147.045 34.5816 -109.408 28.9814C-72.2216 23.4944 -31.5125 22.6962 11.5929 26.6109C50.3564 30.1283 89.6998 37.285 128.529 47.8807C197.576 66.7748 258.923 95.9908 305.93 132.371C308.513 134.37 311.088 136.42 313.578 138.459C332.322 153.816 350.069 171.428 369.426 193.886C374.537 199.805 379.621 205.888 384.54 211.769C396.678 226.287 409.231 241.299 423.419 255.393C424.345 256.311 425.285 257.235 426.219 258.14C467.898 298.361 522.812 325.505 585.027 336.639C646.443 347.63 717.028 343.756 794.824 325.125C801.335 323.563 807.998 321.866 814.629 320.079C880.227 302.408 942.77 275.434 1003.25 249.346C1006.44 247.971 1009.62 246.598 1012.81 245.226C1020.94 241.731 1029.11 238.193 1037.02 234.772C1100.52 207.278 1160.51 181.309 1227.62 165.78C1249.3 160.736 1268.54 157.907 1286.45 157.128C1308.87 156.154 1329.48 158.495 1347.72 164.083C1363.39 168.899 1379.05 176.264 1395.61 186.602C1410.21 195.723 1423.63 205.925 1436.61 215.79C1444.21 221.565 1451.39 227.02 1458.63 232.143C1527.06 280.544 1598.32 332.642 1676.49 391.415L1676.28 391.528Z" fill="#FFE492"/>
</g>
<g id="Group_15">
<path id="Vector_15" d="M1673.37 389.885C1602.02 335.12 1530.09 280.93 1459.57 228.823C1452.39 223.549 1445.28 217.883 1437.74 211.885C1413.24 192.374 1385.48 170.261 1350.78 159.749C1317.71 149.749 1278.43 151.333 1230.69 164.591C1173.92 180.302 1123.68 203.404 1070.49 227.861C1053.84 235.52 1036.61 243.442 1019.24 251.083C988.917 264.45 956.114 278.595 921.728 291.477C884.902 305.275 851.258 315.703 818.873 323.362C812.069 324.971 805.221 326.485 798.513 327.86C761.404 335.465 725.088 339.793 690.576 340.724C652.37 341.752 616.52 338.594 584.016 331.329C523.994 317.748 471.534 289.332 428.096 246.869C427.17 245.962 426.236 245.035 425.315 244.116C411.842 230.64 399.509 216.422 387.583 202.672C381.968 196.2 376.164 189.507 370.325 182.993C350.237 160.549 332.144 143.098 313.386 128.075C310.861 126.053 308.258 124.026 305.645 122.048C258.085 86.0372 196.326 57.2813 127.048 38.8822C43.7285 16.7985 -40.9406 10.6893 -111.364 21.6789C-184.211 33.1112 -256.055 71.6401 -252.42 123.16L-252.695 123.167C-253.566 110.826 -250.109 98.7262 -242.422 87.2016C-235.3 76.5257 -224.665 66.4826 -210.809 57.3527C-197.756 48.7511 -182.285 41.23 -164.827 34.9971C-147.877 28.9471 -129.913 24.4084 -111.433 21.508C-74.2878 15.7126 -33.5347 14.604 9.69711 18.2173C48.5541 21.4645 88.0706 28.3615 127.153 38.7201C196.472 57.1296 258.266 85.903 305.854 121.931C308.467 123.911 311.075 125.94 313.6 127.961C332.367 142.993 350.468 160.451 370.564 182.902C376.404 189.418 382.207 196.111 387.822 202.584C399.748 216.333 412.078 230.549 425.546 244.021C426.464 244.941 427.401 245.866 428.325 246.773C471.73 289.203 524.142 317.596 584.107 331.163C645.874 344.968 719.985 343.769 798.427 327.693C805.13 326.318 811.978 324.805 818.777 323.198C891.184 306.077 957.433 278.114 1019.08 250.939C1036.46 243.297 1053.68 235.377 1070.33 227.718C1123.53 203.255 1173.78 180.149 1230.58 164.43C1278.39 151.152 1317.75 149.568 1350.9 159.59C1366.44 164.298 1381.86 171.678 1398.06 182.148C1412.35 191.38 1425.37 201.749 1437.96 211.775C1445.49 217.773 1452.6 223.438 1459.78 228.708C1530.3 280.817 1602.23 335.007 1673.58 389.773L1673.37 389.885Z" fill="#FFE492"/>
</g>
<g id="Group_16">
<path id="Vector_16" d="M1670.46 388.245C1600.2 333.177 1529.63 278.384 1460.72 225.388C1453.76 220.056 1446.86 214.29 1439.55 208.186C1415.66 188.22 1388.57 165.589 1353.97 155.255C1320.5 145.273 1281.15 147.884 1233.66 163.235C1183.9 179.295 1138.18 201.971 1093.97 223.903C1071.8 234.9 1048.88 246.271 1025.52 256.793C988.653 273.418 957.633 286.1 927.897 296.706C891.23 309.784 856.921 319.524 823.013 326.482C816.053 327.911 809.018 329.239 802.107 330.43C766.097 336.629 730.735 339.767 696.907 339.769C695.027 339.769 693.159 339.758 691.29 339.739C652.18 339.335 615.775 334.66 583.084 325.847C567.305 321.57 551.853 316.141 537.159 309.709C523.348 303.664 509.775 296.544 496.818 288.547C473.507 274.16 451.715 256.807 430.204 235.499C429.28 234.582 428.36 233.664 427.445 232.742C414.963 220.169 403.155 207.027 391.737 194.317C385.144 186.981 378.329 179.394 371.465 172.009C350.33 149.256 332.426 132.467 313.407 117.577C310.849 115.574 308.214 113.566 305.567 111.607C257.43 75.9541 195.224 47.6409 125.677 29.7247C41.8237 8.14813 -43.0763 2.63853 -113.384 14.2085C-184.866 26.0051 -256.616 64.8268 -255.449 116.202L-255.723 116.203C-256.267 92.2738 -241.315 69.519 -212.486 50.4001C-199.455 41.7583 -184.066 34.1832 -166.743 27.8806C-149.886 21.7487 -131.958 17.0914 -113.453 14.0377C-76.352 7.932 -35.555 6.51495 7.80325 9.82664C46.7536 12.8019 86.446 19.441 125.778 29.5608C195.369 47.4893 257.612 75.8199 305.779 111.494C308.425 113.455 311.066 115.464 313.625 117.467C332.652 132.366 350.563 149.16 371.704 171.922C378.568 179.308 385.386 186.896 391.976 194.232C403.394 206.94 415.2 220.081 427.678 232.649C428.593 233.571 429.511 234.49 430.435 235.405C476.145 280.685 526.112 310.216 583.191 325.687C662.249 347 745.835 339.939 802.035 330.262C808.941 329.072 815.97 327.745 822.928 326.316C900.914 310.312 972.077 280.679 1025.36 256.652C1048.72 246.133 1071.64 234.762 1093.8 223.767C1138.02 201.831 1183.75 179.148 1233.53 163.081C1254.78 156.212 1274.02 151.994 1292.33 150.188C1314.91 147.961 1335.69 149.613 1354.08 155.1C1369.58 159.728 1384.86 167.167 1400.79 177.841C1414.83 187.246 1427.51 197.838 1439.77 208.084C1447.08 214.186 1453.97 219.95 1460.93 225.278C1529.84 278.274 1600.41 333.067 1670.67 388.135L1670.46 388.245Z" fill="#FFE492"/>
</g>
<g id="Group_17">
<path id="Vector_17" d="M1667.54 386.601L1461.86 221.951C1455.15 216.574 1448.47 210.723 1441.41 204.53C1418.1 184.092 1391.69 160.927 1357.15 150.764C1323.75 140.937 1283.2 144.677 1236.63 161.882C1191.85 178.422 1151.01 200.416 1111.52 221.688C1085.77 235.553 1059.15 249.89 1031.8 262.507C949.595 300.431 877.751 322.83 805.707 333.001C775.819 337.219 746.336 339.342 717.742 339.342C709.075 339.342 700.496 339.147 692.007 338.756C651.974 336.916 615.013 330.728 582.155 320.368C551.702 310.764 523.842 297.207 496.994 278.919C475.554 264.316 455.002 246.907 432.317 224.132C420.344 212.112 408.75 199.623 397.538 187.546C372.163 160.216 345.925 131.955 313.44 107.083C263.613 68.9336 198.211 39.0168 124.303 20.5655C39.9193 -0.502112 -45.2115 -5.41387 -115.404 6.73655C-183.363 18.5 -257.122 55.5944 -258.48 109.244L-258.754 109.24C-258.147 85.2602 -242.728 62.5089 -214.165 43.4458C-188.339 26.2093 -153.291 13.1124 -115.476 6.56748C-78.4158 0.153255 -37.5748 -1.57405 5.9071 1.4361C44.951 4.13774 84.8192 10.5206 124.404 20.4034C160.975 29.5332 195.707 41.5511 227.639 56.1243C259.838 70.8195 288.777 87.9253 313.649 106.967C346.147 131.849 372.394 160.117 397.774 187.454C408.986 199.529 420.58 212.016 432.55 224.034C465.648 257.266 512.578 298.228 582.279 320.207C662.213 345.413 747.866 340.982 805.646 332.827C877.655 322.663 949.466 300.273 1031.64 262.362C1058.98 249.75 1085.6 235.414 1111.34 221.552C1150.84 200.277 1191.69 178.277 1236.49 161.729C1283.14 144.494 1323.78 140.75 1357.27 150.603C1372.73 155.154 1387.87 162.658 1403.55 173.546C1417.35 183.131 1429.7 193.957 1441.63 204.425C1448.7 210.618 1455.37 216.466 1462.08 221.841L1667.76 386.492L1667.54 386.601Z" fill="#FFE492"/>
</g>
<g id="Group_18">
<path id="Vector_18" d="M1665.89 373.943C1613.51 328.099 1568.57 290.898 1524.47 256.873C1503.06 240.344 1481.19 224.075 1459.48 208.517C1452.91 203.811 1446.4 198.805 1439.51 193.505C1422.2 180.183 1404.3 166.408 1383.69 156.186C1372.63 150.686 1361.98 146.749 1351.14 144.148C1317.85 136.087 1278.8 141.417 1235.07 159.992C1212.43 169.591 1191.82 180.514 1174.64 189.933C1156.46 199.905 1138.52 210.902 1121.18 221.536C1096.24 236.822 1070.46 252.627 1042.74 266.202C1025.88 274.486 1008.79 281.889 991.932 288.205C958.213 300.842 922.022 311.255 884.363 319.154C861.096 323.98 837.716 327.628 814.877 329.995C795.193 332.028 775.473 333.201 756.262 333.481C727.509 333.903 699.496 332.294 672.999 328.695C644.827 324.867 618.165 318.758 593.758 310.535C571.993 303.202 551.435 293.969 530.91 282.307C492.664 260.593 462.158 235.485 439.855 216.036C428.899 206.438 418.201 196.649 407.854 187.183C378.063 159.921 349.923 134.172 314.71 111.235C285.991 92.6516 253.223 76.6143 217.31 63.5663C189.711 53.5388 159.695 45.338 128.095 39.1905C120.568 37.7281 112.899 36.3651 105.306 35.1433C72.6154 29.8916 35.814 26.4719 -4.0735 24.9781C-44.288 23.4373 -79.0806 24.7707 -110.433 29.0585C-128.157 31.4638 -145.33 35.2374 -161.48 40.2729C-218.496 58.0515 -255.108 87.8967 -259.417 120.111L-259.76 120.092C-258.611 111.504 -255.239 103.045 -249.741 94.9472C-244.517 87.2553 -237.342 79.8371 -228.416 72.8983C-211.552 59.791 -188.457 48.4406 -161.631 40.0759C-145.456 35.0317 -128.256 31.2529 -110.504 28.8441C-79.1191 24.5528 -44.299 23.2177 -4.05153 24.7602C35.8579 26.254 72.6786 29.6772 105.391 34.9324C112.992 36.156 120.664 37.519 128.197 38.9831C159.821 45.1341 189.862 53.3419 217.483 63.378C253.421 76.4348 286.216 92.4861 314.949 111.082C350.184 134.032 378.33 159.788 408.132 187.057C418.475 196.524 429.173 206.311 440.127 215.908C462.419 235.347 492.911 260.443 531.136 282.143C551.639 293.793 572.175 303.017 593.914 310.341C641.683 326.434 696.3 334.147 756.251 333.263C775.445 332.983 795.151 331.81 814.819 329.779C837.641 327.412 861.005 323.767 884.253 318.945C921.89 311.051 958.059 300.645 991.756 288.015C1008.6 281.704 1025.68 274.305 1042.53 266.027C1070.23 252.46 1096.01 236.658 1120.93 221.377C1138.29 210.741 1156.22 199.741 1174.42 189.766C1191.6 180.342 1212.22 169.415 1234.87 159.809C1254.35 151.539 1273.2 145.825 1290.92 142.825C1312.68 139.141 1332.98 139.517 1351.26 143.944C1362.14 146.554 1372.82 150.502 1383.91 156.013C1404.54 166.251 1422.45 180.035 1439.78 193.365C1446.67 198.664 1453.17 203.67 1459.73 208.373C1481.46 223.932 1503.32 240.203 1524.74 256.735C1568.84 290.764 1613.79 327.968 1666.17 373.816L1665.89 373.943Z" fill="#FFE492"/>
</g>
<g id="Group_19">
<path id="Vector_19" d="M1664.23 361.283C1615.67 314.663 1570.09 275.651 1524.9 242.02C1502.85 225.593 1480.04 209.801 1457.09 195.085C1451 191.181 1444.99 187.123 1438.63 182.828C1419.57 169.967 1399.86 156.668 1377.79 147.466C1366.64 142.8 1355.96 139.551 1345.13 137.533C1303.66 129.801 1261.54 144.449 1233.5 158.099C1213.64 167.741 1195.5 178.643 1177.12 189.898C1161.04 199.749 1145.9 210.347 1129.88 221.565C1106.1 238.217 1081.51 255.436 1053.69 269.894C1037.18 278.52 1019.94 285.979 1002.47 292.062C969.917 303.395 934.273 312.195 893.498 318.968C870.678 322.758 847.309 325.458 824.039 326.99C804.404 328.267 784.805 328.724 765.784 328.342C737.484 327.781 709.823 325.257 683.563 320.842C655.984 316.204 629.669 309.427 605.352 300.7C584.046 293.055 563.475 283.57 542.46 271.704C504.296 250.183 471.603 226.325 447.387 207.943C438.423 201.138 429.602 194.292 421.07 187.669C387.09 161.294 354.996 136.379 315.98 115.39C286.821 99.7031 254.084 86.4389 218.684 75.967C191.899 68.0433 163.509 62.1067 131.896 57.8172C124.6 56.8289 117.177 55.9382 109.837 55.1695C77.5976 51.8108 43.1897 50.5402 1.55997 49.2259C-28.4484 48.2307 -67.7313 47.5753 -105.47 51.3785C-123.343 53.1459 -140.62 56.2153 -156.825 60.4979C-213.879 75.58 -252.582 101.927 -260.359 130.979L-260.766 130.936C-258.705 123.232 -254.528 115.676 -248.358 108.476C-242.478 101.615 -234.75 95.0371 -225.393 88.9192C-207.611 77.2969 -183.956 67.3845 -156.984 60.2556C-140.749 55.9643 -123.439 52.8897 -105.536 51.1188C-67.7615 47.3104 -28.4484 47.9675 1.57919 48.9627C43.2227 50.277 77.6416 51.5476 109.903 54.9081C117.249 55.6785 124.677 56.5692 131.981 57.5575C163.624 61.8522 192.042 67.7941 218.857 75.7264C254.292 86.2088 287.057 99.4835 316.246 115.186C355.29 136.191 387.398 161.112 421.388 187.498C429.918 194.119 438.739 200.966 447.703 207.769C471.913 226.143 504.593 249.993 542.735 271.503C563.725 283.357 584.274 292.832 605.555 300.468C653.37 317.628 707.286 326.916 765.797 328.077C784.803 328.457 804.382 328.002 823.998 326.725C847.246 325.194 870.596 322.498 893.393 318.71C934.135 311.944 969.75 303.151 1002.27 291.828C1019.73 285.752 1036.94 278.304 1053.43 269.687C1081.23 255.241 1105.81 238.029 1129.58 221.385C1145.61 210.162 1160.74 199.563 1176.84 189.706C1195.22 178.445 1213.37 167.539 1233.26 157.886C1251.43 149.037 1269.36 142.671 1286.54 138.962C1307.38 134.465 1327.13 133.899 1345.25 137.277C1356.12 139.304 1366.84 142.563 1378.02 147.243C1400.13 156.462 1419.86 169.773 1438.93 182.645C1445.29 186.938 1451.31 190.994 1457.39 194.897C1480.35 209.618 1503.16 225.415 1525.21 241.848C1570.42 275.488 1616.01 314.506 1664.57 361.137L1664.23 361.283Z" fill="#FFE492"/>
</g>
<g id="Group_20">
<path id="Vector_20" d="M1662.57 348.621C1617.12 300.592 1572.23 260.864 1525.32 227.167C1502.65 210.84 1478.89 195.528 1454.71 181.652C1449.55 178.686 1444.23 175.538 1439.08 172.495C1417.84 159.921 1395.87 146.92 1371.88 138.747C1360.63 134.884 1349.91 132.322 1339.13 130.915C1297.75 125.514 1258 141.685 1231.95 156.201C1214.28 166 1198.14 177.106 1182.53 187.849L1179.6 189.86C1165.43 199.605 1152.13 210.293 1138.05 221.61C1115.63 239.631 1092.44 258.264 1064.63 273.585C1048.45 282.565 1031.08 290.079 1013 295.918C981.484 306.099 946.408 313.363 902.624 318.781C879.983 321.582 856.625 323.332 833.195 323.98C813.61 324.501 794.132 324.24 775.297 323.199C718.276 320.064 664.998 309.184 616.94 290.863C596.165 282.943 575.58 273.208 554.011 261.098C517.509 240.647 485.044 219.627 454.923 199.849C450.883 197.198 446.888 194.564 442.922 191.952C401.782 164.85 362.925 139.25 317.258 119.548C287.445 106.684 254.741 96.1949 220.058 88.3689C194.595 82.624 166.999 78.7231 135.699 76.4433C128.645 75.9326 121.47 75.5125 114.372 75.1953C96.5154 74.411 77.576 74.2837 57.5237 74.1495C41.4176 74.0415 24.7646 73.9299 7.19104 73.475C-26.7497 72.5216 -65.2164 71.4426 -100.512 73.7016C-118.723 74.8676 -136.104 77.2311 -152.175 80.7276C-209.207 93.1377 -250.004 115.99 -261.307 141.858L-261.771 141.776C-258.792 134.956 -253.813 128.303 -246.973 122.002C-240.433 115.976 -232.156 110.235 -222.373 104.938C-203.662 94.8075 -179.441 86.3365 -152.334 80.4383C-136.228 76.9331 -118.811 74.5644 -100.564 73.3965C-65.2329 71.1359 -26.747 72.2165 7.20752 73.17C24.7701 73.6231 41.4231 73.7364 57.5237 73.8445C77.5843 73.9787 96.5291 74.1059 114.402 74.892C121.506 75.211 128.689 75.6311 135.749 76.1418C167.087 78.4233 194.716 82.3294 220.215 88.083C254.938 95.9178 287.678 106.419 317.525 119.297C363.232 139.017 402.109 164.628 443.266 191.742C447.231 194.355 451.229 196.987 455.266 199.64C485.382 219.414 517.836 240.43 554.327 260.873C575.874 272.97 596.437 282.695 617.188 290.605C665.182 308.903 718.392 319.767 775.339 322.899C794.152 323.938 813.61 324.2 833.173 323.678C856.578 323.03 879.915 321.282 902.531 318.484C946.271 313.072 981.305 305.816 1012.78 295.649C1030.82 289.823 1048.16 282.322 1064.31 273.358C1092.09 258.056 1115.26 239.434 1137.66 221.424C1151.75 210.101 1165.06 199.408 1179.24 189.656L1182.17 187.645C1197.79 176.897 1213.94 165.784 1231.62 155.974C1257.76 141.412 1297.65 125.193 1339.22 130.619C1350.05 132.033 1360.81 134.604 1372.11 138.482C1396.15 146.672 1418.14 159.687 1439.41 172.275C1444.55 175.318 1449.87 178.466 1455.03 181.431C1479.22 195.314 1502.99 210.635 1525.68 226.97C1572.6 260.681 1617.51 300.423 1662.97 348.467L1662.57 348.621Z" fill="#FFE492"/>
</g>
<g id="Group_21">
<path id="Vector_21" d="M1660.91 335.957C1619.18 287.204 1573.71 245.604 1525.76 212.316C1502.44 196.092 1477.74 181.258 1452.34 168.224C1448.67 166.341 1444.91 164.387 1441.28 162.498C1417.27 150.016 1392.44 137.108 1365.99 130.031C1354.64 126.962 1343.9 125.088 1333.14 124.3C1291.88 121.281 1254.49 138.95 1230.39 154.304C1215.43 163.79 1201.92 174.338 1188.86 184.54C1186.6 186.306 1184.35 188.068 1182.08 189.823C1169.66 199.465 1158.04 210.237 1145.75 221.64C1124.84 241.025 1103.22 261.07 1075.58 277.279C1059.34 286.798 1042.32 294.157 1023.53 299.78C984.243 311.54 944.976 315.892 911.75 318.601C889.277 320.431 865.93 321.232 842.352 320.978C822.827 320.743 803.467 319.761 784.814 318.064C729.504 313.042 676.924 300.583 628.534 281.032C608.399 272.899 587.803 262.912 565.563 250.5C543.098 237.992 522.164 225.957 501.916 214.317C488.157 206.406 475.159 198.934 462.466 191.765C414.485 164.665 370.536 140.838 318.547 123.711C288.093 113.68 255.422 105.962 221.44 100.773C197.084 97.0538 171.05 95.2428 139.511 95.0702C132.707 95.0388 125.776 95.0894 118.914 95.2219C108.491 95.4362 97.7077 95.8842 86.2952 96.36C64.3935 97.2716 39.5652 98.3052 12.8215 97.7266C2.63733 97.5052 -7.75291 97.1932 -17.8024 96.8899C-43.6503 96.1108 -70.3775 95.3055 -95.5576 96.0254C-114.049 96.5553 -131.537 98.2146 -147.531 100.958C-204.467 110.728 -247.355 130.087 -262.261 152.744L-262.769 152.61C-258.867 146.677 -253.085 140.928 -245.586 135.523C-238.383 130.333 -229.556 125.43 -219.356 120.952C-199.699 112.324 -174.915 105.295 -147.679 100.622C-131.647 97.8712 -114.12 96.2067 -95.5878 95.6768C-70.3802 94.9552 -43.642 95.7622 -17.7804 96.5413C-7.73367 96.8446 2.65659 97.1566 12.838 97.378C39.5569 97.9566 64.3661 96.9248 86.2567 96.0132C97.6748 95.5373 108.461 95.0894 118.895 94.875C125.765 94.7425 132.701 94.692 139.513 94.7234C171.096 94.8942 197.169 96.7104 221.566 100.435C255.59 105.631 288.305 113.358 318.797 123.403C342.281 131.138 366.079 140.939 391.55 153.363C414.354 164.485 436.536 176.655 462.829 191.505C475.522 198.676 488.52 206.148 502.282 214.059C522.526 225.697 543.461 237.733 565.92 250.239C588.138 262.638 608.713 272.615 628.823 280.739C677.146 300.264 729.653 312.706 784.885 317.72C803.517 319.416 822.852 320.396 842.354 320.631C865.905 320.886 889.228 320.086 911.673 318.255C944.858 315.552 984.072 311.205 1023.29 299.466C1042.03 293.859 1059.01 286.519 1075.2 277.025C1102.8 260.843 1124.4 240.814 1145.29 221.444C1157.59 210.035 1169.21 199.258 1181.65 189.605C1183.91 187.85 1186.17 186.088 1188.43 184.324C1201.5 174.115 1215.01 163.559 1230 154.062C1245.67 144.073 1261.76 136.388 1277.8 131.222C1296.8 125.102 1315.44 122.658 1333.19 123.959C1344 124.75 1354.8 126.632 1366.2 129.714C1392.71 136.81 1417.57 149.734 1441.61 162.231C1445.25 164.121 1449 166.075 1452.67 167.955C1478.09 181 1502.81 195.848 1526.15 212.084C1551.61 229.76 1576.55 249.899 1600.26 271.941C1621.22 291.422 1641.79 312.906 1661.38 335.793L1660.91 335.957Z" fill="#FFE492"/>
</g>
<g id="Group_22">
<path id="Vector_22" d="M1659.25 323.292C1620.63 273.14 1575.86 230.807 1526.19 197.465C1502.24 181.344 1476.59 166.989 1449.97 154.795C1448.7 154.214 1447.43 153.634 1446.16 153.052C1418.48 140.356 1389.85 127.227 1360.11 121.317C1348.59 119.027 1337.81 117.84 1327.16 117.686C1286.06 117.097 1251.01 136.242 1228.85 152.405C1215.81 161.861 1204.23 172.225 1193.03 182.247C1190.27 184.725 1187.4 187.288 1184.58 189.784C1173.81 199.29 1163.81 210.098 1153.22 221.543C1133.95 242.359 1114.03 263.883 1086.53 280.972C1070.62 290.858 1053.46 298.273 1034.07 303.641C995.878 314.216 957.095 316.992 920.876 318.418C898.543 319.297 875.204 319.147 851.508 317.974C832.047 316.98 812.81 315.281 794.33 312.924C740.903 306.127 689.02 292.089 640.13 271.199C620.551 262.834 600.529 252.889 577.124 239.9C532.642 215.282 499.611 197.942 470.026 183.68C411.182 155.312 366.271 138.623 319.86 127.876C288.788 120.681 256.15 115.736 222.847 113.177C199.742 111.403 175.221 111.561 143.344 113.697C136.812 114.139 130.129 114.66 123.479 115.248C117.197 115.811 110.816 116.456 104.058 117.137C79.1091 119.656 50.8293 122.511 18.4631 121.978C1.40344 121.697 -16.0218 120.928 -32.8726 120.186C-52.0235 119.342 -71.8257 118.469 -90.6002 118.35C-109.424 118.232 -127.02 119.187 -142.884 121.191C-199.631 128.357 -244.616 144.227 -263.217 163.642L-263.745 163.438C-258.913 158.394 -252.329 153.55 -244.176 149.041C-236.306 144.687 -226.935 140.624 -216.322 136.962C-195.706 129.847 -170.353 124.259 -143.005 120.806C-127.097 118.798 -109.463 117.84 -90.5947 117.958C-71.8038 118.077 -51.9906 118.95 -32.8314 119.795C-15.986 120.538 1.43088 121.306 18.4768 121.587C50.7853 122.119 79.0349 119.267 103.957 116.752C110.717 116.069 117.103 115.426 123.388 114.861C130.046 114.273 136.735 113.752 143.273 113.308C175.199 111.171 199.761 111.011 222.916 112.79C256.266 115.352 288.95 120.304 320.066 127.51C366.541 138.271 411.498 154.978 470.394 183.369C499.99 197.637 533.032 214.982 577.525 239.607C600.914 252.585 620.914 262.52 640.471 270.876C689.295 291.736 741.101 305.755 794.448 312.543C812.904 314.896 832.118 316.592 851.552 317.585C875.221 318.756 898.529 318.906 920.835 318.03C956.999 316.606 995.716 313.836 1033.82 303.286C1053.14 297.938 1070.24 290.548 1086.09 280.696C1113.53 263.645 1133.44 242.143 1152.68 221.349C1163.28 209.898 1173.29 199.081 1184.07 189.56C1186.9 187.066 1189.76 184.504 1192.53 182.025C1203.73 171.995 1215.32 161.624 1228.38 152.152C1242.84 141.604 1258.01 133.26 1273.45 127.351C1291.53 120.43 1309.61 117.05 1327.17 117.299C1337.89 117.453 1348.72 118.647 1360.3 120.947C1390.13 126.879 1418.8 140.024 1446.52 152.74C1447.79 153.322 1449.06 153.904 1450.33 154.483C1476.98 166.691 1502.66 181.063 1526.64 197.202C1576.35 230.573 1621.16 272.94 1659.8 323.126L1659.25 323.292Z" fill="#FFE492"/>
</g>
<g id="Group_23">
<path id="Vector_23" d="M934.55 318.237C933.009 318.237 931.489 318.236 929.994 318.23C907.776 318.171 884.446 317.073 860.656 314.964C841.266 313.212 822.151 310.795 803.841 307.781C777.68 303.483 751.425 297.306 725.8 289.422C701.054 281.809 676.132 272.369 651.724 261.362C627.809 250.578 605.47 238.562 588.68 229.297C549.394 207.681 512.015 189.613 477.583 175.594C421.814 152.89 372.116 139.049 321.177 132.037C290.445 127.806 257.475 125.575 225.73 125.575C225.238 125.575 224.749 125.575 224.257 125.577C196.985 125.636 171.094 128.85 147.18 132.316C140.956 133.224 134.517 134.215 128.043 135.266C124.495 135.849 120.942 136.448 117.183 137.083C90.6674 141.564 60.6123 146.641 24.0994 146.225C1.86243 145.97 -20.8499 144.509 -42.8148 143.096C-56.9974 142.183 -71.6608 141.24 -85.6482 140.67C-104.876 139.887 -122.571 140.138 -138.245 141.419C-194.689 146.028 -241.771 158.41 -264.192 174.543L-264.709 174.255C-253.209 165.981 -235.91 158.818 -213.294 152.961C-191.694 147.37 -165.772 143.228 -138.333 140.989C-122.617 139.706 -104.876 139.451 -85.6042 140.237C-71.6031 140.807 -56.9314 141.752 -42.7434 142.665C-20.7922 144.079 1.90637 145.54 24.1131 145.792C60.5326 146.209 90.5354 141.139 117.007 136.666C120.769 136.03 124.322 135.43 127.873 134.848C134.353 133.797 140.797 132.804 147.026 131.895C170.981 128.425 196.917 125.206 224.254 125.145C256.505 125.073 290.066 127.311 321.322 131.615C347.612 135.235 373.1 140.563 399.237 147.905C424.409 154.976 450.157 163.914 477.951 175.232C512.411 189.261 549.817 207.343 589.127 228.973C605.904 238.232 628.226 250.24 652.117 261.011C701.645 283.346 752.75 298.941 804.011 307.365C822.297 310.375 841.387 312.789 860.75 314.539C884.509 316.644 907.807 317.742 929.994 317.8C964.713 317.89 1005.03 317.148 1044.34 307.1C1064.25 302.014 1081.46 294.576 1096.98 284.364C1124.23 266.429 1142.3 243.409 1159.77 221.146C1168.76 209.694 1177.25 198.877 1186.48 189.514C1189.44 186.514 1192.42 183.424 1195.31 180.434C1205.06 170.335 1215.14 159.895 1226.75 150.244C1240.02 139.141 1254.27 130.135 1269.08 123.477C1286.26 115.757 1303.77 111.438 1321.13 110.64C1331.84 110.146 1342.72 110.65 1354.37 112.18C1385.54 116.269 1416.43 128.15 1447.97 141.008C1475.46 152.219 1502.83 166.503 1527.11 182.317C1554.07 199.832 1579.41 220.38 1602.42 243.39C1622.91 263.889 1641.68 286.454 1658.21 310.458L1657.58 310.633C1622.09 259.082 1578.03 216.012 1526.62 182.622C1502.37 166.83 1475.05 152.567 1447.59 141.376C1416.11 128.54 1385.28 116.683 1354.23 112.607C1342.64 111.086 1331.83 110.586 1321.18 111.075C1289.28 112.545 1255.94 126.548 1227.3 150.509C1215.71 160.142 1205.63 170.574 1195.89 180.663C1193.01 183.654 1190.02 186.746 1187.06 189.745C1177.85 199.091 1169.37 209.9 1160.39 221.341C1151.81 232.264 1142.95 243.56 1132.78 254.419C1121.24 266.73 1109.7 276.623 1097.48 284.667C1081.89 294.925 1064.6 302.395 1044.6 307.506C1026.97 312.013 1008.02 314.992 986.661 316.616C968.576 317.985 950.412 318.237 934.55 318.237Z" fill="#FFE492"/>
</g>
<g id="Group_24">
<path id="Vector_24" d="M978.618 319.112C964.606 319.112 951.146 318.582 939.104 318.045C916.963 317.058 893.644 315.01 869.796 311.957C850.489 309.449 831.494 306.315 813.341 302.639C763.632 292.594 714.555 275.873 663.307 251.525C640.958 240.909 619.889 229.485 600.229 218.696C561.417 197.458 522.697 180.237 485.14 167.51C429.905 148.791 378.225 138.841 322.501 136.195C290.751 134.687 257.269 135.302 225.672 137.973C199.225 140.207 174.292 145.6 151.017 150.93C145.194 152.271 139 153.735 132.61 155.281C131.014 155.669 129.404 156.065 127.771 156.464C100.964 163.039 70.6317 170.478 31.7032 170.478C31.0465 170.478 30.3925 170.476 29.7302 170.471C3.39319 170.302 -23.4962 167.917 -49.5034 165.61C-59.8139 164.695 -70.4763 163.75 -80.7071 162.985C-100.691 161.493 -117.998 161.052 -133.62 161.641C-190.441 163.785 -238.402 172.458 -265.201 185.441L-265.66 185.06C-252.411 178.642 -233.255 173.07 -210.268 168.946C-187.657 164.89 -161.169 162.199 -133.667 161.162C-118 160.571 -100.649 161.012 -80.6219 162.507C-70.3801 163.272 -59.715 164.219 -49.4017 165.132C-23.4192 167.436 3.4454 169.819 29.7329 169.988C69.472 170.246 100.299 162.683 127.494 156.013C129.123 155.614 130.736 155.218 132.333 154.827C138.728 153.28 144.924 151.816 150.753 150.475C174.067 145.135 199.047 139.735 225.565 137.493C257.211 134.82 290.748 134.203 322.551 135.712C350.165 137.023 376.494 140.118 403.04 145.173C430.38 150.379 457.349 157.545 485.489 167.082C523.093 179.827 561.862 197.069 600.716 218.328C620.367 229.114 641.422 240.531 663.753 251.137C714.932 275.451 763.934 292.148 813.564 302.177C831.689 305.846 850.659 308.976 869.939 311.481C893.753 314.531 917.04 316.577 939.148 317.56C976.351 319.216 1015.93 320.067 1054.86 310.904C1075.35 306.081 1092.69 298.597 1107.86 288.022C1134.89 269.185 1151.72 243.492 1166.57 220.822C1174.04 209.416 1181.09 198.643 1188.88 189.459C1191.69 186.146 1194.52 182.721 1197.25 179.409C1205.8 169.047 1214.64 158.333 1225.11 148.326C1237.22 136.669 1250.55 127.001 1264.71 119.589C1280.98 111.078 1297.92 105.821 1315.07 103.969C1325.79 102.81 1336.71 102.625 1348.44 103.399C1381.21 105.565 1414.5 116.271 1445.6 127.518C1474.31 137.903 1502.66 151.701 1527.58 167.419C1555.29 184.852 1580.83 205.606 1603.48 229.1C1623.74 250.11 1641.62 273.215 1656.62 297.777L1655.92 297.95C1624.02 245.74 1579.46 200.721 1527.04 167.757C1502.18 152.068 1473.88 138.297 1445.23 127.933C1414.2 116.712 1381 106.032 1348.36 103.875C1336.7 103.104 1325.86 103.289 1315.21 104.439C1283.54 107.861 1251.77 123.539 1225.75 148.588C1215.3 158.573 1206.47 169.277 1197.92 179.629C1195.19 182.942 1192.36 186.367 1189.55 189.684C1181.78 198.847 1174.73 209.61 1167.27 221.004C1152.4 243.708 1135.54 269.443 1108.42 288.343C1093.16 298.975 1075.73 306.501 1055.13 311.352C1037.25 315.559 1017.96 317.996 996.161 318.796C990.267 319.023 984.397 319.112 978.618 319.112Z" fill="#FFE492"/>
</g>
<g id="Group_25">
<path id="Vector_25" d="M1006.28 320.998C1006.08 320.998 1005.88 320.998 1005.68 320.998C985.875 320.967 966.433 319.429 948.213 317.857C926.106 315.95 902.8 312.951 878.939 308.945C859.719 305.684 840.846 301.831 822.846 297.494C775.124 286.013 728.114 268.281 674.898 241.688C655.734 232.114 636.874 221.804 618.633 211.836C616.352 210.588 614.068 209.342 611.785 208.096C572.771 186.863 532.708 170.487 492.71 159.426C437.94 144.281 382.702 138.041 323.839 140.351C291.564 141.618 258.112 145.081 227.101 150.366C202.632 154.537 180.83 161.228 154.866 169.542C149.604 171.235 143.984 173.061 137.186 175.293L136.806 175.418C123.69 179.751 108.823 184.661 92.1483 188.395C72.9974 192.682 54.418 194.746 35.366 194.722C5.65723 194.675 -24.6617 191.168 -53.9803 187.774C-61.1636 186.943 -68.5942 186.083 -75.7665 185.306C-96.3354 183.08 -113.747 181.956 -128.996 181.871C-185.143 181.557 -235.163 186.835 -266.226 196.348L-266.583 195.877C-251.368 191.217 -230.843 187.434 -207.229 184.938C-183.571 182.437 -156.514 181.196 -128.987 181.349C-113.695 181.435 -96.2393 182.561 -75.6264 184.792C-68.4486 185.569 -61.0179 186.428 -53.8319 187.26C-24.549 190.648 5.73141 194.152 35.3688 194.199C35.5007 194.199 35.6353 194.199 35.7672 194.199C78.1609 194.199 110.458 183.532 136.427 174.954L136.809 174.829C143.61 172.596 149.23 170.769 154.495 169.077C180.503 160.749 202.344 154.045 226.889 149.862C257.953 144.567 291.459 141.098 323.79 139.83C352.594 138.7 379.764 139.561 406.857 142.465C436.052 145.594 464.244 150.985 493.04 158.948C533.114 170.03 573.246 186.432 612.323 207.7C614.607 208.946 616.89 210.194 619.171 211.442C637.404 221.407 656.259 231.713 675.407 241.281C728.553 267.84 775.495 285.547 823.137 297.009C841.112 301.341 859.958 305.187 879.15 308.445C902.978 312.445 926.251 315.44 948.323 317.343C987.859 320.756 1026.56 323.123 1065.39 314.729C1086.47 310.172 1103.92 302.641 1118.75 291.702C1145.55 271.942 1160.18 244.561 1173.1 220.401C1179.14 209.091 1184.85 198.406 1191.29 189.428C1193.77 185.974 1196.26 182.4 1198.66 178.944C1206.18 168.138 1213.96 156.965 1223.49 146.43C1234.46 134.214 1246.87 123.881 1260.35 115.72C1275.72 106.42 1292.09 100.229 1309.03 97.3214C1319.53 95.5191 1330.24 94.6406 1341.76 94.6406C1342.01 94.6406 1342.26 94.6406 1342.51 94.6424C1378.31 94.7609 1415.14 105.076 1443.24 114.049C1473.17 123.609 1502.5 136.919 1528.06 152.539C1556.53 169.893 1582.27 190.85 1604.56 214.832C1624.57 236.353 1641.55 260 1655.04 285.12L1654.26 285.289C1634.19 247.913 1595.89 194.608 1527.48 152.918C1501.99 137.332 1472.72 124.054 1442.87 114.516C1414.85 105.567 1378.13 95.282 1342.51 95.1653C1330.78 95.1217 1319.9 95.9967 1309.25 97.8268C1277.87 103.214 1247.67 120.568 1224.2 146.69C1214.69 157.2 1206.93 168.361 1199.42 179.155C1197.01 182.613 1194.52 186.188 1192.05 189.644C1185.62 198.6 1179.92 209.27 1173.88 220.569C1160.94 244.772 1146.28 272.205 1119.38 292.042C1104.45 303.054 1086.88 310.636 1065.66 315.222C1047.68 319.107 1028.25 320.998 1006.28 320.998Z" fill="#FFE492"/>
</g>
<g id="Group_26">
<path id="Vector_26" d="M1028.27 323.452C1024 323.452 1019.65 323.365 1015.18 323.191C995.65 322.429 976.667 320.144 957.321 317.669C934.894 314.8 912.245 310.962 888.079 305.935C868.958 301.923 850.208 297.352 832.349 292.348C787.042 279.673 742.057 261.015 686.49 231.851C672.689 224.609 658.894 217.013 645.553 209.666C638.29 205.667 630.782 201.531 623.343 197.493C583.865 176.117 542.463 160.59 500.287 151.342C444.56 139.122 387.286 136.884 325.186 144.501C292.377 148.525 258.956 154.836 228.538 162.751C204.103 169.11 182.817 178.039 160.28 187.493L158.722 188.147C155.202 189.628 151.643 191.131 148.041 192.651C145.966 193.527 143.877 194.409 141.77 195.298C128.629 200.871 114.435 206.684 98.1586 211.158C79.2605 216.352 60.5685 218.907 41.0081 218.97C8.44406 219.071 -24.7712 214.271 -56.89 209.624C-61.4737 208.96 -66.2168 208.275 -70.8197 207.625C-92.3999 204.575 -109.413 202.819 -124.368 202.098C-179.553 199.436 -231.634 201.312 -267.259 207.245L-267.487 206.698C-231.768 200.749 -179.581 198.866 -124.299 201.533C-109.303 202.256 -92.246 204.017 -70.6246 207.072C-66.0189 207.724 -61.2759 208.409 -56.6894 209.073C-24.9636 213.663 7.8313 218.405 39.9638 218.405C40.3101 218.405 40.6564 218.405 41.0054 218.404C82.5664 218.271 112.151 207.175 141.278 194.828C143.385 193.939 145.474 193.057 147.549 192.18C151.151 190.659 154.707 189.158 158.23 187.674L159.788 187.021C182.363 177.551 203.685 168.606 228.2 162.227C258.673 154.296 292.152 147.974 325.018 143.943C387.275 136.307 444.703 138.552 500.581 150.805C542.862 160.078 584.36 175.639 623.926 197.062C631.365 201.103 638.875 205.237 646.138 209.237C659.474 216.582 673.266 224.176 687.059 231.413C742.56 260.544 787.482 279.176 832.709 291.831C850.544 296.826 869.266 301.391 888.359 305.396C912.489 310.416 935.106 314.249 957.499 317.113C991.492 321.462 1033.8 326.875 1075.93 318.537C1097.59 314.251 1115.16 306.672 1129.64 295.367C1156.18 274.66 1168.48 245.537 1179.34 219.843C1184.05 208.681 1188.51 198.138 1193.71 189.388C1195.73 185.979 1197.76 182.452 1199.73 179.041C1206.31 167.602 1213.12 155.774 1221.86 144.525C1231.73 131.74 1243.21 120.743 1255.98 111.84C1270.46 101.752 1286.27 94.6282 1302.98 90.6664C1313.7 88.1233 1324.69 86.5564 1336.57 85.8749C1352.49 84.9615 1369.43 85.9376 1388.37 88.8519C1404.39 91.32 1421.56 95.1511 1440.88 100.567C1472.02 109.301 1502.33 122.124 1528.53 137.649C1557.77 154.92 1583.71 176.085 1605.64 200.553C1625.39 222.587 1641.48 246.776 1653.46 272.452L1652.6 272.612C1627.3 218.405 1583.02 170.621 1527.92 138.064C1501.79 122.581 1471.57 109.794 1440.51 101.086C1398.9 89.4184 1365.9 84.7628 1336.65 86.4396C1324.85 87.1159 1313.94 88.6724 1303.29 91.1962C1263.54 100.621 1237.5 125.535 1222.66 144.774C1213.94 155.996 1207.14 167.81 1200.56 179.235C1198.6 182.648 1196.57 186.176 1194.54 189.587C1189.36 198.31 1184.91 208.841 1180.2 219.99C1169.32 245.739 1156.99 274.924 1130.34 295.724C1115.74 307.118 1098.02 314.758 1076.19 319.079C1061.39 322.007 1045.61 323.452 1028.27 323.452Z" fill="#FFE492"/>
</g>
<g id="Group_27">
<path id="Vector_27" d="M1047.32 326.266C1018.26 326.266 990.324 321.53 966.422 317.48C943.935 313.669 921.297 308.908 897.213 302.924C878.2 298.165 859.571 292.877 841.846 287.204C788.713 270.217 741.346 245.834 698.075 222.014C689.24 217.151 680.315 212.138 671.686 207.291C659.705 200.56 647.314 193.6 634.898 186.893C594.829 165.306 552.09 150.624 507.869 143.257C450.663 133.728 391.347 135.49 326.532 148.646C293.16 155.419 259.772 164.579 229.975 175.134C206.994 183.274 187.549 193.551 166.963 204.431C165.504 205.201 164.042 205.975 162.572 206.749L161.775 207.171C156.771 209.818 151.596 212.555 146.35 215.302C133.781 221.913 119.939 228.751 103.929 233.974C85.3445 240.038 66.6084 243.062 46.6441 243.219C11.6014 243.496 -24.1146 237.248 -58.6517 231.205C-61.0727 230.781 -63.4827 230.359 -65.8817 229.943C-88.6573 225.979 -105.272 223.63 -119.748 222.323C-173.549 217.467 -227.696 215.94 -268.306 218.134L-268.389 217.526C-227.712 215.326 -173.486 216.855 -119.614 221.718C-105.096 223.028 -88.4457 225.383 -65.6289 229.354C-63.2299 229.77 -60.8199 230.192 -58.3961 230.617C-23.925 236.648 11.7223 242.881 46.6304 242.609C89.9858 242.268 120.519 228.092 145.735 214.831C150.981 212.084 156.155 209.348 161.159 206.702L161.956 206.28C163.427 205.504 164.889 204.732 166.348 203.962C186.969 193.063 206.447 182.769 229.505 174.601C259.357 164.026 292.809 154.851 326.238 148.066C356.967 141.829 385.829 138.228 414.472 137.057C446.423 135.752 477.926 137.639 508.11 142.668C552.472 150.058 595.338 164.781 635.519 186.427C647.943 193.138 660.337 200.099 672.321 206.833C680.95 211.68 689.87 216.691 698.702 221.552C741.928 245.346 789.238 269.702 842.275 286.658C859.975 292.323 878.576 297.604 897.562 302.356C921.61 308.331 944.212 313.085 966.666 316.89C1001.14 322.733 1044.05 330.005 1086.45 322.353C1108.69 318.337 1126.38 310.712 1140.52 299.04C1166.78 277.359 1176.61 246.444 1185.28 219.166C1188.76 208.206 1192.05 197.854 1196.11 189.354C1197.61 186.209 1199.11 182.961 1200.57 179.818C1206.27 167.526 1212.16 154.815 1220.22 142.626C1228.99 129.262 1239.55 117.598 1251.59 107.961C1265.19 97.0867 1280.43 89.0305 1296.91 84.0159C1307.61 80.76 1318.64 78.5029 1330.62 77.1137C1346.77 75.2435 1364.69 75.3062 1383.88 77.3002C1400.68 79.0467 1419.06 82.3392 1438.49 87.0888C1470.85 94.9968 1502.15 107.332 1528.99 122.761C1558.98 139.952 1585.13 161.321 1606.7 186.277C1626.19 208.823 1641.39 233.556 1651.87 259.788L1650.93 259.938C1628.73 204.354 1585.2 155.798 1528.35 123.214C1501.59 107.836 1470.4 95.5406 1438.15 87.6588C1396.34 77.4431 1361.23 74.1889 1330.8 77.715C1318.9 79.0937 1307.95 81.3352 1297.32 84.5667C1258.12 96.4975 1234.24 122.852 1221.11 142.861C1213.07 155.019 1207.18 167.713 1201.49 179.989C1200.04 183.131 1198.53 186.382 1197.03 189.53C1192.98 198.003 1189.7 208.34 1186.22 219.286C1182.05 232.409 1177.32 247.282 1170.46 261.226C1162.6 277.202 1153.05 289.693 1141.28 299.412C1134.48 305.031 1126.66 309.814 1118.04 313.628C1108.76 317.729 1098.22 320.863 1086.71 322.94C1073.54 325.32 1060.32 326.266 1047.32 326.266Z" fill="#FFE492"/>
</g>
<g id="Group_28">
<path id="Vector_28" d="M1064.5 329.352C1054.89 329.352 1044.83 328.759 1034.19 327.576C1013.25 325.245 993.209 321.017 975.523 317.289C953.231 312.588 929.956 306.74 906.347 299.909C887.455 294.412 868.947 288.405 851.343 282.054C800.815 263.845 757.284 239.633 709.661 212.174C705.429 209.734 701.131 207.245 696.976 204.836C680.612 195.356 663.692 185.553 646.454 176.291C605.72 154.451 561.644 140.617 515.45 135.172C457.181 128.303 394.07 134.229 327.879 152.788C293.913 162.312 260.555 174.318 231.412 187.51C209.47 197.444 191.407 209.155 172.283 221.555C170.341 222.815 168.389 224.078 166.427 225.347C161.544 228.509 156.284 231.903 150.934 235.3C139.714 242.448 126.04 250.593 109.703 256.786C91.4147 263.719 72.632 267.214 52.2857 267.467C15.039 267.932 -22.8754 260.11 -59.5421 252.545L-60.9381 252.257C-78.8909 248.555 -97.8825 244.815 -115.124 242.544C-167.677 235.622 -222.447 230.817 -269.342 229.013L-269.279 228.361C-222.335 230.167 -167.514 234.976 -114.915 241.904C-97.6242 244.182 -78.5996 247.928 -60.6194 251.635L-59.2234 251.923C-22.6363 259.47 15.2012 267.273 52.2664 266.811C95.0723 266.278 124.635 251.128 150.206 234.834C155.556 231.439 160.81 228.045 165.694 224.885C167.656 223.618 169.607 222.353 171.55 221.094C190.706 208.674 208.802 196.942 230.816 186.975C260.014 173.756 293.435 161.728 327.464 152.187C358.519 143.481 389.08 137.481 418.291 134.358C451.669 130.79 484.422 130.846 515.643 134.525C562.013 139.991 606.25 153.874 647.121 175.789C664.374 185.06 681.301 194.866 697.674 204.351C701.829 206.758 706.127 209.247 710.359 211.687C757.935 239.12 801.42 263.306 851.857 281.484C869.436 287.825 887.917 293.823 906.782 299.313C930.357 306.133 953.594 311.972 975.853 316.666C1010.74 324.025 1054.17 333.181 1096.99 326.166C1119.83 322.423 1137.63 314.752 1151.41 302.712C1177.38 280.027 1184.9 245.834 1190.94 218.36C1193.29 207.658 1195.51 197.55 1198.52 189.323C1199.47 186.73 1200.43 184.058 1201.36 181.473C1206.17 168.045 1211.14 154.158 1218.6 140.73C1230.13 119.833 1252.02 91.8792 1290.86 77.3723C1301.58 73.3669 1312.65 70.4177 1324.69 68.3575C1356.18 62.8897 1393.68 64.6589 1436.13 73.6126C1469.7 80.6944 1501.98 92.5416 1529.47 107.875C1560.22 124.984 1586.57 146.559 1607.78 172.005C1617.52 183.676 1626.11 196.142 1633.35 209.056C1640.26 221.391 1645.95 234.2 1650.29 247.128L1649.28 247.264C1630.19 190.299 1587.4 140.971 1528.79 108.364C1501.4 93.0889 1469.25 81.287 1435.8 74.2314C1393.55 65.3177 1356.25 63.5538 1324.96 68.9867C1313.01 71.0313 1302.03 73.9577 1291.38 77.9335C1252.8 92.3394 1231.04 120.151 1219.58 140.945C1212.13 154.338 1207.17 168.205 1202.36 181.616C1201.44 184.2 1200.48 186.874 1199.53 189.47C1196.53 197.669 1194.31 207.762 1191.96 218.449C1188.92 232.274 1185.48 247.943 1179.59 262.733C1172.83 279.727 1163.88 292.93 1152.25 303.095C1145.61 308.894 1137.84 313.785 1129.17 317.63C1119.82 321.773 1109.08 324.858 1097.24 326.797C1086.85 328.501 1076 329.352 1064.5 329.352Z" fill="#FFE492"/>
</g>
<g id="Group_29">
<path id="Vector_29" d="M1080.33 332.613C1068.81 332.613 1056.67 331.666 1043.7 329.768C1022.68 326.695 1002.46 321.595 984.622 317.095C962.162 311.43 938.9 304.634 915.482 296.893C896.713 290.662 878.328 283.938 860.84 276.905C812.717 257.566 771.442 232.641 727.742 206.256C725.58 204.951 723.417 203.643 721.249 202.336C700.927 190.079 679.916 177.404 658.012 165.691C616.569 143.574 571.158 130.586 523.04 127.086C462.6 122.688 397.392 132.73 329.225 156.928C295.128 169.031 260.901 184.287 232.849 199.885C211.668 211.663 194.679 224.915 176.694 238.946C174.564 240.607 172.429 242.273 170.277 243.943C165.979 247.284 160.865 251.246 155.512 255.299C145.597 262.823 132.088 272.385 115.473 279.579C97.4766 287.371 78.6526 291.344 57.9243 291.719C40.8867 291.989 22.0847 290.321 0.441315 286.617C-18.1408 283.438 -36.1155 279.282 -56.0057 274.576C-74.1618 270.227 -93.3237 265.736 -110.515 262.769C-161.439 253.981 -215.229 246.286 -270.387 239.892L-270.189 239.207C-214.998 245.602 -161.178 253.305 -110.227 262.096C-92.9885 265.072 -73.7991 269.57 -55.621 273.923C-22.282 281.813 19.2103 291.637 57.8941 291.021C102.121 290.22 130.543 273.163 154.668 254.849C160.019 250.8 165.13 246.84 169.425 243.5C171.577 241.831 173.712 240.164 175.839 238.505C193.855 224.451 210.874 211.176 232.124 199.361C260.233 183.731 294.526 168.445 328.689 156.319C397.063 132.048 462.496 121.98 523.166 126.394C546.428 128.086 569.278 132.017 591.075 138.075C614.464 144.575 637.223 153.689 658.721 165.16C680.65 176.885 701.675 189.567 722.007 201.832C724.176 203.141 726.341 204.447 728.504 205.752C772.161 232.115 813.401 257.016 861.431 276.317C878.894 283.34 897.251 290.056 915.993 296.276C939.378 304.005 962.605 310.792 985.031 316.448C1020.28 325.337 1064.14 336.4 1107.52 329.984C1131.01 326.509 1148.93 318.791 1162.29 306.391C1188.04 282.707 1192.62 246.528 1196.3 217.458C1197.62 207.061 1198.87 197.241 1200.93 189.3C1201.36 187.662 1201.78 186.015 1202.21 184.359C1206.06 169.402 1210.05 153.935 1216.97 138.84C1226.86 117.13 1246.65 87.6906 1284.8 70.7347C1295.44 66.0042 1306.54 62.3649 1318.74 59.6075C1335.7 55.7398 1354.6 53.9218 1374.91 54.2007C1393.45 54.4552 1413.25 56.4544 1433.75 60.1408C1468.54 66.3929 1501.8 77.752 1529.94 92.9893C1561.45 110.015 1588 131.799 1608.85 157.733C1618.42 169.632 1626.71 182.354 1633.48 195.545C1639.96 208.179 1645.09 221.275 1648.7 234.472L1647.61 234.59C1631.88 177.087 1588.73 125.669 1529.23 93.5191C1501.2 78.3481 1468.09 67.0361 1433.45 60.8084C1390.74 53.1287 1351.2 52.9405 1319.1 60.2611C1307 62.9976 1295.98 66.6091 1285.42 71.3029C1247.54 88.142 1227.87 117.43 1218.03 139.032C1211.12 154.086 1207.14 169.531 1203.29 184.469C1202.87 186.124 1202.44 187.773 1202.01 189.412C1199.96 197.323 1198.71 207.131 1197.4 217.512C1193.7 246.666 1189.1 282.949 1163.2 306.785C1156.76 312.762 1149.05 317.764 1140.31 321.649C1130.9 325.829 1119.95 328.862 1107.77 330.664C1098.97 331.961 1089.87 332.613 1080.33 332.613Z" fill="#FFE492"/>
</g>
<g id="Group_30">
<path id="Vector_30" d="M1095.2 336.005C1082.08 336.005 1068.18 334.659 1053.2 331.957C1032.01 328.135 1011.66 322.165 993.716 316.9C971.033 310.245 947.782 302.497 924.608 293.876C905.974 286.922 887.714 279.478 870.33 271.754C827.524 252.742 790.939 229.45 752.206 204.79C745.875 200.759 739.326 196.591 732.83 192.493C709.994 178.096 690.494 166.225 669.562 155.089C627.38 132.679 580.636 120.536 530.625 118.995C467.784 117.058 400.471 131.211 330.561 161.06C295.832 175.89 261.636 194.069 234.274 212.252C213.661 225.95 197.546 240.862 180.487 256.648C178.373 258.603 176.252 260.566 174.117 262.53C170.313 266.036 165.279 270.655 160.083 275.286C138.214 294.821 109.643 314.934 63.5557 315.962C62.1185 315.992 60.6758 316.006 59.2358 316.006C23.2478 316.006 -13.4932 306.972 -51.0806 296.885L-53.4274 296.25C-72.0452 291.21 -89.6325 286.45 -105.912 282.984C-167.261 269.926 -226.594 258.903 -271.43 250.76L-271.109 250.047C-226.261 258.194 -166.912 269.218 -105.541 282.282C-89.2175 285.756 -71.611 290.523 -52.9684 295.569L-50.6244 296.203C-11.6602 306.66 26.3915 315.986 63.5145 315.223C109.09 314.205 137.422 294.248 159.129 274.859C164.323 270.231 169.352 265.616 173.155 262.112C175.29 260.146 177.409 258.185 179.522 256.23C196.609 240.419 212.748 225.483 233.427 211.741C260.844 193.52 295.109 175.304 329.907 160.445C362.205 146.654 394.513 136.066 425.934 128.97C461.985 120.828 497.229 117.224 530.68 118.254C580.95 119.802 627.93 132.005 670.31 154.519C691.271 165.672 710.791 177.556 733.649 191.965C740.148 196.063 746.696 200.232 753.03 204.264C791.725 228.899 828.274 252.168 870.997 271.143C888.357 278.857 906.59 286.289 925.196 293.233C948.337 301.844 971.553 309.579 994.202 316.223C1029.76 326.655 1074 339.637 1118.04 333.793C1142.12 330.598 1160.15 322.835 1173.17 310.06C1198.59 285.297 1200.11 247.082 1201.34 216.376C1201.74 206.357 1202.12 196.893 1203.33 189.267L1203.36 189.093C1206.08 172.017 1208.89 154.36 1215.33 136.939C1220.92 121.744 1228.69 108.082 1238.44 96.3307C1249.43 83.0821 1262.98 72.2338 1278.72 64.0853C1289.25 58.6332 1300.39 54.3018 1312.78 50.8455C1346.24 41.4525 1387.25 40.0023 1431.36 46.6553C1449.12 49.3325 1466.63 53.3885 1483.42 58.7081C1500.31 64.0591 1516.12 70.5831 1530.4 78.0954C1562.68 95.0391 1589.43 117.029 1609.92 143.454C1628.34 167.206 1641.2 194.301 1647.11 221.807L1645.95 221.906C1633.31 163.035 1590.92 110.825 1529.66 78.6654C1501.01 63.6024 1466.93 52.7819 1431.1 47.3804C1387.23 40.7657 1346.48 42.2002 1313.26 51.5287C1300.97 54.9589 1289.92 59.2554 1279.47 64.6639C1250.08 79.8785 1228.3 104.931 1216.48 137.112C1210.05 154.487 1207.24 172.12 1204.53 189.171L1204.5 189.346C1203.29 196.943 1202.91 206.394 1202.51 216.399C1201.28 247.199 1199.74 285.529 1174.15 310.466C1167.87 316.626 1160.22 321.736 1151.42 325.655C1141.94 329.88 1130.79 332.862 1118.28 334.523C1110.84 335.51 1103.16 336.005 1095.2 336.005Z" fill="#FFE492"/>
</g>
<g id="Group_31">
<path id="Vector_31" d="M64.4097 340.276C48.3174 340.276 30.7932 338.287 11.0158 334.226C-8.63528 330.191 -28.0693 324.62 -46.1458 319.203C-49.4186 318.216 -52.6668 317.231 -55.893 316.254C-71.9524 311.385 -87.1214 306.787 -101.298 303.206C-157.828 288.929 -211.711 276.097 -263.822 263.69L-272.456 261.633L-272.022 260.9L-263.387 262.956C-211.274 275.366 -157.383 288.198 -100.842 302.479C-86.6268 306.069 -71.4385 310.673 -55.3598 315.548C-52.1364 316.525 -48.8883 317.51 -45.6181 318.495C-8.51166 329.615 30.9114 340.392 69.1473 339.432C116.149 338.191 144.317 314.967 163.602 294.876C168.543 289.737 173.303 284.616 176.897 280.73C178.881 278.587 180.851 276.447 182.816 274.312C199.112 256.612 214.504 239.893 234.746 224.129C261.465 203.325 295.697 182.175 331.141 164.58C364.023 148.255 397.206 135.357 429.77 126.244C467.121 115.792 503.603 110.368 538.204 110.122C590.268 109.63 638.624 120.991 681.911 143.885C705.907 156.592 727.421 170.337 745.305 182.107C755.036 188.513 764.767 195.079 774.179 201.429C807.493 223.908 841.942 247.151 880.576 265.977C897.834 274.389 915.949 282.539 934.413 290.199C957.263 299.659 980.467 308.342 1003.39 316.008C1039.21 327.989 1083.79 342.901 1128.58 337.609C1153.23 334.696 1171.38 326.888 1184.05 313.737C1209.13 287.852 1207.44 247.543 1206.08 215.155C1205.68 205.577 1205.29 196.529 1205.75 189.245C1206.78 172.824 1208.33 153.74 1213.71 135.048C1218.24 119.21 1225.09 104.881 1234.05 92.46C1244.19 78.4097 1257.18 66.6306 1272.67 57.4485C1282.92 51.3637 1294.42 46.1992 1306.83 42.0961C1324.55 36.2223 1344.42 32.5289 1365.92 31.1205C1386.04 29.8011 1407.26 30.4948 1428.99 33.1807C1447.31 35.4466 1465.37 39.1732 1482.66 44.2592C1500.06 49.3766 1516.28 55.7525 1530.88 63.209C1547.7 71.795 1563.17 81.9341 1576.85 93.3454C1589.81 104.157 1601.3 116.215 1611 129.183C1629.14 153.444 1641.08 181.098 1645.52 209.152L1644.29 209.23C1634.75 148.987 1593.13 95.9878 1530.1 63.8208C1501.23 49.0716 1465.24 38.4638 1428.75 33.9511C1383.63 28.3718 1341.67 31.429 1307.41 42.7916C1295.09 46.8615 1283.69 51.9859 1273.51 58.0219C1244.34 75.3229 1224.63 101.285 1214.93 135.19C1209.56 153.831 1208.01 172.882 1206.99 189.276C1206.53 196.534 1206.91 205.568 1207.31 215.134C1207.98 231.112 1208.74 249.223 1206.19 266.732C1203.23 287.048 1196.34 302.557 1185.11 314.146C1179 320.487 1171.41 325.708 1162.55 329.661C1152.99 333.931 1141.64 336.865 1128.81 338.379C1122.34 339.144 1115.87 339.491 1109.44 339.491C1070.95 339.491 1033.65 327.015 1002.81 316.7C979.859 309.022 956.619 300.326 933.739 290.853C915.248 283.182 897.108 275.02 879.826 266.596C841.112 247.731 806.627 224.464 773.28 201.964C763.871 195.616 754.143 189.052 744.417 182.65C726.558 170.893 705.074 157.167 681.122 144.485C638.069 121.713 589.995 110.418 538.223 110.903C456.917 111.481 381.149 140.744 331.904 165.193C296.532 182.754 262.369 203.858 235.707 224.621C215.526 240.337 200.156 257.03 183.885 274.702C181.92 276.838 179.947 278.978 177.963 281.122C174.366 285.01 169.604 290.135 164.66 295.278C156.564 303.713 143.855 315.99 127.021 325.193C118.845 329.662 110.145 333.175 101.162 335.634C91.1452 338.376 80.3895 339.917 69.1995 340.211C67.6139 340.255 66.0173 340.276 64.4097 340.276Z" fill="#FFE492"/>
</g>
<g id="Group_32">
<path id="Vector_32" d="M69.5768 364.54C53.4651 364.54 35.9768 362.398 16.3037 358.026C-4.06458 353.502 -24.2021 347.14 -41.2123 341.512C-46.439 339.779 -51.6547 338.022 -56.7001 336.323C-70.8029 331.573 -84.1253 327.085 -96.6865 323.421C-141.795 310.261 -186.61 297.414 -229.952 284.988C-244.288 280.878 -259.111 276.629 -273.477 272.501L-272.939 271.747C-258.572 275.874 -243.749 280.123 -229.413 284.233C-186.071 296.659 -141.251 309.509 -96.1396 322.67C-83.5455 326.344 -70.2066 330.836 -56.0873 335.592C-51.0447 337.292 -45.8289 339.047 -40.6077 340.78C-5.32867 352.447 35.592 364.798 74.776 363.635C122.886 362.175 149.907 336.816 168.077 314.887C172.735 309.27 177.239 303.629 180.641 299.343C182.388 297.144 184.125 294.946 185.859 292.753C201.446 273.031 216.167 254.404 236.068 236.515C261.952 213.25 296.156 189.17 332.375 168.713C382.815 140.346 460.773 105.744 545.726 101.991C599.752 99.5404 649.477 110.058 693.514 133.253C713.3 143.68 732.866 155.707 756.96 172.253C769.137 180.614 781.22 189.28 792.904 197.659C823.306 219.458 854.738 242.001 890.157 260.816C907.315 269.934 925.307 278.8 943.63 287.17C965.818 297.295 989.014 306.927 1012.57 315.799C1048.75 329.344 1093.78 346.204 1139.11 341.431C1163.97 338.869 1182.75 330.79 1194.94 317.422C1219.67 290.365 1214.36 246.1 1210.48 213.78C1209.4 204.709 1208.37 196.142 1208.17 189.231C1207.72 173.872 1207.76 153.62 1212.09 133.166C1219.57 97.7225 1237.91 70.0158 1266.61 50.8202C1276.67 44.0574 1288.2 38.1818 1300.89 33.3554C1318.94 26.481 1339.31 21.8569 1361.43 19.6136C1382.26 17.5011 1404.19 17.5342 1426.61 19.713C1445.52 21.5919 1464.12 24.9978 1481.89 29.8328C1499.83 34.7167 1516.47 40.9392 1531.35 48.3277C1548.55 56.8649 1564.26 67.0388 1578.05 78.5687C1591.12 89.4955 1602.56 101.724 1612.08 114.919C1629.94 139.69 1640.96 167.902 1643.94 196.505L1642.64 196.559C1636.22 134.941 1595.36 81.1501 1530.55 48.9814C1501.16 34.3873 1464.18 24.2831 1426.41 20.5322C1379.86 16.0091 1336.69 20.6891 1301.57 34.0666C1288.98 38.8528 1277.54 44.6814 1267.56 51.3902C1239.06 70.4585 1220.83 98.0083 1213.39 133.278C1209.06 153.676 1209.03 173.888 1209.48 189.217C1209.68 196.104 1210.7 204.66 1211.79 213.719C1213.79 230.425 1216.06 249.363 1214.77 267.851C1213.25 289.379 1207.14 305.73 1196.07 317.838C1190.11 324.369 1182.58 329.703 1173.68 333.691C1164.04 338.015 1152.48 340.895 1139.33 342.251C1118.94 344.396 1096.99 342.469 1072.24 336.356C1050.72 331.041 1030.1 323.323 1011.91 316.515C988.318 307.631 965.092 297.986 942.872 287.847C924.521 279.465 906.505 270.586 889.321 261.456C853.828 242.602 822.36 220.035 791.929 198.213C780.25 189.836 768.169 181.175 756.004 172.821C731.951 156.305 712.42 144.301 692.681 133.898C648.905 110.835 599.496 100.381 545.814 102.815C461.227 106.554 383.527 141.05 333.238 169.332C297.091 189.747 262.957 213.776 237.129 236.993C217.283 254.831 202.584 273.432 187.022 293.124C185.288 295.319 183.551 297.517 181.803 299.716C178.398 304.006 173.892 309.651 169.228 315.274C150.899 337.398 123.606 362.984 74.8337 364.463C73.0997 364.514 71.3438 364.54 69.5768 364.54Z" fill="#FFE492"/>
</g>
<g id="Group_33">
<path id="Vector_33" d="M74.8472 388.808C30.8239 388.808 -15.3675 371.658 -56.3157 356.454C-68.8988 351.783 -80.784 347.37 -92.0784 343.638L-274.5 283.37L-273.865 282.598L-91.4436 342.866C-80.119 346.606 -68.2201 351.025 -55.6204 355.703C-13.0894 371.495 35.1191 389.393 80.4037 387.842C129.574 386.16 155.477 358.666 172.55 334.904C178.134 327.132 183.526 319.224 188.741 311.576C203.006 290.66 217.755 269.031 237.384 248.901C252.971 232.918 272.333 216.155 293.378 200.428C316.464 183.174 341.182 167.344 366.84 153.38C395.131 137.984 423.898 125.248 452.337 115.527C483.793 104.776 514.783 97.7572 544.45 94.6633C603.882 88.467 657.935 97.8705 705.105 122.616C744.305 143.178 777.622 168.605 809.843 193.195C837.889 214.599 866.889 236.73 899.728 255.648C937.659 277.498 978.711 297.663 1021.75 315.579C1058.01 330.675 1103.14 349.465 1149.65 345.242C1188.93 341.675 1211.64 325.005 1219.07 294.276C1225.4 268.138 1219.38 237.132 1214.55 212.22C1212.9 203.73 1211.34 195.71 1210.58 189.207C1206.37 153.357 1209.05 123.763 1218.79 98.735C1224.87 83.1195 1233.84 69.1999 1245.45 57.3633C1258.42 44.1409 1275.07 33.1182 1294.94 24.6019C1312.13 17.2343 1331.5 11.8833 1352.52 8.69708C1372.53 5.66427 1393.59 4.6481 1415.13 5.67647C1457.49 7.69834 1498.93 17.5567 1531.81 33.4337C1549.38 41.9203 1565.34 52.1308 1579.24 63.7792C1592.4 74.8193 1603.81 87.2207 1613.15 100.642C1630.72 125.924 1640.82 154.696 1642.34 183.844L1640.97 183.873C1637.73 121.802 1596.61 65.822 1530.97 34.1291C1461.27 0.471884 1362.33 -3.23198 1295.7 25.3253C1229.71 53.6141 1202.31 107.199 1211.95 189.142C1212.71 195.625 1214.26 203.634 1215.91 212.113C1220.75 237.08 1226.79 268.152 1220.43 294.409C1216.97 308.71 1210.01 320.203 1199.75 328.572C1193.98 333.276 1187.02 337.121 1179.07 339.997C1170.61 343.058 1160.78 345.113 1149.84 346.106C1145.37 346.512 1140.82 346.716 1136.19 346.716C1119.34 346.716 1101.39 344.013 1081.72 338.536C1059.56 332.366 1038.17 323.463 1020.99 316.31C977.895 298.367 936.785 278.176 898.799 256.295C865.886 237.336 836.856 215.179 808.779 193.753C776.6 169.194 743.324 143.798 704.223 123.289C657.369 98.7123 603.687 89.3699 544.665 95.5244C425.274 107.973 302.29 183.995 238.544 249.361C218.967 269.435 204.238 291.034 189.992 311.922C184.773 319.574 179.379 327.487 173.79 335.266C162.454 351.042 151.259 362.339 138.557 370.813C130.629 376.101 122.028 380.271 112.992 383.204C102.946 386.465 92.0031 388.32 80.4669 388.715C78.6037 388.776 76.7268 388.808 74.8472 388.808Z" fill="#FFE492"/>
</g>
</g>
</g>
</g>
<defs>
<clipPath id="clip0_5_34420">
<rect width="1440" height="434"/>
</clipPath>
</defs>
</svg>
