<svg width="37" height="29" viewBox="0 0 37 29" fill="none" xmlns="http://www.w3.org/2000/svg">
<g id="Landing page V2 / desktop / 1440px" clip-path="url(#clip0_5_34420)">
<g id="Footer">
<g id="Content">
<g id="Info">
<g id="Logo-description">
<g id="Logo">
<g id="Logo Icon" clip-path="url(#clip1_5_34420)">
<g id="Group">
<g id="Group_2">
<path id="Vector" d="M0 2.36525V9.1182C0 11.1749 2.50611 12.2719 4.03763 10.8322L11.3471 4.0792C12.9483 2.6052 11.904 0 9.71119 0H2.40169C1.07902 0 0 1.06265 0 2.36525Z" fill="white"/>
<path id="Vector_2" d="M34.5982 0H27.2887C25.1307 0 24.0517 2.6052 25.6528 4.0792L32.9623 10.8322C34.4938 12.2376 36.9999 11.1749 36.9999 9.1182V2.36525C36.9999 1.06265 35.9209 0 34.5982 0Z" fill="white"/>
</g>
<path id="Vector_3" d="M20.1533 16.4881L32.9624 28.3487C34.4939 29.7541 37 28.6914 37 26.6347V19.8132C37 19.1619 36.7215 18.5449 36.2342 18.0992L20.1533 3.1879C19.2135 2.33092 17.7865 2.33092 16.8467 3.1879L0.765757 18.0992C0.278457 18.5449 0 19.1619 0 19.8132V26.6347C0 28.6914 2.50611 29.7884 4.03763 28.3487L16.8467 16.4881C17.7865 15.6312 19.2135 15.6312 20.1533 16.4881Z" fill="white"/>
</g>
</g>
</g>
</g>
</g>
</g>
</g>
</g>
<defs>
<clipPath id="clip0_5_34420">
<rect width="1440" height="8192" fill="white" transform="translate(-32 -7860.5)"/>
</clipPath>
<clipPath id="clip1_5_34420">
<rect width="37" height="29" fill="white"/>
</clipPath>
</defs>
</svg>
