<svg width="516" height="39" viewBox="0 0 516 39" fill="none" xmlns="http://www.w3.org/2000/svg">
<g id="Landing page V2 / desktop / 1440px">
<g id="Work-management">
<g id="Content">
<g id="Headline">
<g id="Text-block">
<g id="Element">
<path id="Vector" d="M482.406 19.3688C481.704 19.4014 480.994 19.4246 480.307 19.4724C479.86 19.5024 479.667 19.419 479.368 19.3761C479.269 19.3611 479.161 19.3309 479.069 19.335C478.374 19.3676 477.679 19.404 476.984 19.4405C476.772 19.5155 476.638 19.6151 476.312 19.6523C475.994 19.6876 475.617 19.6887 475.263 19.7069C474.794 19.7293 474.326 19.7517 473.858 19.7722C473.624 19.7825 473.433 19.8193 473.356 19.8882C473.342 19.8996 473.498 19.9278 473.584 19.9447C473.868 20.001 474.146 20.065 474.459 20.108C474.758 20.149 475.126 20.0793 475.447 20.1317C476.165 20.2497 476.173 20.2478 476.719 20.2232C477.187 20.2008 477.655 20.1765 478.123 20.1599C478.216 20.1558 478.323 20.1841 478.422 20.199C478.721 20.2401 478.914 20.3349 479.354 20.2973C479.687 20.2677 480.056 20.2609 480.404 20.2446C480.696 20.299 480.966 20.3611 481.279 20.404C481.571 20.4451 481.657 20.4773 481.501 20.5331C481.36 20.585 481.162 20.6066 480.899 20.6112C480.665 20.6138 480.431 20.6316 480.197 20.6419C480.076 20.648 479.963 20.6521 479.849 20.6582C479.402 20.6805 479.402 20.6805 478.584 20.5609C478.264 20.5142 477.903 20.582 477.597 20.5372C477.39 20.5073 477.212 20.4621 477.013 20.4302C476.928 20.4171 476.793 20.4156 476.686 20.4198C476.332 20.4342 475.977 20.4448 475.636 20.4706C475.395 20.4885 475.254 20.5423 475.283 20.5957C475.291 20.6166 475.461 20.6466 475.561 20.6482C475.788 20.6514 476.029 20.6239 476.249 20.6366C476.463 20.6493 476.683 20.6868 476.84 20.7283C477.161 20.815 477.522 20.7358 477.827 20.7577C478.147 20.7816 478.411 20.8571 478.717 20.9019C478.795 20.9131 478.944 20.8936 479.065 20.8875C479.412 20.8731 479.76 20.8606 480.108 20.8462C480.4 20.9007 480.713 20.9493 480.976 21.0114C481.454 21.1244 481.965 21.1668 482.582 21.1096C482.93 21.078 483.27 21.0884 483.548 21.162C483.834 21.2374 484.16 21.2288 484.522 21.2125C484.855 21.1962 485.195 21.1532 485.537 21.2056C486.277 21.3216 486.284 21.3273 487.157 21.2789C487.419 21.2648 487.618 21.2604 487.817 21.3036C488.003 21.3431 488.202 21.3768 488.394 21.4144C488.742 21.4 489.096 21.3856 489.444 21.3693C489.891 21.347 490.14 21.3729 490.248 21.4794C490.313 21.544 490.342 21.6031 490.499 21.6465C490.684 21.6993 490.883 21.6968 491.153 21.6807C491.408 21.6666 491.592 21.6451 491.698 21.5761C491.74 21.5474 491.825 21.5204 491.902 21.4973C491.966 21.4799 492.065 21.4529 492.122 21.4566C492.229 21.4639 492.371 21.4844 492.407 21.5091C492.758 21.7388 492.758 21.7408 493.114 21.8064C493.506 21.8796 493.911 21.9452 494.268 22.028C494.588 22.1014 494.907 22.0681 495.255 22.067C495.518 22.0662 495.689 22.1153 495.668 22.1649C495.654 22.1936 495.556 22.2358 495.471 22.2399C494.775 22.2801 494.073 22.3147 493.371 22.3435C493.286 22.3476 493.179 22.3136 493.079 22.2967C492.88 22.263 492.701 22.2101 492.488 22.1993C492.275 22.1885 492.027 22.2178 491.793 22.2281C491.559 22.2383 491.311 22.2639 491.098 22.2493C490.884 22.2347 490.713 22.1799 490.514 22.1442C490.421 22.1273 490.293 22.1029 490.215 22.1089C489.698 22.1562 489.313 22.0944 488.943 22.0116C488.864 21.9947 488.729 21.9837 488.63 21.9878C487.807 22.0227 486.991 22.0633 486.168 22.102C485.835 22.1183 485.564 22.0523 485.491 21.94C485.455 21.8772 485.383 21.8145 485.382 21.7515C485.38 21.6371 484.989 21.5753 484.705 21.5895C484.237 21.61 483.761 21.6267 483.301 21.6567C482.925 21.6807 482.605 21.6588 482.348 21.5909C482.049 21.5136 481.708 21.5299 481.368 21.5519C481.113 21.5679 481.042 21.6311 481.059 21.7893C481.075 21.9171 480.955 21.9575 480.494 21.9799C479.912 22.0083 479.323 22.0368 478.735 22.0595C478.642 22.0636 478.535 22.0315 478.443 22.0147C478.244 21.9809 478.065 21.9261 477.852 21.9153C477.639 21.9026 477.391 21.932 477.157 21.9441C476.923 21.9544 476.675 21.9818 476.461 21.9691C476.248 21.9564 476.07 21.8997 475.878 21.8641C475.785 21.8472 475.671 21.8227 475.579 21.8268C475.111 21.8435 474.642 21.8678 474.174 21.8902C473.649 21.9147 473.649 21.9147 472.902 21.7987C472.56 21.7463 472.22 21.7893 471.887 21.8055C471.532 21.8219 471.199 21.8305 470.921 21.755C470.735 21.706 470.529 21.6761 470.309 21.6863C469.72 21.711 469.139 21.7413 468.55 21.766C468.45 21.7701 468.315 21.761 468.237 21.7441C467.86 21.6651 467.489 21.6033 466.965 21.6449C466.511 21.6806 466.021 21.684 465.567 21.7178C465.319 21.7357 465.206 21.797 465.257 21.8446C465.285 21.8693 465.435 21.8974 465.534 21.8972C465.762 21.8984 466.01 21.869 466.223 21.8798C466.663 21.9014 466.886 22.0609 467.46 22.0153C467.801 21.9876 468.155 21.977 468.51 21.9683C468.602 21.9661 468.702 22.002 468.802 22.0208C469.087 22.0714 469.336 22.1374 469.747 22.1019C470.088 22.0741 470.45 22.0654 470.797 22.0491C471.351 22.0227 471.351 22.0246 472.07 22.1388C472.411 22.193 472.751 22.1481 473.085 22.1338C473.333 22.1235 473.567 22.1037 473.766 22.1298C474.072 22.169 474.293 22.2598 474.67 22.253C475.024 22.2462 475.372 22.2184 475.727 22.2078C475.947 22.2014 476.153 22.2313 476.331 22.2823C476.517 22.3332 476.716 22.3555 476.957 22.3433C477.305 22.327 477.659 22.3069 478.014 22.2963C478.113 22.2941 478.227 22.3109 478.32 22.3259C478.519 22.3596 478.711 22.3991 478.904 22.4348C479.251 22.4223 479.606 22.4174 479.947 22.3935C480.209 22.3755 480.394 22.3826 480.607 22.4201C480.878 22.4708 481.099 22.5617 481.539 22.5165C481.759 22.4948 482.014 22.4998 482.234 22.48C482.503 22.4544 482.688 22.4634 482.881 22.52C483.244 22.6277 483.699 22.6282 484.167 22.5848C484.677 22.5375 485.061 22.5898 485.446 22.6725C485.852 22.7591 485.852 22.7571 486.167 22.9679C486.261 23.0286 486.524 23.0565 486.743 23.0444C487.112 23.0242 487.432 23.0327 487.703 23.1044C487.988 23.1817 488.329 23.1712 488.676 23.1491C489.137 23.1191 489.598 23.093 489.976 23.2025C490.161 23.2553 490.361 23.268 490.609 23.2539C491.311 23.2175 492.021 23.1944 492.709 23.1504C493.127 23.1224 493.369 23.1827 493.654 23.2333C494.038 23.3027 494.458 23.3644 494.461 23.5151C494.461 23.5399 494.561 23.5682 494.646 23.587C494.831 23.6265 495.031 23.6602 495.223 23.6978C495.508 23.7541 495.785 23.801 496.175 23.7693C496.516 23.7435 496.878 23.7348 497.225 23.7165C497.573 23.6983 497.892 23.6878 498.206 23.7594C498.569 23.8403 498.953 23.9173 499.366 23.9771C499.658 24.0201 500.04 23.9446 500.353 24.0027C500.546 24.0384 500.731 24.0798 500.937 24.1097C501.022 24.1228 501.157 24.1128 501.271 24.1087C501.505 24.1004 501.746 24.0939 501.973 24.0742C502.236 24.0524 502.434 24.0556 502.634 24.0989C502.819 24.1384 503.004 24.1931 503.218 24.2039C503.537 24.2201 503.891 24.1428 504.212 24.2295C504.376 24.2729 504.582 24.3142 504.795 24.327C505.009 24.3397 505.257 24.3103 505.484 24.3115C505.583 24.3112 505.704 24.3414 505.762 24.366C505.797 24.3792 505.748 24.4156 505.699 24.4348C505.635 24.4579 505.543 24.4887 505.451 24.4928C504.749 24.5293 504.046 24.56 503.344 24.5945C502.926 24.6149 502.926 24.6148 502.079 24.4972C501.88 24.4692 501.66 24.4756 501.412 24.4897C501.078 24.5079 500.738 24.5413 500.39 24.5081C499.933 24.3797 499.372 24.37 498.777 24.4214C498.529 24.4431 498.301 24.4438 498.116 24.4081C497.725 24.3368 497.312 24.2713 496.963 24.1865C496.692 24.1206 496.564 24.1152 496.452 24.2071C496.417 24.2358 496.382 24.2665 496.389 24.2931C496.433 24.3884 496.513 24.4816 496.557 24.5768C496.572 24.6035 496.515 24.6342 496.48 24.6629C496.368 24.7433 496.219 24.738 495.969 24.672C495.72 24.606 495.421 24.5631 495.024 24.5948C494.683 24.6225 494.314 24.6198 493.974 24.6495C493.449 24.693 493.079 24.6331 492.702 24.5522C492.623 24.5353 492.488 24.5261 492.389 24.5303C491.332 24.5773 490.282 24.63 489.225 24.6771C488.998 24.6873 488.792 24.6593 488.613 24.6084C488.428 24.5574 488.222 24.5314 487.994 24.5416C487.058 24.5845 486.122 24.6235 485.185 24.6759C484.802 24.6981 484.497 24.6742 484.233 24.6082C484.033 24.5592 483.849 24.5445 483.6 24.551C483.33 24.5575 483.139 24.5772 483.005 24.6329C482.878 24.6867 482.971 24.7188 483.256 24.7599C483.561 24.8048 483.846 24.8631 484.138 24.9156C484.372 24.9072 484.606 24.8913 484.834 24.8925C484.933 24.8922 485.026 24.9262 485.126 24.945C485.41 24.9995 485.674 25.054 486.078 25.0223C486.418 24.9945 486.78 24.9877 487.128 24.9695C487.61 24.9471 487.61 24.9471 488.393 25.0649C488.592 25.0948 488.805 25.0922 489.06 25.0743C489.28 25.0603 489.508 25.0863 489.665 25.143C489.729 25.1657 489.709 25.204 489.576 25.3302C489.577 25.4237 489.725 25.3813 489.774 25.3201C489.851 25.2321 489.701 25.204 489.418 25.2525C489.22 25.2874 489.121 25.3373 489.172 25.3772C489.2 25.3981 489.336 25.4244 489.576 25.3302C490.199 25.2139 490.674 25.1991 491.128 25.1672C491.397 25.1493 491.568 25.1564 491.782 25.2053C492.038 25.2637 492.295 25.3259 492.713 25.2941C493.167 25.2584 493.649 25.2531 494.11 25.2231C494.536 25.1951 494.757 25.2784 495.028 25.3272C495.355 25.3853 495.716 25.3174 496.015 25.3509C496.328 25.3843 496.549 25.4675 496.911 25.4817C497.436 25.4286 497.771 25.523 498.17 25.5847C498.483 25.6314 498.851 25.5884 499.185 25.5664C499.56 25.5424 499.873 25.5624 500.137 25.6303C500.436 25.7076 500.77 25.6894 501.11 25.6712C501.905 25.6307 501.933 25.6249 502.396 25.7284C502.731 25.8036 503.05 25.7684 503.383 25.7578C503.675 25.8084 503.96 25.8629 504.266 25.9077C504.344 25.9189 504.493 25.8994 504.614 25.8933C504.961 25.877 505.316 25.8607 505.663 25.8444C505.898 25.8342 506.146 25.8048 506.359 25.8156C506.572 25.8283 506.75 25.8831 506.943 25.9187C507.135 25.9544 507.334 25.99 507.519 26.0276C507.804 26.084 508.074 26.1309 508.472 26.101C508.812 26.0752 509.167 26.0665 509.521 26.0483C509.968 26.026 509.954 26.0317 510.787 26.1437C511.235 26.2053 511.695 26.1276 512.149 26.1186C512.376 26.1141 512.597 26.1344 512.754 26.1892C512.818 26.2119 512.797 26.2501 512.819 26.2825C511.649 26.3375 510.471 26.3849 509.315 26.4513C508.868 26.4775 508.633 26.4095 508.39 26.353C507.991 26.2627 507.468 26.3978 507.09 26.2807C506.862 26.2108 506.535 26.1717 506.145 26.2072C505.918 26.227 505.676 26.2258 505.442 26.2437C504.847 26.2874 504.3 26.291 503.822 26.1608C503.658 26.1155 503.424 26.0915 503.253 26.0481C503.053 26.001 502.861 25.9749 502.627 25.9851C501.57 26.0341 500.52 26.083 499.47 26.1358C499.378 26.1399 499.286 26.1688 499.208 26.19C499.01 26.244 499.075 26.2857 499.395 26.3191C499.501 26.3302 499.587 26.3548 499.687 26.3735C499.879 26.4092 500.057 26.4659 500.27 26.4786C500.484 26.4913 500.732 26.4638 500.966 26.4536C501.2 26.4434 501.448 26.414 501.661 26.4248C501.874 26.4375 502.053 26.4923 502.252 26.526C502.344 26.5429 502.459 26.5712 502.551 26.569C503.019 26.5561 503.48 26.5338 503.949 26.5152C504.24 26.5658 504.49 26.6394 504.838 26.6555C505.058 26.6663 505.292 26.6446 505.52 26.6478C505.619 26.6494 505.747 26.6776 505.797 26.7023C505.826 26.7174 505.734 26.7558 505.663 26.7751C505.395 26.8484 505.026 26.8362 504.692 26.8601C504.331 26.8859 504.004 26.8793 503.726 26.8058C503.54 26.7567 503.334 26.7307 503.107 26.7409C502.518 26.7674 501.937 26.7978 501.348 26.8206C501.248 26.8247 501.127 26.8079 501.035 26.7948C500.288 26.6807 500.288 26.6769 499.763 26.7033C498.989 26.7418 498.99 26.7418 498.47 26.6423C498.37 26.6235 498.263 26.5876 498.178 26.5898C497.355 26.6228 496.539 26.6557 495.723 26.7021C495.454 26.7162 495.269 26.7168 495.07 26.6678C494.899 26.6264 494.699 26.5793 494.486 26.5685C494.266 26.5577 494.025 26.587 493.791 26.5973C493.557 26.6075 493.308 26.6331 493.102 26.6184C492.889 26.6038 492.704 26.551 492.519 26.5134C492.326 26.4739 492.12 26.4764 491.858 26.4925C491.049 26.5388 491.042 26.5331 490.238 26.4173C490.146 26.4042 490.025 26.3893 489.926 26.3934C489.337 26.4181 488.755 26.4484 488.166 26.4731C487.939 26.4833 487.719 26.4592 487.562 26.4043C487.497 26.3817 487.518 26.3434 487.474 26.2692C487.424 26.2522 487.482 26.2825 487.496 26.3111C487.603 26.307 487.731 26.3104 487.808 26.2949C488.007 26.258 488.105 26.2101 488.055 26.1702C488.026 26.1493 487.891 26.123 487.806 26.1232C487.65 26.1237 487.515 26.1661 487.474 26.2692C487.028 26.3335 486.553 26.3483 486.092 26.3802C485.822 26.4 485.652 26.391 485.438 26.3421C485.181 26.2818 484.918 26.2235 484.499 26.2553C484.046 26.291 483.563 26.2981 483.095 26.3263C482.556 26.3584 482.319 26.1874 481.865 26.1926C481.396 26.1979 480.928 26.2317 480.46 26.256C480.048 26.2763 480.048 26.2763 479.195 26.1549C478.882 26.1101 478.514 26.1779 478.208 26.1312C478.001 26.1013 477.823 26.056 477.624 26.0242C477.538 26.0111 477.403 26.0115 477.297 26.0157C476.708 26.0403 476.112 26.0574 475.545 26.1011C474.9 26.1526 474.409 26.1007 473.946 25.9895C473.364 26.0123 472.775 26.0255 472.201 26.0634C471.782 26.0914 471.54 26.0292 471.255 25.9786C471.155 25.9617 471.07 25.9333 470.963 25.926C470.857 25.9187 470.729 25.9344 470.615 25.9404C470.147 25.9628 469.665 25.9738 469.211 26.0095C468.651 26.0551 468.435 25.8993 468.002 25.8815C467.712 25.9759 467.558 26.1041 466.983 26.1154C466.515 26.1244 466.047 26.1564 465.579 26.1788C465.344 26.189 465.11 26.2011 464.876 26.2114C464.5 26.2297 464.324 26.3046 464.404 26.4188C464.447 26.4816 464.484 26.5444 464.52 26.6073C464.593 26.7196 464.417 26.8155 464.119 26.8297C463.296 26.8684 462.48 26.909 461.657 26.9439C461.437 26.9541 461.224 26.9223 461.045 26.8714C460.86 26.8204 460.654 26.7982 460.427 26.8084C459.604 26.8471 458.788 26.8877 457.965 26.9226C457.873 26.9267 457.752 26.908 457.66 26.893C457.46 26.8593 457.268 26.8198 457.076 26.7842C456.607 26.8027 456.146 26.8156 455.685 26.8398C454.94 26.8764 454.94 26.8783 454.392 26.7751C454.292 26.7563 454.192 26.7204 454.1 26.7226C453.745 26.7313 453.398 26.7514 453.043 26.7696C452 26.8223 452 26.8223 451.694 26.766C451.416 26.7135 451.167 26.6494 450.748 26.6812C450.295 26.7169 449.812 26.7298 449.344 26.7502C448.996 26.7646 448.649 26.7809 448.301 26.7858C448.209 26.788 448.109 26.7521 448.009 26.7333C447.724 26.675 447.446 26.6282 447.057 26.6618C446.83 26.6815 446.588 26.6861 446.354 26.6963C445.744 26.7248 445.744 26.7248 444.741 26.6134C444.642 26.6023 444.521 26.5893 444.422 26.5953C443.599 26.6321 442.783 26.6727 441.96 26.7076C441.861 26.7117 441.74 26.7007 441.64 26.6914C440.517 26.5842 440.517 26.5842 439.325 26.6412C438.871 26.6616 438.857 26.6693 438.38 26.5697C438.166 26.5264 437.988 26.506 437.74 26.5201C436.804 26.5687 435.86 26.602 434.931 26.6582C434.512 26.6824 434.27 26.6259 433.985 26.5753C433.886 26.5584 433.779 26.5206 433.694 26.5227C432.757 26.5618 431.82 26.6085 430.884 26.6475C430.799 26.6516 430.692 26.6138 430.592 26.5969C430.4 26.5632 430.215 26.5122 430.001 26.5014C429.781 26.4907 429.54 26.52 429.299 26.5303C428.71 26.5568 428.71 26.5549 428.027 26.4445C427.934 26.4295 427.813 26.4089 427.721 26.4129C426.785 26.4539 425.841 26.4892 424.912 26.5473C424.38 26.5794 424.017 26.5252 423.64 26.4462C423.561 26.4293 423.426 26.4221 423.327 26.4262C422.27 26.4732 421.22 26.526 420.163 26.573C419.943 26.5832 419.729 26.5514 419.551 26.5024C419.266 26.4251 418.933 26.4356 418.578 26.4538C417.762 26.4963 417.755 26.4945 417.271 26.4044C417.171 26.3856 417.086 26.3611 416.979 26.3518C416.879 26.3426 416.752 26.3487 416.645 26.3529C416.177 26.3733 415.709 26.3957 415.241 26.4181C414.772 26.4405 414.297 26.4534 413.836 26.4872C413.269 26.529 412.997 26.4058 412.599 26.3498C412.017 26.3763 411.421 26.3934 410.846 26.4352C410.407 26.467 410.2 26.3837 409.908 26.3407C409.808 26.3258 409.701 26.2937 409.609 26.2978C408.552 26.3429 407.495 26.3919 406.445 26.4465C406.19 26.4587 406.019 26.444 405.805 26.3988C405.328 26.2973 405.307 26.3012 404.512 26.3417C404.165 26.3599 403.831 26.3762 403.532 26.2989C403.268 26.2291 402.949 26.2129 402.573 26.2369C402.112 26.2669 401.636 26.2836 401.168 26.3041C400.7 26.3265 400.232 26.3565 399.763 26.3675C399.387 26.3781 399.159 26.2892 398.86 26.2443C398.767 26.2312 398.64 26.2297 398.533 26.2338C398.065 26.2524 397.582 26.2672 397.128 26.301C396.575 26.3427 396.268 26.2388 395.877 26.1789C395.792 26.1658 395.65 26.1739 395.543 26.1799C394.72 26.2167 393.905 26.2573 393.082 26.296C392.79 26.2454 392.491 26.1967 392.199 26.1461C391.731 26.1666 391.263 26.189 390.794 26.2095C390.44 26.2258 390.078 26.2326 389.744 26.2622C389.312 26.3017 389.098 26.2127 388.806 26.1697C388.706 26.1547 388.599 26.1226 388.507 26.1267C387.918 26.1495 387.329 26.1741 386.748 26.2083C386.194 26.2424 385.972 26.0714 385.518 26.0747C385.049 26.078 384.567 26.1043 384.113 26.14C383.588 26.1816 383.218 26.1217 382.84 26.0408C382.762 26.0239 382.627 26.0147 382.528 26.0189C381.939 26.0435 381.357 26.0739 380.768 26.0985C380.669 26.1027 380.548 26.0935 380.449 26.0823C379.325 25.9732 379.325 25.9713 378.836 25.9957C378.488 26.012 378.134 26.0321 377.779 26.0427C377.679 26.0468 377.558 26.03 377.466 26.015C376.726 25.9009 376.726 25.899 376.194 25.9235C375.725 25.9459 375.257 25.9683 374.789 25.9907C374.497 25.9401 374.198 25.8914 373.906 25.8408C373.325 25.8673 372.729 25.8882 372.154 25.9242C371.885 25.9403 371.707 25.9351 371.501 25.8881C371.244 25.8316 370.987 25.7656 370.562 25.7993C370.108 25.835 369.626 25.8403 369.165 25.8703C368.611 25.9063 368.382 25.7334 367.934 25.7367C367.466 25.74 366.983 25.7662 366.53 25.8019C366.005 25.8436 365.635 25.7837 365.257 25.7028C365.179 25.6859 365.044 25.6767 364.945 25.6809C363.654 25.7401 362.369 25.7992 361.078 25.8622C360.284 25.9009 360.284 25.9028 358.77 25.8024C358.664 25.7951 358.55 25.7878 358.443 25.792C357.975 25.8106 357.492 25.8254 357.039 25.8591C356.485 25.9009 356.179 25.7988 355.787 25.737C355.702 25.7239 355.567 25.732 355.454 25.7361C355.099 25.7505 354.751 25.7688 354.397 25.7851C353.928 25.8075 353.46 25.8299 352.992 25.8523C352.7 25.8036 352.401 25.753 352.109 25.7042C351.528 25.7308 350.931 25.7459 350.357 25.7877C349.917 25.8196 349.71 25.7401 349.419 25.6952C349.319 25.6802 349.212 25.6481 349.12 25.6503C348.063 25.6955 347.006 25.7425 345.956 25.7991C345.523 25.8233 345.323 25.738 345.031 25.695C344.932 25.682 344.818 25.6576 344.725 25.6616C344.023 25.6905 343.321 25.725 342.618 25.7595C342.221 25.7798 342.221 25.7798 341.353 25.6642C341.254 25.6511 341.14 25.6381 341.041 25.6422C338.813 25.7443 336.592 25.8521 334.365 25.9541C334.138 25.9644 333.932 25.9364 333.753 25.8854C333.568 25.8345 333.362 25.8084 333.135 25.8186C332.198 25.8615 331.254 25.9006 330.325 25.953C329.942 25.9751 329.637 25.9512 329.373 25.8852C329.173 25.8363 328.989 25.8178 328.74 25.83C328.272 25.8542 327.804 25.8747 327.336 25.8971C326.867 25.9195 326.399 25.9419 325.931 25.9643C325.463 25.9867 324.987 25.9996 324.526 26.0334C323.959 26.0751 323.68 25.9577 323.289 25.8998C322.587 25.9305 321.884 25.9612 321.189 25.9938C320.252 26.0367 319.316 26.0834 318.38 26.1244C318.294 26.1284 318.188 26.0944 318.088 26.0776C317.796 26.0308 317.582 25.9646 317.149 25.9869C315.05 26.0943 312.935 26.1865 310.829 26.2921C310.389 26.3144 310.196 26.2329 309.897 26.19C309.797 26.1769 309.683 26.1506 309.591 26.1547C308.421 26.2059 307.25 26.2628 306.08 26.3178C305.604 26.3402 305.604 26.3402 304.807 26.2244C304.715 26.2113 304.594 26.1945 304.494 26.1986C302.969 26.268 301.451 26.3413 299.926 26.4126C299.699 26.4228 299.492 26.3968 299.307 26.3458C299.129 26.2949 298.915 26.2669 298.695 26.2771C297.291 26.3424 295.879 26.4057 294.482 26.4767C294.106 26.4969 293.793 26.4807 293.522 26.4128C293.33 26.3638 293.138 26.3434 292.897 26.3556C290.79 26.4554 288.682 26.5514 286.575 26.6569C286.171 26.6772 285.887 26.6418 285.63 26.5797C285.424 26.5307 285.246 26.5217 284.99 26.5301C284.721 26.5404 284.558 26.5619 284.41 26.6196C284.219 26.6945 284.1 26.7883 283.646 26.7954C283.177 26.8026 282.702 26.8269 282.241 26.8607C281.801 26.8945 281.594 26.8092 281.316 26.7586C281.11 26.723 280.918 26.7178 280.656 26.7358C280.415 26.7518 280.266 26.7846 280.125 26.8461C279.815 26.9767 279.786 26.9768 279.402 26.8959C279.195 26.8527 279.01 26.8189 278.783 26.8272C277.847 26.8682 276.91 26.913 275.974 26.9597C275.435 26.9861 275.428 26.9899 275.022 26.8958C274.822 26.8487 274.63 26.8264 274.396 26.8385C271.821 26.9607 269.245 27.0791 266.67 27.207C266.273 27.2273 266.003 27.1881 265.718 27.1317C265.625 27.1129 265.533 27.0865 265.426 27.0792C265.319 27.0719 265.199 27.0799 265.085 27.084C263.212 27.1717 261.332 27.2555 259.467 27.3527C259.041 27.375 258.813 27.3146 258.521 27.2659C258.422 27.2491 258.336 27.2226 258.229 27.2153C258.123 27.2099 257.995 27.2236 257.882 27.2297C256.009 27.3173 254.129 27.4012 252.263 27.4984C251.816 27.5207 251.623 27.4412 251.332 27.4001C251.232 27.3851 251.125 27.3568 251.033 27.3609C250.444 27.3837 249.862 27.414 249.273 27.4406C247.869 27.5078 246.464 27.5712 245.059 27.6402C244.52 27.6667 244.283 27.4976 243.829 27.5066C243.24 27.5179 242.658 27.5578 242.07 27.5863C241.601 27.6087 241.133 27.6292 240.665 27.6535C240.204 27.6758 240.204 27.6758 239.052 27.5687C238.953 27.5594 238.832 27.5465 238.732 27.5506C237.094 27.6261 235.448 27.7016 233.816 27.7828C233.44 27.8011 233.128 27.7925 232.857 27.7228C232.664 27.6738 232.465 27.6495 232.231 27.6617C229.769 27.7778 227.315 27.8939 224.853 28.0082C224.761 28.0123 224.64 27.9935 224.547 27.9786C224.348 27.9448 224.156 27.9054 223.964 27.8697C223.822 27.914 223.638 27.9546 223.547 28.0045C223.42 28.0716 223.25 28.0912 222.98 28.1034C222.711 28.1157 222.54 28.1124 222.327 28.0635C222.07 28.0032 221.807 27.9563 221.388 27.9766C218.813 28.1045 216.238 28.221 213.663 28.347C213.237 28.3674 213.037 28.284 212.738 28.2411C212.639 28.228 212.525 28.2074 212.432 28.2115C211.375 28.2586 210.325 28.3094 209.268 28.3584C206.338 28.4969 203.408 28.6297 200.486 28.7758C199.954 28.8022 199.591 28.7556 199.213 28.6747C199.135 28.6578 199 28.6487 198.901 28.6528C194.8 28.8444 190.7 29.0379 186.606 29.2315C186.386 29.2417 186.173 29.2118 185.995 29.1627C185.809 29.1118 185.603 29.0876 185.376 29.0979C183.503 29.1855 181.63 29.2732 179.757 29.3627C179.289 29.3851 179.282 29.387 178.798 29.2969C178.698 29.2782 178.591 29.2423 178.513 29.2463C178.35 29.2563 178.195 29.3045 178.082 29.3697C177.97 29.4387 177.792 29.4583 177.53 29.4724C177.26 29.4866 177.083 29.4814 176.876 29.4362C176.613 29.3798 176.37 29.3252 175.945 29.3456C170.56 29.6059 165.176 29.8567 159.791 30.1152C159.359 30.1355 159.159 30.0561 158.86 30.0131C158.76 30 158.66 29.9813 158.554 29.9778C158.44 29.9743 158.32 29.9861 158.206 29.9922C149.424 30.4058 140.641 30.8213 131.858 31.235C131.333 31.2594 131.34 31.2594 130.768 31.4366C130.697 31.4578 130.605 31.4867 130.506 31.4908C127.817 31.6209 125.122 31.7473 122.426 31.8737C121.255 31.9287 120.085 31.9856 118.914 32.0387C118.496 32.0572 118.496 32.0572 117.498 32.2662C117.413 32.2836 117.314 32.3068 117.214 32.3109C112.532 32.5329 107.85 32.7549 103.161 32.9731C102.792 32.9894 102.494 33.0247 102.325 33.1167C102.206 33.1819 102.05 33.2205 101.816 33.2327C98.5383 33.3875 95.2609 33.5442 91.9762 33.6953C91.586 33.7136 91.3525 33.7677 91.162 33.8484C91.0986 33.8753 91.0422 33.906 90.9502 33.9253C90.8653 33.9427 90.7376 33.9488 90.6312 33.9549C87.8219 34.0873 85.0127 34.2236 82.1962 34.3503C81.7776 34.3687 81.6082 34.4398 81.4035 34.5148C81.3329 34.5398 81.2837 34.5743 81.1916 34.5917C81.0996 34.6073 80.9647 34.6077 80.8512 34.6118C78.5101 34.7219 76.1691 34.8338 73.828 34.9439C73.3735 34.9357 73.2757 35.0466 73.0567 35.114C72.9789 35.1371 72.9227 35.1678 72.8307 35.1834C72.7315 35.1989 72.6036 35.1974 72.4829 35.2016C70.61 35.2892 68.7373 35.3826 66.8572 35.4646C66.4244 35.483 66.3407 35.5805 66.1074 35.648C66.0297 35.6692 65.9522 35.7019 65.86 35.7079C64.6895 35.7667 63.519 35.8217 62.3484 35.8748C61.9582 35.8932 61.9582 35.8913 61.2724 36.0822C61.1947 36.1034 61.1026 36.1265 61.0033 36.1326C59.2511 36.2179 57.4918 36.2995 55.7324 36.383C55.5054 36.3932 55.3499 36.4395 55.2373 36.5047C55.1247 36.5699 54.9621 36.6123 54.7351 36.6225C53.3304 36.6897 51.9257 36.7588 50.521 36.8202C50.1308 36.8367 49.876 36.8851 49.7069 36.9714C49.5801 37.0367 49.4244 37.0695 49.1762 37.0817C47.7715 37.147 46.3669 37.218 44.955 37.2757C44.5435 37.2922 44.3315 37.3576 44.1623 37.4382C44.0284 37.5035 43.8726 37.5269 43.6101 37.5391C41.0348 37.6575 38.4525 37.7758 35.8846 37.9056C35.4518 37.9279 35.2307 37.8618 34.946 37.815C34.5403 37.7495 34.1631 37.6782 34.1608 37.5294C34.1605 37.5065 34.0393 37.4802 33.9539 37.4614C33.3199 37.3202 33.3199 37.3202 33.2181 37.168C33.1599 37.0747 33.0946 36.9795 33.0434 36.8843C32.9488 36.7282 32.7209 36.6888 32.0682 36.7194C31.8341 36.7297 31.6 36.7437 31.3659 36.752C31.0182 36.7664 30.7546 36.7043 30.689 36.5901C30.6525 36.5272 30.6091 36.4644 30.5726 36.4016C30.9273 36.3853 30.9201 36.3834 31.5413 36.1507C31.8025 36.0527 31.8026 36.0527 31.2971 35.9569C31.1048 35.9213 30.9196 35.8818 30.7132 35.8481C30.6207 35.8331 30.4999 35.8239 30.4006 35.828C29.8117 35.8527 29.23 35.8811 28.6483 35.9096C27.7119 35.9544 27.7118 35.9544 26.7575 35.7627C26.6792 35.7477 26.5581 35.7195 26.572 35.7042C26.649 35.6334 26.8402 35.6022 27.0815 35.5939C27.4363 35.5814 27.7838 35.5613 28.1314 35.545C28.3655 35.5347 28.5996 35.5226 28.8338 35.5123C29.0527 35.4392 29.2789 35.368 29.4837 35.293C29.8085 35.1775 29.8083 35.1737 29.3598 35.095C29.0751 35.0424 28.7691 34.9957 28.4773 34.947C28.1296 34.9633 27.775 34.9815 27.4273 34.9959C26.9874 35.0144 26.8094 34.9787 26.6939 34.8551C26.5929 34.7466 26.7121 34.6528 27.0525 34.6289C27.4 34.605 27.7265 34.5888 27.9025 34.491C28.0714 34.397 28.369 34.3599 28.738 34.3511C28.9722 34.3447 29.2063 34.3306 29.4404 34.3185C29.7454 34.3023 29.9072 34.2046 29.8417 34.096C29.8051 34.0256 29.7332 33.9667 29.4561 33.9522C28.2269 33.8892 28.2127 33.8911 27.6002 33.7633C27.5432 33.752 27.5002 33.7178 27.5212 33.7006C27.5563 33.6719 27.6338 33.6297 27.7189 33.6237C28.5346 33.5793 29.3504 33.5387 30.1663 33.5076C30.436 33.4973 30.6346 33.4833 30.7258 33.4125C30.8521 33.3148 30.7939 33.2254 30.5444 33.1594C30.466 33.1386 30.3377 33.1123 30.2525 33.1145C29.316 33.1516 28.3867 33.1983 27.4502 33.2354C27.365 33.2395 27.2085 33.2076 27.1726 33.1829C27.1009 33.1373 27.2064 33.076 27.4545 33.0542C27.7806 33.0247 28.1143 33.0217 28.3329 32.9257C28.6361 32.7894 29.0104 32.6643 29.3491 32.5336C29.4056 32.5105 29.4973 32.4664 29.476 32.4626C29.2979 32.4212 29.0915 32.3894 28.9063 32.3499C28.5929 32.2841 28.5914 32.1907 28.661 32.1008C28.7167 32.0282 28.9292 31.9989 29.1919 31.9981C29.3055 31.9978 29.4475 31.9974 29.5395 31.9799C29.7802 31.9372 29.8575 31.8836 29.7362 31.8439C29.6649 31.8212 29.5367 31.7892 29.4515 31.7933C27.9333 31.8608 26.4078 31.9264 24.8969 32.0092C24.45 32.0334 24.2432 31.9615 23.9727 31.9109C23.7662 31.8714 23.5741 31.8567 23.319 31.8861C23.0781 31.9135 22.8436 31.899 22.6936 31.8365C22.5721 31.7854 22.7844 31.7409 23.3587 31.6896C23.465 31.6797 23.5855 31.6736 23.6633 31.6543C24.4837 31.4459 24.4836 31.444 25.0511 31.4155C25.6045 31.3891 25.6046 31.3872 25.894 31.2757C26.0281 31.2238 26.1762 31.1718 26.3032 31.1181C26.3526 31.0969 26.4373 31.0585 26.4087 31.0472C26.2516 30.9885 26.0384 30.9758 25.7901 30.9899C25.2369 31.024 24.5835 30.9993 24.2952 31.1813C24.1826 31.2503 24.0054 31.2699 23.75 31.2821C21.1819 31.4005 18.6138 31.5265 16.0384 31.6411C15.6199 31.6595 15.4294 31.7306 15.2673 31.8093C15.1263 31.8746 14.9704 31.8941 14.7008 31.9064C14.4312 31.9186 14.2182 31.925 14.0611 31.8625C13.9682 31.8247 14.0455 31.771 14.2577 31.717C14.5617 31.6398 14.5035 31.5446 14.4027 31.4553C14.3308 31.3963 14.1101 31.3551 13.8759 31.3596C13.5282 31.3682 13.1949 31.3902 12.9027 31.3148C12.7317 31.2715 12.5182 31.2416 12.3259 31.204C11.9556 31.1269 11.5852 31.048 11.0678 31.101C10.7125 31.083 10.463 31.0151 10.1782 30.9626C9.70124 30.8763 9.65845 30.863 9.99777 30.7686C10.3795 30.6625 10.0792 30.5261 10.2906 30.4225C10.5161 30.3112 10.8271 30.213 11.1024 30.1092C11.1729 30.0822 11.2365 30.0573 11.3071 30.0303C11.1432 29.9927 10.9934 29.9455 10.8013 29.9193C10.5523 29.8858 10.4239 29.8442 10.4363 29.7259C10.3864 29.7089 10.4082 29.7527 10.4651 29.7639C10.5292 29.7752 10.6854 29.7652 10.7632 29.7516C10.9615 29.7148 11.06 29.6668 11.0097 29.6269C10.981 29.606 10.8458 29.5797 10.7606 29.58C10.6044 29.5804 10.4702 29.6228 10.4292 29.7259C9.63531 29.8065 8.81227 29.8471 7.98925 29.8801C7.90412 29.8842 7.79711 29.8464 7.69743 29.8276C7.36989 29.7637 7.36988 29.7656 6.41122 29.7495C6.3118 29.7478 6.17658 29.7216 6.12648 29.695C5.91883 29.5793 5.92404 29.4515 5.82276 29.3278C6.00611 29.2472 6.18934 29.1684 6.37982 29.0897C6.76075 28.9302 7.25567 28.7895 7.55118 28.615C7.48586 28.5218 7.39923 28.4286 7.71043 28.3514C8.59635 28.2533 8.5893 28.2534 8.82927 28.1611C9.51392 27.8996 10.1914 27.6363 10.9045 27.3786C11.0951 27.3112 11.0946 27.275 10.7534 27.2474C10.6468 27.2401 10.5331 27.2386 10.4195 27.2427C10.0648 27.2571 9.71037 27.2925 9.3624 27.286C9.01446 27.2813 8.75762 27.1981 8.47287 27.1475C8.18099 27.095 7.8891 27.0405 7.5972 26.9861C7.26363 26.9928 6.93085 27.0472 6.59589 26.9624C6.3393 26.8964 6.01914 26.8497 5.72724 26.7953C5.94509 26.6497 6.35521 26.5378 6.67272 26.4091C6.962 26.2919 6.96897 26.2938 7.74849 26.2018C8.117 26.1587 8.2415 25.9428 7.92818 25.8808C7.55077 25.8057 7.15223 25.7363 6.76777 25.665C6.43421 25.6717 6.09431 25.7242 5.77354 25.6394C5.52409 25.5753 5.2394 25.5323 4.82804 25.5583C4.13297 25.6024 3.42341 25.6255 2.72113 25.6619C2.47994 25.6741 2.21708 25.6673 2.10961 25.6027C2.03792 25.5572 2.24284 25.4936 2.47691 25.4796C2.83157 25.4594 3.15064 25.4356 3.32666 25.3397C3.49558 25.2438 3.80746 25.2143 4.17641 25.1998C4.27574 25.1957 4.38906 25.1725 4.4384 25.1494C4.69228 25.038 4.9748 24.9418 5.52148 24.944C5.74807 24.9052 5.86795 24.8571 5.79626 24.8116C5.75329 24.7869 5.60379 24.7549 5.51866 24.759C4.92973 24.7799 4.34083 24.8007 3.76633 24.8368C3.4968 24.8528 3.29087 24.8573 3.11962 24.8006C2.99836 24.7628 3.06145 24.7111 3.28778 24.6551C3.48582 24.6068 3.54183 24.5513 3.52665 24.4865C3.48885 24.336 3.27517 24.2928 2.59381 24.3044C2.10409 24.3135 1.98302 24.289 1.87456 24.1597C1.84569 24.1292 1.77419 24.0875 1.82356 24.0664C2.12684 23.9358 2.32318 23.775 2.89727 23.7122C3.12409 23.6886 3.36536 23.6879 3.50658 23.6379C3.64781 23.5879 3.77478 23.5303 3.92313 23.4821C4.10683 23.4244 4.23367 23.3706 4.14793 23.3346C4.00496 23.2702 3.77778 23.2652 3.51546 23.2888C3.28859 23.3086 3.04726 23.3112 2.81316 23.3234C2.39464 23.3456 2.05321 23.2971 2.00223 23.2133C1.86397 22.9925 1.7186 22.7736 1.59454 22.5527C1.57993 22.5261 1.61481 22.4916 1.67125 22.4686C1.8688 22.3879 2.08069 22.3109 2.28537 22.2321C2.52537 22.1418 2.90904 22.1578 3.23533 22.1396C3.69639 22.1134 3.69626 22.1153 4.31108 21.9304C4.55134 21.8572 4.97064 21.8845 5.21812 21.819C5.29588 21.7977 5.41604 21.763 5.39446 21.744C5.36568 21.7193 5.22348 21.7007 5.11682 21.6896C5.01726 21.6784 4.89652 21.6731 4.79012 21.6791C3.49894 21.7383 2.21496 21.8013 0.92375 21.8586C0.703825 21.8688 0.461811 21.8276 0.382819 21.7687C0.303885 21.7136 0.324093 21.6468 0.308934 21.5839C0.513612 21.5051 0.746684 21.4319 0.922878 21.3474C1.05677 21.2822 1.21254 21.2531 1.48224 21.2485C1.83711 21.2417 2.18465 21.2178 2.58193 21.1994C3.31598 20.9187 4.03557 20.6248 4.82641 20.3439C5.14415 20.2304 5.06444 20.1162 5.1265 19.9959C5.1887 19.8851 5.66457 19.9008 5.98353 19.8675C6.23869 19.84 6.32283 19.7787 6.2228 19.737C6.16563 19.7124 6.03748 19.6842 5.9381 19.6845C5.70383 19.6852 5.46983 19.7031 5.23571 19.7133C5.00159 19.7235 4.73175 19.7186 4.54057 19.7516C4.35646 19.7827 4.2367 19.8479 4.11686 19.9036C3.98291 19.965 3.80588 19.9865 3.53617 19.9912C3.18838 19.996 2.84081 20.0142 2.49316 20.0286C2.10868 19.9554 1.70994 19.8841 1.3396 19.8071C1.26838 19.792 1.25343 19.7482 1.2601 19.7196C1.27316 19.6452 1.166 19.5997 0.93118 19.5642C0.731941 19.5342 0.56798 19.4909 0.382823 19.4533C0.524017 19.4014 0.679494 19.3513 0.792234 19.2957C1.03892 19.1786 1.35003 19.0937 1.88962 19.0959C2.10145 19.0209 2.27038 18.9288 2.54646 18.8765C2.80837 18.8261 3.25638 18.8744 3.45344 18.7612C3.55198 18.7056 3.70018 18.6422 3.89151 18.6188C4.19621 18.5816 4.59404 18.5995 4.76989 18.4922C4.87544 18.4308 5.03071 18.375 5.23635 18.3592C5.47036 18.3413 5.7116 18.3368 5.88143 18.3C5.97342 18.2807 6.07236 18.2499 6.07195 18.2232C6.07169 18.206 5.92941 18.1797 5.82985 18.1686C5.73736 18.1555 5.61639 18.1463 5.50996 18.1505C5.15519 18.163 4.80766 18.185 4.45288 18.1975C4.35356 18.2016 4.2398 18.1886 4.13314 18.1775C3.82032 18.1479 3.84099 18.1097 4.08841 18.0403C4.33586 17.9728 4.51212 17.8864 4.7168 17.8076C4.94376 17.7936 5.22777 17.7985 5.38339 17.7618C5.64516 17.7018 5.82837 17.6155 6.04021 17.5404C6.2743 17.5283 6.51559 17.5238 6.73534 17.5021C6.82751 17.4942 6.8695 17.4521 6.94721 17.4271C7.08847 17.379 7.2082 17.31 7.39952 17.2865C7.71136 17.2512 8.0949 17.2634 8.27787 17.158C8.38343 17.0966 8.54565 17.0313 8.74437 17.0269C9.29797 17.0176 9.53065 16.912 9.81309 16.812C10.0249 16.7369 10.4799 16.7737 10.713 16.6986C10.8684 16.6505 10.9812 16.591 11.1367 16.5448C11.2003 16.5255 11.335 16.5156 11.4414 16.5095C12.023 16.4792 12.6119 16.4564 13.1936 16.4241C13.2858 16.4181 13.3706 16.3893 13.4412 16.3662C13.5896 16.3162 13.6807 16.2472 13.8648 16.2142C14.0489 16.1813 14.3115 16.1805 14.5385 16.1703C15.2693 16.1394 15.3262 16.1469 15.6574 15.9838C15.9252 15.8514 16.5869 15.9428 16.8047 15.7972C16.9312 15.7129 17.1644 15.6436 17.5831 15.6328C18.1721 15.6177 18.7536 15.5797 19.3425 15.5531C19.8674 15.5286 19.8604 15.5286 20.4256 15.3496C20.6799 15.2687 21.0564 15.279 21.3898 15.2628C21.7446 15.2464 22.0707 15.2226 22.2397 15.1267C22.4086 15.0327 22.7205 15.0013 23.0823 14.9868C23.4158 14.9725 23.7922 14.9809 24.0537 14.9038C24.6898 14.7188 24.6827 14.7169 25.1297 14.6965C25.832 14.6638 26.5343 14.6312 27.2366 14.5967C27.7049 14.5743 28.1946 14.569 28.6341 14.5257C28.9531 14.4942 29.0934 14.387 29.2981 14.312C29.8798 14.2817 30.4615 14.2513 31.0432 14.2228C31.859 14.1822 32.6819 14.1454 33.5049 14.1067C33.8587 14.0332 33.9061 13.8728 34.5023 13.8634C34.8572 13.8585 35.2046 13.8327 35.5594 13.8163C36.1482 13.7879 36.7298 13.7518 37.3188 13.7367C37.7659 13.7258 37.8423 13.6225 38.0755 13.557C38.1533 13.5339 38.2238 13.5013 38.316 13.4953C39.2381 13.4391 40.1891 13.4248 41.0895 13.3439C41.1817 13.336 41.2663 13.2956 41.2871 13.267C41.3011 13.2517 41.18 13.2234 41.1017 13.2103C41.0092 13.1953 40.8883 13.1804 40.789 13.1846C37.859 13.3212 34.9292 13.4597 31.9992 13.5963C31.5878 13.6166 31.5877 13.6147 30.59 13.8275C30.5051 13.8449 30.4059 13.8643 30.2995 13.8703C29.8313 13.8946 29.3559 13.9094 28.8949 13.9394C28.519 13.9634 28.2064 13.9415 27.9355 13.8736C27.7431 13.8246 27.544 13.81 27.3027 13.8145C27.033 13.821 26.856 13.8426 26.7006 13.8945C26.4958 13.9657 26.3907 14.0576 25.9579 14.0779C23.9643 14.166 21.9708 14.2635 19.9844 14.3572C19.7071 14.3314 19.5717 14.2917 19.6419 14.2438C19.6841 14.2151 19.7687 14.1767 19.8538 14.1726C20.6696 14.1301 21.4926 14.0933 22.3084 14.0527C22.4219 14.0466 22.5781 14.05 22.6417 14.0307C22.9527 13.9439 23.0643 13.8044 23.6534 13.7931C23.994 13.7863 24.3414 13.7567 24.6676 13.729C24.7597 13.7211 24.8443 13.6808 24.8652 13.6521C24.8721 13.6368 24.758 13.6086 24.6726 13.5955C24.3594 13.5411 23.9985 13.609 23.6855 13.5718C23.5788 13.5587 23.4294 13.5401 23.4077 13.5173C23.3932 13.4963 23.5134 13.4616 23.5982 13.4404C23.676 13.4211 23.7822 13.4036 23.8886 13.3976C24.825 13.3509 25.7615 13.3023 26.6981 13.2651C27.0812 13.2506 27.3502 13.2021 27.5192 13.1139C27.646 13.0487 27.8017 13.0139 28.0429 13.0036C29.6817 12.9281 31.3203 12.845 32.9663 12.7752C33.3778 12.7587 33.5899 12.6951 33.759 12.6126C33.8929 12.5473 34.0488 12.524 34.3113 12.5117C36.6595 12.4055 38.9934 12.2879 41.3417 12.1854C41.7745 12.1669 41.9011 12.0846 42.1201 12.0133C42.1978 11.9883 42.2469 11.9576 42.346 11.9421C42.4452 11.9265 42.573 11.928 42.6936 11.9238C44.5665 11.8362 46.4394 11.7428 48.3195 11.6609C48.7594 11.6424 48.843 11.5468 49.0691 11.4793C49.1469 11.4581 49.2174 11.4236 49.3096 11.4176C50.7142 11.3485 52.1189 11.2833 53.5235 11.2161C54.46 11.1713 55.3964 11.1265 56.3328 11.0836C56.794 11.0632 56.794 11.0613 57.4159 10.8782C57.4866 10.857 57.5857 10.8319 57.6779 10.8259C60.3736 10.6957 63.0623 10.5713 65.7581 10.443C65.9851 10.4328 66.1477 10.3884 66.2603 10.3233C66.3729 10.2581 66.5356 10.2137 66.7556 10.2035C68.8625 10.1018 70.9695 10.002 73.0836 9.906C73.4667 9.88959 73.7357 9.843 73.9048 9.75667C74.0316 9.69144 74.1872 9.65665 74.4284 9.64639C76.5355 9.5485 78.6425 9.44487 80.7567 9.35076C81.1611 9.33238 81.3588 9.26695 81.5564 9.19006C81.6269 9.16315 81.6831 9.11911 81.7682 9.11504C82.8181 9.05848 83.8607 9.00002 84.9179 8.9606C85.3579 8.94402 85.5058 8.86346 85.6821 8.78664C85.8231 8.72519 85.9861 8.70372 86.2558 8.69528C86.8447 8.67634 87.4263 8.64218 88.0008 8.60803C88.0859 8.60205 88.1918 8.55977 88.1985 8.53305C88.212 8.48342 88.0481 8.44958 87.7781 8.43322C84.9687 8.56566 82.1524 8.6981 79.3431 8.83053C78.882 8.8529 78.8819 8.85291 78.26 9.03597C78.1893 9.05717 78.0902 9.08226 77.9909 9.08828C75.2951 9.21656 72.6065 9.34291 69.9107 9.47118C69.6837 9.4814 69.5211 9.52576 69.4085 9.59094C69.2959 9.65613 69.1331 9.70048 68.9132 9.71068C66.338 9.83287 63.7629 9.95698 61.1805 10.0735C60.7974 10.0899 60.5284 10.1345 60.3593 10.2228C60.2325 10.288 60.0769 10.3228 59.8357 10.3331C57.3739 10.4473 54.9193 10.5672 52.4504 10.6776C52.2021 10.6879 52.0168 10.6332 52.0302 10.5816C52.0369 10.5549 52.1425 10.5108 52.2277 10.5067C53.5116 10.4399 54.7886 10.3712 56.0799 10.3196C56.5127 10.303 56.6391 10.2187 56.8581 10.1475C56.9287 10.1225 56.985 10.0899 57.0771 10.0763C57.1763 10.0607 57.3041 10.0623 57.4247 10.0581C60.4681 9.9135 63.5116 9.76701 66.5622 9.63004C67.0021 9.60964 67.0857 9.51592 67.3119 9.44849C67.3896 9.42537 67.4601 9.39084 67.5524 9.38674C68.4887 9.33815 69.4252 9.29527 70.3616 9.2524C72.0004 9.17499 73.6391 9.09757 75.285 9.02014C75.7603 8.99773 75.7603 8.99772 76.3681 8.81661C76.4388 8.79542 76.5378 8.76844 76.6301 8.76434C80.9646 8.55866 85.2992 8.35296 89.6338 8.14918C89.8609 8.13896 90.0234 8.09461 90.136 8.02942C90.2487 7.96615 90.4112 7.91988 90.6311 7.90778C96.4909 7.63074 102.344 7.35372 108.204 7.08049C108.587 7.06218 108.856 7.02131 109.025 6.93116C109.144 6.86595 109.307 6.83114 109.548 6.81897C115.99 6.51539 122.432 6.21181 128.88 5.9063C133.215 5.70252 137.549 5.49493 141.884 5.29496C142.281 5.2766 142.493 5.21683 142.691 5.13803C142.754 5.11114 142.818 5.06708 142.903 5.06301C143.832 5.01253 144.761 4.96587 145.691 4.91921C145.982 4.96982 146.274 5.01854 146.566 5.06916C146.785 4.99602 146.997 4.921 147.216 4.84786C148.621 4.78832 150.004 4.69833 151.423 4.66735C151.515 4.66517 151.615 4.70111 151.715 4.71988C152.377 4.83804 152.753 4.82737 153.169 4.66591C153.318 4.60825 153.445 4.55637 153.672 4.54615C154.374 4.50971 155.084 4.48468 155.779 4.44253C156.155 4.42042 156.467 4.43855 156.738 4.50639C156.93 4.5554 157.13 4.57579 157.364 4.56364C158.655 4.50254 159.939 4.44335 161.23 4.37843C161.322 4.37434 161.407 4.34165 161.477 4.31855C161.626 4.26852 161.753 4.21474 161.894 4.16282C162.086 4.19467 162.3 4.21882 162.456 4.26031C162.656 4.3093 162.84 4.30873 163.11 4.29457C168.26 4.04828 173.418 3.80769 178.568 3.55949C179.008 3.5391 179.201 3.61863 179.5 3.65968C179.599 3.67464 179.699 3.69341 179.806 3.6969C179.919 3.70037 180.04 3.68858 180.153 3.68251C184.02 3.49921 187.886 3.31781 191.752 3.13451C192.263 3.11009 192.263 3.11009 193.025 3.22604C193.117 3.24102 193.238 3.25783 193.337 3.25181C195.097 3.17212 196.856 3.08673 198.608 3.00516C198.835 2.99494 199.028 3.02487 199.234 3.06811C199.64 3.15272 199.668 3.15264 199.965 3.02587C200.106 2.96632 200.254 2.92962 200.488 2.91175C200.743 2.89191 200.95 2.89703 201.149 2.93076C201.434 2.97758 201.641 3.05705 202.073 3.03477C203.946 2.93949 205.826 2.85945 207.692 2.76228C208.118 2.74002 208.346 2.80417 208.63 2.851C208.73 2.86786 208.823 2.89429 208.929 2.89969C209.036 2.90509 209.163 2.89134 209.277 2.88528C211.618 2.77523 213.966 2.6671 216.3 2.54945C216.74 2.52714 216.933 2.60855 217.232 2.64961C217.331 2.66457 217.445 2.69094 217.537 2.68685C218.942 2.6235 220.354 2.55629 221.759 2.48912C222.262 2.46471 222.262 2.46662 223.031 2.58065C223.123 2.59563 223.244 2.61052 223.344 2.60641C224.982 2.5309 226.628 2.45347 228.267 2.37606C228.771 2.35166 228.771 2.35166 230.228 2.44645C230.334 2.45376 230.448 2.46487 230.554 2.46074C232.427 2.37308 234.307 2.28731 236.18 2.19393C236.556 2.17563 236.869 2.18995 237.139 2.25779C237.332 2.3068 237.531 2.32719 237.765 2.31504C239.872 2.21524 241.986 2.11924 244.086 2.01373C244.49 1.99344 244.754 2.03459 245.038 2.08905C245.131 2.10784 245.224 2.13427 245.33 2.14157C245.437 2.14888 245.557 2.14088 245.671 2.13482C247.778 2.03502 249.892 1.94092 251.992 1.83351C252.417 1.81125 252.646 1.87541 252.93 1.92223C253.03 1.9391 253.137 1.97311 253.222 1.97094C254.045 1.93604 254.868 1.90496 255.684 1.85482C256.124 1.8268 256.317 1.91393 256.615 1.95499C256.715 1.96804 256.829 1.99632 256.921 1.99223C258.681 1.91255 260.44 1.82906 262.192 1.74368C262.441 1.73148 262.625 1.74808 262.825 1.79706C263.089 1.86302 263.394 1.8888 263.777 1.86667C264.593 1.82035 265.416 1.78736 266.239 1.74865C266.721 1.72621 266.721 1.72622 268.199 1.82094C268.306 1.82825 268.42 1.83934 268.526 1.83521C269.931 1.76995 271.343 1.70657 272.74 1.63561C273.116 1.6154 273.429 1.63162 273.7 1.69947C273.892 1.74848 274.084 1.76889 274.325 1.75672C275.616 1.69561 276.901 1.63452 278.192 1.57342C278.66 1.55103 279.128 1.51337 279.596 1.51196C279.937 1.51284 280.187 1.60363 280.493 1.64848C280.578 1.66158 280.72 1.64591 280.834 1.64175C282.472 1.56434 284.118 1.49262 285.75 1.4057C286.175 1.38344 286.404 1.44759 286.688 1.49441C286.788 1.51128 286.895 1.54529 286.98 1.54313C287.569 1.52037 288.151 1.49001 288.74 1.46344C289.442 1.43081 290.151 1.40579 290.846 1.36173C291.414 1.32569 291.629 1.49097 292.084 1.49532C292.432 1.49999 292.786 1.46651 293.134 1.4502C293.836 1.41757 294.538 1.38113 295.241 1.35231C295.489 1.34203 295.68 1.31092 295.758 1.24203C295.772 1.22864 295.65 1.20041 295.572 1.18348C294.625 0.991794 294.625 0.991785 293.674 1.03661C293.085 1.06508 292.504 1.09354 291.915 1.1182C291.815 1.12231 291.702 1.1074 291.602 1.09626C291.318 1.06469 291.345 1.02647 291.586 0.957082C291.826 0.887698 292.009 0.803235 292.214 0.724422C292.506 0.773131 292.791 0.821843 293.082 0.870552C293.317 0.860311 293.551 0.848179 293.785 0.837938C294.955 0.784823 296.126 0.729798 297.297 0.680499C297.382 0.676428 297.489 0.714256 297.588 0.733028C297.873 0.78748 298.13 0.834375 298.541 0.812157C299.591 0.753684 300.648 0.710448 301.698 0.659605C302.159 0.637236 302.159 0.637238 302.97 0.753043C303.063 0.766115 303.183 0.78101 303.283 0.776897C304.34 0.729846 305.39 0.679008 306.447 0.63005C306.674 0.61983 306.894 0.643959 307.058 0.698775C307.123 0.721468 307.109 0.759646 307.384 1.07161C308.225 1.32273 308.8 1.29431 309.382 1.26968C309.63 1.25939 309.85 1.24918 310.012 1.21055C310.097 1.18931 310.203 1.15847 310.203 1.13368C310.203 1.11461 310.046 1.08456 309.947 1.08104C309.243 1.04502 308.577 1.12714 307.889 1.14638C307.569 1.15497 307.292 1.08905 307.233 0.980516C307.218 0.950044 307.197 0.917689 307.175 0.887239C307.153 0.856788 307.139 0.824411 307.117 0.793961C306.84 0.785259 306.677 0.820074 306.557 0.885281C306.459 0.93898 306.318 1.00044 306.126 1.02962C305.935 1.06071 305.672 1.05579 305.438 1.06603C305.211 1.07625 304.963 1.10179 304.75 1.08908C304.537 1.07447 304.366 1.01967 304.166 0.985936C304.074 0.969049 303.96 0.944608 303.868 0.9487C303.052 0.983581 302.243 1.01843 301.434 1.06282C301.009 1.08699 300.794 1.00754 300.524 0.958772C300.31 0.92127 300.097 0.931435 300.063 1.01927C299.974 1.22934 300.302 1.31608 301.026 1.27384C301.621 1.23772 302.161 1.23039 302.631 1.35867C302.696 1.37564 302.845 1.38281 302.937 1.37872C303.519 1.35408 304.093 1.32374 304.675 1.2991C304.781 1.29497 304.895 1.30224 304.995 1.30957C306.445 1.40819 306.445 1.41011 306.934 1.38575C307.168 1.3736 307.395 1.36338 307.369 1.07356C307.812 0.761346 308.522 0.738232 309.209 0.690386C309.656 0.660432 309.849 0.743773 310.141 0.786761C310.24 0.801719 310.347 0.831906 310.44 0.827814C311.965 0.760281 313.483 0.688945 315.001 0.613805C315.257 0.601592 315.441 0.612481 315.641 0.661468C315.897 0.723634 316.182 0.762837 316.586 0.738732C317.395 0.690523 318.218 0.659442 319.041 0.618818C319.459 0.598485 319.459 0.598466 320.306 0.714164C320.398 0.727236 320.519 0.742131 320.619 0.738017C321.442 0.703115 322.258 0.660618 323.073 0.62383C323.301 0.61361 323.507 0.639687 323.685 0.690646C323.863 0.741604 324.077 0.76766 324.297 0.757461C325.12 0.720652 325.935 0.680062 326.751 0.643274C326.851 0.639161 326.971 0.652146 327.064 0.665218C327.932 0.780853 327.932 0.780833 328.329 0.760564C328.911 0.730203 329.507 0.715072 330.081 0.675197C330.641 0.635365 330.934 0.745093 331.319 0.804967C332.369 0.757938 333.426 0.718526 334.468 0.661982C334.894 0.637813 335.122 0.700059 335.407 0.74879C335.507 0.765655 335.606 0.801595 335.699 0.79941C336.053 0.790712 336.401 0.768689 336.749 0.752384C337.096 0.736079 337.451 0.719754 337.799 0.703449C338.197 0.757559 338.462 0.886452 339.029 0.840877C339.369 0.813151 339.731 0.806339 340.079 0.790034C340.427 0.773729 340.781 0.757404 341.129 0.741099C341.363 0.730858 341.604 0.724401 341.831 0.706552C342.25 0.676683 342.457 0.769525 342.756 0.810584C342.855 0.823634 342.969 0.846163 343.061 0.842071C343.764 0.813254 344.473 0.788232 345.161 0.742293C345.693 0.706361 346.056 0.762492 346.434 0.841459C346.512 0.858388 346.647 0.867517 346.746 0.863403C347.569 0.828501 348.385 0.785981 349.201 0.749193C349.421 0.738994 349.634 0.768866 349.813 0.817917C349.998 0.868854 350.204 0.893046 350.431 0.882826C351.247 0.846038 352.07 0.805403 352.886 0.768615C352.985 0.764501 353.106 0.779398 353.199 0.794377C353.995 0.910225 353.996 0.912134 354.464 0.887837C354.577 0.881774 354.698 0.877581 354.811 0.871517C355.393 0.843064 355.996 0.831724 356.564 0.784241C357.216 0.730781 357.692 0.794194 358.156 0.901512C358.737 0.876872 359.333 0.861723 359.901 0.82187C360.326 0.791979 360.555 0.863763 360.839 0.910586C360.939 0.927451 361.046 0.961459 361.131 0.957389C361.954 0.922486 362.777 0.891409 363.586 0.841293C364.025 0.813267 364.218 0.898495 364.517 0.941461C364.617 0.956419 364.724 0.982813 364.816 0.97872C365.284 0.962052 365.753 0.937743 366.221 0.915353C366.767 0.888914 366.767 0.890819 367.493 1.00497C367.834 1.05926 368.175 1.01436 368.508 1.00001C368.863 0.983681 369.196 0.971237 369.481 1.04857C369.659 1.09763 369.873 1.1275 370.093 1.11921C370.561 1.10063 371.037 1.08204 371.498 1.05205C371.866 1.02805 372.186 1.04234 372.457 1.11209C372.649 1.1611 372.848 1.1853 373.083 1.17316C374.133 1.12422 375.19 1.07334 376.24 1.02631C376.332 1.02222 376.46 1.039 376.545 1.05591C376.744 1.08964 376.937 1.1272 377.129 1.16476C377.59 1.14621 378.066 1.13717 378.52 1.1091C379.002 1.08094 379.442 1.07008 379.82 1.17384C379.898 1.19649 380.012 1.22855 380.105 1.22637C380.459 1.21767 380.807 1.19755 381.155 1.18125C381.502 1.16494 381.857 1.14862 382.205 1.13232C382.61 1.17877 382.868 1.31532 383.435 1.26974C383.775 1.24202 384.137 1.2352 384.485 1.2189C384.833 1.20259 385.187 1.18436 385.535 1.16996C385.648 1.16581 385.776 1.15588 385.875 1.16321C385.982 1.17052 386.075 1.19695 386.167 1.21574C386.452 1.27019 386.716 1.32471 387.12 1.29107C387.46 1.26335 387.822 1.25653 388.17 1.23832C388.645 1.21591 388.645 1.21591 389.435 1.33369C389.755 1.38231 390.116 1.31638 390.422 1.35742C390.628 1.38541 390.807 1.43254 391.006 1.46437C391.091 1.47746 391.226 1.48277 391.325 1.47865C391.794 1.46008 392.269 1.44149 392.73 1.41149C393.106 1.38747 393.419 1.40941 393.682 1.47728C393.875 1.52629 394.067 1.5467 394.308 1.53453C395.479 1.4776 396.649 1.42829 397.813 1.36566C398.21 1.34348 398.53 1.37495 398.751 1.44294C399.129 1.56005 399.659 1.41923 400.051 1.51341C400.293 1.57181 400.536 1.63974 400.976 1.60981C401.784 1.55778 402.607 1.52859 403.423 1.4918C403.715 1.54242 404.007 1.59305 404.306 1.64364C404.774 1.62125 405.242 1.59885 405.71 1.57836C406.058 1.56206 406.413 1.54383 406.76 1.52943C406.874 1.52527 406.994 1.51728 407.101 1.52649C407.208 1.53571 407.293 1.56025 407.393 1.57902C407.884 1.671 407.884 1.67291 408.693 1.63233C409.04 1.61412 409.374 1.60167 409.666 1.67708C409.937 1.74684 410.257 1.75921 410.625 1.73712C411.321 1.69689 412.023 1.66616 412.733 1.63732C412.952 1.62713 413.159 1.65893 413.344 1.70796C413.622 1.78532 413.963 1.77666 414.31 1.75464C414.771 1.72655 415.225 1.69848 415.617 1.80411C415.696 1.82676 415.817 1.8588 415.902 1.85664C416.484 1.83962 417.073 1.82642 417.64 1.78847C418.208 1.75052 418.486 1.86793 418.878 1.92397C419.46 1.89742 420.048 1.87085 420.63 1.8443C420.744 1.83824 420.878 1.82068 420.978 1.82992C421.397 1.8687 421.641 2.01101 422.215 1.96541C422.548 1.93962 422.91 1.93091 423.258 1.92414C423.35 1.92195 423.472 1.95399 423.536 1.97859C423.572 1.99184 423.537 2.02818 423.494 2.04738C423.367 2.10116 423.212 2.15123 423.099 2.20688C423.085 2.21455 423.22 2.24846 423.299 2.26348C423.491 2.29723 423.711 2.29086 423.966 2.27484C424.186 2.26082 424.414 2.28684 424.571 2.34358C424.635 2.36628 424.614 2.40448 424.481 2.53076C424.483 2.62421 424.631 2.58179 424.68 2.52061C424.757 2.43265 424.607 2.40449 424.324 2.45303C424.126 2.48796 424.027 2.53785 424.077 2.57775C424.106 2.59864 424.241 2.62493 424.481 2.53076C425.104 2.41445 425.573 2.39207 426.041 2.36968C426.161 2.36359 426.303 2.34408 426.388 2.35527C426.694 2.40012 426.979 2.45458 427.278 2.50517C427.619 2.4927 427.938 2.46312 428.272 2.5365C428.743 2.63998 428.764 2.63038 429.218 2.60803C429.452 2.59589 429.686 2.58566 429.92 2.57542C430.154 2.56518 430.339 2.59322 430.546 2.63646C430.966 2.72484 431.001 2.72472 431.276 2.60183C431.439 2.52696 431.552 2.50183 431.758 2.53554C432.441 2.64983 432.449 2.65743 433.03 2.62134C433.513 2.59128 433.967 2.58229 434.323 2.68993C434.566 2.76548 434.644 2.74809 434.834 2.66741C435.342 2.45418 435.576 2.45728 436.537 2.60696C436.985 2.67809 437.446 2.59851 437.9 2.58761C438.283 2.57883 438.554 2.62378 438.584 2.74384C438.606 2.81816 438.671 2.87137 438.927 2.8954C439.026 2.90463 439.147 2.91761 439.247 2.9135C439.836 2.88884 440.417 2.86038 441.006 2.83191C441.304 2.81766 441.466 2.72755 441.407 2.60947C441.342 2.4838 441.454 2.43767 441.88 2.40015C442.135 2.3784 442.341 2.38161 442.547 2.41532C442.775 2.45278 442.712 2.4873 442.514 2.55655C442.041 2.72581 442.099 2.82861 442.712 2.94311C442.925 2.98252 443.096 3.01825 443.147 3.07723C443.176 3.10766 443.148 3.14779 443.212 3.17048C443.562 3.29721 444.046 3.37777 444.586 3.43718C445.104 3.38412 445.46 3.46886 445.859 3.53632C446.172 3.58878 446.54 3.54191 446.874 3.52183C447.249 3.49972 447.562 3.51403 447.833 3.58378C448.025 3.63279 448.224 3.65507 448.459 3.64483C448.927 3.62244 449.402 3.60766 449.863 3.57576C450.26 3.54786 450.559 3.58511 450.809 3.6492C451.122 3.73027 451.469 3.67391 451.796 3.68436C452.236 3.69639 452.459 3.86546 453.033 3.81795C453.374 3.79023 453.728 3.77963 454.083 3.77093C454.176 3.76874 454.29 3.80083 454.368 3.82348C454.746 3.92724 455.186 3.92019 455.668 3.88822C456.002 3.86624 456.328 3.84619 456.655 3.91768C457.197 4.03811 457.795 4.14312 458.365 4.25393C458.444 4.34143 458.389 4.44456 458.794 4.49484C459.007 4.5209 459.207 4.56036 459.371 4.60373C459.57 4.65463 459.755 4.66743 460.01 4.65331C460.471 4.62522 460.954 4.61802 461.408 4.58232C461.826 4.55055 462.09 4.61271 462.346 4.67107C462.553 4.71812 462.745 4.74042 462.993 4.70534C463.248 4.67215 463.433 4.69257 463.64 4.74344C463.932 4.81313 463.953 4.80545 464.919 4.82352C465.018 4.82513 465.139 4.85335 465.196 4.87798C465.225 4.89124 465.162 4.9296 465.112 4.94882C465.049 4.9719 464.95 4.99888 464.858 5.00488C463.808 5.05763 462.751 5.10468 461.701 5.15743C461.594 5.16347 461.481 5.17718 461.403 5.19649C461.318 5.21772 461.212 5.24663 461.213 5.27333C461.213 5.2924 461.355 5.31487 461.455 5.32792C461.768 5.37084 462.136 5.30298 462.442 5.35165C462.648 5.38345 462.819 5.4287 463.026 5.45859C463.111 5.47169 463.246 5.46938 463.353 5.46525C463.707 5.45083 464.055 5.43071 464.41 5.4182C464.509 5.41599 464.623 5.43473 464.715 5.44971C465.399 5.56209 465.399 5.56208 465.987 5.53551C466.222 5.52527 466.47 5.49591 466.69 5.50669C466.903 5.51749 467.088 5.56843 467.281 5.60027C467.679 5.66773 468.056 5.73335 468.087 5.88202C468.102 5.93919 468.337 5.98807 468.571 5.99117C468.799 5.9943 469.04 5.97262 469.274 5.96047C469.827 5.93592 469.827 5.93591 470.546 6.05009C470.745 6.08191 470.958 6.08508 471.213 6.06524C471.313 6.05731 471.434 6.06458 471.54 6.0738C471.889 6.10136 471.889 6.13758 471.663 6.20693C471.345 6.30897 471.374 6.31842 472.269 6.40155C472.611 6.43295 472.874 6.49319 473.159 6.54573C473.622 6.63016 473.615 6.63017 473.311 6.74361C473.241 6.76862 473.177 6.79552 473.106 6.82243C472.902 6.89743 472.74 6.97802 472.314 6.98693C471.845 6.99597 471.377 7.0279 470.909 7.05029C470.455 7.07264 470.335 7.11876 470.38 7.24832C470.432 7.40455 470.524 7.42144 471.341 7.41708C471.575 7.41637 471.781 7.431 471.959 7.48196C471.875 7.54325 471.72 7.5914 471.493 7.60353C470.911 7.63389 470.322 7.66046 469.74 7.68701C469.272 7.7094 468.804 7.73178 468.336 7.75417C468.045 7.76839 467.862 7.86813 467.942 7.97851C467.985 8.04132 468.021 8.10415 468.058 8.16697C468.138 8.29261 468.288 8.32459 468.763 8.31744C468.884 8.31517 468.997 8.29956 469.111 8.30303C469.572 8.31499 469.795 8.47261 470.348 8.43852C470.809 8.41043 471.292 8.40326 471.746 8.36757C472.164 8.33579 472.399 8.40376 472.691 8.45438C472.791 8.47124 472.898 8.50714 472.983 8.50497C473.572 8.48222 474.161 8.45948 474.735 8.42151C475.005 8.40544 475.168 8.41639 475.382 8.46152C475.895 8.5706 475.909 8.56483 476.668 8.52821C477.221 8.49985 477.228 8.50364 477.94 8.61783C478.139 8.64966 478.352 8.64901 478.608 8.63298C478.941 8.61291 479.288 8.58135 479.637 8.60891C479.743 8.61621 479.879 8.6387 479.914 8.66339C479.936 8.68049 479.837 8.72274 479.752 8.73635C479.129 8.8374 478.398 8.82244 477.717 8.86455C477.504 8.87663 477.29 8.84103 477.112 8.79008C476.927 8.73914 476.728 8.71877 476.486 8.72903C476.018 8.75142 475.543 8.7662 475.082 8.7981C474.685 8.826 474.407 8.78296 474.129 8.72467C474.037 8.70588 473.93 8.66996 473.838 8.67215C472.787 8.71345 471.73 8.75479 470.688 8.81134C470.269 8.83548 470.027 8.77519 469.742 8.72455C469.642 8.70769 469.542 8.67174 469.45 8.67393C469.095 8.68263 468.748 8.70465 468.393 8.72098C467.102 8.78208 465.818 8.84317 464.527 8.90046C464.441 8.90453 464.334 8.8648 464.235 8.84793C464.043 8.81418 463.843 8.78235 463.644 8.75053C463.289 8.76686 462.942 8.78698 462.587 8.79949C462.331 8.80789 462.105 8.83528 462.07 8.90786C462.05 8.9556 462.285 8.99875 462.533 8.99419C462.775 8.98965 463.016 8.96604 463.215 8.99023C464.203 9.10931 464.203 9.11123 464.821 9.08457C465.36 9.06006 465.303 9.04115 465.78 9.14461C465.986 9.18976 466.171 9.21592 466.406 9.20377C466.987 9.17532 467.576 9.14684 468.165 9.12218C468.257 9.11809 468.378 9.1368 468.471 9.15178C469.168 9.26411 469.168 9.26792 469.743 9.23758C470.495 9.20099 470.523 9.19137 471.029 9.30618C471.378 9.38524 471.696 9.32897 472.03 9.32415C472.415 9.39737 472.834 9.46287 473.184 9.54574C473.597 9.64367 474.03 9.62518 474.498 9.59516C474.845 9.57314 475.186 9.56448 475.471 9.64182C475.742 9.71348 476.068 9.72014 476.437 9.69995C476.771 9.68178 477.111 9.64451 477.46 9.68542C477.552 9.69659 477.694 9.72477 477.687 9.74196C477.681 9.76868 477.589 9.80711 477.497 9.81883C476.845 9.89899 476.128 9.89923 475.44 9.93754C475.348 9.94354 475.227 9.92292 475.134 9.90794C474.935 9.87421 474.743 9.83475 474.55 9.79909C474.203 9.81158 473.848 9.81646 473.508 9.84037C473.245 9.85832 473.046 9.85703 472.854 9.81184C472.676 9.77041 472.483 9.71949 472.27 9.70678C472.057 9.69407 471.809 9.72343 471.575 9.73558C471.341 9.74773 471.071 9.74281 470.887 9.77388C470.703 9.80495 470.59 9.87205 470.47 9.92581C470.336 9.98534 470.152 10.005 469.882 10.0115C469.634 10.018 469.435 10.0109 469.25 9.9581C469.171 9.93545 469.064 9.9186 468.958 9.90366C468.858 9.89061 468.744 9.86997 468.652 9.87406C467.595 9.92111 466.545 9.97197 465.488 10.0209C464.963 10.0454 464.97 10.0454 463.875 9.93613C463.776 9.92689 463.655 9.91391 463.555 9.91803C462.967 9.94269 462.385 9.97114 461.796 9.99962C461.2 10.0281 461.207 10.0243 460.19 9.90719C460.005 9.88486 459.736 9.91619 459.516 9.91304C459.054 9.90489 458.825 9.74538 458.286 9.77752C457.825 9.80561 457.342 9.81278 456.881 9.8485C456.462 9.88027 456.22 9.81426 455.935 9.76362C455.836 9.74675 455.729 9.70893 455.643 9.713C454.586 9.75814 453.536 9.80899 452.131 9.81894C451.783 9.81999 451.94 9.85957 452.167 9.87224C452.494 9.89224 452.6 9.85186 452.421 9.77611C452.293 9.7231 452.108 9.69693 451.959 9.71073C451.881 9.7186 451.782 9.75515 452.131 9.81894C452.501 9.8903 452.481 9.93041 452.545 9.9531C452.702 10.0079 452.922 10.0302 453.149 10.0218C453.504 10.0074 453.852 9.98731 454.206 9.9748C454.306 9.97069 454.427 9.98367 454.519 9.99865C455.302 10.1145 455.309 10.1222 456.139 10.0739C456.401 10.0597 456.593 10.0592 456.799 10.0948C457.084 10.1435 457.291 10.2268 457.724 10.1988C458.299 10.1608 458.887 10.1381 459.476 10.1153C459.569 10.1112 459.668 10.1453 459.775 10.1602C460.067 10.2051 460.281 10.2903 460.714 10.2527C461.047 10.2231 461.409 10.2144 461.764 10.2076C461.856 10.2054 461.998 10.2355 462.041 10.2602C462.127 10.3038 462.021 10.3556 461.781 10.3926C461.682 10.4081 461.547 10.4047 461.433 10.4108C460.965 10.4332 460.497 10.4574 460.028 10.476C459.78 10.4863 459.546 10.5156 459.519 10.5863C459.498 10.634 459.755 10.6752 459.996 10.6707C460.351 10.6639 460.705 10.6475 461.046 10.6217C461.649 10.578 462.174 10.5878 462.666 10.7065C463.015 10.7894 462.993 10.7589 463.366 11.0057C463.459 11.0684 463.736 11.0733 463.978 11.0687C464.56 11.0574 464.83 11.0852 464.781 11.1445C464.718 11.2172 464.513 11.2407 464.25 11.251C463.782 11.2677 463.314 11.2939 462.845 11.3163C462.732 11.3223 462.604 11.3342 462.498 11.3307C462.391 11.3272 462.292 11.3046 462.199 11.2877C462 11.2521 461.828 11.1973 461.615 11.1845C461.402 11.1718 461.154 11.2012 460.92 11.2133C460.686 11.2236 460.438 11.2529 460.225 11.2402C460.012 11.2275 459.833 11.1709 459.641 11.1371C459.548 11.1202 459.434 11.0938 459.342 11.096C458.874 11.1127 458.406 11.1389 457.938 11.1594C457.363 11.1859 457.363 11.1859 456.665 11.0698C456.466 11.0361 456.26 11.0386 455.998 11.0546C455.43 11.0869 455.423 11.0811 454.385 10.9737C454.285 10.9625 454.164 10.9495 454.065 10.9555C453.008 11.0026 451.958 11.0534 450.908 11.1024C450.007 11.1451 450.007 11.1452 449.513 11.3374C449.146 11.4796 449.139 11.4796 449.502 11.5434C449.794 11.5959 450.058 11.6733 450.378 11.7009C450.676 11.7267 451.044 11.6398 451.372 11.7266C451.536 11.7699 451.75 11.817 451.956 11.824C452.282 11.8325 452.629 11.7762 452.943 11.8591C453.1 11.9006 453.335 11.9438 453.534 11.9451C453.882 11.9479 454.236 11.9163 454.584 11.9019C454.69 11.8977 454.811 11.8974 454.91 11.9066C455.017 11.9177 455.11 11.9404 455.202 11.9591C455.487 12.0231 455.793 12.0527 456.162 12.0192C456.764 11.964 457.304 11.989 457.775 12.1097C457.839 12.1267 457.995 12.1281 458.094 12.1202C458.349 12.1003 458.569 12.0978 458.762 12.1334C458.84 12.1484 458.954 12.1748 458.94 12.192C458.919 12.2207 458.835 12.2591 458.742 12.2689C458.076 12.3357 457.359 12.3455 456.671 12.3819C456.579 12.386 456.465 12.3616 456.372 12.3447C456.173 12.311 456.002 12.2543 455.789 12.2416C455.576 12.2288 455.327 12.2544 455.093 12.2646C454.859 12.2749 454.611 12.3042 454.398 12.2934C454.185 12.2807 453.985 12.2336 453.814 12.1922C453.615 12.1451 453.423 12.14 453.161 12.1598C452.82 12.1857 452.465 12.1905 452.118 12.2049C451.926 12.1693 451.733 12.1298 451.534 12.0961C451.441 12.0792 451.328 12.0585 451.228 12.0608C450.76 12.0774 450.292 12.1017 449.823 12.1241C449.355 12.1465 449.355 12.1465 448.558 12.0307C448.466 12.0176 448.345 12.0027 448.245 12.0068C447.657 12.0315 447.075 12.0618 446.486 12.0865C446.259 12.0967 446.053 12.0706 445.868 12.0197C445.689 11.9687 445.476 11.9408 445.256 11.951C444.319 11.9938 443.383 12.0348 442.447 12.0853C442.071 12.1055 441.751 12.0893 441.494 12.0214C441.195 11.9441 440.862 11.9642 440.514 11.9805C439.727 12.021 439.719 12.0191 439.214 11.9234C439.114 11.9046 439.014 11.8687 438.922 11.8708C438.106 11.9019 437.283 11.9311 436.474 11.9793C436.049 12.0054 435.821 11.9393 435.536 11.8906C435.436 11.8737 435.329 11.8378 435.244 11.8419C434.655 11.8646 434.066 11.8855 433.492 11.9254C432.917 11.9652 432.695 11.7885 432.262 11.7918C431.672 11.7954 431.091 11.8411 430.509 11.8695C430.041 11.8919 429.573 11.9143 429.105 11.9367C428.636 11.9591 428.168 11.9776 427.7 12.0038C427.452 12.0179 427.267 12.0013 427.06 11.9543C426.797 11.8921 426.484 11.8435 426.199 11.7871C425.764 11.7064 425.764 11.7064 425.239 11.7309C425.126 11.7369 425.005 11.7411 424.892 11.7472C424.033 11.7917 424.033 11.7879 422.938 11.6711C422.889 11.6655 422.761 11.6869 422.712 11.7023C422.563 11.7523 422.429 11.8061 422.295 11.858C422.103 11.8281 421.869 11.8116 421.74 11.7681C421.376 11.6453 420.811 11.8167 420.44 11.6958C420.304 11.6504 420.069 11.611 419.856 11.6002C419.636 11.5895 419.388 11.6169 419.161 11.629C418.572 11.6594 418.572 11.6575 418.071 11.8288C417.816 11.9135 417.447 11.8993 417.114 11.9194C416.766 11.9414 416.433 11.9539 416.14 11.8765C415.877 11.8068 415.557 11.7906 415.181 11.8146C414.72 11.8446 414.245 11.8632 413.776 11.8818C413.677 11.8859 413.556 11.8767 413.457 11.8656C412.369 11.7563 412.369 11.7544 411.844 11.7808C411.61 11.7929 411.368 11.7975 411.141 11.8153C410.758 11.847 410.467 11.8078 410.189 11.7476C410.097 11.7288 409.989 11.6929 409.897 11.6951C409.429 11.706 408.968 11.7246 408.506 11.7432C408.152 11.7576 407.797 11.7663 407.456 11.794C406.889 11.8396 406.611 11.7164 406.219 11.6604C405.637 11.6869 405.048 11.7059 404.467 11.742C404.197 11.758 404.02 11.7529 403.813 11.7077C403.55 11.6513 403.307 11.5872 402.882 11.6171C402.315 11.6569 401.718 11.6721 401.137 11.6967C400.745 11.6387 400.46 11.5194 399.899 11.565C399.559 11.5927 399.197 11.5995 398.849 11.6158C398.381 11.6382 397.913 11.6587 397.445 11.683C396.941 11.7074 396.948 11.7017 396.173 11.5915C395.724 11.5261 395.264 11.6019 394.81 11.6147C394.455 11.6253 394.279 11.7135 394.366 11.8258C394.453 11.9381 394.262 12.0264 393.936 12.0426C393.12 12.0813 392.297 12.1219 391.481 12.1568C391.382 12.1609 391.261 12.1479 391.169 12.1348C390.294 12.0173 390.294 12.0193 389.904 12.0376C389.322 12.068 388.726 12.085 388.151 12.123C387.754 12.149 387.462 12.1098 387.206 12.0457C387.006 11.9967 386.822 11.9858 386.566 11.9981C383.757 12.1343 380.948 12.261 378.145 12.4011C377.727 12.4214 377.485 12.3668 377.2 12.3162C377.1 12.2993 377.007 12.2633 376.908 12.2636C376.674 12.2643 376.44 12.2822 376.206 12.2944C375.156 12.3433 374.106 12.4018 373.049 12.4393C372.602 12.4559 372.482 12.544 372.292 12.617C372.143 12.6728 371.974 12.6962 371.711 12.7046C371.456 12.713 371.271 12.704 371.071 12.655C370.815 12.591 370.523 12.5518 370.126 12.5797C369.665 12.6116 369.197 12.6264 368.721 12.6488C368.48 12.659 368.296 12.6939 368.219 12.7628C368.205 12.7743 368.354 12.8025 368.44 12.8194C368.725 12.8757 368.996 12.9417 369.316 12.9808C369.643 13.0198 369.997 12.973 370.338 12.9605C370.458 12.9563 370.572 12.9445 370.685 12.9461C370.792 12.9477 370.92 12.9568 370.998 12.9738C371.369 13.0585 371.76 13.1164 372.27 13.0634C372.711 13.0869 372.94 13.2445 373.501 13.2008C373.841 13.175 374.196 13.1625 374.551 13.1519C374.643 13.1497 374.743 13.1837 374.842 13.2006C375.127 13.2474 375.355 13.323 375.781 13.2893C376.235 13.2536 376.717 13.2464 377.178 13.2184C377.434 13.2023 377.618 13.2151 377.818 13.2641C378.074 13.3263 378.366 13.3731 378.763 13.3414C379.104 13.3136 379.466 13.3068 379.813 13.2886C380.267 13.2663 380.267 13.2682 381.078 13.384C381.171 13.397 381.292 13.4119 381.391 13.4078C381.98 13.3832 382.562 13.3528 383.15 13.3281C383.377 13.3179 383.598 13.342 383.755 13.3969C383.819 13.4196 383.798 13.4578 383.82 13.4902C382.65 13.5452 381.479 13.5926 380.316 13.659C379.876 13.6851 379.676 13.6075 379.384 13.5645C379.285 13.5496 379.178 13.5175 379.085 13.5216C378.262 13.5565 377.447 13.5933 376.631 13.6377C376.376 13.6518 376.184 13.6447 375.991 13.59C375.499 13.4446 374.904 13.5265 374.351 13.5492C373.925 13.5657 373.791 13.6253 373.843 13.751C373.909 13.8996 374.165 13.9446 374.818 13.9159C375.052 13.9056 375.286 13.8916 375.52 13.8832C375.747 13.8749 375.953 13.8991 376.139 13.95C376.317 14.001 376.53 14.0271 376.75 14.0188C377.219 14.0002 377.694 13.9816 378.148 13.9516C378.524 13.9276 378.836 13.9457 379.1 14.0155C379.392 14.0928 379.733 14.0746 380.073 14.0564C380.868 14.0159 380.875 14.0178 381.373 14.1117C381.473 14.1304 381.573 14.1664 381.665 14.1642C382.481 14.1331 383.304 14.1058 384.106 14.0577C384.524 14.0335 384.767 14.0938 385.044 14.1426C385.144 14.1594 385.244 14.1973 385.336 14.1932C385.925 14.1704 386.514 14.1477 387.088 14.1097C387.358 14.0917 387.521 14.1027 387.742 14.1478C388.269 14.2587 388.283 14.2549 389.028 14.2164C389.255 14.2042 389.503 14.1825 389.716 14.1971C389.93 14.2118 390.101 14.2666 390.3 14.3003C390.393 14.3153 390.507 14.3359 390.606 14.3318C391.074 14.3151 391.542 14.2908 392.011 14.2684C392.45 14.2461 392.45 14.248 393.276 14.3638C393.61 14.4124 393.957 14.3694 394.291 14.3531C394.653 14.3349 394.979 14.3339 395.257 14.4074C395.535 14.481 395.869 14.4761 396.224 14.4598C396.557 14.4435 396.897 14.4006 397.239 14.451C398.021 14.5669 398.021 14.5688 398.504 14.5445C399.206 14.5099 399.901 14.4773 400.611 14.4466C400.703 14.4425 400.824 14.465 400.916 14.48C401.116 14.5137 401.287 14.5704 401.5 14.5831C401.713 14.5977 401.961 14.5741 402.188 14.562C402.919 14.5236 402.969 14.5101 403.46 14.6345C403.874 14.7362 404.383 14.5859 404.768 14.703C404.989 14.7691 405.288 14.8216 405.699 14.7879C406.039 14.7602 406.394 14.7515 406.749 14.7352C407.309 14.7087 407.309 14.7106 408.021 14.8229C408.114 14.8379 408.234 14.8566 408.327 14.8525C408.795 14.8358 409.271 14.821 409.724 14.7853C410.256 14.7437 410.598 14.8151 410.997 14.8845C411.31 14.9389 411.678 14.892 412.012 14.8719C412.373 14.8517 412.7 14.8565 412.971 14.93C413.256 15.0055 413.59 14.9949 413.944 14.9786C414.278 14.9642 414.618 14.9193 414.959 14.9717C415.692 15.0878 415.692 15.0878 416.224 15.0633C416.693 15.0409 417.161 15.0166 417.629 14.9999C417.721 14.9958 417.835 15.0203 417.928 15.0372C418.127 15.0709 418.298 15.1276 418.512 15.1403C418.725 15.153 418.973 15.1275 419.207 15.1172C419.441 15.107 419.689 15.0776 419.902 15.0884C420.115 15.0992 420.315 15.1463 420.486 15.1878C420.685 15.2368 420.87 15.2419 421.14 15.222C421.48 15.1962 421.835 15.1894 422.182 15.175C422.375 15.2107 422.574 15.2463 422.759 15.2858C422.952 15.3272 423.157 15.3228 423.42 15.3086C424.292 15.2602 424.299 15.2659 425.032 15.382C425.367 15.4344 425.714 15.3894 426.048 15.3751C426.402 15.3588 426.736 15.3501 427.014 15.4256C427.285 15.4972 427.619 15.5058 427.973 15.4818C428.2 15.4659 428.441 15.4556 428.676 15.4492C428.782 15.447 428.91 15.4542 428.988 15.4692C429.366 15.5482 429.736 15.6196 430.253 15.5665C430.708 15.5804 430.937 15.7361 431.484 15.7039C431.945 15.6758 432.427 15.6686 432.881 15.6329C433.299 15.6012 433.599 15.6537 433.812 15.7198C434.198 15.8369 434.735 15.6751 435.12 15.7902C435.341 15.8563 435.626 15.9089 436.051 15.879C436.519 15.8471 436.669 15.8866 436.806 16.0064C436.885 16.0748 436.872 16.1302 436.73 16.184C436.589 16.2397 436.433 16.2307 436.205 16.1684C435.941 16.0987 435.628 16.0862 435.252 16.1026C434.883 16.119 434.655 16.0205 434.349 15.9833C434.043 15.9442 433.682 16.012 433.362 15.9615C432.608 15.8436 432.608 15.8436 432.097 15.868C431.749 15.8843 431.387 15.893 431.047 15.9208C430.643 15.9544 430.379 15.8961 430.101 15.8435C430.002 15.8247 429.902 15.7888 429.817 15.791C429.001 15.822 428.178 15.8512 427.369 15.9013C426.943 15.9274 426.715 15.8594 426.431 15.8126C426.331 15.7957 426.224 15.7617 426.139 15.7658C425.436 15.7946 424.741 15.831 424.039 15.8656C423.905 15.9175 423.756 15.9675 423.629 16.0232C423.495 16.0808 423.311 16.1062 423.042 16.1051C422.594 16.1064 422.155 16.1879 421.707 16.0881C421.244 15.9865 421.208 15.9924 420.761 16.0185C420.194 16.0526 419.59 16.0468 419.059 16.1228C418.967 16.1364 418.868 16.1729 418.869 16.1996C418.862 16.2168 419.011 16.2412 419.104 16.2562C419.417 16.301 419.778 16.2332 420.091 16.2799C420.297 16.3098 420.468 16.355 420.675 16.3868C420.76 16.3999 420.888 16.3977 421.001 16.3954C421.122 16.3931 421.235 16.3795 421.349 16.381C421.455 16.3826 421.569 16.3937 421.655 16.4106C422.046 16.4819 422.459 16.5474 422.808 16.6322C423.15 16.7151 423.469 16.6569 423.809 16.6521C425.175 16.7814 425.175 16.7834 426.09 16.7386C426.317 16.7284 426.551 16.7163 426.785 16.7175C426.885 16.7172 426.977 16.7512 427.077 16.77C427.362 16.8263 427.632 16.877 428.03 16.8453C428.37 16.8176 428.732 16.8108 429.079 16.7926C429.548 16.7702 429.548 16.7702 430.345 16.8879C430.544 16.9178 430.757 16.9134 431.012 16.8974C431.232 16.8834 431.459 16.9113 431.616 16.9661C431.681 16.9888 431.66 17.027 431.682 17.0594C430.979 17.092 430.27 17.1151 429.589 17.1629C429.149 17.1929 428.949 17.1115 428.658 17.0685C428.558 17.0535 428.451 17.0214 428.359 17.0255C427.664 17.0562 426.968 17.0907 426.273 17.131C426.188 17.135 426.082 17.1792 426.076 17.2059C426.062 17.2556 426.24 17.3027 426.496 17.3C426.837 17.2971 427.17 17.2637 427.476 17.3409C427.733 17.4088 428.053 17.4384 428.428 17.4068C428.655 17.3889 428.897 17.3882 429.124 17.3722C429.727 17.3246 430.273 17.3325 430.729 17.4608C431.078 17.4941 431.418 17.4607 431.752 17.4425C432 17.4284 432.241 17.4143 432.419 17.45C432.796 17.5252 433.167 17.6004 433.684 17.5473C434.246 17.599 434.674 17.7103 435.143 17.8004C435.364 17.8436 435.535 17.8679 435.79 17.8385C435.896 17.8267 436.024 17.8263 436.138 17.8203C436.372 17.81 436.62 17.7807 436.833 17.7915C437.046 17.8042 437.224 17.859 437.417 17.8927C437.509 17.9096 437.616 17.9379 437.708 17.9357C438.063 17.9251 438.411 17.905 438.758 17.8887C439.106 17.8743 439.454 17.8599 439.801 17.8455C440.093 17.8942 440.392 17.9429 440.684 17.9916C441.152 17.9692 441.62 17.9468 442.081 17.9263C442.599 17.9019 442.599 17.9038 443.346 18.0198C443.681 18.0722 444.035 18.0368 444.355 18.011C444.886 17.9694 445.242 18.0408 445.62 18.116C445.698 18.131 445.84 18.1401 445.932 18.1322C446.301 18.1044 446.621 18.1244 446.892 18.1941C447.084 18.2431 447.276 18.2655 447.51 18.2552C448.326 18.2165 449.142 18.1759 449.958 18.141C450.057 18.1369 450.171 18.1537 450.263 18.1687C450.989 18.2829 450.997 18.2886 451.529 18.2565C452.004 18.2283 452.444 18.2155 452.822 18.3193C452.9 18.342 453.021 18.374 453.106 18.3719C453.688 18.351 454.277 18.3283 454.852 18.2941C455.114 18.2781 455.299 18.2833 455.505 18.3265C455.769 18.381 456.004 18.4471 456.437 18.421C457.635 18.3468 457.643 18.3582 459.065 18.4855C459.164 18.4947 459.299 18.4791 459.412 18.4711C459.653 18.4513 459.831 18.4775 460.045 18.5207C460.522 18.6184 460.536 18.6127 460.99 18.5903C461.338 18.5721 461.7 18.5672 462.04 18.5376C462.565 18.494 462.914 18.5674 463.305 18.6368C463.618 18.6911 463.98 18.6443 464.313 18.6261C464.675 18.6059 465.002 18.6107 465.272 18.6823C465.458 18.7313 465.657 18.7575 465.891 18.7472C466.707 18.7104 467.523 18.6698 468.339 18.633C468.438 18.6289 468.559 18.6438 468.651 18.6569C469.462 18.7727 469.462 18.7784 470.264 18.7321C470.519 18.718 470.732 18.7136 470.924 18.753C471.11 18.7906 471.309 18.8263 471.501 18.8619C471.849 18.8475 472.204 18.8426 472.544 18.8187C472.807 18.8008 472.991 18.8079 473.198 18.8473C473.468 18.898 473.697 18.9869 474.122 18.9417C474.342 18.9201 474.597 18.9251 474.817 18.9053C475.08 18.8798 475.257 18.8945 475.464 18.9434C475.72 19.0018 475.984 19.062 476.395 19.0303C476.849 18.9946 477.332 18.9874 477.793 18.9593C478.048 18.9433 478.226 18.958 478.432 19.007C478.689 19.0691 478.981 19.1083 479.378 19.0823C480.186 19.0322 480.194 19.0417 480.983 19.1595C481.183 19.1894 481.396 19.185 481.651 19.1689C481.871 19.1549 482.098 19.1828 482.255 19.2377C482.405 19.2983 482.392 19.3364 482.406 19.3688ZM418.884 2.3588C418.65 2.36904 418.416 2.38119 418.073 2.21629C418.051 2.18775 418.065 2.15339 418.015 2.12874C417.9 2.07759 417.722 2.04189 417.509 2.03681C417.126 2.03034 416.665 2.09656 416.673 2.14613C416.681 2.18806 416.802 2.22393 417.037 2.25755C417.137 2.2706 417.215 2.29326 417.308 2.30823C417.578 2.35129 417.792 2.43648 418.182 2.39144C418.109 2.27341 418.146 2.33243 418.182 2.39144C418.148 2.46402 418.255 2.51519 418.511 2.5354C418.582 2.54091 418.688 2.53676 418.745 2.52515C418.964 2.48253 418.999 2.42522 418.833 2.27505C418.805 2.29993 418.827 2.34371 418.891 2.35496C418.956 2.36621 419.112 2.35622 419.189 2.34263C419.388 2.3058 419.486 2.25782 419.436 2.21792C419.407 2.19702 419.272 2.17073 419.187 2.17099C419.038 2.17143 418.904 2.21379 418.884 2.3588ZM476.625 24.3031C476.107 24.3409 475.511 24.3293 474.994 24.4053C474.902 24.4189 474.81 24.4535 474.803 24.4802C474.796 24.4974 474.939 24.5218 475.024 24.5349C475.216 24.5648 475.429 24.5546 475.677 24.5443C476.053 24.5299 476.275 24.6169 476.566 24.6599C476.659 24.673 476.78 24.6821 476.879 24.678C477.454 24.6534 478.021 24.6269 478.596 24.5985C478.695 24.5925 478.801 24.5788 478.886 24.5614C479.17 24.5052 479.141 24.4691 478.863 24.428C478.557 24.3831 478.315 24.3075 478.002 24.2722C477.554 24.2221 477.1 24.2921 476.625 24.3031ZM436.331 25.8167C435.983 25.8331 435.642 25.8493 435.295 25.8656C435.181 25.8717 435.061 25.874 434.954 25.8819C434.735 25.8959 434.572 25.9365 434.466 25.9997C434.63 26.0488 434.83 26.0768 435.05 26.0704C435.397 26.058 435.738 26.0321 436.085 26.0254C436.462 26.0166 436.683 26.1018 436.975 26.1448C437.067 26.1578 437.181 26.1594 437.287 26.161C437.813 26.167 438.131 26.0669 438.029 25.928C437.957 25.8195 437.686 25.7555 437.359 25.7698C437.019 25.7842 436.671 25.8005 436.331 25.8167ZM479.01 21.477C479.094 21.4443 479.186 21.4212 479.229 21.3924C479.355 21.2948 479.304 21.2225 479.068 21.1469C478.783 21.0543 478.436 21.1183 478.117 21.1288C478.039 21.1309 477.954 21.1712 477.912 21.1961C477.884 21.2134 477.885 21.2496 477.927 21.259C478.276 21.3343 478.647 21.4037 479.01 21.477ZM417.34 16.0288C416.999 16.0451 416.651 16.0576 416.311 16.0796C416.226 16.0856 416.148 16.122 416.099 16.147C416.007 16.193 416.108 16.2557 416.399 16.2605C416.733 16.2671 417.08 16.2337 417.428 16.2174C417.867 16.197 418.129 16.1256 417.965 16.0651C417.808 16.0064 417.595 15.9956 417.34 16.0288ZM43.5916 13.0788C43.8186 13.0686 44.0527 13.0603 44.2797 13.0463C44.4924 13.0323 44.6552 12.9898 44.7607 12.9266C44.5825 12.8775 44.3833 12.8514 44.1633 12.8578C43.8156 12.8703 43.4751 12.8866 43.1346 12.9067C42.9218 12.9187 42.7167 12.9613 42.668 13.0263C42.619 13.076 43.095 13.1032 43.5916 13.0788ZM387.251 11.75C387.344 11.7668 387.436 11.8009 387.529 11.8006C387.756 11.7999 387.99 11.7878 388.203 11.7681C388.295 11.7602 388.365 11.7256 388.407 11.6988C388.436 11.6815 388.428 11.6511 388.385 11.6359C388.178 11.545 387.355 11.5799 387.222 11.6852C387.208 11.7043 387.244 11.729 387.251 11.75ZM364.694 1.37387C364.716 1.40432 364.724 1.43481 364.752 1.46524C364.81 1.52229 364.967 1.56378 365.194 1.5917C365.371 1.54349 365.463 1.48982 365.455 1.43263C365.447 1.40214 365.425 1.37167 365.396 1.34124C365.339 1.28419 365.182 1.24272 364.955 1.2148C364.778 1.2611 364.693 1.31475 364.694 1.37387ZM495.485 25.9704C495.421 25.9954 495.358 26.0204 495.287 26.0435C495.48 26.0982 495.658 26.1148 495.792 26.0839C495.877 26.0646 495.926 26.0358 495.99 26.0109C495.797 25.9561 495.626 25.9414 495.485 25.9704ZM491.073 26.2431C491.166 26.26 491.251 26.2826 491.351 26.2938C491.515 26.3123 491.663 26.2795 491.776 26.2105C491.683 26.1936 491.598 26.1709 491.498 26.1598C491.334 26.1412 491.186 26.1741 491.073 26.2431ZM493.865 25.8857C493.816 25.9316 493.916 25.9694 494.179 26.0011C494.243 25.9761 494.327 25.9529 494.37 25.9261C494.44 25.882 494.319 25.8423 494.063 25.8126C493.992 25.8357 493.928 25.8607 493.865 25.8857ZM478.848 23.8749C478.799 23.9208 478.898 23.9587 479.162 23.9903C479.225 23.9653 479.31 23.9422 479.352 23.9153C479.422 23.8712 479.301 23.8316 479.045 23.8018C478.975 23.8249 478.911 23.8499 478.848 23.8749ZM458.225 10.4414C458.161 10.4664 458.098 10.4914 458.027 10.5145C458.219 10.5692 458.397 10.5858 458.532 10.5549C458.617 10.5356 458.666 10.5068 458.729 10.4818C458.537 10.4271 458.366 10.4124 458.225 10.4414ZM438.557 3.34089C438.728 3.35372 438.87 3.32661 438.989 3.25568C438.897 3.23879 438.811 3.21616 438.712 3.20502C438.548 3.18644 438.4 3.21932 438.287 3.28832C438.38 3.30711 438.472 3.32398 438.557 3.34089ZM428.165 2.92399C428.101 2.94898 428.038 2.97397 427.967 2.99707C428.16 3.0518 428.337 3.06842 428.472 3.0375C428.557 3.01817 428.606 2.98941 428.669 2.96443C428.477 2.9097 428.306 2.89687 428.165 2.92399ZM357.709 1.39301C357.645 1.41799 357.582 1.44298 357.511 1.46608C357.704 1.52081 357.881 1.53743 358.016 1.50651C358.101 1.48718 358.15 1.45843 358.213 1.43344C358.021 1.37871 357.85 1.36588 357.709 1.39301ZM7.26066 17.9659C7.16811 17.949 7.07565 17.9321 6.99017 17.9133C6.78508 17.9654 6.72194 18.0133 6.83608 18.0492C6.90742 18.0719 7.01402 18.0849 7.10657 18.1018C7.31876 18.0497 7.36773 18.0037 7.26066 17.9659Z" fill="#FFE492"/>
<path id="Vector_2" d="M48.2856 10.9224C47.4698 10.9611 46.6612 11.0093 45.8452 11.0346C45.4123 11.0474 45.2575 11.1298 45.0812 11.2066C44.9402 11.2681 44.7771 11.2876 44.5146 11.2999C42.3012 11.4 40.0948 11.5058 37.8885 11.6097C37.6112 11.5857 37.4757 11.5461 37.5389 11.4982C37.5739 11.4695 37.6586 11.4292 37.7437 11.4251C39.2547 11.35 40.7585 11.273 42.2769 11.2132C42.7097 11.1966 42.8292 11.1123 43.0482 11.043C43.1188 11.0199 43.1751 10.9854 43.2672 10.9718C43.3593 10.9563 43.4942 10.9578 43.6148 10.9536C46.0552 10.8376 48.4958 10.7234 50.9362 10.6074C51.2134 10.6313 51.3489 10.671 51.2857 10.7188C51.2507 10.7475 51.1661 10.7879 51.081 10.7919C50.1445 10.8348 49.215 10.8776 48.2856 10.9224Z" fill="#FFE492"/>
<path id="Vector_3" d="M495.577 20.062C495.208 20.086 494.74 20.1198 494.355 20.0104C494.17 19.9575 493.97 19.941 493.729 19.9532C493.382 19.9733 493.027 19.9896 492.672 20.0021C492.58 20.0043 492.459 19.9837 492.366 19.9668C492.167 19.9331 491.996 19.8764 491.783 19.8618C491.569 19.8472 491.315 19.8899 491.094 19.881C490.803 19.8685 490.682 19.8174 490.759 19.7695C490.801 19.7427 490.886 19.7043 490.978 19.6983C492.29 19.6238 492.297 19.6237 492.667 19.6913C492.952 19.7438 493.216 19.8021 493.62 19.7685C493.96 19.7408 494.322 19.734 494.67 19.7157C495.152 19.6914 495.152 19.6933 495.935 19.8111C496.134 19.841 496.347 19.8385 496.603 19.8206C496.822 19.8065 497.036 19.8364 497.214 19.8874C497.102 19.9525 496.939 19.995 496.719 20.0071C496.364 20.0272 496.017 20.0416 495.577 20.062Z" fill="#FFE492"/>
<path id="Vector_4" d="M482.503 19.5052C483.397 19.4625 484.298 19.4254 485.192 19.3769C485.561 19.3567 485.852 19.3768 486.109 19.4409C486.386 19.5107 486.699 19.504 487.039 19.4896C487.252 19.4814 487.459 19.5113 487.601 19.5643C487.658 19.5851 487.645 19.6233 487.666 19.6538C486.886 19.6905 486.099 19.7291 485.311 19.762C485.219 19.7661 485.105 19.7473 485.02 19.7323C484.828 19.7005 484.663 19.6437 484.457 19.6329C484.017 19.6075 483.578 19.6603 483.13 19.6712C482.918 19.6757 482.711 19.6477 482.568 19.5966C482.511 19.572 482.525 19.5357 482.503 19.5052Z" fill="#FFE492"/>
<path id="Vector_5" d="M158.958 3.76905C159.887 3.7243 160.817 3.68147 161.746 3.63671C162.023 3.66257 162.152 3.70032 162.095 3.74817C162.06 3.77688 161.976 3.81719 161.891 3.82126C160.032 3.91268 158.173 4.00027 156.322 4.08786C156.045 4.06199 155.916 4.02424 155.972 3.97639C156.007 3.94768 156.092 3.90738 156.177 3.90331C157.099 3.85666 158.029 3.81381 158.958 3.76905Z" fill="#FFE492"/>
<path id="Vector_6" d="M15.6802 14.8012C15.2616 14.8063 14.8228 14.8784 14.3536 14.8263C14.2612 14.817 14.133 14.7868 14.1398 14.7695C14.1536 14.7408 14.2382 14.7041 14.3303 14.6924C14.734 14.6433 15.2378 14.636 15.4416 14.5015C15.5399 14.4323 15.724 14.4088 15.9722 14.3946C16.2345 14.3785 16.419 14.3837 16.6254 14.4232C16.8959 14.4741 17.1244 14.569 17.5495 14.518C17.5712 14.5486 17.6213 14.5828 17.6004 14.6116C17.5796 14.6404 17.4879 14.6674 17.4031 14.6888C17.3253 14.7081 17.219 14.7257 17.1198 14.7317C16.6518 14.7561 16.1837 14.7767 15.6802 14.8012Z" fill="#FFE492"/>
<path id="Vector_7" d="M385.055 13.5115C385.402 13.4951 385.764 13.4864 386.105 13.4586C386.374 13.4368 386.545 13.4497 386.758 13.4948C387.121 13.5739 387.143 13.5662 388.03 13.575C388.13 13.5766 388.251 13.6049 388.308 13.6295C388.344 13.6428 388.294 13.6792 388.252 13.6984C388.189 13.7234 388.097 13.7562 388.012 13.7564C387.451 13.7638 386.885 13.8782 386.336 13.7501C386.058 13.686 385.753 13.6563 385.377 13.6861C385.15 13.704 384.909 13.7124 384.675 13.7207C384.448 13.729 384.213 13.7087 384.07 13.6519C383.863 13.5685 383.983 13.5357 384.353 13.5403C384.587 13.5434 384.821 13.5217 385.055 13.5115Z" fill="#FFE492"/>
<path id="Vector_8" d="M513.885 26.4452C514.332 26.4247 514.778 26.4003 515.232 26.3837C515.324 26.3795 515.438 26.4003 515.524 26.4134C515.865 26.4698 515.817 26.5675 515.833 26.6535C515.841 26.7435 515.054 26.8186 514.72 26.7584C514.35 26.6906 514.015 26.6132 513.505 26.6568C513.307 26.6728 513.072 26.639 512.943 26.5839C512.75 26.5041 512.856 26.4713 513.218 26.4759C513.431 26.4791 513.658 26.4573 513.885 26.4452Z" fill="#FFE492"/>
<path id="Vector_9" d="M288.176 0.835075C288.637 0.812666 289.098 0.778813 289.559 0.775504C289.829 0.772777 289.965 0.835388 289.902 0.881423C289.867 0.910182 289.782 0.950552 289.697 0.95463C288.775 1.00327 287.853 1.04427 286.931 1.08909C286.66 1.06317 286.525 1.02347 286.588 0.977437C286.623 0.948678 286.708 0.910218 286.793 0.904229C287.254 0.87609 287.715 0.857484 288.176 0.835075Z" fill="#FFE492"/>
<path id="Vector_10" d="M504.984 20.21C505.431 20.1895 505.885 20.1595 506.332 20.1486C506.566 20.144 506.751 20.1874 506.78 20.237C506.795 20.2599 506.682 20.3003 506.59 20.3102C505.952 20.3771 505.263 20.3868 504.597 20.4213C504.384 20.4315 504.156 20.4016 504.028 20.3485C503.835 20.267 503.941 20.2361 504.303 20.2407C504.53 20.2419 504.757 20.2202 504.984 20.21Z" fill="#FFE492"/>
<path id="Vector_11" d="M396.795 13.7416C397.022 13.7313 397.255 13.7057 397.476 13.7127C397.71 13.7216 397.86 13.7767 397.931 13.832C398.01 13.895 398.004 13.9544 397.934 14.0082C397.822 14.1005 397.708 14.097 397.445 14.0365C397.039 13.942 397.011 13.9536 396.209 13.9599C396.117 13.9602 396.003 13.9318 395.932 13.9071C395.825 13.8691 395.881 13.8096 396.129 13.7743C396.313 13.7488 396.568 13.7519 396.795 13.7416Z" fill="#FFE492"/>
<path id="Vector_12" d="M488.335 19.6205C488.668 19.6042 489.001 19.5783 489.335 19.5773C489.569 19.5746 489.754 19.6181 489.776 19.6658C489.784 19.6887 489.678 19.7273 489.593 19.739C489.189 19.7919 488.735 19.7971 488.295 19.8156C488.089 19.8239 487.862 19.794 487.733 19.7408C487.54 19.6611 487.653 19.6244 488.001 19.6349C488.108 19.6384 488.221 19.6265 488.335 19.6205Z" fill="#FFE492"/>
<path id="Vector_13" d="M435.778 17.3895C435.281 17.414 434.812 17.3867 434.847 17.3369C434.896 17.2717 435.101 17.229 435.313 17.2169C435.654 17.1968 435.994 17.1804 436.342 17.1679C436.562 17.1596 436.761 17.1877 436.939 17.2368C436.834 17.2983 436.671 17.3428 436.458 17.3568C436.239 17.3709 436.004 17.3793 435.778 17.3895Z" fill="#FFE492"/>
<path id="Vector_14" d="M432.515 17.1527C432.848 17.1364 433.181 17.1105 433.515 17.1095C433.749 17.1069 433.934 17.1503 433.956 17.198C433.964 17.2209 433.858 17.2595 433.773 17.2712C433.369 17.3241 432.915 17.3293 432.475 17.3478C432.269 17.3561 432.042 17.3262 431.913 17.2731C431.72 17.1933 431.833 17.1567 432.181 17.1671C432.288 17.1706 432.401 17.1588 432.515 17.1527Z" fill="#FFE492"/>
<path id="Vector_15" d="M392.759 13.7362C393.093 13.7199 393.426 13.694 393.759 13.691C393.993 13.6884 394.179 13.7318 394.201 13.7796C394.208 13.8025 394.102 13.8392 394.017 13.8528C393.614 13.9057 393.159 13.9109 392.72 13.9294C392.514 13.9377 392.286 13.9078 392.158 13.8546C391.965 13.7749 392.078 13.7382 392.426 13.7486C392.532 13.7521 392.646 13.7403 392.759 13.7362Z" fill="#FFE492"/>
<path id="Vector_16" d="M390.891 13.6275C391.246 13.6111 391.359 13.6012 391.473 13.6008C391.686 13.6002 391.906 13.6225 392.035 13.6775C392.228 13.7572 392.115 13.7805 391.767 13.7854C391.32 13.7906 390.88 13.8321 390.433 13.8411C390.199 13.8457 390.014 13.8003 389.999 13.7526C389.992 13.7296 390.097 13.6892 390.182 13.6812C390.48 13.6517 390.806 13.6335 390.891 13.6275Z" fill="#FFE492"/>
<path id="Vector_17" d="M429.502 2.2231C429.275 2.23336 429.035 2.26088 428.822 2.25196C428.537 2.23944 428.423 2.18813 428.493 2.14008C428.536 2.11317 428.613 2.07466 428.698 2.06867C429.152 2.04049 429.613 2.02185 430.067 2.00133C430.337 2.02921 430.458 2.06902 430.388 2.11707C430.346 2.14398 430.268 2.18057 430.183 2.18848C429.963 2.20829 429.729 2.21284 429.502 2.2231Z" fill="#FFE492"/>
<path id="Vector_18" d="M153.865 4.00869C154.085 4.00611 154.284 4.03038 154.455 4.07772C154.349 4.1393 154.194 4.17998 153.981 4.19786C153.875 4.20584 153.754 4.21194 153.641 4.2142C153.421 4.2187 153.222 4.19251 153.051 4.14518C153.156 4.0836 153.319 4.0429 153.524 4.02504C153.63 4.01706 153.751 4.01478 153.865 4.00869Z" fill="#FFE492"/>
<path id="Vector_19" d="M502.551 20.2075C502.543 20.152 502.975 20.0875 503.365 20.0882C503.571 20.0895 503.784 20.1157 503.906 20.167C504.091 20.2449 503.985 20.2758 503.637 20.2711C503.424 20.268 503.198 20.3012 502.985 20.2961C502.744 20.2949 502.601 20.2533 502.551 20.2075Z" fill="#FFE492"/>
<path id="Vector_20" d="M398.85 13.9685C398.843 13.9474 398.807 13.9226 398.828 13.9034C398.961 13.7976 399.777 13.7626 399.991 13.8539C400.026 13.871 400.041 13.8997 400.013 13.917C399.971 13.944 399.893 13.9787 399.808 13.9866C399.589 14.0064 399.362 14.0167 399.135 14.0193C399.036 14.0196 398.943 13.9873 398.85 13.9685Z" fill="#FFE492"/>
<path id="Vector_21" d="M18.2036 14.4877C17.367 14.5304 17.3527 14.5266 17.5003 14.4304C17.6338 14.3439 17.8813 14.2914 18.2432 14.2903C18.3496 14.29 18.463 14.2858 18.5553 14.2932C18.6548 14.3025 18.7971 14.3211 18.8187 14.3441C18.862 14.388 18.742 14.4362 18.5296 14.4694C18.4376 14.485 18.317 14.4816 18.2036 14.4877Z" fill="#FFE492"/>
<path id="Vector_22" d="M164.353 3.71128C164.106 3.74461 163.893 3.73378 163.736 3.67295C163.579 3.61213 163.826 3.53857 164.258 3.52C164.372 3.51582 164.492 3.50014 164.599 3.50748C164.705 3.5129 164.812 3.53554 164.876 3.55833C164.99 3.5963 164.92 3.64825 164.694 3.693C164.602 3.71053 164.467 3.7071 164.353 3.71128Z" fill="#FFE492"/>
<path id="Vector_23" d="M501.071 20.0678C501.134 20.0427 501.198 20.0176 501.268 19.9943C501.53 20.0261 501.644 20.0641 501.574 20.1085C501.532 20.1355 501.447 20.1588 501.384 20.1839C501.122 20.1521 501.015 20.1121 501.071 20.0678Z" fill="#FFE492"/>
<path id="Vector_24" d="M29.6435 36.3428C29.6432 36.3198 29.7417 36.2831 29.8194 36.2752C29.9678 36.2613 30.1521 36.2876 30.2803 36.3409C30.4584 36.417 30.353 36.4576 30.0271 36.4375C29.8005 36.4229 29.6442 36.385 29.6435 36.3428Z" fill="#FFE492"/>
<path id="Vector_25" d="M401.721 12.1728C401.813 12.1897 401.905 12.2067 401.991 12.2256C401.871 12.2969 401.723 12.328 401.567 12.3093C401.468 12.2981 401.382 12.2754 401.29 12.2584C401.409 12.1871 401.551 12.1599 401.721 12.1728Z" fill="#FFE492"/>
<path id="Vector_26" d="M399.266 12.0921C399.407 12.0629 399.577 12.0777 399.776 12.1327C399.713 12.1578 399.657 12.1867 399.579 12.2061C399.445 12.2372 399.268 12.2224 399.076 12.1655C399.132 12.1423 399.196 12.1172 399.266 12.0921Z" fill="#FFE492"/>
<path id="Vector_27" d="M397.383 12.1813C397.476 12.1982 397.568 12.2152 397.653 12.2341C397.534 12.3054 397.393 12.3365 397.23 12.3178C397.131 12.3066 397.045 12.2839 396.953 12.2669C397.072 12.1956 397.213 12.1664 397.383 12.1813Z" fill="#FFE492"/>
<path id="Vector_28" d="M395.993 12.0824C396.1 12.1204 396.044 12.1666 395.84 12.2191C395.748 12.2021 395.641 12.189 395.57 12.1662C395.457 12.1301 395.513 12.0819 395.724 12.0295C395.809 12.0484 395.901 12.0654 395.993 12.0824Z" fill="#FFE492"/>
</g>
</g>
</g>
</g>
</g>
</g>
</svg>
