<svg width="335" height="31" viewBox="0 0 335 31" fill="none" xmlns="http://www.w3.org/2000/svg">
<path d="M313.129 15.9124C312.672 15.9376 312.211 15.955 311.764 15.9928C311.473 16.0164 311.349 15.9471 311.155 15.9109C311.091 15.8983 311.022 15.8731 310.962 15.8762C310.51 15.9014 310.058 15.9298 309.606 15.9581C309.468 16.0195 309.38 16.1014 309.168 16.1313C308.961 16.1597 308.716 16.1597 308.486 16.1739C308.181 16.1912 307.877 16.2085 307.573 16.2243C307.421 16.2321 307.296 16.2621 307.245 16.3188C307.236 16.3282 307.338 16.3518 307.393 16.366C307.577 16.4132 307.757 16.4668 307.96 16.503C308.154 16.5377 308.393 16.481 308.601 16.5251C309.067 16.6243 309.071 16.6227 309.426 16.6038C309.731 16.5865 310.035 16.5676 310.339 16.555C310.399 16.5518 310.468 16.5755 310.533 16.5881C310.727 16.6227 310.851 16.7014 311.137 16.6715C311.354 16.6479 311.593 16.6432 311.819 16.6306C312.008 16.6762 312.184 16.7282 312.386 16.7644C312.575 16.7991 312.631 16.8259 312.529 16.8715C312.437 16.9141 312.308 16.9314 312.137 16.9345C311.985 16.9361 311.833 16.9503 311.681 16.9581C311.603 16.9629 311.529 16.966 311.455 16.9708C311.165 16.9881 311.165 16.9881 310.634 16.8873C310.427 16.8479 310.192 16.903 309.993 16.8652C309.86 16.84 309.744 16.8022 309.615 16.7755C309.56 16.7644 309.472 16.7629 309.403 16.766C309.173 16.777 308.942 16.7849 308.721 16.8054C308.564 16.8196 308.472 16.8637 308.49 16.9078C308.495 16.9251 308.606 16.9503 308.67 16.9519C308.818 16.955 308.974 16.9329 309.117 16.944C309.256 16.955 309.399 16.9865 309.5 17.0211C309.708 17.0936 309.943 17.029 310.141 17.0479C310.348 17.0684 310.519 17.1314 310.717 17.1692C310.768 17.1786 310.865 17.1629 310.943 17.1582C311.169 17.1471 311.395 17.1377 311.621 17.1267C311.81 17.1723 312.013 17.2133 312.184 17.2653C312.492 17.3597 312.824 17.396 313.226 17.3503C313.452 17.3251 313.673 17.3345 313.853 17.396C314.037 17.459 314.249 17.4527 314.484 17.4401C314.701 17.4275 314.922 17.3928 315.144 17.4369C315.623 17.5345 315.628 17.5393 316.195 17.5015C316.366 17.4905 316.495 17.4873 316.624 17.5235C316.744 17.5566 316.873 17.5849 316.997 17.6164C317.223 17.6054 317.454 17.5944 317.68 17.5818C317.97 17.5645 318.131 17.5865 318.201 17.6747C318.242 17.7283 318.261 17.7771 318.362 17.8133C318.482 17.8574 318.611 17.8558 318.786 17.8432C318.952 17.8322 319.072 17.8149 319.141 17.7582C319.169 17.7346 319.224 17.7125 319.275 17.6936C319.316 17.6794 319.381 17.6574 319.418 17.6605C319.487 17.6668 319.579 17.6842 319.602 17.7046C319.828 17.8952 319.828 17.8968 320.059 17.9519C320.312 18.0133 320.575 18.0684 320.806 18.1377C321.013 18.1991 321.221 18.1724 321.447 18.1724C321.617 18.1724 321.728 18.2133 321.714 18.2543C321.705 18.2779 321.64 18.3125 321.585 18.3157C321.133 18.3472 320.677 18.3739 320.22 18.396C320.165 18.3991 320.096 18.3708 320.031 18.3566C319.902 18.3283 319.787 18.2842 319.648 18.2747C319.51 18.2653 319.349 18.2889 319.197 18.2968C319.044 18.3046 318.883 18.3251 318.745 18.3125C318.606 18.2999 318.496 18.2543 318.367 18.2243C318.307 18.2102 318.224 18.1897 318.173 18.1944C317.836 18.2322 317.587 18.1802 317.348 18.1109C317.297 18.0968 317.209 18.0873 317.145 18.0905C316.61 18.1172 316.08 18.1487 315.545 18.1787C315.328 18.1913 315.153 18.1361 315.107 18.0432C315.084 17.9913 315.038 17.9393 315.038 17.8873C315.038 17.7928 314.784 17.7409 314.6 17.7519C314.295 17.7676 313.986 17.7802 313.687 17.8038C313.442 17.8227 313.235 17.8038 313.069 17.7471C312.875 17.6826 312.654 17.6952 312.433 17.7125C312.267 17.7251 312.22 17.7771 312.23 17.9078C312.239 18.0133 312.16 18.0464 311.861 18.0637C311.483 18.0857 311.1 18.1078 310.717 18.1251C310.657 18.1283 310.588 18.1015 310.528 18.0873C310.399 18.059 310.284 18.0133 310.146 18.0039C310.007 17.9928 309.846 18.0165 309.694 18.0259C309.542 18.0338 309.38 18.0558 309.242 18.0448C309.103 18.0338 308.988 17.9865 308.864 17.9566C308.804 17.9424 308.73 17.922 308.67 17.9251C308.366 17.9377 308.061 17.9566 307.757 17.9739C307.416 17.9928 307.416 17.9928 306.932 17.8952C306.71 17.8511 306.489 17.8857 306.272 17.8983C306.042 17.9109 305.825 17.9172 305.645 17.8542C305.525 17.8133 305.392 17.7881 305.249 17.796C304.866 17.8149 304.488 17.8385 304.105 17.8574C304.041 17.8605 303.953 17.8527 303.903 17.8385C303.658 17.7724 303.418 17.7204 303.077 17.7535C302.782 17.7818 302.464 17.7834 302.169 17.8101C302.008 17.8243 301.934 17.8747 301.966 17.9141C301.984 17.9346 302.081 17.9582 302.146 17.9582C302.293 17.9598 302.455 17.9361 302.593 17.9456C302.879 17.9645 303.022 18.0968 303.395 18.0605C303.617 18.0385 303.847 18.0306 304.078 18.0243C304.138 18.0227 304.202 18.0527 304.267 18.0684C304.451 18.1109 304.613 18.1661 304.88 18.1377C305.101 18.1157 305.336 18.1094 305.562 18.0968C305.922 18.0763 305.922 18.0779 306.388 18.1739C306.609 18.2196 306.83 18.1834 307.047 18.1724C307.208 18.1645 307.361 18.1487 307.49 18.1708C307.688 18.2039 307.831 18.2794 308.075 18.2747C308.306 18.27 308.532 18.248 308.762 18.2401C308.905 18.2354 309.039 18.2606 309.154 18.3031C309.274 18.3456 309.403 18.3645 309.56 18.355C309.786 18.3424 310.016 18.3267 310.247 18.3188C310.311 18.3172 310.385 18.3314 310.445 18.344C310.574 18.3724 310.699 18.4054 310.823 18.4354C311.049 18.4259 311.28 18.4228 311.501 18.4039C311.672 18.3897 311.792 18.396 311.93 18.4275C312.105 18.47 312.248 18.5456 312.534 18.5094C312.677 18.4921 312.843 18.4968 312.986 18.481C313.161 18.4606 313.281 18.4684 313.405 18.5157C313.641 18.6054 313.936 18.607 314.24 18.5724C314.572 18.5346 314.821 18.5787 315.07 18.648C315.333 18.7204 315.333 18.7188 315.536 18.8937C315.596 18.944 315.766 18.9677 315.909 18.9582C316.149 18.9425 316.356 18.9503 316.532 19.0102C316.716 19.0748 316.937 19.0669 317.163 19.0496C317.463 19.0259 317.763 19.0055 318.007 19.0968C318.127 19.1409 318.256 19.1519 318.417 19.1409C318.874 19.1125 319.335 19.0952 319.782 19.0606C320.054 19.0385 320.211 19.0889 320.395 19.1315C320.644 19.1897 320.916 19.2417 320.916 19.3661C320.916 19.3866 320.981 19.4102 321.036 19.426C321.156 19.459 321.285 19.4874 321.41 19.5189C321.594 19.5661 321.774 19.6055 322.028 19.5803C322.249 19.5598 322.484 19.5535 322.71 19.5393C322.936 19.5252 323.143 19.5173 323.346 19.5771C323.581 19.6449 323.83 19.7094 324.098 19.7598C324.287 19.796 324.536 19.7346 324.739 19.7834C324.863 19.8134 324.983 19.848 325.117 19.8732C325.172 19.8842 325.26 19.8764 325.334 19.8732C325.486 19.8669 325.642 19.8622 325.79 19.8464C325.961 19.8291 326.09 19.8323 326.219 19.8685C326.339 19.9016 326.459 19.9472 326.597 19.9567C326.804 19.9709 327.035 19.9079 327.242 19.9803C327.348 20.0165 327.482 20.0512 327.621 20.0622C327.759 20.0732 327.92 20.0496 328.068 20.0512C328.132 20.0512 328.211 20.0764 328.248 20.0968C328.271 20.1079 328.238 20.1378 328.206 20.1535C328.165 20.1724 328.105 20.1976 328.045 20.2008C327.588 20.2291 327.132 20.2528 326.675 20.2795C326.403 20.2953 326.403 20.2953 325.855 20.1961C325.725 20.1724 325.583 20.1772 325.421 20.1882C325.204 20.2024 324.983 20.2291 324.757 20.2008C324.462 20.0937 324.098 20.0842 323.711 20.1252C323.549 20.1425 323.402 20.1425 323.282 20.1126C323.028 20.0527 322.761 19.9976 322.535 19.9268C322.36 19.8716 322.277 19.8669 322.203 19.9425C322.18 19.9661 322.157 19.9913 322.161 20.0134C322.189 20.0921 322.24 20.1693 322.267 20.248C322.277 20.2701 322.24 20.2953 322.217 20.3189C322.143 20.385 322.046 20.3803 321.885 20.3252C321.723 20.2701 321.53 20.2339 321.271 20.2591C321.05 20.2811 320.81 20.278 320.589 20.3016C320.248 20.3362 320.008 20.2858 319.764 20.2181C319.713 20.2039 319.625 20.1961 319.561 20.1992C318.874 20.2354 318.191 20.2764 317.504 20.3126C317.357 20.3205 317.223 20.2969 317.108 20.2543C316.988 20.2118 316.854 20.1898 316.707 20.1976C316.098 20.2307 315.489 20.2606 314.881 20.3016C314.632 20.3189 314.434 20.2984 314.263 20.2433C314.134 20.2023 314.014 20.1898 313.853 20.1945C313.677 20.1992 313.553 20.215 313.465 20.2606C313.382 20.3047 313.442 20.3315 313.627 20.3661C313.825 20.4039 314.009 20.4528 314.198 20.4969C314.351 20.4906 314.503 20.4779 314.65 20.4795C314.715 20.4795 314.775 20.5079 314.839 20.5236C315.024 20.5693 315.194 20.615 315.457 20.5898C315.678 20.5677 315.914 20.563 316.14 20.5488C316.453 20.5315 316.453 20.5315 316.96 20.6307C317.089 20.6559 317.228 20.6543 317.394 20.6402C317.537 20.6291 317.684 20.6512 317.786 20.6984C317.827 20.7173 317.813 20.7488 317.726 20.8528C317.726 20.93 317.822 20.8953 317.855 20.8449C317.905 20.7725 317.809 20.7488 317.624 20.7882C317.495 20.8166 317.431 20.8575 317.463 20.8906C317.481 20.9079 317.569 20.93 317.726 20.8528C318.132 20.7583 318.44 20.7473 318.735 20.7221C318.911 20.7079 319.021 20.7142 319.16 20.7551C319.326 20.8039 319.492 20.8559 319.764 20.8307C320.059 20.8024 320.372 20.7992 320.672 20.7756C320.949 20.7535 321.092 20.8229 321.267 20.8638C321.479 20.9126 321.714 20.8575 321.908 20.8858C322.111 20.9142 322.253 20.9835 322.489 20.9961C322.83 20.9536 323.047 21.0323 323.305 21.0843C323.508 21.1237 323.747 21.089 323.964 21.0717C324.208 21.0528 324.411 21.0701 324.582 21.1268C324.776 21.1914 324.992 21.1772 325.214 21.163C325.73 21.1315 325.748 21.1268 326.048 21.2134C326.265 21.2764 326.472 21.2481 326.689 21.2402C326.878 21.2827 327.063 21.3284 327.261 21.3662C327.312 21.3756 327.408 21.3599 327.487 21.3552C327.713 21.3426 327.943 21.33 328.169 21.3174C328.321 21.3095 328.483 21.2859 328.621 21.2953C328.759 21.3063 328.875 21.352 328.999 21.3819C329.124 21.4119 329.253 21.4418 329.373 21.4733C329.557 21.5205 329.732 21.5599 329.99 21.5363C330.212 21.5158 330.442 21.5095 330.673 21.4953C330.963 21.478 330.954 21.4827 331.494 21.5772C331.784 21.6292 332.084 21.5662 332.379 21.5599C332.526 21.5567 332.669 21.5741 332.771 21.6197C332.812 21.6386 332.798 21.6701 332.812 21.6969C332.051 21.7394 331.286 21.7756 330.534 21.8276C330.244 21.8481 330.092 21.7914 329.935 21.7441C329.677 21.6685 329.336 21.7788 329.091 21.6811C328.944 21.6229 328.732 21.5898 328.478 21.6182C328.331 21.6339 328.174 21.6323 328.022 21.6465C327.634 21.6811 327.279 21.6827 326.97 21.5741C326.864 21.5363 326.712 21.5158 326.602 21.4796C326.472 21.4402 326.348 21.4181 326.196 21.426C325.509 21.4638 324.826 21.5016 324.144 21.5426C324.084 21.5457 324.024 21.5693 323.973 21.5867C323.844 21.6308 323.886 21.6654 324.093 21.6938C324.162 21.7032 324.218 21.7237 324.282 21.7394C324.407 21.7693 324.522 21.8166 324.66 21.8276C324.799 21.8386 324.96 21.8166 325.112 21.8087C325.264 21.8008 325.426 21.7772 325.564 21.7867C325.702 21.7977 325.818 21.8434 325.947 21.8717C326.007 21.8859 326.081 21.9095 326.14 21.9079C326.445 21.8985 326.744 21.8812 327.049 21.867C327.238 21.9095 327.399 21.9709 327.625 21.9851C327.768 21.9945 327.92 21.9772 328.068 21.9804C328.132 21.9819 328.215 22.0056 328.248 22.026C328.266 22.0386 328.206 22.0701 328.16 22.0859C327.985 22.1457 327.745 22.1347 327.528 22.1536C327.293 22.1741 327.081 22.1678 326.901 22.1064C326.781 22.0654 326.648 22.0434 326.5 22.0512C326.117 22.0717 325.739 22.0953 325.357 22.1127C325.292 22.1158 325.214 22.1016 325.154 22.0906C324.67 21.9946 324.67 21.9914 324.328 22.0119C323.826 22.0418 323.826 22.0418 323.489 21.9583C323.425 21.9426 323.355 21.9127 323.3 21.9142C322.765 21.9394 322.235 21.9646 321.705 22.0008C321.53 22.0119 321.41 22.0119 321.281 21.9709C321.17 21.9363 321.041 21.8969 320.903 21.8875C320.76 21.878 320.603 21.9016 320.451 21.9095C320.299 21.9174 320.137 21.9379 320.003 21.9253C319.865 21.9127 319.745 21.8686 319.625 21.8371C319.501 21.804 319.367 21.8056 319.197 21.8182C318.671 21.8544 318.666 21.8497 318.145 21.752C318.085 21.741 318.007 21.7284 317.942 21.7315C317.56 21.7504 317.182 21.7741 316.799 21.793C316.651 21.8008 316.508 21.7804 316.407 21.7347C316.366 21.7158 316.379 21.6843 316.352 21.6229C316.319 21.6087 316.356 21.6339 316.365 21.6575C316.435 21.6544 316.518 21.6575 316.568 21.6449C316.698 21.615 316.762 21.5756 316.73 21.5426C316.711 21.5252 316.624 21.5032 316.568 21.5032C316.467 21.5032 316.379 21.5378 316.352 21.6229C316.061 21.6748 315.752 21.6859 315.453 21.7111C315.277 21.7268 315.167 21.719 315.028 21.678C314.862 21.6276 314.692 21.5788 314.42 21.604C314.125 21.6323 313.811 21.6371 313.507 21.6591C313.156 21.6843 313.004 21.5426 312.709 21.5457C312.405 21.5489 312.101 21.5756 311.796 21.5945C311.529 21.6103 311.529 21.6103 310.975 21.5079C310.773 21.4701 310.533 21.5252 310.335 21.4859C310.201 21.4607 310.086 21.4229 309.957 21.3961C309.901 21.3851 309.814 21.3851 309.744 21.3882C309.362 21.4071 308.974 21.4197 308.606 21.4544C308.186 21.4953 307.868 21.4512 307.568 21.3583C307.19 21.3756 306.807 21.3851 306.434 21.415C306.162 21.437 306.005 21.3851 305.821 21.3426C305.756 21.3284 305.701 21.3048 305.632 21.2985C305.562 21.2922 305.479 21.3048 305.406 21.3095C305.101 21.3268 304.788 21.3347 304.493 21.363C304.128 21.3993 303.99 21.2701 303.709 21.2544C303.52 21.3315 303.418 21.437 303.045 21.4449C302.741 21.4512 302.436 21.4764 302.132 21.4937C301.98 21.5016 301.828 21.5111 301.676 21.5189C301.431 21.5331 301.316 21.5945 301.367 21.689C301.394 21.741 301.417 21.793 301.44 21.8449C301.486 21.9379 301.371 22.0166 301.178 22.0276C300.643 22.0575 300.112 22.089 299.578 22.1158C299.435 22.1237 299.296 22.0969 299.181 22.0544C299.061 22.0119 298.927 21.993 298.78 22.0008C298.245 22.0308 297.715 22.0623 297.18 22.089C297.12 22.0922 297.042 22.0764 296.982 22.0638C296.853 22.0355 296.728 22.0024 296.604 21.9725C296.299 21.9867 296 21.9961 295.7 22.015C295.216 22.0434 295.216 22.0449 294.861 21.9583C294.796 21.9426 294.732 21.9127 294.672 21.9142C294.441 21.9205 294.215 21.9363 293.985 21.9505C293.307 21.9914 293.307 21.9914 293.109 21.9442C292.929 21.9001 292.767 21.8465 292.495 21.8717C292.2 21.9001 291.887 21.9095 291.582 21.9253C291.356 21.9363 291.131 21.9489 290.905 21.952C290.845 21.9536 290.78 21.9237 290.716 21.9079C290.531 21.8591 290.351 21.8197 290.098 21.8465C289.95 21.8623 289.793 21.8654 289.641 21.8733C289.245 21.8953 289.245 21.8953 288.595 21.8008C288.53 21.7914 288.452 21.7804 288.387 21.7851C287.852 21.8134 287.322 21.8449 286.787 21.8717C286.723 21.8749 286.644 21.8654 286.58 21.8575C285.851 21.7662 285.851 21.7662 285.077 21.8103C284.782 21.826 284.772 21.8323 284.463 21.7489C284.325 21.7126 284.21 21.6953 284.048 21.7063C283.44 21.7441 282.827 21.7693 282.223 21.8134C281.951 21.8323 281.794 21.7851 281.609 21.7426C281.545 21.7284 281.476 21.6969 281.42 21.6985C280.812 21.7284 280.203 21.7646 279.594 21.7945C279.539 21.7977 279.47 21.7662 279.405 21.752C279.281 21.7237 279.161 21.6812 279.023 21.6717C278.88 21.6623 278.723 21.6859 278.566 21.6938C278.183 21.7142 278.183 21.7127 277.741 21.6197C277.681 21.6071 277.602 21.5898 277.543 21.593C276.934 21.6245 276.321 21.6512 275.717 21.6969C275.371 21.7221 275.136 21.6764 274.891 21.6103C274.841 21.5961 274.753 21.5898 274.688 21.593C274.001 21.6292 273.319 21.6701 272.632 21.7063C272.489 21.7142 272.351 21.6874 272.236 21.6465C272.051 21.5819 271.834 21.5898 271.604 21.604C271.074 21.637 271.069 21.6355 270.755 21.5599C270.691 21.5441 270.636 21.5237 270.566 21.5158C270.502 21.5079 270.419 21.5126 270.35 21.5158C270.045 21.5315 269.741 21.5489 269.437 21.5662C269.133 21.5835 268.823 21.593 268.524 21.6197C268.155 21.6528 267.98 21.5504 267.722 21.5032C267.343 21.5237 266.956 21.5363 266.583 21.5693C266.297 21.5945 266.163 21.5252 265.974 21.489C265.91 21.4764 265.84 21.4496 265.78 21.4528C265.093 21.4874 264.406 21.5252 263.724 21.5678C263.558 21.5772 263.447 21.5646 263.309 21.5268C263 21.4418 262.986 21.4449 262.47 21.4764C262.244 21.4906 262.027 21.5032 261.834 21.4386C261.663 21.3804 261.456 21.3662 261.211 21.3851C260.911 21.4087 260.603 21.4213 260.298 21.437C259.994 21.4544 259.69 21.478 259.385 21.4859C259.141 21.4937 258.993 21.4197 258.8 21.3819C258.74 21.3709 258.657 21.3693 258.588 21.3725C258.283 21.3867 257.97 21.3977 257.675 21.4244C257.315 21.4575 257.117 21.3709 256.863 21.3205C256.808 21.3095 256.716 21.3158 256.646 21.3205C256.112 21.3489 255.581 21.3803 255.046 21.4103C254.857 21.3678 254.664 21.3268 254.475 21.2843C254.17 21.3 253.866 21.3174 253.562 21.3331C253.331 21.3457 253.096 21.3504 252.879 21.3741C252.598 21.4056 252.46 21.3315 252.271 21.2953C252.206 21.2827 252.137 21.2559 252.077 21.2591C251.694 21.2764 251.312 21.2953 250.934 21.3221C250.574 21.3489 250.431 21.2071 250.136 21.2087C249.832 21.2103 249.518 21.2307 249.223 21.2591C248.882 21.2922 248.642 21.2418 248.398 21.174C248.347 21.1599 248.259 21.152 248.195 21.1551C247.812 21.174 247.434 21.1977 247.051 21.2166C246.987 21.2197 246.908 21.2118 246.844 21.2024C246.115 21.1095 246.115 21.1079 245.797 21.1268C245.571 21.1394 245.341 21.1552 245.11 21.163C245.046 21.1662 244.967 21.152 244.907 21.1394C244.428 21.0433 244.428 21.0418 244.082 21.0607C243.778 21.078 243.473 21.0953 243.169 21.1126C242.98 21.0701 242.786 21.0292 242.597 20.9866C242.219 21.0071 241.832 21.0229 241.458 21.0512C241.283 21.0638 241.168 21.0591 241.034 21.0197C240.868 20.9725 240.702 20.9173 240.426 20.9441C240.131 20.9725 239.817 20.9756 239.517 20.9992C239.158 21.0276 239.01 20.8843 238.72 20.8858C238.415 20.8874 238.102 20.9079 237.807 20.9362C237.465 20.9693 237.226 20.9189 236.981 20.8512C236.931 20.837 236.843 20.8292 236.778 20.8323C235.939 20.878 235.105 20.9236 234.266 20.9725C233.749 21.0024 233.749 21.004 232.767 20.9173C232.698 20.911 232.624 20.9048 232.555 20.9079C232.251 20.9221 231.937 20.9331 231.642 20.9599C231.282 20.9929 231.084 20.9079 230.83 20.8559C230.775 20.8449 230.688 20.8512 230.614 20.8543C230.383 20.8654 230.157 20.8796 229.927 20.8922C229.622 20.9095 229.318 20.9268 229.014 20.9441C228.825 20.9032 228.631 20.8606 228.442 20.8197C228.064 20.8402 227.677 20.8512 227.303 20.8843C227.017 20.9095 226.884 20.8433 226.695 20.8055C226.63 20.7929 226.561 20.7662 226.501 20.7677C225.814 20.8024 225.127 20.8386 224.445 20.8827C224.163 20.9016 224.034 20.8307 223.845 20.7945C223.781 20.7835 223.707 20.763 223.647 20.7662C223.19 20.7882 222.734 20.815 222.278 20.8417C222.019 20.8575 222.019 20.8575 221.457 20.7599C221.392 20.7488 221.319 20.7378 221.254 20.741C219.806 20.8197 218.363 20.9032 216.915 20.9819C216.768 20.9898 216.634 20.9662 216.519 20.9236C216.399 20.8811 216.265 20.8591 216.117 20.867C215.509 20.9 214.896 20.93 214.292 20.9709C214.043 20.9882 213.844 20.9677 213.674 20.9126C213.545 20.8717 213.425 20.8559 213.263 20.8654C212.959 20.8843 212.655 20.9 212.35 20.9173C212.046 20.9347 211.742 20.952 211.438 20.9693C211.133 20.9866 210.824 20.9961 210.525 21.0229C210.156 21.0559 209.976 20.9583 209.722 20.9095C209.266 20.9331 208.809 20.9567 208.357 20.9819C207.749 21.015 207.14 21.0512 206.532 21.0827C206.476 21.0859 206.407 21.0575 206.343 21.0433C206.154 21.004 206.015 20.9488 205.734 20.9662C204.369 21.0496 202.995 21.1205 201.626 21.2024C201.34 21.2197 201.215 21.152 201.022 21.1158C200.957 21.1047 200.883 21.0827 200.823 21.0859C200.063 21.1252 199.302 21.1693 198.541 21.2118C198.232 21.2292 198.232 21.2292 197.716 21.1315C197.656 21.1205 197.577 21.1063 197.513 21.1095C196.522 21.163 195.535 21.2197 194.544 21.2748C194.396 21.2827 194.262 21.2607 194.142 21.2181C194.027 21.1756 193.889 21.152 193.746 21.1599C192.833 21.2103 191.915 21.2591 191.007 21.3142C190.763 21.33 190.56 21.3158 190.385 21.2591C190.26 21.2181 190.136 21.2008 189.979 21.2103C188.609 21.2874 187.24 21.3615 185.871 21.4434C185.608 21.4591 185.423 21.4292 185.257 21.3772C185.124 21.3363 185.008 21.3284 184.842 21.3347C184.667 21.3426 184.561 21.3599 184.464 21.4071C184.34 21.4685 184.261 21.5457 183.966 21.5504C183.662 21.5552 183.353 21.5741 183.053 21.6008C182.768 21.6276 182.634 21.5567 182.454 21.5142C182.32 21.4843 182.196 21.4796 182.025 21.4937C181.868 21.5063 181.772 21.5331 181.679 21.5835C181.477 21.6906 181.458 21.6906 181.209 21.6229C181.075 21.5867 180.955 21.5583 180.808 21.5646C180.199 21.5961 179.591 21.6308 178.982 21.667C178.632 21.6874 178.627 21.6906 178.364 21.6119C178.235 21.5725 178.111 21.5536 177.958 21.563C176.285 21.6575 174.611 21.7489 172.937 21.8481C172.679 21.8638 172.504 21.8308 172.319 21.7835C172.26 21.7678 172.2 21.7457 172.13 21.7394C172.061 21.7331 171.983 21.7394 171.909 21.7426C170.692 21.8103 169.47 21.8749 168.257 21.9505C167.981 21.9678 167.833 21.9174 167.644 21.8764C167.58 21.8623 167.524 21.8402 167.455 21.8339C167.386 21.8292 167.303 21.8402 167.229 21.8449C166.012 21.9127 164.79 21.9772 163.577 22.0528C163.287 22.0701 163.162 22.004 162.973 21.9694C162.909 21.9568 162.84 21.9331 162.78 21.9363C162.397 21.9536 162.019 21.9772 161.636 21.9977C160.723 22.0497 159.81 22.0985 158.897 22.152C158.547 22.1725 158.395 22.0323 158.1 22.0386C157.717 22.0465 157.339 22.078 156.956 22.1001C156.652 22.1174 156.348 22.1331 156.043 22.152C155.744 22.1694 155.744 22.1694 154.997 22.078C154.932 22.0701 154.854 22.0591 154.789 22.0623C153.724 22.1205 152.654 22.1788 151.594 22.2418C151.35 22.256 151.147 22.2481 150.971 22.1898C150.847 22.1489 150.718 22.1284 150.566 22.1379C148.966 22.2276 147.37 22.3174 145.77 22.4056C145.71 22.4087 145.632 22.393 145.572 22.3804C145.443 22.352 145.319 22.319 145.194 22.2891C145.102 22.3253 144.982 22.3583 144.922 22.3993C144.839 22.4544 144.728 22.4702 144.553 22.4796C144.378 22.4891 144.267 22.4859 144.129 22.445C143.963 22.3946 143.792 22.3552 143.52 22.3709C141.847 22.4701 140.173 22.5599 138.499 22.6576C138.223 22.6733 138.094 22.604 137.9 22.5678C137.835 22.5568 137.761 22.5395 137.702 22.5426C137.015 22.5788 136.332 22.6182 135.645 22.656C133.741 22.7631 131.837 22.8655 129.937 22.9788C129.591 22.9993 129.356 22.9599 129.112 22.8922C129.061 22.878 128.973 22.8702 128.909 22.8733C126.244 23.0214 123.579 23.171 120.918 23.3206C120.775 23.3284 120.637 23.3033 120.522 23.2623C120.402 23.2198 120.268 23.1993 120.121 23.2072C118.903 23.2749 117.686 23.3426 116.469 23.4119C116.165 23.4293 116.16 23.4308 115.846 23.3552C115.782 23.3395 115.713 23.3096 115.662 23.3127C115.556 23.3206 115.454 23.3599 115.381 23.4135C115.307 23.4702 115.192 23.4859 115.021 23.497C114.846 23.508 114.731 23.5033 114.597 23.4655C114.426 23.4182 114.269 23.3726 113.993 23.3883C110.493 23.5899 106.994 23.7836 103.494 23.9836C103.213 23.9993 103.084 23.9332 102.89 23.897C102.825 23.886 102.761 23.8702 102.692 23.867C102.618 23.8639 102.54 23.8734 102.466 23.8781C96.7577 24.1978 91.0495 24.519 85.3414 24.8387C85.0002 24.8576 85.0048 24.8576 84.6313 25.0025C84.5852 25.0199 84.5252 25.0435 84.4606 25.0466C82.7131 25.1474 80.9611 25.245 79.209 25.3427C78.4482 25.3852 77.6874 25.4293 76.9267 25.4703C76.6546 25.4844 76.6546 25.4844 76.0045 25.6545C75.9492 25.6687 75.8845 25.6876 75.82 25.6907C72.7769 25.8624 69.7337 26.0341 66.686 26.2026C66.4462 26.2152 66.2526 26.2435 66.1419 26.3191C66.0635 26.3727 65.9621 26.4042 65.81 26.4136C63.6798 26.5333 61.5496 26.6546 59.4148 26.7711C59.1612 26.7853 59.009 26.8294 58.8845 26.8955C58.843 26.9176 58.8061 26.9427 58.7462 26.9585C58.6908 26.9727 58.6079 26.9774 58.5387 26.9821C56.7128 27.0845 54.887 27.19 53.0565 27.2877C52.7845 27.3018 52.6738 27.3601 52.5401 27.4215C52.4939 27.442 52.4617 27.4703 52.4017 27.4845C52.3418 27.4971 52.2542 27.4971 52.1804 27.5003C50.6588 27.5853 49.1373 27.6719 47.6158 27.757C47.3207 27.7491 47.2561 27.8404 47.1131 27.8955C47.0624 27.9144 47.0256 27.9396 46.9657 27.9522C46.9011 27.9648 46.818 27.9633 46.7396 27.9664C45.5224 28.0341 44.3052 28.1066 43.0833 28.1696C42.802 28.1837 42.7467 28.2641 42.5945 28.3192C42.5438 28.3365 42.4932 28.3633 42.4332 28.368C41.6724 28.4137 40.9117 28.4562 40.1509 28.4971C39.8973 28.5113 39.8973 28.5097 39.45 28.6657C39.3993 28.683 39.3393 28.7019 39.2748 28.7066C38.1359 28.7727 36.9925 28.8357 35.849 28.9003C35.7014 28.9082 35.6 28.946 35.5262 28.9995C35.4525 29.0531 35.3464 29.0877 35.1989 29.0956C34.286 29.1476 33.3729 29.2011 32.46 29.2483C32.2064 29.2609 32.0405 29.3003 31.9298 29.3712C31.8468 29.4247 31.7454 29.4515 31.584 29.4609C30.6711 29.5113 29.7581 29.5665 28.8406 29.6106C28.5732 29.6232 28.4348 29.6767 28.3241 29.7429C28.2365 29.7964 28.1351 29.8153 27.9645 29.8248C26.2907 29.9161 24.6125 30.0074 22.9434 30.1082C22.6621 30.1255 22.5191 30.0704 22.3347 30.031C22.0719 29.9759 21.8276 29.9161 21.8276 29.7932C21.8276 29.7743 21.7492 29.7523 21.6938 29.7365C21.2835 29.6184 21.2835 29.6184 21.2189 29.4925C21.182 29.4153 21.1405 29.3365 21.1083 29.2578C21.0483 29.1287 20.9007 29.0956 20.4765 29.1192C20.3244 29.1271 20.1722 29.1381 20.0201 29.1444C19.7941 29.1554 19.6236 29.1035 19.5821 29.009C19.559 28.957 19.5314 28.905 19.5083 28.8531C19.7389 28.8405 19.7342 28.8389 20.1399 28.6483C20.3105 28.568 20.3106 28.568 19.9833 28.4877C19.8588 28.4578 19.7388 28.4247 19.6051 28.3963C19.5452 28.3837 19.4668 28.3759 19.4023 28.379C19.0196 28.3979 18.6415 28.42 18.2634 28.442C17.6548 28.4767 17.6547 28.4767 17.0369 28.316C16.9862 28.3034 16.9078 28.2798 16.917 28.2672C16.9677 28.2089 17.0922 28.1837 17.249 28.1774C17.4795 28.168 17.7054 28.1522 17.9314 28.1396C18.0835 28.1318 18.2357 28.1223 18.3878 28.1145C18.5308 28.0546 18.6784 27.9963 18.8121 27.9349C19.0242 27.8404 19.0241 27.8373 18.7336 27.7711C18.5492 27.727 18.3509 27.6877 18.1619 27.6467C17.936 27.6593 17.7054 27.6735 17.4795 27.6845C17.1936 27.6987 17.0784 27.6688 17.0046 27.5664C16.94 27.4766 17.0184 27.3995 17.2397 27.3806C17.4657 27.3617 17.6779 27.3491 17.7931 27.2688C17.9038 27.1916 18.0974 27.1617 18.3372 27.1554C18.4893 27.1506 18.6415 27.1396 18.7936 27.1302C18.9919 27.1176 19.098 27.0372 19.0565 26.9475C19.0334 26.8892 18.9873 26.8404 18.8075 26.8278C18.0098 26.7727 18.0005 26.7742 17.604 26.6672C17.5671 26.6577 17.5395 26.6294 17.5534 26.6152C17.5764 26.5916 17.6271 26.5569 17.6825 26.5522C18.2127 26.5175 18.7429 26.4861 19.2732 26.4624C19.4484 26.4546 19.5775 26.4435 19.6374 26.3852C19.7204 26.3049 19.6836 26.2309 19.5222 26.1758C19.4715 26.1585 19.3884 26.1364 19.3331 26.138C18.7244 26.1663 18.1204 26.2026 17.5118 26.2309C17.4565 26.2341 17.3551 26.2073 17.332 26.1868C17.2859 26.149 17.3551 26.0986 17.5164 26.0813C17.7285 26.0577 17.9452 26.0561 18.0882 25.9774C18.2864 25.8655 18.5308 25.7632 18.7521 25.6561C18.789 25.6372 18.849 25.601 18.8352 25.5978C18.7199 25.5632 18.5862 25.5364 18.4663 25.5033C18.2634 25.4482 18.2634 25.371 18.3095 25.297C18.3464 25.2372 18.4847 25.2136 18.6553 25.2136C18.7291 25.2136 18.8213 25.2136 18.8812 25.1994C19.038 25.1647 19.0887 25.1206 19.0103 25.0876C18.9642 25.0687 18.8813 25.0419 18.8259 25.0451C17.8392 25.097 16.8478 25.1474 15.8657 25.212C15.5752 25.2309 15.4416 25.171 15.2664 25.1285C15.1327 25.0954 15.0081 25.0828 14.8421 25.1065C14.6854 25.1285 14.5333 25.1159 14.4364 25.064C14.3581 25.0214 14.4964 24.9852 14.8698 24.9443C14.939 24.9364 15.0173 24.9317 15.0681 24.9159C15.6029 24.7458 15.6029 24.7443 15.9718 24.7222C16.3314 24.7017 16.3315 24.7002 16.5205 24.6088C16.6081 24.5663 16.7049 24.5238 16.7879 24.4797C16.8202 24.4623 16.8756 24.4308 16.8571 24.4214C16.7557 24.3726 16.6173 24.3616 16.4559 24.3726C16.0963 24.3994 15.6721 24.3773 15.4831 24.5269C15.4093 24.5836 15.2941 24.5994 15.1281 24.6088C13.459 24.7002 11.7898 24.7978 10.1161 24.886C9.84403 24.9002 9.71961 24.9584 9.61357 25.023C9.52135 25.0766 9.41989 25.0923 9.24468 25.1017C9.06947 25.1112 8.93108 25.1159 8.82964 25.064C8.7697 25.0325 8.82043 24.9884 8.95876 24.9443C9.15702 24.8813 9.12012 24.8025 9.05556 24.7285C9.00946 24.6797 8.86653 24.645 8.71437 24.6482C8.48844 24.6545 8.27179 24.6718 8.08275 24.6088C7.97209 24.5726 7.83374 24.5474 7.70925 24.5159C7.46948 24.4513 7.22971 24.3852 6.89313 24.4277C6.66259 24.412 6.50121 24.3553 6.31678 24.3112C6.00785 24.2387 5.98019 24.2277 6.20151 24.1505C6.45049 24.0639 6.2568 23.9505 6.39512 23.8655C6.54267 23.7741 6.74561 23.6938 6.92543 23.6088C6.97154 23.5867 7.01306 23.5663 7.05916 23.5442C6.95312 23.5127 6.85631 23.4733 6.73181 23.4513C6.57044 23.423 6.48744 23.3883 6.49666 23.2907C6.46438 23.2765 6.47812 23.3127 6.51501 23.3222C6.55651 23.3316 6.65802 23.3237 6.70874 23.3127C6.83784 23.2828 6.90232 23.2434 6.87005 23.2103C6.85161 23.193 6.76407 23.171 6.70874 23.171C6.6073 23.171 6.51971 23.2056 6.49204 23.2907C5.97563 23.3552 5.4407 23.3867 4.90584 23.4119C4.85051 23.4151 4.78139 23.3836 4.71684 23.3678C4.50474 23.3143 4.50472 23.3158 3.88226 23.3001C3.81771 23.2985 3.73015 23.2765 3.69787 23.2544C3.56416 23.1584 3.56881 23.0529 3.50425 22.9505C3.62413 22.8843 3.74392 22.8198 3.86841 22.7552C4.1174 22.6245 4.44022 22.5095 4.63388 22.3662C4.59238 22.2891 4.53704 22.2119 4.73992 22.1489C5.31627 22.0701 5.31169 22.0702 5.46846 21.9946C5.91571 21.7804 6.35832 21.5646 6.82401 21.3536C6.9485 21.2985 6.94852 21.2685 6.7272 21.2449C6.65804 21.2386 6.58417 21.237 6.51039 21.2402C6.27985 21.2512 6.04932 21.2796 5.82339 21.2733C5.59746 21.2685 5.43147 21.1992 5.24704 21.1567C5.05799 21.1126 4.86896 21.067 4.67992 21.0213C4.46321 21.026 4.24654 21.0701 4.02984 20.9992C3.86385 20.9441 3.65637 20.9047 3.46733 20.8591C3.61027 20.7394 3.87773 20.648 4.08522 20.5425C4.27426 20.4465 4.27877 20.448 4.78596 20.374C5.02572 20.3394 5.10872 20.1614 4.90584 20.1094C4.66147 20.0464 4.40332 19.9882 4.15434 19.9283C3.93763 19.933 3.71636 19.9756 3.50887 19.9047C3.34749 19.8512 3.16302 19.8149 2.8956 19.8354C2.44374 19.8701 1.98267 19.8874 1.5262 19.9157C1.36944 19.9252 1.19879 19.9189 1.12962 19.8653C1.08352 19.8275 1.21724 19.7756 1.36939 19.7646C1.59993 19.7488 1.8074 19.7299 1.92267 19.6512C2.03333 19.5724 2.23618 19.5488 2.47594 19.5378C2.54049 19.5346 2.61432 19.5157 2.6466 19.4968C2.81258 19.4055 2.99703 19.3267 3.35206 19.3299C3.49961 19.2984 3.57794 19.259 3.53183 19.2212C3.50417 19.2007 3.40739 19.174 3.35206 19.1771C2.96937 19.1929 2.58668 19.2086 2.21321 19.237C2.038 19.2496 1.90421 19.2527 1.79355 19.2055C1.71517 19.174 1.75666 19.1314 1.90421 19.0858C2.03331 19.0464 2.07024 19.0007 2.06101 18.9472C2.03796 18.8228 1.89961 18.7866 1.45697 18.7944C1.13883 18.8007 1.06044 18.7803 0.991277 18.6732C0.972834 18.648 0.926807 18.6133 0.959083 18.596C1.15735 18.4889 1.28646 18.3566 1.65993 18.3062C1.80748 18.2873 1.96418 18.2873 2.0564 18.2464C2.14862 18.2054 2.23165 18.1582 2.32848 18.1188C2.44836 18.0716 2.53127 18.0275 2.47594 17.9976C2.38373 17.944 2.23623 17.9393 2.06563 17.9582C1.91808 17.9739 1.76132 17.9755 1.60917 17.985C1.33713 18.0023 1.11586 17.9613 1.08358 17.892C0.995978 17.7094 0.903735 17.5283 0.825351 17.3456C0.81613 17.3235 0.839121 17.2952 0.876007 17.2763C1.00511 17.2101 1.14349 17.1471 1.2772 17.0826C1.43397 17.0085 1.68299 17.0227 1.89509 17.0085C2.19479 16.9881 2.19469 16.9896 2.59583 16.8385C2.75259 16.7786 3.02465 16.8022 3.18602 16.7487C3.23674 16.7314 3.31513 16.703 3.30129 16.6873C3.28285 16.6668 3.19068 16.651 3.12152 16.6416C3.05697 16.6321 2.9786 16.6274 2.90944 16.6322C2.07028 16.6778 1.23574 16.7266 0.396578 16.7707C0.253644 16.7786 0.0968719 16.744 0.046153 16.6952C-0.00456577 16.6495 0.0092216 16.5943 0 16.5424C0.133713 16.4778 0.285811 16.418 0.401081 16.3487C0.488686 16.2951 0.590142 16.2715 0.765352 16.2684C0.995893 16.2636 1.22184 16.2447 1.48005 16.2306C1.95957 16.0006 2.42984 15.7597 2.94625 15.5298C3.15374 15.4368 3.1031 15.3423 3.1446 15.2431C3.1861 15.1518 3.495 15.166 3.70249 15.1392C3.86848 15.1171 3.92373 15.0667 3.85918 15.0321C3.8223 15.0116 3.73935 14.988 3.6748 14.988C3.52264 14.988 3.37049 15.0022 3.21833 15.01C3.06617 15.0179 2.89097 15.0132 2.76648 15.04C2.6466 15.0652 2.56817 15.1187 2.48979 15.1644C2.40218 15.2148 2.28699 15.2321 2.11178 15.2353C1.88585 15.2384 1.65994 15.2526 1.43401 15.2636C1.18503 15.2022 0.926767 15.1423 0.687005 15.0778C0.640897 15.0652 0.631626 15.029 0.636237 15.0053C0.645458 14.9439 0.576314 14.9061 0.424158 14.8762C0.295055 14.851 0.188998 14.8148 0.069117 14.7833C0.161333 14.7408 0.262807 14.6998 0.33658 14.6541C0.497958 14.5581 0.700855 14.4888 1.05128 14.4919C1.1896 14.4305 1.30023 14.3549 1.48005 14.3124C1.65065 14.2714 1.94114 14.3124 2.07025 14.2195C2.1348 14.1738 2.23168 14.1218 2.35617 14.1029C2.55443 14.073 2.81263 14.0888 2.9279 14.0006C2.99707 13.9502 3.09846 13.9045 3.23218 13.8919C3.38433 13.8777 3.54106 13.8746 3.65172 13.8447C3.71166 13.8289 3.77622 13.8037 3.77622 13.7817C3.77622 13.7675 3.68408 13.7454 3.61952 13.736C3.55958 13.725 3.48111 13.7171 3.41195 13.7202C3.18141 13.7297 2.95548 13.747 2.72494 13.7565C2.66039 13.7596 2.58664 13.7486 2.51748 13.7391C2.3146 13.7139 2.32841 13.6824 2.48979 13.6258C2.65117 13.5706 2.7665 13.4998 2.90021 13.4352C3.04776 13.4242 3.23216 13.4289 3.3336 13.399C3.5042 13.3501 3.62405 13.2793 3.76237 13.2179C3.91453 13.2084 4.07129 13.2053 4.21422 13.1879C4.27416 13.1816 4.30185 13.147 4.35257 13.1265C4.44479 13.0871 4.52323 13.0305 4.64772 13.0116C4.8506 12.9832 5.09958 12.9942 5.21946 12.9076C5.28862 12.8572 5.39463 12.8037 5.52373 12.8005C5.88337 12.7942 6.03553 12.7076 6.21997 12.6257C6.35829 12.5643 6.65339 12.5958 6.80555 12.5344C6.90698 12.495 6.9808 12.4462 7.08224 12.4084C7.12374 12.3926 7.21131 12.3848 7.28047 12.38C7.65856 12.3564 8.04124 12.3391 8.41933 12.3139C8.47927 12.3092 8.53464 12.2855 8.58075 12.2667C8.67758 12.2257 8.73745 12.169 8.85733 12.1422C8.97721 12.1155 9.14779 12.1155 9.29533 12.1076C9.77025 12.084 9.80717 12.0903 10.0239 11.9564C10.1991 11.8477 10.6279 11.9249 10.7709 11.8052C10.8539 11.7359 11.006 11.6792 11.278 11.6713C11.6607 11.6603 12.0388 11.6304 12.4215 11.6099C12.7627 11.591 12.7581 11.591 13.1269 11.4446C13.2929 11.3784 13.5373 11.3879 13.7541 11.3753C13.9846 11.3627 14.1967 11.3438 14.3073 11.265C14.418 11.1879 14.6208 11.1627 14.856 11.1516C15.0727 11.1406 15.3171 11.1485 15.4877 11.0855C15.9027 10.9343 15.8981 10.9327 16.1886 10.917C16.645 10.8918 17.1015 10.8666 17.558 10.8398C17.8623 10.8225 18.1804 10.8193 18.4663 10.7847C18.6738 10.7595 18.766 10.6713 18.8997 10.6099C19.2778 10.5863 19.6558 10.5626 20.0339 10.5406C20.5642 10.5091 21.099 10.4808 21.6338 10.4508C21.8644 10.391 21.8967 10.2587 22.284 10.2524C22.5146 10.2492 22.7405 10.2288 22.971 10.2162C23.3537 10.1941 23.7318 10.1658 24.1145 10.1548C24.405 10.1469 24.4556 10.0618 24.6078 10.0083C24.6585 9.98939 24.7047 9.96263 24.7646 9.9579C25.364 9.91381 25.9818 9.90436 26.5674 9.83979C26.6273 9.83349 26.6827 9.80041 26.6965 9.77679C26.7057 9.76419 26.6273 9.74058 26.5766 9.72956C26.5167 9.71696 26.4383 9.70436 26.3738 9.70751C24.4695 9.81302 22.5653 9.92011 20.661 10.0256C20.3936 10.0414 20.3936 10.0398 19.7435 10.213C19.6882 10.2272 19.6235 10.2429 19.5544 10.2477C19.2501 10.2666 18.9411 10.2776 18.6414 10.3012C18.3971 10.3201 18.1943 10.3012 18.019 10.2445C17.8946 10.2036 17.7654 10.191 17.6086 10.1941C17.4334 10.1989 17.3182 10.2162 17.2168 10.2587C17.0831 10.317 17.0139 10.3926 16.7326 10.4083C15.437 10.476 14.1413 10.5516 12.8502 10.6241C12.6704 10.602 12.5828 10.5689 12.6289 10.5296C12.6566 10.506 12.712 10.4745 12.7673 10.4713C13.2975 10.4382 13.8324 10.4099 14.3626 10.3784C14.4364 10.3737 14.5378 10.3768 14.5793 10.3611C14.7822 10.2902 14.856 10.1752 15.2387 10.1674C15.46 10.1626 15.6859 10.139 15.898 10.117C15.958 10.1107 16.0133 10.0776 16.0271 10.054C16.0318 10.0414 15.958 10.0177 15.9026 10.0067C15.6998 9.96104 15.4647 10.0162 15.2618 9.98468C15.1926 9.97366 15.0957 9.9579 15.0819 9.939C15.0727 9.92168 15.1511 9.89333 15.2064 9.87601C15.2571 9.86026 15.3263 9.84609 15.3954 9.84136C16.004 9.80514 16.6128 9.76734 17.2214 9.73899C17.4704 9.72797 17.6455 9.68859 17.7562 9.61615C17.8392 9.56261 17.9406 9.53427 18.0974 9.52639C19.1625 9.46812 20.2276 9.40355 21.2973 9.35001C21.5647 9.33741 21.7031 9.28545 21.8137 9.21773C21.9013 9.16418 22.0028 9.14528 22.1734 9.13583C23.6996 9.05394 25.2165 8.9626 26.7426 8.88386C27.0239 8.86968 27.1069 8.80196 27.2499 8.74369C27.3006 8.72322 27.3328 8.69802 27.3973 8.68542C27.4619 8.67282 27.5449 8.67439 27.6233 8.67124C28.8405 8.60352 30.0579 8.53109 31.2797 8.46809C31.5656 8.45392 31.6208 8.37516 31.7684 8.32005C31.8191 8.30272 31.8652 8.27438 31.9252 8.26966C32.8381 8.21611 33.751 8.16572 34.664 8.11375C35.2726 8.0791 35.8812 8.04445 36.4898 8.01138C36.7895 7.99563 36.7895 7.99405 37.1953 7.84443C37.2414 7.82711 37.306 7.80663 37.366 7.80191C39.1181 7.70112 40.8655 7.60507 42.6176 7.50586C42.7652 7.49798 42.8712 7.46174 42.945 7.4082C43.0187 7.35465 43.1249 7.31843 43.2678 7.31056C44.6372 7.23181 46.0066 7.15465 47.3806 7.08063C47.6296 7.06803 47.8048 7.03023 47.9154 6.95936C47.9984 6.90582 48.0998 6.87748 48.2566 6.86961C49.626 6.79401 50.9955 6.71368 52.3695 6.64124C52.6323 6.62707 52.7614 6.57353 52.8905 6.51053C52.9366 6.48849 52.9735 6.45226 53.0288 6.44911C53.7112 6.40502 54.389 6.35934 55.076 6.32942C55.3619 6.31682 55.4587 6.25067 55.574 6.18768C55.6662 6.13728 55.7723 6.11997 55.9475 6.11367C56.3302 6.09949 56.7083 6.07273 57.0817 6.04596C57.1371 6.04123 57.2062 6.00658 57.2109 5.98454C57.2201 5.94359 57.114 5.91524 56.9388 5.90106C55.1129 6.00343 53.2825 6.10579 51.4566 6.20815C51.1569 6.22548 51.1569 6.22549 50.7511 6.3751C50.705 6.39242 50.6404 6.4129 50.5759 6.41762C48.8237 6.51684 47.0763 6.61448 45.3242 6.7137C45.1767 6.72157 45.0706 6.75779 44.9968 6.81134C44.9231 6.86488 44.8169 6.9011 44.674 6.90898C43.0003 7.00347 41.3266 7.09954 39.6483 7.18931C39.3993 7.20191 39.2241 7.23811 39.1135 7.31056C39.0305 7.3641 38.929 7.39246 38.7723 7.40033C37.1723 7.48852 35.5769 7.58143 33.9724 7.66647C33.811 7.67435 33.6912 7.62868 33.7004 7.58616C33.705 7.56411 33.7741 7.5279 33.8294 7.52475C34.6639 7.47278 35.494 7.41923 36.3331 7.37986C36.6144 7.36726 36.6973 7.29796 36.8403 7.23969C36.8864 7.21922 36.9233 7.19245 36.9832 7.18143C37.0478 7.16883 37.1308 7.17041 37.2091 7.16726C39.1872 7.05544 41.1653 6.94206 43.1479 6.83654C43.4338 6.82079 43.489 6.74361 43.6366 6.68849C43.6873 6.6696 43.7334 6.64126 43.7934 6.63811C44.402 6.60031 45.0106 6.56723 45.6192 6.53416C46.6843 6.47432 47.7494 6.41447 48.8191 6.35462C49.128 6.3373 49.128 6.33729 49.5246 6.18926C49.5707 6.17193 49.6353 6.1499 49.6952 6.14675C52.5124 5.98769 55.3297 5.82863 58.1469 5.67114C58.2944 5.66327 58.4004 5.62705 58.4742 5.5735C58.548 5.52153 58.654 5.48373 58.7969 5.47428C62.6055 5.2601 66.4094 5.04591 70.2179 4.83488C70.4669 4.82071 70.6421 4.78763 70.7527 4.71361C70.8311 4.66007 70.9371 4.63173 71.0939 4.62228C75.2805 4.38763 79.4671 4.15297 83.6584 3.91675C86.4756 3.75926 89.2928 3.59862 92.11 3.44429C92.3682 3.43011 92.5065 3.38128 92.6356 3.31672C92.6771 3.29467 92.7186 3.25844 92.7739 3.25529C93.3779 3.21592 93.9819 3.17971 94.5859 3.14348C94.775 3.18601 94.964 3.22696 95.153 3.26948C95.296 3.20964 95.4344 3.14821 95.5773 3.08837C96.4903 3.0427 97.3893 2.97183 98.3115 2.94978C98.3714 2.94821 98.4359 2.97813 98.5005 2.99388C98.9293 3.0931 99.1737 3.08522 99.4457 2.95293C99.5426 2.90569 99.6255 2.86317 99.7731 2.85529C100.23 2.82695 100.691 2.80805 101.143 2.77497C101.387 2.75765 101.59 2.77339 101.765 2.83009C101.889 2.87104 102.019 2.88837 102.171 2.87892C103.01 2.83167 103.844 2.786 104.684 2.7356C104.744 2.73245 104.799 2.70567 104.845 2.68677C104.942 2.64583 105.025 2.60174 105.117 2.55922C105.242 2.58599 105.38 2.60647 105.481 2.64111C105.61 2.68206 105.73 2.68205 105.905 2.67103C109.253 2.48047 112.605 2.29464 115.952 2.10251C116.238 2.08676 116.363 2.15291 116.556 2.18755C116.621 2.20015 116.686 2.21589 116.755 2.21904C116.828 2.22219 116.907 2.21275 116.981 2.20803C119.494 2.06629 122.006 1.92612 124.519 1.78438C124.851 1.76548 124.851 1.76548 125.345 1.86312C125.405 1.87572 125.483 1.8899 125.548 1.88517C126.691 1.82375 127.834 1.75762 128.973 1.69462C129.121 1.68675 129.245 1.71194 129.379 1.74816C129.642 1.81903 129.66 1.81904 129.854 1.7151C129.946 1.66628 130.043 1.63634 130.195 1.62217C130.361 1.60642 130.495 1.61116 130.624 1.63951C130.808 1.67888 130.942 1.74501 131.223 1.72769C132.441 1.65367 133.663 1.59226 134.875 1.51666C135.152 1.49934 135.299 1.55288 135.484 1.59225C135.548 1.60643 135.608 1.62848 135.677 1.6332C135.747 1.63793 135.83 1.62689 135.903 1.62217C137.425 1.53712 138.951 1.45367 140.468 1.36233C140.754 1.34501 140.878 1.41271 141.072 1.44736C141.137 1.45996 141.21 1.48202 141.27 1.47887C142.183 1.43005 143.101 1.37806 144.014 1.32609C144.341 1.30719 144.341 1.30877 144.839 1.40483C144.899 1.41743 144.977 1.43003 145.042 1.42688C146.107 1.36862 147.177 1.30877 148.242 1.24892C148.569 1.23003 148.569 1.23003 149.514 1.31192C149.584 1.31822 149.657 1.32768 149.727 1.32453C150.944 1.25682 152.166 1.19066 153.383 1.11822C153.627 1.10404 153.83 1.11664 154.005 1.17333C154.13 1.21428 154.259 1.23161 154.411 1.22216C155.78 1.145 157.155 1.07098 158.519 0.989089C158.782 0.97334 158.953 1.00797 159.137 1.05364C159.197 1.06939 159.257 1.09145 159.326 1.09774C159.395 1.10404 159.474 1.09774 159.548 1.09302C160.917 1.01585 162.291 0.943407 163.656 0.859939C163.932 0.842616 164.08 0.896158 164.264 0.93553C164.329 0.949703 164.398 0.978052 164.453 0.976478C164.988 0.949705 165.523 0.92609 166.053 0.886719C166.339 0.864671 166.464 0.937101 166.657 0.971748C166.722 0.982772 166.796 1.00641 166.856 1.00326C167.999 0.941838 169.143 0.877273 170.282 0.811129C170.443 0.80168 170.563 0.81584 170.692 0.856787C170.862 0.911907 171.061 0.933956 171.31 0.916632C171.84 0.88041 172.375 0.85522 172.91 0.825297C173.223 0.807974 173.223 0.807979 174.182 0.889872C174.251 0.896171 174.325 0.905613 174.394 0.902464C175.307 0.852068 176.225 0.803251 177.133 0.748131C177.377 0.732382 177.58 0.746552 177.756 0.803247C177.88 0.844193 178.005 0.861526 178.161 0.852077C179 0.804831 179.835 0.757581 180.674 0.710336C180.979 0.693012 181.283 0.663082 181.587 0.663082C181.809 0.664657 181.97 0.740247 182.168 0.778044C182.224 0.789068 182.316 0.776483 182.389 0.773334C183.455 0.713489 184.524 0.658364 185.585 0.590645C185.861 0.573321 186.009 0.626863 186.193 0.666235C186.258 0.680409 186.327 0.708758 186.382 0.707183C186.765 0.689859 187.143 0.666234 187.526 0.645761C187.982 0.620563 188.443 0.601665 188.895 0.567018C189.264 0.538671 189.402 0.675679 189.698 0.680403C189.923 0.685128 190.154 0.65836 190.38 0.645761C190.836 0.620563 191.293 0.592219 191.749 0.570171C191.911 0.562297 192.035 0.537088 192.086 0.480393C192.095 0.469369 192.017 0.445756 191.966 0.431582C191.353 0.270947 191.353 0.270939 190.735 0.305586C190.352 0.327634 189.974 0.349686 189.592 0.368584C189.527 0.371734 189.453 0.359136 189.389 0.349687C189.204 0.322914 189.223 0.29142 189.379 0.234725C189.536 0.17803 189.656 0.108743 189.79 0.0441733C189.979 0.0851196 190.163 0.126051 190.352 0.166998C190.505 0.159123 190.657 0.149688 190.809 0.141814C191.57 0.100867 192.33 0.0583432 193.091 0.0205466C193.146 0.0173969 193.216 0.0488987 193.28 0.0646473C193.465 0.110318 193.631 0.149679 193.898 0.132355C194.58 0.0866845 195.267 0.0536125 195.95 0.014241C196.25 -0.00308244 196.25 -0.0030809 196.775 0.0945604C196.835 0.105584 196.913 0.118184 196.978 0.115034C197.665 0.0788125 198.347 0.0394457 199.034 0.00164906C199.182 -0.00622524 199.325 0.0142472 199.431 0.0599181C199.473 0.0788164 199.463 0.110307 199.638 0.368584C200.183 0.57804 200.556 0.556003 200.934 0.537105C201.096 0.529231 201.238 0.521349 201.344 0.489851C201.4 0.472528 201.469 0.447326 201.469 0.426853C201.469 0.411105 201.368 0.385902 201.303 0.382753C200.847 0.351255 200.413 0.417409 199.966 0.431582C199.758 0.437882 199.579 0.382761 199.542 0.292994C199.532 0.267796 199.519 0.241025 199.505 0.215828C199.491 0.19063 199.482 0.163859 199.468 0.138661C199.288 0.130787 199.182 0.15913 199.104 0.212675C199.039 0.256771 198.947 0.307166 198.822 0.330789C198.698 0.355987 198.527 0.351271 198.375 0.359145C198.228 0.367019 198.066 0.38749 197.928 0.376466C197.79 0.363867 197.679 0.318189 197.55 0.289841C197.49 0.275668 197.416 0.255202 197.356 0.258352C196.826 0.285124 196.3 0.311887 195.775 0.346534C195.498 0.365432 195.36 0.299298 195.184 0.258352C195.046 0.226855 194.908 0.234719 194.885 0.307162C194.825 0.480397 195.037 0.552837 195.507 0.519765C195.895 0.491417 196.245 0.486707 196.549 0.593798C196.591 0.607971 196.688 0.614268 196.747 0.611119C197.126 0.59222 197.499 0.568595 197.877 0.549697C197.946 0.546547 198.02 0.552837 198.085 0.559136C199.025 0.644178 199.025 0.645762 199.343 0.626863C199.496 0.617414 199.643 0.609539 199.629 0.370161C199.92 0.113459 200.381 0.0961383 200.828 0.0583417C201.119 0.0347188 201.243 0.104016 201.432 0.140237C201.497 0.152836 201.566 0.178029 201.626 0.17488C202.617 0.122909 203.604 0.0677816 204.59 0.00951182C204.756 6.26634e-05 204.876 0.00951335 205.005 0.0504597C205.171 0.10243 205.356 0.135509 205.619 0.116611C206.144 0.0788141 206.679 0.0551966 207.214 0.0236994C207.486 0.0079508 207.486 0.00793465 208.035 0.105576C208.095 0.1166 208.173 0.1292 208.238 0.12605C208.772 0.0992772 209.303 0.0662152 209.833 0.0378677C209.981 0.0299934 210.114 0.0520392 210.229 0.0945604C210.345 0.137082 210.483 0.159127 210.626 0.151253C211.161 0.122906 211.691 0.0914183 212.221 0.0630709C212.286 0.0599211 212.364 0.0709444 212.424 0.0819684C212.987 0.17961 212.987 0.179593 213.245 0.163845C213.623 0.140222 214.01 0.12921 214.384 0.0977131C214.748 0.066216 214.937 0.15755 215.186 0.207946C215.868 0.171724 216.555 0.141809 217.233 0.0977131C217.51 0.0788148 217.657 0.130781 217.842 0.171727C217.906 0.185901 217.971 0.215826 218.031 0.214251C218.261 0.207952 218.487 0.190631 218.713 0.178032C218.939 0.165434 219.17 0.152836 219.396 0.140237C219.654 0.185908 219.825 0.292997 220.193 0.256775C220.415 0.234727 220.65 0.230003 220.876 0.217404C221.102 0.204805 221.332 0.192208 221.558 0.179609C221.71 0.171735 221.867 0.167003 222.015 0.152829C222.287 0.129206 222.42 0.206384 222.614 0.241031C222.679 0.252055 222.752 0.270941 222.812 0.267791C223.269 0.245743 223.73 0.226846 224.177 0.190624C224.523 0.162277 224.758 0.209529 225.002 0.275673C225.053 0.289847 225.141 0.29772 225.205 0.294571C225.74 0.267798 226.27 0.234717 226.801 0.206369C226.944 0.198495 227.082 0.223692 227.197 0.264638C227.317 0.307159 227.451 0.327648 227.598 0.319774C228.129 0.291426 228.664 0.25992 229.194 0.231572C229.258 0.228423 229.337 0.241024 229.397 0.253623C229.913 0.351264 229.913 0.35284 230.217 0.333942C230.291 0.329217 230.369 0.326055 230.443 0.321331C230.821 0.299283 231.213 0.291419 231.582 0.253623C232.006 0.211101 232.315 0.264649 232.615 0.354416C232.993 0.335518 233.38 0.324491 233.749 0.292994C234.026 0.269371 234.173 0.329213 234.358 0.368584C234.422 0.382758 234.492 0.411105 234.547 0.407956C235.082 0.381183 235.617 0.357569 236.142 0.318197C236.428 0.296149 236.553 0.367005 236.746 0.403227C236.811 0.415825 236.88 0.437885 236.94 0.434735C237.244 0.422136 237.549 0.403229 237.853 0.385905C238.208 0.365432 238.208 0.367006 238.678 0.463072C238.899 0.508743 239.121 0.47252 239.338 0.461496C239.568 0.448897 239.785 0.439451 239.969 0.50402C240.084 0.544966 240.223 0.570165 240.366 0.563865C240.67 0.549691 240.979 0.535525 241.279 0.511902C241.518 0.493003 241.726 0.505595 241.901 0.563865C242.026 0.604812 242.155 0.625297 242.307 0.615848C242.989 0.578051 243.676 0.538665 244.359 0.502443C244.419 0.499294 244.502 0.513473 244.557 0.527647C244.686 0.555994 244.81 0.587484 244.935 0.618981C245.235 0.604808 245.544 0.598524 245.839 0.576476C246.152 0.554428 246.438 0.546552 246.682 0.633169C246.733 0.652067 246.807 0.678825 246.867 0.67725C247.097 0.670951 247.323 0.655207 247.549 0.642608C247.775 0.630009 248.006 0.617412 248.232 0.604813C248.494 0.644185 248.661 0.757573 249.029 0.721351C249.251 0.699303 249.486 0.694579 249.712 0.68198C249.938 0.669381 250.168 0.655209 250.394 0.644185C250.468 0.641035 250.551 0.633156 250.616 0.639455C250.685 0.645755 250.745 0.667807 250.805 0.683556C250.989 0.729227 251.16 0.774903 251.422 0.748131C251.644 0.726083 251.879 0.721357 252.105 0.707183C252.414 0.689859 252.414 0.689862 252.926 0.789079C253.133 0.830025 253.368 0.776482 253.566 0.811129C253.7 0.834752 253.815 0.874115 253.945 0.900887C254 0.911911 254.087 0.916629 254.152 0.913479C254.456 0.899306 254.765 0.885139 255.065 0.861516C255.309 0.842618 255.512 0.861514 255.683 0.918208C255.807 0.959155 255.932 0.976488 256.088 0.967038C256.849 0.922942 257.61 0.885133 258.366 0.836313C258.625 0.818989 258.832 0.845769 258.975 0.902464C259.219 1.00011 259.565 0.885143 259.819 0.963886C259.975 1.01271 260.132 1.0694 260.418 1.04578C260.944 1.00484 261.479 0.982775 262.009 0.954427C262.198 0.996948 262.387 1.03948 262.581 1.082C262.885 1.06468 263.189 1.04734 263.493 1.03159C263.719 1.01899 263.95 1.00482 264.176 0.993799C264.25 0.990649 264.328 0.984348 264.397 0.992222C264.466 1.0001 264.522 1.02057 264.586 1.03632C264.904 1.11349 264.904 1.11507 265.43 1.08358C265.656 1.0694 265.873 1.05995 266.062 1.12295C266.237 1.18122 266.444 1.19223 266.684 1.17491C267.136 1.14341 267.593 1.11979 268.054 1.09774C268.197 1.08987 268.33 1.11664 268.45 1.15759C268.63 1.22216 268.851 1.21586 269.077 1.19854C269.377 1.17649 269.672 1.15445 269.926 1.24264C269.976 1.26154 270.055 1.28829 270.11 1.28672C270.488 1.27412 270.871 1.26468 271.24 1.23476C271.608 1.20483 271.788 1.30247 272.042 1.34972C272.42 1.32925 272.803 1.30877 273.181 1.2883C273.255 1.28357 273.342 1.26941 273.407 1.27728C273.679 1.31035 273.835 1.42846 274.209 1.39224C274.426 1.37177 274.661 1.36548 274.887 1.36075C274.947 1.35918 275.025 1.38594 275.067 1.40641C275.09 1.41743 275.067 1.44735 275.039 1.4631C274.956 1.5072 274.854 1.54816 274.781 1.59383C274.771 1.60013 274.859 1.62846 274.91 1.64106C275.034 1.66941 275.177 1.6647 275.343 1.6521C275.486 1.64107 275.634 1.66312 275.735 1.71037C275.777 1.72927 275.763 1.76076 275.675 1.8647C275.675 1.94187 275.772 1.90721 275.804 1.85682C275.855 1.78437 275.758 1.76075 275.574 1.80013C275.445 1.82847 275.38 1.86942 275.412 1.9025C275.431 1.91982 275.518 1.94187 275.675 1.8647C276.081 1.77021 276.385 1.75289 276.69 1.73557C276.768 1.73085 276.86 1.71509 276.916 1.72454C277.114 1.76233 277.298 1.80801 277.492 1.85053C277.713 1.84108 277.921 1.81745 278.137 1.87887C278.442 1.96549 278.456 1.95761 278.751 1.94029C278.903 1.93084 279.055 1.92298 279.207 1.91511C279.359 1.90723 279.479 1.93085 279.613 1.96707C279.885 2.04109 279.908 2.04108 280.088 1.94029C280.194 1.87887 280.268 1.8584 280.401 1.88675C280.844 1.98282 280.848 1.98911 281.227 1.96076C281.54 1.93714 281.835 1.93084 282.066 2.02061C282.223 2.0836 282.273 2.06943 282.398 2.00329C282.73 1.82848 282.882 1.83162 283.504 1.95761C283.795 2.01746 284.095 1.95289 284.39 1.94502C284.639 1.93872 284.814 1.97651 284.832 2.07573C284.846 2.13715 284.888 2.18125 285.054 2.20172C285.118 2.2096 285.196 2.22062 285.261 2.21747C285.644 2.19857 286.022 2.17652 286.405 2.15447C286.598 2.14344 286.704 2.06944 286.667 1.9718C286.626 1.86786 286.7 1.83005 286.976 1.80013C287.142 1.7828 287.276 1.78597 287.41 1.81431C287.557 1.84581 287.516 1.87416 287.387 1.93085C287.078 2.06944 287.115 2.15447 287.511 2.25053C287.649 2.28361 287.76 2.31354 287.792 2.36236C287.811 2.38756 287.792 2.42063 287.834 2.43953C288.06 2.54504 288.373 2.61277 288.724 2.66316C289.06 2.62064 289.291 2.6915 289.549 2.74819C289.752 2.79229 289.992 2.7545 290.208 2.73875C290.453 2.72143 290.656 2.73402 290.831 2.79229C290.955 2.83324 291.084 2.85213 291.237 2.84426C291.541 2.82693 291.85 2.81592 292.15 2.79072C292.408 2.76867 292.601 2.80017 292.763 2.85372C292.966 2.92144 293.192 2.87576 293.404 2.88521C293.69 2.89623 293.833 3.03639 294.206 2.99859C294.427 2.97654 294.658 2.96867 294.888 2.96237C294.948 2.9608 295.022 2.98757 295.073 3.00647C295.317 3.09309 295.603 3.08836 295.917 3.06317C296.133 3.04584 296.345 3.0301 296.557 3.08995C296.908 3.19074 297.295 3.27893 297.664 3.37185C297.715 3.44429 297.678 3.52932 297.941 3.57184C298.079 3.59389 298.208 3.62697 298.314 3.6632C298.443 3.70572 298.563 3.71674 298.729 3.70572C299.029 3.68367 299.342 3.67893 299.638 3.65058C299.91 3.62539 300.08 3.67737 300.246 3.72619C300.38 3.76557 300.504 3.78445 300.666 3.75611C300.832 3.72933 300.952 3.74665 301.085 3.78917C301.274 3.84744 301.288 3.84115 301.915 3.85848C301.98 3.86005 302.058 3.88366 302.095 3.90413C302.113 3.91516 302.072 3.94667 302.04 3.96242C301.998 3.98132 301.934 4.00336 301.874 4.00808C301.191 4.04903 300.504 4.08525 299.822 4.1262C299.753 4.13092 299.679 4.14196 299.628 4.1577C299.573 4.17503 299.504 4.19864 299.504 4.22068C299.504 4.23643 299.596 4.25534 299.661 4.26636C299.863 4.30258 300.103 4.24746 300.302 4.28841C300.435 4.31518 300.546 4.35297 300.68 4.37817C300.735 4.38919 300.823 4.38762 300.892 4.38447C301.122 4.37345 301.348 4.35771 301.579 4.34826C301.643 4.34668 301.717 4.36244 301.777 4.37504C302.22 4.46953 302.22 4.46952 302.602 4.44905C302.754 4.44117 302.916 4.41755 303.059 4.427C303.197 4.43645 303.317 4.47897 303.441 4.50574C303.7 4.56244 303.944 4.61756 303.962 4.74039C303.972 4.78764 304.124 4.82858 304.276 4.83173C304.424 4.83488 304.58 4.81757 304.732 4.80812C305.092 4.78922 305.092 4.78922 305.558 4.88529C305.687 4.91206 305.825 4.91521 305.991 4.89946C306.056 4.89316 306.134 4.89946 306.203 4.90734C306.429 4.93096 306.429 4.96088 306.282 5.01757C306.074 5.10104 306.093 5.10892 306.674 5.17979C306.895 5.20656 307.065 5.25696 307.25 5.30105C307.55 5.37192 307.545 5.37191 307.347 5.46483C307.301 5.4853 307.259 5.50735 307.213 5.5294C307.079 5.59082 306.973 5.65696 306.697 5.66326C306.392 5.66956 306.088 5.69477 305.784 5.71209C305.489 5.72941 305.41 5.76719 305.438 5.87428C305.47 6.00342 305.53 6.0176 306.06 6.01603C306.213 6.01603 306.346 6.02862 306.461 6.07114C306.406 6.12154 306.305 6.16091 306.157 6.17036C305.779 6.19398 305.396 6.21446 305.018 6.23493C304.714 6.25226 304.41 6.26957 304.105 6.2869C303.916 6.29792 303.796 6.37982 303.847 6.47116C303.875 6.52313 303.898 6.5751 303.921 6.62707C303.972 6.73101 304.068 6.75779 304.377 6.75307C304.456 6.75149 304.53 6.73888 304.603 6.74203C304.903 6.75306 305.046 6.88377 305.406 6.857C305.705 6.83495 306.019 6.83023 306.314 6.80188C306.586 6.77668 306.738 6.83339 306.927 6.87591C306.992 6.89009 307.061 6.91999 307.116 6.91842C307.499 6.90109 307.882 6.88378 308.255 6.85386C308.43 6.84126 308.536 6.85071 308.675 6.8885C309.007 6.97985 309.016 6.97512 309.509 6.94677C309.869 6.92473 309.874 6.92787 310.335 7.02394C310.464 7.05071 310.602 7.05071 310.768 7.03811C310.985 7.02236 311.211 6.99716 311.437 7.02079C311.506 7.02709 311.593 7.04599 311.616 7.06646C311.63 7.08064 311.566 7.11528 311.51 7.12631C311.105 7.2082 310.63 7.19403 310.187 7.2271C310.049 7.23655 309.91 7.20663 309.795 7.1641C309.675 7.12158 309.546 7.10427 309.389 7.11214C309.085 7.12946 308.776 7.14048 308.476 7.16568C308.218 7.18773 308.038 7.1515 307.859 7.10268C307.799 7.08693 307.729 7.05701 307.67 7.05858C306.987 7.09008 306.3 7.12158 305.622 7.16568C305.35 7.18458 305.194 7.13419 305.009 7.09167C304.945 7.07749 304.88 7.04757 304.82 7.04914C304.59 7.05544 304.364 7.07276 304.133 7.08536C303.294 7.13261 302.459 7.17985 301.62 7.22395C301.565 7.2271 301.496 7.19402 301.431 7.17985C301.307 7.1515 301.178 7.12473 301.048 7.09795C300.818 7.11055 300.592 7.1263 300.361 7.13575C300.195 7.14205 300.048 7.1641 300.025 7.22395C300.011 7.26332 300.163 7.29954 300.325 7.29639C300.481 7.29324 300.638 7.27434 300.767 7.29481C301.408 7.3956 301.408 7.39718 301.809 7.37671C302.16 7.35781 302.123 7.34205 302.432 7.42867C302.565 7.46647 302.685 7.48852 302.837 7.47908C303.216 7.45703 303.598 7.43498 303.981 7.41608C304.041 7.41293 304.119 7.42868 304.179 7.44128C304.631 7.53577 304.631 7.53892 305.005 7.51529C305.493 7.48695 305.512 7.47907 305.839 7.57514C306.065 7.64128 306.272 7.59561 306.489 7.59246C306.738 7.65388 307.01 7.70901 307.236 7.7783C307.504 7.8602 307.785 7.84601 308.089 7.82238C308.315 7.80506 308.536 7.79876 308.721 7.86333C308.896 7.92318 309.108 7.92949 309.348 7.91374C309.565 7.89956 309.786 7.86963 310.012 7.90428C310.072 7.91373 310.164 7.93736 310.159 7.95153C310.155 7.97358 310.095 8.00508 310.035 8.01453C309.611 8.0791 309.145 8.07752 308.698 8.10744C308.638 8.11217 308.559 8.09484 308.5 8.08224C308.37 8.05389 308.246 8.02083 308.121 7.99091C307.895 8.00035 307.665 8.0035 307.444 8.02239C307.273 8.03657 307.144 8.03501 307.019 7.99721C306.904 7.96256 306.78 7.92003 306.641 7.90901C306.503 7.89799 306.342 7.92161 306.19 7.93106C306.037 7.94051 305.862 7.93577 305.742 7.96097C305.622 7.98617 305.549 8.0413 305.47 8.08539C305.383 8.13421 305.263 8.14997 305.087 8.1547C304.926 8.15942 304.797 8.15312 304.677 8.10902C304.626 8.09012 304.557 8.07594 304.488 8.06334C304.423 8.05232 304.35 8.03499 304.29 8.03814C303.603 8.07436 302.92 8.11375 302.233 8.15154C301.892 8.17044 301.897 8.17043 301.187 8.07751C301.122 8.06964 301.044 8.05862 300.979 8.06177C300.597 8.08066 300.219 8.10272 299.836 8.12476C299.449 8.14681 299.453 8.14366 298.794 8.04445C298.674 8.02555 298.499 8.05075 298.356 8.0476C298.056 8.03972 297.909 7.90744 297.558 7.93264C297.258 7.95468 296.945 7.9594 296.645 7.98775C296.373 8.01295 296.216 7.95784 296.032 7.91532C295.967 7.90114 295.898 7.86964 295.843 7.87279C295.156 7.90744 294.473 7.94681 293.56 7.95153C293.335 7.95153 293.436 7.98461 293.584 7.99563C293.796 8.01296 293.865 7.97989 293.75 7.91689C293.667 7.8728 293.547 7.85073 293.45 7.86176C293.399 7.86806 293.335 7.89799 293.56 7.95153C293.8 8.01138 293.786 8.04444 293.828 8.06334C293.929 8.10901 294.072 8.12791 294.22 8.12161C294.45 8.11059 294.676 8.09484 294.907 8.08539C294.971 8.08224 295.05 8.09327 295.11 8.10587C295.617 8.20351 295.622 8.20981 296.161 8.17202C296.332 8.16099 296.456 8.16099 296.59 8.19092C296.774 8.23186 296.908 8.30115 297.189 8.2791C297.563 8.24918 297.945 8.23187 298.328 8.21454C298.388 8.21139 298.453 8.23974 298.522 8.25234C298.711 8.29013 298.849 8.361 299.13 8.33108C299.347 8.30746 299.582 8.30114 299.813 8.29642C299.873 8.29484 299.965 8.32005 299.993 8.34052C300.048 8.37674 299.979 8.41927 299.822 8.44919C299.757 8.46179 299.67 8.45864 299.596 8.46336C299.292 8.48069 298.987 8.49958 298.683 8.51375C298.522 8.52162 298.37 8.54526 298.351 8.60353C298.337 8.6429 298.503 8.67754 298.66 8.67439C298.891 8.66966 299.121 8.65707 299.342 8.63659C299.734 8.60195 300.076 8.61139 300.394 8.71061C300.62 8.7799 300.606 8.75472 300.846 8.95945C300.905 9.01142 301.085 9.01614 301.242 9.01299C301.62 9.00511 301.795 9.02874 301.763 9.07756C301.722 9.13741 301.588 9.15629 301.417 9.16417C301.113 9.17677 300.809 9.19725 300.504 9.21457C300.431 9.2193 300.348 9.22874 300.278 9.22559C300.209 9.22244 300.145 9.20354 300.085 9.18937C299.956 9.15945 299.845 9.11377 299.707 9.10275C299.568 9.09172 299.407 9.11535 299.255 9.1248C299.103 9.13267 298.941 9.15629 298.803 9.14527C298.665 9.13425 298.549 9.08701 298.425 9.05866C298.365 9.04449 298.291 9.02243 298.231 9.024C297.927 9.0366 297.623 9.05708 297.318 9.07283C296.945 9.09331 296.945 9.09331 296.493 8.99567C296.364 8.96732 296.23 8.9689 296.06 8.9815C295.691 9.00669 295.686 9.00196 295.013 8.91062C294.948 8.90117 294.87 8.89015 294.805 8.89487C294.118 8.93109 293.436 8.97046 292.754 9.00826C292.168 9.04133 292.168 9.04134 291.845 9.19883C291.605 9.31537 291.601 9.31536 291.836 9.36891C292.025 9.413 292.196 9.47757 292.403 9.50119C292.597 9.52324 292.837 9.45237 293.049 9.52482C293.155 9.56104 293.293 9.60041 293.427 9.60671C293.639 9.61459 293.865 9.56891 294.068 9.6382C294.169 9.67285 294.321 9.70908 294.45 9.71066C294.676 9.71381 294.907 9.6886 295.133 9.67757C295.202 9.67442 295.28 9.67443 295.345 9.6823C295.414 9.69175 295.474 9.71065 295.534 9.7264C295.718 9.77995 295.917 9.80514 296.156 9.77837C296.548 9.73427 296.899 9.75632 297.203 9.85711C297.245 9.87128 297.346 9.87287 297.411 9.86657C297.577 9.85082 297.719 9.84924 297.844 9.87916C297.895 9.89176 297.968 9.9138 297.959 9.92797C297.945 9.95159 297.89 9.98309 297.83 9.99097C297.397 10.0445 296.931 10.0508 296.484 10.0792C296.424 10.0823 296.35 10.0618 296.29 10.0477C296.161 10.0193 296.05 9.97208 295.912 9.96105C295.774 9.95003 295.612 9.9705 295.46 9.97838C295.308 9.98625 295.147 10.0099 295.008 10.0004C294.87 9.9894 294.741 9.95002 294.63 9.91538C294.501 9.87601 294.377 9.87129 294.206 9.88704C293.985 9.90751 293.754 9.91066 293.528 9.92168C293.404 9.89176 293.279 9.85868 293.15 9.83033C293.09 9.81616 293.016 9.79884 292.952 9.80042C292.648 9.81301 292.343 9.8319 292.039 9.84923C291.735 9.86655 291.735 9.86657 291.218 9.76893C291.158 9.7579 291.08 9.7453 291.015 9.74845C290.633 9.76735 290.255 9.79096 289.872 9.80986C289.724 9.81773 289.591 9.79568 289.471 9.75316C289.355 9.71064 289.217 9.68702 289.074 9.69489C288.466 9.72797 287.857 9.75947 287.248 9.79884C287.004 9.81459 286.796 9.80042 286.63 9.74372C286.437 9.67915 286.22 9.69491 285.994 9.70751C285.482 9.739 285.478 9.73742 285.15 9.6571C285.086 9.64135 285.021 9.61142 284.961 9.613C284.431 9.63662 283.896 9.65867 283.371 9.69647C283.094 9.71694 282.946 9.66183 282.762 9.62088C282.697 9.60671 282.628 9.57678 282.573 9.57993C282.19 9.59726 281.808 9.61301 281.434 9.64451C281.061 9.676 280.918 9.52955 280.636 9.53112C280.254 9.5327 279.876 9.56892 279.498 9.59097C279.193 9.60829 278.889 9.62561 278.585 9.64293C278.28 9.66025 277.976 9.67442 277.672 9.69489C277.51 9.70592 277.39 9.69174 277.257 9.65237C277.086 9.6004 276.883 9.55947 276.699 9.51222C276.418 9.4445 276.418 9.4445 276.076 9.46339C276.003 9.46812 275.924 9.47126 275.85 9.47599C275.293 9.51063 275.293 9.50749 274.582 9.40828C274.55 9.40355 274.467 9.42088 274.435 9.43348C274.338 9.47443 274.251 9.51851 274.163 9.56104C274.038 9.53584 273.886 9.52167 273.803 9.48545C273.568 9.38308 273.199 9.52324 272.959 9.42245C272.872 9.38465 272.72 9.35158 272.581 9.34213C272.438 9.33268 272.277 9.35473 272.129 9.36418C271.747 9.3878 271.747 9.38623 271.419 9.52639C271.253 9.59569 271.014 9.58308 270.797 9.59883C270.571 9.61615 270.354 9.6256 270.165 9.56104C269.995 9.50276 269.787 9.4886 269.543 9.50749C269.243 9.53112 268.934 9.54528 268.63 9.55946C268.565 9.56261 268.487 9.55474 268.422 9.54529C267.717 9.45237 267.717 9.4508 267.376 9.47128C267.224 9.48073 267.067 9.48386 266.919 9.49804C266.67 9.52323 266.481 9.49016 266.301 9.43977C266.242 9.42402 266.172 9.39411 266.112 9.39569C265.808 9.40356 265.508 9.41773 265.209 9.4319C264.978 9.44293 264.748 9.44923 264.526 9.47128C264.157 9.5075 263.978 9.40512 263.724 9.35787C263.346 9.37834 262.963 9.39252 262.585 9.42087C262.41 9.43347 262.295 9.42875 262.161 9.39096C261.99 9.34371 261.834 9.29017 261.557 9.31379C261.188 9.34529 260.801 9.35631 260.423 9.37521C260.169 9.32639 259.985 9.22716 259.62 9.26338C259.399 9.28543 259.164 9.29016 258.938 9.30276C258.634 9.32008 258.329 9.33584 258.025 9.35474C257.698 9.37364 257.702 9.36891 257.2 9.276C256.909 9.22087 256.609 9.28229 256.314 9.29174C256.084 9.29961 255.969 9.37205 256.024 9.46497C256.079 9.55789 255.955 9.63033 255.743 9.64293C255.212 9.67285 254.678 9.70434 254.147 9.73111C254.083 9.73426 254.004 9.72324 253.945 9.71222C253.377 9.613 253.377 9.61459 253.124 9.62876C252.746 9.65238 252.358 9.66497 251.985 9.69489C251.727 9.71537 251.538 9.68231 251.372 9.62876C251.243 9.58782 251.123 9.57837 250.957 9.58781C249.131 9.69333 247.305 9.79097 245.484 9.89963C245.212 9.91538 245.055 9.86972 244.87 9.8272C244.806 9.81302 244.746 9.7831 244.681 9.7831C244.529 9.7831 244.377 9.79727 244.225 9.80672C243.542 9.84452 242.86 9.89018 242.173 9.91853C241.883 9.93113 241.804 10.0036 241.68 10.0634C241.583 10.1091 241.472 10.128 241.302 10.1343C241.136 10.1406 241.016 10.1327 240.887 10.0918C240.721 10.0382 240.532 10.0051 240.274 10.0272C239.974 10.0524 239.669 10.0634 239.36 10.0807C239.204 10.0886 239.084 10.117 239.033 10.1737C239.024 10.1831 239.121 10.2067 239.176 10.2209C239.361 10.2682 239.536 10.3233 239.743 10.3563C239.955 10.3894 240.186 10.3516 240.407 10.3422C240.486 10.339 240.559 10.3296 240.633 10.3311C240.702 10.3327 240.785 10.3406 240.836 10.3548C241.076 10.4256 241.329 10.4745 241.661 10.4319C241.947 10.4524 242.095 10.5831 242.459 10.5485C242.68 10.528 242.911 10.5186 243.141 10.5107C243.201 10.5091 243.266 10.5375 243.33 10.5516C243.515 10.591 243.662 10.654 243.939 10.6272C244.234 10.5989 244.548 10.5941 244.847 10.5721C245.013 10.5595 245.133 10.5705 245.262 10.6115C245.428 10.6634 245.617 10.7028 245.876 10.6776C246.097 10.6556 246.332 10.6508 246.558 10.6367C246.853 10.6193 246.853 10.6209 247.379 10.7186C247.439 10.7296 247.517 10.7422 247.582 10.739C247.964 10.7201 248.342 10.6965 248.725 10.6776C248.873 10.6697 249.016 10.6902 249.117 10.7359C249.159 10.7548 249.145 10.7863 249.158 10.8131C248.398 10.8556 247.637 10.8918 246.881 10.9438C246.595 10.9642 246.466 10.8997 246.277 10.8634C246.212 10.8508 246.143 10.8241 246.083 10.8272C245.548 10.854 245.018 10.8823 244.488 10.917C244.322 10.928 244.197 10.9217 244.073 10.876C243.755 10.7548 243.367 10.8209 243.008 10.8382C242.731 10.8508 242.643 10.8997 242.676 11.0036C242.717 11.1264 242.883 11.1642 243.307 11.1422C243.46 11.1343 243.612 11.1233 243.764 11.117C243.911 11.1107 244.045 11.1312 244.165 11.1737C244.28 11.2162 244.419 11.2383 244.561 11.232C244.866 11.2178 245.175 11.2036 245.47 11.18C245.714 11.1611 245.917 11.1768 246.088 11.2351C246.277 11.2997 246.498 11.2855 246.719 11.2713C247.236 11.2398 247.24 11.2414 247.563 11.3202C247.628 11.3359 247.692 11.3658 247.752 11.3643C248.282 11.3406 248.817 11.3202 249.338 11.2824C249.61 11.2635 249.767 11.3139 249.947 11.3548C250.012 11.369 250.076 11.4005 250.136 11.3973C250.519 11.38 250.901 11.3627 251.275 11.3328C251.45 11.3186 251.556 11.328 251.699 11.3658C252.04 11.4587 252.049 11.4556 252.534 11.4257C252.681 11.4162 252.842 11.3989 252.981 11.4115C253.119 11.4241 253.23 11.4698 253.359 11.4981C253.419 11.5107 253.493 11.528 253.557 11.5249C253.861 11.5123 254.166 11.4934 254.47 11.4761C254.756 11.4587 254.756 11.4603 255.291 11.558C255.508 11.5989 255.734 11.5643 255.95 11.5517C256.185 11.5375 256.397 11.5375 256.577 11.5989C256.757 11.6603 256.974 11.6572 257.204 11.6446C257.421 11.632 257.642 11.5973 257.864 11.6399C258.371 11.7375 258.371 11.7391 258.684 11.7202C259.141 11.6934 259.593 11.6682 260.054 11.6446C260.114 11.6414 260.192 11.6603 260.252 11.6729C260.381 11.7013 260.492 11.7485 260.63 11.7595C260.768 11.7721 260.93 11.7532 261.077 11.7438C261.552 11.7139 261.585 11.7028 261.903 11.8068C262.17 11.8918 262.502 11.769 262.751 11.8666C262.894 11.9218 263.088 11.9658 263.355 11.9391C263.576 11.917 263.807 11.9107 264.038 11.8981C264.402 11.8776 264.402 11.8792 264.863 11.9737C264.923 11.9863 265.001 12.0021 265.061 11.9989C265.365 11.9863 265.674 11.9753 265.97 11.9469C266.315 11.9139 266.537 11.9737 266.795 12.032C266.998 12.0777 267.237 12.0399 267.454 12.0241C267.689 12.0084 267.901 12.0131 268.077 12.0745C268.261 12.1375 268.478 12.1296 268.708 12.117C268.925 12.106 269.146 12.0698 269.368 12.1139C269.843 12.2115 269.843 12.2115 270.188 12.1926C270.493 12.1753 270.797 12.1564 271.101 12.1438C271.161 12.1407 271.235 12.1611 271.295 12.1753C271.424 12.2036 271.535 12.2509 271.673 12.2619C271.811 12.2729 271.973 12.2525 272.125 12.2446C272.277 12.2367 272.438 12.2131 272.577 12.2225C272.715 12.232 272.844 12.2714 272.955 12.306C273.084 12.347 273.204 12.3517 273.379 12.3359C273.6 12.3155 273.831 12.3107 274.057 12.2997C274.181 12.3296 274.31 12.3596 274.43 12.3926C274.555 12.4273 274.688 12.4241 274.859 12.4131C275.426 12.3753 275.431 12.38 275.906 12.4777C276.122 12.5218 276.348 12.4855 276.565 12.4745C276.796 12.4619 277.012 12.4556 277.192 12.5186C277.367 12.5785 277.584 12.5863 277.815 12.5674C277.962 12.5548 278.119 12.547 278.271 12.5423C278.34 12.5407 278.423 12.547 278.474 12.5596C278.718 12.6257 278.958 12.6856 279.295 12.643C279.59 12.6556 279.737 12.7848 280.092 12.7596C280.392 12.7375 280.706 12.7328 281.001 12.7044C281.273 12.6792 281.466 12.7234 281.605 12.7785C281.854 12.8761 282.204 12.7438 282.453 12.8399C282.596 12.895 282.78 12.9391 283.057 12.9155C283.361 12.8903 283.458 12.9234 283.546 13.0226C283.597 13.0793 283.587 13.1249 283.495 13.169C283.403 13.2147 283.302 13.2068 283.154 13.1549C282.983 13.0966 282.78 13.0856 282.536 13.0982C282.296 13.1108 282.149 13.0289 281.951 12.9974C281.752 12.9643 281.517 13.0194 281.31 12.9769C280.821 12.8777 280.821 12.8777 280.489 12.8966C280.263 12.9092 280.028 12.9155 279.807 12.9375C279.544 12.9643 279.373 12.9155 279.193 12.8714C279.129 12.8556 279.064 12.8257 279.009 12.8273C278.479 12.8509 277.944 12.873 277.418 12.9123C277.141 12.9328 276.994 12.8761 276.81 12.8367C276.745 12.8226 276.676 12.7942 276.62 12.7974C276.164 12.8194 275.712 12.8478 275.256 12.8745C275.168 12.9171 275.071 12.958 274.988 13.0037C274.901 13.0509 274.781 13.0714 274.606 13.0698C274.315 13.0698 274.029 13.136 273.739 13.0525C273.439 12.9675 273.416 12.9722 273.125 12.9927C272.757 13.0194 272.365 13.0131 272.019 13.0746C271.959 13.0856 271.894 13.1155 271.894 13.1375C271.89 13.1517 271.987 13.1722 272.047 13.1848C272.249 13.2226 272.484 13.1675 272.687 13.2068C272.821 13.232 272.932 13.2698 273.065 13.2966C273.121 13.3076 273.204 13.3061 273.278 13.3045C273.356 13.3029 273.43 13.2919 273.503 13.2935C273.573 13.295 273.646 13.3045 273.702 13.3186C273.955 13.3785 274.223 13.4336 274.449 13.5045C274.67 13.5738 274.877 13.5265 275.099 13.5234C275.984 13.6336 275.984 13.6352 276.579 13.6006C276.727 13.5927 276.879 13.5832 277.031 13.5848C277.095 13.5848 277.155 13.6131 277.22 13.6289C277.404 13.6761 277.579 13.7187 277.838 13.6935C278.059 13.6714 278.294 13.6667 278.52 13.6525C278.824 13.6352 278.824 13.6352 279.341 13.7344C279.47 13.7596 279.608 13.7565 279.774 13.7439C279.917 13.7328 280.065 13.7565 280.166 13.8021C280.208 13.821 280.194 13.8525 280.208 13.8793C279.751 13.9045 279.29 13.9218 278.847 13.9596C278.562 13.9832 278.432 13.9155 278.243 13.8793C278.179 13.8667 278.11 13.8399 278.05 13.8431C277.598 13.8667 277.146 13.8935 276.694 13.925C276.639 13.9281 276.57 13.9643 276.565 13.9864C276.556 14.0273 276.671 14.0667 276.837 14.0651C277.058 14.0636 277.275 14.0368 277.473 14.1013C277.639 14.158 277.847 14.1833 278.091 14.1581C278.239 14.1439 278.396 14.1439 278.543 14.1313C278.935 14.0935 279.29 14.1014 279.585 14.2084C279.811 14.2368 280.032 14.21 280.249 14.1959C280.411 14.1848 280.567 14.1738 280.683 14.2037C280.927 14.2667 281.167 14.3297 281.503 14.2872C281.868 14.3313 282.144 14.4242 282.449 14.4998C282.591 14.536 282.702 14.5565 282.868 14.5329C282.937 14.5234 283.02 14.5234 283.094 14.5187C283.246 14.5108 283.408 14.4872 283.546 14.4966C283.684 14.5077 283.799 14.5533 283.924 14.5817C283.984 14.5959 284.053 14.6195 284.113 14.6179C284.343 14.61 284.569 14.5943 284.795 14.5817C285.021 14.5707 285.247 14.5596 285.473 14.5486C285.662 14.5896 285.856 14.6305 286.045 14.6715C286.349 14.6541 286.654 14.6368 286.953 14.6211C287.29 14.6022 287.29 14.6037 287.774 14.7014C287.991 14.7455 288.221 14.7171 288.429 14.6966C288.775 14.6636 289.005 14.7234 289.249 14.7864C289.3 14.799 289.392 14.8069 289.452 14.8006C289.692 14.7785 289.899 14.7959 290.075 14.8541C290.199 14.8951 290.324 14.914 290.476 14.9061C291.006 14.8762 291.536 14.8447 292.067 14.8179C292.131 14.8148 292.205 14.8289 292.265 14.8415C292.735 14.9376 292.74 14.9423 293.086 14.9171C293.394 14.8951 293.68 14.8856 293.925 14.9722C293.975 14.9911 294.054 15.0179 294.109 15.0163C294.487 15.0006 294.87 14.9833 295.243 14.9565C295.414 14.9439 295.534 14.9486 295.668 14.9849C295.838 15.0305 295.99 15.0857 296.272 15.0652C297.051 15.0069 297.055 15.0163 297.978 15.125C298.042 15.1329 298.13 15.1203 298.204 15.114C298.36 15.0982 298.476 15.1203 298.614 15.1565C298.923 15.2384 298.932 15.2337 299.227 15.2164C299.453 15.2022 299.688 15.199 299.91 15.1754C300.251 15.1408 300.477 15.2022 300.73 15.2605C300.933 15.3061 301.168 15.2683 301.385 15.2542C301.62 15.2384 301.832 15.2431 302.007 15.303C302.127 15.3439 302.256 15.366 302.409 15.3581C302.939 15.3298 303.469 15.2982 303.999 15.2699C304.064 15.2667 304.142 15.2793 304.202 15.2904C304.728 15.388 304.728 15.3927 305.249 15.3565C305.415 15.3455 305.553 15.3423 305.678 15.3754C305.798 15.4069 305.927 15.4368 306.051 15.4668C306.277 15.4557 306.508 15.4526 306.729 15.4337C306.9 15.4195 307.019 15.4258 307.153 15.4589C307.328 15.5014 307.476 15.5754 307.753 15.5392C307.895 15.5219 308.061 15.5266 308.204 15.5109C308.375 15.4904 308.49 15.503 308.624 15.5439C308.79 15.5927 308.961 15.6431 309.228 15.6179C309.523 15.5896 309.837 15.5849 310.136 15.5628C310.302 15.5502 310.418 15.5628 310.551 15.6038C310.717 15.6557 310.906 15.6888 311.165 15.6683C311.69 15.629 311.695 15.6368 312.207 15.736C312.336 15.7612 312.474 15.7581 312.64 15.7455C312.783 15.7345 312.93 15.7581 313.032 15.8038C313.129 15.8542 313.119 15.8857 313.129 15.9124ZM272.042 1.70879C271.89 1.71667 271.738 1.72611 271.516 1.5891C271.502 1.56548 271.512 1.53714 271.479 1.51666C271.406 1.47414 271.29 1.44422 271.152 1.4395C270.903 1.4332 270.603 1.48673 270.608 1.52768C270.612 1.56233 270.691 1.59224 270.843 1.62059C270.908 1.63161 270.958 1.65051 271.018 1.66311C271.194 1.69934 271.332 1.77022 271.585 1.73399C271.539 1.63635 271.562 1.68517 271.585 1.73399C271.562 1.79384 271.632 1.83636 271.798 1.85368C271.844 1.85841 271.913 1.85525 271.95 1.8458C272.093 1.81116 272.116 1.76392 272.01 1.63951C271.991 1.65998 272.005 1.69619 272.047 1.70564C272.088 1.71509 272.189 1.70722 272.24 1.6962C272.369 1.66628 272.434 1.6269 272.402 1.59383C272.383 1.57651 272.295 1.55446 272.24 1.55446C272.143 1.55446 272.056 1.5891 272.042 1.70879ZM309.325 19.9724C308.988 20.0023 308.601 19.9913 308.264 20.0527C308.204 20.0638 308.145 20.0921 308.14 20.1142C308.135 20.1283 308.228 20.1488 308.283 20.1598C308.407 20.185 308.546 20.1772 308.707 20.1693C308.951 20.1583 309.094 20.2307 309.283 20.2669C309.343 20.2779 309.422 20.2858 309.486 20.2827C309.86 20.2638 310.228 20.2433 310.602 20.2213C310.667 20.2165 310.736 20.2055 310.791 20.1913C310.976 20.1457 310.957 20.1157 310.777 20.0811C310.579 20.0433 310.422 19.9803 310.219 19.9504C309.929 19.9079 309.634 19.9646 309.325 19.9724ZM283.14 21.1221C282.914 21.1347 282.693 21.1473 282.467 21.1599C282.393 21.1646 282.315 21.1662 282.246 21.1725C282.103 21.1835 281.997 21.2166 281.927 21.2685C282.033 21.3095 282.163 21.3331 282.306 21.3284C282.531 21.3189 282.753 21.2985 282.979 21.2937C283.223 21.2874 283.366 21.3583 283.555 21.3945C283.615 21.4056 283.689 21.4071 283.758 21.4087C284.099 21.415 284.307 21.3331 284.242 21.2181C284.196 21.1284 284.021 21.0748 283.809 21.0859C283.587 21.0969 283.361 21.1095 283.14 21.1221ZM310.902 17.6448C310.957 17.618 311.017 17.5991 311.045 17.5755C311.128 17.4952 311.095 17.4353 310.943 17.3723C310.759 17.2952 310.533 17.3471 310.325 17.355C310.275 17.3566 310.219 17.3897 310.192 17.4101C310.173 17.4243 310.173 17.4542 310.201 17.4621C310.427 17.5251 310.667 17.5834 310.902 17.6448ZM270.903 12.9927C270.682 13.0053 270.456 13.0147 270.234 13.032C270.179 13.0368 270.128 13.0667 270.096 13.0871C270.036 13.1249 270.101 13.1769 270.29 13.1816C270.506 13.1879 270.732 13.1612 270.958 13.1486C271.244 13.1328 271.415 13.0745 271.309 13.0241C271.207 12.9753 271.069 12.9659 270.903 12.9927ZM28.195 9.62719C28.3426 9.61931 28.4947 9.61301 28.6422 9.60198C28.7806 9.59096 28.8867 9.55631 28.9559 9.50434C28.8406 9.4634 28.7114 9.44135 28.5685 9.44607C28.3426 9.45552 28.1213 9.46812 27.9 9.48387C27.7616 9.49332 27.628 9.52796 27.5957 9.58151C27.5634 9.62245 27.8722 9.64608 28.195 9.62719ZM251.404 9.38465C251.464 9.39882 251.524 9.42718 251.584 9.42718C251.731 9.42718 251.884 9.41772 252.022 9.40197C252.082 9.39567 252.128 9.36733 252.155 9.34528C252.174 9.33111 252.169 9.30591 252.142 9.29332C252.008 9.21772 251.473 9.24449 251.385 9.33111C251.376 9.34686 251.399 9.36733 251.404 9.38465ZM236.857 0.760723C236.871 0.78592 236.875 0.811115 236.894 0.836313C236.931 0.883559 237.032 0.918212 237.18 0.941835C237.295 0.902464 237.355 0.858375 237.35 0.811129C237.346 0.785931 237.332 0.760717 237.313 0.735519C237.276 0.688274 237.175 0.653639 237.027 0.630016C236.912 0.667813 236.857 0.711902 236.857 0.760723ZM321.557 21.3961C321.516 21.4166 321.474 21.437 321.428 21.4559C321.553 21.5016 321.668 21.5158 321.756 21.4906C321.811 21.4748 321.843 21.4512 321.885 21.4307C321.76 21.3851 321.649 21.3725 321.557 21.3961ZM318.689 21.6103C318.749 21.6245 318.805 21.6434 318.869 21.6528C318.975 21.6686 319.072 21.6418 319.146 21.5851C319.086 21.5709 319.031 21.552 318.966 21.5426C318.86 21.5268 318.763 21.5536 318.689 21.6103ZM320.506 21.3221C320.474 21.3599 320.538 21.3914 320.709 21.4182C320.75 21.3977 320.806 21.3788 320.833 21.3567C320.88 21.3205 320.801 21.2874 320.635 21.2622C320.589 21.2811 320.547 21.3016 320.506 21.3221ZM310.773 19.6244C310.74 19.6622 310.805 19.6937 310.975 19.7204C311.017 19.7 311.072 19.6811 311.1 19.659C311.146 19.6228 311.068 19.5897 310.902 19.5645C310.856 19.5834 310.814 19.6039 310.773 19.6244ZM297.512 8.48068C297.47 8.50116 297.429 8.52163 297.383 8.54053C297.507 8.5862 297.623 8.60037 297.71 8.57517C297.766 8.55942 297.798 8.5358 297.839 8.51533C297.715 8.46966 297.604 8.45706 297.512 8.48068ZM284.809 2.56866C284.92 2.57968 285.012 2.55764 285.09 2.49937C285.031 2.4852 284.975 2.4663 284.911 2.45685C284.805 2.4411 284.708 2.46788 284.634 2.52458C284.694 2.54032 284.754 2.55448 284.809 2.56866ZM278.064 2.19857C278.022 2.21904 277.981 2.23952 277.935 2.25841C278.059 2.30409 278.174 2.31825 278.262 2.29306C278.317 2.27731 278.349 2.25368 278.391 2.23321C278.266 2.18754 278.156 2.17652 278.064 2.19857ZM232.32 0.759146C232.278 0.779619 232.237 0.800093 232.191 0.818992C232.315 0.864663 232.431 0.878832 232.518 0.853634C232.573 0.837885 232.606 0.814262 232.647 0.793788C232.523 0.748118 232.412 0.737098 232.32 0.759146ZM4.5508 13.5722C4.49086 13.558 4.43098 13.5439 4.37565 13.5281C4.24193 13.5706 4.20045 13.61 4.27422 13.6399C4.32033 13.6588 4.38944 13.6698 4.44938 13.684C4.5877 13.6415 4.61996 13.6037 4.5508 13.5722Z" fill="#FFE492"/>
<path d="M31.2925 8.01112C30.7622 8.04104 30.2366 8.07883 29.7064 8.09772C29.4251 8.10717 29.3238 8.17489 29.2085 8.23789C29.1163 8.28828 29.0102 8.30403 28.8396 8.31348C27.401 8.39065 25.967 8.47254 24.5331 8.55286C24.3533 8.53239 24.2657 8.49932 24.3072 8.45995C24.3302 8.43633 24.3856 8.40325 24.4409 8.4001C25.423 8.34183 26.4004 8.28198 27.3871 8.23631C27.6684 8.22371 27.7468 8.15442 27.8898 8.09772C27.9359 8.07883 27.9728 8.05048 28.0327 8.03946C28.0927 8.02686 28.1803 8.02844 28.2586 8.02529C29.8448 7.93552 31.4309 7.84734 33.017 7.75757C33.1968 7.77804 33.2844 7.81111 33.243 7.85048C33.2199 7.8741 33.1645 7.90718 33.1092 7.91033C32.5006 7.9434 31.8965 7.97647 31.2925 8.01112Z" fill="#FFE492"/>
<path d="M321.618 16.3977C321.378 16.4166 321.074 16.4434 320.825 16.352C320.705 16.3079 320.576 16.2938 320.419 16.3032C320.193 16.319 319.962 16.3316 319.732 16.341C319.672 16.3426 319.593 16.3253 319.534 16.3111C319.404 16.2827 319.294 16.2355 319.155 16.2229C319.017 16.2103 318.851 16.2449 318.708 16.2371C318.519 16.2261 318.441 16.1835 318.491 16.1442C318.519 16.1221 318.574 16.0906 318.634 16.0859C319.487 16.0276 319.492 16.0276 319.732 16.0843C319.916 16.1284 320.087 16.1772 320.35 16.1504C320.571 16.1284 320.806 16.1237 321.032 16.1095C321.346 16.0906 321.346 16.0922 321.853 16.1914C321.982 16.2166 322.12 16.215 322.286 16.2009C322.429 16.1898 322.567 16.215 322.683 16.2575C322.609 16.3111 322.503 16.3457 322.36 16.3552C322.129 16.3709 321.903 16.382 321.618 16.3977Z" fill="#FFE492"/>
<path d="M313.129 15.9122C313.71 15.8791 314.296 15.8508 314.877 15.813C315.116 15.7972 315.306 15.8145 315.472 15.8681C315.651 15.9263 315.854 15.9216 316.076 15.9106C316.214 15.9043 316.348 15.9295 316.44 15.9736C316.477 15.9909 316.467 16.0224 316.481 16.0476C315.974 16.076 315.462 16.1059 314.951 16.1311C314.891 16.1342 314.817 16.1185 314.761 16.1059C314.637 16.0791 314.531 16.0319 314.397 16.0224C314.111 16.0004 313.826 16.0429 313.535 16.0507C313.397 16.0539 313.263 16.0303 313.171 15.9878C313.134 15.9673 313.143 15.9374 313.129 15.9122Z" fill="#FFE492"/>
<path d="M103.176 2.37188C103.78 2.33723 104.384 2.30418 104.988 2.26953C105.168 2.29158 105.251 2.32307 105.214 2.36244C105.191 2.38607 105.136 2.41914 105.081 2.42229C103.873 2.49316 102.665 2.56087 101.461 2.62858C101.281 2.60654 101.198 2.57504 101.235 2.53567C101.258 2.51205 101.314 2.47898 101.369 2.47583C101.968 2.43961 102.572 2.40653 103.176 2.37188Z" fill="#FFE492"/>
<path d="M10.1033 11.1235C9.83125 11.1266 9.54544 11.1849 9.24113 11.1408C9.18119 11.1329 9.09817 11.1077 9.10278 11.0936C9.11201 11.0699 9.16734 11.04 9.22728 11.0306C9.4901 10.9912 9.8175 10.9865 9.95121 10.8762C10.0158 10.8195 10.1356 10.8006 10.297 10.7896C10.4676 10.777 10.5875 10.7817 10.7212 10.8148C10.8964 10.8573 11.044 10.9361 11.3206 10.8951C11.3344 10.9203 11.3666 10.9487 11.3528 10.9723C11.339 10.9959 11.2791 11.018 11.2238 11.0353C11.1731 11.051 11.1038 11.0652 11.0393 11.0699C10.735 11.0888 10.4307 11.1046 10.1033 11.1235Z" fill="#FFE492"/>
<path d="M249.901 10.807C250.127 10.7944 250.362 10.7881 250.583 10.766C250.759 10.7487 250.869 10.7597 251.007 10.7975C251.243 10.8637 251.256 10.8574 251.833 10.8668C251.897 10.8684 251.976 10.892 252.013 10.9125C252.036 10.9235 252.003 10.9535 251.976 10.9692C251.934 10.9897 251.874 11.0164 251.819 11.0164C251.455 11.0212 251.086 11.1141 250.731 11.007C250.551 10.9535 250.353 10.9282 250.108 10.9519C249.961 10.966 249.804 10.9723 249.652 10.9786C249.504 10.9849 249.352 10.9676 249.26 10.9204C249.126 10.8511 249.205 10.8243 249.444 10.829C249.597 10.8322 249.749 10.8149 249.901 10.807Z" fill="#FFE492"/>
<path d="M333.467 21.6621C333.758 21.6464 334.048 21.6275 334.343 21.6149C334.403 21.6117 334.477 21.6291 334.532 21.6401C334.754 21.6873 334.721 21.7676 334.73 21.8385C334.735 21.9125 334.223 21.9724 334.007 21.922C333.767 21.8653 333.55 21.8007 333.218 21.8354C333.089 21.848 332.937 21.8196 332.854 21.7739C332.729 21.7078 332.799 21.681 333.034 21.6857C333.172 21.6889 333.32 21.6716 333.467 21.6621Z" fill="#FFE492"/>
<path d="M187.083 0.227089C187.383 0.209766 187.683 0.183006 187.982 0.181431C188.158 0.179857 188.245 0.231817 188.204 0.269614C188.181 0.293236 188.125 0.326309 188.07 0.329459C187.471 0.367256 186.871 0.398758 186.272 0.433405C186.097 0.411357 186.009 0.37829 186.051 0.340494C186.074 0.316871 186.129 0.285373 186.184 0.280648C186.484 0.2586 186.784 0.244413 187.083 0.227089Z" fill="#FFE492"/>
<path d="M327.717 16.536C328.007 16.5202 328.302 16.4966 328.593 16.4887C328.745 16.4856 328.865 16.5218 328.883 16.5627C328.893 16.5816 328.819 16.6147 328.759 16.6226C328.344 16.6761 327.897 16.6824 327.463 16.7092C327.325 16.7171 327.177 16.6919 327.094 16.6478C326.97 16.5801 327.039 16.5549 327.274 16.5596C327.422 16.5612 327.569 16.5438 327.717 16.536Z" fill="#FFE492"/>
<path d="M257.517 11.0193C257.665 11.0115 257.817 10.991 257.96 10.9973C258.112 11.0052 258.209 11.0508 258.255 11.0965C258.306 11.1485 258.301 11.1973 258.255 11.2414C258.181 11.317 258.107 11.3138 257.937 11.2634C257.674 11.1847 257.656 11.1941 257.135 11.1973C257.075 11.1973 257.001 11.1737 256.955 11.1532C256.886 11.1217 256.923 11.0729 257.084 11.0445C257.204 11.0241 257.37 11.0272 257.517 11.0193Z" fill="#FFE492"/>
<path d="M316.914 16.0194C317.131 16.0068 317.348 15.9864 317.564 15.9864C317.717 15.9848 317.836 16.021 317.85 16.0604C317.855 16.0793 317.786 16.1108 317.73 16.1202C317.468 16.1628 317.172 16.1659 316.887 16.1801C316.753 16.1864 316.605 16.1612 316.522 16.1171C316.398 16.0509 316.472 16.021 316.698 16.0305C316.767 16.0336 316.841 16.0242 316.914 16.0194Z" fill="#FFE492"/>
<path d="M282.808 14.0874C282.486 14.1063 282.181 14.0827 282.204 14.0417C282.237 13.9882 282.37 13.9535 282.509 13.9441C282.73 13.9283 282.951 13.9157 283.177 13.9063C283.32 13.9 283.449 13.9236 283.565 13.9646C283.495 14.0149 283.389 14.0512 283.251 14.0622C283.108 14.0732 282.956 14.0795 282.808 14.0874Z" fill="#FFE492"/>
<path d="M280.69 13.8857C280.907 13.8731 281.124 13.8526 281.34 13.8526C281.492 13.851 281.612 13.8872 281.626 13.9266C281.631 13.9455 281.562 13.977 281.506 13.9864C281.244 14.029 280.948 14.0321 280.663 14.0463C280.529 14.0526 280.381 14.0274 280.298 13.9833C280.174 13.9172 280.248 13.8872 280.474 13.8967C280.543 13.8998 280.616 13.8904 280.69 13.8857Z" fill="#FFE492"/>
<path d="M254.904 11.0069C255.121 10.9943 255.338 10.9738 255.554 10.9722C255.706 10.9706 255.826 11.0069 255.84 11.0463C255.845 11.0651 255.776 11.0951 255.72 11.1061C255.458 11.1486 255.162 11.1518 254.877 11.1659C254.743 11.1722 254.595 11.147 254.512 11.1029C254.388 11.0368 254.461 11.0069 254.687 11.0163C254.757 11.0195 254.83 11.01 254.904 11.0069Z" fill="#FFE492"/>
<path d="M253.69 10.9138C253.92 10.9012 253.994 10.8933 254.068 10.8933C254.206 10.8933 254.349 10.9122 254.432 10.9579C254.557 11.024 254.483 11.0429 254.257 11.0461C253.966 11.0492 253.681 11.0823 253.39 11.0886C253.238 11.0918 253.118 11.0539 253.109 11.0146C253.104 10.9957 253.173 10.9626 253.229 10.9563C253.422 10.9327 253.634 10.9185 253.69 10.9138Z" fill="#FFE492"/>
<path d="M278.814 1.64889C278.667 1.65676 278.51 1.67881 278.372 1.67094C278.187 1.65991 278.113 1.6174 278.159 1.57803C278.187 1.55598 278.238 1.52448 278.293 1.51976C278.588 1.49771 278.888 1.48352 279.183 1.46777C279.358 1.4914 279.437 1.52447 279.391 1.56384C279.363 1.58589 279.312 1.61581 279.257 1.62211C279.114 1.63786 278.962 1.64101 278.814 1.64889Z" fill="#FFE492"/>
<path d="M99.8697 2.5577C100.013 2.55613 100.142 2.5766 100.252 2.61597C100.183 2.66637 100.082 2.69944 99.9434 2.71361C99.8742 2.71991 99.7959 2.72463 99.7221 2.7262C99.5792 2.72935 99.45 2.70731 99.3394 2.66793C99.4085 2.61754 99.5145 2.58447 99.6482 2.57029C99.7174 2.56399 99.7959 2.56243 99.8697 2.5577Z" fill="#FFE492"/>
<path d="M326.141 16.5297C326.137 16.484 326.418 16.4321 326.671 16.4336C326.805 16.4352 326.944 16.4573 327.022 16.4998C327.142 16.5643 327.073 16.5895 326.847 16.5848C326.708 16.5817 326.561 16.6084 326.422 16.6037C326.266 16.6021 326.174 16.5675 326.141 16.5297Z" fill="#FFE492"/>
<path d="M258.853 11.2101C258.849 11.1928 258.826 11.1723 258.84 11.1566C258.927 11.0699 259.458 11.0432 259.596 11.1188C259.619 11.1329 259.628 11.1566 259.61 11.1707C259.582 11.1928 259.531 11.2211 259.476 11.2274C259.333 11.2432 259.185 11.251 259.038 11.2526C258.973 11.2526 258.913 11.2258 258.853 11.2101Z" fill="#FFE492"/>
<path d="M11.7433 10.8713C11.1992 10.9043 11.19 10.9012 11.2868 10.8224C11.3744 10.7516 11.5358 10.709 11.771 10.709C11.8402 10.709 11.9139 10.7059 11.9738 10.7122C12.0384 10.7201 12.1307 10.7358 12.1445 10.7547C12.1722 10.7909 12.0937 10.8303 11.9554 10.8571C11.8954 10.8697 11.8171 10.8665 11.7433 10.8713Z" fill="#FFE492"/>
<path d="M106.681 2.33566C106.52 2.36243 106.382 2.35299 106.28 2.30259C106.179 2.2522 106.34 2.19235 106.621 2.17817C106.695 2.17502 106.774 2.16243 106.843 2.16873C106.912 2.17346 106.981 2.19234 107.023 2.21124C107.096 2.24273 107.05 2.28527 106.903 2.32149C106.843 2.33566 106.755 2.33251 106.681 2.33566Z" fill="#FFE492"/>
<path d="M325.181 16.4114C325.222 16.3909 325.264 16.3705 325.31 16.3516C325.48 16.3783 325.554 16.4098 325.508 16.4461C325.48 16.4681 325.425 16.487 325.384 16.5075C325.213 16.4807 325.144 16.4476 325.181 16.4114Z" fill="#FFE492"/>
<path d="M19.0462 28.7996C19.0462 28.7807 19.1108 28.7508 19.1615 28.7445C19.2583 28.7335 19.3781 28.7555 19.4611 28.7996C19.5764 28.8626 19.5073 28.8957 19.2952 28.8784C19.1477 28.8658 19.0462 28.8343 19.0462 28.7996Z" fill="#FFE492"/>
<path d="M260.733 9.74371C260.793 9.75788 260.853 9.77206 260.908 9.78781C260.83 9.84608 260.733 9.87127 260.631 9.85552C260.567 9.84607 260.511 9.82717 260.451 9.81299C260.53 9.75472 260.622 9.73269 260.733 9.74371Z" fill="#FFE492"/>
<path d="M259.136 9.67255C259.228 9.64893 259.339 9.66154 259.468 9.70721C259.427 9.72769 259.39 9.75131 259.339 9.76706C259.251 9.79226 259.136 9.77964 259.012 9.7324C259.049 9.7135 259.09 9.69302 259.136 9.67255Z" fill="#FFE492"/>
<path d="M257.912 9.74207C257.972 9.75624 258.032 9.77042 258.088 9.78617C258.009 9.84444 257.917 9.86962 257.811 9.85387C257.746 9.84442 257.691 9.82552 257.631 9.81135C257.71 9.75308 257.802 9.72947 257.912 9.74207Z" fill="#FFE492"/>
<path d="M257.016 9.6586C257.085 9.6901 257.048 9.72789 256.915 9.77041C256.855 9.75624 256.785 9.74523 256.739 9.72633C256.666 9.69641 256.702 9.65702 256.841 9.6145C256.896 9.63025 256.956 9.64443 257.016 9.6586Z" fill="#FFE492"/>
</svg>
