<svg width="257" height="50" viewBox="0 0 257 50" fill="none" xmlns="http://www.w3.org/2000/svg">
<g id="Landing page V2 / desktop / 1440px">
<g id="Testimonial">
<g id="Element">
<path id="Vector" d="M239.588 26.3945C239.238 26.4363 238.886 26.465 238.543 26.5277C238.321 26.5669 238.226 26.452 238.078 26.3919C238.028 26.371 237.975 26.3292 237.93 26.3344C237.584 26.3762 237.238 26.4233 236.892 26.4703C236.787 26.5722 236.72 26.708 236.557 26.7576C236.399 26.8046 236.212 26.8046 236.035 26.8282C235.802 26.8569 235.569 26.8856 235.337 26.9118C235.22 26.9248 235.125 26.9745 235.086 27.0685C235.079 27.0842 235.157 27.1233 235.199 27.1468C235.34 27.2252 235.478 27.314 235.633 27.3741C235.781 27.4316 235.965 27.3375 236.123 27.4107C236.48 27.5753 236.483 27.5726 236.755 27.5413C236.988 27.5126 237.221 27.4812 237.453 27.4603C237.499 27.4551 237.552 27.4943 237.602 27.5152C237.75 27.5727 237.845 27.7033 238.064 27.6536C238.23 27.6145 238.413 27.6066 238.586 27.5857C238.73 27.6615 238.865 27.7477 239.02 27.8078C239.164 27.8652 239.207 27.9096 239.129 27.9854C239.059 28.0559 238.96 28.0847 238.829 28.0899C238.713 28.0925 238.596 28.116 238.48 28.1291C238.42 28.1369 238.364 28.1421 238.307 28.15C238.085 28.1787 238.085 28.1787 237.679 28.0115C237.52 27.9462 237.34 28.0376 237.189 27.9749C237.086 27.9331 236.998 27.8705 236.899 27.8261C236.857 27.8078 236.79 27.8051 236.737 27.8104C236.561 27.8287 236.384 27.8417 236.215 27.8757C236.095 27.8992 236.025 27.9723 236.039 28.0455C236.042 28.0742 236.127 28.116 236.176 28.1186C236.289 28.1239 236.409 28.0873 236.518 28.1056C236.624 28.1238 236.734 28.1761 236.811 28.2336C236.97 28.3537 237.15 28.2466 237.302 28.278C237.46 28.3119 237.591 28.4164 237.743 28.4791C237.781 28.4948 237.856 28.4687 237.915 28.4608C238.088 28.4425 238.261 28.4269 238.434 28.4086C238.579 28.4843 238.734 28.5523 238.865 28.6385C239.101 28.7952 239.355 28.8553 239.662 28.7795C239.835 28.7377 240.004 28.7534 240.142 28.8553C240.283 28.9598 240.445 28.9493 240.625 28.9284C240.791 28.9075 240.96 28.8501 241.129 28.9232C241.496 29.0852 241.5 29.093 241.934 29.0303C242.064 29.012 242.163 29.0068 242.262 29.0669C242.354 29.1217 242.452 29.1688 242.548 29.221C242.721 29.2027 242.897 29.1844 243.07 29.1635C243.292 29.1348 243.415 29.1714 243.468 29.3177C243.5 29.4065 243.514 29.4875 243.592 29.5475C243.684 29.6207 243.782 29.6181 243.916 29.5972C244.043 29.5789 244.135 29.5502 244.188 29.4561C244.209 29.4169 244.252 29.3804 244.29 29.349C244.322 29.3255 244.372 29.2889 244.4 29.2942C244.453 29.3046 244.523 29.3333 244.541 29.3673C244.714 29.6834 244.714 29.686 244.89 29.7774C245.084 29.8793 245.285 29.9707 245.462 30.0857C245.62 30.1875 245.779 30.1431 245.952 30.1431C246.083 30.1431 246.167 30.2111 246.157 30.279C246.15 30.3182 246.1 30.3756 246.058 30.3808C245.712 30.4331 245.363 30.4775 245.014 30.5141C244.971 30.5193 244.918 30.4723 244.869 30.4488C244.77 30.4017 244.682 30.3286 244.576 30.3129C244.47 30.2972 244.347 30.3364 244.23 30.3495C244.114 30.3626 243.991 30.3965 243.885 30.3756C243.779 30.3547 243.694 30.279 243.595 30.2293C243.55 30.2058 243.486 30.1719 243.447 30.1797C243.19 30.2424 242.999 30.1562 242.816 30.0413C242.777 30.0178 242.71 30.0021 242.661 30.0073C242.251 30.0517 241.846 30.1039 241.436 30.1536C241.271 30.1745 241.136 30.083 241.101 29.9289C241.084 29.8427 241.048 29.7565 241.048 29.6703C241.048 29.5136 240.854 29.4274 240.713 29.4457C240.48 29.4718 240.244 29.4927 240.015 29.5319C239.828 29.5632 239.669 29.5319 239.542 29.4378C239.394 29.3307 239.224 29.3516 239.055 29.3804C238.928 29.4012 238.893 29.4875 238.9 29.7043C238.907 29.8793 238.847 29.9341 238.618 29.9629C238.328 29.9995 238.035 30.036 237.743 30.0648C237.697 30.07 237.644 30.0256 237.598 30.0021C237.499 29.9551 237.411 29.8793 237.305 29.8636C237.199 29.8453 237.076 29.8845 236.959 29.9002C236.843 29.9133 236.72 29.9498 236.614 29.9315C236.508 29.9132 236.42 29.8349 236.324 29.7853C236.279 29.7618 236.222 29.7278 236.176 29.733C235.943 29.7539 235.711 29.7853 235.478 29.814C235.217 29.8453 235.217 29.8453 234.846 29.6834C234.677 29.6102 234.508 29.6677 234.342 29.6886C234.165 29.7095 233.999 29.72 233.862 29.6155C233.77 29.5475 233.668 29.5057 233.559 29.5188C233.266 29.5502 232.976 29.5893 232.684 29.6207C232.634 29.6259 232.567 29.6129 232.528 29.5893C232.341 29.4796 232.158 29.3934 231.897 29.4483C231.671 29.4953 231.428 29.4979 231.202 29.5423C231.078 29.5658 231.022 29.6494 231.047 29.7147C231.061 29.7487 231.135 29.7879 231.184 29.7879C231.297 29.7905 231.421 29.7513 231.526 29.767C231.745 29.7983 231.855 30.0177 232.14 29.9577C232.31 29.9211 232.486 29.908 232.662 29.8976C232.708 29.895 232.758 29.9446 232.807 29.9707C232.948 30.0413 233.072 30.1327 233.276 30.0857C233.446 30.0491 233.626 30.0387 233.798 30.0178C234.074 29.9838 234.074 29.9864 234.43 30.1458C234.599 30.2215 234.769 30.1614 234.934 30.1431C235.058 30.1301 235.174 30.104 235.273 30.1405C235.425 30.1954 235.534 30.3208 235.721 30.3129C235.898 30.3051 236.07 30.2685 236.247 30.2555C236.356 30.2476 236.458 30.2894 236.547 30.36C236.638 30.4305 236.737 30.4618 236.857 30.4461C237.03 30.4252 237.206 30.3991 237.383 30.3861C237.432 30.3835 237.489 30.407 237.535 30.4279C237.633 30.4749 237.729 30.5297 237.824 30.5794C237.997 30.5637 238.173 30.5585 238.342 30.5271C238.473 30.5036 238.565 30.5141 238.671 30.5663C238.805 30.6369 238.914 30.7623 239.133 30.7022C239.242 30.6734 239.369 30.6813 239.478 30.6551C239.612 30.6212 239.704 30.6342 239.799 30.7126C239.979 30.8615 240.205 30.8641 240.438 30.8066C240.692 30.7439 240.883 30.8171 241.073 30.9321C241.274 31.0522 241.274 31.0496 241.429 31.3396C241.475 31.4231 241.606 31.4623 241.715 31.4467C241.898 31.4205 242.057 31.4336 242.191 31.5329C242.332 31.64 242.502 31.6269 242.675 31.5982C242.904 31.559 243.133 31.525 243.32 31.6765C243.412 31.7497 243.511 31.768 243.634 31.7497C243.984 31.7026 244.336 31.6739 244.679 31.6165C244.887 31.5799 245.007 31.6635 245.148 31.734C245.338 31.8307 245.546 31.9169 245.546 32.1232C245.546 32.1572 245.596 32.1964 245.638 32.2225C245.73 32.2774 245.829 32.3244 245.924 32.3766C246.065 32.455 246.203 32.5203 246.397 32.4785C246.566 32.4445 246.746 32.4341 246.919 32.4106C247.092 32.3871 247.25 32.374 247.406 32.4733C247.586 32.5856 247.776 32.6927 247.981 32.7763C248.125 32.8364 248.316 32.7345 248.471 32.8155C248.566 32.8651 248.658 32.9226 248.76 32.9644C248.803 32.9827 248.87 32.9696 248.926 32.9644C249.043 32.9539 249.163 32.9461 249.275 32.92C249.406 32.8913 249.505 32.8965 249.604 32.9566C249.695 33.0114 249.787 33.0872 249.893 33.1028C250.052 33.1264 250.228 33.0219 250.387 33.142C250.468 33.2021 250.57 33.2596 250.676 33.2779C250.782 33.2962 250.905 33.257 251.018 33.2596C251.068 33.2596 251.128 33.3014 251.156 33.3353C251.173 33.3536 251.149 33.4033 251.124 33.4294C251.092 33.4607 251.046 33.5025 251.001 33.5078C250.651 33.5548 250.302 33.594 249.953 33.6384C249.745 33.6645 249.745 33.6645 249.325 33.4999C249.226 33.4607 249.117 33.4686 248.993 33.4868C248.827 33.5103 248.658 33.5548 248.485 33.5078C248.259 33.3301 247.981 33.3144 247.684 33.3823C247.561 33.4111 247.448 33.4111 247.356 33.3615C247.162 33.2622 246.958 33.1708 246.785 33.0532C246.651 32.9618 246.587 32.9539 246.531 33.0793C246.513 33.1185 246.495 33.1603 246.499 33.1969C246.52 33.3275 246.559 33.4555 246.58 33.5861C246.587 33.6227 246.559 33.6645 246.541 33.7037C246.485 33.8134 246.411 33.8055 246.287 33.7141C246.164 33.6227 246.016 33.5626 245.818 33.6044C245.649 33.641 245.465 33.6358 245.296 33.6749C245.035 33.7324 244.851 33.6488 244.664 33.5365C244.626 33.513 244.559 33.4999 244.509 33.5051C243.984 33.5652 243.461 33.6331 242.936 33.6932C242.823 33.7063 242.721 33.6671 242.632 33.5966C242.541 33.526 242.438 33.4895 242.325 33.5025C241.86 33.5574 241.394 33.607 240.928 33.6749C240.738 33.7037 240.586 33.6697 240.456 33.5783C240.357 33.5103 240.265 33.4895 240.142 33.4973C240.008 33.5051 239.912 33.5313 239.845 33.607C239.782 33.6802 239.828 33.7246 239.969 33.782C240.12 33.8447 240.262 33.9257 240.406 33.9989C240.523 33.9884 240.639 33.9675 240.752 33.9701C240.801 33.9701 240.847 34.0171 240.897 34.0433C241.038 34.119 241.168 34.1948 241.369 34.153C241.539 34.1164 241.719 34.1086 241.891 34.0851C242.131 34.0563 242.131 34.0563 242.519 34.2209C242.618 34.2627 242.724 34.2601 242.851 34.2366C242.96 34.2183 243.073 34.2548 243.151 34.3332C243.183 34.3646 243.172 34.4168 243.105 34.5892C243.105 34.7172 243.179 34.6598 243.204 34.5762C243.243 34.456 243.169 34.4168 243.027 34.4821C242.929 34.5291 242.879 34.5971 242.904 34.6519C242.918 34.6807 242.985 34.7172 243.105 34.5892C243.416 34.4325 243.652 34.4142 243.878 34.3724C244.012 34.3489 244.096 34.3593 244.202 34.4272C244.329 34.5082 244.456 34.5945 244.664 34.5527C244.89 34.5056 245.13 34.5004 245.359 34.4612C245.571 34.4246 245.68 34.5396 245.815 34.6075C245.977 34.6885 246.157 34.5971 246.305 34.6441C246.46 34.6911 246.569 34.806 246.749 34.8269C247.01 34.7564 247.176 34.887 247.374 34.9732C247.529 35.0385 247.712 34.9811 247.878 34.9523C248.065 34.921 248.221 34.9497 248.351 35.0438C248.499 35.1509 248.665 35.1274 248.834 35.1039C249.23 35.0516 249.244 35.0438 249.473 35.1874C249.639 35.2919 249.798 35.2449 249.963 35.2318C250.108 35.3024 250.249 35.3781 250.401 35.4408C250.44 35.4565 250.514 35.4304 250.574 35.4225C250.747 35.4016 250.923 35.3807 251.096 35.3598C251.212 35.3468 251.336 35.3076 251.442 35.3233C251.547 35.3416 251.636 35.4173 251.731 35.467C251.826 35.5166 251.925 35.5662 252.017 35.6185C252.158 35.6968 252.292 35.7621 252.489 35.723C252.659 35.689 252.835 35.6785 253.011 35.655C253.234 35.6263 253.227 35.6341 253.639 35.7909C253.862 35.8771 254.091 35.7726 254.317 35.7621C254.43 35.7569 254.539 35.7857 254.617 35.8614C254.648 35.8928 254.638 35.945 254.648 35.9894C254.066 36.0599 253.481 36.12 252.906 36.2062C252.683 36.2402 252.567 36.1461 252.447 36.0678C252.249 35.9424 251.988 36.1252 251.801 35.9633C251.689 35.8666 251.526 35.8118 251.332 35.8588C251.219 35.8849 251.099 35.8823 250.983 35.9058C250.687 35.9633 250.415 35.9659 250.179 35.7857C250.097 35.723 249.981 35.689 249.896 35.6289C249.798 35.5636 249.702 35.527 249.586 35.5401C249.06 35.6028 248.538 35.6655 248.016 35.7334C247.97 35.7386 247.924 35.7778 247.885 35.8065C247.787 35.8797 247.818 35.9372 247.977 35.9842C248.03 35.9999 248.072 36.0338 248.122 36.0599C248.217 36.1096 248.305 36.1879 248.411 36.2062C248.517 36.2245 248.64 36.1879 248.757 36.1749C248.873 36.1618 248.997 36.1226 249.103 36.1383C249.208 36.1566 249.297 36.2324 249.395 36.2794C249.441 36.3029 249.498 36.3421 249.544 36.3395C249.776 36.3238 250.006 36.295 250.239 36.2715C250.383 36.3421 250.507 36.4439 250.68 36.4674C250.789 36.4831 250.905 36.4544 251.018 36.4596C251.068 36.4622 251.131 36.5014 251.156 36.5354C251.17 36.5563 251.124 36.6085 251.089 36.6346C250.955 36.7339 250.771 36.7156 250.605 36.7469C250.426 36.7809 250.263 36.7705 250.126 36.6686C250.034 36.6007 249.932 36.5641 249.819 36.5772C249.526 36.6111 249.237 36.6503 248.944 36.6791C248.894 36.6843 248.834 36.6608 248.789 36.6425C248.418 36.4831 248.418 36.4779 248.157 36.5119C247.772 36.5615 247.773 36.5615 247.515 36.423C247.466 36.3969 247.413 36.3473 247.37 36.3499C246.961 36.3917 246.555 36.4335 246.15 36.4936C246.016 36.5119 245.924 36.5119 245.825 36.4439C245.74 36.3865 245.642 36.3212 245.536 36.3055C245.426 36.2898 245.307 36.329 245.19 36.3421C245.074 36.3551 244.95 36.3891 244.848 36.3682C244.742 36.3473 244.65 36.2742 244.559 36.2219C244.463 36.1671 244.361 36.1696 244.23 36.1905C243.828 36.2506 243.825 36.2428 243.426 36.0808C243.38 36.0626 243.32 36.0417 243.271 36.0469C242.978 36.0782 242.689 36.1174 242.396 36.1488C242.283 36.1618 242.174 36.1279 242.096 36.0521C242.064 36.0208 242.075 35.9685 242.054 35.8666C242.029 35.8431 242.057 35.8849 242.064 35.9241C242.117 35.9189 242.181 35.9241 242.22 35.9032C242.318 35.8536 242.368 35.7882 242.343 35.7334C242.329 35.7047 242.262 35.6681 242.22 35.6681C242.142 35.6681 242.075 35.7256 242.054 35.8666C241.832 35.9528 241.595 35.9711 241.366 36.0129C241.232 36.039 241.147 36.026 241.041 35.9581C240.914 35.8745 240.784 35.7935 240.576 35.8353C240.35 35.8823 240.11 35.8902 239.877 35.9267C239.609 35.9685 239.492 35.7334 239.267 35.7386C239.034 35.7438 238.801 35.7883 238.568 35.8196C238.364 35.8457 238.364 35.8457 237.94 35.6759C237.785 35.6132 237.602 35.7047 237.45 35.6393C237.348 35.5975 237.259 35.5349 237.161 35.4905C237.118 35.4722 237.051 35.4722 236.998 35.4774C236.705 35.5087 236.409 35.5296 236.127 35.5871C235.806 35.655 235.562 35.5819 235.333 35.4278C235.044 35.4565 234.751 35.4722 234.465 35.5218C234.257 35.5584 234.137 35.4722 233.996 35.4017C233.947 35.3781 233.904 35.339 233.851 35.3285C233.798 35.3181 233.735 35.3389 233.678 35.3468C233.446 35.3755 233.206 35.3886 232.98 35.4356C232.701 35.4957 232.595 35.2815 232.38 35.2554C232.236 35.3834 232.158 35.5584 231.872 35.5714C231.639 35.5819 231.407 35.6237 231.174 35.6524C231.057 35.6655 230.941 35.6812 230.824 35.6942C230.637 35.7177 230.549 35.8196 230.588 35.9763C230.609 36.0625 230.627 36.1488 230.645 36.235C230.68 36.3891 230.592 36.5197 230.443 36.538C230.034 36.5876 229.628 36.6398 229.219 36.6843C229.11 36.6973 229.004 36.6529 228.916 36.5824C228.824 36.5118 228.722 36.4805 228.609 36.4936C228.2 36.5432 227.794 36.5955 227.385 36.6399C227.339 36.6451 227.279 36.619 227.233 36.5981C227.134 36.551 227.039 36.4962 226.944 36.4466C226.711 36.4701 226.482 36.4857 226.252 36.5171C225.882 36.5641 225.882 36.5667 225.61 36.423C225.561 36.3969 225.511 36.3473 225.466 36.3499C225.289 36.3604 225.116 36.3865 224.94 36.41C224.421 36.4779 224.421 36.4779 224.27 36.3995C224.132 36.3264 224.008 36.2376 223.8 36.2794C223.575 36.3264 223.335 36.3421 223.102 36.3682C222.929 36.3865 222.756 36.4074 222.583 36.4126C222.537 36.4152 222.488 36.3656 222.439 36.3395C222.297 36.2585 222.16 36.1932 221.966 36.2376C221.853 36.2637 221.733 36.2689 221.617 36.282C221.313 36.3186 221.313 36.3185 220.816 36.1618C220.766 36.1461 220.706 36.1278 220.657 36.1357C220.248 36.1827 219.842 36.235 219.433 36.2794C219.383 36.2846 219.323 36.2689 219.274 36.2558C218.717 36.1043 218.717 36.1043 218.124 36.1775C217.898 36.2036 217.891 36.2141 217.655 36.0756C217.549 36.0155 217.461 35.9868 217.337 36.0051C216.872 36.0678 216.402 36.1096 215.94 36.1827C215.732 36.2141 215.612 36.1357 215.471 36.0652C215.422 36.0416 215.369 35.9894 215.326 35.992C214.861 36.0417 214.395 36.1017 213.929 36.1514C213.887 36.1566 213.834 36.1043 213.785 36.0808C213.689 36.0338 213.598 35.9633 213.492 35.9476C213.382 35.9319 213.262 35.9711 213.142 35.9842C212.85 36.0181 212.85 36.0155 212.511 35.8614C212.465 35.8405 212.405 35.8118 212.359 35.817C211.894 35.8692 211.424 35.9137 210.962 35.9894C210.698 36.0312 210.518 35.9554 210.331 35.8457C210.292 35.8222 210.225 35.8118 210.176 35.817C209.65 35.8771 209.128 35.945 208.602 36.0051C208.493 36.0181 208.387 35.9737 208.299 35.9058C208.158 35.7987 207.992 35.8118 207.815 35.8353C207.41 35.8901 207.406 35.8875 207.166 35.7621C207.117 35.736 207.075 35.7021 207.022 35.689C206.972 35.6759 206.909 35.6838 206.856 35.689C206.623 35.7151 206.39 35.7438 206.157 35.7726C205.924 35.8013 205.688 35.817 205.459 35.8614C205.176 35.9163 205.042 35.7464 204.845 35.6681C204.556 35.702 204.259 35.7229 203.973 35.7778C203.755 35.8196 203.652 35.7047 203.508 35.6446C203.458 35.6237 203.405 35.5793 203.36 35.5845C202.834 35.642 202.308 35.7047 201.786 35.7752C201.659 35.7909 201.574 35.77 201.469 35.7073C201.232 35.5662 201.222 35.5714 200.827 35.6237C200.654 35.6472 200.488 35.6681 200.34 35.561C200.209 35.4643 200.05 35.4408 199.863 35.4722C199.634 35.5113 199.398 35.5323 199.165 35.5584C198.932 35.5871 198.699 35.6263 198.466 35.6393C198.279 35.6524 198.167 35.5297 198.018 35.467C197.972 35.4487 197.909 35.446 197.856 35.4513C197.623 35.4748 197.383 35.4931 197.158 35.5375C196.882 35.5923 196.731 35.4487 196.537 35.3651C196.494 35.3468 196.424 35.3572 196.371 35.3651C195.962 35.4121 195.556 35.4643 195.147 35.514C195.002 35.4434 194.854 35.3755 194.709 35.305C194.476 35.3311 194.243 35.3598 194.011 35.386C193.834 35.4069 193.654 35.4147 193.488 35.4539C193.273 35.5061 193.167 35.3834 193.023 35.3233C192.973 35.3024 192.92 35.258 192.875 35.2632C192.582 35.2919 192.289 35.3233 192 35.3677C191.725 35.4121 191.615 35.177 191.389 35.1796C191.157 35.1822 190.917 35.2162 190.691 35.2632C190.43 35.3181 190.246 35.2345 190.059 35.1221C190.021 35.0986 189.954 35.0856 189.904 35.0908C189.611 35.1221 189.322 35.1613 189.029 35.1927C188.98 35.1979 188.92 35.1848 188.87 35.1692C188.313 35.015 188.313 35.0124 188.07 35.0438C187.897 35.0647 187.72 35.0908 187.544 35.1039C187.495 35.1091 187.435 35.0856 187.389 35.0647C187.022 34.9053 187.022 34.9027 186.757 34.934C186.524 34.9628 186.292 34.9915 186.059 35.0202C185.914 34.9497 185.766 34.8818 185.621 34.8113C185.332 34.8452 185.036 34.8713 184.75 34.9184C184.616 34.9393 184.528 34.9314 184.425 34.8661C184.298 34.7878 184.171 34.6963 183.96 34.7407C183.734 34.7878 183.494 34.793 183.265 34.8322C182.989 34.8792 182.877 34.6415 182.654 34.6441C182.421 34.6467 182.182 34.6806 181.956 34.7277C181.695 34.7825 181.511 34.699 181.324 34.5866C181.285 34.5631 181.218 34.5501 181.169 34.5553C180.527 34.631 179.888 34.7068 179.246 34.7877C178.851 34.8374 178.851 34.84 178.1 34.6963C178.047 34.6859 177.99 34.6754 177.937 34.6807C177.705 34.7042 177.465 34.7225 177.239 34.7669C176.964 34.8217 176.812 34.6806 176.618 34.5944C176.576 34.5762 176.509 34.5866 176.452 34.5918C176.276 34.6101 176.103 34.6336 175.926 34.6545C175.694 34.6833 175.461 34.712 175.228 34.7407C175.083 34.6728 174.935 34.6023 174.791 34.5344C174.501 34.5683 174.205 34.5866 173.919 34.6415C173.7 34.6833 173.598 34.5736 173.453 34.5109C173.404 34.49 173.351 34.4456 173.305 34.4482C172.78 34.5056 172.254 34.5657 171.732 34.6389C171.517 34.6702 171.418 34.5526 171.273 34.4926C171.224 34.4743 171.167 34.4403 171.122 34.4456C170.772 34.4821 170.423 34.5265 170.074 34.5709C169.876 34.5971 169.876 34.5971 169.446 34.4351C169.396 34.4168 169.34 34.3985 169.291 34.4037C168.183 34.5344 167.079 34.6728 165.971 34.8034C165.858 34.8165 165.756 34.7773 165.667 34.7068C165.576 34.6362 165.473 34.5997 165.36 34.6127C164.895 34.6676 164.426 34.7172 163.963 34.7852C163.773 34.8139 163.621 34.7799 163.491 34.6885C163.392 34.6206 163.3 34.5945 163.177 34.6101C162.944 34.6415 162.711 34.6676 162.478 34.6963C162.245 34.7251 162.012 34.7538 161.78 34.7825C161.547 34.8113 161.31 34.8269 161.081 34.8714C160.799 34.9262 160.661 34.7643 160.467 34.6833C160.118 34.7225 159.769 34.7616 159.423 34.8034C158.957 34.8583 158.492 34.9184 158.026 34.9706C157.984 34.9758 157.931 34.9288 157.881 34.9053C157.737 34.84 157.631 34.7486 157.416 34.7773C156.371 34.9158 155.32 35.0333 154.272 35.1692C154.053 35.1979 153.958 35.0856 153.81 35.0255C153.761 35.0072 153.704 34.9706 153.658 34.9759C153.076 35.0412 152.494 35.1143 151.912 35.1848C151.676 35.2136 151.676 35.2135 151.281 35.0516C151.235 35.0333 151.175 35.0098 151.125 35.015C150.367 35.1038 149.612 35.1979 148.853 35.2893C148.74 35.3024 148.638 35.2658 148.546 35.1953C148.458 35.1247 148.352 35.0856 148.243 35.0986C147.544 35.1822 146.842 35.2632 146.147 35.3546C145.96 35.3807 145.805 35.3572 145.671 35.2632C145.576 35.1953 145.481 35.1665 145.361 35.1822C144.313 35.3102 143.265 35.433 142.217 35.5688C142.016 35.595 141.875 35.5453 141.748 35.4591C141.646 35.3912 141.558 35.3781 141.431 35.3886C141.296 35.4016 141.215 35.4304 141.141 35.5087C141.046 35.6106 140.986 35.7386 140.76 35.7465C140.527 35.7543 140.291 35.7857 140.062 35.8301C139.843 35.8745 139.741 35.7569 139.603 35.6864C139.501 35.6367 139.406 35.6289 139.275 35.6524C139.155 35.6733 139.081 35.7177 139.01 35.8013C138.855 35.9789 138.841 35.9789 138.651 35.8666C138.548 35.8065 138.457 35.7595 138.344 35.77C137.878 35.8222 137.412 35.8797 136.947 35.9398C136.678 35.9737 136.675 35.979 136.474 35.8483C136.375 35.783 136.28 35.7517 136.163 35.7673C134.883 35.9241 133.602 36.0756 132.322 36.2402C132.124 36.2663 131.99 36.2114 131.849 36.1331C131.803 36.1069 131.757 36.0704 131.704 36.0599C131.651 36.0495 131.591 36.0599 131.535 36.0652C130.603 36.1775 129.668 36.2846 128.741 36.41C128.529 36.4387 128.416 36.3551 128.271 36.2872C128.222 36.2637 128.18 36.2271 128.127 36.2167C128.074 36.2088 128.01 36.2271 127.954 36.235C127.023 36.3473 126.088 36.4544 125.16 36.5798C124.938 36.6085 124.842 36.4988 124.698 36.4413C124.648 36.4204 124.595 36.3812 124.55 36.3865C124.257 36.4152 123.967 36.4544 123.675 36.4883C122.976 36.5745 122.277 36.6555 121.579 36.7444C121.311 36.7783 121.194 36.5458 120.969 36.5563C120.676 36.5693 120.387 36.6216 120.094 36.6581C119.861 36.6869 119.628 36.713 119.395 36.7444C119.166 36.7731 119.166 36.7731 118.594 36.6216C118.545 36.6085 118.485 36.5902 118.436 36.5954C117.621 36.6921 116.802 36.7888 115.991 36.8933C115.804 36.9168 115.649 36.9037 115.514 36.8071C115.419 36.7391 115.32 36.7052 115.204 36.7208C113.98 36.8697 112.759 37.0187 111.535 37.1649C111.489 37.1702 111.429 37.144 111.383 37.1231C111.285 37.0761 111.189 37.0213 111.094 36.9716C111.023 37.0317 110.932 37.0866 110.886 37.1545C110.822 37.2459 110.738 37.272 110.604 37.2877C110.47 37.3034 110.385 37.2982 110.279 37.2302C110.152 37.1467 110.022 37.0813 109.813 37.1074C108.533 37.272 107.252 37.4209 105.971 37.5829C105.76 37.609 105.661 37.4941 105.513 37.434C105.464 37.4157 105.407 37.387 105.361 37.3922C104.835 37.4523 104.313 37.5176 103.788 37.5803C102.331 37.7579 100.874 37.9277 99.4202 38.1158C99.1556 38.1498 98.9757 38.0844 98.7887 37.9721C98.7499 37.9486 98.6829 37.9356 98.6335 37.9408C96.5943 38.1863 94.5552 38.4345 92.5196 38.6827C92.4102 38.6957 92.3043 38.6539 92.2161 38.586C92.1244 38.5155 92.0221 38.4815 91.9092 38.4946C90.9779 38.6069 90.0465 38.7192 89.1152 38.8342C88.8823 38.8629 88.8788 38.8655 88.6389 38.7401C88.5895 38.714 88.5366 38.6644 88.4978 38.6696C88.4166 38.6827 88.339 38.748 88.2825 38.8368C88.2261 38.9308 88.1379 38.9569 88.0073 38.9752C87.8733 38.9935 87.7851 38.9857 87.6828 38.923C87.5523 38.8446 87.4323 38.7689 87.2206 38.795C84.5429 39.1294 81.8652 39.4506 79.1876 39.7824C78.9724 39.8085 78.8736 39.6988 78.7254 39.6388C78.676 39.6205 78.6266 39.5943 78.5737 39.5891C78.5173 39.5839 78.4573 39.5996 78.4008 39.6074C74.0333 40.1377 69.6658 40.6706 65.2982 41.2009C65.0371 41.2322 65.0407 41.2322 64.7549 41.4726C64.7196 41.5013 64.6737 41.5405 64.6243 41.5457C63.2872 41.7129 61.9467 41.8748 60.6061 42.0368C60.024 42.1073 59.4419 42.1805 58.8598 42.2484C58.6516 42.2719 58.6516 42.2719 58.1542 42.5541C58.1118 42.5776 58.0624 42.6089 58.013 42.6141C55.6846 42.8989 53.3561 43.1836 51.0242 43.4631C50.8407 43.484 50.6926 43.531 50.6079 43.6564C50.5479 43.7452 50.4703 43.7975 50.3539 43.8132C48.724 44.0117 47.0942 44.2128 45.4608 44.4062C45.2667 44.4297 45.1502 44.5028 45.055 44.6125C45.0232 44.6491 44.995 44.6909 44.9491 44.717C44.9068 44.7405 44.8433 44.7484 44.7904 44.7562C43.3933 44.926 41.9963 45.101 40.5957 45.263C40.3876 45.2865 40.3029 45.3831 40.2006 45.485C40.1653 45.519 40.1406 45.566 40.0947 45.5895C40.0489 45.6104 39.9818 45.6104 39.9254 45.6156C38.7612 45.7567 37.597 45.9004 36.4328 46.0414C36.207 46.0284 36.1576 46.1799 36.0482 46.2713C36.0094 46.3027 35.9812 46.3445 35.9354 46.3654C35.886 46.3863 35.8224 46.3836 35.7624 46.3889C34.8311 46.5012 33.8997 46.6214 32.9648 46.7259C32.7496 46.7494 32.7073 46.8826 32.5908 46.974C32.552 47.0027 32.5133 47.0472 32.4674 47.055C31.8853 47.1308 31.3032 47.2013 30.7211 47.2692C30.5271 47.2927 30.5271 47.2901 30.1849 47.5487C30.1461 47.5775 30.1001 47.6088 30.0508 47.6166C29.1794 47.7264 28.3045 47.8308 27.4295 47.938C27.3166 47.951 27.239 48.0137 27.1826 48.1025C27.1262 48.1913 27.045 48.2488 26.9321 48.2619C26.2336 48.3481 25.535 48.4369 24.8365 48.5153C24.6425 48.5362 24.5155 48.6015 24.4308 48.719C24.3673 48.8078 24.2897 48.8522 24.1662 48.8679C23.4677 48.9515 22.7692 49.0429 22.0671 49.1161C21.8625 49.137 21.7566 49.2258 21.672 49.3355C21.6049 49.4243 21.5273 49.4557 21.3968 49.4714C20.1161 49.6229 18.832 49.7744 17.5549 49.9415C17.3397 49.9703 17.2303 49.8789 17.0892 49.8135C16.8881 49.7221 16.7012 49.6228 16.7012 49.4191C16.7012 49.3877 16.6412 49.3512 16.5989 49.3251C16.2849 49.1291 16.2849 49.1292 16.2355 48.9202C16.2072 48.7922 16.1755 48.6616 16.1508 48.5309C16.1049 48.3167 15.992 48.2619 15.6674 48.3011C15.551 48.3141 15.4346 48.3324 15.3182 48.3428C15.1453 48.3611 15.0148 48.2749 14.983 48.1182C14.9654 48.032 14.9443 47.9458 14.9266 47.8596C15.103 47.8387 15.0995 47.8361 15.4099 47.52C15.5404 47.3868 15.5405 47.3868 15.29 47.2535C15.1948 47.2039 15.103 47.149 15.0007 47.102C14.9548 47.0811 14.8949 47.0681 14.8455 47.0733C14.5527 47.1046 14.2634 47.1412 13.9741 47.1778C13.5084 47.2352 13.5084 47.2352 13.0356 46.9688C12.9968 46.9479 12.9368 46.9087 12.9439 46.8878C12.9827 46.7912 13.0779 46.7493 13.1979 46.7389C13.3743 46.7232 13.5472 46.6971 13.72 46.6762C13.8364 46.6631 13.9529 46.6475 14.0693 46.6344C14.1786 46.5352 14.2916 46.4385 14.3939 46.3366C14.5562 46.1799 14.5561 46.1747 14.3339 46.0649C14.1928 45.9918 14.0411 45.9265 13.8964 45.8586C13.7236 45.8795 13.5472 45.903 13.3743 45.9213C13.1556 45.9448 13.0674 45.8951 13.0109 45.7253C12.9615 45.5764 13.0215 45.4484 13.1908 45.4171C13.3637 45.3858 13.5261 45.3649 13.6143 45.2316C13.6989 45.1036 13.8471 45.054 14.0305 45.0435C14.1469 45.0357 14.2634 45.0174 14.3798 45.0018C14.5315 44.9809 14.6127 44.8476 14.5809 44.6987C14.5633 44.6021 14.528 44.5211 14.3904 44.5002C13.78 44.4088 13.773 44.4114 13.4696 44.2337C13.4413 44.2181 13.4202 44.1711 13.4308 44.1475C13.4484 44.1084 13.4873 44.0509 13.5296 44.043C13.9353 43.9856 14.341 43.9333 14.7467 43.8942C14.8808 43.8811 14.9796 43.8628 15.0254 43.7661C15.0889 43.6329 15.0607 43.5101 14.9372 43.4187C14.8984 43.39 14.8349 43.3534 14.7925 43.356C14.3268 43.403 13.8647 43.4631 13.399 43.5101C13.3567 43.5154 13.2791 43.471 13.2615 43.437C13.2262 43.3743 13.2791 43.2907 13.4025 43.262C13.5648 43.2228 13.7306 43.2202 13.84 43.0896C13.9917 42.9041 14.1787 42.7343 14.348 42.5567C14.3762 42.5253 14.4222 42.4652 14.4116 42.46C14.3234 42.4025 14.221 42.3581 14.1293 42.3033C13.9741 42.2118 13.9741 42.0838 14.0093 41.9611C14.0376 41.8618 14.1434 41.8226 14.2739 41.8226C14.3304 41.8226 14.4009 41.8226 14.4468 41.7991C14.5667 41.7416 14.6056 41.6685 14.5456 41.6136C14.5103 41.5823 14.4468 41.5379 14.4045 41.5431C13.6495 41.6293 12.891 41.7129 12.1395 41.82C11.9173 41.8513 11.815 41.7521 11.681 41.6815C11.5787 41.6267 11.4833 41.6058 11.3563 41.645C11.2364 41.6815 11.12 41.6607 11.0459 41.5745C10.9859 41.5039 11.0918 41.4438 11.3775 41.3759C11.4304 41.3629 11.4904 41.355 11.5292 41.3289C11.9384 41.0468 11.9384 41.0442 12.2207 41.0076C12.4958 40.9736 12.4959 40.971 12.6405 40.8195C12.7076 40.749 12.7816 40.6784 12.8451 40.6053C12.8698 40.5765 12.9122 40.5243 12.8981 40.5086C12.8205 40.4277 12.7146 40.4094 12.5911 40.4277C12.3159 40.4721 11.9914 40.4355 11.8468 40.6837C11.7903 40.7777 11.7021 40.8038 11.5751 40.8195C10.298 40.971 9.02086 41.133 7.74022 41.2793C7.53208 41.3028 7.43688 41.3994 7.35574 41.5065C7.28518 41.5954 7.20755 41.6215 7.07349 41.6371C6.93943 41.6528 6.83354 41.6607 6.75592 41.5745C6.71006 41.5222 6.74888 41.4491 6.85471 41.3759C7.00641 41.2714 6.97818 41.1408 6.92879 41.018C6.89351 40.9371 6.78415 40.8796 6.66772 40.8848C6.49486 40.8953 6.32909 40.924 6.18444 40.8195C6.09978 40.7594 5.99392 40.7176 5.89866 40.6654C5.71521 40.5583 5.53175 40.4486 5.27422 40.5191C5.09782 40.493 4.97434 40.3989 4.83323 40.3258C4.59686 40.2056 4.57569 40.1873 4.74503 40.0593C4.93554 39.9156 4.78734 39.7276 4.89317 39.5865C5.00607 39.435 5.16135 39.3018 5.29893 39.1607C5.33421 39.1241 5.36598 39.0902 5.40126 39.0536C5.32012 39.0014 5.24604 38.9361 5.15079 38.8995C5.02731 38.8525 4.96381 38.795 4.97086 38.633C4.94617 38.6095 4.95668 38.6696 4.9849 38.6853C5.01665 38.7009 5.09433 38.6879 5.13313 38.6696C5.23191 38.62 5.28125 38.5547 5.25656 38.4998C5.24245 38.4711 5.17547 38.4345 5.13313 38.4345C5.05552 38.4345 4.9885 38.492 4.96733 38.633C4.57221 38.7401 4.1629 38.7924 3.75366 38.8342C3.71133 38.8394 3.65844 38.7872 3.60905 38.761C3.44677 38.6722 3.44675 38.6748 2.97048 38.6487C2.92109 38.6461 2.85409 38.6095 2.82939 38.573C2.72709 38.4136 2.73064 38.2386 2.68125 38.0688C2.77298 37.9591 2.86463 37.852 2.95988 37.7449C3.15039 37.528 3.3974 37.3373 3.54557 37.0996C3.51382 36.9716 3.47148 36.8436 3.62671 36.7391C4.0677 36.6085 4.0642 36.6085 4.18414 36.4831C4.52635 36.1279 4.86501 35.77 5.22133 35.4199C5.31659 35.3285 5.3166 35.2789 5.14726 35.2397C5.09434 35.2292 5.03782 35.2266 4.98137 35.2318C4.80498 35.2501 4.62858 35.2971 4.45572 35.2867C4.28285 35.2789 4.15584 35.1639 4.01473 35.0934C3.87008 35.0202 3.72544 34.9445 3.5808 34.8687C3.41499 34.8766 3.24921 34.9497 3.08339 34.8322C2.95639 34.7407 2.79764 34.6754 2.653 34.5997C2.76236 34.4011 2.96701 34.2496 3.12577 34.0746C3.27042 33.9152 3.27386 33.9179 3.66193 33.7951C3.84539 33.7376 3.90889 33.4424 3.75366 33.3562C3.56668 33.2517 3.36916 33.1551 3.17865 33.0558C3.01284 33.0636 2.84354 33.1342 2.68478 33.0166C2.5613 32.9278 2.42016 32.8677 2.21554 32.9017C1.86981 32.9592 1.51702 32.9879 1.16776 33.0349C1.04781 33.0506 0.917241 33.0402 0.864322 32.9513C0.829043 32.8886 0.931359 32.8024 1.04778 32.7841C1.22418 32.758 1.38292 32.7267 1.47111 32.5961C1.55578 32.4655 1.71099 32.4263 1.89445 32.408C1.94384 32.4027 2.00032 32.3714 2.02502 32.34C2.15202 32.1885 2.29315 32.0579 2.5648 32.0632C2.67769 32.0109 2.73763 31.9456 2.70235 31.8829C2.68118 31.8489 2.60714 31.8046 2.5648 31.8098C2.27198 31.8359 1.97918 31.862 1.69342 31.909C1.55936 31.9299 1.45699 31.9351 1.37232 31.8568C1.31235 31.8045 1.34409 31.734 1.45699 31.6582C1.55577 31.5929 1.58402 31.5172 1.57697 31.4284C1.55933 31.222 1.45347 31.1619 1.11479 31.175C0.871364 31.1854 0.811386 31.1515 0.758467 30.9738C0.744356 30.932 0.709138 30.8746 0.733834 30.8458C0.885534 30.6682 0.984323 30.4488 1.27008 30.3652C1.38298 30.3338 1.50288 30.3338 1.57344 30.2659C1.64399 30.198 1.70753 30.1196 1.78161 30.0543C1.87334 29.9759 1.93678 29.9028 1.89445 29.8532C1.82389 29.7644 1.71103 29.7565 1.5805 29.7879C1.46761 29.814 1.34766 29.8166 1.23124 29.8323C1.02309 29.861 0.85379 29.7931 0.829094 29.6782C0.762064 29.3751 0.691485 29.0747 0.631511 28.7717C0.624455 28.7351 0.642046 28.6881 0.670269 28.6567C0.769051 28.547 0.87493 28.4425 0.977239 28.3354C1.09719 28.2127 1.28773 28.2362 1.45001 28.2127C1.67933 28.1787 1.67925 28.1813 1.98617 27.9305C2.10612 27.8313 2.31428 27.8705 2.43776 27.7816C2.47657 27.7529 2.53654 27.7059 2.52596 27.6798C2.51184 27.6458 2.44132 27.6197 2.38841 27.604C2.33901 27.5883 2.27905 27.5805 2.22614 27.5883C1.58405 27.6641 0.945519 27.7451 0.303439 27.8182C0.194073 27.8313 0.0741207 27.7738 0.0353136 27.6928C-0.00349346 27.6171 0.00705583 27.5256 0 27.4394C0.10231 27.3323 0.218686 27.2331 0.306884 27.1181C0.373914 27.0293 0.451542 26.9901 0.585603 26.9849C0.761999 26.977 0.934884 26.9457 1.13245 26.9222C1.49935 26.5408 1.85917 26.1411 2.2543 25.7597C2.41306 25.6056 2.37431 25.4489 2.40606 25.2843C2.43781 25.1328 2.67417 25.1563 2.83293 25.1119C2.95993 25.0753 3.00221 24.9917 2.95282 24.9343C2.9246 24.9003 2.86113 24.8611 2.81174 24.8611C2.69532 24.8611 2.5789 24.8846 2.46248 24.8977C2.34606 24.9107 2.212 24.9029 2.11675 24.9473C2.02502 24.9891 1.96501 25.0779 1.90504 25.1537C1.83801 25.2373 1.74987 25.266 1.61581 25.2712C1.44294 25.2765 1.27009 25.3 1.09722 25.3183C0.906712 25.2164 0.709107 25.1171 0.525656 25.01C0.490377 24.9891 0.483283 24.9291 0.486811 24.8899C0.493867 24.788 0.440962 24.7253 0.324541 24.6756C0.225759 24.6338 0.14461 24.5738 0.0528843 24.5215C0.123443 24.451 0.201084 24.3831 0.257531 24.3073C0.381008 24.148 0.536253 24.033 0.804375 24.0383C0.910212 23.9364 0.994858 23.811 1.13245 23.7405C1.26298 23.6725 1.48525 23.7404 1.58403 23.5863C1.63342 23.5106 1.70755 23.4244 1.8028 23.393C1.9545 23.3434 2.15206 23.3695 2.24026 23.2232C2.29318 23.1396 2.37076 23.0639 2.47307 23.043C2.58949 23.0195 2.70941 23.0143 2.79408 22.9646C2.83994 22.9385 2.88934 22.8967 2.88934 22.8601C2.88934 22.8366 2.81884 22.8 2.76945 22.7844C2.72358 22.7661 2.66354 22.753 2.61062 22.7582C2.43423 22.7739 2.26136 22.8026 2.08497 22.8183C2.03558 22.8235 1.97915 22.8053 1.92623 22.7896C1.771 22.7478 1.78156 22.6956 1.90504 22.6015C2.02852 22.5101 2.11676 22.3925 2.21907 22.2854C2.33197 22.2671 2.47306 22.275 2.55068 22.2253C2.68121 22.1444 2.77291 22.0268 2.87875 21.9249C2.99517 21.9092 3.11511 21.904 3.22448 21.8753C3.27034 21.8648 3.29152 21.8074 3.33033 21.7734C3.40089 21.7081 3.46091 21.6141 3.55617 21.5827C3.71139 21.5357 3.9019 21.554 3.99362 21.4103C4.04654 21.3267 4.12765 21.2379 4.22644 21.2327C4.50161 21.2222 4.61804 21.0785 4.75915 20.9427C4.86499 20.8408 5.09078 20.8931 5.20721 20.7912C5.28482 20.7259 5.3413 20.6449 5.41892 20.5822C5.45067 20.5561 5.51767 20.543 5.57059 20.5352C5.85988 20.496 6.15269 20.4673 6.44198 20.4255C6.48784 20.4176 6.53021 20.3785 6.56549 20.3471C6.63957 20.2792 6.68538 20.1852 6.77711 20.1407C6.86884 20.0963 6.99935 20.0963 7.11225 20.0833C7.47562 20.0441 7.50387 20.0545 7.66968 19.8325C7.80374 19.6522 8.13188 19.7802 8.24125 19.5817C8.30475 19.4668 8.42112 19.3727 8.62927 19.3597C8.92208 19.3414 9.21136 19.2918 9.50418 19.2578C9.76525 19.2264 9.76173 19.2264 10.044 18.9835C10.171 18.8738 10.358 18.8895 10.5238 18.8686C10.7002 18.8477 10.8625 18.8163 10.9471 18.6857C11.0318 18.5577 11.187 18.5159 11.3669 18.4976C11.5327 18.4793 11.7198 18.4924 11.8503 18.3879C12.1678 18.1371 12.1643 18.1345 12.3865 18.1084C12.7358 18.0666 13.0851 18.0248 13.4343 17.9804C13.6672 17.9517 13.9106 17.9464 14.1293 17.889C14.2881 17.8472 14.3586 17.7009 14.4609 17.599C14.7502 17.5598 15.0395 17.5206 15.3288 17.484C15.7345 17.4318 16.1437 17.3848 16.5529 17.3352C16.7293 17.2359 16.7541 17.0165 17.0504 17.006C17.2268 17.0008 17.3997 16.9668 17.5761 16.9459C17.8689 16.9094 18.1582 16.8623 18.451 16.8441C18.6733 16.831 18.712 16.6899 18.8284 16.6011C18.8672 16.5698 18.9026 16.5254 18.9484 16.5175C19.407 16.4444 19.8798 16.4287 20.3278 16.3216C20.3737 16.3112 20.416 16.2563 20.4266 16.2171C20.4336 16.1962 20.3737 16.157 20.3349 16.1388C20.289 16.1179 20.229 16.097 20.1797 16.1022C18.7226 16.2772 17.2656 16.4548 15.8086 16.6299C15.604 16.656 15.604 16.6534 15.1066 16.9407C15.0642 16.9642 15.0148 16.9903 14.9619 16.9982C14.729 17.0295 14.4927 17.0478 14.2633 17.087C14.0764 17.1184 13.9212 17.087 13.7871 16.9929C13.6919 16.925 13.593 16.9041 13.4731 16.9094C13.339 16.9172 13.2509 16.9459 13.1733 17.0165C13.071 17.1131 13.018 17.2385 12.8028 17.2646C11.8115 17.377 10.8201 17.5023 9.83225 17.6225C9.69466 17.5859 9.62764 17.5311 9.66292 17.4658C9.68409 17.4266 9.72644 17.3743 9.76878 17.3691C10.1745 17.3143 10.5837 17.2673 10.9894 17.215C11.0459 17.2072 11.1235 17.2124 11.1552 17.1862C11.3105 17.0687 11.367 16.878 11.6598 16.8649C11.8291 16.8571 12.002 16.8179 12.1642 16.7814C12.2101 16.7709 12.2525 16.716 12.263 16.6769C12.2666 16.656 12.2101 16.6168 12.1678 16.5985C12.0125 16.5227 11.8327 16.6142 11.6774 16.5619C11.6245 16.5437 11.5504 16.5175 11.5398 16.4862C11.5327 16.4574 11.5927 16.4104 11.6351 16.3817C11.6739 16.3556 11.7268 16.3321 11.7797 16.3242C12.2454 16.2641 12.7111 16.2014 13.1768 16.1544C13.3673 16.1361 13.5013 16.0708 13.586 15.9506C13.6495 15.8618 13.7271 15.8148 13.8471 15.8018C14.662 15.7051 15.4769 15.598 16.2954 15.5092C16.5 15.4883 16.6059 15.4021 16.6906 15.2898C16.7576 15.2009 16.8352 15.1696 16.9658 15.1539C18.1335 15.0181 19.2942 14.8666 20.4619 14.736C20.6771 14.7125 20.7406 14.6001 20.85 14.5035C20.8888 14.4695 20.9135 14.4277 20.9628 14.4068C21.0122 14.3859 21.0757 14.3885 21.1357 14.3833C22.0671 14.271 22.9985 14.1508 23.9334 14.0463C24.1521 14.0228 24.1944 13.8922 24.3073 13.8007C24.3461 13.772 24.3814 13.725 24.4273 13.7172C25.1258 13.6284 25.8243 13.5448 26.5228 13.4586C26.9885 13.4011 27.4542 13.3436 27.9199 13.2888C28.1492 13.2626 28.1492 13.26 28.4597 13.0118C28.4949 12.9831 28.5444 12.9491 28.5902 12.9413C29.9308 12.7741 31.2679 12.6148 32.6085 12.4502C32.7214 12.4372 32.8025 12.3771 32.859 12.2882C32.9154 12.1994 32.9966 12.1393 33.106 12.1263C34.1538 11.9957 35.2015 11.8677 36.2529 11.7449C36.4434 11.724 36.5774 11.6613 36.6621 11.5437C36.7256 11.4549 36.8032 11.4079 36.9231 11.3949C37.9709 11.2695 39.0188 11.1362 40.0701 11.0161C40.2712 10.9925 40.3699 10.9037 40.4687 10.7992C40.504 10.7627 40.5322 10.7026 40.5746 10.6974C41.0967 10.6242 41.6153 10.5485 42.1409 10.4988C42.3597 10.4779 42.4338 10.3682 42.522 10.2637C42.5925 10.1801 42.6737 10.1514 42.8078 10.141C43.1006 10.1174 43.3898 10.0731 43.6756 10.0286C43.7179 10.0208 43.7709 9.96333 43.7744 9.92676C43.7815 9.85884 43.7003 9.81181 43.5662 9.7883C42.1692 9.9581 40.7686 10.1279 39.3716 10.2977C39.1423 10.3264 39.1422 10.3264 38.8318 10.5746C38.7965 10.6033 38.7471 10.6373 38.6977 10.6451C37.3571 10.8097 36.02 10.9717 34.6794 11.1362C34.5665 11.1493 34.4854 11.2094 34.429 11.2982C34.3725 11.387 34.2913 11.4471 34.1819 11.4602C32.9013 11.6169 31.6207 11.7763 30.3365 11.9252C30.146 11.9461 30.012 12.0061 29.9273 12.1263C29.8638 12.2151 29.7862 12.2621 29.6663 12.2752C28.4421 12.4215 27.2214 12.5756 25.9937 12.7167C25.8702 12.7297 25.7785 12.654 25.7856 12.5834C25.7891 12.5468 25.8419 12.4868 25.8843 12.4816C26.5228 12.3954 27.1579 12.3065 27.8 12.2412C28.0152 12.2203 28.0786 12.1054 28.188 12.0087C28.2233 11.9748 28.2515 11.9304 28.2974 11.9121C28.3468 11.8912 28.4103 11.8938 28.4703 11.8886C29.9837 11.7031 31.4973 11.515 33.0143 11.34C33.233 11.3139 33.2753 11.1859 33.3881 11.0944C33.427 11.0631 33.4623 11.0161 33.5081 11.0109C33.9738 10.9482 34.4395 10.8933 34.9052 10.8384C35.7201 10.7392 36.535 10.6399 37.3535 10.5406C37.5899 10.5119 37.5899 10.5119 37.8933 10.2663C37.9286 10.2376 37.978 10.2011 38.0239 10.1958C40.1794 9.93199 42.335 9.66815 44.4906 9.40692C44.6035 9.39386 44.6846 9.33378 44.741 9.24496C44.7975 9.15876 44.8786 9.09606 44.988 9.08039C47.902 8.72512 50.8126 8.36983 53.7266 8.01979C53.9171 7.99628 54.0512 7.94141 54.1358 7.81864C54.1958 7.72982 54.277 7.68281 54.3969 7.66714C57.6002 7.27791 60.8036 6.88868 64.0105 6.49684C66.166 6.23562 68.3216 5.96916 70.4772 5.71316C70.6747 5.68965 70.7805 5.60865 70.8793 5.50155C70.9111 5.46498 70.9428 5.40489 70.9852 5.39967C71.4473 5.33436 71.9095 5.27429 72.3716 5.21421C72.5163 5.28474 72.6609 5.35267 72.8055 5.4232C72.9149 5.32394 73.0208 5.22205 73.1302 5.12279C73.8287 5.04703 74.5166 4.92948 75.2222 4.8929C75.2681 4.89029 75.3174 4.93993 75.3668 4.96605C75.6949 5.13063 75.8819 5.11756 76.09 4.89813C76.1641 4.81977 76.2276 4.74923 76.3405 4.73617C76.6898 4.68915 77.0426 4.6578 77.3884 4.60294C77.5754 4.57421 77.7305 4.60033 77.8646 4.69437C77.9598 4.76229 78.0587 4.79104 78.1751 4.77536C78.8172 4.697 79.4557 4.62123 80.0978 4.53764C80.1437 4.53241 80.1859 4.48799 80.2212 4.45664C80.2953 4.38872 80.3588 4.3156 80.4294 4.24506C80.5247 4.28947 80.6305 4.32344 80.7081 4.38091C80.8069 4.44883 80.8986 4.44881 81.0327 4.43053C83.5939 4.11444 86.1587 3.8062 88.72 3.4875C88.9387 3.46138 89.034 3.5711 89.1822 3.62857C89.2316 3.64947 89.2809 3.67558 89.3338 3.6808C89.3903 3.68603 89.4503 3.67037 89.5067 3.66253C91.4294 3.42743 93.3522 3.19492 95.2749 2.95981C95.5289 2.92847 95.5289 2.92847 95.9064 3.09043C95.9523 3.11133 96.0122 3.13484 96.0616 3.127C96.9365 3.02513 97.8114 2.91542 98.6828 2.81093C98.7957 2.79787 98.891 2.83966 98.9933 2.89974C99.1944 3.01729 99.2085 3.0173 99.3566 2.84489C99.4272 2.76391 99.5013 2.71425 99.6177 2.69074C99.7447 2.66462 99.8471 2.67249 99.9458 2.71951C100.087 2.78481 100.189 2.89451 100.404 2.86578C101.336 2.743 102.271 2.64113 103.199 2.51574C103.41 2.48701 103.523 2.57582 103.664 2.64113C103.714 2.66464 103.76 2.70121 103.812 2.70905C103.865 2.71688 103.929 2.69858 103.985 2.69074C105.15 2.54968 106.317 2.41126 107.478 2.25974C107.697 2.23101 107.792 2.34331 107.94 2.40078C107.989 2.42168 108.046 2.45827 108.092 2.45305C108.79 2.37207 109.492 2.28584 110.191 2.19963C110.441 2.16829 110.441 2.1709 110.822 2.33025C110.868 2.35115 110.928 2.37205 110.978 2.36682C111.793 2.27017 112.611 2.1709 113.426 2.07164C113.676 2.04029 113.676 2.04029 114.4 2.17613C114.453 2.18658 114.509 2.20228 114.562 2.19705C115.493 2.08472 116.428 1.97499 117.36 1.85483C117.547 1.83132 117.702 1.85221 117.836 1.94625C117.931 2.01417 118.03 2.04292 118.146 2.02725C119.194 1.89925 120.245 1.77647 121.29 1.64064C121.491 1.61451 121.621 1.67196 121.762 1.74772C121.808 1.77384 121.854 1.81042 121.907 1.82087C121.96 1.83132 122.02 1.82086 122.076 1.81302C123.124 1.68502 124.176 1.56486 125.22 1.42641C125.431 1.39768 125.544 1.48649 125.686 1.5518C125.735 1.57531 125.788 1.62233 125.83 1.61972C126.239 1.57531 126.649 1.53614 127.054 1.47083C127.273 1.43426 127.368 1.5544 127.516 1.61187C127.566 1.63016 127.622 1.66936 127.668 1.66414C128.543 1.56226 129.418 1.45516 130.289 1.34545C130.413 1.32977 130.505 1.35326 130.603 1.42118C130.734 1.51261 130.886 1.54918 131.076 1.52045C131.482 1.46037 131.891 1.41858 132.3 1.36895C132.54 1.34021 132.54 1.34022 133.274 1.47606C133.327 1.48651 133.383 1.50217 133.436 1.49695C134.135 1.41336 134.837 1.33238 135.532 1.24095C135.719 1.21483 135.874 1.23833 136.008 1.33237C136.103 1.40029 136.199 1.42904 136.319 1.41337C136.961 1.335 137.599 1.25663 138.241 1.17826C138.474 1.14952 138.707 1.09988 138.94 1.09988C139.109 1.10249 139.233 1.22787 139.384 1.29057C139.427 1.30885 139.497 1.28798 139.554 1.28276C140.369 1.18349 141.187 1.09205 141.999 0.979723C142.21 0.950988 142.323 1.0398 142.464 1.10511C142.514 1.12862 142.567 1.17564 142.609 1.17303C142.902 1.14429 143.191 1.10511 143.484 1.07115C143.833 1.02935 144.186 0.998003 144.532 0.940533C144.814 0.893512 144.92 1.12077 145.145 1.12861C145.318 1.13645 145.495 1.09204 145.668 1.07115C146.017 1.02935 146.366 0.982334 146.715 0.945762C146.839 0.932701 146.934 0.890887 146.973 0.796845C146.98 0.778559 146.92 0.739391 146.881 0.715881C146.412 0.449429 146.412 0.449416 145.939 0.506886C145.646 0.543458 145.357 0.580036 145.064 0.611384C145.015 0.616608 144.958 0.595711 144.909 0.580038C144.768 0.535629 144.782 0.483389 144.902 0.389347C145.022 0.295305 145.114 0.180375 145.216 0.0732718C145.361 0.141191 145.502 0.209086 145.646 0.277005C145.763 0.263944 145.879 0.248293 145.996 0.235232C146.578 0.167312 147.16 0.0967759 147.742 0.0340814C147.784 0.0288568 147.837 0.0811099 147.887 0.107233C148.028 0.182989 148.155 0.248278 148.359 0.219543C148.882 0.143787 149.407 0.0889289 149.929 0.0236221C150.159 -0.00511295 150.159 -0.0051104 150.561 0.156851C150.607 0.175136 150.667 0.196036 150.716 0.190811C151.242 0.130729 151.764 0.0654299 152.289 0.00273535C152.402 -0.010326 152.512 0.0236323 152.593 0.0993882C152.625 0.130735 152.618 0.182971 152.752 0.611384C153.168 0.958816 153.454 0.922262 153.743 0.890915C153.867 0.877853 153.976 0.864779 154.057 0.812534C154.099 0.783799 154.152 0.741996 154.152 0.708036C154.152 0.681914 154.075 0.64011 154.025 0.634885C153.676 0.58264 153.344 0.69237 153.002 0.715881C152.843 0.72633 152.706 0.634899 152.678 0.486C152.671 0.444203 152.66 0.399797 152.649 0.358001C152.639 0.316204 152.632 0.271798 152.621 0.230002C152.484 0.21694 152.402 0.263954 152.342 0.352771C152.293 0.425915 152.222 0.509507 152.127 0.548692C152.032 0.590488 151.901 0.582665 151.785 0.595726C151.672 0.608788 151.549 0.642744 151.443 0.624458C151.337 0.603559 151.252 0.527791 151.154 0.48077C151.108 0.457259 151.051 0.423313 151.005 0.428537C150.6 0.472946 150.197 0.517338 149.795 0.574808C149.584 0.606155 149.478 0.496456 149.344 0.428537C149.238 0.376292 149.132 0.389336 149.114 0.509501C149.068 0.796851 149.231 0.917009 149.591 0.862152C149.887 0.815131 150.155 0.807318 150.388 0.984953C150.42 1.00846 150.494 1.01891 150.54 1.01368C150.829 0.982337 151.115 0.943149 151.404 0.911801C151.457 0.906577 151.513 0.917009 151.563 0.927458C152.282 1.06852 152.282 1.07115 152.526 1.0398C152.642 1.02413 152.755 1.01106 152.745 0.613998C152.967 0.188198 153.32 0.159468 153.662 0.0967734C153.884 0.0575893 153.979 0.172534 154.124 0.232617C154.173 0.253515 154.226 0.295304 154.272 0.290079C155.031 0.203874 155.786 0.112432 156.541 0.0157776C156.668 0.000103942 156.759 0.0157801 156.858 0.0836992C156.985 0.169904 157.126 0.224773 157.327 0.193426C157.73 0.130732 158.139 0.0915565 158.548 0.039311C158.756 0.0131883 158.756 0.0131615 159.176 0.175122C159.222 0.193408 159.282 0.214308 159.331 0.209083C159.74 0.164675 160.146 0.109833 160.552 0.0628125C160.665 0.0497512 160.767 0.0863192 160.855 0.156851C160.943 0.227382 161.049 0.26395 161.159 0.250889C161.568 0.203868 161.974 0.151639 162.379 0.104618C162.429 0.0993933 162.489 0.117678 162.535 0.135964C162.965 0.297925 162.965 0.297898 163.163 0.271775C163.452 0.232591 163.748 0.214326 164.034 0.16208C164.313 0.109835 164.457 0.261334 164.648 0.344927C165.17 0.284844 165.696 0.235224 166.214 0.16208C166.426 0.130733 166.539 0.21693 166.68 0.284849C166.729 0.30836 166.779 0.357998 166.824 0.355386C167.001 0.344937 167.174 0.316207 167.347 0.295309C167.52 0.27441 167.696 0.253515 167.869 0.232617C168.066 0.308373 168.197 0.486005 168.479 0.425922C168.648 0.389351 168.828 0.381514 169.001 0.360616C169.174 0.339717 169.351 0.318822 169.523 0.297924C169.64 0.284862 169.76 0.277014 169.873 0.253503C170.081 0.214319 170.183 0.342336 170.331 0.399806C170.381 0.418092 170.437 0.449419 170.483 0.444194C170.832 0.407622 171.185 0.376278 171.527 0.316195C171.792 0.269174 171.972 0.347553 172.159 0.457268C172.198 0.480779 172.265 0.493839 172.314 0.488614C172.723 0.444206 173.129 0.389333 173.535 0.342312C173.644 0.32925 173.75 0.371045 173.838 0.438965C173.93 0.509496 174.032 0.543481 174.145 0.53042C174.551 0.483399 174.96 0.431138 175.366 0.384117C175.415 0.378893 175.475 0.399795 175.521 0.420693C175.916 0.582654 175.916 0.585268 176.149 0.553921C176.205 0.546084 176.265 0.540839 176.322 0.533003C176.611 0.496431 176.911 0.483387 177.193 0.420693C177.518 0.350161 177.754 0.438982 177.983 0.587882C178.273 0.556535 178.569 0.538245 178.851 0.486C179.063 0.446815 179.176 0.546077 179.317 0.611384C179.366 0.634894 179.419 0.681915 179.461 0.67669C179.871 0.632282 180.28 0.593112 180.682 0.527805C180.901 0.491233 180.996 0.608764 181.144 0.668846C181.194 0.689744 181.247 0.726335 181.292 0.721111C181.525 0.700212 181.758 0.66885 181.991 0.640115C182.263 0.606155 182.263 0.608765 182.622 0.768114C182.792 0.84387 182.961 0.783785 183.127 0.765499C183.303 0.744601 183.469 0.728932 183.61 0.836035C183.699 0.903954 183.804 0.945752 183.914 0.935303C184.147 0.911792 184.383 0.888293 184.612 0.849109C184.796 0.817762 184.954 0.838649 185.088 0.935303C185.184 1.00322 185.283 1.0372 185.399 1.02153C185.921 0.958834 186.447 0.893503 186.969 0.83342C187.015 0.828196 187.078 0.851715 187.121 0.875226C187.219 0.922247 187.315 0.974481 187.41 1.02673C187.639 1.00322 187.876 0.992793 188.101 0.956222C188.341 0.91965 188.56 0.906585 188.747 1.05026C188.786 1.08161 188.842 1.12599 188.888 1.12338C189.064 1.11293 189.237 1.08681 189.41 1.06592C189.583 1.04502 189.759 1.02412 189.932 1.00322C190.133 1.06853 190.26 1.25661 190.543 1.19653C190.712 1.15996 190.892 1.15212 191.065 1.13122C191.238 1.11033 191.414 1.08682 191.587 1.06853C191.643 1.06331 191.707 1.05024 191.756 1.06069C191.809 1.07114 191.855 1.10772 191.901 1.13384C192.042 1.20959 192.173 1.28536 192.374 1.24095C192.543 1.20438 192.723 1.19654 192.896 1.17303C193.132 1.14429 193.132 1.1443 193.524 1.30887C193.683 1.37679 193.862 1.28798 194.014 1.34545C194.116 1.38463 194.205 1.44992 194.303 1.49433C194.346 1.51262 194.413 1.52044 194.462 1.51522C194.695 1.49171 194.931 1.46821 195.161 1.42903C195.348 1.39768 195.503 1.42902 195.633 1.52306C195.729 1.59098 195.824 1.61973 195.944 1.60406C196.526 1.53092 197.108 1.4682 197.687 1.38722C197.884 1.35849 198.043 1.40291 198.152 1.49695C198.339 1.65891 198.604 1.46822 198.798 1.59883C198.918 1.67981 199.038 1.77386 199.257 1.73467C199.659 1.66675 200.068 1.63016 200.474 1.58314C200.618 1.65367 200.763 1.72422 200.911 1.79475C201.144 1.76602 201.377 1.73726 201.61 1.71114C201.783 1.69024 201.959 1.66673 202.132 1.64845C202.188 1.64322 202.248 1.63277 202.301 1.64583C202.354 1.6589 202.397 1.69286 202.446 1.71898C202.689 1.84699 202.689 1.84961 203.091 1.79737C203.264 1.77386 203.43 1.75818 203.575 1.86267C203.709 1.95933 203.868 1.9776 204.051 1.94887C204.397 1.89662 204.746 1.85744 205.099 1.82087C205.208 1.80781 205.311 1.85222 205.402 1.92014C205.54 2.02724 205.709 2.01679 205.882 1.98806C206.111 1.95148 206.337 1.91492 206.531 2.06121C206.57 2.09256 206.63 2.13694 206.672 2.13433C206.962 2.11343 207.254 2.09777 207.537 2.04813C207.819 1.9985 207.956 2.16046 208.151 2.23882C208.44 2.20487 208.733 2.1709 209.022 2.13694C209.078 2.12911 209.145 2.10561 209.195 2.11867C209.403 2.17353 209.523 2.36944 209.809 2.30936C209.974 2.2754 210.154 2.26497 210.327 2.25713C210.373 2.25452 210.433 2.2989 210.465 2.33286C210.482 2.35115 210.465 2.40078 210.444 2.4269C210.38 2.50004 210.303 2.56798 210.246 2.64374C210.239 2.65419 210.306 2.70119 210.345 2.72209C210.44 2.76911 210.549 2.76129 210.676 2.74039C210.786 2.72211 210.899 2.75868 210.976 2.83705C211.008 2.86839 210.997 2.92063 210.93 3.09304C210.93 3.22104 211.005 3.16356 211.029 3.07997C211.068 2.9598 210.994 2.92062 210.853 2.98593C210.754 3.03295 210.705 3.10088 210.729 3.15574C210.744 3.18447 210.811 3.22104 210.93 3.09304C211.241 2.93631 211.474 2.90759 211.707 2.87885C211.767 2.87101 211.837 2.84487 211.88 2.86055C212.031 2.92324 212.172 2.99901 212.321 3.06954C212.49 3.05387 212.649 3.01467 212.814 3.11654C213.047 3.26022 213.058 3.24716 213.284 3.21843C213.4 3.20275 213.516 3.18972 213.633 3.17665C213.749 3.16359 213.841 3.20277 213.943 3.26285C214.151 3.38562 214.169 3.38561 214.307 3.21843C214.388 3.11655 214.444 3.0826 214.547 3.12962C214.885 3.28897 214.889 3.29941 215.178 3.25239C215.418 3.2132 215.644 3.20276 215.82 3.35166C215.94 3.45615 215.979 3.43264 216.074 3.32292C216.328 3.03296 216.445 3.03818 216.921 3.24716C217.143 3.34643 217.372 3.23933 217.598 3.22627C217.789 3.21582 217.923 3.27851 217.937 3.44308C217.948 3.54496 217.979 3.61811 218.106 3.65207C218.156 3.66514 218.216 3.68341 218.265 3.67819C218.558 3.64684 218.847 3.61026 219.14 3.57369C219.288 3.55541 219.369 3.43265 219.341 3.27069C219.309 3.09828 219.366 3.03556 219.577 2.98593C219.704 2.9572 219.807 2.96244 219.909 3.00946C220.022 3.06171 219.99 3.10873 219.891 3.20277C219.655 3.43265 219.683 3.57369 219.987 3.73304C220.093 3.7879 220.177 3.83755 220.202 3.91853C220.216 3.96033 220.202 4.01518 220.234 4.04653C220.406 4.22155 220.646 4.33389 220.914 4.41748C221.172 4.34695 221.348 4.46448 221.546 4.55853C221.701 4.63167 221.885 4.56899 222.05 4.54287C222.237 4.51413 222.393 4.53502 222.527 4.63168C222.622 4.6996 222.721 4.73093 222.837 4.71787C223.07 4.68913 223.306 4.67086 223.536 4.62906C223.733 4.59249 223.881 4.64474 224.005 4.73356C224.16 4.84589 224.333 4.77012 224.495 4.78579C224.714 4.80408 224.823 5.03656 225.109 4.97387C225.279 4.9373 225.455 4.92424 225.631 4.91379C225.677 4.91118 225.734 4.95559 225.772 4.98694C225.959 5.13062 226.178 5.12278 226.418 5.08098C226.584 5.05224 226.746 5.02613 226.908 5.1254C227.177 5.29259 227.473 5.43888 227.755 5.59301C227.794 5.71317 227.766 5.85421 227.967 5.92474C228.073 5.96131 228.171 6.01619 228.253 6.07627C228.351 6.1468 228.443 6.16509 228.57 6.14681C228.799 6.11024 229.039 6.10237 229.265 6.05535C229.473 6.01356 229.604 6.09979 229.731 6.18077C229.833 6.24608 229.928 6.27741 230.052 6.23039C230.179 6.18598 230.271 6.2147 230.373 6.28523C230.517 6.38189 230.528 6.37146 231.008 6.40019C231.057 6.4028 231.117 6.44197 231.145 6.47592C231.16 6.49421 231.128 6.54649 231.103 6.57261C231.071 6.60396 231.022 6.64051 230.976 6.64834C230.454 6.71626 229.928 6.77634 229.406 6.84426C229.353 6.8521 229.297 6.87041 229.258 6.89653C229.216 6.92526 229.163 6.96442 229.163 7.00099C229.163 7.02712 229.233 7.05847 229.283 7.07676C229.438 7.13684 229.621 7.04542 229.773 7.11334C229.875 7.15774 229.96 7.22043 230.062 7.26222C230.105 7.28051 230.172 7.27791 230.225 7.27268C230.401 7.2544 230.574 7.22828 230.75 7.2126C230.8 7.20999 230.856 7.23613 230.902 7.25702C231.241 7.41376 231.241 7.41375 231.534 7.37979C231.65 7.36673 231.773 7.32754 231.883 7.34322C231.989 7.35889 232.08 7.42942 232.176 7.47383C232.373 7.56787 232.56 7.6593 232.574 7.86306C232.581 7.94143 232.698 8.00933 232.814 8.01456C232.927 8.01978 233.047 7.99107 233.163 7.9754C233.439 7.94405 233.439 7.94405 233.795 8.1034C233.894 8.14781 233.999 8.15302 234.127 8.1269C234.176 8.11645 234.236 8.12691 234.289 8.13997C234.462 8.17916 234.462 8.22878 234.349 8.32282C234.19 8.46127 234.204 8.47434 234.649 8.59189C234.818 8.6363 234.949 8.7199 235.09 8.79304C235.319 8.91059 235.315 8.91057 235.164 9.0647C235.128 9.09866 235.097 9.13524 235.061 9.17181C234.959 9.27369 234.878 9.3834 234.666 9.39385C234.433 9.40429 234.201 9.44611 233.968 9.47484C233.742 9.50358 233.682 9.56625 233.703 9.74388C233.728 9.95809 233.774 9.9816 234.179 9.97899C234.296 9.97899 234.398 9.99988 234.486 10.0704C234.444 10.154 234.366 10.2193 234.254 10.235C233.964 10.2742 233.671 10.3081 233.382 10.3421C233.149 10.3708 232.916 10.3996 232.684 10.4283C232.539 10.4466 232.447 10.5824 232.486 10.7339C232.507 10.8201 232.525 10.9064 232.542 10.9926C232.581 11.165 232.655 11.2094 232.892 11.2016C232.952 11.1989 233.008 11.178 233.065 11.1832C233.294 11.2015 233.403 11.4183 233.678 11.3739C233.908 11.3374 234.148 11.3295 234.374 11.2825C234.582 11.2407 234.698 11.3348 234.843 11.4053C234.892 11.4288 234.945 11.4784 234.987 11.4758C235.28 11.4471 235.573 11.4184 235.859 11.3687C235.993 11.3478 236.074 11.3635 236.18 11.4262C236.434 11.5777 236.441 11.5699 236.818 11.5229C237.094 11.4863 237.097 11.4915 237.45 11.6509C237.549 11.6953 237.654 11.6953 237.781 11.6744C237.947 11.6482 238.12 11.6064 238.293 11.6456C238.346 11.6561 238.413 11.6874 238.431 11.7214C238.441 11.7449 238.392 11.8024 238.35 11.8207C238.039 11.9565 237.676 11.933 237.337 11.9878C237.231 12.0035 237.125 11.9539 237.037 11.8833C236.945 11.8128 236.847 11.7841 236.727 11.7972C236.494 11.8259 236.257 11.8442 236.028 11.886C235.831 11.9225 235.693 11.8624 235.555 11.7815C235.509 11.7553 235.457 11.7057 235.411 11.7083C234.889 11.7606 234.363 11.8128 233.844 11.886C233.636 11.9173 233.516 11.8337 233.375 11.7632C233.326 11.7397 233.276 11.69 233.23 11.6927C233.054 11.7031 232.881 11.7318 232.705 11.7527C232.063 11.8311 231.424 11.9095 230.782 11.9826C230.74 11.9878 230.687 11.933 230.637 11.9095C230.542 11.8624 230.443 11.818 230.345 11.7736C230.168 11.7945 229.995 11.8206 229.819 11.8363C229.692 11.8468 229.579 11.8834 229.561 11.9826C229.551 12.0479 229.667 12.108 229.791 12.1028C229.911 12.0975 230.031 12.0662 230.129 12.1002C230.62 12.2673 230.62 12.27 230.927 12.236C231.195 12.2047 231.167 12.1785 231.403 12.3222C231.505 12.3849 231.597 12.4215 231.713 12.4058C232.003 12.3692 232.296 12.3327 232.588 12.3013C232.634 12.2961 232.694 12.3222 232.74 12.3431C233.086 12.4998 233.086 12.5051 233.372 12.4659C233.746 12.4189 233.76 12.4058 234.01 12.5651C234.183 12.6749 234.342 12.5991 234.508 12.5939C234.698 12.6958 234.906 12.7872 235.079 12.9021C235.284 13.038 235.499 13.0144 235.732 12.9753C235.905 12.9465 236.074 12.9361 236.215 13.0432C236.349 13.1425 236.511 13.1529 236.695 13.1268C236.861 13.1033 237.03 13.0536 237.203 13.1111C237.249 13.1268 237.319 13.166 237.316 13.1895C237.312 13.2261 237.266 13.2783 237.22 13.294C236.896 13.4011 236.54 13.3985 236.197 13.4481C236.152 13.4559 236.092 13.4272 236.046 13.4063C235.947 13.3593 235.852 13.3044 235.756 13.2548C235.584 13.2705 235.407 13.2757 235.238 13.307C235.107 13.3305 235.008 13.3279 234.913 13.2653C234.825 13.2078 234.73 13.1372 234.624 13.1189C234.518 13.1007 234.395 13.1399 234.278 13.1555C234.162 13.1712 234.028 13.1633 233.936 13.2051C233.844 13.2469 233.788 13.3384 233.728 13.4115C233.661 13.4925 233.569 13.5186 233.435 13.5265C233.312 13.5343 233.213 13.5239 233.121 13.4507C233.082 13.4194 233.029 13.3958 232.976 13.3749C232.927 13.3567 232.871 13.3279 232.825 13.3331C232.299 13.3932 231.777 13.4586 231.251 13.5212C230.99 13.5526 230.994 13.5526 230.45 13.3984C230.401 13.3854 230.341 13.3671 230.292 13.3723C229.999 13.4037 229.71 13.4403 229.417 13.4768C229.12 13.5134 229.124 13.5082 228.619 13.3436C228.528 13.3123 228.394 13.3541 228.284 13.3488C228.055 13.3358 227.942 13.1163 227.674 13.1581C227.445 13.1947 227.205 13.2025 226.975 13.2496C226.767 13.2914 226.647 13.1999 226.506 13.1294C226.457 13.1059 226.404 13.0536 226.362 13.0589C225.836 13.1163 225.314 13.1816 224.615 13.1895C224.442 13.1895 224.52 13.2444 224.633 13.2626C224.795 13.2914 224.848 13.2365 224.76 13.132C224.696 13.0589 224.605 13.0223 224.531 13.0406C224.492 13.051 224.442 13.1007 224.615 13.1895C224.799 13.2888 224.788 13.3436 224.82 13.3749C224.898 13.4507 225.007 13.482 225.12 13.4716C225.296 13.4533 225.469 13.4272 225.645 13.4115C225.695 13.4063 225.755 13.4246 225.801 13.4455C226.189 13.6074 226.192 13.6179 226.605 13.5552C226.736 13.5369 226.831 13.5369 226.933 13.5866C227.074 13.6545 227.177 13.7694 227.392 13.7328C227.678 13.6832 227.97 13.6545 228.263 13.6257C228.309 13.6205 228.358 13.6675 228.411 13.6884C228.556 13.7511 228.662 13.8687 228.877 13.8191C229.043 13.7799 229.223 13.7694 229.399 13.7616C229.445 13.7589 229.516 13.8008 229.537 13.8347C229.579 13.8948 229.526 13.9653 229.406 14.015C229.357 14.0359 229.29 14.0306 229.233 14.0385C229 14.0672 228.768 14.0985 228.535 14.1221C228.411 14.1351 228.295 14.1743 228.281 14.271C228.27 14.3363 228.397 14.3937 228.517 14.3885C228.694 14.3807 228.87 14.3598 229.039 14.3258C229.339 14.2683 229.6 14.284 229.844 14.4486C230.017 14.5635 230.006 14.5218 230.189 14.8613C230.235 14.9476 230.373 14.9554 230.493 14.9502C230.782 14.9371 230.916 14.9763 230.891 15.0573C230.86 15.1565 230.757 15.1879 230.627 15.2009C230.394 15.2218 230.161 15.2558 229.928 15.2845C229.872 15.2924 229.808 15.308 229.755 15.3028C229.703 15.2976 229.653 15.2662 229.607 15.2427C229.509 15.1931 229.424 15.1173 229.318 15.099C229.212 15.0808 229.089 15.1199 228.972 15.1356C228.856 15.1487 228.732 15.1879 228.627 15.1696C228.521 15.1513 228.432 15.0729 228.337 15.0259C228.291 15.0024 228.235 14.9658 228.189 14.9684C227.956 14.9893 227.723 15.0233 227.491 15.0494C227.205 15.0834 227.205 15.0834 226.859 14.9214C226.76 14.8744 226.658 14.877 226.527 14.8979C226.245 14.9397 226.242 14.9319 225.727 14.7804C225.677 14.7647 225.617 14.7464 225.568 14.7542C225.042 14.8143 224.52 14.8796 223.998 14.9423C223.55 14.9972 223.55 14.9972 223.303 15.2584C223.119 15.4517 223.116 15.4517 223.296 15.5405C223.44 15.6137 223.571 15.7208 223.73 15.76C223.878 15.7965 224.061 15.679 224.224 15.7991C224.305 15.8592 224.411 15.9245 224.513 15.935C224.675 15.948 224.848 15.8723 225.003 15.9872C225.081 16.0447 225.197 16.1048 225.296 16.1074C225.469 16.1126 225.645 16.0708 225.818 16.0525C225.871 16.0473 225.931 16.0473 225.981 16.0604C226.034 16.076 226.079 16.1074 226.125 16.1335C226.266 16.2223 226.418 16.2641 226.602 16.2197C226.901 16.1466 227.17 16.1831 227.402 16.3503C227.434 16.3738 227.512 16.3765 227.561 16.366C227.688 16.3399 227.797 16.3373 227.893 16.3869C227.932 16.4078 227.988 16.4444 227.981 16.4679C227.97 16.5071 227.928 16.5593 227.882 16.5724C227.55 16.6612 227.194 16.6716 226.852 16.7187C226.806 16.7239 226.75 16.6899 226.704 16.6664C226.605 16.6194 226.52 16.541 226.415 16.5227C226.309 16.5045 226.185 16.5384 226.069 16.5515C225.952 16.5645 225.829 16.6037 225.723 16.5881C225.617 16.5698 225.518 16.5045 225.434 16.447C225.335 16.3817 225.24 16.3739 225.109 16.4C224.94 16.4339 224.763 16.4392 224.591 16.4574C224.495 16.4078 224.4 16.3529 224.301 16.3059C224.255 16.2824 224.199 16.2537 224.15 16.2563C223.917 16.2772 223.684 16.3085 223.451 16.3373C223.218 16.366 223.218 16.366 222.823 16.2041C222.777 16.1858 222.717 16.1649 222.668 16.1701C222.375 16.2014 222.086 16.2406 221.793 16.2719C221.68 16.285 221.578 16.2484 221.486 16.1779C221.398 16.1074 221.292 16.0682 221.183 16.0813C220.717 16.1361 220.251 16.1884 219.786 16.2537C219.599 16.2798 219.44 16.2563 219.313 16.1623C219.165 16.0552 218.999 16.0813 218.826 16.1022C218.434 16.1544 218.431 16.1518 218.18 16.0186C218.131 15.9924 218.082 15.9428 218.036 15.9454C217.63 15.9846 217.221 16.0212 216.819 16.0839C216.607 16.1178 216.494 16.0264 216.353 15.9585C216.304 15.935 216.251 15.8853 216.208 15.8906C215.915 15.9193 215.623 15.9454 215.337 15.9977C215.051 16.0499 214.942 15.807 214.727 15.8096C214.434 15.8122 214.144 15.8723 213.855 15.9089C213.622 15.9376 213.389 15.9663 213.157 15.9951C212.924 16.0238 212.691 16.0473 212.458 16.0813C212.335 16.0995 212.243 16.076 212.141 16.0107C212.01 15.9245 211.855 15.8566 211.714 15.7783C211.499 15.6659 211.499 15.6659 211.237 15.6973C211.181 15.7051 211.121 15.7103 211.065 15.7181C210.638 15.7756 210.638 15.7704 210.094 15.6058C210.07 15.598 210.006 15.6267 209.981 15.6476C209.907 15.7156 209.84 15.7887 209.773 15.8592C209.678 15.8174 209.562 15.7939 209.498 15.7338C209.318 15.564 209.036 15.7965 208.853 15.6293C208.786 15.5666 208.669 15.5118 208.563 15.4961C208.454 15.4804 208.33 15.517 208.218 15.5327C207.925 15.5719 207.925 15.5693 207.674 15.8018C207.547 15.9167 207.364 15.8958 207.198 15.9219C207.025 15.9506 206.859 15.9663 206.715 15.8592C206.584 15.7626 206.425 15.7391 206.238 15.7704C206.009 15.8096 205.773 15.8331 205.54 15.8566C205.49 15.8618 205.43 15.8488 205.381 15.8331C204.841 15.679 204.841 15.6764 204.58 15.7103C204.464 15.726 204.344 15.7312 204.231 15.7547C204.04 15.7965 203.896 15.7417 203.758 15.6581C203.712 15.6319 203.659 15.5823 203.614 15.585C203.381 15.598 203.151 15.6215 202.922 15.645C202.746 15.6633 202.569 15.6738 202.4 15.7103C202.118 15.7704 201.98 15.6006 201.786 15.5222C201.497 15.5562 201.204 15.5797 200.915 15.6267C200.781 15.6476 200.693 15.6398 200.59 15.5771C200.46 15.4987 200.34 15.4099 200.128 15.4491C199.846 15.5014 199.549 15.5196 199.26 15.551C199.066 15.47 198.925 15.3054 198.646 15.3655C198.477 15.4021 198.297 15.4099 198.124 15.4308C197.891 15.4595 197.659 15.4857 197.426 15.517C197.175 15.5484 197.179 15.5405 196.794 15.3864C196.572 15.295 196.343 15.3969 196.117 15.4125C195.94 15.4256 195.852 15.5458 195.895 15.6999C195.937 15.854 195.842 15.9742 195.679 15.9951C195.274 16.0447 194.864 16.0969 194.459 16.1413C194.409 16.1466 194.349 16.1283 194.303 16.11C193.87 15.9454 193.87 15.9481 193.675 15.9716C193.386 16.0107 193.09 16.0316 192.804 16.0813C192.607 16.1152 192.462 16.0604 192.335 15.9716C192.236 15.9036 192.144 15.888 192.017 15.9036C190.62 16.0787 189.223 16.2406 187.83 16.4209C187.622 16.447 187.502 16.3712 187.361 16.3007C187.311 16.2772 187.265 16.2276 187.216 16.2276C187.099 16.2276 186.983 16.2511 186.867 16.2668C186.344 16.3294 185.822 16.4052 185.297 16.4522C185.074 16.4731 185.014 16.5933 184.919 16.6926C184.845 16.7683 184.76 16.7996 184.63 16.8101C184.503 16.8205 184.411 16.8075 184.312 16.7396C184.185 16.6507 184.041 16.5959 183.843 16.6324C183.614 16.6742 183.381 16.6925 183.145 16.7213C183.025 16.7343 182.933 16.7814 182.894 16.8754C182.887 16.8911 182.961 16.9303 183.004 16.9538C183.145 17.0321 183.279 17.1236 183.437 17.1784C183.6 17.2333 183.776 17.1706 183.945 17.1549C184.005 17.1497 184.062 17.134 184.118 17.1366C184.171 17.1392 184.235 17.1523 184.274 17.1758C184.457 17.2934 184.651 17.3743 184.905 17.3038C185.124 17.3378 185.237 17.5546 185.515 17.4971C185.685 17.4632 185.861 17.4475 186.038 17.4344C186.083 17.4318 186.133 17.4788 186.182 17.5024C186.323 17.5677 186.436 17.6721 186.648 17.6277C186.874 17.5807 187.114 17.5729 187.343 17.5363C187.47 17.5154 187.562 17.5337 187.66 17.6016C187.787 17.6878 187.932 17.7531 188.13 17.7113C188.299 17.6747 188.479 17.6669 188.652 17.6434C188.878 17.6147 188.878 17.6173 189.28 17.7792C189.326 17.7975 189.386 17.8184 189.435 17.8132C189.728 17.7818 190.017 17.7427 190.31 17.7113C190.423 17.6983 190.532 17.7322 190.61 17.808C190.641 17.8393 190.631 17.8916 190.641 17.936C190.059 18.0065 189.477 18.0666 188.899 18.1528C188.68 18.1868 188.581 18.0797 188.436 18.0196C188.387 17.9987 188.334 17.9543 188.288 17.9595C187.879 18.0039 187.473 18.0509 187.068 18.1084C186.941 18.1267 186.845 18.1162 186.75 18.0405C186.507 17.8393 186.21 17.949 185.935 17.9778C185.724 17.9987 185.657 18.0797 185.681 18.2521C185.713 18.4558 185.84 18.5185 186.165 18.482C186.281 18.4689 186.397 18.4506 186.514 18.4401C186.627 18.4297 186.729 18.4637 186.821 18.5342C186.909 18.6047 187.015 18.6413 187.124 18.6308C187.357 18.6073 187.593 18.5838 187.819 18.5446C188.006 18.5133 188.161 18.5394 188.292 18.6361C188.437 18.7432 188.606 18.7197 188.775 18.6961C189.17 18.6439 189.174 18.6465 189.421 18.7771C189.47 18.8033 189.52 18.8529 189.565 18.8503C189.971 18.8111 190.38 18.7771 190.779 18.7145C190.987 18.6831 191.107 18.7667 191.245 18.8346C191.294 18.8581 191.344 18.9104 191.389 18.9051C191.682 18.8764 191.975 18.8477 192.261 18.798C192.395 18.7745 192.476 18.7902 192.585 18.8529C192.846 19.007 192.853 19.0018 193.224 18.9521C193.337 18.9365 193.46 18.9077 193.566 18.9286C193.672 18.9495 193.757 19.0253 193.855 19.0723C193.901 19.0932 193.958 19.1219 194.007 19.1167C194.24 19.0958 194.473 19.0645 194.706 19.0358C194.924 19.007 194.924 19.0096 195.334 19.1716C195.499 19.2395 195.672 19.182 195.838 19.1611C196.018 19.1376 196.18 19.1376 196.318 19.2395C196.455 19.3414 196.621 19.3362 196.798 19.3153C196.964 19.2944 197.133 19.2369 197.302 19.3074C197.69 19.4694 197.69 19.472 197.93 19.4406C198.279 19.3962 198.625 19.3544 198.978 19.3153C199.024 19.31 199.084 19.3414 199.13 19.3623C199.228 19.4093 199.313 19.4877 199.419 19.5059C199.525 19.5268 199.648 19.4955 199.761 19.4798C200.124 19.4302 200.149 19.4119 200.393 19.5843C200.597 19.7254 200.851 19.5216 201.042 19.6836C201.151 19.775 201.299 19.8482 201.504 19.8037C201.673 19.7672 201.85 19.7567 202.026 19.7358C202.305 19.7019 202.305 19.7045 202.658 19.8612C202.703 19.8821 202.763 19.9082 202.809 19.903C203.042 19.8821 203.278 19.8638 203.504 19.8168C203.769 19.762 203.938 19.8612 204.136 19.9579C204.291 20.0337 204.474 19.9709 204.64 19.9448C204.82 19.9187 204.982 19.9265 205.116 20.0284C205.258 20.1329 205.423 20.1198 205.6 20.0989C205.766 20.0807 205.935 20.0206 206.104 20.0937C206.468 20.2557 206.468 20.2557 206.732 20.2243C206.965 20.1956 207.198 20.1643 207.431 20.1434C207.477 20.1381 207.533 20.1721 207.579 20.1956C207.678 20.2426 207.762 20.321 207.868 20.3393C207.974 20.3576 208.098 20.3236 208.214 20.3105C208.33 20.2975 208.454 20.2583 208.56 20.274C208.666 20.2896 208.764 20.355 208.849 20.4124C208.948 20.4803 209.04 20.4882 209.174 20.462C209.343 20.4281 209.519 20.4203 209.692 20.402C209.787 20.4516 209.886 20.5012 209.978 20.5561C210.073 20.6136 210.175 20.6083 210.306 20.59C210.74 20.5273 210.743 20.5352 211.107 20.6972C211.273 20.7703 211.446 20.7102 211.611 20.6919C211.788 20.671 211.954 20.6606 212.091 20.7651C212.225 20.8643 212.391 20.8774 212.567 20.846C212.68 20.8251 212.8 20.8121 212.917 20.8043C212.97 20.8017 213.033 20.8121 213.072 20.833C213.259 20.9427 213.442 21.042 213.7 20.9715C213.926 20.9924 214.039 21.2066 214.31 21.1648C214.54 21.1282 214.779 21.1203 215.005 21.0733C215.213 21.0315 215.362 21.1047 215.467 21.1961C215.658 21.3581 215.926 21.1386 216.117 21.298C216.226 21.3894 216.367 21.4626 216.579 21.4234C216.812 21.3816 216.886 21.4364 216.953 21.601C216.991 21.695 216.984 21.7708 216.914 21.8439C216.843 21.9197 216.766 21.9067 216.653 21.8204C216.522 21.7238 216.367 21.7055 216.18 21.7264C215.997 21.7473 215.884 21.6115 215.732 21.5592C215.58 21.5044 215.4 21.5958 215.242 21.5253C214.868 21.3607 214.868 21.3607 214.614 21.392C214.441 21.4129 214.261 21.4234 214.092 21.46C213.89 21.5044 213.76 21.4234 213.622 21.3502C213.573 21.3241 213.523 21.2745 213.481 21.2771C213.075 21.3163 212.666 21.3528 212.264 21.4181C212.052 21.4521 211.94 21.3581 211.798 21.2928C211.749 21.2693 211.696 21.2222 211.654 21.2275C211.304 21.264 210.959 21.311 210.609 21.3555C210.542 21.426 210.468 21.4939 210.405 21.5696C210.338 21.648 210.246 21.682 210.112 21.6794C209.89 21.6794 209.671 21.7891 209.449 21.6506C209.219 21.5096 209.202 21.5174 208.98 21.5514C208.697 21.5958 208.397 21.5853 208.133 21.6872C208.087 21.7055 208.038 21.7551 208.038 21.7917C208.034 21.8152 208.108 21.8492 208.154 21.8701C208.309 21.9328 208.489 21.8413 208.644 21.9066C208.747 21.9484 208.831 22.0111 208.934 22.0555C208.976 22.0738 209.04 22.0712 209.096 22.0686C209.156 22.066 209.212 22.0477 209.269 22.0503C209.322 22.0529 209.378 22.0686 209.421 22.0921C209.615 22.1914 209.819 22.2828 209.992 22.4004C210.161 22.5153 210.32 22.4369 210.489 22.4317C211.167 22.6146 211.167 22.6172 211.622 22.5597C211.735 22.5466 211.851 22.531 211.968 22.5336C212.017 22.5336 212.063 22.5806 212.112 22.6067C212.253 22.6851 212.388 22.7556 212.585 22.7138C212.754 22.6773 212.934 22.6694 213.107 22.6459C213.34 22.6172 213.34 22.6172 213.735 22.7817C213.834 22.8235 213.94 22.8183 214.067 22.7974C214.176 22.7791 214.289 22.8183 214.367 22.8941C214.398 22.9254 214.388 22.9777 214.398 23.0221C214.049 23.0639 213.696 23.0926 213.358 23.1553C213.139 23.1945 213.04 23.0822 212.896 23.0221C212.846 23.0012 212.793 22.9568 212.747 22.962C212.402 23.0012 212.056 23.0456 211.71 23.0978C211.668 23.103 211.615 23.1631 211.611 23.1997C211.604 23.2676 211.693 23.3329 211.82 23.3303C211.989 23.3277 212.155 23.2833 212.306 23.3904C212.433 23.4844 212.592 23.5263 212.779 23.4845C212.892 23.461 213.012 23.4609 213.125 23.44C213.425 23.3773 213.696 23.3904 213.922 23.568C214.095 23.6151 214.264 23.5707 214.43 23.5472C214.554 23.5289 214.674 23.5106 214.762 23.5602C214.949 23.6647 215.132 23.7692 215.39 23.6987C215.669 23.7718 215.88 23.9259 216.113 24.0513C216.222 24.1114 216.307 24.1454 216.434 24.1062C216.487 24.0905 216.55 24.0905 216.607 24.0827C216.723 24.0696 216.847 24.0304 216.953 24.0461C217.058 24.0644 217.147 24.1401 217.242 24.1872C217.288 24.2107 217.341 24.2498 217.387 24.2472C217.563 24.2342 217.736 24.208 217.909 24.1872C218.082 24.1689 218.254 24.1506 218.427 24.1323C218.572 24.2002 218.72 24.2681 218.865 24.3361C219.098 24.3073 219.331 24.2786 219.56 24.2525C219.817 24.2211 219.817 24.2237 220.188 24.3857C220.354 24.4588 220.53 24.4118 220.689 24.3778C220.953 24.323 221.13 24.4223 221.317 24.5268C221.356 24.5477 221.426 24.5607 221.472 24.5503C221.655 24.5137 221.814 24.5424 221.948 24.6391C222.043 24.707 222.139 24.7384 222.255 24.7253C222.661 24.6757 223.067 24.6234 223.472 24.579C223.522 24.5738 223.578 24.5973 223.624 24.6182C223.984 24.7775 223.987 24.7854 224.252 24.7436C224.488 24.707 224.707 24.6913 224.894 24.835C224.933 24.8663 224.993 24.9108 225.035 24.9081C225.324 24.882 225.617 24.8533 225.903 24.8089C226.034 24.788 226.125 24.7958 226.228 24.8559C226.358 24.9317 226.475 25.0231 226.69 24.9891C227.286 24.8925 227.289 24.9081 227.995 25.0884C228.044 25.1014 228.111 25.0805 228.168 25.0701C228.288 25.044 228.376 25.0806 228.482 25.1406C228.718 25.2765 228.725 25.2686 228.951 25.2399C229.124 25.2164 229.304 25.2112 229.473 25.172C229.734 25.1145 229.907 25.2164 230.101 25.3131C230.256 25.3888 230.436 25.3261 230.602 25.3026C230.782 25.2765 230.944 25.2843 231.078 25.3836C231.17 25.4515 231.269 25.4881 231.385 25.475C231.791 25.428 232.197 25.3757 232.603 25.3287C232.652 25.3235 232.712 25.3444 232.758 25.3627C233.16 25.5246 233.16 25.5325 233.559 25.4724C233.686 25.4541 233.791 25.4489 233.887 25.5037C233.978 25.556 234.077 25.6056 234.172 25.6552C234.345 25.637 234.522 25.6317 234.691 25.6004C234.822 25.5769 234.913 25.5873 235.016 25.6422C235.15 25.7127 235.263 25.8355 235.474 25.7754C235.584 25.7467 235.711 25.7545 235.82 25.7284C235.95 25.6944 236.039 25.7153 236.141 25.7832C236.268 25.8642 236.398 25.9478 236.603 25.906C236.829 25.859 237.069 25.8512 237.298 25.8146C237.425 25.7937 237.513 25.8146 237.616 25.8825C237.743 25.9687 237.887 26.0236 238.085 25.9896C238.487 25.9243 238.491 25.9374 238.882 26.1019C238.981 26.1437 239.087 26.1385 239.214 26.1176C239.323 26.0993 239.436 26.1385 239.514 26.2143C239.588 26.2979 239.581 26.3501 239.588 26.3945ZM208.151 2.83443C208.034 2.84749 207.918 2.86316 207.748 2.6359C207.738 2.59671 207.745 2.5497 207.72 2.51574C207.664 2.44521 207.575 2.39558 207.47 2.38774C207.279 2.37729 207.05 2.46609 207.053 2.53401C207.057 2.59148 207.117 2.64111 207.233 2.68813C207.283 2.70641 207.321 2.73777 207.367 2.75866C207.501 2.81875 207.607 2.93632 207.801 2.87624C207.766 2.71428 207.784 2.79526 207.801 2.87624C207.784 2.9755 207.837 3.04604 207.964 3.07477C207.999 3.08261 208.052 3.07737 208.08 3.0617C208.189 3.00423 208.207 2.92588 208.126 2.71951C208.112 2.75347 208.122 2.81353 208.154 2.8292C208.186 2.84487 208.263 2.83183 208.302 2.81354C208.401 2.76391 208.45 2.6986 208.426 2.64374C208.412 2.61501 208.345 2.57843 208.302 2.57843C208.228 2.57843 208.161 2.6359 208.151 2.83443ZM236.677 33.129C236.42 33.1786 236.123 33.1603 235.866 33.2622C235.82 33.2805 235.774 33.3275 235.771 33.3641C235.767 33.3876 235.838 33.4215 235.88 33.4398C235.975 33.4816 236.081 33.4686 236.204 33.4555C236.391 33.4372 236.501 33.5574 236.645 33.6175C236.691 33.6357 236.751 33.6488 236.801 33.6436C237.086 33.6122 237.369 33.5783 237.654 33.5417C237.704 33.5339 237.757 33.5156 237.799 33.4921C237.94 33.4163 237.926 33.3667 237.789 33.3092C237.637 33.2465 237.517 33.142 237.362 33.0924C237.139 33.0219 236.914 33.1159 236.677 33.129ZM216.642 35.0359C216.469 35.0568 216.3 35.0777 216.127 35.0986C216.071 35.1065 216.011 35.1091 215.958 35.1195C215.848 35.1378 215.767 35.1926 215.714 35.2789C215.795 35.3468 215.894 35.386 216.004 35.3781C216.177 35.3624 216.346 35.3285 216.519 35.3207C216.706 35.3102 216.815 35.4278 216.96 35.4878C217.006 35.5061 217.062 35.5087 217.115 35.5113C217.376 35.5218 217.535 35.386 217.485 35.1953C217.45 35.0464 217.316 34.9576 217.154 34.9759C216.984 34.9941 216.812 35.015 216.642 35.0359ZM237.884 29.268C237.926 29.2236 237.972 29.1923 237.993 29.1531C238.057 29.0199 238.032 28.9206 237.915 28.8161C237.774 28.6881 237.602 28.7743 237.443 28.7874C237.404 28.79 237.362 28.8448 237.34 28.8788C237.326 28.9023 237.326 28.9519 237.348 28.965C237.52 29.0695 237.704 29.1661 237.884 29.268ZM207.279 21.5514C207.11 21.5723 206.937 21.5879 206.768 21.6167C206.725 21.6245 206.686 21.6741 206.662 21.7081C206.616 21.7708 206.665 21.857 206.81 21.8648C206.976 21.8753 207.149 21.8309 207.321 21.81C207.54 21.7839 207.671 21.6872 207.59 21.6036C207.512 21.5226 207.406 21.507 207.279 21.5514ZM21.5732 15.9689C21.6861 15.9559 21.8025 15.9454 21.9154 15.9271C22.0212 15.9089 22.1024 15.8514 22.1553 15.7652C22.0671 15.6973 21.9683 15.6607 21.8589 15.6685C21.6861 15.6842 21.5168 15.7051 21.3474 15.7312C21.2416 15.7469 21.1393 15.8044 21.1146 15.8932C21.0899 15.9611 21.3262 16.0003 21.5732 15.9689ZM192.36 15.5666C192.405 15.5902 192.451 15.6372 192.497 15.6372C192.61 15.6372 192.726 15.6215 192.832 15.5954C192.878 15.5849 192.913 15.5379 192.935 15.5013C192.949 15.4778 192.945 15.436 192.924 15.4151C192.822 15.2898 192.412 15.3342 192.345 15.4778C192.338 15.504 192.356 15.5379 192.36 15.5666ZM181.229 1.26184C181.24 1.30363 181.243 1.34542 181.257 1.38722C181.285 1.46559 181.363 1.52307 181.476 1.56225C181.564 1.49695 181.61 1.42382 181.606 1.34545C181.603 1.30365 181.592 1.26183 181.578 1.22003C181.55 1.14166 181.472 1.08421 181.36 1.04503C181.271 1.10772 181.229 1.18086 181.229 1.26184ZM246.037 35.4905C246.005 35.5244 245.973 35.5584 245.938 35.5897C246.033 35.6655 246.121 35.689 246.189 35.6472C246.231 35.6211 246.256 35.5819 246.287 35.5479C246.192 35.4722 246.107 35.4513 246.037 35.4905ZM243.842 35.8457C243.888 35.8692 243.931 35.9006 243.98 35.9163C244.061 35.9424 244.135 35.898 244.192 35.8039C244.146 35.7804 244.104 35.7491 244.054 35.7334C243.973 35.7073 243.899 35.7517 243.842 35.8457ZM245.232 35.3677C245.208 35.4304 245.257 35.4826 245.388 35.527C245.419 35.4931 245.462 35.4617 245.483 35.4252C245.518 35.3651 245.458 35.3102 245.331 35.2684C245.296 35.2998 245.264 35.3337 245.232 35.3677ZM237.785 32.5517C237.76 32.6143 237.81 32.6666 237.94 32.711C237.972 32.677 238.014 32.6457 238.035 32.6091C238.071 32.549 238.011 32.4942 237.884 32.4524C237.849 32.4837 237.817 32.5177 237.785 32.5517ZM227.639 14.0672C227.607 14.1012 227.575 14.1351 227.54 14.1665C227.635 14.2422 227.723 14.2657 227.79 14.2239C227.833 14.1978 227.857 14.1586 227.889 14.1247C227.794 14.0489 227.709 14.028 227.639 14.0672ZM217.919 4.26072C218.004 4.27901 218.075 4.24245 218.135 4.1458C218.089 4.12229 218.046 4.09093 217.997 4.07526C217.916 4.04914 217.842 4.09356 217.785 4.1876C217.831 4.21373 217.877 4.23721 217.919 4.26072ZM212.758 3.64684C212.726 3.6808 212.694 3.71476 212.659 3.74611C212.754 3.82187 212.843 3.84537 212.91 3.80357C212.952 3.77745 212.977 3.73827 213.008 3.70431C212.913 3.62855 212.829 3.61027 212.758 3.64684ZM177.758 1.25922C177.726 1.29318 177.694 1.32714 177.659 1.35849C177.754 1.43425 177.842 1.45775 177.909 1.41595C177.952 1.38983 177.976 1.35064 178.008 1.31668C177.913 1.24093 177.828 1.22265 177.758 1.25922ZM3.48201 22.5127C3.43614 22.4892 3.39032 22.4657 3.34799 22.4396C3.24568 22.5101 3.21394 22.5754 3.27038 22.625C3.30566 22.6564 3.35854 22.6747 3.4044 22.6982C3.51024 22.6276 3.53493 22.5649 3.48201 22.5127Z" fill="#FFE492"/>
<path id="Vector_2" d="M23.9445 13.2884C23.5387 13.338 23.1366 13.4007 22.7309 13.432C22.5157 13.4477 22.4381 13.56 22.3499 13.6645C22.2794 13.7481 22.1982 13.7742 22.0677 13.7899C20.967 13.9179 19.8697 14.0538 18.7726 14.187C18.635 14.153 18.5679 14.0982 18.5997 14.0329C18.6173 13.9937 18.6597 13.9388 18.702 13.9336C19.4535 13.8369 20.2013 13.7377 20.9563 13.6619C21.1715 13.641 21.2315 13.5261 21.3409 13.432C21.3762 13.4007 21.4044 13.3537 21.4503 13.3354C21.4961 13.3145 21.5632 13.3171 21.6231 13.3119C22.8367 13.163 24.0504 13.0167 25.264 12.8678C25.4016 12.9018 25.4686 12.9566 25.4368 13.0219C25.4192 13.0611 25.3768 13.116 25.3345 13.1212C24.8688 13.176 24.4066 13.2309 23.9445 13.2884Z" fill="#FFE492"/>
<path id="Vector_3" d="M246.082 27.1994C245.899 27.2308 245.666 27.2752 245.475 27.1237C245.384 27.0505 245.285 27.027 245.165 27.0427C244.992 27.0688 244.815 27.0897 244.639 27.1054C244.593 27.108 244.533 27.0792 244.487 27.0557C244.389 27.0087 244.304 26.9304 244.198 26.9095C244.092 26.8886 243.965 26.946 243.856 26.933C243.711 26.9147 243.651 26.8442 243.69 26.7788C243.711 26.7423 243.754 26.69 243.799 26.6822C244.452 26.5855 244.456 26.5855 244.639 26.6796C244.78 26.7527 244.911 26.8337 245.112 26.7893C245.281 26.7527 245.461 26.7449 245.634 26.7214C245.874 26.69 245.874 26.6926 246.262 26.8572C246.361 26.899 246.467 26.8964 246.594 26.8729C246.703 26.8546 246.809 26.8964 246.897 26.9669C246.841 27.0557 246.759 27.1132 246.65 27.1289C246.474 27.155 246.301 27.1733 246.082 27.1994Z" fill="#FFE492"/>
<path id="Vector_4" d="M239.587 26.394C240.032 26.3392 240.48 26.2922 240.924 26.2295C241.108 26.2034 241.252 26.2321 241.379 26.3209C241.517 26.4176 241.672 26.4097 241.841 26.3914C241.947 26.381 242.05 26.4228 242.12 26.4959C242.148 26.5246 242.141 26.5769 242.152 26.6187C241.764 26.6657 241.372 26.7153 240.981 26.7571C240.935 26.7624 240.878 26.7363 240.836 26.7154C240.741 26.6709 240.659 26.5926 240.557 26.5769C240.338 26.5403 240.12 26.6108 239.898 26.6239C239.792 26.6291 239.689 26.59 239.619 26.5194C239.591 26.4855 239.598 26.4358 239.587 26.394Z" fill="#FFE492"/>
<path id="Vector_5" d="M78.945 3.93405C79.4072 3.87658 79.8693 3.82175 80.3315 3.76428C80.469 3.80085 80.5325 3.85309 80.5043 3.9184C80.4867 3.95758 80.4443 4.01244 80.402 4.01767C79.4777 4.13522 78.5534 4.24753 77.6326 4.35986C77.495 4.32328 77.4315 4.27105 77.4598 4.20574C77.4774 4.16656 77.5198 4.1117 77.5621 4.10647C78.0207 4.04639 78.4828 3.99152 78.945 3.93405Z" fill="#FFE492"/>
<path id="Vector_6" d="M7.73073 18.4503C7.52269 18.4555 7.30412 18.5522 7.07139 18.479C7.02556 18.466 6.96207 18.4242 6.96559 18.4007C6.97265 18.3615 7.01497 18.3118 7.06081 18.2962C7.26179 18.2309 7.51217 18.223 7.61442 18.0402C7.66379 17.9461 7.75547 17.9148 7.87888 17.8965C8.00934 17.8756 8.101 17.8834 8.20325 17.9383C8.33724 18.0088 8.45009 18.1394 8.66166 18.0715C8.67224 18.1133 8.69686 18.1603 8.68628 18.1995C8.6757 18.2387 8.62994 18.2753 8.58763 18.304C8.54884 18.3301 8.4959 18.3536 8.44653 18.3615C8.21381 18.3928 7.98108 18.419 7.73073 18.4503Z" fill="#FFE492"/>
<path id="Vector_7" d="M191.21 17.9255C191.383 17.9045 191.563 17.894 191.732 17.8574C191.866 17.8286 191.951 17.8469 192.057 17.9097C192.237 18.0197 192.247 18.0092 192.688 18.025C192.738 18.0276 192.798 18.0668 192.826 18.1009C192.844 18.1192 192.819 18.169 192.798 18.1951C192.766 18.2292 192.72 18.2737 192.678 18.2737C192.399 18.2815 192.117 18.436 191.845 18.258C191.708 18.169 191.556 18.127 191.369 18.1663C191.256 18.1899 191.136 18.2004 191.02 18.2108C190.907 18.2213 190.79 18.1925 190.72 18.114C190.617 17.9988 190.677 17.9543 190.861 17.9621C190.977 17.9674 191.094 17.9386 191.21 17.9255Z" fill="#FFE492"/>
<path id="Vector_8" d="M255.148 35.9322C255.37 35.9061 255.592 35.8748 255.818 35.8539C255.864 35.8487 255.92 35.8774 255.963 35.8957C256.132 35.9741 256.107 36.1073 256.114 36.2248C256.118 36.3476 255.726 36.4469 255.561 36.3633C255.377 36.2692 255.212 36.1622 254.958 36.2196C254.859 36.2405 254.743 36.1935 254.679 36.1177C254.584 36.008 254.637 35.9636 254.817 35.9714C254.923 35.9767 255.035 35.9479 255.148 35.9322Z" fill="#FFE492"/>
<path id="Vector_9" d="M143.146 0.376376C143.375 0.347577 143.604 0.303091 143.833 0.300473C143.967 0.297855 144.034 0.384236 144.003 0.44707C143.985 0.486342 143.943 0.541323 143.9 0.546559C143.442 0.609393 142.984 0.661764 142.525 0.719362C142.391 0.682709 142.324 0.627738 142.356 0.564904C142.374 0.525632 142.416 0.473269 142.458 0.465415C142.687 0.428761 142.917 0.405175 143.146 0.376376Z" fill="#FFE492"/>
<path id="Vector_10" d="M250.75 27.4292C250.972 27.403 251.198 27.3638 251.42 27.3507C251.536 27.3454 251.628 27.4056 251.642 27.4737C251.649 27.5051 251.592 27.5601 251.547 27.5732C251.229 27.6622 250.887 27.6727 250.556 27.7172C250.45 27.7303 250.337 27.6884 250.274 27.6151C250.178 27.5025 250.231 27.4606 250.411 27.4685C250.524 27.4711 250.637 27.4423 250.75 27.4292Z" fill="#FFE492"/>
<path id="Vector_11" d="M197.037 18.2784C197.15 18.2653 197.266 18.2312 197.375 18.2417C197.492 18.2548 197.566 18.3307 197.601 18.4067C197.64 18.4931 197.636 18.5742 197.601 18.6475C197.545 18.7732 197.488 18.768 197.358 18.6842C197.157 18.5533 197.143 18.569 196.744 18.5742C196.698 18.5742 196.642 18.5349 196.607 18.5009C196.554 18.4485 196.582 18.3674 196.705 18.3203C196.797 18.2862 196.924 18.2915 197.037 18.2784Z" fill="#FFE492"/>
<path id="Vector_12" d="M242.483 26.5721C242.649 26.5512 242.815 26.5173 242.981 26.5173C243.097 26.5147 243.189 26.5747 243.199 26.6399C243.203 26.6712 243.15 26.7234 243.107 26.7391C242.907 26.8095 242.681 26.8148 242.462 26.8382C242.36 26.8487 242.247 26.8069 242.184 26.7339C242.088 26.6243 242.145 26.5747 242.318 26.5903C242.371 26.5956 242.427 26.5799 242.483 26.5721Z" fill="#FFE492"/>
<path id="Vector_13" d="M216.388 23.3669C216.141 23.3983 215.908 23.3591 215.926 23.2913C215.951 23.2026 216.053 23.1451 216.159 23.1295C216.328 23.1034 216.497 23.0825 216.67 23.0669C216.779 23.0564 216.878 23.0956 216.966 23.1634C216.913 23.2469 216.832 23.3069 216.726 23.3252C216.617 23.3434 216.501 23.3539 216.388 23.3669Z" fill="#FFE492"/>
<path id="Vector_14" d="M214.771 23.0325C214.936 23.0117 215.102 22.9777 215.268 22.9777C215.384 22.9751 215.476 23.0351 215.487 23.1004C215.49 23.1317 215.437 23.1839 215.395 23.1995C215.194 23.27 214.968 23.2752 214.75 23.2987C214.647 23.3091 214.534 23.2674 214.471 23.1943C214.376 23.0847 214.432 23.0352 214.605 23.0508C214.658 23.056 214.714 23.0404 214.771 23.0325Z" fill="#FFE492"/>
<path id="Vector_15" d="M195.037 18.2569C195.203 18.236 195.369 18.202 195.534 18.1994C195.651 18.1968 195.742 18.2569 195.753 18.3221C195.756 18.3534 195.704 18.403 195.661 18.4212C195.46 18.4917 195.235 18.4969 195.016 18.5204C194.914 18.5308 194.801 18.4891 194.737 18.416C194.642 18.3064 194.699 18.2568 194.871 18.2725C194.924 18.2777 194.981 18.2621 195.037 18.2569Z" fill="#FFE492"/>
<path id="Vector_16" d="M194.109 18.1033C194.285 18.0824 194.342 18.0693 194.398 18.0693C194.504 18.0693 194.613 18.1007 194.677 18.1763C194.772 18.2859 194.715 18.3172 194.543 18.3225C194.321 18.3277 194.102 18.3825 193.88 18.3929C193.763 18.3981 193.672 18.3355 193.665 18.2703C193.661 18.2389 193.714 18.1842 193.756 18.1737C193.904 18.1346 194.067 18.1111 194.109 18.1033Z" fill="#FFE492"/>
<path id="Vector_17" d="M213.333 2.73478C213.22 2.74782 213.1 2.78436 212.995 2.77131C212.854 2.75304 212.797 2.6826 212.832 2.61737C212.854 2.58084 212.892 2.52865 212.935 2.52082C213.16 2.48429 213.39 2.46079 213.615 2.43469C213.749 2.47383 213.809 2.52863 213.774 2.59386C213.753 2.63039 213.714 2.67997 213.672 2.6904C213.562 2.7165 213.446 2.72173 213.333 2.73478Z" fill="#FFE492"/>
<path id="Vector_18" d="M76.4132 4.24172C76.5225 4.23911 76.6212 4.27303 76.7058 4.33826C76.653 4.42176 76.5754 4.47656 76.4696 4.50004C76.4167 4.51048 76.3568 4.5183 76.3004 4.5209C76.1911 4.52612 76.0923 4.48959 76.0077 4.42436C76.0606 4.34086 76.1417 4.28606 76.2439 4.26258C76.2968 4.25214 76.3568 4.24955 76.4132 4.24172Z" fill="#FFE492"/>
<path id="Vector_19" d="M249.545 27.4186C249.541 27.343 249.757 27.2568 249.95 27.2595C250.053 27.2621 250.159 27.2986 250.218 27.3691C250.31 27.476 250.257 27.5178 250.084 27.5099C249.979 27.5047 249.866 27.5491 249.76 27.5413C249.64 27.5386 249.57 27.4812 249.545 27.4186Z" fill="#FFE492"/>
<path id="Vector_20" d="M198.06 18.5938C198.057 18.565 198.039 18.5311 198.05 18.505C198.117 18.3615 198.522 18.3172 198.628 18.4424C198.646 18.4659 198.653 18.505 198.639 18.5285C198.618 18.565 198.579 18.612 198.536 18.6224C198.427 18.6485 198.314 18.6616 198.201 18.6642C198.152 18.6642 198.106 18.6198 198.06 18.5938Z" fill="#FFE492"/>
<path id="Vector_21" d="M8.9841 18.0326C8.56803 18.0874 8.56098 18.0822 8.63502 17.9517C8.70202 17.8343 8.82545 17.7639 9.00528 17.7639C9.05817 17.7639 9.11457 17.7587 9.16041 17.7691C9.20977 17.7821 9.28033 17.8082 9.29091 17.8395C9.31207 17.8995 9.25207 17.9648 9.14629 18.0091C9.10045 18.03 9.04052 18.0248 8.9841 18.0326Z" fill="#FFE492"/>
<path id="Vector_22" d="M81.6247 3.87394C81.5012 3.9183 81.3955 3.90266 81.3179 3.81916C81.2404 3.73566 81.3638 3.63649 81.5789 3.61301C81.6353 3.60779 81.6952 3.58693 81.7481 3.59737C81.801 3.60519 81.8539 3.63648 81.8857 3.66779C81.9421 3.71998 81.9068 3.79045 81.794 3.85047C81.7481 3.87395 81.6811 3.86872 81.6247 3.87394Z" fill="#FFE492"/>
<path id="Vector_23" d="M248.808 27.2223C248.84 27.1884 248.872 27.1545 248.907 27.1232C249.037 27.1675 249.094 27.2197 249.058 27.2797C249.037 27.3163 248.995 27.3476 248.963 27.3815C248.833 27.3371 248.78 27.2823 248.808 27.2223Z" fill="#FFE492"/>
<path id="Vector_24" d="M14.5742 47.7704C14.5742 47.7391 14.6235 47.6895 14.6623 47.6791C14.7364 47.6608 14.828 47.6974 14.8915 47.7704C14.9796 47.8748 14.9268 47.9296 14.7646 47.9009C14.6517 47.88 14.5742 47.8278 14.5742 47.7704Z" fill="#FFE492"/>
<path id="Vector_25" d="M199.496 16.1625C199.542 16.186 199.588 16.2095 199.63 16.2356C199.57 16.3321 199.496 16.3739 199.419 16.3478C199.369 16.3321 199.327 16.3008 199.281 16.2773C199.341 16.1808 199.412 16.1442 199.496 16.1625Z" fill="#FFE492"/>
<path id="Vector_26" d="M198.275 16.0452C198.346 16.0061 198.43 16.027 198.529 16.1026C198.497 16.1366 198.469 16.1757 198.43 16.2018C198.363 16.2435 198.275 16.2226 198.18 16.1444C198.208 16.113 198.24 16.0791 198.275 16.0452Z" fill="#FFE492"/>
<path id="Vector_27" d="M197.341 16.1599C197.387 16.1834 197.433 16.2069 197.475 16.2329C197.415 16.3295 197.344 16.3712 197.263 16.3451C197.214 16.3295 197.172 16.2982 197.126 16.2747C197.186 16.1781 197.256 16.139 197.341 16.1599Z" fill="#FFE492"/>
<path id="Vector_28" d="M196.652 16.0217C196.705 16.0739 196.677 16.1365 196.575 16.2069C196.529 16.1834 196.476 16.1652 196.441 16.1339C196.385 16.0843 196.413 16.0191 196.519 15.9486C196.561 15.9747 196.607 15.9982 196.652 16.0217Z" fill="#FFE492"/>
</g>
</g>
</g>
</svg>
