<svg width="219" height="441" viewBox="0 0 219 441" fill="none" xmlns="http://www.w3.org/2000/svg">
<g id="Landing page V2 / desktop / 1440px" clip-path="url(#clip0_5_34420)">
<g id="Work-management">
<g id="Content">
<g id="Headline">
<g id="Text-block">
<g id="BACKGROUND" style="mix-blend-mode:multiply" opacity="0.2">
<g id="Group">
<g id="Group_2">
<path id="Vector" d="M-56.1653 440.354C-61.3438 440.354 -67.5303 438.998 -75.7673 435.926C-97.6283 427.595 -120.045 402.574 -143.714 376.114C-156.747 361.583 -170.197 346.553 -183.717 334.237C-203.458 311.984 -236.927 296.65 -269.319 281.787C-292.988 270.937 -315.335 260.668 -332.643 247.992L-332.678 247.964C-345.677 238.111 -351.759 228.589 -351.272 218.874C-350.334 199.915 -324.372 183.031 -294.274 163.491L-291.389 161.609C-269.076 147.05 -241.063 127.564 -200.504 98.4748L-197.063 96.0945C-160.779 70.9628 -115.597 39.6866 -57.0689 20.7271C60.1606 -23.198 162.758 10.8183 195.15 47.6856C228.932 90.7803 226.013 136.532 184.028 222.639C140.063 312.399 42.6786 381.788 2.84909 407.445C-13.4511 415.915 -23.6691 423.416 -31.1068 428.896C-40.5602 435.815 -46.7119 440.354 -56.1653 440.354ZM-329.585 245.335C-312.659 257.734 -290.52 267.892 -267.095 278.659C-234.321 293.688 -200.4 309.243 -180.242 331.995C-166.687 344.312 -153.167 359.424 -140.099 374.01C-116.744 400.083 -94.6741 424.716 -73.8904 432.66C-53.3501 440.271 -48.5191 436.729 -34.1652 426.211C-26.5886 420.648 -16.1967 413.009 0.207733 404.484C39.5507 379.103 136.24 310.24 179.823 221.282C221.216 136.421 224.24 91.4999 191.396 49.623C159.943 13.8629 59.7435 -19.1293 -55.2616 23.9654C-113.199 42.7589 -158.068 73.8136 -194.109 98.7516L-197.515 101.132C-238.109 130.249 -266.157 149.762 -288.539 164.349L-291.424 166.231C-320.688 185.218 -345.92 201.631 -346.789 218.958C-347.206 227.621 -341.575 236.229 -329.585 245.335Z" fill="#CCCCCC"/>
</g>
<g id="Group_3">
<path id="Vector_2" d="M-62.9109 415.278C-70.0705 415.278 -77.6471 413.451 -88.0737 410.213L-88.2822 410.157C-108.301 402.158 -124.15 382.867 -140.902 362.468C-152.336 348.518 -164.188 334.126 -178.437 321.587C-198.526 301.244 -223.793 285.412 -248.191 270.106C-264.596 259.838 -280.096 250.123 -293.616 239.383L-293.86 239.162C-321.386 209.297 -301.645 196.123 -265.847 172.181C-261.954 169.579 -257.853 166.839 -253.578 163.905C-245.167 158.951 -236.201 153.415 -226.678 147.548C-184.38 121.447 -126.409 85.7147 -44.6296 56.7081C55.3265 26.2346 132.553 48.2663 164.806 83.6112C197.128 120.451 184.581 164.791 148.262 238.858C108.467 313.754 35.8288 362.246 -3.20132 388.292L-7.54575 391.198C-36.5664 408.358 -49.0088 415.278 -62.9109 415.278ZM-86.336 406.891C-57.8714 415.693 -53.0404 413.589 -10.3262 388.402L-6.08603 385.579C32.6313 359.728 104.714 311.596 144.091 237.557C179.82 164.736 192.297 121.226 161.156 85.7424C129.946 51.5323 54.7356 30.3032 -42.8919 60.0572C-124.08 88.8424 -181.774 124.436 -223.932 150.398C-233.455 156.266 -242.422 161.802 -250.763 166.729C-254.934 169.579 -259.035 172.319 -262.927 174.949C-298.76 198.918 -315.165 209.879 -290.315 236.948C-277.003 247.493 -261.641 257.097 -245.411 267.283C-220.769 282.7 -195.328 298.67 -174.997 319.262C-160.608 331.911 -148.652 346.442 -137.113 360.503C-120.744 380.431 -105.243 399.28 -86.336 406.891Z" fill="#CCCCCC"/>
</g>
<g id="Group_4">
<path id="Vector_3" d="M-68.7396 394.354C-77.8802 394.354 -86.3605 391.752 -96.9261 387.324C-114.582 378.854 -128.762 361.334 -143.776 342.817C-152.674 331.802 -161.918 320.426 -172.484 309.991C-187.255 293.606 -204.772 279.601 -221.663 266.038C-235.53 254.912 -248.633 244.422 -258.955 233.6L-259.094 233.434C-280.017 205.368 -258.399 192.276 -219.126 168.501L-218.674 168.224L-211.41 164.266C-170.051 141.819 -113.4 111.069 -35.7916 88.788C55.8232 65.5107 114.143 89.2308 136.282 116.577C159.95 145.749 154.146 184.914 116.263 251.757C88.667 298.339 43.6242 340.216 -17.5798 376.225C-41.2482 389.012 -55.6716 394.354 -68.7396 394.354ZM-255.306 231.468C-245.157 242.069 -232.194 252.476 -218.465 263.464C-201.435 277.11 -183.814 291.253 -168.904 307.777C-158.234 318.267 -148.955 329.753 -139.988 340.852C-125.286 359.037 -111.384 376.197 -94.7018 384.196C-70.6511 394.326 -58.6606 394.133 -20.1865 373.291C40.3572 337.642 84.9134 296.235 112.162 250.234C149.315 184.665 155.223 146.497 132.493 118.487C109.52 90.1165 49.046 70.9633 -34.3666 92.137C-111.35 114.252 -167.723 144.836 -208.873 167.2L-216.415 171.324C-255.966 195.266 -274.074 206.226 -255.306 231.468Z" fill="#CCCCCC"/>
</g>
<g id="Group_5">
<path id="Vector_4" d="M-72.0045 375.312C-82.2225 375.312 -91.815 372.517 -102.52 367.037L-102.589 367.009C-118.716 358.207 -131.714 341.656 -145.477 324.163C-151.837 316.054 -158.441 307.695 -165.6 299.723C-175.158 288.043 -185.758 277.249 -196.011 266.842C-208.593 254.055 -220.514 241.959 -228.299 230.224C-241.888 205.452 -222.008 192.499 -187.67 174.037C-152.289 156.6 -97.6191 131.745 -30.6109 117.076C33.3735 106.586 81.301 115 104.483 140.741C129.507 168.474 123.285 212.454 87.4179 261.417C49.8474 319.043 -9.54926 352.838 -26.8574 361.805C-45.2777 370.884 -59.145 375.312 -72.0045 375.312ZM-100.087 364.02C-80.0677 374.233 -64.3583 376.06 -29.2903 358.761C-12.2602 349.932 46.3719 316.579 83.4558 259.673C118.42 211.929 124.745 169.36 100.799 142.844C78.6943 118.321 32.4003 110.433 -29.6031 120.591C-95.9161 135.122 -150.204 159.783 -185.272 177.082C-220.618 196.069 -236.015 207.362 -224.302 228.701C-216.76 240.022 -204.978 251.979 -192.501 264.655C-182.179 275.145 -171.509 285.967 -161.916 297.731C-154.722 305.702 -148.118 314.144 -141.724 322.281C-128.169 339.414 -115.414 355.633 -100.087 364.02Z" fill="#CCCCCC"/>
</g>
<g id="Group_6">
<path id="Vector_5" d="M-74.1619 357.929C-85.0056 357.929 -94.9803 354.967 -105.337 349.044L-105.615 348.85C-145.271 316.882 -192.156 243.673 -201.158 229.336L-201.297 229.004C-208.317 208.467 -192.469 196.399 -160.807 181.315C-130.987 167.974 -83.8934 150.371 -28.702 142.15C22.1102 135.784 60.1671 144.364 78.5179 166.313C98.8845 190.697 92.6633 227.758 61.4879 268.002C34.0312 306.807 -6.42393 334.734 -35.1318 347.909C-50.1461 354.607 -62.6579 357.929 -74.1619 357.929ZM-102.557 346.221C-82.7117 357.486 -65.0213 357.098 -37.3909 344.781C-9.20433 331.856 30.521 304.399 57.5953 266.176C87.4153 227.675 93.8102 191.113 74.7643 168.306C57.4562 147.575 20.9632 139.521 -27.9374 145.693C-82.4684 153.83 -129.04 171.267 -158.548 184.442C-188.854 198.863 -203.139 209.574 -197.022 227.925C-171.164 269.11 -132.829 321.753 -102.557 346.221Z" fill="#CCCCCC"/>
</g>
<g id="Group_7">
<path id="Vector_6" d="M-75.7486 341.905C-87.3569 341.905 -97.4012 338.833 -105.013 332.882C-135.458 309.383 -167.155 259.812 -176.504 230.003C-178.033 223.111 -175.844 216.385 -170.074 209.964C-152.28 190.174 -99.5559 173.096 -29.0028 164.295C10.792 161.222 40.4729 169.72 54.6531 188.236C70.71 209.216 64.9406 239.745 38.8394 271.963C4.88353 312.732 -35.7453 338.75 -69.8402 341.628C-71.856 341.822 -73.8371 341.905 -75.7486 341.905ZM-13.502 167.256C-18.2982 167.256 -23.2682 167.45 -28.412 167.865C-97.6444 176.501 -149.291 193.025 -166.356 212.067C-171.43 217.713 -173.341 223.498 -172.055 229.283C-162.88 258.483 -131.739 307.252 -101.815 330.336C-93.9256 336.48 -83.0125 339.165 -70.292 338.085C-37.5179 335.318 1.89458 309.881 35.0858 270.025C59.8316 239.468 65.74 209.604 50.83 190.118C39.3955 175.2 16.8394 167.256 -13.502 167.256Z" fill="#CCCCCC"/>
</g>
<g id="Group_8">
<path id="Vector_7" d="M-74.8202 326.68C-85.5944 326.68 -95.0826 323.912 -102.485 318.543C-128.899 299.472 -153.332 259.145 -154.723 232.27V232.215C-154.896 207.443 -103.181 187.099 -31.7932 183.889C-1.38239 183.307 21.1738 191.389 31.7742 206.723C43.9385 224.299 38.9337 248.683 18.0458 273.649C-7.77737 303.984 -40.0998 323.691 -68.4601 326.375C-70.6496 326.569 -72.7697 326.68 -74.8202 326.68ZM-150.204 232.159C-148.814 258.232 -125.111 297.369 -99.427 315.885C-91.607 321.559 -81.1109 323.94 -69.0161 322.805C-41.9417 320.231 -10.801 301.105 14.2923 271.628C34.207 247.825 39.1423 224.769 27.8121 208.411C18.0458 194.323 -3.01588 186.85 -31.6195 187.431C-99.3227 190.504 -150.343 209.74 -150.204 232.159Z" fill="#CCCCCC"/>
</g>
<g id="Group_9">
<path id="Vector_8" d="M-74.044 312.261C-83.4627 312.261 -91.8735 309.964 -98.6508 305.452C-122.458 289.703 -139.384 257.818 -135.665 235.786C-131.634 214.64 -88.2937 199.473 -37.134 201.216C-14.6821 202.241 1.86142 209.603 9.50758 221.92C18.2659 236.036 14.2691 254.774 -1.50983 273.29C-20.1386 294.962 -44.7106 309.382 -67.232 311.873C-69.5606 312.15 -71.8197 312.261 -74.044 312.261ZM-45.2319 204.676C-90.6223 204.676 -127.706 218.045 -131.182 236.312C-134.657 256.877 -118.114 287.904 -95.7661 302.712C-88.398 307.583 -78.7708 309.521 -67.8576 308.331C-46.5526 305.978 -23.1623 292.111 -5.22861 271.27C9.61188 253.86 13.5044 236.451 5.47597 223.497C-1.40558 212.398 -16.6284 205.756 -37.3425 204.787C-39.9839 204.732 -42.6253 204.676 -45.2319 204.676Z" fill="#CCCCCC"/>
</g>
</g>
</g>
</g>
</g>
</g>
</g>
</g>
<defs>
<clipPath id="clip0_5_34420">
<rect width="219" height="441"/>
</clipPath>
</defs>
</svg>
