<svg width="335" height="26" viewBox="0 0 335 26" fill="none" xmlns="http://www.w3.org/2000/svg">
<rect width="335" height="26" fill="#E5E5E5"/>
<g id="Landing page V2 / desktop / 1440px">
<rect width="1440" height="8192" transform="translate(-989.558 -1611.61)" fill="white"/>
<g id="Work-management">
<g id="Content">
<g id="Headline">
<g id="Text-block">
<g id="Element">
<path id="Vector" d="M312.538 13.5011C312.082 13.5225 311.622 13.5372 311.176 13.5692C310.886 13.5893 310.761 13.5305 310.568 13.4998C310.504 13.4891 310.435 13.4677 310.375 13.4704C309.924 13.4917 309.473 13.5158 309.022 13.5398C308.884 13.592 308.796 13.6614 308.585 13.6868C308.378 13.7109 308.134 13.7109 307.904 13.7229C307.6 13.7376 307.296 13.7523 306.992 13.7657C306.84 13.7723 306.716 13.7977 306.666 13.8458C306.656 13.8539 306.758 13.8739 306.813 13.8859C306.997 13.926 307.176 13.9714 307.379 14.0022C307.572 14.0316 307.811 13.9835 308.019 14.0209C308.483 14.1051 308.488 14.1037 308.842 14.0877C309.146 14.073 309.45 14.057 309.754 14.0463C309.813 14.0436 309.882 14.0636 309.947 14.0743C310.14 14.1037 310.264 14.1705 310.55 14.1451C310.766 14.1251 311.005 14.1211 311.231 14.1104C311.419 14.1492 311.594 14.1932 311.797 14.224C311.986 14.2534 312.041 14.2761 311.94 14.3148C311.848 14.3509 311.719 14.3656 311.548 14.3683C311.396 14.3696 311.245 14.3816 311.093 14.3883C311.014 14.3923 310.941 14.395 310.867 14.399C310.577 14.4137 310.577 14.4137 310.048 14.3282C309.841 14.2948 309.606 14.3416 309.408 14.3095C309.275 14.2881 309.16 14.2561 309.031 14.2333C308.976 14.224 308.888 14.2226 308.819 14.2253C308.589 14.2347 308.359 14.2413 308.138 14.2587C307.982 14.2707 307.89 14.3082 307.908 14.3456C307.913 14.3603 308.023 14.3817 308.088 14.383C308.235 14.3857 308.391 14.367 308.534 14.3763C308.672 14.3857 308.815 14.4124 308.916 14.4418C309.123 14.5032 309.358 14.4485 309.556 14.4645C309.763 14.4819 309.933 14.5353 310.131 14.5674C310.181 14.5754 310.278 14.562 310.356 14.558C310.582 14.5487 310.807 14.5407 311.033 14.5313C311.222 14.5701 311.424 14.6048 311.594 14.6489C311.903 14.7291 312.234 14.7598 312.634 14.721C312.86 14.6997 313.081 14.7077 313.26 14.7598C313.444 14.8132 313.656 14.8079 313.891 14.7972C314.107 14.7865 314.328 14.7571 314.549 14.7945C315.028 14.8774 315.032 14.8814 315.598 14.8493C315.768 14.84 315.897 14.8373 316.026 14.868C316.146 14.8961 316.275 14.9201 316.399 14.9469C316.624 14.9375 316.855 14.9282 317.08 14.9175C317.37 14.9028 317.531 14.9215 317.6 14.9963C317.641 15.0417 317.66 15.0832 317.761 15.1139C317.881 15.1513 318.01 15.15 318.185 15.1393C318.35 15.1299 318.47 15.1152 318.539 15.0671C318.566 15.0471 318.622 15.0284 318.672 15.0123C318.714 15.0003 318.778 14.9816 318.815 14.9843C318.884 14.9896 318.976 15.0043 318.999 15.0217C319.225 15.1834 319.225 15.1847 319.455 15.2315C319.708 15.2836 319.97 15.3304 320.2 15.3891C320.407 15.4413 320.614 15.4186 320.84 15.4186C321.01 15.4186 321.121 15.4533 321.107 15.488C321.098 15.5081 321.033 15.5375 320.978 15.5401C320.527 15.5669 320.071 15.5896 319.616 15.6083C319.561 15.611 319.492 15.5869 319.427 15.5749C319.298 15.5508 319.183 15.5134 319.045 15.5054C318.907 15.4974 318.746 15.5174 318.594 15.5241C318.442 15.5308 318.281 15.5482 318.143 15.5375C318.005 15.5268 317.895 15.488 317.766 15.4626C317.706 15.4506 317.623 15.4333 317.573 15.4373C317.237 15.4693 316.988 15.4252 316.749 15.3664C316.698 15.3544 316.611 15.3464 316.546 15.3491C316.012 15.3718 315.483 15.3985 314.949 15.4239C314.733 15.4346 314.558 15.3878 314.512 15.309C314.489 15.2649 314.443 15.2208 314.443 15.1767C314.443 15.0965 314.19 15.0524 314.006 15.0618C313.702 15.0751 313.394 15.0858 313.095 15.1059C312.851 15.1219 312.644 15.1059 312.478 15.0578C312.285 15.003 312.064 15.0137 311.843 15.0284C311.677 15.0391 311.631 15.0832 311.64 15.1941C311.65 15.2836 311.571 15.3116 311.272 15.3263C310.895 15.3451 310.513 15.3638 310.131 15.3785C310.071 15.3811 310.002 15.3584 309.942 15.3464C309.813 15.3223 309.698 15.2836 309.56 15.2756C309.422 15.2662 309.261 15.2863 309.109 15.2943C308.957 15.301 308.796 15.3197 308.658 15.3103C308.52 15.301 308.405 15.2609 308.281 15.2355C308.221 15.2235 308.147 15.2061 308.088 15.2088C307.784 15.2194 307.48 15.2355 307.176 15.2502C306.836 15.2662 306.836 15.2662 306.353 15.1834C306.132 15.146 305.911 15.1754 305.694 15.1861C305.464 15.1967 305.248 15.2021 305.069 15.1486C304.949 15.1139 304.815 15.0925 304.673 15.0992C304.291 15.1152 303.913 15.1353 303.531 15.1513C303.467 15.154 303.38 15.1473 303.329 15.1353C303.085 15.0792 302.846 15.0351 302.505 15.0631C302.211 15.0872 301.893 15.0885 301.599 15.1112C301.438 15.1232 301.364 15.166 301.396 15.1994C301.414 15.2168 301.511 15.2368 301.576 15.2368C301.723 15.2382 301.884 15.2181 302.022 15.2261C302.307 15.2422 302.45 15.3544 302.823 15.3237C303.044 15.305 303.274 15.2983 303.504 15.2929C303.564 15.2916 303.628 15.317 303.693 15.3304C303.877 15.3664 304.038 15.4132 304.305 15.3891C304.526 15.3704 304.76 15.3651 304.986 15.3544C305.345 15.337 305.345 15.3384 305.81 15.4199C306.03 15.4586 306.251 15.4279 306.468 15.4186C306.629 15.4119 306.781 15.3985 306.909 15.4172C307.107 15.4453 307.25 15.5094 307.494 15.5054C307.724 15.5014 307.949 15.4827 308.18 15.476C308.322 15.472 308.456 15.4934 308.571 15.5295C308.69 15.5655 308.819 15.5816 308.976 15.5735C309.201 15.5629 309.431 15.5495 309.661 15.5428C309.726 15.5415 309.8 15.5535 309.859 15.5642C309.988 15.5882 310.112 15.6163 310.237 15.6417C310.462 15.6337 310.692 15.631 310.913 15.615C311.084 15.6029 311.203 15.6083 311.341 15.635C311.516 15.6711 311.659 15.7352 311.944 15.7045C312.087 15.6898 312.253 15.6938 312.395 15.6804C312.57 15.6631 312.69 15.6698 312.814 15.7098C313.049 15.786 313.343 15.7873 313.647 15.7579C313.978 15.7259 314.227 15.7633 314.475 15.8221C314.738 15.8836 314.738 15.8822 314.94 16.0305C315 16.0733 315.17 16.0933 315.313 16.0853C315.552 16.072 315.759 16.0786 315.934 16.1294C316.118 16.1842 316.339 16.1775 316.565 16.1628C316.864 16.1428 317.163 16.1254 317.407 16.2029C317.526 16.2403 317.655 16.2497 317.816 16.2403C318.272 16.2163 318.732 16.2016 319.179 16.1722C319.45 16.1535 319.607 16.1962 319.791 16.2323C320.039 16.2817 320.311 16.3258 320.311 16.4314C320.311 16.4488 320.375 16.4688 320.43 16.4822C320.55 16.5102 320.679 16.5343 320.803 16.561C320.987 16.6011 321.167 16.6345 321.42 16.6131C321.641 16.5957 321.875 16.5904 322.101 16.5784C322.326 16.5663 322.534 16.5597 322.736 16.6104C322.971 16.6679 323.219 16.7227 323.486 16.7654C323.675 16.7962 323.923 16.7441 324.126 16.7855C324.25 16.8109 324.37 16.8403 324.503 16.8616C324.558 16.871 324.646 16.8643 324.72 16.8616C324.871 16.8563 325.028 16.8523 325.175 16.8389C325.345 16.8242 325.474 16.8269 325.603 16.8577C325.723 16.8857 325.842 16.9245 325.981 16.9325C326.188 16.9445 326.418 16.8911 326.625 16.9525C326.731 16.9832 326.864 17.0126 327.002 17.022C327.14 17.0314 327.301 17.0113 327.449 17.0126C327.513 17.0126 327.591 17.034 327.628 17.0514C327.651 17.0607 327.619 17.0861 327.587 17.0995C327.545 17.1155 327.485 17.1369 327.426 17.1396C326.97 17.1636 326.514 17.1837 326.059 17.2064C325.787 17.2198 325.787 17.2198 325.24 17.1356C325.111 17.1155 324.968 17.1195 324.807 17.1289C324.591 17.1409 324.37 17.1636 324.144 17.1396C323.85 17.0487 323.486 17.0407 323.1 17.0754C322.939 17.0901 322.791 17.0901 322.672 17.0648C322.418 17.014 322.152 16.9672 321.926 16.9071C321.751 16.8603 321.668 16.8563 321.595 16.9204C321.572 16.9405 321.549 16.9619 321.553 16.9806C321.581 17.0474 321.632 17.1129 321.659 17.1797C321.668 17.1984 321.632 17.2198 321.609 17.2398C321.535 17.2959 321.438 17.2919 321.277 17.2451C321.116 17.1984 320.923 17.1676 320.665 17.189C320.444 17.2077 320.205 17.2051 319.984 17.2251C319.643 17.2545 319.404 17.2117 319.16 17.1543C319.11 17.1423 319.022 17.1356 318.958 17.1383C318.272 17.169 317.591 17.2037 316.905 17.2345C316.758 17.2411 316.624 17.2211 316.509 17.185C316.39 17.1489 316.256 17.1302 316.109 17.1369C315.501 17.165 314.894 17.1904 314.287 17.2251C314.038 17.2398 313.84 17.2224 313.67 17.1757C313.541 17.1409 313.421 17.1302 313.26 17.1342C313.085 17.1382 312.961 17.1516 312.874 17.1904C312.791 17.2278 312.851 17.2505 313.035 17.2799C313.233 17.3119 313.417 17.3534 313.605 17.3908C313.757 17.3855 313.909 17.3747 314.056 17.3761C314.121 17.3761 314.181 17.4001 314.245 17.4135C314.429 17.4523 314.599 17.491 314.862 17.4696C315.083 17.4509 315.317 17.4469 315.543 17.4349C315.856 17.4202 315.856 17.4202 316.362 17.5044C316.491 17.5257 316.629 17.5244 316.795 17.5124C316.937 17.503 317.085 17.5217 317.186 17.5618C317.227 17.5779 317.214 17.6046 317.126 17.6928C317.126 17.7583 317.223 17.7289 317.255 17.6861C317.306 17.6246 317.209 17.6046 317.025 17.638C316.896 17.662 316.832 17.6968 316.864 17.7248C316.882 17.7395 316.97 17.7583 317.126 17.6928C317.531 17.6126 317.839 17.6032 318.134 17.5819C318.309 17.5698 318.419 17.5752 318.557 17.6099C318.723 17.6513 318.889 17.6954 319.16 17.6741C319.455 17.65 319.768 17.6473 320.067 17.6273C320.343 17.6086 320.486 17.6674 320.66 17.7021C320.872 17.7435 321.107 17.6968 321.3 17.7208C321.503 17.7449 321.645 17.8037 321.88 17.8144C322.221 17.7783 322.437 17.8451 322.695 17.8892C322.897 17.9226 323.136 17.8932 323.353 17.8785C323.597 17.8625 323.799 17.8772 323.969 17.9253C324.163 17.9801 324.379 17.968 324.6 17.956C325.115 17.9293 325.134 17.9253 325.433 17.9988C325.649 18.0522 325.856 18.0282 326.073 18.0215C326.261 18.0576 326.445 18.0963 326.643 18.1284C326.694 18.1364 326.79 18.123 326.869 18.119C327.094 18.1083 327.324 18.0976 327.55 18.087C327.702 18.0803 327.863 18.0602 328.001 18.0682C328.139 18.0776 328.254 18.1164 328.378 18.1417C328.503 18.1671 328.631 18.1925 328.751 18.2192C328.935 18.2593 329.11 18.2927 329.368 18.2727C329.589 18.2553 329.819 18.25 330.049 18.2379C330.339 18.2232 330.329 18.2273 330.868 18.3074C331.158 18.3515 331.457 18.2981 331.751 18.2927C331.899 18.2901 332.041 18.3048 332.143 18.3435C332.184 18.3595 332.17 18.3863 332.184 18.409C331.425 18.4451 330.661 18.4758 329.911 18.5199C329.621 18.5373 329.469 18.4891 329.312 18.4491C329.055 18.3849 328.714 18.4785 328.47 18.3956C328.323 18.3462 328.111 18.3181 327.858 18.3422C327.711 18.3555 327.554 18.3542 327.403 18.3662C327.016 18.3956 326.662 18.397 326.353 18.3048C326.247 18.2727 326.096 18.2553 325.985 18.2246C325.856 18.1912 325.732 18.1725 325.58 18.1791C324.894 18.2112 324.213 18.2433 323.532 18.278C323.472 18.2807 323.413 18.3007 323.362 18.3154C323.233 18.3529 323.274 18.3823 323.482 18.4063C323.551 18.4143 323.606 18.4317 323.67 18.445C323.795 18.4704 323.91 18.5105 324.048 18.5199C324.186 18.5292 324.347 18.5105 324.499 18.5039C324.651 18.4972 324.812 18.4771 324.95 18.4851C325.088 18.4945 325.203 18.5333 325.332 18.5573C325.391 18.5693 325.465 18.5894 325.525 18.588C325.829 18.58 326.128 18.5653 326.432 18.5533C326.62 18.5894 326.781 18.6415 327.007 18.6535C327.149 18.6615 327.301 18.6468 327.449 18.6495C327.513 18.6508 327.596 18.6709 327.628 18.6882C327.646 18.6989 327.587 18.7257 327.541 18.739C327.366 18.7898 327.126 18.7804 326.91 18.7965C326.675 18.8138 326.464 18.8085 326.284 18.7564C326.165 18.7217 326.031 18.7029 325.884 18.7096C325.502 18.727 325.124 18.747 324.743 18.7617C324.678 18.7644 324.6 18.7524 324.54 18.743C324.057 18.6615 324.057 18.6589 323.716 18.6762C323.215 18.7016 323.215 18.7016 322.879 18.6308C322.814 18.6174 322.745 18.592 322.69 18.5934C322.156 18.6148 321.627 18.6361 321.098 18.6669C320.923 18.6762 320.803 18.6762 320.674 18.6415C320.564 18.6121 320.435 18.5787 320.297 18.5707C320.154 18.5626 319.998 18.5827 319.846 18.5894C319.694 18.5961 319.533 18.6134 319.4 18.6027C319.261 18.592 319.142 18.5546 319.022 18.5279C318.898 18.4998 318.764 18.5012 318.594 18.5119C318.07 18.5426 318.065 18.5386 317.545 18.4557C317.485 18.4464 317.407 18.4357 317.342 18.4384C316.96 18.4544 316.583 18.4745 316.201 18.4905C316.054 18.4972 315.911 18.4798 315.81 18.4411C315.768 18.425 315.782 18.3983 315.755 18.3462C315.723 18.3341 315.759 18.3555 315.768 18.3756C315.837 18.3729 315.92 18.3756 315.971 18.3649C316.1 18.3395 316.164 18.3061 316.132 18.278C316.114 18.2633 316.026 18.2446 315.971 18.2446C315.87 18.2446 315.782 18.274 315.755 18.3462C315.465 18.3903 315.156 18.3996 314.857 18.421C314.682 18.4344 314.572 18.4277 314.434 18.393C314.268 18.3502 314.098 18.3088 313.826 18.3301C313.532 18.3542 313.219 18.3582 312.915 18.3769C312.565 18.3983 312.414 18.278 312.119 18.2807C311.815 18.2834 311.512 18.3061 311.208 18.3221C310.941 18.3355 310.941 18.3355 310.389 18.2486C310.186 18.2166 309.947 18.2633 309.749 18.2299C309.615 18.2085 309.5 18.1765 309.372 18.1538C309.316 18.1444 309.229 18.1444 309.16 18.1471C308.778 18.1631 308.391 18.1738 308.023 18.2032C307.604 18.2379 307.287 18.2005 306.988 18.1217C306.61 18.1364 306.228 18.1444 305.856 18.1698C305.584 18.1885 305.428 18.1444 305.243 18.1083C305.179 18.0963 305.124 18.0763 305.055 18.0709C304.986 18.0656 304.903 18.0763 304.829 18.0803C304.525 18.095 304.213 18.1017 303.918 18.1257C303.554 18.1564 303.416 18.0469 303.136 18.0335C302.947 18.099 302.846 18.1885 302.473 18.1952C302.169 18.2005 301.866 18.2219 301.562 18.2366C301.41 18.2433 301.258 18.2513 301.106 18.258C300.862 18.27 300.747 18.3221 300.798 18.4023C300.826 18.4464 300.848 18.4905 300.871 18.5346C300.918 18.6134 300.802 18.6802 300.609 18.6896C300.075 18.715 299.546 18.7417 299.012 18.7644C298.87 18.7711 298.731 18.7484 298.616 18.7123C298.497 18.6762 298.363 18.6602 298.216 18.6669C297.682 18.6923 297.153 18.719 296.619 18.7417C296.559 18.7444 296.481 18.731 296.421 18.7203C296.292 18.6963 296.168 18.6682 296.044 18.6428C295.74 18.6548 295.441 18.6628 295.142 18.6789C294.659 18.7029 294.659 18.7043 294.304 18.6308C294.24 18.6174 294.175 18.592 294.116 18.5934C293.886 18.5987 293.66 18.6121 293.43 18.6241C292.753 18.6589 292.753 18.6588 292.555 18.6188C292.376 18.5813 292.215 18.5359 291.943 18.5573C291.649 18.5814 291.336 18.5894 291.032 18.6027C290.807 18.6121 290.581 18.6228 290.356 18.6255C290.296 18.6268 290.231 18.6014 290.167 18.588C289.983 18.5466 289.803 18.5132 289.55 18.5359C289.403 18.5493 289.247 18.552 289.095 18.5586C288.699 18.5773 288.699 18.5773 288.05 18.4972C287.986 18.4891 287.907 18.4798 287.843 18.4838C287.309 18.5079 286.78 18.5346 286.246 18.5573C286.182 18.56 286.103 18.5519 286.039 18.5453C285.312 18.4678 285.312 18.4678 284.539 18.5052C284.244 18.5185 284.235 18.5239 283.927 18.4531C283.788 18.4223 283.673 18.4076 283.512 18.417C282.905 18.4491 282.293 18.4704 281.69 18.5079C281.418 18.5239 281.262 18.4838 281.078 18.4477C281.013 18.4357 280.944 18.409 280.889 18.4103C280.282 18.4357 279.674 18.4664 279.067 18.4918C279.011 18.4945 278.942 18.4678 278.878 18.4557C278.754 18.4317 278.634 18.3956 278.496 18.3876C278.353 18.3796 278.197 18.3996 278.04 18.4063C277.658 18.4237 277.658 18.4223 277.217 18.3435C277.157 18.3328 277.079 18.3181 277.019 18.3208C276.411 18.3475 275.799 18.3702 275.196 18.409C274.851 18.4304 274.616 18.3916 274.373 18.3355C274.322 18.3235 274.235 18.3181 274.17 18.3208C273.484 18.3515 272.803 18.3863 272.118 18.417C271.975 18.4237 271.837 18.401 271.722 18.3662C271.538 18.3114 271.321 18.3181 271.091 18.3301C270.562 18.3582 270.557 18.3569 270.244 18.2927C270.18 18.2794 270.125 18.262 270.056 18.2553C269.991 18.2486 269.909 18.2526 269.84 18.2553C269.536 18.2687 269.232 18.2834 268.928 18.2981C268.625 18.3128 268.316 18.3208 268.017 18.3435C267.649 18.3716 267.474 18.2847 267.216 18.2446C266.839 18.262 266.452 18.2727 266.08 18.3007C265.794 18.3221 265.661 18.2633 265.472 18.2326C265.408 18.2219 265.339 18.1992 265.279 18.2019C264.593 18.2313 263.907 18.2633 263.226 18.2994C263.061 18.3074 262.95 18.2967 262.812 18.2647C262.504 18.1925 262.49 18.1952 261.975 18.2219C261.749 18.2339 261.533 18.2446 261.339 18.1898C261.169 18.1404 260.962 18.1284 260.718 18.1444C260.419 18.1644 260.111 18.1751 259.807 18.1885C259.503 18.2032 259.199 18.2232 258.896 18.2299C258.652 18.2366 258.505 18.1738 258.311 18.1417C258.251 18.1324 258.169 18.131 258.1 18.1337C257.796 18.1457 257.483 18.1551 257.188 18.1778C256.829 18.2059 256.632 18.1324 256.378 18.0896C256.323 18.0803 256.231 18.0856 256.162 18.0896C255.628 18.1137 255.099 18.1404 254.565 18.1658C254.376 18.1297 254.183 18.095 253.994 18.0589C253.691 18.0723 253.387 18.087 253.083 18.1003C252.853 18.111 252.618 18.115 252.402 18.1351C252.121 18.1618 251.983 18.099 251.795 18.0682C251.73 18.0576 251.661 18.0348 251.601 18.0375C251.219 18.0522 250.837 18.0683 250.46 18.091C250.101 18.1137 249.958 17.9934 249.664 17.9947C249.36 17.9961 249.047 18.0135 248.753 18.0375C248.412 18.0656 248.173 18.0228 247.929 17.9654C247.878 17.9533 247.791 17.9466 247.726 17.9493C247.344 17.9654 246.967 17.9854 246.585 18.0014C246.521 18.0041 246.442 17.9974 246.378 17.9894C245.651 17.9106 245.651 17.9092 245.333 17.9253C245.108 17.936 244.878 17.9493 244.648 17.956C244.583 17.9587 244.505 17.9467 244.445 17.936C243.966 17.8545 243.966 17.8531 243.621 17.8692C243.318 17.8839 243.014 17.8985 242.71 17.9132C242.521 17.8772 242.328 17.8424 242.139 17.8064C241.762 17.8237 241.375 17.8371 241.003 17.8611C240.828 17.8718 240.713 17.8678 240.579 17.8344C240.414 17.7943 240.248 17.7476 239.972 17.7703C239.677 17.7943 239.364 17.797 239.065 17.817C238.706 17.8411 238.559 17.7195 238.269 17.7208C237.965 17.7222 237.652 17.7395 237.358 17.7636C237.017 17.7916 236.778 17.7489 236.534 17.6914C236.483 17.6794 236.396 17.6727 236.332 17.6754C235.494 17.7142 234.661 17.7529 233.824 17.7943C233.308 17.8197 233.308 17.821 232.328 17.7476C232.259 17.7422 232.185 17.7369 232.116 17.7395C231.812 17.7516 231.499 17.7609 231.205 17.7836C230.846 17.8117 230.648 17.7395 230.395 17.6954C230.34 17.6861 230.252 17.6914 230.179 17.6941C229.948 17.7035 229.723 17.7155 229.493 17.7262C229.189 17.7409 228.885 17.7556 228.582 17.7703C228.393 17.7355 228.2 17.6994 228.011 17.6647C227.634 17.6821 227.247 17.6914 226.874 17.7195C226.589 17.7409 226.455 17.6848 226.267 17.6527C226.202 17.642 226.133 17.6193 226.074 17.6206C225.388 17.65 224.702 17.6807 224.021 17.7182C223.74 17.7342 223.611 17.6741 223.423 17.6433C223.358 17.634 223.285 17.6166 223.225 17.6193C222.769 17.638 222.314 17.6607 221.858 17.6834C221.6 17.6968 221.6 17.6968 221.039 17.6139C220.974 17.6046 220.901 17.5952 220.836 17.5979C219.391 17.6647 217.951 17.7355 216.506 17.8023C216.358 17.809 216.225 17.789 216.11 17.7529C215.99 17.7168 215.857 17.6981 215.71 17.7048C215.102 17.7329 214.49 17.7583 213.887 17.793C213.639 17.8077 213.441 17.7903 213.27 17.7435C213.142 17.7088 213.022 17.6954 212.861 17.7035C212.557 17.7195 212.253 17.7329 211.95 17.7476C211.646 17.7623 211.342 17.777 211.039 17.7917C210.735 17.8064 210.426 17.8144 210.127 17.8371C209.759 17.8651 209.58 17.7823 209.327 17.7409C208.871 17.7609 208.415 17.781 207.964 17.8023C207.357 17.8304 206.749 17.8611 206.142 17.8879C206.087 17.8905 206.018 17.8665 205.953 17.8545C205.764 17.8211 205.626 17.7743 205.346 17.789C203.983 17.8598 202.612 17.9199 201.245 17.9894C200.96 18.0041 200.836 17.9466 200.642 17.9159C200.578 17.9066 200.504 17.8879 200.444 17.8905C199.685 17.9239 198.926 17.9613 198.166 17.9974C197.858 18.0121 197.858 18.0121 197.343 17.9293C197.283 17.9199 197.205 17.9079 197.14 17.9106C196.151 17.956 195.166 18.0041 194.176 18.0509C194.029 18.0576 193.896 18.0389 193.776 18.0028C193.661 17.9667 193.523 17.9467 193.38 17.9533C192.469 17.9961 191.553 18.0375 190.647 18.0843C190.403 18.0976 190.2 18.0856 190.025 18.0375C189.901 18.0028 189.777 17.9881 189.62 17.9961C188.254 18.0616 186.887 18.1244 185.52 18.1939C185.257 18.2072 185.073 18.1818 184.908 18.1377C184.774 18.103 184.659 18.0963 184.494 18.1017C184.319 18.1083 184.213 18.123 184.116 18.1631C183.992 18.2152 183.914 18.2807 183.619 18.2847C183.315 18.2887 183.007 18.3048 182.708 18.3275C182.423 18.3502 182.289 18.2901 182.11 18.254C181.976 18.2286 181.852 18.2246 181.682 18.2366C181.525 18.2473 181.429 18.27 181.337 18.3128C181.134 18.4036 181.116 18.4036 180.867 18.3462C180.734 18.3154 180.614 18.2914 180.467 18.2967C179.859 18.3235 179.252 18.3529 178.644 18.3836C178.295 18.401 178.29 18.4036 178.028 18.3368C177.899 18.3034 177.774 18.2874 177.623 18.2954C175.952 18.3756 174.282 18.4531 172.611 18.5373C172.353 18.5506 172.178 18.5226 171.994 18.4825C171.934 18.4691 171.875 18.4504 171.806 18.445C171.737 18.4397 171.658 18.4451 171.585 18.4477C170.37 18.5052 169.15 18.56 167.94 18.6241C167.664 18.6388 167.516 18.5961 167.328 18.5613C167.263 18.5493 167.208 18.5306 167.139 18.5252C167.07 18.5212 166.987 18.5306 166.914 18.5346C165.699 18.592 164.479 18.6468 163.269 18.711C162.979 18.7257 162.854 18.6695 162.666 18.6401C162.601 18.6295 162.532 18.6094 162.473 18.6121C162.091 18.6268 161.713 18.6468 161.331 18.6642C160.42 18.7083 159.509 18.7497 158.598 18.7952C158.248 18.8125 158.096 18.6936 157.801 18.6989C157.419 18.7056 157.042 18.7323 156.66 18.751C156.356 18.7657 156.053 18.7791 155.749 18.7952C155.45 18.8098 155.45 18.8098 154.704 18.7323C154.64 18.7257 154.561 18.7163 154.497 18.719C153.434 18.7684 152.366 18.8179 151.308 18.8713C151.064 18.8833 150.861 18.8767 150.687 18.8272C150.562 18.7925 150.433 18.7751 150.282 18.7831C148.685 18.8593 147.092 18.9354 145.495 19.0103C145.436 19.013 145.357 18.9996 145.297 18.9889C145.169 18.9648 145.044 18.9368 144.92 18.9114C144.828 18.9421 144.708 18.9702 144.649 19.0049C144.566 19.0517 144.455 19.0651 144.28 19.0731C144.106 19.0811 143.995 19.0784 143.857 19.0437C143.691 19.0009 143.521 18.9675 143.25 18.9809C141.579 19.0651 139.908 19.1412 138.238 19.2241C137.962 19.2374 137.833 19.1786 137.64 19.1479C137.575 19.1385 137.501 19.1239 137.442 19.1265C136.756 19.1573 136.075 19.1907 135.389 19.2227C133.488 19.3136 131.588 19.4005 129.692 19.4967C129.347 19.514 129.112 19.4806 128.868 19.4232C128.817 19.4111 128.73 19.4045 128.666 19.4071C126.006 19.5327 123.345 19.6597 120.69 19.7866C120.547 19.7933 120.409 19.7719 120.294 19.7372C120.175 19.7011 120.041 19.6837 119.894 19.6904C118.679 19.7479 117.464 19.8053 116.249 19.8641C115.945 19.8788 115.941 19.8801 115.628 19.816C115.563 19.8026 115.494 19.7773 115.444 19.7799C115.338 19.7866 115.237 19.82 115.163 19.8654C115.089 19.9135 114.974 19.9269 114.804 19.9363C114.629 19.9456 114.514 19.9416 114.381 19.9095C114.21 19.8695 114.054 19.8307 113.778 19.8441C110.285 20.0151 106.792 20.1794 103.299 20.3491C103.018 20.3625 102.889 20.3064 102.696 20.2757C102.631 20.2663 102.567 20.2529 102.498 20.2503C102.424 20.2476 102.346 20.2556 102.272 20.2596C96.5751 20.5309 90.8777 20.8035 85.1803 21.0747C84.8397 21.0907 84.8443 21.0907 84.4716 21.2137C84.4255 21.2284 84.3657 21.2484 84.3012 21.2511C82.557 21.3366 80.8083 21.4194 79.0595 21.5023C78.3001 21.5384 77.5408 21.5758 76.7815 21.6105C76.5099 21.6226 76.5099 21.6226 75.8611 21.7669C75.8058 21.7789 75.7413 21.7949 75.6769 21.7976C72.6395 21.9433 69.6021 22.0889 66.5601 22.2319C66.3208 22.2426 66.1275 22.2666 66.0171 22.3307C65.9389 22.3762 65.8376 22.4029 65.6858 22.4109C63.5596 22.5125 61.4335 22.6154 59.3027 22.7142C59.0496 22.7263 58.8977 22.7637 58.7734 22.8198C58.732 22.8385 58.6951 22.8599 58.6353 22.8732C58.5801 22.8853 58.4973 22.8893 58.4282 22.8933C56.6058 22.9801 54.7834 23.0697 52.9564 23.1525C52.6849 23.1645 52.5744 23.214 52.4409 23.2661C52.3949 23.2835 52.3626 23.3075 52.3028 23.3195C52.243 23.3302 52.1556 23.3302 52.0819 23.3329C50.5632 23.4051 49.0446 23.4785 47.5259 23.5507C47.2314 23.544 47.1669 23.6215 47.0242 23.6683C46.9736 23.6843 46.9369 23.7057 46.877 23.7164C46.8126 23.7271 46.7297 23.7257 46.6514 23.7284C45.4365 23.7859 44.2215 23.8473 43.002 23.9008C42.7213 23.9128 42.666 23.981 42.5141 24.0277C42.4635 24.0424 42.413 24.0651 42.3531 24.0692C41.5938 24.1079 40.8345 24.144 40.0751 24.1787C39.822 24.1907 39.822 24.1894 39.3756 24.3217C39.325 24.3364 39.2651 24.3524 39.2007 24.3564C38.0639 24.4126 36.9226 24.466 35.7813 24.5208C35.6341 24.5275 35.5328 24.5595 35.4592 24.605C35.3856 24.6504 35.2797 24.6798 35.1325 24.6865C34.2213 24.7306 33.31 24.776 32.3987 24.8161C32.1456 24.8268 31.98 24.8602 31.8695 24.9203C31.7867 24.9657 31.6855 24.9885 31.5244 24.9965C30.6132 25.0392 29.702 25.086 28.7862 25.1234C28.5192 25.1341 28.3811 25.1795 28.2707 25.2357C28.1832 25.2811 28.082 25.2971 27.9117 25.3051C26.2411 25.3826 24.566 25.4601 22.9001 25.5457C22.6193 25.5604 22.4766 25.5136 22.2925 25.4802C22.0302 25.4334 21.7864 25.3826 21.7864 25.2784C21.7864 25.2624 21.7081 25.2437 21.6529 25.2303C21.2433 25.1301 21.2433 25.1301 21.1789 25.0232C21.1421 24.9577 21.1006 24.8909 21.0684 24.8241C21.0086 24.7145 20.8613 24.6865 20.4379 24.7065C20.286 24.7132 20.1341 24.7226 19.9823 24.7279C19.7568 24.7372 19.5865 24.6932 19.5451 24.613C19.5221 24.5689 19.4945 24.5248 19.4715 24.4807C19.7016 24.47 19.697 24.4687 20.1019 24.307C20.2722 24.2389 20.2723 24.2389 19.9455 24.1707C19.8213 24.1453 19.7016 24.1172 19.5681 24.0932C19.5083 24.0825 19.4301 24.0758 19.3657 24.0785C18.9837 24.0945 18.6063 24.1132 18.229 24.132C17.6215 24.1613 17.6214 24.1613 17.0047 24.025C16.9541 24.0144 16.8759 23.9943 16.8851 23.9836C16.9357 23.9342 17.0599 23.9128 17.2164 23.9075C17.4465 23.8994 17.672 23.8861 17.8975 23.8754C18.0494 23.8687 18.2013 23.8607 18.3531 23.854C18.4958 23.8033 18.6431 23.7538 18.7766 23.7017C18.9883 23.6215 18.9882 23.6188 18.6983 23.5627C18.5142 23.5253 18.3163 23.4919 18.1276 23.4572C17.9021 23.4679 17.672 23.4799 17.4465 23.4892C17.1612 23.5013 17.0461 23.4759 16.9725 23.389C16.9081 23.3129 16.9863 23.2474 17.2072 23.2313C17.4327 23.2153 17.6445 23.2046 17.7595 23.1365C17.87 23.071 18.0632 23.0456 18.3026 23.0403C18.4544 23.0363 18.6063 23.0269 18.7582 23.0189C18.9561 23.0082 19.0619 22.9401 19.0205 22.8639C18.9975 22.8145 18.9515 22.773 18.772 22.7623C17.9758 22.7156 17.9666 22.7169 17.5708 22.626C17.534 22.618 17.5064 22.594 17.5202 22.582C17.5432 22.5619 17.5939 22.5325 17.6491 22.5285C18.1783 22.4991 18.7076 22.4724 19.2368 22.4523C19.4117 22.4457 19.5406 22.4363 19.6004 22.3869C19.6832 22.3187 19.6464 22.2559 19.4853 22.2091C19.4347 22.1945 19.3518 22.1757 19.2966 22.1771C18.6891 22.2011 18.0862 22.2319 17.4788 22.2559C17.4235 22.2586 17.3223 22.2359 17.2993 22.2185C17.2533 22.1864 17.3223 22.1437 17.4834 22.129C17.6951 22.1089 17.9114 22.1076 18.054 22.0408C18.2519 21.9459 18.4958 21.8591 18.7167 21.7682C18.7535 21.7522 18.8134 21.7214 18.7996 21.7188C18.6846 21.6894 18.5511 21.6666 18.4314 21.6386C18.2289 21.5918 18.2289 21.5264 18.2749 21.4636C18.3117 21.4128 18.4498 21.3927 18.6201 21.3927C18.6937 21.3927 18.7857 21.3927 18.8456 21.3807C19.002 21.3513 19.0527 21.3139 18.9744 21.2858C18.9284 21.2698 18.8456 21.2471 18.7904 21.2498C17.8056 21.2939 16.816 21.3366 15.8358 21.3914C15.5459 21.4074 15.4125 21.3566 15.2376 21.3206C15.1041 21.2925 14.9798 21.2818 14.8141 21.3019C14.6577 21.3206 14.5058 21.3099 14.4092 21.2658C14.331 21.2297 14.469 21.199 14.8418 21.1642C14.9108 21.1576 14.989 21.1535 15.0396 21.1402C15.5735 20.9959 15.5735 20.9945 15.9416 20.9758C16.3006 20.9585 16.3007 20.9571 16.4894 20.8796C16.5768 20.8436 16.6734 20.8075 16.7562 20.7701C16.7884 20.7554 16.8437 20.7286 16.8253 20.7206C16.7241 20.6792 16.5859 20.6698 16.4249 20.6792C16.0659 20.7019 15.6426 20.6832 15.4539 20.8101C15.3803 20.8582 15.2652 20.8716 15.0995 20.8796C13.4336 20.9571 11.7675 21.04 10.097 21.1148C9.82546 21.1268 9.70127 21.1763 9.59542 21.2311C9.50338 21.2765 9.40211 21.2898 9.22723 21.2979C9.05235 21.3059 8.91422 21.3099 8.81298 21.2658C8.75315 21.2391 8.80379 21.2017 8.94185 21.1642C9.13974 21.1108 9.1029 21.044 9.03847 20.9812C8.99245 20.9398 8.84979 20.9104 8.69792 20.913C8.47242 20.9184 8.25618 20.9331 8.06749 20.8796C7.95704 20.8489 7.81895 20.8275 7.6947 20.8008C7.45539 20.746 7.21607 20.6899 6.88012 20.726C6.65001 20.7126 6.48894 20.6645 6.30485 20.6271C5.99651 20.5656 5.9689 20.5563 6.1898 20.4908C6.43831 20.4173 6.24499 20.3211 6.38305 20.2489C6.53032 20.1714 6.73288 20.1033 6.91236 20.0311C6.95838 20.0124 6.99982 19.9951 7.04584 19.9764C6.93999 19.9496 6.84337 19.9162 6.71911 19.8975C6.55804 19.8735 6.47519 19.8441 6.4844 19.7612C6.45218 19.7492 6.4659 19.7799 6.50271 19.7879C6.54413 19.796 6.64545 19.7893 6.69608 19.7799C6.82494 19.7545 6.8893 19.7211 6.85708 19.6931C6.83868 19.6784 6.7513 19.6597 6.69608 19.6597C6.59483 19.6597 6.5074 19.6891 6.47979 19.7612C5.96436 19.816 5.43043 19.8427 4.89658 19.8641C4.84136 19.8668 4.77237 19.8401 4.70794 19.8267C4.49624 19.7813 4.49622 19.7826 3.87493 19.7692C3.8105 19.7679 3.72311 19.7492 3.69089 19.7305C3.55743 19.649 3.56207 19.5595 3.49764 19.4726C3.6173 19.4165 3.73686 19.3617 3.86111 19.3069C4.10963 19.196 4.43184 19.0985 4.62513 18.9769C4.58371 18.9114 4.52848 18.8459 4.73097 18.7925C5.30623 18.7257 5.30167 18.7257 5.45814 18.6615C5.90454 18.4798 6.34632 18.2967 6.81113 18.1177C6.93539 18.0709 6.9354 18.0455 6.7145 18.0255C6.64547 18.0201 6.57174 18.0188 6.49811 18.0215C6.268 18.0308 6.0379 18.0549 5.8124 18.0495C5.58689 18.0455 5.42122 17.9867 5.23714 17.9507C5.04845 17.9132 4.85977 17.8745 4.67109 17.8357C4.45479 17.8398 4.23853 17.8772 4.02223 17.817C3.85655 17.7703 3.64947 17.7369 3.46079 17.6981C3.60345 17.5966 3.87042 17.5191 4.07751 17.4295C4.2662 17.348 4.27069 17.3494 4.77693 17.2866C5.01623 17.2572 5.09908 17.1062 4.89658 17.0621C4.65267 17.0086 4.39501 16.9592 4.1465 16.9084C3.9302 16.9124 3.70934 16.9485 3.50225 16.8884C3.34117 16.8429 3.15705 16.8122 2.89013 16.8296C2.43913 16.859 1.97893 16.8737 1.52332 16.8977C1.36685 16.9057 1.19652 16.9004 1.12749 16.855C1.08147 16.8229 1.21494 16.7788 1.36681 16.7695C1.59692 16.7561 1.80399 16.7401 1.91904 16.6733C2.02949 16.6064 2.23196 16.5864 2.47127 16.577C2.5357 16.5744 2.60939 16.5583 2.6416 16.5423C2.80728 16.4648 2.99137 16.398 3.34574 16.4007C3.493 16.3739 3.57119 16.3405 3.52517 16.3085C3.49756 16.2911 3.40096 16.2684 3.34574 16.2711C2.96376 16.2844 2.5818 16.2978 2.20903 16.3218C2.03415 16.3325 1.90062 16.3352 1.79017 16.2951C1.71193 16.2684 1.75335 16.2323 1.90061 16.1935C2.02947 16.1601 2.06633 16.1214 2.05713 16.076C2.03411 15.9704 1.89602 15.9397 1.45422 15.9463C1.13668 15.9517 1.05844 15.9343 0.989406 15.8435C0.970998 15.8221 0.925058 15.7927 0.957273 15.778C1.15516 15.6871 1.28403 15.5749 1.6568 15.5321C1.80407 15.5161 1.96048 15.5161 2.05252 15.4814C2.14456 15.4466 2.22744 15.4065 2.32408 15.3731C2.44374 15.333 2.52649 15.2956 2.47127 15.2702C2.37923 15.2248 2.23201 15.2208 2.06173 15.2368C1.91446 15.2502 1.758 15.2515 1.60613 15.2595C1.3346 15.2742 1.11375 15.2395 1.08154 15.1807C0.994098 15.0257 0.90203 14.872 0.823794 14.717C0.81459 14.6983 0.837537 14.6743 0.874354 14.6582C1.00321 14.6021 1.14133 14.5487 1.27479 14.4939C1.43126 14.4311 1.67982 14.4431 1.89151 14.4311C2.19065 14.4137 2.19055 14.415 2.59093 14.2868C2.7474 14.236 3.01894 14.256 3.18001 14.2106C3.23063 14.1959 3.30887 14.1719 3.29506 14.1585C3.27665 14.1411 3.18466 14.1278 3.11563 14.1197C3.0512 14.1117 2.97298 14.1077 2.90395 14.1117C2.06637 14.1505 1.23341 14.1919 0.39583 14.2293C0.253165 14.236 0.096689 14.2066 0.0460659 14.1652C-0.00455716 14.1264 0.0092042 14.0797 0 14.0356C0.133461 13.9808 0.285272 13.93 0.400324 13.8712C0.487764 13.8258 0.589028 13.8057 0.763908 13.8031C0.994013 13.7991 1.21954 13.783 1.47726 13.771C1.95587 13.5759 2.42526 13.3715 2.94069 13.1764C3.14779 13.0976 3.09724 13.0174 3.13866 12.9332C3.18008 12.8557 3.4884 12.8677 3.6955 12.845C3.86118 12.8263 3.91633 12.7835 3.8519 12.7541C3.81508 12.7368 3.73229 12.7167 3.66786 12.7167C3.51599 12.7167 3.36413 12.7288 3.21226 12.7354C3.06039 12.7421 2.88552 12.7381 2.76126 12.7608C2.64161 12.7822 2.56332 12.8276 2.48509 12.8664C2.39765 12.9091 2.28268 12.9239 2.1078 12.9265C1.88229 12.9292 1.65681 12.9412 1.4313 12.9506C1.18279 12.8985 0.925018 12.8477 0.685708 12.7929C0.639687 12.7822 0.630434 12.7515 0.635036 12.7314C0.64424 12.6793 0.575226 12.6473 0.423357 12.6219C0.294498 12.6005 0.188641 12.5698 0.0689865 12.543C0.161029 12.507 0.262311 12.4722 0.335944 12.4335C0.497018 12.3519 0.699533 12.2932 1.04929 12.2958C1.18736 12.2437 1.29777 12.1796 1.47726 12.1435C1.64753 12.1088 1.93748 12.1435 2.06634 12.0647C2.13077 12.0259 2.22747 11.9818 2.35172 11.9658C2.54961 11.9404 2.80733 11.9538 2.92238 11.8789C2.99141 11.8362 3.09262 11.7974 3.22608 11.7867C3.37795 11.7747 3.53438 11.772 3.64483 11.7467C3.70465 11.7333 3.76909 11.7119 3.76909 11.6932C3.76909 11.6812 3.67712 11.6625 3.61269 11.6545C3.55287 11.6451 3.47454 11.6384 3.40551 11.6411C3.1754 11.6491 2.94991 11.6638 2.7198 11.6718C2.65537 11.6745 2.58176 11.6651 2.51273 11.6571C2.31024 11.6357 2.32402 11.609 2.48509 11.5609C2.64616 11.5142 2.76128 11.454 2.89474 11.3992C3.04201 11.3899 3.22606 11.3939 3.32731 11.3685C3.49759 11.3271 3.61721 11.2669 3.75527 11.2148C3.90714 11.2068 4.0636 11.2042 4.20627 11.1895C4.2661 11.1841 4.29373 11.1547 4.34436 11.1373C4.4364 11.1039 4.5147 11.0558 4.63895 11.0398C4.84144 11.0157 5.08995 11.0251 5.20961 10.9516C5.27864 10.9088 5.38445 10.8634 5.51331 10.8608C5.87227 10.8554 6.02414 10.7819 6.20823 10.7124C6.34629 10.6603 6.64083 10.687 6.7927 10.6349C6.89395 10.6015 6.96763 10.5601 7.06887 10.528C7.11029 10.5147 7.1977 10.508 7.26673 10.504C7.64411 10.4839 8.02607 10.4692 8.40344 10.4479C8.46327 10.4438 8.51854 10.4238 8.56456 10.4078C8.6612 10.373 8.72096 10.3249 8.84062 10.3022C8.96027 10.2795 9.13053 10.2795 9.27779 10.2728C9.75181 10.2528 9.78866 10.2581 10.005 10.1445C10.1798 10.0523 10.6079 10.1178 10.7506 10.0163C10.8334 9.95747 10.9852 9.90937 11.2567 9.90269C11.6387 9.89333 12.0161 9.86794 12.398 9.85057C12.7386 9.83454 12.734 9.83453 13.1022 9.71027C13.2678 9.65415 13.5118 9.66217 13.7281 9.65148C13.9582 9.64079 14.1699 9.62476 14.2803 9.55795C14.3908 9.49248 14.5932 9.47109 14.828 9.46173C15.0443 9.45238 15.2882 9.45907 15.4585 9.40562C15.8727 9.27735 15.8681 9.276 16.158 9.26264C16.6136 9.24126 17.0692 9.21988 17.5248 9.19717C17.8286 9.18247 18.1461 9.1798 18.4314 9.1504C18.6385 9.12902 18.7305 9.0542 18.864 9.00209C19.2414 8.98204 19.6187 8.96199 19.9961 8.94328C20.5253 8.91656 21.0592 8.89252 21.593 8.86713C21.8231 8.81635 21.8554 8.70411 22.242 8.69876C22.4721 8.69609 22.6976 8.67872 22.9277 8.66803C23.3097 8.64933 23.687 8.62527 24.069 8.61592C24.3589 8.60924 24.4095 8.53708 24.5613 8.49165C24.612 8.47561 24.658 8.4529 24.7179 8.44889C25.3161 8.41148 25.9328 8.40346 26.5172 8.34868C26.5771 8.34333 26.6323 8.31527 26.6461 8.29523C26.6553 8.28454 26.5771 8.2645 26.5265 8.25515C26.4666 8.24446 26.3884 8.23377 26.324 8.23644C24.4233 8.32597 22.5227 8.41683 20.622 8.50636C20.3551 8.51972 20.3551 8.51838 19.7062 8.66536C19.651 8.67738 19.5865 8.69074 19.5175 8.69475C19.2137 8.71079 18.9054 8.72015 18.6063 8.74019C18.3623 8.75623 18.1599 8.74018 17.985 8.69208C17.8608 8.65734 17.7319 8.64665 17.5754 8.64933C17.4005 8.65333 17.2855 8.66804 17.1843 8.70411C17.0508 8.75355 16.9818 8.81769 16.701 8.83105C15.4078 8.8885 14.1146 8.95264 12.826 9.01411C12.6465 8.9954 12.5591 8.96734 12.6051 8.93394C12.6327 8.91389 12.688 8.88717 12.7432 8.8845C13.2724 8.85644 13.8063 8.83239 14.3355 8.80567C14.4091 8.80166 14.5104 8.80432 14.5518 8.79095C14.7543 8.73083 14.828 8.63328 15.21 8.6266C15.4309 8.62259 15.6563 8.60256 15.868 8.58385C15.9279 8.57851 15.9831 8.55044 15.9969 8.5304C16.0015 8.51971 15.9279 8.49966 15.8726 8.49031C15.6701 8.45156 15.4355 8.49834 15.233 8.47162C15.164 8.46226 15.0673 8.4489 15.0534 8.43286C15.0442 8.41816 15.1225 8.39411 15.1777 8.37941C15.2283 8.36605 15.2973 8.35402 15.3664 8.35002C15.9738 8.31928 16.5814 8.28721 17.1889 8.26316C17.4374 8.25381 17.6122 8.2204 17.7227 8.15893C17.8055 8.1135 17.9068 8.08946 18.0632 8.08278C19.1263 8.03334 20.1894 7.97855 21.2571 7.93312C21.524 7.92243 21.6621 7.87834 21.7726 7.82088C21.86 7.77545 21.9613 7.75942 22.1315 7.7514C23.6548 7.68192 25.1689 7.60442 26.6922 7.53761C26.9729 7.52558 27.0558 7.46812 27.1985 7.41868C27.2491 7.40131 27.2812 7.37994 27.3456 7.36925C27.4101 7.35856 27.4929 7.35988 27.5711 7.35721C28.7861 7.29975 30.0011 7.2383 31.2207 7.18485C31.506 7.17282 31.5612 7.106 31.7084 7.05924C31.759 7.04454 31.8051 7.02049 31.8649 7.01648C32.7761 6.97105 33.6873 6.9283 34.5986 6.8842C35.206 6.8548 35.8135 6.82541 36.421 6.79735C36.7201 6.78398 36.7201 6.78264 37.1251 6.6557C37.1711 6.641 37.2356 6.62363 37.2954 6.61962C39.0442 6.5341 40.7884 6.45261 42.5372 6.36843C42.6844 6.36175 42.7903 6.331 42.8639 6.28557C42.9375 6.24014 43.0435 6.2094 43.1861 6.20272C44.553 6.13591 45.9198 6.07044 47.2912 6.00764C47.5397 5.99695 47.7145 5.96488 47.825 5.90475C47.9078 5.85932 48.0091 5.83528 48.1655 5.8286C49.5324 5.76446 50.8993 5.6963 52.2707 5.63484C52.533 5.62281 52.6618 5.57738 52.7907 5.52394C52.8367 5.50523 52.8735 5.47449 52.9288 5.47182C53.6099 5.43441 54.2863 5.39566 54.9721 5.37027C55.2574 5.35958 55.3541 5.30346 55.4691 5.25001C55.5612 5.20725 55.667 5.19255 55.8419 5.18721C56.2239 5.17518 56.6012 5.15248 56.974 5.12976C57.0292 5.12575 57.0983 5.09635 57.1029 5.07765C57.1121 5.04291 57.0062 5.01885 56.8313 5.00682C55.0089 5.09368 53.1819 5.18052 51.3595 5.26738C51.0603 5.28208 51.0603 5.28208 50.6553 5.40902C50.6093 5.42372 50.5448 5.4411 50.4804 5.4451C48.7316 5.52929 46.9875 5.61213 45.2387 5.69631C45.0914 5.70299 44.9856 5.73373 44.9119 5.77916C44.8383 5.82459 44.7324 5.85532 44.5897 5.862C42.9191 5.94217 41.2486 6.02368 39.5735 6.09985C39.3249 6.11054 39.1501 6.14126 39.0396 6.20272C38.9568 6.24815 38.8556 6.27221 38.6991 6.2789C37.1022 6.35372 35.5098 6.43255 33.9082 6.50471C33.7472 6.51139 33.6276 6.47264 33.6368 6.43656C33.6414 6.41785 33.7103 6.38713 33.7655 6.38446C34.5985 6.34037 35.427 6.29493 36.2646 6.26152C36.5453 6.25083 36.6281 6.19204 36.7707 6.1426C36.8168 6.12523 36.8536 6.10251 36.9134 6.09316C36.9779 6.08247 37.0607 6.08381 37.1389 6.08114C39.1132 5.98627 41.0876 5.89007 43.0665 5.80054C43.3518 5.78718 43.407 5.7217 43.5542 5.67493C43.6048 5.65889 43.6509 5.63485 43.7107 5.63218C44.3182 5.60011 44.9257 5.57204 45.5331 5.54398C46.5962 5.49321 47.6593 5.44243 48.727 5.39165C49.0353 5.37695 49.0353 5.37695 49.4311 5.25134C49.4771 5.23665 49.5416 5.21795 49.6014 5.21528C52.4133 5.08032 55.2252 4.94536 58.0371 4.81174C58.1844 4.80506 58.2902 4.77433 58.3639 4.7289C58.4375 4.6848 58.5433 4.65274 58.686 4.64472C62.4873 4.46299 66.2841 4.28126 70.0854 4.10221C70.3339 4.09018 70.5087 4.06212 70.6192 3.99932C70.6974 3.95389 70.8033 3.92984 70.9597 3.92183C75.1385 3.72273 79.3172 3.52364 83.5005 3.32321C86.3124 3.18959 89.1243 3.05329 91.9362 2.92235C92.1939 2.91032 92.3319 2.86889 92.4607 2.8141C92.5022 2.7954 92.5436 2.76466 92.5988 2.76199C93.2017 2.72859 93.8046 2.69786 94.4074 2.66713C94.5961 2.7032 94.7848 2.73795 94.9735 2.77403C95.1161 2.72325 95.2543 2.67114 95.3969 2.62036C96.3082 2.58161 97.2055 2.52148 98.126 2.50277C98.1858 2.50144 98.2502 2.52683 98.3146 2.54019C98.7426 2.62437 98.9865 2.61769 99.2581 2.50545C99.3547 2.46536 99.4375 2.42929 99.5848 2.42261C100.04 2.39855 100.501 2.38252 100.952 2.35446C101.196 2.33976 101.398 2.35312 101.573 2.40122C101.697 2.43596 101.826 2.45067 101.978 2.44265C102.816 2.40257 103.649 2.36381 104.486 2.32105C104.546 2.31838 104.601 2.29566 104.647 2.27962C104.744 2.24488 104.827 2.20748 104.919 2.1714C105.043 2.19411 105.181 2.21149 105.282 2.24088C105.411 2.27562 105.531 2.27562 105.706 2.26626C109.047 2.10458 112.392 1.94691 115.734 1.78389C116.019 1.77053 116.143 1.82666 116.336 1.85605C116.401 1.86674 116.465 1.8801 116.534 1.88277C116.608 1.88544 116.686 1.87743 116.76 1.87343C119.268 1.75317 121.776 1.63424 124.284 1.51398C124.616 1.49794 124.616 1.49794 125.108 1.58079C125.168 1.59148 125.246 1.60351 125.311 1.5995C126.452 1.54739 127.593 1.49127 128.73 1.43782C128.877 1.43114 129.001 1.45252 129.135 1.48325C129.397 1.54338 129.416 1.54338 129.609 1.45519C129.701 1.41377 129.798 1.38837 129.949 1.37634C130.115 1.36298 130.249 1.36701 130.378 1.39106C130.562 1.42446 130.695 1.48057 130.976 1.46588C132.191 1.40307 133.41 1.35097 134.621 1.28683C134.897 1.27213 135.044 1.31756 135.228 1.35096C135.293 1.36299 135.352 1.3817 135.421 1.38571C135.49 1.38972 135.573 1.38035 135.647 1.37634C137.166 1.30419 138.689 1.23338 140.203 1.15588C140.488 1.14119 140.613 1.19863 140.806 1.22803C140.87 1.23872 140.944 1.25743 141.004 1.25476C141.915 1.21334 142.831 1.16923 143.742 1.12514C144.069 1.1091 144.069 1.11044 144.566 1.19195C144.626 1.20264 144.704 1.21333 144.768 1.21066C145.831 1.16122 146.899 1.11044 147.962 1.05966C148.289 1.04363 148.289 1.04363 149.232 1.11312C149.301 1.11846 149.375 1.12649 149.444 1.12382C150.659 1.06636 151.878 1.01023 153.093 0.948765C153.337 0.936739 153.54 0.947426 153.715 0.995529C153.839 1.03027 153.968 1.04498 154.12 1.03696C155.486 0.971485 156.858 0.908686 158.22 0.839203C158.483 0.825841 158.653 0.855226 158.837 0.893976C158.897 0.907338 158.957 0.926049 159.026 0.931394C159.095 0.936739 159.173 0.93139 159.246 0.927381C160.613 0.861907 161.985 0.800444 163.347 0.729625C163.623 0.714927 163.77 0.760356 163.954 0.793761C164.019 0.805787 164.088 0.82984 164.143 0.828503C164.677 0.805788 165.211 0.785752 165.74 0.752347C166.025 0.73364 166.15 0.795094 166.343 0.824491C166.407 0.833844 166.481 0.853897 166.541 0.851225C167.682 0.799113 168.823 0.744332 169.96 0.688211C170.121 0.680194 170.241 0.692209 170.37 0.72695C170.54 0.773718 170.738 0.792425 170.986 0.777727C171.516 0.746994 172.049 0.725621 172.583 0.700233C172.896 0.685534 172.896 0.685539 173.854 0.755022C173.923 0.760367 173.996 0.768378 174.065 0.765706C174.976 0.722947 175.892 0.681527 176.799 0.63476C177.043 0.621398 177.245 0.63342 177.42 0.681524C177.544 0.716265 177.669 0.730971 177.825 0.722954C178.663 0.682868 179.496 0.642778 180.333 0.602692C180.637 0.587994 180.941 0.5626 181.245 0.5626C181.465 0.563936 181.627 0.628071 181.824 0.66014C181.88 0.669493 181.972 0.658816 182.045 0.656144C183.108 0.605368 184.176 0.558596 185.235 0.501139C185.511 0.486441 185.658 0.531869 185.842 0.565275C185.906 0.5773 185.975 0.601353 186.031 0.600017C186.413 0.585319 186.79 0.565274 187.172 0.547903C187.628 0.526524 188.088 0.510489 188.539 0.481093C188.907 0.457041 189.045 0.573287 189.34 0.577296C189.565 0.581304 189.795 0.558593 190.021 0.547903C190.476 0.526524 190.932 0.502475 191.387 0.483768C191.549 0.477087 191.673 0.455698 191.724 0.407595C191.733 0.398241 191.654 0.378207 191.604 0.366181C190.992 0.229888 190.992 0.229881 190.375 0.259278C189.993 0.277985 189.616 0.296695 189.234 0.312729C189.169 0.315402 189.096 0.304713 189.031 0.296696C188.847 0.27398 188.866 0.247259 189.022 0.199155C189.178 0.151052 189.298 0.0922638 189.432 0.0374794C189.62 0.0722207 189.804 0.10695 189.993 0.141691C190.145 0.13501 190.297 0.127005 190.449 0.120324C191.208 0.0855822 191.967 0.049502 192.727 0.017433C192.782 0.0147606 192.851 0.0414886 192.915 0.0548507C193.099 0.0936007 193.265 0.126997 193.532 0.112298C194.213 0.0735485 194.899 0.0454881 195.58 0.0120829C195.879 -0.00261533 195.879 -0.00261402 196.404 0.0802308C196.464 0.0895842 196.542 0.100275 196.606 0.0976021C197.292 0.0668694 197.973 0.0334681 198.659 0.00139916C198.806 -0.00528187 198.949 0.0120882 199.055 0.0508382C199.096 0.0668726 199.087 0.0935916 199.262 0.312729C199.805 0.490445 200.178 0.471747 200.555 0.455713C200.716 0.449032 200.859 0.442344 200.964 0.41562C201.02 0.400922 201.089 0.379539 201.089 0.362168C201.089 0.348806 200.988 0.327423 200.923 0.324751C200.467 0.298027 200.035 0.354155 199.588 0.366181C199.381 0.371526 199.202 0.324758 199.165 0.248594C199.156 0.227215 199.142 0.204501 199.128 0.183121C199.114 0.161742 199.105 0.139028 199.091 0.117649C198.912 0.110967 198.806 0.135015 198.728 0.180446C198.663 0.21786 198.571 0.260619 198.447 0.280662C198.323 0.302041 198.153 0.29804 198.001 0.304721C197.853 0.311402 197.692 0.32877 197.554 0.319417C197.416 0.308727 197.306 0.269971 197.177 0.245919C197.117 0.233893 197.044 0.216529 196.984 0.219202C196.454 0.241917 195.93 0.264624 195.405 0.294021C195.129 0.310055 194.991 0.253943 194.816 0.219202C194.678 0.192477 194.54 0.19915 194.517 0.260615C194.457 0.407598 194.669 0.46906 195.138 0.441C195.525 0.416948 195.875 0.412952 196.178 0.503814C196.22 0.51584 196.316 0.521183 196.376 0.518511C196.754 0.502476 197.126 0.482431 197.504 0.466397C197.573 0.463724 197.646 0.46906 197.711 0.474405C198.65 0.54656 198.65 0.547904 198.967 0.531869C199.119 0.523852 199.266 0.51717 199.252 0.314067C199.542 0.0962653 200.003 0.0815696 200.449 0.0495006C200.739 0.0294575 200.863 0.0882533 201.052 0.118986C201.116 0.129676 201.185 0.151051 201.245 0.148379C202.235 0.104284 203.219 0.0575101 204.204 0.00807041C204.37 5.31674e-05 204.49 0.00807171 204.618 0.0428131C204.784 0.0869079 204.968 0.114974 205.231 0.0989396C205.755 0.0668707 206.289 0.0468321 206.823 0.020108C207.094 0.00674594 207.094 0.00673225 207.642 0.0895771C207.702 0.0989305 207.78 0.109621 207.845 0.106948C208.378 0.0842329 208.908 0.056181 209.437 0.0321293C209.584 0.0254483 209.718 0.0441532 209.833 0.0802308C209.948 0.116308 210.086 0.135013 210.229 0.128332C210.762 0.104281 211.292 0.0775649 211.821 0.0535132C211.885 0.0508408 211.963 0.0601936 212.023 0.069547C212.585 0.152392 212.585 0.152378 212.842 0.139016C213.22 0.118973 213.606 0.10963 213.979 0.0829058C214.343 0.0561817 214.531 0.133675 214.78 0.176434C215.461 0.145701 216.147 0.12032 216.823 0.0829058C217.099 0.0668713 217.247 0.110962 217.431 0.145704C217.495 0.157729 217.56 0.18312 217.619 0.181784C217.85 0.176439 218.075 0.161743 218.301 0.151054C218.526 0.140364 218.756 0.129676 218.982 0.118986C219.239 0.157736 219.41 0.248597 219.778 0.217864C219.999 0.199157 220.233 0.195148 220.459 0.184459C220.685 0.173769 220.915 0.163081 221.14 0.152391C221.292 0.14571 221.448 0.141696 221.596 0.12967C221.867 0.109627 222.001 0.175109 222.194 0.204505C222.258 0.213859 222.332 0.229883 222.392 0.22721C222.847 0.208503 223.308 0.19247 223.754 0.161737C224.099 0.137686 224.334 0.177777 224.578 0.233898C224.628 0.245924 224.716 0.252604 224.78 0.249932C225.314 0.227216 225.843 0.199148 226.373 0.175096C226.515 0.168415 226.653 0.189794 226.768 0.224535C226.888 0.260613 227.022 0.277997 227.169 0.271316C227.698 0.247264 228.232 0.220532 228.761 0.19648C228.826 0.193808 228.904 0.204499 228.964 0.215189C229.479 0.298034 229.479 0.299371 229.783 0.283337C229.856 0.279328 229.935 0.276645 230.008 0.272637C230.386 0.25393 230.777 0.247258 231.145 0.215189C231.568 0.179111 231.877 0.224544 232.176 0.300708C232.553 0.284674 232.94 0.275318 233.308 0.248594C233.584 0.228551 233.731 0.279324 233.916 0.312729C233.98 0.324755 234.049 0.348807 234.104 0.346135C234.638 0.323419 235.172 0.303383 235.696 0.269978C235.982 0.251271 236.106 0.311389 236.299 0.342122C236.364 0.352812 236.433 0.371528 236.493 0.368856C236.796 0.358166 237.1 0.342124 237.404 0.327426C237.758 0.310055 237.758 0.31139 238.228 0.392899C238.449 0.431649 238.67 0.400915 238.886 0.391561C239.116 0.380871 239.332 0.372857 239.516 0.427641C239.631 0.462383 239.769 0.483763 239.912 0.478418C240.216 0.466392 240.524 0.454372 240.823 0.434329C241.063 0.418294 241.27 0.428978 241.445 0.478418C241.569 0.513159 241.698 0.53054 241.85 0.522523C242.531 0.490454 243.216 0.457037 243.897 0.426304C243.957 0.423631 244.04 0.435662 244.095 0.447688C244.224 0.471739 244.348 0.498458 244.473 0.525182C244.772 0.513156 245.08 0.507825 245.375 0.489118C245.688 0.470411 245.973 0.463728 246.217 0.537219C246.268 0.553254 246.341 0.575957 246.401 0.574621C246.631 0.569276 246.857 0.555918 247.082 0.545228C247.308 0.534539 247.538 0.52385 247.763 0.51316C248.025 0.546566 248.191 0.642771 248.559 0.612038C248.78 0.593332 249.015 0.589323 249.241 0.578633C249.466 0.567944 249.696 0.555919 249.922 0.546566C249.995 0.543893 250.078 0.537208 250.143 0.542553C250.212 0.547898 250.271 0.566609 250.331 0.579971C250.515 0.618721 250.686 0.657475 250.948 0.63476C251.169 0.616053 251.404 0.612043 251.629 0.600017C251.937 0.585319 251.937 0.585322 252.448 0.669503C252.655 0.704244 252.89 0.658815 253.088 0.688211C253.221 0.708255 253.336 0.741653 253.465 0.764368C253.52 0.773722 253.608 0.777724 253.672 0.775052C253.976 0.763026 254.284 0.751006 254.584 0.730963C254.827 0.714928 255.03 0.730961 255.2 0.779064C255.325 0.813806 255.449 0.828512 255.605 0.820495C256.365 0.783081 257.124 0.751001 257.879 0.709579C258.136 0.694881 258.343 0.717602 258.486 0.765706C258.73 0.84855 259.075 0.751009 259.328 0.81782C259.485 0.859242 259.641 0.907348 259.927 0.887305C260.451 0.852564 260.985 0.833846 261.514 0.809794C261.703 0.845872 261.892 0.881958 262.085 0.918035C262.389 0.903337 262.692 0.888629 262.996 0.875267C263.222 0.864578 263.452 0.852553 263.677 0.8432C263.751 0.840527 263.829 0.835181 263.898 0.841862C263.967 0.848543 264.022 0.865918 264.087 0.87928C264.404 0.944754 264.404 0.946097 264.929 0.919373C265.155 0.907347 265.371 0.899329 265.56 0.952778C265.734 1.00222 265.941 1.01156 266.181 0.996867C266.632 0.970143 267.087 0.950101 267.548 0.931394C267.69 0.924713 267.824 0.947429 267.943 0.98217C268.123 1.03695 268.344 1.03161 268.569 1.01691C268.868 0.998206 269.163 0.979503 269.416 1.05433C269.467 1.07037 269.545 1.09307 269.6 1.09173C269.978 1.08104 270.36 1.07303 270.728 1.04764C271.096 1.02226 271.275 1.1051 271.528 1.14518C271.906 1.12781 272.288 1.11044 272.665 1.09307C272.739 1.08906 272.826 1.07704 272.891 1.08372C273.162 1.11178 273.319 1.212 273.691 1.18126C273.908 1.16389 274.142 1.15855 274.368 1.15455C274.428 1.15321 274.506 1.17591 274.547 1.19329C274.57 1.20264 274.547 1.22802 274.52 1.24139C274.437 1.2788 274.336 1.31355 274.262 1.3523C274.253 1.35765 274.34 1.38169 274.391 1.39238C274.515 1.41643 274.658 1.41243 274.824 1.40174C274.966 1.39239 275.114 1.41109 275.215 1.45118C275.256 1.46721 275.242 1.49394 275.155 1.58213C275.155 1.6476 275.252 1.6182 275.284 1.57544C275.334 1.51397 275.238 1.49393 275.054 1.52734C274.925 1.55139 274.86 1.58613 274.893 1.61419C274.911 1.62889 274.998 1.6476 275.155 1.58213C275.56 1.50195 275.864 1.48726 276.167 1.47256C276.246 1.46856 276.338 1.45518 276.393 1.4632C276.591 1.49527 276.775 1.53403 276.968 1.5701C277.189 1.56209 277.396 1.54204 277.612 1.59415C277.916 1.66764 277.93 1.66096 278.225 1.64626C278.376 1.63824 278.528 1.63157 278.68 1.62489C278.832 1.61821 278.952 1.63825 279.085 1.66898C279.357 1.73178 279.38 1.73178 279.559 1.64626C279.665 1.59415 279.739 1.57678 279.872 1.60083C280.314 1.68234 280.318 1.68768 280.696 1.66363C281.009 1.64359 281.303 1.63825 281.533 1.71441C281.69 1.76786 281.741 1.75583 281.865 1.69971C282.196 1.55139 282.348 1.55406 282.969 1.66096C283.259 1.71173 283.558 1.65695 283.853 1.65027C284.101 1.64493 284.276 1.67699 284.295 1.76117C284.309 1.81329 284.35 1.85071 284.516 1.86808C284.58 1.87476 284.658 1.88411 284.723 1.88143C285.105 1.8654 285.482 1.84669 285.864 1.82798C286.057 1.81863 286.163 1.75584 286.126 1.673C286.085 1.58481 286.159 1.55272 286.435 1.52734C286.6 1.51264 286.734 1.51532 286.867 1.53937C287.015 1.5661 286.973 1.59015 286.844 1.63825C286.536 1.75584 286.573 1.82798 286.969 1.90949C287.107 1.93755 287.217 1.96295 287.249 2.00437C287.268 2.02575 287.249 2.05381 287.291 2.06984C287.516 2.15937 287.829 2.21683 288.179 2.25959C288.515 2.22351 288.745 2.28363 289.003 2.33174C289.205 2.36915 289.444 2.33709 289.661 2.32373C289.905 2.30903 290.107 2.31971 290.282 2.36915C290.406 2.4039 290.535 2.41992 290.687 2.41324C290.991 2.39854 291.299 2.3892 291.598 2.36782C291.856 2.34911 292.049 2.37584 292.21 2.42127C292.413 2.47872 292.638 2.43997 292.85 2.44799C293.135 2.45734 293.278 2.57626 293.651 2.54419C293.872 2.52548 294.102 2.5188 294.332 2.51346C294.392 2.51212 294.465 2.53484 294.516 2.55088C294.76 2.62437 295.045 2.62036 295.358 2.59898C295.574 2.58428 295.786 2.57092 295.998 2.6217C296.348 2.70722 296.734 2.78205 297.102 2.86088C297.153 2.92235 297.116 2.99449 297.378 3.03057C297.517 3.04928 297.645 3.07735 297.751 3.10808C297.88 3.14416 298 3.15351 298.165 3.14416C298.465 3.12545 298.778 3.12143 299.072 3.09738C299.344 3.076 299.514 3.12011 299.68 3.16153C299.813 3.19494 299.937 3.21096 300.098 3.18691C300.264 3.1642 300.384 3.17889 300.517 3.21497C300.706 3.26441 300.72 3.25907 301.346 3.27377C301.41 3.2751 301.488 3.29514 301.525 3.31251C301.543 3.32186 301.502 3.3486 301.47 3.36196C301.428 3.378 301.364 3.39669 301.304 3.4007C300.623 3.43544 299.937 3.46618 299.256 3.50092C299.187 3.50493 299.113 3.51429 299.063 3.52765C299.008 3.54235 298.939 3.56238 298.939 3.58109C298.939 3.59445 299.031 3.61049 299.095 3.61984C299.298 3.65057 299.537 3.60381 299.735 3.63855C299.868 3.66127 299.979 3.69333 300.112 3.71471C300.167 3.72406 300.255 3.72273 300.324 3.72006C300.554 3.7107 300.779 3.69734 301.01 3.68933C301.074 3.68799 301.148 3.70136 301.207 3.71205C301.649 3.79222 301.649 3.79222 302.031 3.77485C302.183 3.76816 302.344 3.74812 302.487 3.75614C302.625 3.76415 302.745 3.80023 302.869 3.82295C303.127 3.87105 303.37 3.91782 303.389 4.02204C303.398 4.06213 303.55 4.09686 303.702 4.09953C303.849 4.10221 304.005 4.08752 304.157 4.0795C304.516 4.06347 304.516 4.06347 304.981 4.14498C305.11 4.16769 305.248 4.17036 305.414 4.157C305.478 4.15165 305.556 4.15701 305.625 4.16369C305.851 4.18373 305.851 4.20911 305.704 4.25721C305.497 4.32803 305.515 4.33472 306.095 4.39485C306.316 4.41756 306.486 4.46032 306.67 4.49774C306.969 4.55787 306.965 4.55786 306.767 4.63669C306.721 4.65406 306.679 4.67277 306.633 4.69148C306.5 4.74359 306.394 4.79971 306.118 4.80506C305.814 4.8104 305.51 4.83179 305.207 4.84649C304.912 4.86118 304.834 4.89324 304.861 4.9841C304.894 5.09367 304.954 5.1057 305.483 5.10436C305.635 5.10436 305.768 5.11505 305.883 5.15113C305.828 5.19389 305.727 5.22729 305.579 5.23531C305.202 5.25535 304.82 5.27273 304.443 5.2901C304.139 5.3048 303.835 5.31949 303.531 5.33419C303.343 5.34354 303.223 5.41303 303.274 5.49053C303.301 5.53463 303.324 5.57872 303.347 5.62281C303.398 5.711 303.495 5.73373 303.803 5.72972C303.881 5.72838 303.955 5.71768 304.028 5.72035C304.328 5.72971 304.47 5.84061 304.829 5.81789C305.128 5.79919 305.441 5.79518 305.736 5.77113C306.007 5.74975 306.159 5.79787 306.348 5.83395C306.412 5.84597 306.481 5.87135 306.537 5.87001C306.919 5.85531 307.301 5.84062 307.673 5.81524C307.848 5.80455 307.954 5.81256 308.092 5.84463C308.423 5.92213 308.433 5.91812 308.925 5.89407C309.284 5.87536 309.289 5.87803 309.749 5.95954C309.878 5.98226 310.016 5.98225 310.182 5.97156C310.398 5.9582 310.623 5.93682 310.849 5.95687C310.918 5.96221 311.005 5.97825 311.028 5.99562C311.042 6.00765 310.978 6.03704 310.923 6.0464C310.518 6.11588 310.043 6.10386 309.602 6.13192C309.464 6.13993 309.325 6.11454 309.21 6.07846C309.091 6.04239 308.962 6.0277 308.805 6.03438C308.502 6.04907 308.193 6.05842 307.894 6.0798C307.637 6.09851 307.457 6.06777 307.278 6.02635C307.218 6.01299 307.149 5.9876 307.089 5.98893C306.408 6.01566 305.722 6.04239 305.046 6.0798C304.774 6.09584 304.618 6.05308 304.434 6.017C304.369 6.00498 304.305 5.97959 304.245 5.98092C304.015 5.98627 303.789 6.00097 303.559 6.01165C302.722 6.05174 301.888 6.09183 301.051 6.12924C300.996 6.13191 300.927 6.10385 300.862 6.09182C300.738 6.06777 300.609 6.04505 300.48 6.02234C300.25 6.03303 300.025 6.04639 299.795 6.05441C299.629 6.05975 299.482 6.07847 299.459 6.12924C299.445 6.16265 299.597 6.19337 299.758 6.1907C299.914 6.18803 300.071 6.17199 300.2 6.18936C300.839 6.27488 300.839 6.27622 301.24 6.25885C301.589 6.24282 301.553 6.22945 301.861 6.30294C301.994 6.33501 302.114 6.35372 302.266 6.34571C302.643 6.327 303.025 6.30829 303.407 6.29225C303.467 6.28958 303.545 6.30295 303.605 6.31364C304.056 6.39381 304.056 6.39648 304.429 6.37644C304.917 6.35239 304.935 6.3457 305.262 6.42721C305.487 6.48333 305.694 6.44458 305.911 6.44191C306.159 6.49402 306.431 6.5408 306.656 6.59959C306.923 6.66907 307.204 6.65703 307.508 6.63699C307.733 6.62229 307.954 6.61695 308.138 6.67173C308.313 6.72251 308.525 6.72786 308.764 6.7145C308.98 6.70248 309.201 6.67708 309.427 6.70648C309.487 6.71449 309.579 6.73454 309.574 6.74657C309.569 6.76528 309.51 6.792 309.45 6.80002C309.026 6.8548 308.562 6.85346 308.115 6.87885C308.055 6.88286 307.977 6.86816 307.917 6.85747C307.788 6.83342 307.664 6.80536 307.54 6.77997C307.314 6.78799 307.084 6.79066 306.863 6.80669C306.693 6.81872 306.564 6.81739 306.44 6.78532C306.325 6.75593 306.201 6.71984 306.063 6.71049C305.925 6.70113 305.764 6.72118 305.612 6.7292C305.46 6.73721 305.285 6.7332 305.165 6.75458C305.046 6.77596 304.972 6.82273 304.894 6.86014C304.806 6.90157 304.687 6.91494 304.512 6.91894C304.351 6.92295 304.222 6.9176 304.102 6.88019C304.052 6.86415 303.982 6.85212 303.913 6.84143C303.849 6.83208 303.775 6.81738 303.716 6.82005C303.03 6.85078 302.349 6.8842 301.663 6.91627C301.322 6.9323 301.327 6.93229 300.618 6.85346C300.554 6.84677 300.476 6.83742 300.411 6.8401C300.029 6.85613 299.652 6.87484 299.27 6.89355C298.883 6.91225 298.888 6.90958 298.23 6.8254C298.11 6.80937 297.935 6.83075 297.793 6.82807C297.494 6.82139 297.346 6.70916 296.997 6.73053C296.697 6.74924 296.384 6.75325 296.085 6.7773C295.814 6.79868 295.657 6.75192 295.473 6.71584C295.409 6.70381 295.34 6.67709 295.284 6.67976C294.599 6.70915 293.918 6.74256 293.006 6.74657C292.781 6.74657 292.882 6.77463 293.029 6.78399C293.241 6.79868 293.31 6.77062 293.195 6.71718C293.112 6.67976 292.993 6.66104 292.896 6.6704C292.845 6.67574 292.781 6.70114 293.006 6.74657C293.246 6.79734 293.232 6.8254 293.273 6.84143C293.375 6.88018 293.517 6.89622 293.665 6.89087C293.895 6.88152 294.12 6.86816 294.35 6.86014C294.415 6.85747 294.493 6.86682 294.553 6.87751C295.059 6.96036 295.064 6.96571 295.602 6.93364C295.772 6.92429 295.897 6.92429 296.03 6.94967C296.214 6.98442 296.348 7.0432 296.628 7.02449C297.001 6.99911 297.383 6.98442 297.765 6.96972C297.825 6.96705 297.889 6.9911 297.958 7.00179C298.147 7.03386 298.285 7.09399 298.566 7.0686C298.782 7.04856 299.017 7.0432 299.247 7.03919C299.307 7.03785 299.399 7.05924 299.426 7.07661C299.482 7.10734 299.413 7.14343 299.256 7.16881C299.192 7.1795 299.104 7.17683 299.031 7.18084C298.727 7.19553 298.423 7.21156 298.119 7.22359C297.958 7.23027 297.806 7.25032 297.788 7.29976C297.774 7.33317 297.94 7.36256 298.096 7.35988C298.327 7.35587 298.557 7.34519 298.777 7.32782C299.169 7.29842 299.509 7.30643 299.827 7.39061C300.052 7.44941 300.038 7.42804 300.278 7.60174C300.338 7.64584 300.517 7.64984 300.674 7.64717C301.051 7.64049 301.226 7.66054 301.194 7.70196C301.152 7.75274 301.019 7.76876 300.848 7.77544C300.545 7.78613 300.241 7.80351 299.937 7.81821C299.864 7.82222 299.781 7.83023 299.712 7.82756C299.643 7.82488 299.578 7.80885 299.518 7.79682C299.39 7.77144 299.279 7.73268 299.141 7.72333C299.003 7.71397 298.842 7.73402 298.69 7.74204C298.538 7.74872 298.377 7.76876 298.239 7.75941C298.101 7.75005 297.986 7.70998 297.862 7.68593C297.802 7.6739 297.728 7.65518 297.668 7.65652C297.365 7.66721 297.061 7.68459 296.757 7.69795C296.384 7.71532 296.384 7.71532 295.933 7.63247C295.805 7.60842 295.671 7.60976 295.501 7.62045C295.133 7.64183 295.128 7.63781 294.456 7.56031C294.392 7.5523 294.313 7.54295 294.249 7.54696C293.563 7.57769 292.882 7.61109 292.201 7.64316C291.617 7.67122 291.617 7.67123 291.294 7.80485C291.055 7.90373 291.051 7.90372 291.285 7.94915C291.474 7.98657 291.644 8.04135 291.851 8.06139C292.045 8.0801 292.284 8.01997 292.496 8.08144C292.602 8.11217 292.74 8.14558 292.873 8.15092C293.085 8.1576 293.31 8.11885 293.513 8.17764C293.614 8.20704 293.766 8.23778 293.895 8.23912C294.12 8.24179 294.35 8.2204 294.576 8.21105C294.645 8.20837 294.723 8.20838 294.788 8.21506C294.857 8.22308 294.916 8.23911 294.976 8.25248C295.16 8.29791 295.358 8.31928 295.598 8.29657C295.989 8.25915 296.338 8.27786 296.642 8.36338C296.684 8.3754 296.785 8.37675 296.849 8.3714C297.015 8.35804 297.158 8.3567 297.282 8.38208C297.332 8.39277 297.406 8.41147 297.397 8.4235C297.383 8.44354 297.328 8.47027 297.268 8.47695C296.835 8.52238 296.371 8.52773 295.924 8.55178C295.864 8.55446 295.791 8.53708 295.731 8.52505C295.602 8.501 295.492 8.46092 295.354 8.45157C295.216 8.44222 295.054 8.45959 294.903 8.46627C294.751 8.47295 294.59 8.49299 294.452 8.48497C294.314 8.47562 294.185 8.44221 294.074 8.41281C293.945 8.37941 293.821 8.37541 293.651 8.38877C293.43 8.40614 293.2 8.40881 292.974 8.41816C292.85 8.39278 292.726 8.36471 292.597 8.34065C292.537 8.32863 292.463 8.31394 292.399 8.31527C292.095 8.32596 291.791 8.34199 291.488 8.35669C291.184 8.37139 291.184 8.3714 290.669 8.28856C290.609 8.2792 290.531 8.26851 290.466 8.27118C290.084 8.28722 289.707 8.30725 289.325 8.32328C289.177 8.32996 289.044 8.31126 288.924 8.27518C288.809 8.2391 288.671 8.21906 288.529 8.22574C287.921 8.2538 287.314 8.28053 286.706 8.31394C286.462 8.3273 286.255 8.31528 286.089 8.26717C285.896 8.21239 285.68 8.22575 285.454 8.23644C284.944 8.26317 284.939 8.26182 284.612 8.19367C284.548 8.18031 284.483 8.15492 284.424 8.15626C283.894 8.1763 283.361 8.19501 282.836 8.22708C282.56 8.24445 282.412 8.19769 282.228 8.16294C282.164 8.15092 282.095 8.12553 282.04 8.1282C281.658 8.1429 281.276 8.15627 280.903 8.18299C280.53 8.20971 280.387 8.08545 280.107 8.08679C279.725 8.08812 279.347 8.11886 278.97 8.13756C278.666 8.15226 278.363 8.16695 278.059 8.18165C277.755 8.19635 277.451 8.20837 277.148 8.22574C276.987 8.2351 276.867 8.22307 276.733 8.18966C276.563 8.14557 276.361 8.11084 276.177 8.07075C275.896 8.0133 275.896 8.01329 275.555 8.02932C275.482 8.03333 275.403 8.036 275.33 8.04001C274.773 8.0694 274.773 8.06674 274.064 7.98256C274.032 7.97855 273.949 7.99325 273.917 8.00394C273.82 8.03868 273.733 8.07609 273.646 8.11217C273.521 8.09079 273.369 8.07876 273.287 8.04803C273.052 7.96118 272.684 8.0801 272.444 7.99458C272.357 7.96251 272.205 7.93445 272.067 7.92643C271.924 7.91842 271.763 7.93712 271.616 7.94514C271.234 7.96519 271.234 7.96385 270.907 8.08278C270.741 8.14157 270.502 8.13087 270.286 8.14424C270.06 8.15893 269.844 8.16695 269.655 8.11217C269.485 8.06273 269.278 8.05071 269.034 8.06674C268.735 8.08678 268.427 8.0988 268.123 8.11083C268.059 8.1135 267.98 8.10683 267.916 8.09881C267.212 8.01997 267.212 8.01864 266.871 8.03601C266.719 8.04403 266.563 8.04669 266.415 8.05872C266.167 8.0801 265.978 8.05204 265.799 8.00928C265.739 7.99592 265.67 7.97054 265.61 7.97188C265.306 7.97856 265.007 7.99058 264.708 8.00261C264.478 8.01196 264.248 8.0173 264.027 8.03601C263.659 8.06674 263.479 7.97988 263.226 7.93979C262.849 7.95716 262.467 7.96919 262.09 7.99324C261.915 8.00393 261.8 7.99993 261.666 7.96786C261.496 7.92778 261.339 7.88235 261.063 7.90239C260.695 7.92911 260.309 7.93847 259.931 7.9545C259.678 7.91308 259.494 7.82889 259.13 7.85962C258.91 7.87833 258.675 7.88234 258.449 7.89303C258.146 7.90773 257.842 7.9211 257.538 7.93713C257.211 7.95317 257.216 7.94916 256.714 7.87032C256.424 7.82356 256.125 7.87566 255.831 7.88368C255.601 7.89036 255.486 7.95183 255.541 8.03066C255.596 8.1095 255.472 8.17096 255.26 8.18165C254.731 8.20704 254.197 8.23376 253.668 8.25647C253.603 8.25914 253.525 8.24979 253.465 8.24044C252.899 8.15626 252.899 8.15761 252.646 8.16963C252.269 8.18968 251.882 8.20035 251.509 8.22574C251.252 8.24311 251.063 8.21506 250.897 8.16963C250.768 8.13489 250.649 8.12687 250.483 8.13489C248.661 8.22441 246.838 8.30726 245.02 8.39946C244.749 8.41282 244.592 8.37407 244.408 8.338C244.344 8.32597 244.284 8.30058 244.22 8.30058C244.068 8.30058 243.916 8.31261 243.764 8.32062C243.083 8.35269 242.402 8.39144 241.716 8.41549C241.426 8.42618 241.348 8.48765 241.224 8.53843C241.127 8.57718 241.017 8.5932 240.846 8.59855C240.681 8.60389 240.561 8.59721 240.432 8.56247C240.266 8.51704 240.078 8.48897 239.82 8.50768C239.521 8.52906 239.217 8.53842 238.909 8.55312C238.752 8.5598 238.633 8.58385 238.582 8.63195C238.573 8.63997 238.669 8.66002 238.725 8.67205C238.909 8.71213 239.084 8.7589 239.291 8.78696C239.502 8.81502 239.733 8.78294 239.953 8.77492C240.032 8.77225 240.105 8.76424 240.179 8.76557C240.248 8.76691 240.331 8.77359 240.382 8.78562C240.621 8.84575 240.874 8.88717 241.205 8.85109C241.491 8.86846 241.638 8.97937 242.001 8.94997C242.222 8.9326 242.452 8.92459 242.683 8.9179C242.742 8.91657 242.807 8.94062 242.871 8.95265C243.055 8.98605 243.203 9.0395 243.479 9.01678C243.773 8.99273 244.086 8.98872 244.385 8.97002C244.551 8.95933 244.671 8.96868 244.799 9.00342C244.965 9.04752 245.154 9.08091 245.412 9.05953C245.632 9.04083 245.867 9.03682 246.093 9.02479C246.387 9.01009 246.387 9.01143 246.912 9.09428C246.972 9.10363 247.05 9.11432 247.114 9.11165C247.496 9.09561 247.874 9.07557 248.256 9.05953C248.403 9.05285 248.546 9.07022 248.647 9.10897C248.688 9.12501 248.674 9.15175 248.688 9.17446C247.929 9.21054 247.17 9.24127 246.415 9.28536C246.129 9.30273 246.001 9.24795 245.812 9.21721C245.747 9.20652 245.678 9.18381 245.619 9.18648C245.085 9.2092 244.556 9.23324 244.026 9.26264C243.861 9.27199 243.736 9.26665 243.612 9.2279C243.295 9.12501 242.908 9.18113 242.549 9.19583C242.273 9.20652 242.186 9.24795 242.218 9.33614C242.259 9.44036 242.425 9.47243 242.848 9.45372C243 9.44704 243.152 9.43769 243.304 9.43234C243.451 9.427 243.585 9.44436 243.704 9.48044C243.819 9.51652 243.957 9.53523 244.1 9.52988C244.404 9.51785 244.712 9.50583 245.007 9.48579C245.25 9.46976 245.453 9.48312 245.623 9.53256C245.812 9.58734 246.033 9.57531 246.254 9.56329C246.769 9.53656 246.774 9.53791 247.096 9.60472C247.16 9.61808 247.225 9.64347 247.285 9.64213C247.814 9.62209 248.348 9.60472 248.868 9.57265C249.139 9.55661 249.296 9.59937 249.475 9.63411C249.54 9.64613 249.604 9.67286 249.664 9.67019C250.046 9.65549 250.428 9.64079 250.801 9.6154C250.975 9.60337 251.081 9.61139 251.224 9.64346C251.565 9.72229 251.574 9.71962 252.057 9.69423C252.204 9.68621 252.365 9.67152 252.503 9.68221C252.641 9.6929 252.752 9.73166 252.881 9.75571C252.941 9.7664 253.014 9.78109 253.079 9.77841C253.382 9.76772 253.686 9.7517 253.99 9.737C254.275 9.7223 254.275 9.72364 254.809 9.80649C255.025 9.84123 255.251 9.81182 255.467 9.80114C255.702 9.78911 255.914 9.78911 256.093 9.84123C256.273 9.89334 256.489 9.89066 256.719 9.87997C256.935 9.86928 257.156 9.83989 257.377 9.87597C257.883 9.95881 257.883 9.96014 258.196 9.9441C258.652 9.92139 259.103 9.90001 259.563 9.87997C259.623 9.87729 259.701 9.89334 259.761 9.90403C259.89 9.92808 260 9.96815 260.138 9.97751C260.276 9.9882 260.437 9.97217 260.585 9.96415C261.059 9.93876 261.091 9.92941 261.408 10.0176C261.675 10.0898 262.007 9.98553 262.255 10.0684C262.398 10.1151 262.591 10.1526 262.858 10.1298C263.079 10.1111 263.309 10.1058 263.539 10.0951C263.903 10.0777 263.903 10.0791 264.363 10.1592C264.423 10.1699 264.501 10.1833 264.561 10.1806C264.865 10.1699 265.173 10.1606 265.468 10.1365C265.813 10.1085 266.034 10.1592 266.291 10.2087C266.494 10.2474 266.733 10.2154 266.949 10.202C267.184 10.1886 267.396 10.1926 267.571 10.2447C267.755 10.2982 267.971 10.2915 268.201 10.2808C268.417 10.2715 268.638 10.2407 268.859 10.2782C269.333 10.361 269.333 10.361 269.678 10.345C269.982 10.3303 270.286 10.3142 270.59 10.3035C270.649 10.3009 270.723 10.3182 270.783 10.3303C270.912 10.3543 271.022 10.3944 271.16 10.4038C271.298 10.4131 271.459 10.3958 271.611 10.3891C271.763 10.3824 271.924 10.3623 272.062 10.3704C272.2 10.3784 272.329 10.4118 272.44 10.4412C272.569 10.4759 272.688 10.4799 272.863 10.4666C273.084 10.4492 273.314 10.4452 273.54 10.4358C273.664 10.4612 273.793 10.4866 273.912 10.5147C274.037 10.5441 274.17 10.5414 274.34 10.532C274.906 10.5 274.911 10.504 275.385 10.5868C275.601 10.6242 275.827 10.5935 276.043 10.5842C276.273 10.5735 276.49 10.5681 276.669 10.6216C276.844 10.6723 277.06 10.679 277.29 10.663C277.438 10.6523 277.594 10.6456 277.746 10.6416C277.815 10.6403 277.898 10.6456 277.948 10.6563C278.192 10.7124 278.432 10.7632 278.768 10.7271C279.062 10.7378 279.209 10.8474 279.564 10.826C279.863 10.8073 280.176 10.8033 280.47 10.7792C280.742 10.7579 280.935 10.7953 281.073 10.842C281.322 10.9249 281.672 10.8127 281.92 10.8942C282.063 10.9409 282.247 10.9783 282.523 10.9583C282.827 10.9369 282.923 10.965 283.011 11.0491C283.061 11.0973 283.052 11.136 282.96 11.1734C282.868 11.2122 282.767 11.2055 282.62 11.1614C282.449 11.112 282.247 11.1026 282.003 11.1133C281.764 11.124 281.616 11.0545 281.418 11.0278C281.22 10.9997 280.986 11.0465 280.779 11.0104C280.291 10.9262 280.291 10.9262 279.96 10.9423C279.734 10.953 279.499 10.9583 279.278 10.977C279.016 10.9997 278.846 10.9583 278.666 10.9209C278.602 10.9075 278.537 10.8821 278.482 10.8835C277.953 10.9035 277.419 10.9222 276.895 10.9556C276.618 10.973 276.471 10.9249 276.287 10.8915C276.223 10.8795 276.154 10.8554 276.098 10.8581C275.643 10.8768 275.192 10.9008 274.736 10.9236C274.649 10.9596 274.552 10.9944 274.469 11.0331C274.382 11.0732 274.262 11.0906 274.087 11.0892C273.797 11.0892 273.512 11.1454 273.222 11.0745C272.923 11.0024 272.9 11.0064 272.61 11.0238C272.242 11.0465 271.851 11.0411 271.505 11.0933C271.446 11.1026 271.381 11.128 271.381 11.1467C271.377 11.1587 271.473 11.1761 271.533 11.1868C271.736 11.2188 271.97 11.1721 272.173 11.2055C272.306 11.2269 272.417 11.2589 272.55 11.2816C272.605 11.291 272.688 11.2897 272.762 11.2883C272.84 11.287 272.914 11.2777 272.987 11.279C273.056 11.2803 273.13 11.2883 273.185 11.3004C273.438 11.3511 273.705 11.3979 273.931 11.458C274.152 11.5168 274.359 11.4767 274.58 11.4741C275.463 11.5676 275.463 11.5689 276.057 11.5395C276.204 11.5329 276.356 11.5248 276.508 11.5262C276.572 11.5262 276.632 11.5502 276.697 11.5636C276.881 11.6037 277.056 11.6398 277.313 11.6184C277.534 11.5997 277.769 11.5957 277.994 11.5836C278.298 11.5689 278.298 11.5689 278.814 11.6531C278.943 11.6745 279.081 11.6718 279.246 11.6611C279.389 11.6518 279.536 11.6718 279.637 11.7106C279.679 11.7266 279.665 11.7533 279.679 11.7761C279.223 11.7974 278.763 11.8121 278.321 11.8442C278.036 11.8642 277.907 11.8068 277.718 11.7761C277.654 11.7654 277.585 11.7427 277.525 11.7453C277.074 11.7654 276.623 11.7881 276.172 11.8148C276.117 11.8175 276.048 11.8482 276.043 11.8669C276.034 11.9016 276.149 11.9351 276.315 11.9337C276.536 11.9324 276.752 11.9097 276.95 11.9644C277.115 12.0125 277.322 12.0339 277.566 12.0126C277.714 12.0005 277.87 12.0005 278.017 11.9898C278.409 11.9578 278.763 11.9645 279.057 12.0553C279.283 12.0794 279.504 12.0567 279.72 12.0446C279.881 12.0353 280.038 12.0259 280.153 12.0513C280.397 12.1048 280.636 12.1582 280.972 12.1221C281.336 12.1595 281.612 12.2384 281.915 12.3025C282.058 12.3332 282.169 12.3506 282.334 12.3306C282.403 12.3226 282.486 12.3226 282.56 12.3185C282.712 12.3119 282.873 12.2918 283.011 12.2998C283.149 12.3092 283.264 12.3479 283.388 12.372C283.448 12.384 283.517 12.4041 283.577 12.4027C283.807 12.396 284.032 12.3827 284.258 12.372C284.483 12.3626 284.709 12.3533 284.934 12.3439C285.123 12.3787 285.316 12.4134 285.505 12.4482C285.809 12.4335 286.113 12.4188 286.412 12.4054C286.748 12.3894 286.748 12.3907 287.231 12.4735C287.447 12.511 287.677 12.4869 287.884 12.4695C288.23 12.4415 288.46 12.4923 288.704 12.5457C288.754 12.5564 288.846 12.5631 288.906 12.5577C289.145 12.539 289.352 12.5537 289.527 12.6032C289.651 12.6379 289.776 12.6539 289.928 12.6473C290.457 12.6219 290.986 12.5951 291.515 12.5724C291.58 12.5698 291.653 12.5818 291.713 12.5925C292.183 12.674 292.187 12.678 292.532 12.6566C292.841 12.6379 293.126 12.6299 293.37 12.7034C293.421 12.7194 293.499 12.7421 293.554 12.7408C293.931 12.7274 294.314 12.7127 294.686 12.69C294.857 12.6793 294.976 12.6833 295.11 12.7141C295.28 12.7528 295.432 12.7996 295.713 12.7822C296.49 12.7328 296.495 12.7408 297.415 12.833C297.48 12.8397 297.567 12.829 297.641 12.8236C297.797 12.8103 297.912 12.829 298.05 12.8597C298.359 12.9292 298.368 12.9252 298.662 12.9105C298.888 12.8985 299.123 12.8958 299.344 12.8757C299.684 12.8464 299.91 12.8985 300.163 12.9479C300.365 12.9867 300.6 12.9546 300.816 12.9426C301.051 12.9292 301.263 12.9332 301.438 12.984C301.557 13.0187 301.686 13.0374 301.838 13.0308C302.367 13.0067 302.896 12.98 303.426 12.9559C303.49 12.9532 303.568 12.9639 303.628 12.9733C304.153 13.0561 304.153 13.0601 304.673 13.0294C304.839 13.0201 304.977 13.0174 305.101 13.0454C305.22 13.0722 305.349 13.0976 305.474 13.1229C305.699 13.1136 305.929 13.1109 306.15 13.0949C306.32 13.0829 306.44 13.0882 306.573 13.1163C306.748 13.1523 306.896 13.2151 307.172 13.1844C307.314 13.1697 307.48 13.1737 307.623 13.1604C307.793 13.143 307.908 13.1537 308.042 13.1884C308.207 13.2298 308.377 13.2726 308.644 13.2512C308.939 13.2272 309.252 13.2232 309.551 13.2044C309.717 13.1938 309.832 13.2045 309.965 13.2392C310.131 13.2833 310.32 13.3114 310.577 13.294C311.102 13.2606 311.106 13.2672 311.617 13.3514C311.746 13.3728 311.884 13.3701 312.05 13.3595C312.193 13.3501 312.34 13.3701 312.441 13.4089C312.538 13.4517 312.529 13.4784 312.538 13.5011ZM271.528 1.44984C271.377 1.45652 271.225 1.46454 271.004 1.34829C270.99 1.32825 270.999 1.3042 270.967 1.28683C270.893 1.25075 270.778 1.22537 270.64 1.22136C270.392 1.21601 270.093 1.26143 270.097 1.29618C270.102 1.32557 270.18 1.35096 270.332 1.37501C270.396 1.38436 270.447 1.4004 270.507 1.41109C270.682 1.44182 270.82 1.50196 271.073 1.47123C271.027 1.38838 271.05 1.4298 271.073 1.47123C271.05 1.522 271.119 1.55808 271.285 1.57278C271.331 1.57679 271.4 1.57411 271.436 1.56609C271.579 1.5367 271.602 1.49662 271.496 1.39106C271.478 1.40843 271.492 1.43915 271.533 1.44717C271.575 1.45519 271.676 1.44851 271.726 1.43916C271.855 1.41377 271.92 1.38036 271.887 1.3523C271.869 1.3376 271.782 1.3189 271.726 1.3189C271.63 1.3189 271.542 1.34829 271.528 1.44984ZM308.741 16.9458C308.405 16.9712 308.019 16.9619 307.683 17.014C307.623 17.0233 307.563 17.0474 307.558 17.0661C307.554 17.0781 307.646 17.0955 307.701 17.1048C307.825 17.1262 307.963 17.1195 308.124 17.1129C308.368 17.1035 308.511 17.165 308.7 17.1957C308.759 17.2051 308.838 17.2117 308.902 17.2091C309.275 17.193 309.643 17.1757 310.016 17.157C310.08 17.153 310.149 17.1436 310.205 17.1316C310.389 17.0928 310.37 17.0674 310.191 17.038C309.993 17.006 309.836 16.9525 309.634 16.9271C309.344 16.891 309.049 16.9391 308.741 16.9458ZM282.606 17.9213C282.38 17.932 282.159 17.9426 281.934 17.9533C281.86 17.9573 281.782 17.9587 281.713 17.964C281.57 17.9734 281.464 18.0014 281.395 18.0455C281.501 18.0803 281.63 18.1003 281.773 18.0963C281.998 18.0883 282.219 18.0709 282.445 18.0669C282.689 18.0616 282.831 18.1217 283.02 18.1524C283.08 18.1618 283.153 18.1631 283.222 18.1644C283.563 18.1698 283.77 18.1003 283.706 18.0028C283.66 17.9266 283.485 17.8812 283.273 17.8905C283.052 17.8999 282.827 17.9106 282.606 17.9213ZM310.315 14.9709C310.37 14.9482 310.43 14.9322 310.458 14.9121C310.541 14.844 310.508 14.7932 310.356 14.7397C310.172 14.6743 309.947 14.7184 309.74 14.7251C309.689 14.7264 309.634 14.7544 309.606 14.7718C309.588 14.7838 309.588 14.8092 309.615 14.8159C309.841 14.8694 310.08 14.9188 310.315 14.9709ZM270.392 11.0238C270.171 11.0345 269.945 11.0425 269.724 11.0572C269.669 11.0612 269.619 11.0866 269.586 11.1039C269.527 11.136 269.591 11.1801 269.78 11.1841C269.996 11.1895 270.221 11.1667 270.447 11.1561C270.732 11.1427 270.903 11.0932 270.797 11.0505C270.695 11.0091 270.557 11.0011 270.392 11.0238ZM28.1418 8.16829C28.2891 8.16161 28.4409 8.15626 28.5882 8.14691C28.7262 8.13756 28.8322 8.10816 28.9012 8.06407C28.7862 8.02933 28.6573 8.01062 28.5146 8.01463C28.2891 8.02264 28.0682 8.03333 27.8473 8.04669C27.7092 8.05471 27.5758 8.08411 27.5436 8.12954C27.5114 8.16428 27.8196 8.18433 28.1418 8.16829ZM250.929 7.96251C250.989 7.97454 251.049 7.99859 251.109 7.99859C251.256 7.99859 251.408 7.99057 251.546 7.97721C251.606 7.97186 251.652 7.94781 251.68 7.92911C251.698 7.91708 251.693 7.89571 251.666 7.88502C251.532 7.82088 250.999 7.8436 250.911 7.91709C250.902 7.93045 250.925 7.94781 250.929 7.96251ZM236.41 0.645444C236.424 0.666823 236.428 0.6882 236.447 0.709579C236.484 0.749665 236.585 0.779068 236.732 0.799111C236.847 0.765706 236.907 0.728298 236.902 0.688211C236.898 0.666832 236.884 0.645439 236.865 0.62406C236.829 0.583974 236.727 0.554587 236.58 0.534544C236.465 0.566613 236.41 0.604021 236.41 0.645444ZM320.95 18.1538C320.909 18.1711 320.868 18.1885 320.822 18.2045C320.946 18.2433 321.061 18.2553 321.148 18.2339C321.204 18.2206 321.236 18.2005 321.277 18.1832C321.153 18.1444 321.042 18.1337 320.95 18.1538ZM318.088 18.3355C318.148 18.3475 318.203 18.3636 318.267 18.3716C318.373 18.3849 318.47 18.3622 318.543 18.3141C318.484 18.3021 318.428 18.286 318.364 18.278C318.258 18.2647 318.162 18.2874 318.088 18.3355ZM319.901 18.091C319.869 18.123 319.933 18.1498 320.104 18.1725C320.145 18.1551 320.2 18.1391 320.228 18.1204C320.274 18.0896 320.196 18.0616 320.03 18.0402C319.984 18.0562 319.943 18.0736 319.901 18.091ZM310.186 16.6505C310.154 16.6826 310.218 16.7093 310.389 16.732C310.43 16.7147 310.485 16.6986 310.513 16.6799C310.559 16.6492 310.481 16.6211 310.315 16.5998C310.269 16.6158 310.228 16.6332 310.186 16.6505ZM296.95 7.19553C296.909 7.2129 296.868 7.23027 296.822 7.24631C296.946 7.28506 297.061 7.29708 297.148 7.2757C297.204 7.26234 297.236 7.2423 297.277 7.22492C297.153 7.18617 297.043 7.17549 296.95 7.19553ZM284.272 2.17941C284.382 2.18876 284.474 2.17006 284.552 2.12062C284.493 2.1086 284.437 2.09256 284.373 2.08454C284.267 2.07118 284.17 2.0939 284.097 2.142C284.157 2.15537 284.216 2.16738 284.272 2.17941ZM277.539 1.8654C277.497 1.88277 277.456 1.90014 277.41 1.91618C277.534 1.95493 277.649 1.96695 277.737 1.94557C277.792 1.93221 277.824 1.91216 277.866 1.89479C277.741 1.85604 277.631 1.84669 277.539 1.8654ZM231.881 0.644106C231.84 0.661477 231.799 0.678848 231.753 0.694883C231.877 0.733633 231.992 0.745655 232.079 0.724275C232.135 0.710913 232.167 0.69087 232.208 0.673499C232.084 0.634749 231.973 0.625399 231.881 0.644106ZM4.54221 11.5155C4.48239 11.5035 4.42261 11.4914 4.36739 11.4781C4.23393 11.5142 4.19252 11.5476 4.26616 11.5729C4.31218 11.589 4.38115 11.5983 4.44098 11.6104C4.57904 11.5743 4.61125 11.5422 4.54221 11.5155Z" fill="#FFE492"/>
<path id="Vector_2" d="M31.75 6.7974C31.2207 6.82279 30.6961 6.85485 30.1669 6.87088C29.8862 6.8789 29.785 6.93636 29.6699 6.98981C29.5779 7.03257 29.472 7.04593 29.3017 7.05394C27.8659 7.11942 26.4346 7.1889 25.0033 7.25705C24.8239 7.23968 24.7364 7.21162 24.7778 7.17822C24.8009 7.15818 24.8561 7.13011 24.9113 7.12744C25.8916 7.078 26.8672 7.02722 27.852 6.98847C28.1327 6.97778 28.211 6.91899 28.3537 6.87088C28.3997 6.85485 28.4365 6.8308 28.4964 6.82145C28.5562 6.81076 28.6436 6.8121 28.7219 6.80942C30.305 6.73326 31.8881 6.65844 33.4713 6.58228C33.6508 6.59965 33.7382 6.6277 33.6968 6.66111C33.6738 6.68115 33.6185 6.70921 33.5633 6.71188C32.9558 6.73994 32.3529 6.76801 31.75 6.7974Z" fill="#FFE492"/>
<path id="Vector_3" d="M320.745 13.9127C320.506 13.9287 320.202 13.9514 319.953 13.8739C319.834 13.8365 319.705 13.8245 319.548 13.8325C319.323 13.8458 319.093 13.8565 318.863 13.8646C318.803 13.8659 318.724 13.8512 318.665 13.8392C318.536 13.8151 318.425 13.775 318.287 13.7643C318.149 13.7536 317.984 13.783 317.841 13.7764C317.652 13.767 317.574 13.7309 317.625 13.6975C317.652 13.6788 317.707 13.6521 317.767 13.6481C318.619 13.5986 318.623 13.5986 318.863 13.6468C319.047 13.6842 319.217 13.7256 319.479 13.7029C319.7 13.6842 319.935 13.6801 320.16 13.6681C320.473 13.6521 320.473 13.6534 320.98 13.7376C321.108 13.759 321.246 13.7577 321.412 13.7456C321.555 13.7363 321.693 13.7577 321.808 13.7937C321.734 13.8392 321.628 13.8686 321.486 13.8766C321.256 13.8899 321.03 13.8993 320.745 13.9127Z" fill="#FFE492"/>
<path id="Vector_4" d="M313.239 13.5013C313.819 13.4732 314.403 13.4492 314.983 13.4171C315.222 13.4037 315.411 13.4184 315.577 13.4639C315.756 13.5133 315.959 13.5093 316.18 13.4999C316.318 13.4946 316.451 13.516 316.543 13.5534C316.58 13.5681 316.571 13.5948 316.584 13.6162C316.078 13.6402 315.567 13.6656 315.057 13.687C314.997 13.6897 314.923 13.6763 314.868 13.6656C314.744 13.6429 314.638 13.6028 314.504 13.5948C314.219 13.5761 313.934 13.6122 313.644 13.6188C313.506 13.6215 313.372 13.6015 313.28 13.5654C313.243 13.548 313.253 13.5226 313.239 13.5013Z" fill="#FFE492"/>
<path id="Vector_5" d="M102.474 2.01238C103.077 1.98298 103.68 1.95493 104.282 1.92554C104.462 1.94424 104.545 1.97096 104.508 2.00437C104.485 2.02441 104.43 2.05247 104.374 2.05515C103.169 2.11527 101.963 2.17272 100.762 2.23018C100.582 2.21147 100.5 2.18475 100.536 2.15135C100.559 2.13131 100.615 2.10324 100.67 2.10057C101.268 2.06984 101.871 2.04177 102.474 2.01238Z" fill="#FFE492"/>
<path id="Vector_6" d="M9.74035 9.43765C9.46883 9.44032 9.18355 9.48976 8.87982 9.45235C8.81999 9.44566 8.73713 9.42428 8.74173 9.41225C8.75093 9.39221 8.80617 9.36682 8.866 9.3588C9.12832 9.3254 9.4551 9.32139 9.58856 9.22786C9.65299 9.17975 9.77264 9.16373 9.93371 9.15437C10.104 9.14368 10.2236 9.14768 10.3571 9.17574C10.532 9.21182 10.6792 9.27863 10.9554 9.24389C10.9692 9.26527 11.0013 9.28932 10.9875 9.30936C10.9737 9.3294 10.914 9.34812 10.8587 9.36281C10.8081 9.37618 10.739 9.3882 10.6746 9.39221C10.3709 9.40824 10.0671 9.42161 9.74035 9.43765Z" fill="#FFE492"/>
<path id="Vector_7" d="M249.839 9.16945C250.064 9.15876 250.299 9.15341 250.52 9.13471C250.694 9.12001 250.805 9.12936 250.943 9.16142C251.178 9.21754 251.191 9.21221 251.767 9.22023C251.831 9.22156 251.909 9.24159 251.946 9.25896C251.969 9.26832 251.937 9.29372 251.909 9.30708C251.868 9.32445 251.808 9.34716 251.753 9.34716C251.389 9.35117 251.021 9.43001 250.667 9.33915C250.487 9.29372 250.289 9.27233 250.046 9.29237C249.898 9.3044 249.742 9.30975 249.59 9.31509C249.443 9.32044 249.291 9.30574 249.199 9.26565C249.065 9.20686 249.144 9.18415 249.383 9.18816C249.535 9.19083 249.687 9.17613 249.839 9.16945Z" fill="#FFE492"/>
<path id="Vector_8" d="M332.852 18.3795C333.142 18.3661 333.432 18.3501 333.726 18.3394C333.786 18.3368 333.86 18.3515 333.915 18.3608C334.136 18.4009 334.103 18.469 334.113 18.5292C334.117 18.592 333.606 18.6427 333.39 18.6C333.151 18.5519 332.935 18.4971 332.603 18.5265C332.474 18.5372 332.322 18.5131 332.24 18.4744C332.115 18.4183 332.184 18.3955 332.419 18.3996C332.557 18.4022 332.704 18.3875 332.852 18.3795Z" fill="#FFE492"/>
<path id="Vector_9" d="M186.07 0.192577C186.37 0.177879 186.669 0.155174 186.968 0.153838C187.143 0.152502 187.23 0.196588 187.189 0.228657C187.166 0.2487 187.11 0.276761 187.055 0.279434C186.457 0.311503 185.859 0.338232 185.26 0.367628C185.086 0.348921 184.998 0.320865 185.04 0.288796C185.063 0.268753 185.118 0.242029 185.173 0.23802C185.472 0.219313 185.771 0.207275 186.07 0.192577Z" fill="#FFE492"/>
<path id="Vector_10" d="M327.033 14.03C327.323 14.0166 327.618 13.9966 327.908 13.9899C328.059 13.9872 328.179 14.018 328.198 14.0527C328.207 14.0687 328.133 14.0968 328.073 14.1035C327.659 14.1489 327.213 14.1543 326.78 14.177C326.642 14.1837 326.495 14.1623 326.412 14.1249C326.288 14.0674 326.357 14.046 326.591 14.05C326.739 14.0514 326.886 14.0367 327.033 14.03Z" fill="#FFE492"/>
<path id="Vector_11" d="M257.013 9.34955C257.161 9.34287 257.312 9.3255 257.455 9.33084C257.607 9.33752 257.704 9.37627 257.75 9.41502C257.8 9.45912 257.796 9.50054 257.75 9.53796C257.676 9.6021 257.602 9.59943 257.432 9.55667C257.17 9.48986 257.151 9.49787 256.631 9.50054C256.571 9.50054 256.498 9.48049 256.452 9.46312C256.383 9.4364 256.42 9.39498 256.581 9.37093C256.7 9.35356 256.866 9.35623 257.013 9.34955Z" fill="#FFE492"/>
<path id="Vector_12" d="M316.604 13.5921C316.82 13.5814 317.036 13.564 317.253 13.564C317.405 13.5627 317.524 13.5934 317.538 13.6268C317.543 13.6428 317.474 13.6696 317.418 13.6776C317.156 13.7137 316.862 13.7163 316.576 13.7284C316.443 13.7337 316.295 13.7123 316.213 13.6749C316.088 13.6188 316.162 13.5934 316.388 13.6014C316.457 13.6041 316.53 13.5961 316.604 13.5921Z" fill="#FFE492"/>
<path id="Vector_13" d="M281.791 11.9524C281.468 11.9684 281.165 11.9484 281.188 11.9136C281.22 11.8682 281.353 11.8388 281.491 11.8308C281.712 11.8174 281.933 11.8067 282.159 11.7987C282.301 11.7934 282.43 11.8134 282.545 11.8481C282.476 11.8909 282.37 11.9216 282.232 11.931C282.09 11.9403 281.938 11.9457 281.791 11.9524Z" fill="#FFE492"/>
<path id="Vector_14" d="M280.181 11.7818C280.397 11.7711 280.613 11.7537 280.83 11.7537C280.981 11.7524 281.101 11.7831 281.115 11.8165C281.12 11.8325 281.051 11.8593 280.995 11.8673C280.733 11.9034 280.438 11.906 280.153 11.9181C280.02 11.9234 279.872 11.902 279.79 11.8646C279.665 11.8085 279.739 11.7831 279.964 11.7911C280.033 11.7938 280.107 11.7858 280.181 11.7818Z" fill="#FFE492"/>
<path id="Vector_15" d="M253.956 9.33902C254.172 9.32833 254.389 9.31095 254.605 9.30961C254.757 9.30828 254.876 9.33902 254.89 9.37243C254.895 9.38846 254.826 9.41385 254.771 9.4232C254.508 9.45928 254.214 9.46195 253.928 9.47398C253.795 9.47932 253.648 9.45794 253.565 9.42053C253.441 9.36441 253.514 9.33901 253.74 9.34703C253.809 9.3497 253.882 9.34169 253.956 9.33902Z" fill="#FFE492"/>
<path id="Vector_16" d="M252.628 9.26005C252.858 9.24936 252.932 9.24268 253.005 9.24268C253.143 9.24268 253.286 9.25871 253.369 9.29746C253.493 9.35359 253.42 9.36963 253.194 9.3723C252.904 9.37497 252.619 9.40304 252.329 9.40838C252.177 9.41105 252.057 9.37897 252.048 9.34557C252.044 9.32953 252.113 9.30147 252.168 9.29613C252.361 9.27608 252.573 9.26406 252.628 9.26005Z" fill="#FFE492"/>
<path id="Vector_17" d="M278.939 1.39927C278.792 1.40595 278.636 1.42466 278.498 1.41798C278.313 1.40863 278.24 1.37255 278.286 1.33915C278.314 1.32044 278.364 1.29372 278.419 1.28971C278.714 1.271 279.013 1.25897 279.308 1.24561C279.482 1.26565 279.561 1.29371 279.515 1.32711C279.487 1.34582 279.436 1.37121 279.381 1.37655C279.238 1.38991 279.087 1.39259 278.939 1.39927Z" fill="#FFE492"/>
<path id="Vector_18" d="M99.6002 2.16999C99.7428 2.16866 99.8716 2.18603 99.9821 2.21943C99.913 2.26219 99.8118 2.29025 99.6738 2.30228C99.6047 2.30762 99.5265 2.31162 99.4529 2.31296C99.3102 2.31563 99.1813 2.29693 99.0709 2.26352C99.1399 2.22076 99.2457 2.1927 99.3792 2.18068C99.4482 2.17533 99.5265 2.174 99.6002 2.16999Z" fill="#FFE492"/>
<path id="Vector_19" d="M324.894 14.0251C324.89 13.9864 325.17 13.9423 325.423 13.9436C325.557 13.945 325.695 13.9637 325.773 13.9998C325.893 14.0545 325.824 14.0759 325.598 14.0719C325.46 14.0692 325.313 14.0919 325.175 14.0879C325.018 14.0866 324.926 14.0572 324.894 14.0251Z" fill="#FFE492"/>
<path id="Vector_20" d="M257.894 9.51132C257.889 9.49662 257.866 9.47926 257.88 9.4659C257.967 9.3924 258.497 9.36969 258.635 9.43383C258.658 9.44585 258.667 9.46589 258.649 9.47792C258.621 9.49662 258.57 9.52067 258.515 9.52602C258.372 9.53938 258.225 9.54607 258.078 9.5474C258.014 9.5474 257.954 9.52468 257.894 9.51132Z" fill="#FFE492"/>
<path id="Vector_21" d="M12.1579 9.22399C11.6149 9.25205 11.6057 9.24937 11.7023 9.18256C11.7898 9.12243 11.9509 9.08636 12.1856 9.08636C12.2546 9.08636 12.3282 9.08369 12.388 9.08904C12.4525 9.09572 12.5446 9.10906 12.5584 9.1251C12.586 9.15583 12.5077 9.18924 12.3696 9.21196C12.3098 9.22265 12.2316 9.21998 12.1579 9.22399Z" fill="#FFE492"/>
<path id="Vector_22" d="M106.786 1.98149C106.625 2.0042 106.487 1.99619 106.386 1.95343C106.285 1.91067 106.446 1.85989 106.726 1.84786C106.8 1.84519 106.878 1.83451 106.947 1.83986C107.016 1.84386 107.085 1.85989 107.127 1.87592C107.201 1.90264 107.154 1.93873 107.007 1.96946C106.947 1.98149 106.86 1.97881 106.786 1.98149Z" fill="#FFE492"/>
<path id="Vector_23" d="M324.904 13.9243C324.945 13.9069 324.987 13.8896 325.033 13.8735C325.205 13.8963 325.279 13.923 325.232 13.9537C325.205 13.9724 325.149 13.9884 325.107 14.0058C324.936 13.9831 324.867 13.955 324.904 13.9243Z" fill="#FFE492"/>
<path id="Vector_24" d="M18.94 24.4354C18.94 24.4193 19.0044 24.394 19.0551 24.3886C19.1517 24.3793 19.2713 24.398 19.3541 24.4354C19.4692 24.4888 19.4002 24.5169 19.1885 24.5022C19.0413 24.4915 18.94 24.4648 18.94 24.4354Z" fill="#FFE492"/>
<path id="Vector_25" d="M259.613 8.26698C259.673 8.279 259.733 8.29103 259.788 8.30439C259.71 8.35383 259.613 8.3752 259.512 8.36184C259.448 8.35382 259.392 8.33779 259.333 8.32576C259.411 8.27632 259.503 8.25762 259.613 8.26698Z" fill="#FFE492"/>
<path id="Vector_26" d="M258 8.2074C258.092 8.18736 258.202 8.19806 258.331 8.23681C258.29 8.25418 258.253 8.27423 258.202 8.28759C258.115 8.30897 258 8.29827 257.876 8.25818C257.912 8.24215 257.954 8.22478 258 8.2074Z" fill="#FFE492"/>
<path id="Vector_27" d="M256.699 8.26598C256.759 8.27801 256.819 8.29004 256.874 8.3034C256.796 8.35284 256.704 8.37421 256.598 8.36085C256.534 8.35283 256.479 8.33679 256.419 8.32477C256.497 8.27533 256.589 8.25529 256.699 8.26598Z" fill="#FFE492"/>
<path id="Vector_28" d="M256.734 8.19562C256.803 8.22234 256.766 8.25441 256.632 8.29049C256.572 8.27846 256.502 8.26912 256.456 8.25308C256.382 8.2277 256.419 8.19428 256.558 8.1582C256.613 8.17157 256.674 8.18359 256.734 8.19562Z" fill="#FFE492"/>
</g>
</g>
</g>
</g>
</g>
</g>
</svg>
