<svg width="352" height="37" viewBox="0 0 352 37" fill="none" xmlns="http://www.w3.org/2000/svg">
<g id="Landing page V2 / desktop / 1440px">
<g id="Your data">
<g id="Heading">
<g id="Text-block">
<g id="Element">
<path id="Vector" d="M328.549 19.3197C328.07 19.3503 327.586 19.3713 327.117 19.4172C326.812 19.4459 326.681 19.3618 326.478 19.3178C326.41 19.3025 326.338 19.2719 326.275 19.2757C325.801 19.3063 325.327 19.3407 324.852 19.3751C324.707 19.4497 324.615 19.5491 324.393 19.5855C324.175 19.6199 323.919 19.6199 323.677 19.6371C323.358 19.6581 323.038 19.6792 322.719 19.6983C322.559 19.7079 322.429 19.7442 322.376 19.813C322.366 19.8245 322.472 19.8532 322.53 19.8704C322.724 19.9277 322.912 19.9927 323.125 20.0367C323.328 20.0788 323.58 20.01 323.798 20.0635C324.286 20.184 324.291 20.182 324.664 20.1591C324.983 20.1381 325.302 20.1151 325.622 20.0998C325.685 20.096 325.757 20.1247 325.825 20.14C326.028 20.182 326.159 20.2777 326.459 20.2413C326.686 20.2126 326.938 20.2069 327.175 20.1916C327.373 20.2471 327.557 20.3102 327.77 20.3541C327.968 20.3962 328.026 20.4287 327.92 20.4842C327.823 20.5358 327.687 20.5568 327.508 20.5606C327.349 20.5626 327.189 20.5798 327.029 20.5893C326.947 20.595 326.87 20.5989 326.792 20.6046C326.488 20.6257 326.488 20.6257 325.931 20.5033C325.714 20.4555 325.467 20.5224 325.259 20.4765C325.119 20.4459 324.998 20.4 324.862 20.3675C324.804 20.3541 324.712 20.3522 324.64 20.356C324.398 20.3694 324.156 20.379 323.924 20.4038C323.759 20.4211 323.662 20.4746 323.682 20.5281C323.687 20.5492 323.803 20.5798 323.87 20.5817C324.025 20.5855 324.19 20.5587 324.34 20.5721C324.485 20.5855 324.635 20.6237 324.741 20.6658C324.959 20.7538 325.206 20.6754 325.414 20.6983C325.631 20.7232 325.81 20.7997 326.018 20.8455C326.072 20.857 326.173 20.8379 326.255 20.8321C326.492 20.8188 326.73 20.8073 326.967 20.7939C327.165 20.8494 327.378 20.8991 327.557 20.9622C327.881 21.0769 328.229 21.1209 328.65 21.0654C328.887 21.0348 329.119 21.0463 329.308 21.1209C329.502 21.1974 329.724 21.1897 329.971 21.1744C330.198 21.1591 330.431 21.1171 330.663 21.1706C331.166 21.2891 331.171 21.2949 331.766 21.249C331.945 21.2356 332.08 21.2318 332.216 21.2758C332.341 21.3159 332.477 21.3503 332.608 21.3886C332.845 21.3752 333.086 21.3618 333.324 21.3465C333.628 21.3255 333.798 21.3522 333.87 21.4593C333.914 21.5243 333.933 21.5836 334.04 21.6276C334.165 21.6811 334.301 21.6792 334.485 21.6639C334.659 21.6505 334.785 21.6295 334.857 21.5607C334.886 21.532 334.944 21.5052 334.997 21.4823C335.041 21.4651 335.109 21.4383 335.147 21.4421C335.22 21.4498 335.317 21.4708 335.341 21.4956C335.578 21.727 335.578 21.7289 335.82 21.7958C336.086 21.8704 336.362 21.9373 336.604 22.0215C336.821 22.096 337.039 22.0635 337.276 22.0635C337.455 22.0635 337.571 22.1133 337.557 22.163C337.547 22.1917 337.479 22.2337 337.421 22.2375C336.947 22.2758 336.468 22.3083 335.989 22.335C335.931 22.3389 335.859 22.3044 335.791 22.2872C335.655 22.2528 335.534 22.1993 335.389 22.1878C335.244 22.1763 335.075 22.205 334.915 22.2146C334.756 22.2241 334.586 22.249 334.441 22.2337C334.296 22.2184 334.18 22.163 334.044 22.1266C333.981 22.1094 333.894 22.0846 333.841 22.0903C333.488 22.1362 333.227 22.0731 332.975 21.989C332.922 21.9718 332.83 21.9603 332.762 21.9641C332.201 21.9966 331.645 22.0348 331.084 22.0712C330.856 22.0865 330.672 22.0195 330.624 21.9067C330.6 21.8436 330.551 21.7805 330.551 21.7174C330.551 21.6027 330.285 21.5396 330.092 21.553C329.773 21.5721 329.448 21.5874 329.134 21.6161C328.878 21.639 328.66 21.6161 328.486 21.5473C328.283 21.4689 328.05 21.4842 327.818 21.5052C327.644 21.5205 327.595 21.5836 327.605 21.7423C327.615 21.8704 327.533 21.9106 327.218 21.9316C326.821 21.9584 326.42 21.9851 326.018 22.0062C325.955 22.01 325.883 21.9775 325.82 21.9603C325.685 21.9259 325.564 21.8704 325.418 21.8589C325.273 21.8455 325.104 21.8742 324.944 21.8857C324.785 21.8953 324.615 21.922 324.47 21.9086C324.325 21.8953 324.204 21.8379 324.073 21.8016C324.011 21.7844 323.933 21.7595 323.87 21.7633C323.551 21.7786 323.232 21.8016 322.912 21.8226C322.554 21.8456 322.554 21.8456 322.046 21.727C321.814 21.6735 321.582 21.7155 321.355 21.7308C321.113 21.7461 320.885 21.7538 320.697 21.6773C320.571 21.6276 320.431 21.597 320.281 21.6066C319.879 21.6295 319.482 21.6582 319.081 21.6811C319.013 21.6849 318.921 21.6754 318.868 21.6582C318.612 21.5779 318.36 21.5148 318.002 21.5549C317.692 21.5893 317.359 21.5912 317.049 21.6238C316.88 21.641 316.802 21.7022 316.836 21.75C316.855 21.7748 316.957 21.8035 317.025 21.8035C317.18 21.8054 317.349 21.7767 317.494 21.7882C317.794 21.8111 317.944 21.9717 318.336 21.9278C318.568 21.901 318.81 21.8914 319.052 21.8838C319.115 21.8819 319.182 21.9182 319.25 21.9373C319.444 21.989 319.613 22.0559 319.894 22.0215C320.126 21.9947 320.373 21.9871 320.61 21.9718C320.987 21.9469 320.987 21.9488 321.476 22.0655C321.708 22.1209 321.94 22.0769 322.167 22.0635C322.337 22.054 322.496 22.0349 322.632 22.0616C322.84 22.1018 322.99 22.1935 323.246 22.1878C323.488 22.1821 323.725 22.1553 323.967 22.1457C324.117 22.14 324.257 22.1706 324.378 22.2222C324.504 22.2739 324.64 22.2968 324.804 22.2853C325.041 22.27 325.283 22.2509 325.525 22.2413C325.593 22.2394 325.67 22.2567 325.733 22.2719C325.868 22.3064 325.999 22.3465 326.13 22.3828C326.367 22.3714 326.609 22.3676 326.841 22.3446C327.02 22.3274 327.146 22.3351 327.291 22.3733C327.475 22.4249 327.625 22.5167 327.925 22.4727C328.074 22.4517 328.249 22.4574 328.399 22.4383C328.582 22.4134 328.708 22.423 328.839 22.4804C329.086 22.5893 329.395 22.5913 329.715 22.5492C330.063 22.5033 330.324 22.5569 330.585 22.641C330.861 22.7289 330.861 22.727 331.074 22.9393C331.137 23.0004 331.316 23.0291 331.466 23.0177C331.717 22.9985 331.935 23.0081 332.119 23.0808C332.312 23.1591 332.545 23.1496 332.782 23.1286C333.096 23.0999 333.411 23.075 333.667 23.1859C333.793 23.2395 333.928 23.2528 334.098 23.2394C334.577 23.205 335.06 23.184 335.53 23.142C335.815 23.1152 335.979 23.1764 336.173 23.228C336.434 23.2987 336.72 23.3618 336.72 23.5129C336.72 23.5377 336.787 23.5664 336.846 23.5855C336.971 23.6257 337.107 23.6601 337.237 23.6984C337.431 23.7557 337.62 23.8035 337.886 23.7729C338.118 23.7481 338.365 23.7404 338.602 23.7232C338.839 23.706 339.056 23.6964 339.269 23.7691C339.516 23.8513 339.777 23.9297 340.058 23.9909C340.256 24.0349 340.517 23.9603 340.73 24.0196C340.861 24.0559 340.987 24.098 341.127 24.1286C341.185 24.142 341.277 24.1324 341.354 24.1286C341.514 24.1209 341.679 24.1152 341.833 24.0961C342.012 24.075 342.148 24.0789 342.283 24.1228C342.409 24.163 342.535 24.2184 342.68 24.2299C342.898 24.2471 343.14 24.1706 343.357 24.2586C343.469 24.3026 343.609 24.3446 343.754 24.358C343.899 24.3714 344.068 24.3427 344.223 24.3446C344.291 24.3446 344.373 24.3752 344.412 24.4001C344.436 24.4135 344.402 24.4498 344.368 24.4689C344.325 24.4919 344.262 24.5225 344.199 24.5263C343.72 24.5607 343.241 24.5894 342.762 24.6219C342.477 24.641 342.477 24.641 341.901 24.5206C341.766 24.4919 341.616 24.4976 341.446 24.511C341.219 24.5282 340.987 24.5607 340.75 24.5263C340.44 24.3963 340.058 24.3848 339.651 24.4345C339.482 24.4555 339.327 24.4555 339.201 24.4192C338.935 24.3465 338.655 24.2796 338.418 24.1936C338.234 24.1267 338.147 24.1209 338.07 24.2127C338.045 24.2414 338.021 24.272 338.026 24.2987C338.055 24.3943 338.108 24.488 338.137 24.5836C338.147 24.6104 338.108 24.641 338.084 24.6697C338.007 24.75 337.905 24.7443 337.736 24.6773C337.566 24.6104 337.363 24.5664 337.092 24.597C336.86 24.6238 336.608 24.62 336.376 24.6487C336.018 24.6907 335.767 24.6295 335.51 24.5473C335.457 24.5301 335.365 24.5206 335.297 24.5244C334.577 24.5684 333.861 24.6181 333.14 24.662C332.985 24.6716 332.845 24.6429 332.724 24.5913C332.598 24.5397 332.458 24.5129 332.303 24.5225C331.664 24.5626 331.026 24.599 330.387 24.6487C330.126 24.6697 329.918 24.6448 329.739 24.5779C329.603 24.5282 329.477 24.5129 329.308 24.5186C329.124 24.5244 328.994 24.5435 328.902 24.599C328.815 24.6525 328.878 24.685 329.071 24.727C329.279 24.7729 329.473 24.8322 329.671 24.8858C329.831 24.8781 329.99 24.8628 330.145 24.8647C330.213 24.8647 330.276 24.8991 330.343 24.9183C330.537 24.9737 330.716 25.0292 330.992 24.9986C331.224 24.9718 331.471 24.9661 331.708 24.9489C332.037 24.9278 332.037 24.9278 332.569 25.0483C332.704 25.0789 332.849 25.077 333.024 25.0597C333.174 25.0464 333.328 25.0731 333.435 25.1305C333.478 25.1534 333.464 25.1917 333.372 25.3179C333.372 25.4116 333.473 25.3695 333.507 25.3083C333.561 25.2204 333.459 25.1917 333.265 25.2395C333.13 25.2739 333.062 25.3236 333.096 25.3638C333.116 25.3848 333.207 25.4116 333.372 25.3179C333.798 25.2032 334.122 25.1898 334.431 25.1592C334.615 25.142 334.731 25.1496 334.876 25.1993C335.051 25.2586 335.225 25.3217 335.51 25.2911C335.82 25.2567 336.149 25.2529 336.463 25.2242C336.754 25.1974 336.904 25.2816 337.087 25.3313C337.31 25.3905 337.557 25.3236 337.76 25.358C337.973 25.3925 338.123 25.4766 338.369 25.4919C338.727 25.4403 338.955 25.5359 339.226 25.599C339.439 25.6468 339.69 25.6047 339.917 25.5837C340.174 25.5607 340.387 25.5818 340.566 25.6506C340.769 25.729 340.996 25.7118 341.229 25.6946C341.77 25.6563 341.79 25.6506 342.104 25.7557C342.332 25.8322 342.549 25.7978 342.777 25.7883C342.975 25.8399 343.169 25.8953 343.377 25.9412C343.43 25.9527 343.531 25.9336 343.614 25.9278C343.851 25.9125 344.093 25.8972 344.33 25.882C344.489 25.8724 344.659 25.8437 344.804 25.8552C344.949 25.8686 345.07 25.924 345.201 25.9604C345.331 25.9967 345.467 26.033 345.592 26.0712C345.786 26.1286 345.97 26.1764 346.241 26.1477C346.473 26.1229 346.715 26.1152 346.957 26.098C347.261 26.077 347.252 26.0827 347.818 26.1974C348.123 26.2605 348.437 26.1841 348.747 26.1764C348.901 26.1726 349.051 26.1936 349.158 26.2491C349.201 26.272 349.187 26.3103 349.201 26.3428C348.403 26.3944 347.6 26.4384 346.811 26.5015C346.507 26.5263 346.347 26.4575 346.183 26.4001C345.912 26.3083 345.554 26.4422 345.297 26.3236C345.142 26.2529 344.92 26.2127 344.654 26.2472C344.499 26.2663 344.334 26.2644 344.175 26.2816C343.768 26.3236 343.396 26.3256 343.072 26.1936C342.961 26.1477 342.801 26.1229 342.685 26.0789C342.549 26.0311 342.419 26.0043 342.259 26.0139C341.538 26.0598 340.822 26.1056 340.106 26.1554C340.043 26.1592 339.98 26.1879 339.927 26.2089C339.792 26.2624 339.835 26.3045 340.053 26.3389C340.126 26.3504 340.184 26.3753 340.251 26.3944C340.382 26.4307 340.503 26.4881 340.648 26.5015C340.793 26.5148 340.963 26.4881 341.122 26.4785C341.282 26.469 341.451 26.4403 341.596 26.4517C341.741 26.4651 341.862 26.5206 341.998 26.555C342.061 26.5722 342.138 26.6009 342.201 26.599C342.52 26.5875 342.835 26.5665 343.154 26.5493C343.352 26.6009 343.522 26.6755 343.759 26.6927C343.909 26.7041 344.068 26.6831 344.223 26.6869C344.291 26.6888 344.378 26.7175 344.412 26.7424C344.431 26.7577 344.368 26.7959 344.32 26.815C344.136 26.8877 343.885 26.8743 343.657 26.8973C343.411 26.9221 343.188 26.9145 342.999 26.8399C342.873 26.7902 342.733 26.7634 342.578 26.773C342.177 26.7978 341.78 26.8265 341.379 26.8476C341.311 26.8514 341.229 26.8342 341.166 26.8208C340.658 26.7041 340.658 26.7003 340.3 26.7252C339.772 26.7615 339.772 26.7615 339.419 26.6602C339.352 26.641 339.279 26.6047 339.221 26.6066C338.66 26.6372 338.103 26.6678 337.547 26.7118C337.363 26.7252 337.237 26.7252 337.102 26.6755C336.986 26.6334 336.85 26.5856 336.705 26.5741C336.555 26.5626 336.391 26.5913 336.231 26.6009C336.071 26.6105 335.902 26.6353 335.762 26.62C335.617 26.6047 335.491 26.5512 335.365 26.5129C335.234 26.4728 335.094 26.4747 334.915 26.49C334.364 26.534 334.359 26.5282 333.812 26.4097C333.749 26.3963 333.667 26.381 333.599 26.3848C333.198 26.4078 332.801 26.4365 332.4 26.4594C332.245 26.469 332.095 26.4441 331.988 26.3887C331.945 26.3657 331.959 26.3275 331.93 26.2529C331.896 26.2357 331.935 26.2663 331.945 26.295C332.017 26.2911 332.104 26.295 332.158 26.2797C332.293 26.2433 332.361 26.1955 332.327 26.1554C332.308 26.1343 332.216 26.1076 332.158 26.1076C332.051 26.1076 331.959 26.1496 331.93 26.2529C331.626 26.316 331.301 26.3294 330.987 26.36C330.803 26.3791 330.687 26.3695 330.542 26.3198C330.368 26.2586 330.189 26.1993 329.903 26.2299C329.594 26.2644 329.265 26.2701 328.945 26.2969C328.578 26.3275 328.418 26.1554 328.108 26.1592C327.789 26.163 327.47 26.1955 327.15 26.2185C326.87 26.2376 326.87 26.2376 326.289 26.1133C326.076 26.0674 325.825 26.1343 325.617 26.0865C325.477 26.0559 325.356 26.0101 325.22 25.9776C325.162 25.9642 325.07 25.9642 324.998 25.968C324.596 25.9909 324.19 26.0062 323.803 26.0483C323.362 26.098 323.029 26.0445 322.714 25.9317C322.317 25.9527 321.916 25.9642 321.524 26.0005C321.239 26.0273 321.074 25.9642 320.881 25.9125C320.813 25.8953 320.755 25.8667 320.682 25.859C320.61 25.8514 320.523 25.8666 320.445 25.8724C320.126 25.8934 319.797 25.903 319.487 25.9374C319.105 25.9814 318.96 25.8246 318.665 25.8055C318.466 25.8992 318.36 26.0273 317.968 26.0368C317.649 26.0445 317.33 26.0751 317.01 26.0961C316.851 26.1057 316.691 26.1171 316.531 26.1267C316.275 26.1439 316.154 26.2185 316.207 26.3332C316.236 26.3963 316.26 26.4594 316.285 26.5225C316.333 26.6353 316.212 26.7309 316.009 26.7443C315.448 26.7806 314.891 26.8189 314.33 26.8514C314.18 26.8609 314.035 26.8284 313.914 26.7768C313.788 26.7252 313.648 26.7022 313.493 26.7118C312.932 26.7481 312.376 26.7864 311.814 26.8189C311.752 26.8227 311.669 26.8036 311.606 26.7883C311.471 26.7539 311.34 26.7137 311.21 26.6774C310.89 26.6946 310.576 26.706 310.262 26.729C309.754 26.7634 309.754 26.7653 309.381 26.6602C309.313 26.641 309.246 26.6047 309.183 26.6066C308.941 26.6143 308.704 26.6334 308.462 26.6506C307.751 26.7003 307.751 26.7003 307.543 26.643C307.354 26.5894 307.185 26.5244 306.899 26.555C306.589 26.5894 306.261 26.6009 305.941 26.62C305.704 26.6334 305.467 26.6487 305.23 26.6525C305.167 26.6544 305.099 26.6181 305.032 26.599C304.838 26.5397 304.65 26.4919 304.383 26.5244C304.229 26.5435 304.064 26.5474 303.905 26.5569C303.488 26.5837 303.488 26.5837 302.806 26.4689C302.739 26.4575 302.656 26.4441 302.589 26.4498C302.027 26.4842 301.471 26.5225 300.91 26.555C300.842 26.5588 300.76 26.5473 300.692 26.5378C299.928 26.4269 299.928 26.4269 299.115 26.4804C298.805 26.4996 298.796 26.5072 298.472 26.4059C298.326 26.3619 298.206 26.3408 298.036 26.3542C297.398 26.4001 296.754 26.4307 296.12 26.4843C295.835 26.5072 295.671 26.4498 295.477 26.3982C295.409 26.381 295.337 26.3428 295.279 26.3447C294.64 26.381 294.001 26.425 293.363 26.4613C293.305 26.4651 293.232 26.4269 293.164 26.4097C293.034 26.3753 292.908 26.3236 292.763 26.3122C292.613 26.3007 292.448 26.3294 292.284 26.3389C291.882 26.3638 291.882 26.3619 291.418 26.2491C291.355 26.2338 291.273 26.2127 291.21 26.2166C290.571 26.2548 289.928 26.2873 289.294 26.3428C288.931 26.3734 288.685 26.3179 288.428 26.2376C288.375 26.2204 288.283 26.2127 288.215 26.2166C287.495 26.2605 286.779 26.3102 286.058 26.3542C285.908 26.3638 285.763 26.3313 285.642 26.2816C285.448 26.2032 285.221 26.2127 284.979 26.2299C284.423 26.2701 284.418 26.2682 284.089 26.1764C284.021 26.1573 283.963 26.1324 283.89 26.1229C283.823 26.1133 283.736 26.119 283.663 26.1229C283.344 26.142 283.024 26.163 282.705 26.184C282.386 26.2051 282.062 26.2166 281.747 26.2491C281.36 26.2892 281.176 26.1649 280.905 26.1076C280.509 26.1324 280.102 26.1477 279.71 26.1879C279.41 26.2185 279.27 26.1343 279.072 26.0904C279.004 26.0751 278.931 26.0426 278.869 26.0464C278.148 26.0885 277.427 26.1343 276.711 26.186C276.537 26.1974 276.421 26.1821 276.276 26.1362C275.951 26.033 275.937 26.0368 275.395 26.0751C275.158 26.0923 274.931 26.1076 274.727 26.0292C274.548 25.9584 274.331 25.9412 274.074 25.9642C273.76 25.9928 273.436 26.0081 273.116 26.0273C272.797 26.0483 272.478 26.077 272.159 26.0865C271.902 26.0961 271.747 26.0062 271.544 25.9604C271.481 25.947 271.394 25.945 271.322 25.9489C271.002 25.9661 270.673 25.9795 270.364 26.012C269.986 26.0521 269.778 25.947 269.512 25.8858C269.454 25.8724 269.357 25.88 269.285 25.8858C268.724 25.9202 268.167 25.9584 267.606 25.9948C267.408 25.9431 267.204 25.8934 267.006 25.8418C266.687 25.8609 266.368 25.8819 266.048 25.9011C265.806 25.9164 265.56 25.9221 265.332 25.9508C265.037 25.989 264.892 25.8992 264.694 25.8552C264.626 25.8399 264.553 25.8074 264.49 25.8112C264.089 25.8322 263.687 25.8552 263.291 25.8877C262.913 25.9202 262.763 25.7481 262.454 25.75C262.134 25.7519 261.806 25.7768 261.496 25.8112C261.138 25.8514 260.886 25.7902 260.63 25.7079C260.577 25.6907 260.485 25.6812 260.417 25.685C260.016 25.7079 259.619 25.7366 259.217 25.7596C259.15 25.7634 259.067 25.7538 259 25.7424C258.235 25.6296 258.235 25.6277 257.901 25.6506C257.664 25.6659 257.422 25.685 257.181 25.6946C257.113 25.6984 257.03 25.6812 256.968 25.6659C256.464 25.5492 256.464 25.5473 256.102 25.5703C255.782 25.5913 255.463 25.6123 255.144 25.6334C254.945 25.5817 254.742 25.532 254.544 25.4804C254.147 25.5053 253.741 25.5244 253.349 25.5588C253.165 25.5741 253.044 25.5684 252.904 25.5206C252.73 25.4632 252.555 25.3963 252.265 25.4288C251.956 25.4632 251.627 25.467 251.312 25.4957C250.935 25.5301 250.78 25.3561 250.475 25.358C250.156 25.36 249.827 25.3848 249.517 25.4192C249.159 25.4594 248.908 25.3982 248.651 25.316C248.598 25.2988 248.506 25.2892 248.439 25.293C247.558 25.3485 246.682 25.4039 245.802 25.4632C245.26 25.4995 245.26 25.5014 244.23 25.3963C244.157 25.3886 244.08 25.381 244.007 25.3848C243.688 25.402 243.359 25.4154 243.049 25.4479C242.672 25.4881 242.464 25.3848 242.198 25.3217C242.14 25.3083 242.048 25.316 241.97 25.3198C241.728 25.3332 241.491 25.3504 241.249 25.3657C240.93 25.3867 240.611 25.4078 240.292 25.4288C240.093 25.3791 239.89 25.3274 239.692 25.2777C239.295 25.3026 238.889 25.316 238.497 25.3561C238.197 25.3867 238.056 25.3064 237.858 25.2605C237.79 25.2452 237.718 25.2127 237.655 25.2146C236.934 25.2567 236.213 25.3007 235.497 25.3542C235.202 25.3772 235.067 25.2911 234.868 25.2471C234.801 25.2337 234.723 25.2089 234.66 25.2127C234.181 25.2395 233.702 25.272 233.223 25.3045C232.953 25.3236 232.953 25.3236 232.362 25.2051C232.295 25.1917 232.217 25.1783 232.149 25.1821C230.63 25.2777 229.116 25.3791 227.597 25.4747C227.442 25.4842 227.302 25.4556 227.181 25.4039C227.055 25.3523 226.915 25.3255 226.76 25.3351C226.121 25.3753 225.478 25.4116 224.844 25.4613C224.583 25.4823 224.375 25.4575 224.196 25.3905C224.061 25.3408 223.935 25.3217 223.765 25.3332C223.446 25.3561 223.127 25.3752 222.808 25.3963C222.488 25.4173 222.169 25.4384 221.85 25.4594C221.53 25.4804 221.206 25.4919 220.892 25.5244C220.505 25.5645 220.316 25.446 220.05 25.3867C219.571 25.4154 219.092 25.4441 218.618 25.4747C217.979 25.5148 217.341 25.5588 216.702 25.5971C216.644 25.6009 216.572 25.5665 216.504 25.5492C216.305 25.5014 216.16 25.4345 215.865 25.4556C214.433 25.5569 212.992 25.6429 211.555 25.7424C211.255 25.7634 211.124 25.6812 210.921 25.6372C210.853 25.6238 210.776 25.5971 210.713 25.6009C209.915 25.6487 209.116 25.7022 208.318 25.7538C207.994 25.7749 207.994 25.7749 207.452 25.6563C207.389 25.6429 207.307 25.6257 207.239 25.6295C206.199 25.6946 205.164 25.7634 204.124 25.8303C203.969 25.8399 203.829 25.8131 203.703 25.7615C203.582 25.7099 203.437 25.6812 203.287 25.6907C202.329 25.7519 201.366 25.8112 200.413 25.8781C200.157 25.8972 199.944 25.88 199.76 25.8112C199.629 25.7615 199.499 25.7404 199.334 25.7519C197.897 25.8456 196.46 25.9355 195.024 26.0349C194.748 26.054 194.554 26.0177 194.38 25.9546C194.24 25.9049 194.119 25.8953 193.945 25.903C193.761 25.9125 193.65 25.9336 193.548 25.9909C193.418 26.0655 193.335 26.1592 193.026 26.1649C192.706 26.1707 192.382 26.1936 192.068 26.2261C191.768 26.2586 191.628 26.1726 191.439 26.121C191.299 26.0846 191.168 26.0789 190.989 26.0961C190.824 26.1114 190.723 26.1439 190.626 26.2051C190.413 26.3351 190.394 26.3351 190.133 26.2529C189.992 26.2089 189.867 26.1745 189.712 26.1821C189.073 26.2204 188.435 26.2624 187.796 26.3064C187.428 26.3313 187.423 26.3351 187.148 26.2395C187.012 26.1917 186.882 26.1687 186.722 26.1802C184.966 26.2949 183.21 26.4059 181.454 26.5263C181.183 26.5454 180.999 26.5053 180.805 26.4479C180.742 26.4288 180.679 26.402 180.607 26.3944C180.534 26.3867 180.452 26.3944 180.375 26.3982C179.098 26.4804 177.815 26.5588 176.543 26.6506C176.253 26.6716 176.098 26.6105 175.9 26.5607C175.832 26.5435 175.774 26.5168 175.701 26.5091C175.629 26.5034 175.542 26.5168 175.464 26.5225C174.187 26.6047 172.905 26.6831 171.633 26.7749C171.328 26.7959 171.197 26.7156 170.999 26.6736C170.931 26.6583 170.859 26.6296 170.796 26.6334C170.394 26.6544 169.997 26.6831 169.596 26.708C168.638 26.7711 167.68 26.8303 166.722 26.8954C166.355 26.9202 166.195 26.75 165.885 26.7577C165.484 26.7672 165.087 26.8055 164.685 26.8322C164.366 26.8533 164.047 26.8724 163.728 26.8954C163.413 26.9164 163.413 26.9164 162.629 26.8055C162.562 26.7959 162.479 26.7825 162.412 26.7864C161.294 26.8571 160.172 26.9279 159.059 27.0043C158.803 27.0215 158.59 27.012 158.406 26.9412C158.275 26.8915 158.14 26.8667 157.98 26.8781C156.302 26.9871 154.628 27.0961 152.949 27.2032C152.886 27.207 152.804 27.1879 152.741 27.1726C152.605 27.1382 152.475 27.098 152.344 27.0617C152.247 27.1057 152.122 27.1458 152.059 27.1955C151.972 27.2625 151.856 27.2816 151.672 27.2931C151.488 27.3045 151.372 27.3007 151.227 27.251C151.052 27.1898 150.873 27.142 150.588 27.1611C148.832 27.2816 147.076 27.3906 145.32 27.5091C145.029 27.5282 144.894 27.4441 144.691 27.4001C144.623 27.3867 144.545 27.3657 144.483 27.3696C143.762 27.4135 143.046 27.4613 142.325 27.5072C140.327 27.6372 138.329 27.7615 136.336 27.8992C135.973 27.9241 135.726 27.8762 135.47 27.794C135.416 27.7768 135.325 27.7673 135.257 27.7711C132.461 27.9508 129.664 28.1325 126.873 28.3141C126.723 28.3237 126.578 28.2931 126.457 28.2434C126.331 28.1917 126.191 28.1669 126.036 28.1764C124.759 28.2587 123.482 28.3409 122.204 28.425C121.885 28.4461 121.88 28.4479 121.551 28.3562C121.483 28.337 121.411 28.3007 121.358 28.3046C121.246 28.3141 121.14 28.3619 121.063 28.4269C120.985 28.4957 120.864 28.5149 120.685 28.5283C120.501 28.5416 120.38 28.5359 120.24 28.49C120.061 28.4327 119.897 28.3772 119.606 28.3963C115.934 28.6411 112.262 28.8762 108.591 29.1191C108.295 29.1382 108.16 29.0579 107.957 29.0139C107.889 29.0005 107.821 28.9814 107.749 28.9776C107.671 28.9738 107.589 28.9853 107.512 28.991C101.522 29.3791 95.5332 29.7692 89.5439 30.1574C89.1859 30.1803 89.1908 30.1803 88.7989 30.3562C88.7505 30.3772 88.6876 30.4059 88.6198 30.4097C86.7863 30.5321 84.948 30.6507 83.1096 30.7692C82.3113 30.8208 81.5131 30.8744 80.7149 30.9241C80.4294 30.9413 80.4294 30.9413 79.7473 31.1478C79.6892 31.165 79.6214 31.188 79.5537 31.1918C76.3607 31.4002 73.1677 31.6086 69.9699 31.8132C69.7183 31.8285 69.5152 31.8629 69.399 31.9547C69.3168 32.0197 69.2104 32.058 69.0507 32.0694C66.8156 32.2147 64.5806 32.362 62.3407 32.5035C62.0746 32.5207 61.9149 32.5742 61.7843 32.6545C61.7407 32.6813 61.702 32.7119 61.6391 32.731C61.581 32.7482 61.494 32.7539 61.4214 32.7597C59.5056 32.884 57.5899 33.0121 55.6693 33.1306C55.3838 33.1478 55.2677 33.2186 55.1274 33.2932C55.079 33.318 55.0451 33.3524 54.9822 33.3696C54.9193 33.3849 54.8274 33.3849 54.75 33.3888C53.1535 33.492 51.5571 33.5972 49.9606 33.7004C49.6509 33.6909 49.5832 33.8018 49.4332 33.8687C49.38 33.8916 49.3414 33.9222 49.2785 33.9375C49.2107 33.9528 49.1235 33.9509 49.0413 33.9547C47.7641 34.0369 46.4869 34.1249 45.2049 34.2014C44.9098 34.2186 44.8517 34.3161 44.6921 34.383C44.6389 34.4041 44.5857 34.4366 44.5228 34.4423C43.7246 34.4978 42.9263 34.5494 42.1281 34.5991C41.862 34.6163 41.862 34.6144 41.3927 34.8037C41.3395 34.8247 41.2766 34.8477 41.2088 34.8534C40.0139 34.9337 38.8141 35.0102 37.6143 35.0886C37.4595 35.0982 37.3531 35.1441 37.2757 35.2091C37.1983 35.2741 37.0871 35.3161 36.9322 35.3257C35.9743 35.3888 35.0164 35.4538 34.0585 35.5112C33.7924 35.5265 33.6183 35.5743 33.5022 35.6603C33.4151 35.7253 33.3086 35.7578 33.1393 35.7693C32.1814 35.8305 31.2236 35.8974 30.2608 35.951C29.9802 35.9662 29.835 36.0312 29.7189 36.1116C29.627 36.1766 29.5206 36.1995 29.3416 36.211C27.5854 36.3219 25.8245 36.4328 24.0732 36.5551C23.7781 36.5762 23.6281 36.5093 23.4346 36.4615C23.1588 36.3945 22.9025 36.3219 22.9025 36.1727C22.9025 36.1498 22.8202 36.123 22.7621 36.1039C22.3316 35.9605 22.3316 35.9605 22.2638 35.8075C22.2251 35.7139 22.1816 35.6183 22.1477 35.5226C22.0848 35.3659 21.93 35.3257 21.4849 35.3544C21.3252 35.3639 21.1656 35.3773 21.0059 35.385C20.7689 35.3983 20.5899 35.3352 20.5464 35.2205C20.5222 35.1574 20.4932 35.0943 20.469 35.0312C20.7109 35.0159 20.706 35.014 21.1317 34.7827C21.3107 34.6852 21.3108 34.6852 20.9673 34.5876C20.8367 34.5513 20.7109 34.5111 20.5706 34.4767C20.5077 34.4614 20.4255 34.4519 20.3577 34.4557C19.9562 34.4786 19.5595 34.5054 19.1628 34.5322C18.5242 34.5742 18.5241 34.5742 17.8759 34.3792C17.8226 34.3639 17.7404 34.3352 17.7501 34.3199C17.8033 34.2492 17.9339 34.2186 18.0984 34.2109C18.3403 34.1995 18.5773 34.1804 18.8144 34.1651C18.974 34.1555 19.1337 34.144 19.2933 34.1345C19.4433 34.0618 19.5982 33.9911 19.7385 33.9165C19.961 33.8018 19.9609 33.7979 19.6562 33.7176C19.4626 33.6641 19.2546 33.6163 19.0563 33.5666C18.8192 33.5819 18.5773 33.5991 18.3403 33.6125C18.0403 33.6297 17.9194 33.5933 17.842 33.4691C17.7742 33.3601 17.8565 33.2664 18.0887 33.2434C18.3258 33.2205 18.5484 33.2052 18.6693 33.1077C18.7854 33.014 18.9886 32.9777 19.2402 32.97C19.3998 32.9643 19.5595 32.9509 19.7191 32.9394C19.9271 32.9241 20.0384 32.8266 19.9949 32.7176C19.9707 32.6469 19.9223 32.5876 19.7336 32.5723C18.8967 32.5054 18.887 32.5073 18.4709 32.3773C18.4322 32.3658 18.4032 32.3314 18.4178 32.3142C18.4419 32.2855 18.4952 32.2434 18.5532 32.2377C19.1096 32.1956 19.6659 32.1574 20.2223 32.1287C20.4061 32.1192 20.5416 32.1057 20.6045 32.035C20.6916 31.9375 20.6529 31.8476 20.4835 31.7807C20.4303 31.7597 20.3432 31.7329 20.2851 31.7348C19.6465 31.7692 19.0128 31.8132 18.3742 31.8476C18.3161 31.8514 18.2097 31.819 18.1855 31.7941C18.1372 31.7482 18.2097 31.687 18.379 31.666C18.6016 31.6373 18.8289 31.6354 18.9789 31.5398C19.1869 31.404 19.4433 31.2798 19.6755 31.1497C19.7142 31.1268 19.7772 31.0828 19.7627 31.079C19.6417 31.0369 19.5014 31.0044 19.3756 30.9642C19.1628 30.8973 19.1627 30.8036 19.2111 30.7138C19.2498 30.6411 19.395 30.6124 19.574 30.6124C19.6514 30.6124 19.7481 30.6124 19.811 30.5952C19.9755 30.5532 20.0287 30.4996 19.9465 30.4594C19.8981 30.4365 19.8111 30.404 19.753 30.4078C18.7177 30.4709 17.6775 30.5321 16.647 30.6105C16.3422 30.6335 16.202 30.5608 16.0182 30.5092C15.8779 30.469 15.7472 30.4537 15.573 30.4824C15.4085 30.5092 15.249 30.4939 15.1474 30.4308C15.0651 30.3792 15.2102 30.3352 15.6021 30.2855C15.6747 30.2759 15.7569 30.2702 15.8101 30.251C16.3713 30.0445 16.3713 30.0426 16.7583 30.0159C17.1356 29.991 17.1357 29.9891 17.3341 29.8782C17.426 29.8266 17.5275 29.7749 17.6146 29.7214C17.6485 29.7004 17.7066 29.6621 17.6872 29.6506C17.5808 29.5914 17.4356 29.578 17.2663 29.5914C16.8889 29.6239 16.4439 29.5971 16.2456 29.7788C16.1682 29.8476 16.0472 29.8667 15.873 29.8782C14.1217 29.9891 12.3704 30.1076 10.6142 30.2147C10.3288 30.2319 10.1983 30.3027 10.087 30.3811C9.99022 30.4461 9.88377 30.4652 9.69993 30.4767C9.51609 30.4881 9.37088 30.4939 9.26445 30.4308C9.20156 30.3925 9.25479 30.339 9.39992 30.2855C9.60795 30.209 9.56923 30.1134 9.5015 30.0235C9.45312 29.9642 9.30315 29.9222 9.1435 29.926C8.90645 29.9336 8.67913 29.9547 8.48078 29.8782C8.36467 29.8342 8.21951 29.8036 8.08888 29.7654C7.83732 29.687 7.58574 29.6067 7.23257 29.6583C6.99068 29.6392 6.82136 29.5703 6.62784 29.5168C6.3037 29.4289 6.27468 29.4155 6.50689 29.3218C6.76814 29.2166 6.56491 29.0789 6.71005 28.9757C6.86486 28.8648 7.0778 28.7673 7.26647 28.664C7.31485 28.6373 7.35841 28.6124 7.40679 28.5856C7.29552 28.5474 7.19394 28.4996 7.06332 28.4728C6.89399 28.4384 6.80691 28.3963 6.81658 28.2778C6.78272 28.2606 6.79713 28.3045 6.83584 28.316C6.87938 28.3275 6.98589 28.3179 7.03911 28.3046C7.17457 28.2682 7.24223 28.2204 7.20836 28.1803C7.18901 28.1592 7.09716 28.1325 7.03911 28.1325C6.93267 28.1325 6.84077 28.1745 6.81174 28.2778C6.2699 28.3562 5.70862 28.3944 5.14743 28.425C5.08937 28.4288 5.01685 28.3906 4.94912 28.3715C4.72658 28.3065 4.72655 28.3084 4.07344 28.2892C4.00571 28.2873 3.91384 28.2606 3.87997 28.2338C3.73967 28.1172 3.74455 27.9891 3.67682 27.8648C3.8026 27.7845 3.92829 27.7061 4.05891 27.6277C4.32015 27.469 4.65888 27.3294 4.86207 27.1554C4.81853 27.0617 4.76047 26.968 4.97333 26.8915C5.57806 26.7959 5.57326 26.7959 5.73775 26.7042C6.20702 26.4441 6.67143 26.1821 7.16005 25.9259C7.29067 25.859 7.29069 25.8227 7.05848 25.794C6.98591 25.7864 6.9084 25.7844 6.83099 25.7883C6.5891 25.8016 6.34721 25.8361 6.11016 25.8284C5.8731 25.8227 5.69894 25.7385 5.50542 25.6869C5.30707 25.6334 5.10873 25.5779 4.91038 25.5225C4.683 25.5282 4.45566 25.5818 4.22828 25.4957C4.05412 25.4288 3.83643 25.381 3.63808 25.3255C3.78805 25.1802 4.06869 25.0693 4.28639 24.9412C4.48475 24.8246 4.48948 24.8265 5.02164 24.7366C5.27321 24.6946 5.36029 24.4785 5.14743 24.4154C4.89102 24.3389 4.62016 24.2681 4.35891 24.1955C4.13154 24.2012 3.89937 24.2529 3.68166 24.1668C3.51234 24.1018 3.31878 24.0578 3.03819 24.0827C2.56408 24.1247 2.08031 24.1458 1.60136 24.1802C1.43687 24.1917 1.25782 24.184 1.18525 24.119C1.13687 24.0731 1.27718 24.01 1.43683 23.9966C1.67872 23.9775 1.8964 23.9546 2.01735 23.859C2.13346 23.7634 2.3463 23.7347 2.59787 23.7213C2.6656 23.7175 2.74306 23.6945 2.77693 23.6716C2.95109 23.5607 3.14462 23.4651 3.51713 23.4689C3.67194 23.4307 3.75413 23.3829 3.70576 23.337C3.67673 23.3121 3.57519 23.2796 3.51713 23.2834C3.11559 23.3026 2.71406 23.3217 2.3222 23.3561C2.13836 23.3714 1.99798 23.3752 1.88187 23.3178C1.79963 23.2796 1.84317 23.228 1.99798 23.1725C2.13344 23.1247 2.17218 23.0693 2.16251 23.0043C2.13832 22.8532 1.99315 22.8092 1.52872 22.8188C1.19491 22.8264 1.11266 22.8016 1.04009 22.6716C1.02074 22.641 0.972447 22.5989 1.00631 22.5779C1.21434 22.4479 1.34981 22.2872 1.74168 22.2261C1.89649 22.2031 2.06091 22.2031 2.15767 22.1534C2.25442 22.1037 2.34155 22.0463 2.44314 21.9985C2.56893 21.9411 2.65592 21.8876 2.59787 21.8513C2.50111 21.7863 2.34635 21.7806 2.16735 21.8035C2.01254 21.8226 1.84806 21.8245 1.68841 21.836C1.40297 21.857 1.17081 21.8073 1.13694 21.7232C1.04502 21.5014 0.948239 21.2815 0.865995 21.0597C0.85632 21.0329 0.880443 20.9985 0.919146 20.9756C1.05461 20.8952 1.1998 20.8188 1.3401 20.7404C1.50458 20.6505 1.76587 20.6677 1.98841 20.6505C2.30287 20.6257 2.30276 20.6276 2.72366 20.444C2.88814 20.3713 3.17359 20.4 3.34292 20.335C3.39613 20.314 3.47838 20.2796 3.46386 20.2604C3.44451 20.2356 3.34781 20.2165 3.27524 20.205C3.20751 20.1935 3.12528 20.1878 3.05272 20.1935C2.17223 20.249 1.2966 20.3082 0.416108 20.3618C0.266134 20.3713 0.101642 20.3293 0.0484258 20.27C-0.00479061 20.2146 0.00967572 20.1476 0 20.0845C0.140298 20.0061 0.299886 19.9335 0.420832 19.8493C0.512751 19.7843 0.619203 19.7556 0.803042 19.7518C1.04493 19.7461 1.28201 19.7231 1.55293 19.7059C2.05607 19.4268 2.5495 19.1342 3.09134 18.8551C3.30904 18.7423 3.25591 18.6275 3.29945 18.5071C3.34299 18.3962 3.66711 18.4134 3.88481 18.3809C4.05898 18.3541 4.11696 18.2929 4.04923 18.2508C4.01052 18.226 3.92349 18.1973 3.85576 18.1973C3.69611 18.1973 3.53646 18.2145 3.37682 18.2241C3.21717 18.2336 3.03334 18.2279 2.90271 18.2604C2.77693 18.291 2.69464 18.356 2.6124 18.4115C2.52048 18.4726 2.39962 18.4937 2.21578 18.4975C1.97872 18.5013 1.74168 18.5185 1.50463 18.5319C1.24338 18.4573 0.972405 18.3847 0.720836 18.3063C0.672457 18.291 0.66273 18.247 0.667568 18.2184C0.677243 18.1438 0.604694 18.0979 0.445045 18.0616C0.309585 18.031 0.198305 17.987 0.0725206 17.9487C0.169278 17.8971 0.275748 17.8474 0.353154 17.7919C0.522479 17.6753 0.735368 17.5912 1.10305 17.595C1.24818 17.5204 1.36426 17.4287 1.55293 17.377C1.73193 17.3273 2.03673 17.377 2.17219 17.2642C2.23992 17.2088 2.34157 17.1457 2.4722 17.1227C2.68023 17.0864 2.95114 17.1055 3.07209 16.9985C3.14465 16.9373 3.25104 16.8818 3.39134 16.8665C3.55099 16.8493 3.71544 16.8455 3.83155 16.8092C3.89444 16.79 3.96218 16.7594 3.96218 16.7327C3.96218 16.7155 3.8655 16.6887 3.79777 16.6772C3.73487 16.6638 3.65254 16.6543 3.57997 16.6581C3.33807 16.6696 3.10102 16.6906 2.85913 16.7021C2.7914 16.7059 2.71402 16.6925 2.64145 16.681C2.42859 16.6504 2.44307 16.6122 2.6124 16.5434C2.78172 16.4765 2.90273 16.3904 3.04303 16.312C3.19784 16.2986 3.39133 16.3044 3.49776 16.268C3.67676 16.2087 3.80251 16.1227 3.94765 16.0481C4.1073 16.0367 4.27178 16.0328 4.42175 16.0118C4.48464 16.0042 4.51369 15.9621 4.56691 15.9372C4.66367 15.8894 4.74598 15.8206 4.8766 15.7977C5.08946 15.7632 5.3507 15.7766 5.47649 15.6715C5.54906 15.6103 5.66028 15.5453 5.79574 15.5414C6.1731 15.5338 6.33275 15.4286 6.52627 15.3292C6.6714 15.2546 6.98103 15.2929 7.14068 15.2183C7.24712 15.1705 7.32457 15.1112 7.431 15.0653C7.47454 15.0462 7.56643 15.0367 7.639 15.0309C8.0357 15.0022 8.43723 14.9812 8.83393 14.9506C8.89682 14.9449 8.95493 14.9162 9.0033 14.8933C9.1049 14.8435 9.16772 14.7747 9.29351 14.7422C9.41929 14.7097 9.59827 14.7097 9.75308 14.7001C10.2514 14.6714 10.2901 14.6791 10.5175 14.5166C10.7013 14.3846 11.1513 14.4783 11.3013 14.333C11.3884 14.2489 11.5479 14.18 11.8334 14.1705C12.2349 14.1571 12.6316 14.1208 13.0332 14.0959C13.3912 14.073 13.3863 14.073 13.7734 13.8951C13.9475 13.8148 14.204 13.8263 14.4314 13.811C14.6733 13.7957 14.8958 13.7728 15.0119 13.6772C15.128 13.5835 15.3408 13.5529 15.5876 13.5395C15.8149 13.5261 16.0714 13.5357 16.2504 13.4592C16.6858 13.2756 16.681 13.2737 16.9858 13.2546C17.4647 13.224 17.9437 13.1934 18.4226 13.1609C18.7419 13.1399 19.0757 13.136 19.3756 13.094C19.5933 13.0634 19.6901 12.9563 19.8304 12.8817C20.2271 12.8531 20.6238 12.8244 21.0205 12.7976C21.5768 12.7594 22.138 12.725 22.6992 12.6886C22.9411 12.616 22.975 12.4553 23.3814 12.4477C23.6233 12.4439 23.8603 12.419 24.1022 12.4037C24.5038 12.377 24.9005 12.3425 25.302 12.3292C25.6068 12.3196 25.6599 12.2163 25.8196 12.1513C25.8728 12.1284 25.9212 12.0959 25.9841 12.0901C26.613 12.0366 27.2613 12.0251 27.8757 11.9467C27.9386 11.9391 27.9966 11.8989 28.0111 11.8702C28.0208 11.855 27.9386 11.8263 27.8854 11.8129C27.8225 11.7976 27.7403 11.7823 27.6725 11.7861C25.6745 11.9142 23.6765 12.0443 21.6785 12.1724C21.3979 12.1915 21.3979 12.1896 20.7157 12.3999C20.6577 12.4171 20.5899 12.4362 20.5173 12.442C20.198 12.4649 19.8739 12.4783 19.5594 12.507C19.303 12.5299 19.0902 12.507 18.9064 12.4381C18.7758 12.3884 18.6402 12.3731 18.4757 12.377C18.2919 12.3827 18.171 12.4037 18.0646 12.4554C17.9243 12.5261 17.8517 12.6179 17.5566 12.637C16.1972 12.7192 14.8376 12.811 13.483 12.8989C13.2944 12.8722 13.2025 12.832 13.2508 12.7842C13.2799 12.7555 13.3379 12.7173 13.396 12.7135C13.9524 12.6733 14.5135 12.6389 15.0699 12.6007C15.1473 12.5949 15.2537 12.5987 15.2972 12.5796C15.5101 12.4936 15.5876 12.354 15.9891 12.3444C16.2214 12.3387 16.4584 12.31 16.6809 12.2833C16.7438 12.2756 16.8019 12.2355 16.8164 12.2068C16.8212 12.1915 16.7438 12.1628 16.6858 12.1494C16.4729 12.094 16.2262 12.1609 16.0134 12.1227C15.9408 12.1093 15.8391 12.0901 15.8246 12.0672C15.8149 12.0462 15.8972 12.0117 15.9552 11.9907C16.0085 11.9716 16.081 11.9544 16.1536 11.9487C16.7922 11.9047 17.4308 11.8588 18.0694 11.8244C18.3307 11.811 18.5145 11.7632 18.6306 11.6752C18.7177 11.6102 18.8241 11.5758 18.9886 11.5662C20.1061 11.4955 21.2237 11.4171 22.346 11.3521C22.6266 11.3368 22.7718 11.2737 22.8879 11.1915C22.9799 11.1265 23.0863 11.1035 23.2653 11.092C24.8666 10.9926 26.4582 10.8817 28.0596 10.7861C28.3547 10.7689 28.4418 10.6867 28.5918 10.6159C28.645 10.5911 28.6788 10.5605 28.7465 10.5452C28.8142 10.5299 28.9013 10.5318 28.9836 10.528C30.2608 10.4457 31.538 10.3578 32.8201 10.2813C33.12 10.2641 33.178 10.1685 33.3328 10.1016C33.386 10.0805 33.4344 10.0461 33.4973 10.0404C34.4552 9.97539 35.4131 9.91421 36.371 9.85111C37.0096 9.80904 37.6482 9.76697 38.2868 9.72682C38.6012 9.7077 38.6012 9.70578 39.027 9.52413C39.0753 9.5031 39.1431 9.47823 39.206 9.4725C41.0444 9.35013 42.8779 9.23351 44.7163 9.11305C44.8711 9.10349 44.9823 9.05949 45.0598 8.99448C45.1372 8.92947 45.2485 8.88549 45.3985 8.87593C46.8353 8.78033 48.2721 8.68664 49.7138 8.59678C49.9751 8.58148 50.1589 8.53559 50.275 8.44954C50.3621 8.38453 50.4685 8.35012 50.633 8.34056C52.0698 8.24879 53.5067 8.15125 54.9484 8.0633C55.2242 8.04609 55.3596 7.98109 55.495 7.90461C55.5434 7.87784 55.5821 7.83386 55.6402 7.83003C56.3562 7.77649 57.0673 7.72104 57.7882 7.68471C58.0881 7.66941 58.1898 7.5891 58.3107 7.51262C58.4075 7.45143 58.5188 7.43041 58.7026 7.42276C59.1041 7.40555 59.5008 7.37306 59.8927 7.34055C59.9508 7.33482 60.0233 7.29275 60.0282 7.26598C60.0378 7.21626 59.9265 7.18184 59.7427 7.16463C57.8269 7.28892 55.9063 7.41319 53.9905 7.53748C53.6761 7.55851 53.6761 7.55852 53.2503 7.74017C53.202 7.7612 53.1342 7.78606 53.0664 7.7918C51.228 7.91226 49.3946 8.03081 47.5562 8.15127C47.4014 8.16083 47.2901 8.20481 47.2127 8.26982C47.1353 8.33483 47.0239 8.37881 46.874 8.38837C45.1178 8.50309 43.3617 8.61973 41.6007 8.72872C41.3395 8.74402 41.1557 8.78798 41.0396 8.87593C40.9525 8.94094 40.8461 8.97537 40.6816 8.98493C39.0028 9.09201 37.3289 9.20481 35.6453 9.30806C35.476 9.31762 35.3503 9.26217 35.3599 9.21054C35.3648 9.18378 35.4372 9.13982 35.4953 9.13599C36.371 9.0729 37.2419 9.00788 38.1223 8.96008C38.4174 8.94478 38.5045 8.86064 38.6544 8.7899C38.7028 8.76504 38.7415 8.73254 38.8044 8.71915C38.8722 8.70385 38.9592 8.70577 39.0415 8.70195C41.1169 8.56619 43.1924 8.42853 45.2727 8.30042C45.5727 8.2813 45.6306 8.18759 45.7854 8.12067C45.8386 8.09773 45.8871 8.06332 45.95 8.05949C46.5886 8.01361 47.2271 7.97344 47.8657 7.93329C48.9833 7.86063 50.1008 7.78797 51.2232 7.71531C51.5473 7.69428 51.5473 7.69427 51.9634 7.51453C52.0118 7.4935 52.0796 7.46675 52.1424 7.46293C55.0984 7.26981 58.0543 7.07668 61.0103 6.88548C61.1651 6.87592 61.2763 6.83194 61.3537 6.76693C61.4311 6.70383 61.5424 6.65794 61.6924 6.64647C65.6884 6.38643 69.6797 6.12637 73.6758 5.87015C73.937 5.85294 74.1208 5.81279 74.2369 5.72292C74.3191 5.65791 74.4304 5.6235 74.5949 5.61203C78.9877 5.32713 83.3804 5.04223 87.7781 4.75542C90.734 4.56421 93.69 4.36918 96.6459 4.1818C96.9168 4.16459 97.0619 4.1053 97.1973 4.02691C97.2409 4.00014 97.2845 3.95616 97.3425 3.95234C97.9763 3.90453 98.61 3.86056 99.2438 3.81659C99.4421 3.86821 99.6404 3.91793 99.8388 3.96956C99.9888 3.8969 100.134 3.82233 100.284 3.74967C101.242 3.69422 102.185 3.60817 103.153 3.5814C103.216 3.57949 103.283 3.61583 103.351 3.63495C103.801 3.75541 104.057 3.74585 104.343 3.58523C104.444 3.52787 104.532 3.47624 104.686 3.46668C105.165 3.43227 105.649 3.40932 106.123 3.36917C106.38 3.34813 106.592 3.36725 106.776 3.43608C106.907 3.4858 107.042 3.50684 107.202 3.49537C108.083 3.43801 108.958 3.38255 109.839 3.32136C109.902 3.31754 109.96 3.28502 110.008 3.26208C110.11 3.21236 110.197 3.15884 110.293 3.10721C110.424 3.13972 110.569 3.16458 110.676 3.20664C110.811 3.25636 110.937 3.25635 111.121 3.24296C114.633 3.0116 118.15 2.78598 121.662 2.55271C121.962 2.53358 122.093 2.6139 122.296 2.65597C122.364 2.67126 122.432 2.69037 122.504 2.6942C122.582 2.69802 122.664 2.68656 122.741 2.68082C125.378 2.50874 128.015 2.33855 130.651 2.16646C131 2.14352 131 2.14352 131.517 2.26207C131.58 2.27736 131.662 2.29457 131.73 2.28884C132.93 2.21427 134.13 2.13397 135.325 2.05748C135.479 2.04792 135.61 2.07851 135.75 2.12249C136.026 2.20853 136.045 2.20854 136.249 2.08234C136.345 2.02307 136.447 1.98672 136.607 1.96951C136.781 1.95039 136.921 1.95615 137.057 1.99057C137.25 2.03837 137.39 2.11866 137.685 2.09763C138.963 2.00776 140.245 1.9332 141.517 1.84142C141.807 1.82039 141.962 1.88539 142.156 1.93319C142.223 1.9504 142.286 1.97717 142.359 1.98291C142.431 1.98865 142.518 1.97525 142.596 1.96951C144.192 1.86626 145.794 1.76494 147.385 1.65404C147.685 1.63301 147.816 1.71521 148.019 1.75728C148.087 1.77257 148.164 1.79935 148.227 1.79553C149.185 1.73626 150.148 1.67314 151.106 1.61004C151.449 1.5871 151.449 1.58901 151.972 1.70565C152.034 1.72094 152.117 1.73624 152.185 1.73242C153.302 1.66167 154.424 1.58901 155.542 1.51635C155.885 1.49341 155.885 1.49341 156.877 1.59284C156.95 1.60049 157.027 1.61198 157.1 1.60815C158.377 1.52593 159.659 1.44561 160.936 1.35766C161.193 1.34045 161.405 1.35574 161.589 1.42458C161.72 1.47429 161.855 1.49533 162.015 1.48386C163.452 1.39017 164.894 1.30031 166.326 1.20088C166.601 1.18176 166.78 1.22381 166.974 1.27926C167.037 1.29838 167.1 1.32515 167.172 1.3328C167.245 1.34045 167.327 1.33279 167.404 1.32706C168.841 1.23337 170.283 1.14541 171.715 1.04407C172.005 1.02304 172.16 1.08805 172.354 1.13585C172.421 1.15306 172.494 1.18748 172.552 1.18557C173.113 1.15306 173.674 1.12439 174.231 1.07659C174.53 1.04982 174.661 1.13776 174.864 1.17982C174.932 1.19321 175.009 1.2219 175.072 1.21808C176.272 1.14351 177.472 1.06512 178.667 0.984812C178.836 0.97334 178.962 0.990533 179.097 1.04025C179.276 1.10717 179.485 1.13394 179.746 1.11291C180.302 1.06893 180.863 1.03834 181.424 1.00201C181.753 0.980982 181.753 0.980988 182.76 1.08042C182.832 1.08806 182.91 1.09953 182.982 1.0957C183.94 1.03452 184.903 0.975247 185.856 0.908325C186.112 0.889204 186.325 0.906408 186.509 0.975242C186.64 1.02496 186.77 1.046 186.935 1.03453C187.815 0.977166 188.691 0.919799 189.571 0.862437C189.891 0.841404 190.21 0.805065 190.529 0.805065C190.762 0.806977 190.931 0.898753 191.139 0.944643C191.197 0.958027 191.294 0.942748 191.371 0.938924C192.489 0.866265 193.611 0.799336 194.724 0.717117C195.014 0.696084 195.169 0.761091 195.362 0.808893C195.43 0.826101 195.503 0.860521 195.561 0.858609C195.962 0.837576 196.359 0.808892 196.76 0.784035C197.239 0.753442 197.723 0.730497 198.197 0.688431C198.584 0.654014 198.729 0.820359 199.039 0.826095C199.276 0.831831 199.518 0.799331 199.755 0.784035C200.234 0.753442 200.713 0.719028 201.192 0.692259C201.361 0.682699 201.492 0.652092 201.545 0.583257C201.555 0.569873 201.473 0.541204 201.419 0.523995C200.776 0.328963 200.776 0.328954 200.128 0.37102C199.726 0.397789 199.329 0.424563 198.928 0.447508C198.86 0.451332 198.783 0.436036 198.715 0.424564C198.521 0.392058 198.541 0.35382 198.705 0.284986C198.87 0.216151 198.996 0.132027 199.136 0.053632C199.334 0.103346 199.528 0.153042 199.726 0.202756C199.886 0.193196 200.045 0.18174 200.205 0.17218C201.003 0.122466 201.802 0.070836 202.6 0.0249461C202.658 0.021122 202.73 0.0593691 202.798 0.0784899C202.992 0.13394 203.166 0.181729 203.446 0.160696C204.162 0.105246 204.883 0.0650923 205.599 0.0172904C205.914 -0.00374247 205.914 -0.0037406 206.465 0.114808C206.528 0.128193 206.61 0.14349 206.678 0.139666C207.399 0.0956883 208.115 0.047892 208.836 0.00200216C208.991 -0.00755822 209.141 0.0172978 209.252 0.0727481C209.295 0.095693 209.286 0.133927 209.47 0.447508C210.04 0.701814 210.432 0.675058 210.829 0.652113C210.998 0.642552 211.148 0.632983 211.26 0.594741C211.318 0.573708 211.39 0.54311 211.39 0.518253C211.39 0.499133 211.284 0.468534 211.216 0.46471C210.737 0.426468 210.282 0.506787 209.813 0.523995C209.595 0.531644 209.407 0.46472 209.368 0.355732C209.358 0.325138 209.344 0.292635 209.329 0.262042C209.315 0.231449 209.305 0.198945 209.291 0.168352C209.102 0.158791 208.991 0.193203 208.908 0.258214C208.841 0.311752 208.744 0.372938 208.613 0.40162C208.483 0.432213 208.304 0.426487 208.144 0.436047C207.989 0.445608 207.82 0.470462 207.675 0.457077C207.53 0.441781 207.413 0.386321 207.278 0.351904C207.215 0.334695 207.138 0.309847 207.075 0.313672C206.518 0.346177 205.967 0.37867 205.415 0.420736C205.125 0.443681 204.98 0.363385 204.796 0.313672C204.651 0.27543 204.506 0.284978 204.482 0.372934C204.419 0.583262 204.641 0.671213 205.135 0.631059C205.541 0.596642 205.909 0.590924 206.228 0.720945C206.272 0.738153 206.373 0.745799 206.436 0.741975C206.833 0.71903 207.225 0.690346 207.621 0.667401C207.694 0.663577 207.772 0.671213 207.839 0.678861C208.826 0.782113 208.826 0.784036 209.16 0.761091C209.32 0.749618 209.474 0.740057 209.46 0.449421C209.765 0.137753 210.248 0.116724 210.718 0.0708341C211.023 0.042153 211.153 0.126288 211.351 0.170266C211.419 0.185562 211.492 0.21615 211.555 0.212326C212.595 0.149227 213.63 0.0822954 214.665 0.0115485C214.84 7.60812e-05 214.965 0.0115504 215.101 0.0612644C215.275 0.124363 215.468 0.164525 215.744 0.14158C216.296 0.0956902 216.857 0.0670156 217.418 0.028774C217.704 0.00965327 217.704 0.00963367 218.279 0.128182C218.342 0.141567 218.424 0.156864 218.492 0.15304C219.053 0.120535 219.61 0.0803936 220.166 0.0459762C220.321 0.0364158 220.461 0.0631821 220.582 0.114808C220.703 0.166434 220.848 0.1932 220.998 0.18364C221.559 0.149223 222.116 0.110993 222.672 0.0765759C222.74 0.0727518 222.822 0.0861354 222.885 0.0995199C223.475 0.218069 223.475 0.218049 223.746 0.198928C224.143 0.170247 224.549 0.156878 224.941 0.118636C225.323 0.0803945 225.522 0.191286 225.783 0.252472C226.499 0.208494 227.22 0.172174 227.931 0.118636C228.221 0.0956911 228.376 0.158784 228.569 0.208498C228.637 0.225707 228.705 0.26204 228.768 0.260128C229.01 0.252479 229.247 0.23145 229.484 0.216154C229.721 0.200857 229.963 0.185562 230.2 0.170266C230.471 0.225716 230.65 0.355735 231.037 0.311758C231.269 0.284989 231.516 0.279252 231.753 0.263956C231.99 0.248659 232.232 0.233364 232.469 0.218068C232.628 0.208507 232.793 0.202763 232.948 0.185554C233.233 0.156873 233.373 0.250576 233.577 0.292641C233.644 0.306026 233.722 0.328956 233.785 0.325132C234.264 0.298363 234.747 0.27542 235.217 0.231442C235.579 0.197025 235.826 0.254394 236.083 0.334702C236.136 0.35191 236.228 0.36147 236.295 0.357646C236.857 0.32514 237.413 0.284975 237.969 0.250558C238.119 0.240998 238.264 0.27159 238.385 0.321304C238.511 0.37293 238.651 0.397806 238.806 0.388245C239.363 0.353828 239.924 0.315575 240.48 0.281158C240.548 0.277334 240.63 0.292633 240.693 0.30793C241.235 0.426478 241.235 0.428392 241.554 0.405447C241.632 0.399711 241.714 0.395872 241.791 0.390136C242.188 0.363367 242.599 0.35382 242.986 0.30793C243.431 0.256304 243.755 0.321317 244.07 0.430305C244.467 0.40736 244.873 0.393973 245.26 0.355732C245.55 0.32705 245.705 0.399706 245.899 0.447508C245.966 0.464716 246.039 0.499134 246.097 0.495309C246.658 0.462804 247.219 0.434133 247.771 0.386331C248.071 0.359562 248.201 0.44559 248.405 0.489568C248.472 0.504864 248.545 0.531647 248.608 0.527823C248.927 0.512527 249.246 0.48957 249.566 0.468538C249.938 0.443681 249.938 0.445591 250.432 0.562227C250.664 0.617678 250.896 0.573698 251.124 0.560314C251.365 0.545017 251.593 0.533548 251.786 0.611943C251.907 0.661657 252.052 0.692251 252.202 0.684603C252.522 0.667394 252.846 0.650194 253.16 0.621513C253.412 0.598568 253.629 0.613856 253.813 0.684603C253.944 0.734317 254.079 0.759189 254.239 0.747717C254.955 0.701827 255.676 0.654007 256.392 0.610029C256.455 0.606205 256.542 0.62342 256.6 0.640629C256.735 0.675047 256.866 0.71328 256.997 0.751521C257.311 0.734312 257.635 0.726684 257.945 0.699915C258.274 0.673146 258.574 0.663583 258.83 0.768747C258.883 0.791692 258.961 0.824179 259.024 0.822267C259.266 0.814619 259.503 0.795504 259.74 0.780207C259.977 0.76491 260.219 0.749616 260.456 0.734319C260.731 0.782121 260.906 0.919789 261.293 0.875811C261.525 0.849042 261.772 0.843306 262.009 0.828009C262.246 0.812712 262.488 0.795505 262.725 0.782121C262.802 0.778297 262.889 0.768731 262.957 0.776379C263.029 0.784027 263.092 0.810802 263.155 0.829923C263.349 0.885373 263.528 0.94083 263.804 0.908325C264.036 0.881555 264.283 0.875817 264.52 0.858609C264.844 0.837576 264.844 0.83758 265.381 0.95804C265.598 1.00775 265.845 0.942747 266.053 0.984812C266.193 1.01349 266.314 1.06129 266.45 1.09379C266.508 1.10717 266.6 1.1129 266.668 1.10908C266.987 1.09187 267.311 1.07467 267.625 1.04599C267.882 1.02304 268.095 1.04599 268.274 1.11482C268.404 1.16453 268.535 1.18558 268.699 1.17411C269.498 1.12057 270.296 1.07466 271.089 1.01539C271.36 0.994356 271.578 1.02687 271.728 1.0957C271.984 1.21425 272.347 1.07467 272.613 1.17028C272.778 1.22955 272.942 1.29839 273.242 1.26971C273.794 1.22 274.355 1.19321 274.911 1.15879C275.11 1.21042 275.308 1.26206 275.511 1.31368C275.83 1.29265 276.15 1.27161 276.469 1.25248C276.706 1.23719 276.948 1.21998 277.185 1.2066C277.262 1.20277 277.345 1.19512 277.417 1.20468C277.49 1.21424 277.548 1.23911 277.616 1.25823C277.949 1.35192 277.949 1.35384 278.501 1.3156C278.738 1.29839 278.965 1.28692 279.164 1.3634C279.348 1.43415 279.565 1.44752 279.817 1.42649C280.291 1.38825 280.77 1.35957 281.254 1.3328C281.404 1.32324 281.544 1.35575 281.67 1.40546C281.858 1.48385 282.091 1.47621 282.328 1.45518C282.642 1.42841 282.952 1.40164 283.218 1.50872C283.271 1.53166 283.353 1.56415 283.411 1.56224C283.808 1.54694 284.21 1.53548 284.597 1.49915C284.984 1.46282 285.172 1.58137 285.438 1.63873C285.835 1.61387 286.237 1.58901 286.633 1.56415C286.711 1.55842 286.803 1.54122 286.87 1.55078C287.156 1.59093 287.32 1.73433 287.712 1.69036C287.94 1.6655 288.186 1.65786 288.423 1.65213C288.486 1.65021 288.569 1.6827 288.612 1.70756C288.636 1.72094 288.612 1.75727 288.583 1.77639C288.496 1.82993 288.389 1.87966 288.312 1.93511C288.302 1.94276 288.394 1.97716 288.448 1.99246C288.578 2.02687 288.728 2.02115 288.902 2.00585C289.052 1.99247 289.207 2.01924 289.314 2.0766C289.357 2.09955 289.343 2.13778 289.251 2.26398C289.251 2.35767 289.352 2.3156 289.386 2.25441C289.439 2.16645 289.338 2.13778 289.144 2.18558C289.009 2.22 288.941 2.26971 288.975 2.30987C288.994 2.3309 289.086 2.35767 289.251 2.26398C289.676 2.14926 289.996 2.12823 290.315 2.1072C290.397 2.10146 290.494 2.08233 290.552 2.0938C290.76 2.13969 290.954 2.19515 291.157 2.24678C291.389 2.23531 291.607 2.20661 291.834 2.28118C292.153 2.38635 292.168 2.37679 292.478 2.35576C292.637 2.34428 292.797 2.33474 292.956 2.32518C293.116 2.31562 293.242 2.34429 293.382 2.38827C293.668 2.47814 293.692 2.47813 293.88 2.35576C293.992 2.28119 294.069 2.25633 294.209 2.29075C294.674 2.40739 294.679 2.41503 295.075 2.38061C295.404 2.35193 295.714 2.34429 295.956 2.45327C296.12 2.52976 296.174 2.51255 296.304 2.43224C296.653 2.22 296.812 2.22382 297.465 2.37679C297.77 2.44945 298.085 2.37106 298.394 2.3615C298.655 2.35385 298.839 2.39973 298.859 2.52019C298.873 2.59476 298.917 2.64831 299.091 2.67317C299.159 2.68273 299.241 2.69611 299.309 2.69228C299.71 2.66934 300.107 2.64256 300.508 2.6158C300.712 2.60241 300.823 2.51256 300.784 2.39401C300.741 2.26781 300.818 2.22191 301.108 2.18558C301.282 2.16455 301.423 2.16839 301.563 2.2028C301.718 2.24105 301.674 2.27546 301.539 2.3443C301.215 2.51256 301.253 2.61579 301.669 2.73243C301.815 2.77258 301.931 2.80893 301.965 2.8682C301.984 2.8988 301.965 2.93895 302.008 2.96189C302.245 3.09 302.574 3.17223 302.942 3.23342C303.295 3.18179 303.537 3.26782 303.808 3.33665C304.021 3.39019 304.272 3.34431 304.5 3.32519C304.756 3.30416 304.969 3.31945 305.153 3.3902C305.283 3.43991 305.419 3.46285 305.578 3.45329C305.898 3.43225 306.222 3.41888 306.536 3.38828C306.807 3.36151 307.01 3.39976 307.18 3.46477C307.393 3.54699 307.63 3.49153 307.852 3.503C308.152 3.51639 308.302 3.68656 308.694 3.64067C308.926 3.6139 309.168 3.60434 309.41 3.59669C309.473 3.59478 309.55 3.62729 309.604 3.65024C309.86 3.7554 310.16 3.74966 310.489 3.71907C310.716 3.69803 310.939 3.67892 311.161 3.75158C311.529 3.87395 311.935 3.98104 312.322 4.09385C312.376 4.18181 312.337 4.28504 312.613 4.33666C312.758 4.36343 312.893 4.4036 313.005 4.44758C313.14 4.49921 313.266 4.51259 313.44 4.49921C313.754 4.47244 314.083 4.46669 314.393 4.43227C314.678 4.40167 314.857 4.46479 315.032 4.52407C315.172 4.57187 315.303 4.5948 315.472 4.56039C315.646 4.52788 315.772 4.54891 315.912 4.60053C316.11 4.67128 316.125 4.66364 316.783 4.68468C316.851 4.68659 316.933 4.71525 316.972 4.74011C316.991 4.75349 316.947 4.79176 316.914 4.81088C316.87 4.83382 316.802 4.86058 316.739 4.86631C316.023 4.91603 315.303 4.96 314.587 5.00972C314.514 5.01546 314.437 5.02885 314.383 5.04797C314.325 5.06901 314.253 5.09767 314.253 5.12444C314.253 5.14356 314.349 5.16651 314.417 5.1799C314.63 5.22387 314.882 5.15695 315.09 5.20667C315.23 5.23917 315.346 5.28505 315.486 5.31565C315.544 5.32903 315.636 5.32713 315.709 5.3233C315.951 5.30992 316.188 5.2908 316.43 5.27933C316.497 5.27742 316.575 5.29655 316.638 5.31184C317.102 5.42657 317.102 5.42656 317.504 5.4017C317.663 5.39214 317.833 5.36346 317.983 5.37493C318.128 5.3864 318.254 5.43803 318.384 5.47054C318.655 5.53937 318.912 5.60629 318.931 5.75543C318.941 5.8128 319.1 5.8625 319.26 5.86633C319.415 5.87015 319.579 5.84914 319.739 5.83766C320.116 5.81472 320.116 5.81472 320.605 5.93135C320.74 5.96386 320.885 5.96768 321.06 5.94855C321.127 5.94091 321.21 5.94856 321.282 5.95812C321.519 5.98681 321.519 6.02313 321.364 6.09196C321.147 6.1933 321.166 6.20287 321.776 6.28891C322.008 6.32142 322.187 6.38261 322.38 6.43614C322.695 6.52219 322.69 6.52217 322.482 6.63498C322.434 6.65984 322.39 6.68662 322.342 6.71339C322.201 6.78796 322.09 6.86826 321.8 6.87591C321.48 6.88356 321.161 6.91416 320.842 6.93519C320.532 6.95623 320.45 7.0021 320.479 7.13212C320.513 7.28891 320.576 7.30612 321.132 7.30421C321.292 7.30421 321.432 7.3195 321.553 7.37113C321.495 7.43231 321.389 7.48012 321.234 7.49159C320.837 7.52027 320.436 7.54514 320.039 7.56999C319.72 7.59102 319.4 7.61205 319.081 7.63308C318.883 7.64647 318.757 7.7459 318.81 7.8568C318.839 7.9199 318.863 7.983 318.887 8.0461C318.941 8.17229 319.042 8.20481 319.366 8.19907C319.449 8.19716 319.526 8.18185 319.603 8.18567C319.918 8.19906 320.068 8.35776 320.445 8.32525C320.76 8.29848 321.089 8.29275 321.398 8.25834C321.684 8.22774 321.843 8.29659 322.042 8.34822C322.109 8.36543 322.182 8.40174 322.24 8.39983C322.642 8.37879 323.043 8.35778 323.435 8.32145C323.619 8.30615 323.73 8.31762 323.875 8.36351C324.224 8.47441 324.233 8.46867 324.751 8.43425C325.128 8.40749 325.133 8.41131 325.617 8.52794C325.752 8.56045 325.897 8.56044 326.072 8.54515C326.299 8.52603 326.536 8.49543 326.773 8.52412C326.846 8.53176 326.938 8.55472 326.962 8.57957C326.976 8.59678 326.909 8.63885 326.851 8.65223C326.425 8.75166 325.926 8.73446 325.462 8.77461C325.317 8.78608 325.172 8.74975 325.051 8.69812C324.925 8.6465 324.79 8.62547 324.625 8.63503C324.306 8.65606 323.982 8.66944 323.667 8.70004C323.396 8.7268 323.208 8.68282 323.019 8.62355C322.956 8.60443 322.883 8.56809 322.821 8.57C322.105 8.60825 321.384 8.6465 320.673 8.70004C320.387 8.72298 320.223 8.6618 320.029 8.61017C319.961 8.59297 319.894 8.55663 319.831 8.55854C319.589 8.56619 319.352 8.58722 319.11 8.60252C318.229 8.65988 317.354 8.71724 316.473 8.77078C316.415 8.77461 316.343 8.73445 316.275 8.71724C316.144 8.68282 316.009 8.65031 315.873 8.61781C315.631 8.6331 315.394 8.65222 315.153 8.66369C314.978 8.67134 314.824 8.69812 314.799 8.77078C314.785 8.81858 314.945 8.86255 315.114 8.85873C315.278 8.85491 315.443 8.83196 315.578 8.85682C316.251 8.97919 316.251 8.9811 316.672 8.95625C317.039 8.9333 317.001 8.91417 317.325 9.01934C317.465 9.06523 317.591 9.09201 317.75 9.08054C318.147 9.05377 318.549 9.02699 318.95 9.00405C319.013 9.00023 319.095 9.01935 319.158 9.03465C319.632 9.14937 319.632 9.15319 320.024 9.12451C320.537 9.09009 320.556 9.08053 320.9 9.19717C321.137 9.27748 321.355 9.22202 321.582 9.2182C321.843 9.29277 322.129 9.3597 322.366 9.44384C322.646 9.54326 322.941 9.52604 323.261 9.49736C323.498 9.47632 323.73 9.46868 323.924 9.54707C324.107 9.61973 324.33 9.62739 324.581 9.60827C324.809 9.59106 325.041 9.55472 325.278 9.59679C325.341 9.60826 325.438 9.63695 325.433 9.65416C325.428 9.68093 325.365 9.71918 325.302 9.73065C324.857 9.80904 324.369 9.80712 323.899 9.84345C323.837 9.84919 323.754 9.82815 323.691 9.81285C323.556 9.77844 323.425 9.73829 323.295 9.70196C323.058 9.71343 322.816 9.71725 322.584 9.74019C322.405 9.7574 322.269 9.75551 322.138 9.70962C322.017 9.66755 321.887 9.61591 321.742 9.60253C321.597 9.58915 321.427 9.61783 321.268 9.6293C321.108 9.64077 320.924 9.63503 320.798 9.66562C320.673 9.69621 320.595 9.76314 320.513 9.81668C320.421 9.87596 320.295 9.89509 320.111 9.90083C319.942 9.90656 319.807 9.89891 319.681 9.84537C319.628 9.82242 319.555 9.80521 319.482 9.78991C319.415 9.77653 319.337 9.75549 319.274 9.75931C318.554 9.80329 317.838 9.85111 317.117 9.897C316.759 9.91994 316.764 9.91992 316.019 9.80711C315.951 9.79755 315.869 9.78417 315.801 9.788C315.399 9.81094 315.003 9.83771 314.601 9.86448C314.195 9.89125 314.199 9.88743 313.508 9.76697C313.382 9.74402 313.198 9.77462 313.048 9.77079C312.734 9.76123 312.579 9.60062 312.211 9.63122C311.897 9.65798 311.568 9.66372 311.253 9.69813C310.968 9.72873 310.803 9.66181 310.61 9.61019C310.542 9.59298 310.469 9.55473 310.411 9.55856C309.691 9.60062 308.975 9.64842 308.017 9.65416C307.78 9.65416 307.886 9.69432 308.041 9.7077C308.263 9.72874 308.336 9.68858 308.215 9.6121C308.128 9.55856 308.002 9.53177 307.901 9.54516C307.847 9.55281 307.78 9.58915 308.017 9.65416C308.268 9.72682 308.254 9.76696 308.297 9.78991C308.404 9.84536 308.554 9.8683 308.709 9.86066C308.95 9.84727 309.188 9.82815 309.429 9.81668C309.497 9.81286 309.579 9.82624 309.642 9.84154C310.174 9.96009 310.179 9.96774 310.745 9.92185C310.924 9.90847 311.055 9.90847 311.195 9.9448C311.389 9.99451 311.529 10.0786 311.824 10.0519C312.216 10.0155 312.618 9.99452 313.019 9.97348C313.082 9.96966 313.15 10.0041 313.222 10.0194C313.421 10.0653 313.566 10.1513 313.861 10.115C314.088 10.0863 314.335 10.0786 314.577 10.0729C314.64 10.071 314.736 10.1016 314.765 10.1264C314.824 10.1704 314.751 10.2221 314.587 10.2584C314.519 10.2737 314.427 10.2698 314.349 10.2756C314.03 10.2966 313.711 10.3196 313.392 10.3368C313.222 10.3463 313.063 10.375 313.043 10.4458C313.029 10.4936 313.203 10.5356 313.367 10.5318C313.609 10.5261 313.851 10.5108 314.083 10.4859C314.495 10.4438 314.853 10.4553 315.186 10.5758C315.423 10.6599 315.409 10.6293 315.661 10.8779C315.723 10.941 315.912 10.9467 316.077 10.9429C316.473 10.9333 316.657 10.962 316.623 11.0213C316.58 11.094 316.439 11.1169 316.26 11.1264C315.941 11.1417 315.622 11.1666 315.303 11.1876C315.225 11.1934 315.138 11.2048 315.065 11.201C314.993 11.1972 314.925 11.1743 314.862 11.157C314.727 11.1207 314.611 11.0653 314.466 11.0519C314.32 11.0385 314.151 11.0672 313.991 11.0786C313.832 11.0882 313.663 11.1169 313.517 11.1035C313.372 11.0901 313.251 11.0328 313.121 10.9984C313.058 10.9811 312.98 10.9544 312.917 10.9563C312.598 10.9716 312.279 10.9964 311.96 11.0156C311.568 11.0404 311.568 11.0404 311.094 10.9219C310.958 10.8875 310.818 10.8894 310.639 10.9047C310.252 10.9353 310.247 10.9295 309.541 10.8186C309.473 10.8071 309.391 10.7938 309.323 10.7995C308.602 10.8435 307.886 10.8913 307.17 10.9372C306.556 10.9773 306.556 10.9773 306.217 11.1685C305.965 11.31 305.961 11.31 306.207 11.375C306.406 11.4286 306.585 11.507 306.802 11.5356C307.006 11.5624 307.257 11.4764 307.48 11.5643C307.591 11.6083 307.736 11.6561 307.876 11.6638C308.099 11.6733 308.336 11.6179 308.549 11.702C308.655 11.7441 308.815 11.788 308.95 11.79C309.188 11.7938 309.429 11.7632 309.666 11.7498C309.739 11.746 309.821 11.746 309.889 11.7555C309.962 11.767 310.024 11.79 310.087 11.8091C310.281 11.8741 310.489 11.9047 310.74 11.8722C311.152 11.8186 311.519 11.8454 311.839 11.9678C311.882 11.985 311.989 11.9869 312.056 11.9793C312.23 11.9601 312.38 11.9582 312.511 11.9945C312.564 12.0098 312.642 12.0366 312.632 12.0538C312.617 12.0825 312.559 12.1207 312.497 12.1303C312.042 12.1953 311.553 12.203 311.084 12.2374C311.021 12.2412 310.944 12.2163 310.881 12.1991C310.745 12.1647 310.629 12.1074 310.484 12.094C310.339 12.0806 310.17 12.1054 310.01 12.115C309.85 12.1246 309.681 12.1532 309.536 12.1418C309.391 12.1284 309.255 12.0806 309.139 12.0385C309.004 11.9907 308.873 11.985 308.694 12.0041C308.462 12.029 308.22 12.0328 307.983 12.0462C307.852 12.0098 307.722 11.9697 307.586 11.9353C307.523 11.918 307.446 11.897 307.378 11.8989C307.059 11.9142 306.739 11.9372 306.42 11.9582C306.101 11.9792 306.101 11.9793 305.559 11.8607C305.496 11.8473 305.414 11.832 305.346 11.8358C304.945 11.8588 304.548 11.8875 304.146 11.9104C303.992 11.92 303.851 11.8932 303.726 11.8416C303.605 11.7899 303.459 11.7613 303.309 11.7708C302.671 11.811 302.032 11.8492 301.394 11.897C301.137 11.9161 300.92 11.8989 300.745 11.8301C300.542 11.7517 300.315 11.7708 300.078 11.7861C299.541 11.8244 299.536 11.8224 299.192 11.7249C299.125 11.7058 299.057 11.6695 298.994 11.6714C298.438 11.7001 297.877 11.7268 297.325 11.7727C297.035 11.7976 296.88 11.7307 296.686 11.681C296.619 11.6637 296.546 11.6274 296.488 11.6312C296.087 11.6523 295.685 11.6714 295.293 11.7096C294.901 11.7479 294.751 11.5701 294.456 11.572C294.055 11.5739 293.658 11.6179 293.261 11.6446C292.942 11.6657 292.623 11.6867 292.303 11.7077C291.984 11.7288 291.665 11.746 291.345 11.7708C291.176 11.7842 291.05 11.767 290.91 11.7192C290.731 11.6561 290.518 11.6064 290.325 11.549C290.03 11.4668 290.03 11.4668 289.672 11.4897C289.594 11.4955 289.512 11.4993 289.435 11.505C288.849 11.5471 288.849 11.5433 288.104 11.4228C288.07 11.4171 287.983 11.4381 287.949 11.4534C287.848 11.5031 287.756 11.5567 287.664 11.6083C287.533 11.5777 287.374 11.5605 287.287 11.5165C287.04 11.3922 286.653 11.5624 286.401 11.44C286.309 11.3941 286.15 11.354 286.004 11.3425C285.854 11.331 285.685 11.3578 285.53 11.3693C285.129 11.398 285.129 11.3961 284.785 11.5662C284.611 11.6504 284.36 11.6351 284.132 11.6542C283.895 11.6752 283.668 11.6867 283.469 11.6083C283.29 11.5375 283.073 11.5203 282.816 11.5433C282.502 11.572 282.178 11.5892 281.858 11.6064C281.791 11.6102 281.708 11.6007 281.641 11.5892C280.9 11.4764 280.9 11.4745 280.542 11.4993C280.383 11.5108 280.218 11.5146 280.064 11.5318C279.802 11.5624 279.604 11.5222 279.415 11.4611C279.352 11.4419 279.28 11.4056 279.217 11.4075C278.898 11.4171 278.583 11.4343 278.269 11.4515C278.027 11.4649 277.785 11.4725 277.553 11.4993C277.166 11.5433 276.977 11.419 276.711 11.3616C276.314 11.3865 275.913 11.4037 275.516 11.4381C275.332 11.4534 275.211 11.4477 275.071 11.4018C274.892 11.3444 274.727 11.2794 274.437 11.3081C274.05 11.3464 273.644 11.3597 273.247 11.3827C272.981 11.3234 272.787 11.2029 272.405 11.2469C272.173 11.2737 271.926 11.2794 271.689 11.2947C271.37 11.3157 271.051 11.3349 270.731 11.3578C270.388 11.3808 270.393 11.375 269.865 11.2622C269.561 11.1953 269.246 11.2699 268.936 11.2813C268.695 11.2909 268.574 11.3788 268.632 11.4917C268.69 11.6045 268.559 11.6924 268.337 11.7077C267.78 11.7441 267.219 11.7823 266.663 11.8148C266.595 11.8186 266.513 11.8052 266.45 11.7918C265.855 11.6714 265.855 11.6733 265.589 11.6905C265.192 11.7192 264.786 11.7345 264.394 11.7708C264.123 11.7957 263.924 11.7555 263.75 11.6905C263.615 11.6408 263.489 11.6293 263.315 11.6408C261.399 11.7689 259.483 11.8875 257.572 12.0194C257.287 12.0385 257.122 11.9831 256.929 11.9314C256.861 11.9142 256.798 11.8779 256.731 11.8779C256.571 11.8779 256.411 11.8951 256.252 11.9066C255.536 11.9525 254.82 12.0079 254.099 12.0423C253.794 12.0576 253.712 12.1456 253.581 12.2183C253.48 12.2737 253.363 12.2966 253.184 12.3043C253.01 12.3119 252.884 12.3024 252.749 12.2527C252.575 12.1877 252.377 12.1475 252.106 12.1743C251.791 12.2049 251.472 12.2183 251.148 12.2393C250.983 12.2488 250.857 12.2833 250.804 12.3521C250.794 12.3636 250.896 12.3923 250.954 12.4095C251.148 12.4668 251.332 12.5337 251.549 12.5739C251.772 12.6141 252.014 12.5682 252.246 12.5567C252.328 12.5529 252.405 12.5414 252.483 12.5433C252.555 12.5452 252.643 12.5548 252.696 12.572C252.947 12.658 253.213 12.7173 253.562 12.6657C253.862 12.6905 254.017 12.8492 254.399 12.8072C254.631 12.7823 254.873 12.7708 255.115 12.7613C255.178 12.7594 255.245 12.7938 255.313 12.811C255.507 12.8588 255.661 12.9353 255.952 12.9028C256.261 12.8684 256.59 12.8626 256.905 12.8359C257.079 12.8206 257.205 12.8339 257.34 12.8837C257.514 12.9468 257.713 12.9945 257.984 12.964C258.216 12.9372 258.463 12.9314 258.7 12.9142C259.009 12.8932 259.009 12.8951 259.561 13.0137C259.624 13.0271 259.706 13.0423 259.774 13.0385C260.175 13.0156 260.572 12.9869 260.973 12.964C261.128 12.9544 261.278 12.9792 261.385 13.0347C261.428 13.0576 261.414 13.0959 261.428 13.1284C260.63 13.18 259.832 13.224 259.038 13.2871C258.738 13.312 258.603 13.2336 258.404 13.1896C258.337 13.1743 258.264 13.1418 258.201 13.1456C257.64 13.1781 257.084 13.2125 256.527 13.2546C256.353 13.268 256.223 13.2603 256.092 13.2049C255.758 13.0576 255.352 13.138 254.974 13.159C254.684 13.1743 254.592 13.2336 254.626 13.3598C254.67 13.5089 254.844 13.5548 255.289 13.528C255.449 13.5185 255.608 13.5051 255.768 13.4974C255.923 13.4898 256.063 13.5146 256.189 13.5663C256.31 13.6179 256.455 13.6447 256.605 13.637C256.924 13.6198 257.248 13.6026 257.558 13.5739C257.814 13.551 258.027 13.5701 258.206 13.6408C258.404 13.7192 258.637 13.702 258.869 13.6848C259.411 13.6466 259.416 13.6485 259.754 13.7441C259.822 13.7632 259.89 13.7995 259.953 13.7976C260.509 13.769 261.07 13.7441 261.617 13.6982C261.902 13.6753 262.067 13.7364 262.255 13.7862C262.323 13.8034 262.391 13.8416 262.454 13.8378C262.855 13.8168 263.257 13.7957 263.649 13.7594C263.833 13.7422 263.944 13.7536 264.094 13.7995C264.452 13.9123 264.461 13.9085 264.969 13.8722C265.124 13.8607 265.294 13.8397 265.439 13.855C265.584 13.8703 265.7 13.9257 265.835 13.9602C265.898 13.9755 265.976 13.9965 266.043 13.9926C266.363 13.9774 266.682 13.9544 267.001 13.9334C267.301 13.9124 267.301 13.9143 267.862 14.0328C268.09 14.0825 268.327 14.0405 268.554 14.0252C268.801 14.008 269.024 14.008 269.212 14.0825C269.401 14.1571 269.628 14.1533 269.87 14.138C270.098 14.1227 270.33 14.0806 270.562 14.1322C271.094 14.2508 271.094 14.2527 271.423 14.2297C271.902 14.1972 272.376 14.1666 272.86 14.138C272.923 14.1341 273.005 14.1571 273.068 14.1724C273.203 14.2068 273.32 14.2642 273.465 14.2775C273.61 14.2928 273.779 14.2699 273.934 14.2584C274.432 14.2221 274.466 14.2087 274.8 14.3349C275.081 14.4382 275.429 14.289 275.69 14.4076C275.84 14.4745 276.043 14.528 276.324 14.4955C276.556 14.4688 276.798 14.4611 277.04 14.4458C277.422 14.421 277.422 14.4229 277.906 14.5376C277.969 14.5529 278.051 14.572 278.114 14.5682C278.433 14.5529 278.757 14.5395 279.067 14.5051C279.43 14.4649 279.662 14.5376 279.933 14.6084C280.146 14.6638 280.397 14.6179 280.625 14.5988C280.872 14.5797 281.094 14.5854 281.278 14.66C281.471 14.7364 281.699 14.7269 281.941 14.7116C282.168 14.6982 282.4 14.6542 282.632 14.7078C283.131 14.8263 283.131 14.8263 283.494 14.8034C283.813 14.7823 284.132 14.7594 284.452 14.7441C284.514 14.7403 284.592 14.7651 284.655 14.7823C284.79 14.8168 284.906 14.8741 285.051 14.8875C285.197 14.9009 285.366 14.876 285.525 14.8665C285.685 14.8569 285.854 14.8282 286 14.8397C286.145 14.8512 286.28 14.899 286.396 14.9411C286.532 14.9908 286.658 14.9965 286.841 14.9774C287.074 14.9525 287.315 14.9468 287.553 14.9334C287.683 14.9697 287.819 15.0061 287.944 15.0462C288.075 15.0883 288.215 15.0844 288.394 15.0711C288.989 15.0252 288.994 15.0309 289.492 15.1495C289.72 15.203 289.957 15.159 290.184 15.1456C290.426 15.1303 290.654 15.1227 290.842 15.1992C291.026 15.2718 291.254 15.2814 291.495 15.2584C291.65 15.2431 291.815 15.2336 291.974 15.2279C292.047 15.226 292.134 15.2336 292.187 15.2489C292.444 15.3292 292.695 15.4019 293.048 15.3502C293.358 15.3655 293.513 15.5223 293.885 15.4917C294.2 15.465 294.529 15.4592 294.838 15.4248C295.124 15.3942 295.327 15.4478 295.472 15.5147C295.733 15.6332 296.101 15.4726 296.362 15.5893C296.512 15.6562 296.706 15.7097 296.996 15.681C297.315 15.6504 297.417 15.6906 297.509 15.811C297.562 15.8799 297.552 15.9353 297.456 15.9889C297.359 16.0443 297.253 16.0348 297.098 15.9717C296.919 15.9009 296.706 15.8875 296.449 15.9028C296.198 15.9181 296.043 15.8187 295.835 15.7805C295.627 15.7403 295.38 15.8072 295.163 15.7556C294.65 15.6351 294.65 15.6351 294.301 15.6581C294.064 15.6734 293.818 15.681 293.585 15.7078C293.31 15.7403 293.131 15.681 292.942 15.6275C292.874 15.6084 292.806 15.572 292.748 15.5739C292.192 15.6026 291.631 15.6294 291.079 15.6772C290.789 15.7021 290.634 15.6332 290.441 15.5854C290.373 15.5682 290.3 15.5338 290.242 15.5376C289.763 15.5644 289.289 15.5988 288.81 15.6313C288.718 15.6829 288.617 15.7326 288.53 15.7881C288.438 15.8455 288.312 15.8703 288.128 15.8684C287.824 15.8684 287.524 15.9487 287.219 15.8474C286.904 15.7441 286.88 15.7499 286.575 15.7747C286.188 15.8072 285.777 15.7996 285.414 15.8741C285.351 15.8875 285.284 15.9238 285.284 15.9506C285.279 15.9678 285.38 15.9927 285.443 16.008C285.656 16.0539 285.903 15.987 286.116 16.0348C286.256 16.0653 286.372 16.1112 286.512 16.1437C286.57 16.1571 286.658 16.1552 286.735 16.1533C286.817 16.1514 286.895 16.138 286.972 16.1399C287.045 16.1418 287.122 16.1533 287.18 16.1705C287.446 16.2432 287.727 16.3101 287.964 16.3961C288.196 16.4803 288.414 16.4229 288.646 16.4191C289.575 16.5529 289.575 16.5548 290.199 16.5128C290.354 16.5032 290.513 16.4917 290.673 16.4937C290.741 16.4937 290.804 16.5281 290.871 16.5472C291.065 16.6045 291.249 16.6562 291.52 16.6256C291.752 16.5988 291.999 16.5931 292.236 16.5759C292.555 16.5548 292.555 16.5548 293.097 16.6753C293.232 16.7059 293.377 16.7021 293.552 16.6868C293.702 16.6734 293.856 16.7021 293.963 16.7575C294.006 16.7805 293.992 16.8187 294.006 16.8512C293.527 16.8818 293.044 16.9028 292.579 16.9487C292.279 16.9774 292.144 16.8952 291.945 16.8512C291.878 16.8359 291.805 16.8034 291.742 16.8072C291.268 16.8359 290.794 16.8684 290.32 16.9067C290.262 16.9105 290.189 16.9545 290.184 16.9812C290.175 17.0309 290.296 17.0787 290.47 17.0768C290.702 17.0749 290.929 17.0424 291.137 17.1208C291.312 17.1896 291.529 17.2203 291.786 17.1897C291.94 17.1724 292.105 17.1724 292.26 17.1571C292.671 17.1113 293.043 17.1208 293.353 17.2508C293.59 17.2853 293.822 17.2528 294.05 17.2355C294.219 17.2222 294.384 17.2088 294.505 17.2451C294.761 17.3216 295.013 17.3981 295.366 17.3464C295.748 17.4 296.038 17.5128 296.358 17.6046C296.507 17.6485 296.624 17.6734 296.798 17.6447C296.87 17.6333 296.957 17.6332 297.035 17.6275C297.194 17.6179 297.364 17.5893 297.509 17.6007C297.654 17.6141 297.775 17.6696 297.906 17.704C297.969 17.7212 298.041 17.7499 298.104 17.748C298.346 17.7384 298.583 17.7193 298.82 17.704C299.057 17.6906 299.294 17.6772 299.531 17.6638C299.729 17.7136 299.933 17.7633 300.131 17.813C300.45 17.792 300.77 17.7709 301.084 17.7518C301.437 17.7289 301.437 17.7308 301.945 17.8493C302.173 17.9029 302.414 17.8684 302.632 17.8436C302.995 17.8034 303.237 17.8761 303.493 17.9526C303.547 17.9679 303.643 17.9774 303.706 17.9698C303.958 17.943 304.175 17.964 304.359 18.0348C304.49 18.0845 304.621 18.1075 304.78 18.0979C305.337 18.0616 305.893 18.0233 306.449 17.9908C306.517 17.987 306.594 18.0042 306.657 18.0195C307.151 18.1361 307.156 18.1419 307.518 18.1113C307.842 18.0845 308.142 18.073 308.399 18.1782C308.452 18.2011 308.534 18.2336 308.592 18.2317C308.989 18.2126 309.391 18.1916 309.783 18.1591C309.962 18.1438 310.087 18.1495 310.228 18.1935C310.407 18.2489 310.566 18.3159 310.861 18.291C311.679 18.2203 311.684 18.2317 312.651 18.3637C312.719 18.3732 312.811 18.3579 312.888 18.3503C313.053 18.3312 313.174 18.3579 313.319 18.4019C313.643 18.5013 313.653 18.4956 313.962 18.4746C314.199 18.4574 314.446 18.4535 314.678 18.4249C315.036 18.3828 315.273 18.4574 315.54 18.5281C315.752 18.5836 315.999 18.5377 316.227 18.5205C316.473 18.5013 316.696 18.5071 316.88 18.5797C317.005 18.6294 317.141 18.6562 317.301 18.6467C317.857 18.6122 318.413 18.574 318.97 18.5396C319.037 18.5357 319.12 18.551 319.182 18.5644C319.734 18.683 319.734 18.6887 320.281 18.6447C320.455 18.6314 320.6 18.6275 320.731 18.6677C320.856 18.7059 320.992 18.7423 321.122 18.7786C321.36 18.7652 321.601 18.7614 321.834 18.7384C322.013 18.7212 322.138 18.7289 322.279 18.769C322.463 18.8207 322.617 18.9105 322.908 18.8665C323.058 18.8455 323.232 18.8512 323.382 18.8321C323.561 18.8073 323.682 18.8226 323.822 18.8723C323.996 18.9315 324.175 18.9927 324.456 18.9621C324.765 18.9277 325.094 18.922 325.409 18.8952C325.583 18.8799 325.704 18.8952 325.844 18.9449C326.018 19.008 326.217 19.0482 326.488 19.0233C327.039 18.9755 327.044 18.9851 327.581 19.1055C327.716 19.1361 327.862 19.1323 328.036 19.117C328.186 19.1036 328.341 19.1323 328.447 19.1878C328.549 19.249 328.539 19.2872 328.549 19.3197ZM285.438 2.07469C285.279 2.08425 285.119 2.09572 284.887 1.92937C284.872 1.90069 284.882 1.86628 284.848 1.84142C284.771 1.78979 284.65 1.75347 284.505 1.74773C284.244 1.74008 283.929 1.80508 283.934 1.85479C283.939 1.89686 284.021 1.93318 284.181 1.9676C284.248 1.98098 284.302 2.00393 284.364 2.01923C284.548 2.06321 284.693 2.14926 284.96 2.10529C284.911 1.98674 284.935 2.04601 284.96 2.10529C284.935 2.17795 285.008 2.22957 285.182 2.25061C285.23 2.25634 285.303 2.25251 285.342 2.24104C285.492 2.19897 285.516 2.14162 285.405 1.99057C285.385 2.01542 285.4 2.05939 285.443 2.07086C285.487 2.08233 285.593 2.07278 285.646 2.0594C285.782 2.02307 285.85 1.97526 285.816 1.93511C285.796 1.91408 285.704 1.88731 285.646 1.88731C285.545 1.88731 285.453 1.92937 285.438 2.07469ZM324.557 24.249C324.204 24.2854 323.798 24.272 323.445 24.3465C323.382 24.3599 323.319 24.3944 323.314 24.4211C323.309 24.4383 323.406 24.4632 323.464 24.4766C323.595 24.5072 323.74 24.4976 323.909 24.488C324.165 24.4747 324.315 24.5626 324.514 24.6066C324.577 24.62 324.659 24.6295 324.727 24.6257C325.119 24.6028 325.506 24.5779 325.897 24.5512C325.965 24.5454 326.038 24.532 326.096 24.5148C326.289 24.4594 326.27 24.423 326.081 24.381C325.873 24.3351 325.709 24.2586 325.496 24.2223C325.191 24.1706 324.881 24.2395 324.557 24.249ZM297.083 25.6449C296.846 25.6602 296.614 25.6754 296.377 25.6907C296.299 25.6965 296.217 25.6984 296.145 25.706C295.995 25.7194 295.883 25.7596 295.811 25.8227C295.922 25.8724 296.058 25.9011 296.208 25.8953C296.445 25.8839 296.677 25.859 296.914 25.8533C297.17 25.8456 297.32 25.9317 297.519 25.9756C297.581 25.989 297.659 25.9909 297.731 25.9928C298.089 26.0005 298.307 25.9011 298.239 25.7615C298.191 25.6525 298.007 25.5875 297.785 25.6009C297.552 25.6143 297.315 25.6296 297.083 25.6449ZM326.212 21.423C326.27 21.3905 326.333 21.3675 326.362 21.3389C326.449 21.2413 326.415 21.1687 326.255 21.0922C326.062 20.9985 325.825 21.0616 325.607 21.0712C325.554 21.0731 325.496 21.1132 325.467 21.1381C325.448 21.1553 325.448 21.1916 325.477 21.2012C325.714 21.2777 325.965 21.3484 326.212 21.423ZM284.243 15.7747C284.011 15.79 283.774 15.8015 283.542 15.8225C283.484 15.8283 283.431 15.8646 283.397 15.8894C283.334 15.9353 283.402 15.9984 283.6 16.0042C283.827 16.0118 284.064 15.9793 284.301 15.964C284.601 15.9449 284.78 15.8741 284.669 15.8129C284.563 15.7537 284.418 15.7422 284.243 15.7747ZM29.5835 11.6886C29.7383 11.6791 29.8979 11.6714 30.0527 11.658C30.1978 11.6446 30.3092 11.6026 30.3818 11.5395C30.2608 11.4897 30.1253 11.463 29.9753 11.4687C29.7383 11.4802 29.5061 11.4955 29.2739 11.5146C29.1287 11.5261 28.9885 11.5681 28.9546 11.6332C28.9208 11.6829 29.2448 11.7116 29.5835 11.6886ZM263.784 11.3941C263.847 11.4114 263.91 11.4458 263.973 11.4458C264.128 11.4458 264.287 11.4343 264.432 11.4152C264.495 11.4075 264.544 11.3731 264.573 11.3463C264.592 11.3291 264.587 11.2985 264.558 11.2833C264.418 11.1915 263.857 11.224 263.765 11.3291C263.755 11.3483 263.779 11.3731 263.784 11.3941ZM248.521 0.923613C248.535 0.954206 248.54 0.984795 248.559 1.01539C248.598 1.07275 248.705 1.11483 248.859 1.14351C248.98 1.0957 249.043 1.04217 249.038 0.984812C249.034 0.954219 249.019 0.923606 249 0.893013C248.961 0.835651 248.855 0.7936 248.7 0.764919C248.579 0.810809 248.521 0.864338 248.521 0.923613ZM337.392 25.9776C337.349 26.0024 337.305 26.0273 337.257 26.0502C337.387 26.1057 337.508 26.1229 337.6 26.0923C337.658 26.0732 337.692 26.0445 337.736 26.0196C337.605 25.9642 337.489 25.9489 337.392 25.9776ZM334.383 26.2376C334.446 26.2548 334.504 26.2778 334.572 26.2892C334.683 26.3083 334.785 26.2758 334.862 26.207C334.799 26.1898 334.741 26.1668 334.673 26.1554C334.562 26.1362 334.46 26.1688 334.383 26.2376ZM336.289 25.8877C336.255 25.9336 336.323 25.9718 336.502 26.0043C336.546 25.9795 336.604 25.9565 336.633 25.9298C336.681 25.8858 336.599 25.8456 336.425 25.815C336.376 25.838 336.333 25.8628 336.289 25.8877ZM326.076 23.8265C326.043 23.8724 326.11 23.9106 326.289 23.9431C326.333 23.9182 326.391 23.8953 326.42 23.8685C326.468 23.8246 326.386 23.7844 326.212 23.7538C326.164 23.7768 326.12 23.8016 326.076 23.8265ZM312.163 10.2966C312.119 10.3215 312.076 10.3463 312.027 10.3693C312.158 10.4247 312.279 10.4419 312.371 10.4113C312.429 10.3922 312.463 10.3635 312.506 10.3387C312.376 10.2832 312.26 10.2679 312.163 10.2966ZM298.834 3.11867C298.951 3.13206 299.047 3.1053 299.13 3.03455C299.067 3.01734 299.009 2.9944 298.941 2.98292C298.83 2.9638 298.728 2.99632 298.651 3.06515C298.714 3.08427 298.776 3.10146 298.834 3.11867ZM291.757 2.66934C291.713 2.6942 291.67 2.71905 291.621 2.742C291.752 2.79745 291.873 2.81465 291.965 2.78406C292.023 2.76494 292.057 2.73626 292.1 2.7114C291.97 2.65595 291.853 2.64257 291.757 2.66934ZM243.76 0.921699C243.717 0.946556 243.673 0.971414 243.625 0.994359C243.755 1.04981 243.876 1.06701 243.968 1.03642C244.026 1.0173 244.06 0.988616 244.104 0.963759C243.973 0.908309 243.857 0.89493 243.76 0.921699ZM4.7749 16.4783C4.71201 16.4611 4.64918 16.4439 4.59112 16.4248C4.45082 16.4765 4.4073 16.5242 4.4847 16.5606C4.53308 16.5835 4.60559 16.5969 4.66849 16.6141C4.81362 16.5625 4.84747 16.5166 4.7749 16.4783Z" fill="#FFE492"/>
<path id="Vector_2" d="M32.8356 9.72706C32.2792 9.76339 31.7277 9.80927 31.1714 9.83221C30.8763 9.84368 30.7699 9.92591 30.649 10.0024C30.5522 10.0636 30.4409 10.0827 30.2619 10.0942C28.7525 10.1879 27.2479 10.2873 25.7433 10.3848C25.5546 10.3599 25.4627 10.3198 25.5063 10.272C25.5305 10.2433 25.5885 10.2032 25.6466 10.1993C26.677 10.1286 27.7026 10.0559 28.7379 10.0005C29.033 9.98518 29.1153 9.90105 29.2653 9.83221C29.3137 9.80927 29.3524 9.77485 29.4153 9.76147C29.4782 9.74617 29.5701 9.74809 29.6523 9.74426C31.3166 9.63528 32.9808 9.52821 34.645 9.41922C34.8337 9.44408 34.9256 9.48422 34.8821 9.53203C34.8579 9.56071 34.7998 9.60086 34.7418 9.60469C34.1032 9.64484 33.4693 9.685 32.8356 9.72706Z" fill="#FFE492"/>
<path id="Vector_3" d="M337.456 19.9086C337.204 19.9316 336.885 19.9641 336.624 19.8532C336.498 19.7996 336.362 19.7824 336.198 19.7939C335.961 19.813 335.719 19.8283 335.477 19.8398C335.414 19.8417 335.332 19.8207 335.269 19.8035C335.134 19.769 335.018 19.7117 334.872 19.6964C334.727 19.6811 334.553 19.7232 334.403 19.7136C334.205 19.7002 334.123 19.6486 334.176 19.6008C334.205 19.574 334.263 19.5358 334.326 19.53C335.221 19.4593 335.226 19.4593 335.477 19.5281C335.671 19.5817 335.85 19.6409 336.125 19.6084C336.358 19.5817 336.604 19.5759 336.841 19.5587C337.17 19.5358 337.17 19.5377 337.703 19.6581C337.838 19.6887 337.983 19.6868 338.157 19.6696C338.307 19.6562 338.452 19.6868 338.573 19.7385C338.496 19.8035 338.385 19.8455 338.235 19.857C337.993 19.8761 337.756 19.8895 337.456 19.9086Z" fill="#FFE492"/>
<path id="Vector_4" d="M328.547 19.3198C329.157 19.2797 329.771 19.2453 330.381 19.1994C330.632 19.1803 330.831 19.2013 331.005 19.2663C331.193 19.3371 331.406 19.3313 331.638 19.318C331.784 19.3103 331.924 19.3409 332.021 19.3944C332.059 19.4155 332.05 19.4537 332.064 19.4843C331.532 19.5187 330.995 19.555 330.458 19.5856C330.395 19.5894 330.318 19.5703 330.26 19.555C330.129 19.5225 330.018 19.4652 329.877 19.4537C329.577 19.4269 329.278 19.4785 328.973 19.4881C328.828 19.4919 328.687 19.4633 328.591 19.4116C328.552 19.3868 328.562 19.3504 328.547 19.3198Z" fill="#FFE492"/>
<path id="Vector_5" d="M108.256 2.87945C108.89 2.83739 109.523 2.79725 110.157 2.75519C110.346 2.78196 110.433 2.82019 110.394 2.86799C110.37 2.89668 110.312 2.93683 110.254 2.94065C108.986 3.0267 107.719 3.1089 106.456 3.19112C106.268 3.16435 106.18 3.12612 106.219 3.07832C106.243 3.04964 106.301 3.00948 106.359 3.00566C106.988 2.96168 107.622 2.92152 108.256 2.87945Z" fill="#FFE492"/>
<path id="Vector_6" d="M10.5982 13.5047C10.3128 13.5086 10.0129 13.5793 9.69357 13.5258C9.63068 13.5162 9.54357 13.4856 9.54841 13.4684C9.55809 13.4397 9.61615 13.4034 9.67904 13.3919C9.9548 13.3441 10.2983 13.3384 10.4386 13.2045C10.5063 13.1357 10.6321 13.1128 10.8015 13.0994C10.9805 13.0841 11.1062 13.0898 11.2465 13.13C11.4303 13.1816 11.5852 13.2772 11.8754 13.2275C11.89 13.2581 11.9237 13.2925 11.9092 13.3212C11.8947 13.3498 11.8319 13.3766 11.7739 13.3977C11.7207 13.4168 11.648 13.434 11.5803 13.4397C11.261 13.4627 10.9417 13.4818 10.5982 13.5047Z" fill="#FFE492"/>
<path id="Vector_7" d="M262.208 13.1206C262.445 13.1053 262.691 13.0976 262.924 13.0709C263.108 13.0498 263.224 13.0632 263.369 13.1091C263.615 13.1894 263.63 13.1818 264.235 13.1932C264.302 13.1951 264.385 13.2238 264.423 13.2487C264.448 13.262 264.414 13.2984 264.385 13.3175C264.341 13.3424 264.278 13.3749 264.22 13.3749C263.838 13.3806 263.451 13.4934 263.079 13.3634C262.89 13.2984 262.682 13.2678 262.425 13.2965C262.271 13.3137 262.106 13.3213 261.946 13.329C261.792 13.3366 261.632 13.3156 261.535 13.2582C261.395 13.1741 261.477 13.1416 261.729 13.1473C261.888 13.1512 262.048 13.1301 262.208 13.1206Z" fill="#FFE492"/>
<path id="Vector_8" d="M349.888 26.3009C350.193 26.2818 350.497 26.2589 350.807 26.2436C350.87 26.2397 350.947 26.2608 351.006 26.2742C351.238 26.3315 351.204 26.429 351.214 26.5151C351.218 26.6049 350.681 26.6776 350.454 26.6164C350.202 26.5476 349.975 26.4692 349.627 26.5113C349.491 26.5266 349.332 26.4921 349.245 26.4367C349.114 26.3564 349.187 26.3239 349.433 26.3296C349.578 26.3334 349.733 26.3124 349.888 26.3009Z" fill="#FFE492"/>
<path id="Vector_9" d="M196.297 0.275631C196.611 0.254598 196.926 0.222108 197.24 0.220196C197.424 0.218284 197.516 0.281371 197.472 0.32726C197.448 0.355942 197.39 0.396096 197.332 0.39992C196.703 0.44581 196.074 0.484058 195.445 0.526124C195.262 0.499355 195.17 0.459208 195.213 0.413318C195.237 0.384637 195.295 0.346394 195.353 0.340658C195.668 0.313889 195.982 0.296663 196.297 0.275631Z" fill="#FFE492"/>
<path id="Vector_10" d="M343.857 20.0769C344.162 20.0577 344.471 20.029 344.776 20.0195C344.936 20.0157 345.062 20.0596 345.081 20.1094C345.091 20.1323 345.013 20.1725 344.95 20.182C344.515 20.247 344.046 20.2547 343.591 20.2872C343.446 20.2967 343.291 20.2661 343.204 20.2126C343.073 20.1304 343.146 20.0998 343.392 20.1055C343.547 20.1075 343.702 20.0864 343.857 20.0769Z" fill="#FFE492"/>
<path id="Vector_11" d="M270.199 13.379C270.354 13.3694 270.513 13.3445 270.663 13.3522C270.823 13.3617 270.925 13.4172 270.973 13.4726C271.026 13.5357 271.021 13.595 270.973 13.6486C270.896 13.7403 270.818 13.7365 270.639 13.6753C270.363 13.5797 270.344 13.5912 269.797 13.595C269.734 13.595 269.657 13.5663 269.609 13.5415C269.536 13.5032 269.575 13.444 269.744 13.4095C269.87 13.3847 270.044 13.3885 270.199 13.379Z" fill="#FFE492"/>
<path id="Vector_12" d="M332.52 19.4495C332.748 19.4342 332.975 19.4093 333.202 19.4093C333.362 19.4074 333.488 19.4514 333.502 19.4992C333.507 19.5221 333.434 19.5604 333.376 19.5719C333.101 19.6235 332.791 19.6273 332.491 19.6445C332.351 19.6522 332.196 19.6216 332.109 19.568C331.978 19.4877 332.056 19.4514 332.293 19.4629C332.365 19.4667 332.443 19.4552 332.52 19.4495Z" fill="#FFE492"/>
<path id="Vector_13" d="M296.736 17.1037C296.397 17.1267 296.078 17.098 296.102 17.0483C296.136 16.9833 296.276 16.9412 296.421 16.9297C296.653 16.9106 296.886 16.8953 297.123 16.8839C297.273 16.8762 297.408 16.9049 297.529 16.9546C297.457 17.0158 297.345 17.0598 297.2 17.0731C297.05 17.0865 296.891 17.0942 296.736 17.1037Z" fill="#FFE492"/>
<path id="Vector_14" d="M294.513 16.859C294.741 16.8437 294.968 16.8189 295.195 16.8189C295.355 16.817 295.481 16.8609 295.495 16.9087C295.5 16.9317 295.428 16.9699 295.37 16.9814C295.094 17.033 294.784 17.0369 294.484 17.0541C294.344 17.0617 294.189 17.0311 294.102 16.9776C293.971 16.8973 294.049 16.8609 294.286 16.8724C294.358 16.8762 294.436 16.8648 294.513 16.859Z" fill="#FFE492"/>
<path id="Vector_15" d="M267.458 13.3635C267.685 13.3482 267.912 13.3233 268.14 13.3214C268.3 13.3195 268.425 13.3635 268.44 13.4113C268.445 13.4342 268.372 13.4706 268.314 13.484C268.038 13.5356 267.729 13.5394 267.429 13.5566C267.288 13.5643 267.134 13.5337 267.047 13.4801C266.916 13.3998 266.993 13.3635 267.23 13.375C267.303 13.3788 267.38 13.3673 267.458 13.3635Z" fill="#FFE492"/>
<path id="Vector_16" d="M266.183 13.2509C266.425 13.2356 266.503 13.226 266.58 13.226C266.725 13.226 266.875 13.249 266.962 13.3044C267.093 13.3847 267.015 13.4077 266.778 13.4115C266.474 13.4153 266.174 13.4555 265.869 13.4631C265.709 13.467 265.583 13.421 265.574 13.3732C265.569 13.3503 265.642 13.3101 265.7 13.3025C265.903 13.2738 266.125 13.2566 266.183 13.2509Z" fill="#FFE492"/>
<path id="Vector_17" d="M292.544 2.00209C292.389 2.01165 292.225 2.03842 292.08 2.02886C291.886 2.01548 291.809 1.96386 291.857 1.91606C291.886 1.88929 291.939 1.85105 291.997 1.84531C292.307 1.81854 292.621 1.80132 292.931 1.7822C293.115 1.81088 293.197 1.85103 293.149 1.89883C293.12 1.9256 293.066 1.96193 293.008 1.96958C292.858 1.9887 292.699 1.99253 292.544 2.00209Z" fill="#FFE492"/>
<path id="Vector_18" d="M104.788 3.10524C104.938 3.10332 105.074 3.12818 105.19 3.17598C105.117 3.23717 105.011 3.27732 104.866 3.29453C104.793 3.30218 104.711 3.30791 104.634 3.30982C104.484 3.31364 104.348 3.28687 104.232 3.23907C104.305 3.17789 104.416 3.13773 104.556 3.12052C104.629 3.11288 104.711 3.11097 104.788 3.10524Z" fill="#FFE492"/>
<path id="Vector_19" d="M342.203 20.0695C342.198 20.014 342.493 19.951 342.759 19.9529C342.9 19.9548 343.045 19.9816 343.127 20.0332C343.253 20.1116 343.18 20.1422 342.943 20.1364C342.798 20.1326 342.643 20.1651 342.498 20.1594C342.334 20.1574 342.237 20.1154 342.203 20.0695Z" fill="#FFE492"/>
<path id="Vector_20" d="M271.603 13.6101C271.598 13.589 271.574 13.5642 271.589 13.545C271.68 13.4399 272.237 13.4074 272.382 13.4992C272.406 13.5164 272.416 13.545 272.397 13.5622C272.368 13.589 272.314 13.6234 272.256 13.6311C272.106 13.6502 271.951 13.6598 271.797 13.6617C271.729 13.6617 271.666 13.6292 271.603 13.6101Z" fill="#FFE492"/>
<path id="Vector_21" d="M12.3225 13.1994C11.7516 13.2396 11.7419 13.2357 11.8435 13.1401C11.9355 13.0541 12.1048 13.0024 12.3515 13.0024C12.4241 13.0024 12.5015 12.9986 12.5644 13.0063C12.6321 13.0158 12.7289 13.0349 12.7434 13.0579C12.7725 13.1019 12.6901 13.1497 12.545 13.1822C12.4821 13.1975 12.3999 13.1937 12.3225 13.1994Z" fill="#FFE492"/>
<path id="Vector_22" d="M111.932 2.83552C111.763 2.86802 111.618 2.85656 111.512 2.79537C111.405 2.73419 111.574 2.66152 111.87 2.64431C111.947 2.64049 112.029 2.6252 112.102 2.63285C112.174 2.63859 112.247 2.66151 112.29 2.68446C112.368 2.7227 112.32 2.77434 112.165 2.81832C112.102 2.83553 112.01 2.83169 111.932 2.83552Z" fill="#FFE492"/>
<path id="Vector_23" d="M341.194 19.9255C341.237 19.9007 341.281 19.8758 341.329 19.8529C341.508 19.8854 341.586 19.9236 341.537 19.9676C341.508 19.9944 341.45 20.0173 341.407 20.0422C341.228 20.0097 341.155 19.9695 341.194 19.9255Z" fill="#FFE492"/>
<path id="Vector_24" d="M19.9855 34.9661C19.9855 34.9431 20.0532 34.9068 20.1064 34.8991C20.208 34.8857 20.3338 34.9125 20.4208 34.9661C20.5418 35.0425 20.4693 35.0827 20.2467 35.0617C20.0919 35.0464 19.9855 35.0081 19.9855 34.9661Z" fill="#FFE492"/>
<path id="Vector_25" d="M273.571 11.8301C273.634 11.8474 273.697 11.8646 273.755 11.8837C273.673 11.9544 273.571 11.985 273.464 11.9659C273.397 11.9544 273.339 11.9315 273.276 11.9143C273.358 11.8435 273.455 11.8168 273.571 11.8301Z" fill="#FFE492"/>
<path id="Vector_26" d="M271.898 11.7442C271.995 11.7155 272.111 11.7308 272.247 11.7863C272.203 11.8111 272.165 11.8398 272.111 11.8589C272.019 11.8895 271.898 11.8742 271.768 11.8169C271.807 11.7939 271.85 11.7691 271.898 11.7442Z" fill="#FFE492"/>
<path id="Vector_27" d="M270.616 11.8286C270.679 11.8459 270.742 11.8631 270.8 11.8822C270.718 11.9529 270.621 11.9835 270.51 11.9644C270.442 11.9529 270.384 11.93 270.321 11.9128C270.403 11.842 270.5 11.8134 270.616 11.8286Z" fill="#FFE492"/>
<path id="Vector_28" d="M269.671 11.727C269.744 11.7652 269.705 11.8111 269.565 11.8628C269.502 11.8455 269.43 11.8322 269.381 11.8092C269.304 11.7729 269.342 11.7251 269.488 11.6735C269.546 11.6926 269.608 11.7098 269.671 11.727Z" fill="#FFE492"/>
</g>
</g>
</g>
</g>
</g>
</svg>
