<svg width="752" height="400" viewBox="0 0 752 400" fill="none" xmlns="http://www.w3.org/2000/svg">
<g id="Landing page V2 / desktop / 1440px" clip-path="url(#clip0_5_34420)">
<g id="Your data">
<g id="Element">
<path id="Ellipse 14" d="M679.368 316.177C679.368 150.564 545.112 16.3091 379.5 16.3091C213.888 16.3091 79.6324 150.564 79.6324 316.177" stroke="#A7CEFC" stroke-width="2" stroke-dasharray="15 15"/>
<line id="Line 3" x1="78.0071" y1="314.677" x2="679.367" y2="314.677" stroke="#A7CEFC" stroke-width="3" stroke-dasharray="15 15"/>
<line id="Line 4" x1="200.311" y1="74.758" x2="326.271" y2="250.29" stroke="#A7CEFC" stroke-width="3" stroke-dasharray="15 15"/>
<line id="Line 5" x1="580.97" y1="93.7235" x2="456.252" y2="251.283" stroke="#A7CEFC" stroke-width="3" stroke-dasharray="15 15"/>
<rect id="Rectangle 367" x="324.115" y="249.414" width="133.525" height="133.525" rx="8.5" stroke="#A7CEFC" stroke-width="3" stroke-dasharray="15 15"/>
<g id="Rectangle 368" filter="url(#filter0_d_5_34420)">
<rect x="350.245" y="275.544" width="81.2649" height="81.2649" rx="10" fill="white"/>
</g>
<g id="Rectangle 369" filter="url(#filter1_d_5_34420)">
<rect x="39" y="275.544" width="81.2649" height="81.2649" rx="10" fill="white"/>
</g>
<g id="protection 1">
<g id="Group">
<path id="Vector" d="M77.8097 319.306C77.4196 319.306 77.0296 319.157 76.7325 318.859C76.1374 318.264 76.1374 317.3 76.7325 316.705L86.6069 306.83C87.2011 306.235 88.1672 306.235 88.7614 306.83C89.3564 307.425 89.3564 308.39 88.7614 308.985L78.887 318.859C78.5899 319.157 78.1998 319.306 77.8097 319.306Z" fill="#FFE492"/>
</g>
<g id="Group_2">
<path id="Vector_2" d="M77.8092 319.306C77.4191 319.306 77.0298 319.157 76.7319 318.859L71.7539 313.882C71.1589 313.287 71.1589 312.323 71.7539 311.728C72.3482 311.133 73.3135 311.133 73.9085 311.728L78.8865 316.705C79.4815 317.3 79.4815 318.264 78.8865 318.859C78.5893 319.157 78.1993 319.306 77.8092 319.306Z" fill="#FFE492"/>
</g>
<g id="Group_3">
<path id="Vector_3" d="M79.6311 335.172C79.4726 335.172 79.3118 335.147 79.1534 335.095C69.4138 331.882 62.8702 322.833 62.8702 312.576C62.8702 311.735 63.5528 311.052 64.3939 311.052C65.235 311.052 65.9176 311.735 65.9176 312.576C65.9176 321.514 71.6201 329.401 80.108 332.201C80.9072 332.464 81.3414 333.326 81.0778 334.125C80.8668 334.766 80.271 335.172 79.6311 335.172Z" fill="#FFE492"/>
</g>
<g id="Group_4">
<path id="Vector_4" d="M64.3939 314.1C63.5528 314.1 62.8702 313.417 62.8702 312.576V301.797C62.8702 300.956 63.5528 300.273 64.3939 300.273C65.235 300.273 65.9176 300.956 65.9176 301.797V312.576C65.9176 313.418 65.235 314.1 64.3939 314.1Z" fill="#FFE492"/>
</g>
<g id="Group_5">
<path id="Vector_5" d="M64.3945 303.321C63.6464 303.321 62.9935 302.769 62.8868 302.007C62.771 301.173 63.3523 300.404 64.1866 300.288C69.3337 299.572 74.3018 298.034 78.9537 295.716C79.7071 295.341 80.6221 295.647 80.997 296.4C81.3726 297.154 81.0655 298.068 80.3128 298.443C75.3645 300.909 70.0803 302.544 64.6056 303.306C64.5347 303.316 64.4639 303.321 64.3945 303.321Z" fill="#FFE492"/>
</g>
<g id="Group_6">
<path id="Vector_6" d="M79.6324 335.172C78.9932 335.172 78.3967 334.766 78.1857 334.125C77.9221 333.326 78.3563 332.465 79.1555 332.201C87.6434 329.402 93.3459 321.515 93.3459 312.576C93.3459 311.735 94.0285 311.053 94.8696 311.053C95.7107 311.053 96.3933 311.735 96.3933 312.576C96.3933 322.832 89.8497 331.883 80.1094 335.095C79.9509 335.148 79.7909 335.172 79.6324 335.172Z" fill="#FFE492"/>
</g>
<g id="Group_7">
<path id="Vector_7" d="M94.8705 314.1C94.0294 314.1 93.3467 313.417 93.3467 312.576V301.797C93.3467 300.956 94.0294 300.273 94.8705 300.273C95.7115 300.273 96.3942 300.956 96.3942 301.797V312.576C96.3942 313.418 95.7115 314.1 94.8705 314.1Z" fill="#FFE492"/>
</g>
<g id="Group_8">
<path id="Vector_8" d="M94.872 303.321C94.8019 303.321 94.731 303.316 94.6602 303.306C89.1854 302.544 83.9012 300.909 78.9529 298.443C78.2002 298.068 77.8932 297.154 78.2688 296.4C78.6436 295.647 79.5586 295.341 80.3121 295.716C84.964 298.033 89.9321 299.572 95.0792 300.288C95.9127 300.404 96.4947 301.174 96.3789 302.007C96.2738 302.769 95.6209 303.321 94.872 303.321Z" fill="#FFE492"/>
</g>
</g>
<g id="Rectangle 370" filter="url(#filter2_d_5_34420)">
<rect x="638.735" y="275.544" width="81.2649" height="81.2649" rx="10" fill="white"/>
</g>
<g id="padlock 1" clip-path="url(#clip1_5_34420)">
<g id="Group_9">
<g id="Group_10">
<path id="Vector_9" d="M693.08 309.701H689.648V301.87C689.648 296.316 685.034 291.797 679.363 291.797C673.692 291.797 669.078 296.316 669.078 301.87V309.701H665.653C662.502 309.701 659.939 312.264 659.939 315.415V334.842C659.939 337.993 662.502 340.556 665.653 340.556H693.08C696.231 340.556 698.794 337.993 698.794 334.842V315.415C698.794 312.264 696.231 309.701 693.08 309.701ZM672.887 301.87C672.887 298.416 675.792 295.606 679.363 295.606C682.934 295.606 685.839 298.416 685.839 301.87V309.701H672.887V301.87ZM694.985 334.842C694.985 335.892 694.13 336.747 693.08 336.747H665.653C664.603 336.747 663.749 335.892 663.749 334.842V315.415C663.749 314.365 664.603 313.51 665.653 313.51H693.08C694.13 313.51 694.985 314.365 694.985 315.415V334.842Z" fill="#4F9CF9"/>
</g>
</g>
<g id="Group_11">
<g id="Group_12">
<path id="Vector_10" d="M679.367 319.033C677.421 319.033 675.844 320.611 675.844 322.557C675.844 323.8 676.487 324.891 677.459 325.519V329.699C677.459 330.751 678.312 331.604 679.364 331.604C680.415 331.604 681.268 330.751 681.268 329.699V325.523C682.244 324.896 682.891 323.803 682.891 322.557C682.891 320.611 681.313 319.033 679.367 319.033Z" fill="#4F9CF9"/>
</g>
</g>
</g>
<g id="Rectangle 371" filter="url(#filter3_d_5_34420)">
<rect x="538.779" y="35" width="81.2649" height="81.2649" rx="10" fill="white"/>
</g>
<g id="database 1" clip-path="url(#clip2_5_34420)">
<g id="Group_13">
<g id="Group_14">
<path id="Vector_11" d="M571.708 51.253C561.881 51.253 555.032 54.6656 555.032 57.7284C555.032 60.7913 561.881 64.2039 571.708 64.2039C581.535 64.2039 588.384 60.7912 588.384 57.7284C588.384 54.6657 581.536 51.253 571.708 51.253Z" fill="#FFE492"/>
<path id="Vector_12" d="M555.032 87.4799V93.5364C555.032 96.5993 561.881 100.012 571.708 100.012C576.113 100.012 580.27 99.3182 583.414 98.0584C585.464 97.2374 586.981 96.2191 587.77 95.1609C586.283 93.9974 584.566 92.3243 583.07 90.0161C579.777 91.0705 575.885 91.6237 571.708 91.6237C566.453 91.6237 561.537 90.7184 557.866 89.0745C556.795 88.595 555.848 88.0607 555.032 87.4799V87.4799Z" fill="#FFE492"/>
<path id="Vector_13" d="M555.032 75.5713L555.032 81.5452C555.032 84.6079 561.881 88.0206 571.708 88.0206C575.193 88.0206 578.537 87.5835 581.339 86.7748C580.323 84.426 579.666 81.8333 579.377 79.0275C576.98 79.4783 574.369 79.7135 571.708 79.7135C566.419 79.7135 561.48 78.7979 557.801 77.1354C556.757 76.6635 555.831 76.1394 555.032 75.5713Z" fill="#FFE492"/>
<path id="Vector_14" d="M555.032 63.6576V69.6356C555.032 72.6983 561.881 76.111 571.708 76.111C574.336 76.111 576.899 75.8634 579.205 75.39C579.209 74.8239 579.378 73.3506 580.742 72.9762C582.891 72.3861 584.395 70.9696 584.528 69.0265C584.583 68.2266 585.584 67.1056 586.33 67.1168H588.384V63.6576C587.585 64.2257 586.66 64.7499 585.616 65.2224C581.932 66.8889 576.993 67.8068 571.708 67.8068C566.424 67.8068 561.485 66.8889 557.801 65.2224C556.756 64.7499 555.831 64.2257 555.032 63.6576V63.6576Z" fill="#FFE492"/>
</g>
<path id="Vector_15" d="M598.683 70.7198H587.935C587.334 73.2185 585.412 75.2683 582.813 76.1621C583.016 88.1561 589.91 92.7296 592.949 94.1635C593.123 94.2454 593.329 94.2366 593.5 94.1403C596.552 92.4208 603.47 87.3026 603.792 76.158C601.199 75.2621 599.283 73.2147 598.683 70.7198ZM592.665 86.339C591.935 87.0893 590.68 87.0481 590.001 86.2517L586.576 82.2328L589.319 79.8962L591.46 82.4087L597.434 76.2648L600.018 78.776L592.665 86.339Z" fill="#FFE492"/>
</g>
</g>
<g id="Rectangle 372" filter="url(#filter4_d_5_34420)">
<rect x="158.459" y="35" width="81.2649" height="81.2649" rx="10" fill="white"/>
</g>
<g id="key 1" clip-path="url(#clip3_5_34420)">
<g id="Group_15">
<g id="Group_16">
<path id="Vector_16" d="M217.25 55.8487C211.123 49.7212 201.153 49.7213 195.025 55.8487C190.84 60.0338 189.387 66.2029 191.198 71.7985L173.506 89.4912C173.238 89.7591 173.087 90.1225 173.087 90.5014V98.5834C173.087 99.3725 173.727 100.012 174.516 100.012H182.598C182.977 100.012 183.34 99.8615 183.608 99.5935L185.629 97.5727C185.938 97.2639 186.088 96.8311 186.038 96.3974L185.786 94.2277L188.793 93.9442C189.476 93.8799 190.017 93.339 190.082 92.656L190.365 89.6478L192.535 89.9C192.94 89.9473 193.346 89.819 193.65 89.5478C193.955 89.2768 194.129 88.8885 194.129 88.4808V85.8202H196.741C197.117 85.8202 197.478 85.672 197.746 85.4076L201.295 81.8991C206.892 83.7133 213.064 82.2604 217.251 78.0739C223.378 71.9465 223.378 61.9762 217.25 55.8487ZM215.23 76.0536C211.624 79.6596 206.215 80.7851 201.45 78.9214C200.924 78.7158 200.326 78.839 199.925 79.2359L196.154 82.9629H192.7C191.911 82.9629 191.272 83.6026 191.272 84.3916V86.8765L189.245 86.641C188.863 86.5967 188.48 86.7079 188.181 86.9496C187.882 87.1914 187.694 87.5433 187.658 87.9259L187.348 91.2104L184.064 91.5199C183.681 91.556 183.329 91.7446 183.087 92.0434C182.845 92.342 182.734 92.7256 182.778 93.1073L183.12 96.0409L182.006 97.1548H175.944V91.0934L193.857 73.1804C194.259 72.7791 194.384 72.1783 194.178 71.6498C192.314 66.8845 193.439 61.4755 197.045 57.8694C202.059 52.856 210.216 52.856 215.23 57.8694C220.243 62.8827 220.243 71.0402 215.23 76.0536Z" fill="#4F9CF9"/>
</g>
</g>
<g id="Group_17">
<g id="Group_18">
<path id="Vector_17" d="M213.209 59.8897C211.537 58.2184 208.818 58.2185 207.147 59.8897C205.476 61.5608 205.476 64.28 207.147 65.9511C208.818 67.6223 211.537 67.6224 213.209 65.9511C214.88 64.28 214.88 61.5608 213.209 59.8897ZM211.188 63.9307C210.631 64.4877 209.725 64.4878 209.168 63.9307C208.611 63.3737 208.611 62.4673 209.168 61.9102C209.726 61.3518 210.63 61.3518 211.188 61.9102C211.747 62.4687 211.746 63.3722 211.188 63.9307Z" fill="#4F9CF9"/>
</g>
</g>
</g>
<circle id="Ellipse 15" cx="381.938" cy="16.3091" r="13.0024" fill="#A7CEFC"/>
<circle id="Ellipse 16" cx="283.607" cy="193.467" r="13.0024" fill="#A7CEFC"/>
<circle id="Ellipse 17" cx="562.346" cy="316.177" r="13.0024" fill="#A7CEFC"/>
<g id="Logo Icon" clip-path="url(#clip4_5_34420)">
<g id="Group_19">
<g id="Group_20">
<path id="Vector_18" d="M364 299.487V308.569C364 311.335 367.454 312.81 369.565 310.874L379.641 301.792C381.848 299.81 380.408 296.306 377.386 296.306H367.31C365.487 296.306 364 297.735 364 299.487Z" fill="#5986EF"/>
<path id="Vector_19" d="M411.69 296.306H401.614C398.64 296.306 397.152 299.81 399.359 301.792L409.435 310.874C411.546 312.764 415 311.335 415 308.569V299.487C415 297.735 413.513 296.306 411.69 296.306Z" fill="#5986EF"/>
</g>
<path id="Vector_20" d="M391.779 318.48L409.435 334.43C411.546 336.32 415 334.891 415 332.125V322.952C415 322.076 414.616 321.246 413.944 320.647L391.779 300.593C390.484 299.441 388.516 299.441 387.221 300.593L365.056 320.647C364.384 321.246 364 322.076 364 322.952V332.125C364 334.891 367.454 336.367 369.565 334.43L387.221 318.48C388.516 317.327 390.484 317.327 391.779 318.48Z" fill="#5986EF"/>
</g>
</g>
</g>
</g>
</g>
<defs>
<filter id="filter0_d_5_34420" x="311.245" y="240.544" width="159.265" height="159.265" filterUnits="userSpaceOnUse" color-interpolation-filters="sRGB">
<feFlood flood-opacity="0" result="BackgroundImageFix"/>
<feColorMatrix in="SourceAlpha" type="matrix" values="0 0 0 0 0 0 0 0 0 0 0 0 0 0 0 0 0 0 127 0" result="hardAlpha"/>
<feMorphology radius="11" operator="erode" in="SourceAlpha" result="effect1_dropShadow_5_34420"/>
<feOffset dy="4"/>
<feGaussianBlur stdDeviation="25"/>
<feComposite in2="hardAlpha" operator="out"/>
<feColorMatrix type="matrix" values="0 0 0 0 0 0 0 0 0 0 0 0 0 0 0 0 0 0 0.2 0"/>
<feBlend mode="normal" in2="BackgroundImageFix" result="effect1_dropShadow_5_34420"/>
<feBlend mode="normal" in="SourceGraphic" in2="effect1_dropShadow_5_34420" result="shape"/>
</filter>
<filter id="filter1_d_5_34420" x="0" y="240.544" width="159.265" height="159.265" filterUnits="userSpaceOnUse" color-interpolation-filters="sRGB">
<feFlood flood-opacity="0" result="BackgroundImageFix"/>
<feColorMatrix in="SourceAlpha" type="matrix" values="0 0 0 0 0 0 0 0 0 0 0 0 0 0 0 0 0 0 127 0" result="hardAlpha"/>
<feMorphology radius="11" operator="erode" in="SourceAlpha" result="effect1_dropShadow_5_34420"/>
<feOffset dy="4"/>
<feGaussianBlur stdDeviation="25"/>
<feComposite in2="hardAlpha" operator="out"/>
<feColorMatrix type="matrix" values="0 0 0 0 0 0 0 0 0 0 0 0 0 0 0 0 0 0 0.2 0"/>
<feBlend mode="normal" in2="BackgroundImageFix" result="effect1_dropShadow_5_34420"/>
<feBlend mode="normal" in="SourceGraphic" in2="effect1_dropShadow_5_34420" result="shape"/>
</filter>
<filter id="filter2_d_5_34420" x="599.735" y="240.544" width="159.265" height="159.265" filterUnits="userSpaceOnUse" color-interpolation-filters="sRGB">
<feFlood flood-opacity="0" result="BackgroundImageFix"/>
<feColorMatrix in="SourceAlpha" type="matrix" values="0 0 0 0 0 0 0 0 0 0 0 0 0 0 0 0 0 0 127 0" result="hardAlpha"/>
<feMorphology radius="11" operator="erode" in="SourceAlpha" result="effect1_dropShadow_5_34420"/>
<feOffset dy="4"/>
<feGaussianBlur stdDeviation="25"/>
<feComposite in2="hardAlpha" operator="out"/>
<feColorMatrix type="matrix" values="0 0 0 0 0 0 0 0 0 0 0 0 0 0 0 0 0 0 0.2 0"/>
<feBlend mode="normal" in2="BackgroundImageFix" result="effect1_dropShadow_5_34420"/>
<feBlend mode="normal" in="SourceGraphic" in2="effect1_dropShadow_5_34420" result="shape"/>
</filter>
<filter id="filter3_d_5_34420" x="499.779" y="0" width="159.265" height="159.265" filterUnits="userSpaceOnUse" color-interpolation-filters="sRGB">
<feFlood flood-opacity="0" result="BackgroundImageFix"/>
<feColorMatrix in="SourceAlpha" type="matrix" values="0 0 0 0 0 0 0 0 0 0 0 0 0 0 0 0 0 0 127 0" result="hardAlpha"/>
<feMorphology radius="11" operator="erode" in="SourceAlpha" result="effect1_dropShadow_5_34420"/>
<feOffset dy="4"/>
<feGaussianBlur stdDeviation="25"/>
<feComposite in2="hardAlpha" operator="out"/>
<feColorMatrix type="matrix" values="0 0 0 0 0 0 0 0 0 0 0 0 0 0 0 0 0 0 0.2 0"/>
<feBlend mode="normal" in2="BackgroundImageFix" result="effect1_dropShadow_5_34420"/>
<feBlend mode="normal" in="SourceGraphic" in2="effect1_dropShadow_5_34420" result="shape"/>
</filter>
<filter id="filter4_d_5_34420" x="119.459" y="0" width="159.265" height="159.265" filterUnits="userSpaceOnUse" color-interpolation-filters="sRGB">
<feFlood flood-opacity="0" result="BackgroundImageFix"/>
<feColorMatrix in="SourceAlpha" type="matrix" values="0 0 0 0 0 0 0 0 0 0 0 0 0 0 0 0 0 0 127 0" result="hardAlpha"/>
<feMorphology radius="11" operator="erode" in="SourceAlpha" result="effect1_dropShadow_5_34420"/>
<feOffset dy="4"/>
<feGaussianBlur stdDeviation="25"/>
<feComposite in2="hardAlpha" operator="out"/>
<feColorMatrix type="matrix" values="0 0 0 0 0 0 0 0 0 0 0 0 0 0 0 0 0 0 0.2 0"/>
<feBlend mode="normal" in2="BackgroundImageFix" result="effect1_dropShadow_5_34420"/>
<feBlend mode="normal" in="SourceGraphic" in2="effect1_dropShadow_5_34420" result="shape"/>
</filter>
<clipPath id="clip0_5_34420">
<rect width="1440" height="8192" fill="white" transform="translate(-688 -4861.69)"/>
</clipPath>
<clipPath id="clip1_5_34420">
<rect width="48.7589" height="48.7589" fill="white" transform="translate(654.988 291.797)"/>
</clipPath>
<clipPath id="clip2_5_34420">
<rect width="48.7589" height="48.7589" fill="white" transform="translate(555.032 51.253)"/>
</clipPath>
<clipPath id="clip3_5_34420">
<rect width="48.7589" height="48.7589" fill="white" transform="translate(173.087 51.253)"/>
</clipPath>
<clipPath id="clip4_5_34420">
<rect width="51" height="39" fill="white" transform="translate(364 296.306)"/>
</clipPath>
</defs>
</svg>
